%TF.GenerationSoftware,KiCad,Pcbnew,7.0.6*%
%TF.CreationDate,2023-10-29T00:27:11-04:00*%
%TF.ProjectId,dual-stagger-good-delivery-plate,6475616c-2d73-4746-9167-6765722d676f,rev?*%
%TF.SameCoordinates,PX3318a14PY7a102be*%
%TF.FileFunction,Copper,L2,Bot*%
%TF.FilePolarity,Positive*%
%FSLAX46Y46*%
G04 Gerber Fmt 4.6, Leading zero omitted, Abs format (unit mm)*
G04 Created by KiCad (PCBNEW 7.0.6) date 2023-10-29 00:27:11*
%MOMM*%
%LPD*%
G01*
G04 APERTURE LIST*
G04 APERTURE END LIST*
%TA.AperFunction,NonConductor*%
G36*
X189502314Y76199325D02*
G01*
X189589272Y76192747D01*
X189638247Y76189042D01*
X189665565Y76183847D01*
X189738073Y76161395D01*
X189915821Y76106356D01*
X189948506Y76090691D01*
X190157160Y75949887D01*
X190183454Y75926005D01*
X190227355Y75872781D01*
X190343248Y75732274D01*
X190361843Y75701560D01*
X190461390Y75465530D01*
X190470164Y75432842D01*
X190499013Y75203832D01*
X190499500Y75196075D01*
X190499500Y1002367D01*
X190499323Y997687D01*
X190489036Y861754D01*
X190483841Y834434D01*
X190406351Y584177D01*
X190390687Y551495D01*
X190249881Y342839D01*
X190225996Y316542D01*
X190032267Y156751D01*
X190001553Y138156D01*
X189765523Y38610D01*
X189732835Y29836D01*
X189503827Y987D01*
X189496070Y500D01*
X1587599Y500D01*
X1002365Y501D01*
X997685Y678D01*
X861751Y10965D01*
X834433Y16159D01*
X584171Y93651D01*
X551494Y109313D01*
X342834Y250122D01*
X316541Y274004D01*
X243962Y361997D01*
X156748Y467734D01*
X138153Y498448D01*
X38607Y734478D01*
X29833Y767168D01*
X987Y996176D01*
X500Y1003932D01*
X500Y2381250D01*
X17944785Y2381250D01*
X17963602Y2178168D01*
X18019417Y1982003D01*
X18019422Y1981990D01*
X18110327Y1799429D01*
X18233237Y1636669D01*
X18383958Y1499270D01*
X18383960Y1499268D01*
X18510148Y1421137D01*
X18557363Y1391902D01*
X18588863Y1379699D01*
X18591927Y1378406D01*
X18592002Y1378380D01*
X18592004Y1378379D01*
X18593021Y1378027D01*
X18594499Y1377515D01*
X18672885Y1347149D01*
X18747544Y1318226D01*
X18780395Y1312085D01*
X18783608Y1311396D01*
X18790070Y1309828D01*
X18790075Y1309826D01*
X18790079Y1309826D01*
X18790081Y1309825D01*
X18800493Y1308328D01*
X18827696Y1303243D01*
X18948024Y1280750D01*
X18948026Y1280750D01*
X18983437Y1280750D01*
X18991643Y1280164D01*
X18991649Y1280278D01*
X18997537Y1279998D01*
X18997541Y1279997D01*
X18997544Y1279998D01*
X18997548Y1279997D01*
X19005954Y1280397D01*
X19005964Y1280395D01*
X19011938Y1280680D01*
X19014891Y1280750D01*
X19151975Y1280750D01*
X19151976Y1280750D01*
X19195198Y1288830D01*
X19203646Y1289815D01*
X19206902Y1289970D01*
X19206904Y1289971D01*
X19208781Y1290060D01*
X19208827Y1290065D01*
X19241914Y1291642D01*
X19272294Y1303242D01*
X19352456Y1318226D01*
X19397381Y1335631D01*
X19405145Y1338064D01*
X19410593Y1339385D01*
X19410596Y1339387D01*
X19413340Y1340052D01*
X19413370Y1340060D01*
X19442586Y1347149D01*
X19468999Y1363375D01*
X19525895Y1385417D01*
X19542635Y1391901D01*
X19542640Y1391904D01*
X19587244Y1419522D01*
X19594092Y1423186D01*
X19601251Y1426455D01*
X19601254Y1426458D01*
X19605575Y1428430D01*
X19607528Y1429322D01*
X19608782Y1429503D01*
X19612029Y1431378D01*
X19629245Y1439240D01*
X19651028Y1459016D01*
X19716041Y1499269D01*
X19758053Y1537569D01*
X19763809Y1542214D01*
X19771985Y1548035D01*
X19771989Y1548040D01*
X19772077Y1548102D01*
X19774906Y1549082D01*
X19781622Y1554900D01*
X19795296Y1564638D01*
X19812053Y1586797D01*
X19866764Y1636671D01*
X19903691Y1685572D01*
X19908278Y1690972D01*
X19911207Y1694047D01*
X19912284Y1695176D01*
X19916302Y1697498D01*
X19924799Y1708301D01*
X19934839Y1718831D01*
X19946455Y1742200D01*
X19989673Y1799429D01*
X20016822Y1853953D01*
X20024339Y1862061D01*
X20025541Y1865063D01*
X20036342Y1886015D01*
X20042993Y1896366D01*
X20049607Y1919795D01*
X20080582Y1982000D01*
X20097598Y2041807D01*
X20104343Y2052500D01*
X20105596Y2058997D01*
X20112240Y2081624D01*
X20115947Y2090885D01*
X20117948Y2113329D01*
X20136397Y2178167D01*
X20143368Y2253405D01*
X20144217Y2259370D01*
X20147510Y2276451D01*
X20147510Y2276456D01*
X20151179Y2295492D01*
X20149173Y2316055D01*
X20155215Y2381250D01*
X170344785Y2381250D01*
X170363602Y2178168D01*
X170419417Y1982003D01*
X170419422Y1981990D01*
X170510327Y1799429D01*
X170633237Y1636669D01*
X170783958Y1499270D01*
X170783960Y1499268D01*
X170910148Y1421137D01*
X170957363Y1391902D01*
X170988863Y1379699D01*
X170991927Y1378406D01*
X170992002Y1378380D01*
X170992004Y1378379D01*
X170993021Y1378027D01*
X170994499Y1377515D01*
X171072885Y1347149D01*
X171147544Y1318226D01*
X171180395Y1312085D01*
X171183608Y1311396D01*
X171190070Y1309828D01*
X171190075Y1309826D01*
X171190079Y1309826D01*
X171190081Y1309825D01*
X171200493Y1308328D01*
X171227696Y1303243D01*
X171348024Y1280750D01*
X171348026Y1280750D01*
X171383437Y1280750D01*
X171391643Y1280164D01*
X171391649Y1280278D01*
X171397537Y1279998D01*
X171397541Y1279997D01*
X171397544Y1279998D01*
X171397548Y1279997D01*
X171405954Y1280397D01*
X171405964Y1280395D01*
X171411938Y1280680D01*
X171414891Y1280750D01*
X171551975Y1280750D01*
X171551976Y1280750D01*
X171595198Y1288830D01*
X171603646Y1289815D01*
X171606902Y1289970D01*
X171606904Y1289971D01*
X171608781Y1290060D01*
X171608827Y1290065D01*
X171641914Y1291642D01*
X171672294Y1303242D01*
X171752456Y1318226D01*
X171797381Y1335631D01*
X171805145Y1338064D01*
X171810593Y1339385D01*
X171810596Y1339387D01*
X171813340Y1340052D01*
X171813370Y1340060D01*
X171842586Y1347149D01*
X171868999Y1363375D01*
X171925895Y1385417D01*
X171942635Y1391901D01*
X171942640Y1391904D01*
X171987244Y1419522D01*
X171994092Y1423186D01*
X172001251Y1426455D01*
X172001254Y1426458D01*
X172005575Y1428430D01*
X172007528Y1429322D01*
X172008782Y1429503D01*
X172012029Y1431378D01*
X172029245Y1439240D01*
X172051028Y1459016D01*
X172116041Y1499269D01*
X172158053Y1537569D01*
X172163809Y1542214D01*
X172171985Y1548035D01*
X172171989Y1548040D01*
X172172077Y1548102D01*
X172174906Y1549082D01*
X172181622Y1554900D01*
X172195296Y1564638D01*
X172212053Y1586797D01*
X172266764Y1636671D01*
X172303691Y1685572D01*
X172308278Y1690972D01*
X172311207Y1694047D01*
X172312284Y1695176D01*
X172316302Y1697498D01*
X172324799Y1708301D01*
X172334839Y1718831D01*
X172346455Y1742200D01*
X172389673Y1799429D01*
X172416822Y1853953D01*
X172424339Y1862061D01*
X172425541Y1865063D01*
X172436342Y1886015D01*
X172442993Y1896366D01*
X172449607Y1919795D01*
X172480582Y1982000D01*
X172497598Y2041807D01*
X172504343Y2052500D01*
X172505596Y2058997D01*
X172512240Y2081624D01*
X172515947Y2090885D01*
X172517948Y2113329D01*
X172536397Y2178167D01*
X172543368Y2253405D01*
X172544217Y2259370D01*
X172547510Y2276451D01*
X172547510Y2276456D01*
X172551179Y2295492D01*
X172549173Y2316055D01*
X172555215Y2381250D01*
X172549173Y2446446D01*
X172552180Y2461817D01*
X172544220Y2503118D01*
X172543368Y2509102D01*
X172536397Y2584333D01*
X172517948Y2649174D01*
X172518091Y2666264D01*
X172512239Y2680881D01*
X172505597Y2703504D01*
X172505152Y2705810D01*
X172497599Y2720692D01*
X172480582Y2780500D01*
X172480581Y2780503D01*
X172480580Y2780506D01*
X172449608Y2842704D01*
X172446365Y2860891D01*
X172436342Y2876488D01*
X172425891Y2896760D01*
X172416824Y2908545D01*
X172389673Y2963071D01*
X172389670Y2963075D01*
X172389669Y2963077D01*
X172346456Y3020301D01*
X172342826Y3029909D01*
X173974222Y3029909D01*
X173974410Y3026503D01*
X173974455Y3024848D01*
X173974839Y3023134D01*
X173974888Y3022874D01*
X173975511Y3020949D01*
X174020646Y2842704D01*
X174030704Y2802981D01*
X174031640Y2794800D01*
X174033436Y2790197D01*
X174034063Y2788230D01*
X174034958Y2786301D01*
X174034988Y2786228D01*
X174035707Y2785173D01*
X174035735Y2785129D01*
X174037031Y2783581D01*
X174040536Y2778886D01*
X174046925Y2773797D01*
X174204995Y2607928D01*
X174210566Y2600484D01*
X174211078Y2600021D01*
X174214233Y2597814D01*
X174215438Y2596922D01*
X174216743Y2596311D01*
X174221183Y2594092D01*
X174221202Y2594086D01*
X174230798Y2592661D01*
X174471045Y2525585D01*
X174473205Y2524831D01*
X174474996Y2524404D01*
X174476244Y2524356D01*
X174478669Y2524498D01*
X187466016Y2524498D01*
X187469798Y2524226D01*
X187473649Y2524419D01*
X187475055Y2524455D01*
X187476422Y2524761D01*
X187480192Y2525511D01*
X187483838Y2526720D01*
X187696395Y2580543D01*
X187704908Y2581472D01*
X187705037Y2581523D01*
X187709157Y2582817D01*
X187711453Y2583899D01*
X187713730Y2584867D01*
X187714828Y2585628D01*
X187716820Y2587306D01*
X187721007Y2590403D01*
X187726192Y2596912D01*
X187891613Y2754556D01*
X187899494Y2760391D01*
X187901915Y2763845D01*
X187903115Y2765440D01*
X187903951Y2767238D01*
X187905797Y2770881D01*
X187907248Y2780463D01*
X187907260Y2780506D01*
X187974355Y3020824D01*
X187975112Y3022969D01*
X187975588Y3024904D01*
X187975656Y3026765D01*
X187975502Y3029118D01*
X187975502Y4033466D01*
X187975503Y16016031D01*
X187975775Y16019797D01*
X187975582Y16023643D01*
X187975546Y16025044D01*
X187975249Y16026365D01*
X187974450Y16030360D01*
X187973241Y16033990D01*
X187919601Y16245827D01*
X187918720Y16254260D01*
X187916592Y16259728D01*
X187915763Y16262347D01*
X187915208Y16263666D01*
X187914819Y16264232D01*
X187912898Y16266519D01*
X187909537Y16271022D01*
X187903172Y16276102D01*
X187745903Y16441131D01*
X187740518Y16448484D01*
X187738750Y16450086D01*
X187735753Y16452194D01*
X187734572Y16453073D01*
X187733241Y16453705D01*
X187729878Y16455409D01*
X187729025Y16455715D01*
X187720002Y16457116D01*
X187478803Y16524457D01*
X187476565Y16525231D01*
X187475045Y16525592D01*
X187473760Y16525641D01*
X187471336Y16525498D01*
X174483990Y16525498D01*
X174480207Y16525771D01*
X174476357Y16525577D01*
X174474854Y16525539D01*
X174473247Y16525187D01*
X174473044Y16525149D01*
X174471111Y16524530D01*
X174253527Y16469435D01*
X174245435Y16468546D01*
X174239719Y16466355D01*
X174237669Y16465697D01*
X174236390Y16465140D01*
X174235555Y16464577D01*
X174233855Y16463156D01*
X174228866Y16459397D01*
X174223892Y16453164D01*
X174058393Y16295447D01*
X174051612Y16290426D01*
X174049486Y16287732D01*
X174048173Y16286273D01*
X174046950Y16284532D01*
X174045825Y16282276D01*
X174045189Y16280506D01*
X174044052Y16277921D01*
X174042795Y16269678D01*
X173975499Y16028638D01*
X173974708Y16026333D01*
X173974391Y16024986D01*
X173974365Y16024360D01*
X173974502Y16021735D01*
X173974502Y3033848D01*
X173974222Y3029909D01*
X172342826Y3029909D01*
X172339456Y3038830D01*
X172324797Y3054203D01*
X172318144Y3062662D01*
X172312316Y3067293D01*
X172308299Y3071506D01*
X172303692Y3076928D01*
X172293043Y3091030D01*
X172266766Y3125828D01*
X172266764Y3125830D01*
X172212055Y3175703D01*
X172201101Y3193731D01*
X172181623Y3207601D01*
X172176369Y3212154D01*
X172172065Y3214408D01*
X172163832Y3220272D01*
X172158024Y3224959D01*
X172143766Y3237957D01*
X172116041Y3263231D01*
X172116034Y3263235D01*
X172116032Y3263237D01*
X172051029Y3303485D01*
X172036113Y3320126D01*
X172012029Y3331124D01*
X172009533Y3332565D01*
X172007586Y3333153D01*
X171994104Y3339310D01*
X171987214Y3342997D01*
X171942637Y3370598D01*
X171896282Y3388556D01*
X171868993Y3399128D01*
X171850320Y3413478D01*
X171810264Y3423195D01*
X171808216Y3423692D01*
X171805155Y3424435D01*
X171797370Y3426875D01*
X171766645Y3438777D01*
X171752456Y3444274D01*
X171752447Y3444276D01*
X171752446Y3444276D01*
X171672284Y3459262D01*
X171650247Y3470467D01*
X171603641Y3472687D01*
X171595191Y3473673D01*
X171551980Y3481750D01*
X171551976Y3481750D01*
X171414834Y3481750D01*
X171411884Y3481820D01*
X171397540Y3482504D01*
X171391649Y3482222D01*
X171391643Y3482337D01*
X171383437Y3481750D01*
X171348024Y3481750D01*
X171304816Y3473673D01*
X171200491Y3454172D01*
X171190072Y3452674D01*
X171183593Y3451102D01*
X171180373Y3450411D01*
X171147548Y3444275D01*
X171147538Y3444273D01*
X170994496Y3384984D01*
X170991915Y3384091D01*
X170988811Y3382782D01*
X170957363Y3370599D01*
X170957361Y3370598D01*
X170783957Y3263230D01*
X170633237Y3125832D01*
X170510327Y2963072D01*
X170419422Y2780511D01*
X170419417Y2780498D01*
X170363602Y2584333D01*
X170344785Y2381251D01*
X170344785Y2381250D01*
X20155215Y2381250D01*
X20149173Y2446446D01*
X20152180Y2461817D01*
X20144220Y2503118D01*
X20143368Y2509102D01*
X20136397Y2584333D01*
X20117948Y2649174D01*
X20118091Y2666264D01*
X20112239Y2680881D01*
X20105597Y2703504D01*
X20105152Y2705810D01*
X20097599Y2720692D01*
X20080582Y2780500D01*
X20080581Y2780503D01*
X20080580Y2780506D01*
X20049608Y2842704D01*
X20046365Y2860891D01*
X20036342Y2876488D01*
X20025891Y2896760D01*
X20016824Y2908545D01*
X19989673Y2963071D01*
X19989670Y2963075D01*
X19989669Y2963077D01*
X19946456Y3020301D01*
X19939456Y3038830D01*
X19924797Y3054203D01*
X19918144Y3062662D01*
X19912316Y3067293D01*
X19908299Y3071506D01*
X19903692Y3076928D01*
X19893043Y3091030D01*
X19866766Y3125828D01*
X19866764Y3125830D01*
X19812055Y3175703D01*
X19801101Y3193731D01*
X19781623Y3207601D01*
X19776369Y3212154D01*
X19772065Y3214408D01*
X19763832Y3220272D01*
X19758024Y3224959D01*
X19743766Y3237957D01*
X19716041Y3263231D01*
X19716034Y3263235D01*
X19716032Y3263237D01*
X19651029Y3303485D01*
X19636113Y3320126D01*
X19612029Y3331124D01*
X19609533Y3332565D01*
X19607586Y3333153D01*
X19594104Y3339310D01*
X19587214Y3342997D01*
X19542637Y3370598D01*
X19496282Y3388556D01*
X19468993Y3399128D01*
X19450320Y3413478D01*
X19410264Y3423195D01*
X19408216Y3423692D01*
X19405155Y3424435D01*
X19397370Y3426875D01*
X19366645Y3438777D01*
X19352456Y3444274D01*
X19352447Y3444276D01*
X19352446Y3444276D01*
X19272284Y3459262D01*
X19250247Y3470467D01*
X19203641Y3472687D01*
X19195191Y3473673D01*
X19151980Y3481750D01*
X19151976Y3481750D01*
X19014834Y3481750D01*
X19011884Y3481820D01*
X18997540Y3482504D01*
X18991649Y3482222D01*
X18991643Y3482337D01*
X18983437Y3481750D01*
X18948024Y3481750D01*
X18904816Y3473673D01*
X18800491Y3454172D01*
X18790072Y3452674D01*
X18783593Y3451102D01*
X18780373Y3450411D01*
X18747548Y3444275D01*
X18747538Y3444273D01*
X18594496Y3384984D01*
X18591915Y3384091D01*
X18588811Y3382782D01*
X18557363Y3370599D01*
X18557361Y3370598D01*
X18383957Y3263230D01*
X18233237Y3125832D01*
X18110327Y2963072D01*
X18019422Y2780511D01*
X18019417Y2780498D01*
X17963602Y2584333D01*
X17944785Y2381251D01*
X17944785Y2381250D01*
X500Y2381250D01*
X500Y3030512D01*
X2524249Y3030512D01*
X2524479Y3024963D01*
X2524955Y3022640D01*
X2525499Y3020959D01*
X2570636Y2842704D01*
X2580689Y2803001D01*
X2581625Y2794820D01*
X2583421Y2790217D01*
X2584048Y2788250D01*
X2584943Y2786321D01*
X2584973Y2786248D01*
X2585692Y2785193D01*
X2585720Y2785149D01*
X2587016Y2783601D01*
X2590521Y2778906D01*
X2596910Y2773817D01*
X2754959Y2607970D01*
X2760500Y2600563D01*
X2761109Y2600011D01*
X2764226Y2597829D01*
X2765426Y2596941D01*
X2766728Y2596331D01*
X2771168Y2594112D01*
X2771187Y2594106D01*
X2780783Y2592681D01*
X3021030Y2525605D01*
X3023190Y2524851D01*
X3024981Y2524424D01*
X3026229Y2524376D01*
X3028654Y2524518D01*
X16016001Y2524518D01*
X16019783Y2524246D01*
X16023634Y2524439D01*
X16025040Y2524475D01*
X16026407Y2524781D01*
X16030177Y2525531D01*
X16033823Y2526740D01*
X16246380Y2580563D01*
X16254893Y2581492D01*
X16255022Y2581543D01*
X16259142Y2582837D01*
X16261438Y2583919D01*
X16263715Y2584887D01*
X16264813Y2585648D01*
X16266805Y2587326D01*
X16270992Y2590423D01*
X16276177Y2596932D01*
X16441598Y2754576D01*
X16449479Y2760411D01*
X16451900Y2763865D01*
X16453100Y2765460D01*
X16453936Y2767258D01*
X16455782Y2770901D01*
X16457233Y2780483D01*
X16457239Y2780503D01*
X16524340Y3020844D01*
X16525099Y3022993D01*
X16525594Y3025007D01*
X16525638Y3026114D01*
X16525488Y3028689D01*
X16525488Y16016031D01*
X16525760Y16019812D01*
X16525760Y16019813D01*
X21574225Y16019813D01*
X21574498Y16016032D01*
X21574498Y3028689D01*
X21574347Y3026114D01*
X21574395Y3024925D01*
X21574717Y3023596D01*
X21575539Y3021218D01*
X21642880Y2780019D01*
X21644281Y2770996D01*
X21644587Y2770143D01*
X21646291Y2766780D01*
X21646923Y2765449D01*
X21647802Y2764268D01*
X21649910Y2761271D01*
X21651512Y2759503D01*
X21658865Y2754118D01*
X21823894Y2596849D01*
X21828974Y2590484D01*
X21833477Y2587123D01*
X21835764Y2585202D01*
X21836330Y2584813D01*
X21837649Y2584258D01*
X21840268Y2583429D01*
X21845736Y2581301D01*
X21854169Y2580420D01*
X22066006Y2526780D01*
X22069636Y2525571D01*
X22073631Y2524772D01*
X22074952Y2524475D01*
X22076353Y2524439D01*
X22080203Y2524246D01*
X22083986Y2524518D01*
X35071331Y2524518D01*
X35073755Y2524376D01*
X35074961Y2524422D01*
X35076973Y2524906D01*
X35077091Y2524931D01*
X35079172Y2525666D01*
X35275285Y2580419D01*
X35319477Y2592757D01*
X35329137Y2594215D01*
X35332473Y2595918D01*
X35334612Y2596909D01*
X35336523Y2598352D01*
X35339369Y2600327D01*
X35340152Y2601041D01*
X35345899Y2608890D01*
X35502617Y2773340D01*
X35509248Y2778563D01*
X35512659Y2783166D01*
X35514953Y2785881D01*
X35514993Y2785938D01*
X35515413Y2786700D01*
X35515662Y2787292D01*
X35516658Y2790450D01*
X35518577Y2795351D01*
X35519485Y2803752D01*
X35573276Y3016183D01*
X35574484Y3019826D01*
X35575192Y3023386D01*
X35575547Y3024948D01*
X35575591Y3026523D01*
X35575778Y3029927D01*
X35575498Y3033869D01*
X35575498Y3400108D01*
X35595183Y3467147D01*
X35647987Y3512902D01*
X35699498Y3524108D01*
X40500508Y3524108D01*
X40567547Y3504423D01*
X40613302Y3451619D01*
X40624508Y3400108D01*
X40624508Y3028689D01*
X40624357Y3026114D01*
X40624405Y3024925D01*
X40624727Y3023596D01*
X40625549Y3021218D01*
X40692890Y2780019D01*
X40694291Y2770996D01*
X40694597Y2770143D01*
X40696301Y2766780D01*
X40696933Y2765449D01*
X40697812Y2764268D01*
X40699920Y2761271D01*
X40701522Y2759503D01*
X40708875Y2754118D01*
X40873904Y2596849D01*
X40878984Y2590484D01*
X40883487Y2587123D01*
X40885774Y2585202D01*
X40886340Y2584813D01*
X40887659Y2584258D01*
X40890278Y2583429D01*
X40895746Y2581301D01*
X40904179Y2580420D01*
X41116016Y2526780D01*
X41119646Y2525571D01*
X41123641Y2524772D01*
X41124962Y2524475D01*
X41126363Y2524439D01*
X41130213Y2524246D01*
X41133996Y2524518D01*
X54121341Y2524518D01*
X54123765Y2524376D01*
X54124971Y2524422D01*
X54126983Y2524906D01*
X54127101Y2524931D01*
X54129182Y2525666D01*
X54325295Y2580419D01*
X54369487Y2592757D01*
X54379147Y2594215D01*
X54382483Y2595918D01*
X54384622Y2596909D01*
X54386533Y2598352D01*
X54389379Y2600327D01*
X54390162Y2601041D01*
X54395909Y2608890D01*
X54552627Y2773340D01*
X54559258Y2778563D01*
X54562669Y2783166D01*
X54564963Y2785881D01*
X54565003Y2785938D01*
X54565423Y2786700D01*
X54565672Y2787292D01*
X54566668Y2790450D01*
X54568587Y2795351D01*
X54569495Y2803752D01*
X54623286Y3016183D01*
X54624494Y3019826D01*
X54625202Y3023386D01*
X54625557Y3024948D01*
X54625601Y3026523D01*
X54625788Y3029926D01*
X54625508Y3033868D01*
X54625508Y16021301D01*
X54625650Y16023700D01*
X54625600Y16025033D01*
X54625175Y16026817D01*
X54624421Y16028976D01*
X54557345Y16269223D01*
X54555920Y16278819D01*
X54555914Y16278838D01*
X54553695Y16283278D01*
X54553085Y16284580D01*
X54552197Y16285780D01*
X54550015Y16288897D01*
X54549463Y16289506D01*
X54542056Y16295047D01*
X54376209Y16453096D01*
X54371120Y16459485D01*
X54366425Y16462990D01*
X54364875Y16464287D01*
X54364833Y16464314D01*
X54363778Y16465033D01*
X54363705Y16465063D01*
X54361776Y16465958D01*
X54359809Y16466585D01*
X54355206Y16468381D01*
X54347025Y16469317D01*
X54129098Y16524499D01*
X54129067Y16524507D01*
X54127381Y16525052D01*
X54125074Y16525526D01*
X54122865Y16525634D01*
X54121048Y16525519D01*
X51249508Y16525519D01*
X51182469Y16545204D01*
X51136714Y16598008D01*
X51125508Y16649519D01*
X51125508Y18019410D01*
X60761220Y18019410D01*
X60761493Y18015629D01*
X60761493Y4028286D01*
X60761342Y4025711D01*
X60761390Y4024522D01*
X60761712Y4023193D01*
X60762534Y4020815D01*
X60829875Y3779616D01*
X60831276Y3770593D01*
X60831582Y3769740D01*
X60833286Y3766377D01*
X60833918Y3765046D01*
X60834797Y3763865D01*
X60836905Y3760868D01*
X60838507Y3759100D01*
X60845860Y3753715D01*
X61010889Y3596446D01*
X61015969Y3590081D01*
X61020472Y3586720D01*
X61022759Y3584799D01*
X61023325Y3584410D01*
X61024644Y3583855D01*
X61027263Y3583026D01*
X61032731Y3580898D01*
X61041164Y3580017D01*
X61252992Y3526379D01*
X61257131Y3525001D01*
X61259358Y3524587D01*
X61261859Y3524009D01*
X61264396Y3523972D01*
X61267800Y3523783D01*
X61271965Y3524116D01*
X69075493Y3524116D01*
X69142532Y3504431D01*
X69188287Y3451627D01*
X69199493Y3400116D01*
X69199493Y3028689D01*
X69199342Y3026114D01*
X69199390Y3024925D01*
X69199712Y3023596D01*
X69200534Y3021218D01*
X69267875Y2780019D01*
X69269276Y2770996D01*
X69269582Y2770143D01*
X69271286Y2766780D01*
X69271918Y2765449D01*
X69272797Y2764268D01*
X69274905Y2761271D01*
X69276507Y2759503D01*
X69283860Y2754118D01*
X69448889Y2596849D01*
X69453969Y2590484D01*
X69458472Y2587123D01*
X69460759Y2585202D01*
X69461325Y2584813D01*
X69462644Y2584258D01*
X69465263Y2583429D01*
X69470731Y2581301D01*
X69479164Y2580420D01*
X69691001Y2526780D01*
X69694631Y2525571D01*
X69698626Y2524772D01*
X69699947Y2524475D01*
X69701348Y2524439D01*
X69705198Y2524246D01*
X69708981Y2524518D01*
X82696326Y2524518D01*
X82698750Y2524376D01*
X82699956Y2524422D01*
X82701968Y2524906D01*
X82702086Y2524931D01*
X82704167Y2525666D01*
X82900280Y2580419D01*
X82944472Y2592757D01*
X82954132Y2594215D01*
X82957468Y2595918D01*
X82959607Y2596909D01*
X82961518Y2598352D01*
X82964364Y2600327D01*
X82965147Y2601041D01*
X82970894Y2608890D01*
X83127612Y2773340D01*
X83134243Y2778563D01*
X83137654Y2783166D01*
X83139948Y2785881D01*
X83139988Y2785938D01*
X83140408Y2786700D01*
X83140657Y2787292D01*
X83141653Y2790450D01*
X83143572Y2795351D01*
X83144480Y2803752D01*
X83198271Y3016183D01*
X83199479Y3019826D01*
X83200187Y3023386D01*
X83200542Y3024948D01*
X83200586Y3026523D01*
X83200773Y3029926D01*
X83200493Y3033868D01*
X83200493Y16021301D01*
X83200635Y16023700D01*
X83200585Y16025033D01*
X83200160Y16026817D01*
X83199406Y16028976D01*
X83132330Y16269223D01*
X83130905Y16278819D01*
X83130899Y16278838D01*
X83128680Y16283278D01*
X83128070Y16284580D01*
X83127182Y16285780D01*
X83125000Y16288897D01*
X83124448Y16289506D01*
X83117041Y16295047D01*
X82951194Y16453096D01*
X82946105Y16459485D01*
X82941410Y16462990D01*
X82939860Y16464287D01*
X82939818Y16464314D01*
X82938763Y16465033D01*
X82938690Y16465063D01*
X82936761Y16465958D01*
X82934794Y16466585D01*
X82930191Y16468381D01*
X82922010Y16469317D01*
X82921465Y16469455D01*
X82704042Y16524510D01*
X82702117Y16525133D01*
X82701857Y16525182D01*
X82700143Y16525566D01*
X82698490Y16525611D01*
X82695085Y16525799D01*
X82691142Y16525518D01*
X70299493Y16525500D01*
X70232454Y16545184D01*
X70186699Y16597988D01*
X70175493Y16649500D01*
X70175493Y18019410D01*
X84637230Y18019410D01*
X84637503Y18015629D01*
X84637503Y4028286D01*
X84637352Y4025711D01*
X84637400Y4024522D01*
X84637722Y4023193D01*
X84638544Y4020815D01*
X84705885Y3779616D01*
X84707286Y3770593D01*
X84707592Y3769740D01*
X84709296Y3766377D01*
X84709928Y3765046D01*
X84710807Y3763865D01*
X84712915Y3760868D01*
X84714517Y3759100D01*
X84721870Y3753715D01*
X84886899Y3596446D01*
X84891979Y3590081D01*
X84896482Y3586720D01*
X84898769Y3584799D01*
X84899335Y3584410D01*
X84900654Y3583855D01*
X84903273Y3583026D01*
X84908741Y3580898D01*
X84917174Y3580017D01*
X85129002Y3526379D01*
X85133141Y3525001D01*
X85135368Y3524587D01*
X85137869Y3524009D01*
X85140406Y3523972D01*
X85143810Y3523783D01*
X85147975Y3524116D01*
X88125508Y3524116D01*
X88192547Y3504431D01*
X88238302Y3451627D01*
X88249508Y3400116D01*
X88249508Y3028689D01*
X88249357Y3026114D01*
X88249405Y3024925D01*
X88249727Y3023596D01*
X88250549Y3021218D01*
X88317890Y2780019D01*
X88319291Y2770996D01*
X88319597Y2770143D01*
X88321301Y2766780D01*
X88321933Y2765449D01*
X88322812Y2764268D01*
X88324920Y2761271D01*
X88326522Y2759503D01*
X88333875Y2754118D01*
X88498904Y2596849D01*
X88503984Y2590484D01*
X88508487Y2587123D01*
X88510774Y2585202D01*
X88511340Y2584813D01*
X88512659Y2584258D01*
X88515278Y2583429D01*
X88520746Y2581301D01*
X88529179Y2580420D01*
X88741016Y2526780D01*
X88744646Y2525571D01*
X88748641Y2524772D01*
X88749962Y2524475D01*
X88751363Y2524439D01*
X88755213Y2524246D01*
X88758996Y2524518D01*
X101746341Y2524518D01*
X101748765Y2524376D01*
X101749971Y2524422D01*
X101751983Y2524906D01*
X101752101Y2524931D01*
X101754182Y2525666D01*
X101950295Y2580419D01*
X101994487Y2592757D01*
X102004147Y2594215D01*
X102007483Y2595918D01*
X102009622Y2596909D01*
X102011533Y2598352D01*
X102014379Y2600327D01*
X102015162Y2601041D01*
X102020909Y2608890D01*
X102177627Y2773340D01*
X102184258Y2778563D01*
X102187669Y2783166D01*
X102189963Y2785881D01*
X102190003Y2785938D01*
X102190423Y2786700D01*
X102190672Y2787292D01*
X102191668Y2790450D01*
X102193587Y2795351D01*
X102194495Y2803752D01*
X102248286Y3016183D01*
X102249494Y3019826D01*
X102250202Y3023386D01*
X102250557Y3024948D01*
X102250601Y3026523D01*
X102250788Y3029926D01*
X107299227Y3029926D01*
X107299415Y3026523D01*
X107299460Y3024868D01*
X107299844Y3023154D01*
X107299893Y3022894D01*
X107300516Y3020969D01*
X107345656Y2842704D01*
X107355709Y2803001D01*
X107356645Y2794820D01*
X107358441Y2790217D01*
X107359068Y2788250D01*
X107359963Y2786321D01*
X107359993Y2786248D01*
X107360712Y2785193D01*
X107360740Y2785149D01*
X107362036Y2783601D01*
X107365541Y2778906D01*
X107371930Y2773817D01*
X107529979Y2607970D01*
X107535520Y2600563D01*
X107536129Y2600011D01*
X107539246Y2597829D01*
X107540446Y2596941D01*
X107541748Y2596331D01*
X107546188Y2594112D01*
X107546207Y2594106D01*
X107555803Y2592681D01*
X107796050Y2525605D01*
X107798210Y2524851D01*
X107800001Y2524424D01*
X107801249Y2524376D01*
X107803674Y2524518D01*
X120791021Y2524518D01*
X120794803Y2524246D01*
X120798654Y2524439D01*
X120800060Y2524475D01*
X120801427Y2524781D01*
X120805197Y2525531D01*
X120808843Y2526740D01*
X121021400Y2580563D01*
X121029913Y2581492D01*
X121030042Y2581543D01*
X121034162Y2582837D01*
X121036458Y2583919D01*
X121038735Y2584887D01*
X121039833Y2585648D01*
X121041825Y2587326D01*
X121046012Y2590423D01*
X121051197Y2596932D01*
X121216618Y2754576D01*
X121224499Y2760411D01*
X121226920Y2763865D01*
X121228120Y2765460D01*
X121228956Y2767258D01*
X121230802Y2770901D01*
X121232253Y2780483D01*
X121232259Y2780503D01*
X121299360Y3020844D01*
X121300119Y3022993D01*
X121300614Y3025007D01*
X121300658Y3026114D01*
X121300508Y3028689D01*
X121300508Y3029926D01*
X135874212Y3029926D01*
X135874400Y3026523D01*
X135874445Y3024868D01*
X135874829Y3023154D01*
X135874878Y3022894D01*
X135875501Y3020969D01*
X135920641Y2842704D01*
X135930694Y2803001D01*
X135931630Y2794820D01*
X135933426Y2790217D01*
X135934053Y2788250D01*
X135934948Y2786321D01*
X135934978Y2786248D01*
X135935697Y2785193D01*
X135935725Y2785149D01*
X135937021Y2783601D01*
X135940526Y2778906D01*
X135946915Y2773817D01*
X136104964Y2607970D01*
X136110505Y2600563D01*
X136111114Y2600011D01*
X136114231Y2597829D01*
X136115431Y2596941D01*
X136116733Y2596331D01*
X136121173Y2594112D01*
X136121192Y2594106D01*
X136130788Y2592681D01*
X136371035Y2525605D01*
X136373195Y2524851D01*
X136374986Y2524424D01*
X136376234Y2524376D01*
X136378659Y2524518D01*
X149366006Y2524518D01*
X149369788Y2524246D01*
X149373639Y2524439D01*
X149375045Y2524475D01*
X149376412Y2524781D01*
X149380182Y2525531D01*
X149383828Y2526740D01*
X149596385Y2580563D01*
X149604898Y2581492D01*
X149605027Y2581543D01*
X149609147Y2582837D01*
X149611443Y2583919D01*
X149613720Y2584887D01*
X149614818Y2585648D01*
X149616810Y2587326D01*
X149620997Y2590423D01*
X149626182Y2596932D01*
X149791603Y2754576D01*
X149799484Y2760411D01*
X149801905Y2763865D01*
X149803105Y2765460D01*
X149803941Y2767258D01*
X149805787Y2770901D01*
X149807238Y2780483D01*
X149807244Y2780503D01*
X149874345Y3020844D01*
X149875104Y3022993D01*
X149875599Y3025007D01*
X149875643Y3026114D01*
X149875493Y3028689D01*
X149875493Y3400108D01*
X149895178Y3467147D01*
X149947982Y3512902D01*
X149999493Y3524108D01*
X154800503Y3524108D01*
X154867542Y3504423D01*
X154913297Y3451619D01*
X154924503Y3400108D01*
X154924503Y3033869D01*
X154924222Y3029927D01*
X154924410Y3026523D01*
X154924455Y3024868D01*
X154924839Y3023154D01*
X154924888Y3022894D01*
X154925511Y3020969D01*
X154970651Y2842704D01*
X154980704Y2803001D01*
X154981640Y2794820D01*
X154983436Y2790217D01*
X154984063Y2788250D01*
X154984958Y2786321D01*
X154984988Y2786248D01*
X154985707Y2785193D01*
X154985735Y2785149D01*
X154987031Y2783601D01*
X154990536Y2778906D01*
X154996925Y2773817D01*
X155154974Y2607970D01*
X155160515Y2600563D01*
X155161124Y2600011D01*
X155164241Y2597829D01*
X155165441Y2596941D01*
X155166743Y2596331D01*
X155171183Y2594112D01*
X155171202Y2594106D01*
X155180798Y2592681D01*
X155421045Y2525605D01*
X155423205Y2524851D01*
X155424996Y2524424D01*
X155426244Y2524376D01*
X155428669Y2524518D01*
X168416016Y2524518D01*
X168419798Y2524246D01*
X168423649Y2524439D01*
X168425055Y2524475D01*
X168426422Y2524781D01*
X168430192Y2525531D01*
X168433838Y2526740D01*
X168646395Y2580563D01*
X168654908Y2581492D01*
X168655037Y2581543D01*
X168659157Y2582837D01*
X168661453Y2583919D01*
X168663730Y2584887D01*
X168664828Y2585648D01*
X168666820Y2587326D01*
X168671007Y2590423D01*
X168676192Y2596932D01*
X168841613Y2754576D01*
X168849494Y2760411D01*
X168851915Y2763865D01*
X168853115Y2765460D01*
X168853951Y2767258D01*
X168855797Y2770901D01*
X168857248Y2780483D01*
X168857254Y2780503D01*
X168924355Y3020844D01*
X168925112Y3022989D01*
X168925588Y3024924D01*
X168925656Y3026785D01*
X168925502Y3029138D01*
X168925502Y4033466D01*
X168925502Y16016045D01*
X168925775Y16019817D01*
X168925582Y16023663D01*
X168925546Y16025064D01*
X168925249Y16026385D01*
X168924450Y16030380D01*
X168923241Y16034010D01*
X168869601Y16245847D01*
X168868720Y16254280D01*
X168866592Y16259748D01*
X168865763Y16262367D01*
X168865208Y16263686D01*
X168864819Y16264252D01*
X168862898Y16266539D01*
X168859537Y16271042D01*
X168853172Y16276122D01*
X168695903Y16441151D01*
X168690518Y16448504D01*
X168688750Y16450106D01*
X168685753Y16452214D01*
X168684572Y16453093D01*
X168683241Y16453725D01*
X168679878Y16455429D01*
X168679025Y16455735D01*
X168670002Y16457136D01*
X168428802Y16524477D01*
X168426927Y16525125D01*
X168425081Y16525524D01*
X168423738Y16525620D01*
X168421790Y16525519D01*
X165549488Y16525519D01*
X165482449Y16545204D01*
X165436694Y16598008D01*
X165425488Y16649519D01*
X165425488Y18015623D01*
X165425760Y18019404D01*
X165425567Y18023255D01*
X165425531Y18024656D01*
X165425234Y18025977D01*
X165424435Y18029972D01*
X165423226Y18033602D01*
X165369586Y18245439D01*
X165368705Y18253872D01*
X165366577Y18259340D01*
X165365748Y18261959D01*
X165365193Y18263278D01*
X165364804Y18263844D01*
X165362883Y18266131D01*
X165359522Y18270634D01*
X165353157Y18275714D01*
X165195886Y18440746D01*
X165190503Y18448096D01*
X165188735Y18449698D01*
X165185738Y18451806D01*
X165184557Y18452685D01*
X165183226Y18453317D01*
X165179863Y18455021D01*
X165179010Y18455327D01*
X165169987Y18456728D01*
X164928788Y18524069D01*
X164926550Y18524843D01*
X164925030Y18525204D01*
X164923745Y18525253D01*
X164921321Y18525110D01*
X158933975Y18525110D01*
X158930192Y18525383D01*
X158926342Y18525189D01*
X158924839Y18525151D01*
X158923232Y18524799D01*
X158923029Y18524761D01*
X158921096Y18524142D01*
X158703512Y18469047D01*
X158695420Y18468158D01*
X158689704Y18465967D01*
X158687654Y18465309D01*
X158686375Y18464752D01*
X158685540Y18464189D01*
X158683840Y18462768D01*
X158678851Y18459009D01*
X158673877Y18452776D01*
X158508378Y18295059D01*
X158501597Y18290038D01*
X158499471Y18287344D01*
X158498158Y18285885D01*
X158496935Y18284144D01*
X158495810Y18281888D01*
X158495174Y18280118D01*
X158494037Y18277533D01*
X158492780Y18269290D01*
X158425484Y18028250D01*
X158424692Y18025941D01*
X158424397Y18024694D01*
X158424345Y18023291D01*
X158424488Y18020892D01*
X158424488Y16649519D01*
X158404803Y16582480D01*
X158351999Y16536725D01*
X158300488Y16525519D01*
X156024498Y16525519D01*
X155957459Y16545204D01*
X155911704Y16598008D01*
X155900498Y16649519D01*
X155900498Y18015623D01*
X155900770Y18019404D01*
X155900577Y18023255D01*
X155900541Y18024656D01*
X155900244Y18025977D01*
X155899445Y18029972D01*
X155898236Y18033602D01*
X155844596Y18245439D01*
X155843715Y18253872D01*
X155841587Y18259340D01*
X155840758Y18261959D01*
X155840203Y18263278D01*
X155839814Y18263844D01*
X155837893Y18266131D01*
X155834532Y18270634D01*
X155828167Y18275714D01*
X155670896Y18440746D01*
X155665513Y18448096D01*
X155663745Y18449698D01*
X155660748Y18451806D01*
X155659567Y18452685D01*
X155658236Y18453317D01*
X155654873Y18455021D01*
X155654020Y18455327D01*
X155644997Y18456728D01*
X155403798Y18524069D01*
X155401560Y18524843D01*
X155400040Y18525204D01*
X155398755Y18525253D01*
X155396331Y18525110D01*
X149408985Y18525110D01*
X149405202Y18525383D01*
X149401352Y18525189D01*
X149399849Y18525151D01*
X149398242Y18524799D01*
X149398039Y18524761D01*
X149396106Y18524142D01*
X149178522Y18469047D01*
X149170430Y18468158D01*
X149164714Y18465967D01*
X149162664Y18465309D01*
X149161385Y18464752D01*
X149160550Y18464189D01*
X149158850Y18462768D01*
X149153861Y18459009D01*
X149148887Y18452776D01*
X148983388Y18295059D01*
X148976607Y18290038D01*
X148974481Y18287344D01*
X148973168Y18285885D01*
X148971945Y18284144D01*
X148970820Y18281888D01*
X148970184Y18280118D01*
X148969047Y18277533D01*
X148967790Y18269290D01*
X148900494Y18028250D01*
X148899702Y18025941D01*
X148899407Y18024694D01*
X148899355Y18023291D01*
X148899498Y18020892D01*
X148899498Y16649519D01*
X148879813Y16582480D01*
X148827009Y16536725D01*
X148775498Y16525519D01*
X146499493Y16525519D01*
X146432454Y16545204D01*
X146386699Y16598008D01*
X146375493Y16649519D01*
X146375493Y18015623D01*
X146375765Y18019404D01*
X146375572Y18023255D01*
X146375536Y18024656D01*
X146375239Y18025977D01*
X146374440Y18029972D01*
X146373231Y18033602D01*
X146319591Y18245439D01*
X146318710Y18253872D01*
X146316582Y18259340D01*
X146315753Y18261959D01*
X146315198Y18263278D01*
X146314809Y18263844D01*
X146312888Y18266131D01*
X146309527Y18270634D01*
X146303162Y18275714D01*
X146145891Y18440746D01*
X146140508Y18448096D01*
X146138740Y18449698D01*
X146135743Y18451806D01*
X146134562Y18452685D01*
X146133231Y18453317D01*
X146129868Y18455021D01*
X146129015Y18455327D01*
X146119992Y18456728D01*
X145878793Y18524069D01*
X145876555Y18524843D01*
X145875035Y18525204D01*
X145873750Y18525253D01*
X145871326Y18525110D01*
X139883980Y18525110D01*
X139880197Y18525383D01*
X139876347Y18525189D01*
X139874844Y18525151D01*
X139873237Y18524799D01*
X139873034Y18524761D01*
X139871101Y18524142D01*
X139653517Y18469047D01*
X139645425Y18468158D01*
X139639709Y18465967D01*
X139637659Y18465309D01*
X139636380Y18464752D01*
X139635545Y18464189D01*
X139633845Y18462768D01*
X139628856Y18459009D01*
X139623882Y18452776D01*
X139458383Y18295059D01*
X139451602Y18290038D01*
X139449476Y18287344D01*
X139448163Y18285885D01*
X139446940Y18284144D01*
X139445815Y18281888D01*
X139445179Y18280118D01*
X139444042Y18277533D01*
X139442785Y18269290D01*
X139375489Y18028250D01*
X139374697Y18025941D01*
X139374402Y18024694D01*
X139374350Y18023291D01*
X139374493Y18020892D01*
X139374493Y16649519D01*
X139354808Y16582480D01*
X139302004Y16536725D01*
X139250493Y16525519D01*
X136379012Y16525519D01*
X136377263Y16525632D01*
X136374932Y16525527D01*
X136372807Y16525096D01*
X136371099Y16524549D01*
X136153517Y16469455D01*
X136145425Y16468566D01*
X136139709Y16466375D01*
X136137659Y16465717D01*
X136136380Y16465160D01*
X136135545Y16464597D01*
X136133845Y16463176D01*
X136128856Y16459417D01*
X136123882Y16453184D01*
X135958383Y16295467D01*
X135951602Y16290446D01*
X135949476Y16287752D01*
X135948163Y16286293D01*
X135946940Y16284552D01*
X135945815Y16282296D01*
X135945179Y16280526D01*
X135944042Y16277941D01*
X135942785Y16269698D01*
X135875489Y16028658D01*
X135874697Y16026349D01*
X135874402Y16025102D01*
X135874350Y16023699D01*
X135874493Y16021300D01*
X135874493Y3033868D01*
X135874212Y3029926D01*
X121300508Y3029926D01*
X121300508Y3400116D01*
X121320193Y3467155D01*
X121372997Y3512910D01*
X121424508Y3524116D01*
X129228190Y3524116D01*
X129232530Y3523774D01*
X129235441Y3523950D01*
X129238194Y3523997D01*
X129240917Y3524635D01*
X129242714Y3524967D01*
X129246848Y3526338D01*
X129459400Y3580160D01*
X129467913Y3581089D01*
X129468042Y3581140D01*
X129472162Y3582434D01*
X129474458Y3583516D01*
X129476735Y3584484D01*
X129477833Y3585245D01*
X129479825Y3586923D01*
X129484012Y3590020D01*
X129489197Y3596529D01*
X129654618Y3754173D01*
X129662499Y3760008D01*
X129664920Y3763462D01*
X129666120Y3765057D01*
X129666956Y3766855D01*
X129668802Y3770498D01*
X129670253Y3780080D01*
X129671998Y3786331D01*
X129737360Y4020441D01*
X129738119Y4022590D01*
X129738614Y4024604D01*
X129738658Y4025711D01*
X129738508Y4028286D01*
X129738508Y18015628D01*
X129738780Y18019409D01*
X129738587Y18023260D01*
X129738551Y18024661D01*
X129738254Y18025982D01*
X129737455Y18029977D01*
X129736246Y18033609D01*
X129682606Y18245444D01*
X129681725Y18253877D01*
X129679597Y18259345D01*
X129678768Y18261964D01*
X129678213Y18263283D01*
X129677824Y18263849D01*
X129675903Y18266136D01*
X129672542Y18270639D01*
X129666177Y18275719D01*
X129508908Y18440748D01*
X129503523Y18448101D01*
X129501755Y18449703D01*
X129498758Y18451811D01*
X129497577Y18452690D01*
X129496246Y18453322D01*
X129492883Y18455026D01*
X129492030Y18455332D01*
X129483007Y18456733D01*
X129241808Y18524074D01*
X129239570Y18524848D01*
X129238050Y18525209D01*
X129236765Y18525258D01*
X129234341Y18525115D01*
X120833995Y18525115D01*
X120830212Y18525388D01*
X120826362Y18525194D01*
X120824859Y18525156D01*
X120823252Y18524804D01*
X120823049Y18524766D01*
X120821116Y18524147D01*
X120603532Y18469052D01*
X120595440Y18468163D01*
X120589724Y18465972D01*
X120587674Y18465314D01*
X120586395Y18464757D01*
X120585560Y18464194D01*
X120583860Y18462773D01*
X120578871Y18459014D01*
X120573897Y18452781D01*
X120408398Y18295064D01*
X120401617Y18290043D01*
X120399491Y18287349D01*
X120398178Y18285890D01*
X120396955Y18284149D01*
X120395830Y18281893D01*
X120395194Y18280123D01*
X120394057Y18277538D01*
X120392800Y18269295D01*
X120325504Y18028255D01*
X120324712Y18025946D01*
X120324417Y18024699D01*
X120324365Y18023296D01*
X120324508Y18020897D01*
X120324508Y16649500D01*
X120304823Y16582461D01*
X120252019Y16536706D01*
X120200508Y16525500D01*
X107808994Y16525518D01*
X107805213Y16525791D01*
X107801362Y16525597D01*
X107799859Y16525559D01*
X107798252Y16525207D01*
X107798049Y16525169D01*
X107796116Y16524550D01*
X107578532Y16469455D01*
X107570440Y16468566D01*
X107564724Y16466375D01*
X107562674Y16465717D01*
X107561395Y16465160D01*
X107560560Y16464597D01*
X107558860Y16463176D01*
X107553871Y16459417D01*
X107548897Y16453184D01*
X107383398Y16295467D01*
X107376617Y16290446D01*
X107374491Y16287752D01*
X107373178Y16286293D01*
X107371955Y16284552D01*
X107370830Y16282296D01*
X107370194Y16280526D01*
X107369057Y16277941D01*
X107367800Y16269698D01*
X107300504Y16028658D01*
X107299712Y16026349D01*
X107299417Y16025102D01*
X107299365Y16023699D01*
X107299508Y16021300D01*
X107299508Y3033868D01*
X107299227Y3029926D01*
X102250788Y3029926D01*
X102250788Y3029927D01*
X102250508Y3033869D01*
X102250508Y3400116D01*
X102270193Y3467155D01*
X102322997Y3512910D01*
X102374508Y3524116D01*
X105357884Y3524116D01*
X105361488Y3523879D01*
X105362766Y3524058D01*
X105366184Y3525264D01*
X105606482Y3592354D01*
X105616142Y3593812D01*
X105619478Y3595515D01*
X105621617Y3596506D01*
X105623528Y3597949D01*
X105626374Y3599924D01*
X105627157Y3600638D01*
X105632904Y3608487D01*
X105789622Y3772937D01*
X105796253Y3778160D01*
X105799664Y3782763D01*
X105801958Y3785478D01*
X105801998Y3785535D01*
X105802418Y3786297D01*
X105802667Y3786889D01*
X105803663Y3790047D01*
X105805582Y3794948D01*
X105806490Y3803349D01*
X105860281Y4015780D01*
X105861489Y4019423D01*
X105862197Y4022983D01*
X105862552Y4024545D01*
X105862596Y4026120D01*
X105862783Y4029521D01*
X105862502Y4033452D01*
X105862502Y18020441D01*
X105862648Y18022635D01*
X105862646Y18022675D01*
X105862576Y18024710D01*
X105862170Y18026413D01*
X105861416Y18028575D01*
X105794340Y18268820D01*
X105792915Y18278416D01*
X105792909Y18278435D01*
X105790690Y18282875D01*
X105790080Y18284177D01*
X105789192Y18285377D01*
X105787010Y18288494D01*
X105786458Y18289103D01*
X105779051Y18294644D01*
X105613204Y18452693D01*
X105608115Y18459082D01*
X105603420Y18462587D01*
X105601870Y18463884D01*
X105601828Y18463911D01*
X105600773Y18464630D01*
X105600700Y18464660D01*
X105598771Y18465555D01*
X105596804Y18466182D01*
X105592201Y18467978D01*
X105584020Y18468914D01*
X105583475Y18469052D01*
X105366052Y18524107D01*
X105364131Y18524728D01*
X105363660Y18524818D01*
X105362123Y18525157D01*
X105360649Y18525194D01*
X105356798Y18525388D01*
X105353016Y18525115D01*
X99365670Y18525115D01*
X99363245Y18525258D01*
X99361933Y18525208D01*
X99360667Y18524909D01*
X99358363Y18524119D01*
X99117271Y18456808D01*
X99108995Y18455542D01*
X99106478Y18454430D01*
X99104786Y18453819D01*
X99102474Y18452671D01*
X99100595Y18451335D01*
X99099228Y18450105D01*
X99096915Y18448282D01*
X99091947Y18441636D01*
X98933883Y18275773D01*
X98927567Y18270738D01*
X98924009Y18265993D01*
X98922693Y18264426D01*
X98922690Y18264420D01*
X98921850Y18263180D01*
X98921377Y18262103D01*
X98920734Y18260115D01*
X98918569Y18254437D01*
X98917671Y18246509D01*
X98862843Y18029972D01*
X98862472Y18028508D01*
X98861851Y18026569D01*
X98861814Y18026371D01*
X98861462Y18024764D01*
X98861424Y18023261D01*
X98861230Y18019410D01*
X98861503Y18015629D01*
X98861503Y16649521D01*
X98841818Y16582482D01*
X98789014Y16536727D01*
X98737503Y16525521D01*
X91762503Y16525521D01*
X91695464Y16545206D01*
X91649709Y16598010D01*
X91638503Y16649521D01*
X91638503Y18020898D01*
X91638645Y18023297D01*
X91638595Y18024630D01*
X91638170Y18026414D01*
X91637416Y18028575D01*
X91570340Y18268820D01*
X91568915Y18278416D01*
X91568909Y18278435D01*
X91566690Y18282875D01*
X91566080Y18284177D01*
X91565192Y18285377D01*
X91563010Y18288494D01*
X91562458Y18289103D01*
X91555051Y18294644D01*
X91389204Y18452693D01*
X91384115Y18459082D01*
X91379420Y18462587D01*
X91377870Y18463884D01*
X91377828Y18463911D01*
X91376773Y18464630D01*
X91376700Y18464660D01*
X91374771Y18465555D01*
X91372804Y18466182D01*
X91368201Y18467978D01*
X91360020Y18468914D01*
X91359475Y18469052D01*
X91142052Y18524107D01*
X91140131Y18524728D01*
X91139660Y18524818D01*
X91138123Y18525157D01*
X91136649Y18525194D01*
X91132798Y18525388D01*
X91129016Y18525115D01*
X85141670Y18525115D01*
X85139245Y18525258D01*
X85137933Y18525208D01*
X85136667Y18524909D01*
X85134363Y18524119D01*
X84893271Y18456808D01*
X84884995Y18455542D01*
X84882478Y18454430D01*
X84880786Y18453819D01*
X84878474Y18452671D01*
X84876595Y18451335D01*
X84875228Y18450105D01*
X84872915Y18448282D01*
X84867947Y18441636D01*
X84709883Y18275773D01*
X84703567Y18270738D01*
X84700009Y18265993D01*
X84698693Y18264426D01*
X84698690Y18264420D01*
X84697850Y18263180D01*
X84697377Y18262103D01*
X84696734Y18260115D01*
X84694569Y18254437D01*
X84693671Y18246509D01*
X84638843Y18029972D01*
X84638472Y18028508D01*
X84637851Y18026569D01*
X84637814Y18026371D01*
X84637462Y18024764D01*
X84637424Y18023261D01*
X84637230Y18019410D01*
X70175493Y18019410D01*
X70175493Y18020898D01*
X70175635Y18023297D01*
X70175585Y18024630D01*
X70175160Y18026414D01*
X70174406Y18028575D01*
X70107330Y18268820D01*
X70105905Y18278416D01*
X70105899Y18278435D01*
X70103680Y18282875D01*
X70103070Y18284177D01*
X70102182Y18285377D01*
X70100000Y18288494D01*
X70099448Y18289103D01*
X70092041Y18294644D01*
X69926194Y18452693D01*
X69921105Y18459082D01*
X69916410Y18462587D01*
X69914860Y18463884D01*
X69914818Y18463911D01*
X69913763Y18464630D01*
X69913690Y18464660D01*
X69911761Y18465555D01*
X69909794Y18466182D01*
X69905191Y18467978D01*
X69897010Y18468914D01*
X69896465Y18469052D01*
X69679042Y18524107D01*
X69677121Y18524728D01*
X69676650Y18524818D01*
X69675113Y18525157D01*
X69673639Y18525194D01*
X69669788Y18525388D01*
X69666006Y18525115D01*
X61265660Y18525115D01*
X61263235Y18525258D01*
X61261923Y18525208D01*
X61260657Y18524909D01*
X61258353Y18524119D01*
X61017261Y18456808D01*
X61008985Y18455542D01*
X61006468Y18454430D01*
X61004776Y18453819D01*
X61002464Y18452671D01*
X61000585Y18451335D01*
X60999218Y18450105D01*
X60996905Y18448282D01*
X60991937Y18441636D01*
X60833873Y18275773D01*
X60827557Y18270738D01*
X60823999Y18265993D01*
X60822683Y18264426D01*
X60822680Y18264420D01*
X60821840Y18263180D01*
X60821367Y18262103D01*
X60820724Y18260115D01*
X60818559Y18254437D01*
X60817661Y18246509D01*
X60762833Y18029972D01*
X60762462Y18028508D01*
X60761841Y18026569D01*
X60761804Y18026371D01*
X60761452Y18024764D01*
X60761414Y18023261D01*
X60761220Y18019410D01*
X51125508Y18019410D01*
X51125508Y18020893D01*
X51125650Y18023292D01*
X51125600Y18024625D01*
X51125175Y18026409D01*
X51124421Y18028568D01*
X51057345Y18268815D01*
X51055920Y18278411D01*
X51055914Y18278430D01*
X51053695Y18282870D01*
X51053085Y18284172D01*
X51052197Y18285372D01*
X51050015Y18288489D01*
X51049463Y18289098D01*
X51042056Y18294639D01*
X50876209Y18452688D01*
X50871120Y18459077D01*
X50866425Y18462582D01*
X50864875Y18463879D01*
X50864833Y18463906D01*
X50863778Y18464625D01*
X50863705Y18464655D01*
X50861776Y18465550D01*
X50859809Y18466177D01*
X50855206Y18467973D01*
X50847025Y18468909D01*
X50846460Y18469052D01*
X50629057Y18524102D01*
X50627136Y18524723D01*
X50626665Y18524813D01*
X50625128Y18525152D01*
X50623654Y18525189D01*
X50619803Y18525383D01*
X50616021Y18525110D01*
X44628675Y18525110D01*
X44626250Y18525253D01*
X44624938Y18525203D01*
X44623672Y18524904D01*
X44621368Y18524114D01*
X44380276Y18456803D01*
X44372000Y18455537D01*
X44369483Y18454425D01*
X44367791Y18453814D01*
X44365479Y18452666D01*
X44363600Y18451330D01*
X44362233Y18450100D01*
X44359920Y18448277D01*
X44354952Y18441631D01*
X44196888Y18275768D01*
X44190572Y18270733D01*
X44187014Y18265988D01*
X44185698Y18264421D01*
X44185695Y18264415D01*
X44184855Y18263175D01*
X44184382Y18262098D01*
X44183739Y18260110D01*
X44181574Y18254432D01*
X44180676Y18246504D01*
X44125477Y18028503D01*
X44124856Y18026564D01*
X44124819Y18026366D01*
X44124467Y18024759D01*
X44124429Y18023256D01*
X44124235Y18019405D01*
X44124508Y18015624D01*
X44124508Y16649519D01*
X44104823Y16582480D01*
X44052019Y16536725D01*
X44000508Y16525519D01*
X41724503Y16525519D01*
X41657464Y16545204D01*
X41611709Y16598008D01*
X41600503Y16649519D01*
X41600503Y18020893D01*
X41600645Y18023292D01*
X41600595Y18024625D01*
X41600170Y18026409D01*
X41599416Y18028568D01*
X41532340Y18268815D01*
X41530915Y18278411D01*
X41530909Y18278430D01*
X41528690Y18282870D01*
X41528080Y18284172D01*
X41527192Y18285372D01*
X41525010Y18288489D01*
X41524458Y18289098D01*
X41517051Y18294639D01*
X41351204Y18452688D01*
X41346115Y18459077D01*
X41341420Y18462582D01*
X41339870Y18463879D01*
X41339828Y18463906D01*
X41338773Y18464625D01*
X41338700Y18464655D01*
X41336771Y18465550D01*
X41334804Y18466177D01*
X41330201Y18467973D01*
X41322020Y18468909D01*
X41321455Y18469052D01*
X41104052Y18524102D01*
X41102131Y18524723D01*
X41101660Y18524813D01*
X41100123Y18525152D01*
X41098649Y18525189D01*
X41094798Y18525383D01*
X41091016Y18525110D01*
X35103670Y18525110D01*
X35101245Y18525253D01*
X35099933Y18525203D01*
X35098667Y18524904D01*
X35096363Y18524114D01*
X34855271Y18456803D01*
X34846995Y18455537D01*
X34844478Y18454425D01*
X34842786Y18453814D01*
X34840474Y18452666D01*
X34838595Y18451330D01*
X34837228Y18450100D01*
X34834915Y18448277D01*
X34829947Y18441631D01*
X34671883Y18275768D01*
X34665567Y18270733D01*
X34662009Y18265988D01*
X34660693Y18264421D01*
X34660690Y18264415D01*
X34659850Y18263175D01*
X34659377Y18262098D01*
X34658734Y18260110D01*
X34656569Y18254432D01*
X34655671Y18246504D01*
X34600472Y18028503D01*
X34599851Y18026564D01*
X34599814Y18026366D01*
X34599462Y18024759D01*
X34599424Y18023256D01*
X34599230Y18019405D01*
X34599503Y18015624D01*
X34599503Y16649519D01*
X34579818Y16582480D01*
X34527014Y16536725D01*
X34475503Y16525519D01*
X32199513Y16525519D01*
X32132474Y16545204D01*
X32086719Y16598008D01*
X32075513Y16649519D01*
X32075513Y18020893D01*
X32075655Y18023292D01*
X32075605Y18024625D01*
X32075180Y18026409D01*
X32074426Y18028568D01*
X32007350Y18268815D01*
X32005925Y18278411D01*
X32005919Y18278430D01*
X32003700Y18282870D01*
X32003090Y18284172D01*
X32002202Y18285372D01*
X32000020Y18288489D01*
X31999468Y18289098D01*
X31992061Y18294639D01*
X31826214Y18452688D01*
X31821125Y18459077D01*
X31816430Y18462582D01*
X31814880Y18463879D01*
X31814838Y18463906D01*
X31813783Y18464625D01*
X31813710Y18464655D01*
X31811781Y18465550D01*
X31809814Y18466177D01*
X31805211Y18467973D01*
X31797030Y18468909D01*
X31796465Y18469052D01*
X31579062Y18524102D01*
X31577141Y18524723D01*
X31576670Y18524813D01*
X31575133Y18525152D01*
X31573659Y18525189D01*
X31569808Y18525383D01*
X31566026Y18525110D01*
X25578680Y18525110D01*
X25576255Y18525253D01*
X25574943Y18525203D01*
X25573677Y18524904D01*
X25571373Y18524114D01*
X25330281Y18456803D01*
X25322005Y18455537D01*
X25319488Y18454425D01*
X25317796Y18453814D01*
X25315484Y18452666D01*
X25313605Y18451330D01*
X25312238Y18450100D01*
X25309925Y18448277D01*
X25304957Y18441631D01*
X25146893Y18275768D01*
X25140577Y18270733D01*
X25137019Y18265988D01*
X25135703Y18264421D01*
X25135700Y18264415D01*
X25134860Y18263175D01*
X25134387Y18262098D01*
X25133744Y18260110D01*
X25131579Y18254432D01*
X25130681Y18246504D01*
X25075482Y18028503D01*
X25074861Y18026564D01*
X25074824Y18026366D01*
X25074472Y18024759D01*
X25074434Y18023256D01*
X25074240Y18019405D01*
X25074513Y18015624D01*
X25074513Y16649519D01*
X25054828Y16582480D01*
X25002024Y16536725D01*
X24950513Y16525519D01*
X22078261Y16525519D01*
X22076342Y16525619D01*
X22074925Y16525525D01*
X22073226Y16525162D01*
X22071359Y16524522D01*
X21830266Y16457211D01*
X21821990Y16455945D01*
X21819473Y16454833D01*
X21817781Y16454222D01*
X21815469Y16453074D01*
X21813590Y16451738D01*
X21812223Y16450508D01*
X21809910Y16448685D01*
X21804942Y16442039D01*
X21646878Y16276176D01*
X21640562Y16271141D01*
X21637004Y16266396D01*
X21635688Y16264829D01*
X21635685Y16264823D01*
X21634845Y16263583D01*
X21634372Y16262506D01*
X21633729Y16260518D01*
X21631564Y16254840D01*
X21630666Y16246912D01*
X21575467Y16028911D01*
X21574846Y16026972D01*
X21574809Y16026774D01*
X21574457Y16025167D01*
X21574419Y16023664D01*
X21574225Y16019813D01*
X16525760Y16019813D01*
X16525567Y16023663D01*
X16525531Y16025064D01*
X16525234Y16026385D01*
X16524435Y16030380D01*
X16523226Y16034010D01*
X16469586Y16245847D01*
X16468705Y16254280D01*
X16466577Y16259748D01*
X16465748Y16262367D01*
X16465193Y16263686D01*
X16464804Y16264252D01*
X16462883Y16266539D01*
X16459522Y16271042D01*
X16453157Y16276122D01*
X16295888Y16441151D01*
X16290503Y16448504D01*
X16288735Y16450106D01*
X16285738Y16452214D01*
X16284557Y16453093D01*
X16283226Y16453725D01*
X16279863Y16455429D01*
X16279010Y16455735D01*
X16269987Y16457136D01*
X16028788Y16524477D01*
X16026550Y16525251D01*
X16025030Y16525612D01*
X16023745Y16525661D01*
X16021321Y16525518D01*
X3033975Y16525518D01*
X3030192Y16525791D01*
X3026342Y16525597D01*
X3024839Y16525559D01*
X3023232Y16525207D01*
X3023029Y16525169D01*
X3021096Y16524550D01*
X2803512Y16469455D01*
X2795420Y16468566D01*
X2789704Y16466375D01*
X2787654Y16465717D01*
X2786375Y16465160D01*
X2785540Y16464597D01*
X2783840Y16463176D01*
X2778851Y16459417D01*
X2773877Y16453184D01*
X2608378Y16295467D01*
X2601597Y16290446D01*
X2599471Y16287752D01*
X2598158Y16286293D01*
X2596935Y16284552D01*
X2595810Y16282296D01*
X2595174Y16280526D01*
X2594037Y16277941D01*
X2592780Y16269698D01*
X2525484Y16028658D01*
X2524692Y16026349D01*
X2524397Y16025102D01*
X2524345Y16023699D01*
X2524488Y16021300D01*
X2524488Y3033865D01*
X2524249Y3030512D01*
X500Y3030512D01*
X500Y22079929D01*
X7273797Y22079929D01*
X7273985Y22076526D01*
X7274030Y22074871D01*
X7274414Y22073157D01*
X7274463Y22072897D01*
X7275086Y22070972D01*
X7330279Y21853004D01*
X7331215Y21844823D01*
X7333011Y21840220D01*
X7333638Y21838253D01*
X7334533Y21836324D01*
X7334563Y21836251D01*
X7335282Y21835196D01*
X7335310Y21835152D01*
X7336606Y21833604D01*
X7340111Y21828909D01*
X7346500Y21823820D01*
X7504549Y21657973D01*
X7510090Y21650566D01*
X7510699Y21650014D01*
X7513816Y21647832D01*
X7515016Y21646944D01*
X7516318Y21646334D01*
X7520758Y21644115D01*
X7520777Y21644109D01*
X7530373Y21642684D01*
X7770620Y21575608D01*
X7772780Y21574854D01*
X7774571Y21574427D01*
X7775819Y21574379D01*
X7778244Y21574521D01*
X23146591Y21574521D01*
X23150373Y21574249D01*
X23154224Y21574442D01*
X23155630Y21574478D01*
X23156997Y21574784D01*
X23160767Y21575534D01*
X23164413Y21576743D01*
X23376970Y21630566D01*
X23385483Y21631495D01*
X23385612Y21631546D01*
X23389732Y21632840D01*
X23392028Y21633922D01*
X23394305Y21634890D01*
X23395403Y21635651D01*
X23397395Y21637329D01*
X23401582Y21640426D01*
X23406767Y21646935D01*
X23572188Y21804579D01*
X23580069Y21810414D01*
X23582490Y21813868D01*
X23583690Y21815463D01*
X23584526Y21817261D01*
X23586372Y21820904D01*
X23587823Y21830486D01*
X23589120Y21835132D01*
X23654930Y22070847D01*
X23655689Y22072996D01*
X23656184Y22075010D01*
X23656228Y22076117D01*
X23656078Y22078692D01*
X23656078Y22079910D01*
X31098719Y22079910D01*
X31098907Y22076506D01*
X31098952Y22074851D01*
X31099336Y22073137D01*
X31099385Y22072877D01*
X31100006Y22070961D01*
X31155196Y21853004D01*
X31155201Y21852984D01*
X31156137Y21844803D01*
X31157933Y21840200D01*
X31158560Y21838233D01*
X31159455Y21836304D01*
X31159485Y21836231D01*
X31160204Y21835176D01*
X31160232Y21835132D01*
X31161528Y21833584D01*
X31165033Y21828889D01*
X31171422Y21823800D01*
X31329471Y21657953D01*
X31335012Y21650546D01*
X31335621Y21649994D01*
X31338738Y21647812D01*
X31339938Y21646924D01*
X31341240Y21646314D01*
X31345680Y21644095D01*
X31345699Y21644089D01*
X31355295Y21642664D01*
X31595542Y21575588D01*
X31597702Y21574834D01*
X31599493Y21574407D01*
X31600741Y21574359D01*
X31603166Y21574501D01*
X163653513Y21574501D01*
X163657295Y21574229D01*
X163661146Y21574422D01*
X163662552Y21574458D01*
X163663919Y21574764D01*
X163667689Y21575514D01*
X163671335Y21576723D01*
X163883892Y21630546D01*
X163892405Y21631475D01*
X163892534Y21631526D01*
X163896654Y21632820D01*
X163898950Y21633902D01*
X163901227Y21634870D01*
X163902325Y21635631D01*
X163904317Y21637309D01*
X163908504Y21640406D01*
X163913689Y21646915D01*
X164079110Y21804559D01*
X164086991Y21810394D01*
X164089412Y21813848D01*
X164090612Y21815443D01*
X164091448Y21817241D01*
X164093294Y21820884D01*
X164094745Y21830466D01*
X164096394Y21836372D01*
X164161854Y22070832D01*
X164162611Y22072976D01*
X164163106Y22074990D01*
X164163150Y22076097D01*
X164163000Y22078672D01*
X164163000Y22079922D01*
X169211700Y22079922D01*
X169211888Y22076518D01*
X169211933Y22074863D01*
X169212317Y22073149D01*
X169212366Y22072889D01*
X169212989Y22070964D01*
X169268180Y21853004D01*
X169268182Y21852996D01*
X169269118Y21844815D01*
X169270914Y21840212D01*
X169271541Y21838245D01*
X169272436Y21836316D01*
X169272466Y21836243D01*
X169273185Y21835188D01*
X169273213Y21835144D01*
X169274509Y21833596D01*
X169278014Y21828901D01*
X169284403Y21823812D01*
X169442452Y21657965D01*
X169447993Y21650558D01*
X169448602Y21650006D01*
X169451719Y21647824D01*
X169452919Y21646936D01*
X169454221Y21646326D01*
X169458661Y21644107D01*
X169458680Y21644101D01*
X169468276Y21642676D01*
X169708523Y21575600D01*
X169710683Y21574846D01*
X169712474Y21574419D01*
X169713722Y21574371D01*
X169716147Y21574513D01*
X185084494Y21574513D01*
X185088276Y21574241D01*
X185092127Y21574434D01*
X185093533Y21574470D01*
X185094900Y21574776D01*
X185098670Y21575526D01*
X185102316Y21576735D01*
X185314873Y21630558D01*
X185323386Y21631487D01*
X185323515Y21631538D01*
X185327635Y21632832D01*
X185329931Y21633914D01*
X185332208Y21634882D01*
X185333306Y21635643D01*
X185335298Y21637321D01*
X185339485Y21640418D01*
X185344670Y21646927D01*
X185510091Y21804571D01*
X185517972Y21810406D01*
X185520393Y21813860D01*
X185521593Y21815455D01*
X185522429Y21817253D01*
X185524275Y21820896D01*
X185525726Y21830478D01*
X185527329Y21836218D01*
X185592834Y22070840D01*
X185593592Y22072988D01*
X185594087Y22075002D01*
X185594131Y22076109D01*
X185593981Y22078684D01*
X185593981Y35066026D01*
X185594253Y35069807D01*
X185594060Y35073658D01*
X185594024Y35075059D01*
X185593727Y35076380D01*
X185592928Y35080375D01*
X185591719Y35084005D01*
X185538079Y35295845D01*
X185537198Y35304275D01*
X185535070Y35309743D01*
X185534241Y35312362D01*
X185533686Y35313681D01*
X185533297Y35314247D01*
X185531376Y35316534D01*
X185528015Y35321037D01*
X185521650Y35326117D01*
X185364381Y35491146D01*
X185358996Y35498499D01*
X185357228Y35500101D01*
X185354231Y35502209D01*
X185353050Y35503088D01*
X185351719Y35503720D01*
X185348356Y35505424D01*
X185347503Y35505730D01*
X185338480Y35507131D01*
X185097281Y35574472D01*
X185095043Y35575246D01*
X185093523Y35575607D01*
X185092238Y35575656D01*
X185089814Y35575513D01*
X169721468Y35575513D01*
X169717685Y35575786D01*
X169713835Y35575592D01*
X169712332Y35575554D01*
X169710725Y35575202D01*
X169710522Y35575164D01*
X169708589Y35574545D01*
X169491005Y35519450D01*
X169482913Y35518561D01*
X169477197Y35516370D01*
X169475147Y35515712D01*
X169473868Y35515155D01*
X169473033Y35514592D01*
X169471333Y35513171D01*
X169466344Y35509412D01*
X169461370Y35503179D01*
X169295871Y35345462D01*
X169289090Y35340441D01*
X169286964Y35337747D01*
X169285651Y35336288D01*
X169284428Y35334547D01*
X169283303Y35332291D01*
X169282667Y35330521D01*
X169281530Y35327936D01*
X169280273Y35319693D01*
X169212977Y35078653D01*
X169212185Y35076344D01*
X169211890Y35075097D01*
X169211838Y35073694D01*
X169211981Y35071295D01*
X169211981Y22083864D01*
X169211700Y22079922D01*
X164163000Y22079922D01*
X164163000Y35066014D01*
X164163272Y35069795D01*
X164163079Y35073646D01*
X164163043Y35075047D01*
X164162746Y35076368D01*
X164161947Y35080363D01*
X164160738Y35083993D01*
X164107098Y35295830D01*
X164106217Y35304263D01*
X164104089Y35309731D01*
X164103260Y35312350D01*
X164102705Y35313669D01*
X164102316Y35314235D01*
X164100395Y35316522D01*
X164097034Y35321025D01*
X164090669Y35326105D01*
X163933400Y35491134D01*
X163928015Y35498487D01*
X163926247Y35500089D01*
X163923250Y35502197D01*
X163922069Y35503076D01*
X163920738Y35503708D01*
X163917375Y35505412D01*
X163916522Y35505718D01*
X163907499Y35507119D01*
X163666300Y35574460D01*
X163664062Y35575234D01*
X163662542Y35575595D01*
X163661257Y35575644D01*
X163658833Y35575501D01*
X31608487Y35575501D01*
X31604704Y35575774D01*
X31600854Y35575580D01*
X31599351Y35575542D01*
X31597744Y35575190D01*
X31597541Y35575152D01*
X31595608Y35574533D01*
X31378024Y35519438D01*
X31369932Y35518549D01*
X31364216Y35516358D01*
X31362166Y35515700D01*
X31360887Y35515143D01*
X31360052Y35514580D01*
X31358352Y35513159D01*
X31353363Y35509400D01*
X31348389Y35503167D01*
X31182890Y35345450D01*
X31176109Y35340429D01*
X31173983Y35337735D01*
X31172670Y35336276D01*
X31171447Y35334535D01*
X31170322Y35332279D01*
X31169686Y35330509D01*
X31168549Y35327924D01*
X31167292Y35319681D01*
X31099996Y35078641D01*
X31099204Y35076332D01*
X31098909Y35075085D01*
X31098857Y35073682D01*
X31099000Y35071283D01*
X31099000Y22083852D01*
X31098719Y22079910D01*
X23656078Y22079910D01*
X23656078Y35066034D01*
X23656350Y35069815D01*
X23656157Y35073666D01*
X23656121Y35075067D01*
X23655824Y35076388D01*
X23655025Y35080383D01*
X23653816Y35084013D01*
X23600176Y35295850D01*
X23599295Y35304283D01*
X23597167Y35309751D01*
X23596338Y35312370D01*
X23595783Y35313689D01*
X23595394Y35314255D01*
X23593473Y35316542D01*
X23590112Y35321045D01*
X23583747Y35326125D01*
X23426478Y35491154D01*
X23421093Y35498507D01*
X23419325Y35500109D01*
X23416328Y35502217D01*
X23415147Y35503096D01*
X23413816Y35503728D01*
X23410453Y35505432D01*
X23409600Y35505738D01*
X23400577Y35507139D01*
X23159378Y35574480D01*
X23157140Y35575254D01*
X23155620Y35575615D01*
X23154335Y35575664D01*
X23151911Y35575521D01*
X7783565Y35575521D01*
X7779782Y35575794D01*
X7775932Y35575600D01*
X7774429Y35575562D01*
X7772822Y35575210D01*
X7772619Y35575172D01*
X7770686Y35574553D01*
X7553102Y35519458D01*
X7545010Y35518569D01*
X7539294Y35516378D01*
X7537244Y35515720D01*
X7535965Y35515163D01*
X7535130Y35514600D01*
X7533430Y35513179D01*
X7528441Y35509420D01*
X7523467Y35503187D01*
X7357968Y35345470D01*
X7351187Y35340449D01*
X7349061Y35337755D01*
X7347748Y35336296D01*
X7346525Y35334555D01*
X7345400Y35332299D01*
X7344764Y35330529D01*
X7343627Y35327944D01*
X7342370Y35319701D01*
X7275074Y35078661D01*
X7274282Y35076352D01*
X7273987Y35075105D01*
X7273935Y35073702D01*
X7274078Y35071303D01*
X7274078Y22083871D01*
X7273797Y22079929D01*
X500Y22079929D01*
X500Y41129916D01*
X2524222Y41129916D01*
X2524410Y41126513D01*
X2524455Y41124858D01*
X2524839Y41123144D01*
X2524888Y41122884D01*
X2525511Y41120959D01*
X2580704Y40902991D01*
X2581640Y40894810D01*
X2583436Y40890207D01*
X2584063Y40888240D01*
X2584958Y40886311D01*
X2584988Y40886238D01*
X2585707Y40885183D01*
X2585735Y40885139D01*
X2587031Y40883591D01*
X2590536Y40878896D01*
X2596925Y40873807D01*
X2754974Y40707960D01*
X2760515Y40700553D01*
X2761124Y40700001D01*
X2764241Y40697819D01*
X2765441Y40696931D01*
X2766743Y40696321D01*
X2771183Y40694102D01*
X2771202Y40694096D01*
X2780798Y40692671D01*
X3021045Y40625595D01*
X3023205Y40624841D01*
X3024996Y40624414D01*
X3026244Y40624366D01*
X3028669Y40624508D01*
X18397016Y40624508D01*
X18400798Y40624236D01*
X18404649Y40624429D01*
X18406055Y40624465D01*
X18407422Y40624771D01*
X18411192Y40625521D01*
X18414838Y40626730D01*
X18627395Y40680553D01*
X18635908Y40681482D01*
X18636037Y40681533D01*
X18640157Y40682827D01*
X18642453Y40683909D01*
X18644730Y40684877D01*
X18645828Y40685638D01*
X18647820Y40687316D01*
X18652007Y40690413D01*
X18657192Y40696922D01*
X18822613Y40854566D01*
X18830494Y40860401D01*
X18832915Y40863855D01*
X18834115Y40865450D01*
X18834951Y40867248D01*
X18836797Y40870891D01*
X18838248Y40880473D01*
X18839891Y40886359D01*
X18905355Y41120834D01*
X18906114Y41122983D01*
X18906609Y41124997D01*
X18906653Y41126104D01*
X18906503Y41128679D01*
X18906503Y41129916D01*
X21574212Y41129916D01*
X21574400Y41126513D01*
X21574445Y41124858D01*
X21574829Y41123144D01*
X21574878Y41122884D01*
X21575501Y41120959D01*
X21630694Y40902991D01*
X21631630Y40894810D01*
X21633426Y40890207D01*
X21634053Y40888240D01*
X21634948Y40886311D01*
X21634978Y40886238D01*
X21635697Y40885183D01*
X21635725Y40885139D01*
X21637021Y40883591D01*
X21640526Y40878896D01*
X21646915Y40873807D01*
X21804964Y40707960D01*
X21810505Y40700553D01*
X21811114Y40700001D01*
X21814231Y40697819D01*
X21815431Y40696931D01*
X21816733Y40696321D01*
X21821173Y40694102D01*
X21821192Y40694096D01*
X21830788Y40692671D01*
X22071035Y40625595D01*
X22073195Y40624841D01*
X22074986Y40624414D01*
X22076234Y40624366D01*
X22078659Y40624508D01*
X187466006Y40624508D01*
X187469788Y40624236D01*
X187473639Y40624429D01*
X187475045Y40624465D01*
X187476412Y40624771D01*
X187480182Y40625521D01*
X187483828Y40626730D01*
X187696385Y40680553D01*
X187704898Y40681482D01*
X187705027Y40681533D01*
X187709147Y40682827D01*
X187711443Y40683909D01*
X187713720Y40684877D01*
X187714818Y40685638D01*
X187716810Y40687316D01*
X187720997Y40690413D01*
X187726182Y40696922D01*
X187891603Y40854566D01*
X187899484Y40860401D01*
X187901905Y40863855D01*
X187903105Y40865450D01*
X187903941Y40867248D01*
X187905787Y40870891D01*
X187907238Y40880473D01*
X187908881Y40886359D01*
X187974345Y41120834D01*
X187975104Y41122983D01*
X187975599Y41124997D01*
X187975643Y41126104D01*
X187975493Y41128679D01*
X187975493Y41133858D01*
X187975493Y54116035D01*
X187975765Y54119807D01*
X187975572Y54123653D01*
X187975536Y54125054D01*
X187975239Y54126375D01*
X187974440Y54130370D01*
X187973231Y54134000D01*
X187919591Y54345837D01*
X187918710Y54354270D01*
X187916582Y54359738D01*
X187915753Y54362357D01*
X187915198Y54363676D01*
X187914809Y54364242D01*
X187912888Y54366529D01*
X187909527Y54371032D01*
X187903162Y54376112D01*
X187745893Y54541141D01*
X187740508Y54548494D01*
X187738740Y54550096D01*
X187735743Y54552204D01*
X187734562Y54553083D01*
X187733231Y54553715D01*
X187729868Y54555419D01*
X187729015Y54555725D01*
X187719992Y54557126D01*
X187478793Y54624467D01*
X187476555Y54625241D01*
X187475035Y54625602D01*
X187473750Y54625651D01*
X187471326Y54625508D01*
X22083980Y54625508D01*
X22080197Y54625781D01*
X22076347Y54625587D01*
X22074844Y54625549D01*
X22073237Y54625197D01*
X22073034Y54625159D01*
X22071101Y54624540D01*
X21853517Y54569445D01*
X21845425Y54568556D01*
X21839709Y54566365D01*
X21837659Y54565707D01*
X21836380Y54565150D01*
X21835545Y54564587D01*
X21833845Y54563166D01*
X21828856Y54559407D01*
X21823882Y54553174D01*
X21658383Y54395457D01*
X21651602Y54390436D01*
X21649476Y54387742D01*
X21648163Y54386283D01*
X21646940Y54384542D01*
X21645815Y54382286D01*
X21645179Y54380516D01*
X21644042Y54377931D01*
X21642785Y54369688D01*
X21575489Y54128648D01*
X21574697Y54126339D01*
X21574402Y54125092D01*
X21574350Y54123689D01*
X21574493Y54121290D01*
X21574493Y41133858D01*
X21574212Y41129916D01*
X18906503Y41129916D01*
X18906503Y54116021D01*
X18906775Y54119802D01*
X18906582Y54123653D01*
X18906546Y54125054D01*
X18906249Y54126375D01*
X18905450Y54130370D01*
X18904241Y54134000D01*
X18850601Y54345837D01*
X18849720Y54354270D01*
X18847592Y54359738D01*
X18846763Y54362357D01*
X18846208Y54363676D01*
X18845819Y54364242D01*
X18843898Y54366529D01*
X18840537Y54371032D01*
X18834172Y54376112D01*
X18676903Y54541141D01*
X18671518Y54548494D01*
X18669750Y54550096D01*
X18666753Y54552204D01*
X18665572Y54553083D01*
X18664241Y54553715D01*
X18660878Y54555419D01*
X18660025Y54555725D01*
X18651002Y54557126D01*
X18409803Y54624467D01*
X18407565Y54625241D01*
X18406045Y54625602D01*
X18404760Y54625651D01*
X18402336Y54625508D01*
X3033990Y54625508D01*
X3030207Y54625781D01*
X3026357Y54625587D01*
X3024854Y54625549D01*
X3023247Y54625197D01*
X3023044Y54625159D01*
X3021111Y54624540D01*
X2803527Y54569445D01*
X2795435Y54568556D01*
X2789719Y54566365D01*
X2787669Y54565707D01*
X2786390Y54565150D01*
X2785555Y54564587D01*
X2783855Y54563166D01*
X2778866Y54559407D01*
X2773892Y54553174D01*
X2608393Y54395457D01*
X2601612Y54390436D01*
X2599486Y54387742D01*
X2598173Y54386283D01*
X2596950Y54384542D01*
X2595825Y54382286D01*
X2595189Y54380516D01*
X2594052Y54377931D01*
X2592795Y54369688D01*
X2525499Y54128648D01*
X2524707Y54126339D01*
X2524412Y54125092D01*
X2524360Y54123689D01*
X2524503Y54121290D01*
X2524503Y41133858D01*
X2524222Y41129916D01*
X500Y41129916D01*
X500Y60179911D01*
X2524212Y60179911D01*
X2524400Y60176508D01*
X2524445Y60174853D01*
X2524829Y60173139D01*
X2524878Y60172879D01*
X2525501Y60170954D01*
X2580694Y59952986D01*
X2581630Y59944805D01*
X2583426Y59940202D01*
X2584053Y59938235D01*
X2584948Y59936306D01*
X2584978Y59936233D01*
X2585697Y59935178D01*
X2585725Y59935134D01*
X2587021Y59933586D01*
X2590526Y59928891D01*
X2596915Y59923802D01*
X2754964Y59757955D01*
X2760505Y59750548D01*
X2761114Y59749996D01*
X2764231Y59747814D01*
X2765431Y59746926D01*
X2766733Y59746316D01*
X2771173Y59744097D01*
X2771192Y59744091D01*
X2780788Y59742666D01*
X3021035Y59675590D01*
X3023195Y59674836D01*
X3024986Y59674409D01*
X3026234Y59674361D01*
X3028659Y59674503D01*
X16016006Y59674503D01*
X16019788Y59674231D01*
X16023639Y59674424D01*
X16025045Y59674460D01*
X16026412Y59674766D01*
X16030182Y59675516D01*
X16033828Y59676725D01*
X16246385Y59730548D01*
X16254898Y59731477D01*
X16255027Y59731528D01*
X16259147Y59732822D01*
X16261443Y59733904D01*
X16263720Y59734872D01*
X16264818Y59735633D01*
X16266810Y59737311D01*
X16270997Y59740408D01*
X16276182Y59746917D01*
X16441603Y59904561D01*
X16449484Y59910396D01*
X16451905Y59913850D01*
X16453105Y59915445D01*
X16453941Y59917243D01*
X16455787Y59920886D01*
X16457238Y59930468D01*
X16458881Y59936354D01*
X16524345Y60170829D01*
X16525104Y60172978D01*
X16525599Y60174992D01*
X16525643Y60176099D01*
X16525493Y60178674D01*
X16525493Y60179912D01*
X21574222Y60179912D01*
X21574410Y60176508D01*
X21574455Y60174853D01*
X21574839Y60173139D01*
X21574888Y60172879D01*
X21575511Y60170954D01*
X21630704Y59952986D01*
X21631640Y59944805D01*
X21633436Y59940202D01*
X21634063Y59938235D01*
X21634958Y59936306D01*
X21634988Y59936233D01*
X21635707Y59935178D01*
X21635735Y59935134D01*
X21637031Y59933586D01*
X21640536Y59928891D01*
X21646925Y59923802D01*
X21804974Y59757955D01*
X21810515Y59750548D01*
X21811124Y59749996D01*
X21814241Y59747814D01*
X21815441Y59746926D01*
X21816743Y59746316D01*
X21821183Y59744097D01*
X21821202Y59744091D01*
X21830798Y59742666D01*
X22071045Y59675590D01*
X22073205Y59674836D01*
X22074996Y59674409D01*
X22076244Y59674361D01*
X22078669Y59674503D01*
X35066016Y59674503D01*
X35069798Y59674231D01*
X35073649Y59674424D01*
X35075055Y59674460D01*
X35076422Y59674766D01*
X35080192Y59675516D01*
X35083838Y59676725D01*
X35296395Y59730548D01*
X35304908Y59731477D01*
X35305037Y59731528D01*
X35309157Y59732822D01*
X35311453Y59733904D01*
X35313730Y59734872D01*
X35314828Y59735633D01*
X35316820Y59737311D01*
X35321007Y59740408D01*
X35326192Y59746917D01*
X35491613Y59904561D01*
X35499494Y59910396D01*
X35501915Y59913850D01*
X35503115Y59915445D01*
X35503951Y59917243D01*
X35505797Y59920886D01*
X35507248Y59930468D01*
X35508891Y59936354D01*
X35574355Y60170829D01*
X35575114Y60172978D01*
X35575609Y60174992D01*
X35575653Y60176099D01*
X35575503Y60178674D01*
X35575503Y60179911D01*
X40624232Y60179911D01*
X40624420Y60176508D01*
X40624465Y60174853D01*
X40624849Y60173139D01*
X40624898Y60172879D01*
X40625521Y60170954D01*
X40680714Y59952986D01*
X40681650Y59944805D01*
X40683446Y59940202D01*
X40684073Y59938235D01*
X40684968Y59936306D01*
X40684998Y59936233D01*
X40685717Y59935178D01*
X40685745Y59935134D01*
X40687041Y59933586D01*
X40690546Y59928891D01*
X40696935Y59923802D01*
X40854984Y59757955D01*
X40860525Y59750548D01*
X40861134Y59749996D01*
X40864251Y59747814D01*
X40865451Y59746926D01*
X40866753Y59746316D01*
X40871193Y59744097D01*
X40871212Y59744091D01*
X40880808Y59742666D01*
X41121055Y59675590D01*
X41123215Y59674836D01*
X41125006Y59674409D01*
X41126254Y59674361D01*
X41128679Y59674503D01*
X54116026Y59674503D01*
X54119808Y59674231D01*
X54123659Y59674424D01*
X54125065Y59674460D01*
X54126432Y59674766D01*
X54130202Y59675516D01*
X54133848Y59676725D01*
X54346405Y59730548D01*
X54354918Y59731477D01*
X54355047Y59731528D01*
X54359167Y59732822D01*
X54361463Y59733904D01*
X54363740Y59734872D01*
X54364838Y59735633D01*
X54366830Y59737311D01*
X54371017Y59740408D01*
X54376202Y59746917D01*
X54541623Y59904561D01*
X54549504Y59910396D01*
X54551925Y59913850D01*
X54553125Y59915445D01*
X54553961Y59917243D01*
X54555807Y59920886D01*
X54557258Y59930468D01*
X54558901Y59936354D01*
X54624365Y60170829D01*
X54625124Y60172978D01*
X54625619Y60174992D01*
X54625663Y60176099D01*
X54625513Y60178674D01*
X54625513Y60179912D01*
X59674217Y60179912D01*
X59674405Y60176508D01*
X59674450Y60174853D01*
X59674834Y60173139D01*
X59674883Y60172879D01*
X59675506Y60170954D01*
X59730699Y59952986D01*
X59731635Y59944805D01*
X59733431Y59940202D01*
X59734058Y59938235D01*
X59734953Y59936306D01*
X59734983Y59936233D01*
X59735702Y59935178D01*
X59735730Y59935134D01*
X59737026Y59933586D01*
X59740531Y59928891D01*
X59746920Y59923802D01*
X59904969Y59757955D01*
X59910510Y59750548D01*
X59911119Y59749996D01*
X59914236Y59747814D01*
X59915436Y59746926D01*
X59916738Y59746316D01*
X59921178Y59744097D01*
X59921197Y59744091D01*
X59930793Y59742666D01*
X60171040Y59675590D01*
X60173200Y59674836D01*
X60174991Y59674409D01*
X60176239Y59674361D01*
X60178664Y59674503D01*
X73166011Y59674503D01*
X73169793Y59674231D01*
X73173644Y59674424D01*
X73175050Y59674460D01*
X73176417Y59674766D01*
X73180187Y59675516D01*
X73183833Y59676725D01*
X73396390Y59730548D01*
X73404903Y59731477D01*
X73405032Y59731528D01*
X73409152Y59732822D01*
X73411448Y59733904D01*
X73413725Y59734872D01*
X73414823Y59735633D01*
X73416815Y59737311D01*
X73421002Y59740408D01*
X73426187Y59746917D01*
X73591608Y59904561D01*
X73599489Y59910396D01*
X73601910Y59913850D01*
X73603110Y59915445D01*
X73603946Y59917243D01*
X73605792Y59920886D01*
X73607243Y59930468D01*
X73608886Y59936354D01*
X73674350Y60170829D01*
X73675109Y60172978D01*
X73675604Y60174992D01*
X73675648Y60176099D01*
X73675498Y60178674D01*
X73675498Y60179911D01*
X78724227Y60179911D01*
X78724415Y60176508D01*
X78724460Y60174853D01*
X78724844Y60173139D01*
X78724893Y60172879D01*
X78725516Y60170954D01*
X78780709Y59952986D01*
X78781645Y59944805D01*
X78783441Y59940202D01*
X78784068Y59938235D01*
X78784963Y59936306D01*
X78784993Y59936233D01*
X78785712Y59935178D01*
X78785740Y59935134D01*
X78787036Y59933586D01*
X78790541Y59928891D01*
X78796930Y59923802D01*
X78954979Y59757955D01*
X78960520Y59750548D01*
X78961129Y59749996D01*
X78964246Y59747814D01*
X78965446Y59746926D01*
X78966748Y59746316D01*
X78971188Y59744097D01*
X78971207Y59744091D01*
X78980803Y59742666D01*
X79221050Y59675590D01*
X79223210Y59674836D01*
X79225001Y59674409D01*
X79226249Y59674361D01*
X79228674Y59674503D01*
X92216021Y59674503D01*
X92219803Y59674231D01*
X92223654Y59674424D01*
X92225060Y59674460D01*
X92226427Y59674766D01*
X92230197Y59675516D01*
X92233843Y59676725D01*
X92446400Y59730548D01*
X92454913Y59731477D01*
X92455042Y59731528D01*
X92459162Y59732822D01*
X92461458Y59733904D01*
X92463735Y59734872D01*
X92464833Y59735633D01*
X92466825Y59737311D01*
X92471012Y59740408D01*
X92476197Y59746917D01*
X92641618Y59904561D01*
X92649499Y59910396D01*
X92651920Y59913850D01*
X92653120Y59915445D01*
X92653956Y59917243D01*
X92655802Y59920886D01*
X92657253Y59930468D01*
X92658896Y59936354D01*
X92724360Y60170829D01*
X92725119Y60172978D01*
X92725614Y60174992D01*
X92725658Y60176099D01*
X92725508Y60178674D01*
X92725508Y60179911D01*
X97774237Y60179911D01*
X97774425Y60176508D01*
X97774470Y60174853D01*
X97774854Y60173139D01*
X97774903Y60172879D01*
X97775526Y60170954D01*
X97830719Y59952986D01*
X97831655Y59944805D01*
X97833451Y59940202D01*
X97834078Y59938235D01*
X97834973Y59936306D01*
X97835003Y59936233D01*
X97835722Y59935178D01*
X97835750Y59935134D01*
X97837046Y59933586D01*
X97840551Y59928891D01*
X97846940Y59923802D01*
X98004989Y59757955D01*
X98010530Y59750548D01*
X98011139Y59749996D01*
X98014256Y59747814D01*
X98015456Y59746926D01*
X98016758Y59746316D01*
X98021198Y59744097D01*
X98021217Y59744091D01*
X98030813Y59742666D01*
X98271060Y59675590D01*
X98273220Y59674836D01*
X98275011Y59674409D01*
X98276259Y59674361D01*
X98278684Y59674503D01*
X111266031Y59674503D01*
X111269813Y59674231D01*
X111273664Y59674424D01*
X111275070Y59674460D01*
X111276437Y59674766D01*
X111280207Y59675516D01*
X111283853Y59676725D01*
X111496410Y59730548D01*
X111504923Y59731477D01*
X111505052Y59731528D01*
X111509172Y59732822D01*
X111511468Y59733904D01*
X111513745Y59734872D01*
X111514843Y59735633D01*
X111516835Y59737311D01*
X111521022Y59740408D01*
X111526207Y59746917D01*
X111691628Y59904561D01*
X111699509Y59910396D01*
X111701930Y59913850D01*
X111703130Y59915445D01*
X111703966Y59917243D01*
X111705812Y59920886D01*
X111707263Y59930468D01*
X111708906Y59936354D01*
X111774370Y60170829D01*
X111775129Y60172978D01*
X111775624Y60174992D01*
X111775668Y60176099D01*
X111775518Y60178674D01*
X111775518Y60179911D01*
X116824212Y60179911D01*
X116824400Y60176508D01*
X116824445Y60174853D01*
X116824829Y60173139D01*
X116824878Y60172879D01*
X116825501Y60170954D01*
X116880694Y59952986D01*
X116881630Y59944805D01*
X116883426Y59940202D01*
X116884053Y59938235D01*
X116884948Y59936306D01*
X116884978Y59936233D01*
X116885697Y59935178D01*
X116885725Y59935134D01*
X116887021Y59933586D01*
X116890526Y59928891D01*
X116896915Y59923802D01*
X117054964Y59757955D01*
X117060505Y59750548D01*
X117061114Y59749996D01*
X117064231Y59747814D01*
X117065431Y59746926D01*
X117066733Y59746316D01*
X117071173Y59744097D01*
X117071192Y59744091D01*
X117080788Y59742666D01*
X117321035Y59675590D01*
X117323195Y59674836D01*
X117324986Y59674409D01*
X117326234Y59674361D01*
X117328659Y59674503D01*
X130316006Y59674503D01*
X130319788Y59674231D01*
X130323639Y59674424D01*
X130325045Y59674460D01*
X130326412Y59674766D01*
X130330182Y59675516D01*
X130333828Y59676725D01*
X130546385Y59730548D01*
X130554898Y59731477D01*
X130555027Y59731528D01*
X130559147Y59732822D01*
X130561443Y59733904D01*
X130563720Y59734872D01*
X130564818Y59735633D01*
X130566810Y59737311D01*
X130570997Y59740408D01*
X130576182Y59746917D01*
X130741603Y59904561D01*
X130749484Y59910396D01*
X130751905Y59913850D01*
X130753105Y59915445D01*
X130753941Y59917243D01*
X130755787Y59920886D01*
X130757238Y59930468D01*
X130758881Y59936354D01*
X130824345Y60170829D01*
X130825104Y60172978D01*
X130825599Y60174992D01*
X130825643Y60176099D01*
X130825493Y60178674D01*
X130825493Y73166016D01*
X130825765Y73169797D01*
X130825572Y73173648D01*
X130825554Y73174365D01*
X135874365Y73174365D01*
X135874502Y73171740D01*
X135874502Y60179464D01*
X135874379Y60177732D01*
X135874494Y60174948D01*
X135874970Y60172625D01*
X135875515Y60170941D01*
X135930704Y59952986D01*
X135931640Y59944805D01*
X135933436Y59940202D01*
X135934063Y59938235D01*
X135934958Y59936306D01*
X135934988Y59936233D01*
X135935707Y59935178D01*
X135935735Y59935134D01*
X135937031Y59933586D01*
X135940536Y59928891D01*
X135946925Y59923802D01*
X136104974Y59757955D01*
X136110515Y59750548D01*
X136111124Y59749996D01*
X136114241Y59747814D01*
X136115441Y59746926D01*
X136116743Y59746316D01*
X136121183Y59744097D01*
X136121202Y59744091D01*
X136130798Y59742666D01*
X136371045Y59675590D01*
X136373205Y59674836D01*
X136374996Y59674409D01*
X136376244Y59674361D01*
X136378669Y59674503D01*
X149366016Y59674503D01*
X149369798Y59674231D01*
X149373649Y59674424D01*
X149375055Y59674460D01*
X149376422Y59674766D01*
X149380192Y59675516D01*
X149383838Y59676725D01*
X149596395Y59730548D01*
X149604908Y59731477D01*
X149605037Y59731528D01*
X149609157Y59732822D01*
X149611453Y59733904D01*
X149613730Y59734872D01*
X149614828Y59735633D01*
X149616820Y59737311D01*
X149621007Y59740408D01*
X149626192Y59746917D01*
X149791613Y59904561D01*
X149799494Y59910396D01*
X149801915Y59913850D01*
X149803115Y59915445D01*
X149803951Y59917243D01*
X149805797Y59920886D01*
X149807248Y59930468D01*
X149808891Y59936354D01*
X149874355Y60170829D01*
X149875112Y60172974D01*
X149875588Y60174909D01*
X149875656Y60176770D01*
X149875502Y60179123D01*
X149875502Y60179911D01*
X154924232Y60179911D01*
X154924420Y60176508D01*
X154924465Y60174853D01*
X154924849Y60173139D01*
X154924898Y60172879D01*
X154925521Y60170954D01*
X154980714Y59952986D01*
X154981650Y59944805D01*
X154983446Y59940202D01*
X154984073Y59938235D01*
X154984968Y59936306D01*
X154984998Y59936233D01*
X154985717Y59935178D01*
X154985745Y59935134D01*
X154987041Y59933586D01*
X154990546Y59928891D01*
X154996935Y59923802D01*
X155154984Y59757955D01*
X155160525Y59750548D01*
X155161134Y59749996D01*
X155164251Y59747814D01*
X155165451Y59746926D01*
X155166753Y59746316D01*
X155171193Y59744097D01*
X155171212Y59744091D01*
X155180808Y59742666D01*
X155421055Y59675590D01*
X155423215Y59674836D01*
X155425006Y59674409D01*
X155426254Y59674361D01*
X155428679Y59674503D01*
X168416026Y59674503D01*
X168419808Y59674231D01*
X168423659Y59674424D01*
X168425065Y59674460D01*
X168426432Y59674766D01*
X168430202Y59675516D01*
X168433848Y59676725D01*
X168646405Y59730548D01*
X168654918Y59731477D01*
X168655047Y59731528D01*
X168659167Y59732822D01*
X168661463Y59733904D01*
X168663740Y59734872D01*
X168664838Y59735633D01*
X168666830Y59737311D01*
X168671017Y59740408D01*
X168676202Y59746917D01*
X168841623Y59904561D01*
X168849504Y59910396D01*
X168851925Y59913850D01*
X168853125Y59915445D01*
X168853961Y59917243D01*
X168855807Y59920886D01*
X168857258Y59930468D01*
X168858901Y59936354D01*
X168924365Y60170829D01*
X168925124Y60172978D01*
X168925619Y60174992D01*
X168925663Y60176099D01*
X168925513Y60178674D01*
X168925513Y60179911D01*
X173974232Y60179911D01*
X173974420Y60176508D01*
X173974465Y60174853D01*
X173974849Y60173139D01*
X173974898Y60172879D01*
X173975521Y60170954D01*
X174030714Y59952986D01*
X174031650Y59944805D01*
X174033446Y59940202D01*
X174034073Y59938235D01*
X174034968Y59936306D01*
X174034998Y59936233D01*
X174035717Y59935178D01*
X174035745Y59935134D01*
X174037041Y59933586D01*
X174040546Y59928891D01*
X174046935Y59923802D01*
X174204984Y59757955D01*
X174210525Y59750548D01*
X174211134Y59749996D01*
X174214251Y59747814D01*
X174215451Y59746926D01*
X174216753Y59746316D01*
X174221193Y59744097D01*
X174221212Y59744091D01*
X174230808Y59742666D01*
X174471055Y59675590D01*
X174473215Y59674836D01*
X174475006Y59674409D01*
X174476254Y59674361D01*
X174478679Y59674503D01*
X187466026Y59674503D01*
X187469808Y59674231D01*
X187473659Y59674424D01*
X187475065Y59674460D01*
X187476432Y59674766D01*
X187480202Y59675516D01*
X187483848Y59676725D01*
X187696405Y59730548D01*
X187704918Y59731477D01*
X187705047Y59731528D01*
X187709167Y59732822D01*
X187711463Y59733904D01*
X187713740Y59734872D01*
X187714838Y59735633D01*
X187716830Y59737311D01*
X187721017Y59740408D01*
X187726202Y59746917D01*
X187891623Y59904561D01*
X187899504Y59910396D01*
X187901925Y59913850D01*
X187903125Y59915445D01*
X187903961Y59917243D01*
X187905807Y59920886D01*
X187907258Y59930468D01*
X187908901Y59936354D01*
X187974365Y60170829D01*
X187975124Y60172978D01*
X187975619Y60174992D01*
X187975663Y60176099D01*
X187975513Y60178674D01*
X187975513Y73166014D01*
X187975822Y73170297D01*
X187975692Y73172345D01*
X187975642Y73175039D01*
X187975041Y73177637D01*
X187974626Y73179867D01*
X187973249Y73184004D01*
X187943988Y73299563D01*
X187919611Y73395832D01*
X187918730Y73404265D01*
X187916602Y73409733D01*
X187915773Y73412352D01*
X187915218Y73413671D01*
X187914829Y73414237D01*
X187912908Y73416524D01*
X187909547Y73421027D01*
X187903182Y73426107D01*
X187745913Y73591136D01*
X187740528Y73598489D01*
X187738760Y73600091D01*
X187735763Y73602199D01*
X187734582Y73603078D01*
X187733251Y73603710D01*
X187729888Y73605414D01*
X187729035Y73605720D01*
X187720012Y73607121D01*
X187478813Y73674462D01*
X187476575Y73675236D01*
X187475055Y73675597D01*
X187473770Y73675646D01*
X187471346Y73675503D01*
X174484000Y73675503D01*
X174480217Y73675776D01*
X174476367Y73675582D01*
X174474864Y73675544D01*
X174473257Y73675192D01*
X174473054Y73675154D01*
X174471121Y73674535D01*
X174253537Y73619440D01*
X174245445Y73618551D01*
X174239729Y73616360D01*
X174237679Y73615702D01*
X174236400Y73615145D01*
X174235565Y73614582D01*
X174233865Y73613161D01*
X174228876Y73609402D01*
X174223902Y73603169D01*
X174058403Y73445452D01*
X174051622Y73440431D01*
X174049496Y73437737D01*
X174048183Y73436278D01*
X174046960Y73434537D01*
X174045835Y73432281D01*
X174045199Y73430511D01*
X174044062Y73427926D01*
X174042805Y73419683D01*
X173975509Y73178643D01*
X173974717Y73176334D01*
X173974422Y73175087D01*
X173974370Y73173684D01*
X173974513Y73171285D01*
X173974513Y60183853D01*
X173974232Y60179911D01*
X168925513Y60179911D01*
X168925513Y73166016D01*
X168925785Y73169797D01*
X168925592Y73173648D01*
X168925556Y73175049D01*
X168925259Y73176370D01*
X168924460Y73180365D01*
X168923251Y73183995D01*
X168869611Y73395832D01*
X168868730Y73404265D01*
X168866602Y73409733D01*
X168865773Y73412352D01*
X168865218Y73413671D01*
X168864829Y73414237D01*
X168862908Y73416524D01*
X168859547Y73421027D01*
X168853182Y73426107D01*
X168695913Y73591136D01*
X168690528Y73598489D01*
X168688760Y73600091D01*
X168685763Y73602199D01*
X168684582Y73603078D01*
X168683251Y73603710D01*
X168679888Y73605414D01*
X168679035Y73605720D01*
X168670012Y73607121D01*
X168428813Y73674462D01*
X168426575Y73675236D01*
X168425055Y73675597D01*
X168423770Y73675646D01*
X168421346Y73675503D01*
X155434000Y73675503D01*
X155430217Y73675776D01*
X155426367Y73675582D01*
X155424864Y73675544D01*
X155423257Y73675192D01*
X155423054Y73675154D01*
X155421121Y73674535D01*
X155203537Y73619440D01*
X155195445Y73618551D01*
X155189729Y73616360D01*
X155187679Y73615702D01*
X155186400Y73615145D01*
X155185565Y73614582D01*
X155183865Y73613161D01*
X155178876Y73609402D01*
X155173902Y73603169D01*
X155008403Y73445452D01*
X155001622Y73440431D01*
X154999496Y73437737D01*
X154998183Y73436278D01*
X154996960Y73434537D01*
X154995835Y73432281D01*
X154995199Y73430511D01*
X154994062Y73427926D01*
X154992805Y73419683D01*
X154925509Y73178643D01*
X154924717Y73176334D01*
X154924422Y73175087D01*
X154924370Y73173684D01*
X154924513Y73171285D01*
X154924513Y60183853D01*
X154924232Y60179911D01*
X149875502Y60179911D01*
X149875502Y60183854D01*
X149875502Y73166030D01*
X149875775Y73169802D01*
X149875582Y73173648D01*
X149875546Y73175049D01*
X149875249Y73176370D01*
X149874450Y73180365D01*
X149873241Y73183995D01*
X149819601Y73395832D01*
X149818720Y73404265D01*
X149816592Y73409733D01*
X149815763Y73412352D01*
X149815208Y73413671D01*
X149814819Y73414237D01*
X149812898Y73416524D01*
X149809537Y73421027D01*
X149803172Y73426107D01*
X149645903Y73591136D01*
X149640518Y73598489D01*
X149638750Y73600091D01*
X149635753Y73602199D01*
X149634572Y73603078D01*
X149633241Y73603710D01*
X149629878Y73605414D01*
X149629025Y73605720D01*
X149620002Y73607121D01*
X149378803Y73674462D01*
X149376565Y73675236D01*
X149375045Y73675597D01*
X149373760Y73675646D01*
X149371336Y73675503D01*
X136383990Y73675503D01*
X136380207Y73675776D01*
X136376357Y73675582D01*
X136374854Y73675544D01*
X136373247Y73675192D01*
X136373044Y73675154D01*
X136371111Y73674535D01*
X136153527Y73619440D01*
X136145435Y73618551D01*
X136139719Y73616360D01*
X136137669Y73615702D01*
X136136390Y73615145D01*
X136135555Y73614582D01*
X136133855Y73613161D01*
X136128866Y73609402D01*
X136123892Y73603169D01*
X135958393Y73445452D01*
X135951612Y73440431D01*
X135949486Y73437737D01*
X135948173Y73436278D01*
X135946950Y73434537D01*
X135945825Y73432281D01*
X135945189Y73430511D01*
X135944052Y73427926D01*
X135942795Y73419683D01*
X135875499Y73178643D01*
X135874708Y73176338D01*
X135874391Y73174991D01*
X135874365Y73174365D01*
X130825554Y73174365D01*
X130825536Y73175049D01*
X130825239Y73176370D01*
X130824440Y73180365D01*
X130823231Y73183995D01*
X130769591Y73395832D01*
X130768710Y73404265D01*
X130766582Y73409733D01*
X130765753Y73412352D01*
X130765198Y73413671D01*
X130764809Y73414237D01*
X130762888Y73416524D01*
X130759527Y73421027D01*
X130753162Y73426107D01*
X130595893Y73591136D01*
X130590508Y73598489D01*
X130588740Y73600091D01*
X130585743Y73602199D01*
X130584562Y73603078D01*
X130583231Y73603710D01*
X130579868Y73605414D01*
X130579015Y73605720D01*
X130569992Y73607121D01*
X130328793Y73674462D01*
X130326555Y73675236D01*
X130325035Y73675597D01*
X130323750Y73675646D01*
X130321326Y73675503D01*
X117333980Y73675503D01*
X117330197Y73675776D01*
X117326347Y73675582D01*
X117324844Y73675544D01*
X117323237Y73675192D01*
X117323034Y73675154D01*
X117321101Y73674535D01*
X117103517Y73619440D01*
X117095425Y73618551D01*
X117089709Y73616360D01*
X117087659Y73615702D01*
X117086380Y73615145D01*
X117085545Y73614582D01*
X117083845Y73613161D01*
X117078856Y73609402D01*
X117073882Y73603169D01*
X116908383Y73445452D01*
X116901602Y73440431D01*
X116899476Y73437737D01*
X116898163Y73436278D01*
X116896940Y73434537D01*
X116895815Y73432281D01*
X116895179Y73430511D01*
X116894042Y73427926D01*
X116892785Y73419683D01*
X116825489Y73178643D01*
X116824697Y73176334D01*
X116824402Y73175087D01*
X116824350Y73173684D01*
X116824493Y73171285D01*
X116824493Y60183853D01*
X116824212Y60179911D01*
X111775518Y60179911D01*
X111775518Y73166016D01*
X111775790Y73169797D01*
X111775597Y73173648D01*
X111775561Y73175049D01*
X111775264Y73176370D01*
X111774465Y73180365D01*
X111773256Y73183995D01*
X111719616Y73395832D01*
X111718735Y73404265D01*
X111716607Y73409733D01*
X111715778Y73412352D01*
X111715223Y73413671D01*
X111714834Y73414237D01*
X111712913Y73416524D01*
X111709552Y73421027D01*
X111703187Y73426107D01*
X111545918Y73591136D01*
X111540533Y73598489D01*
X111538765Y73600091D01*
X111535768Y73602199D01*
X111534587Y73603078D01*
X111533256Y73603710D01*
X111529893Y73605414D01*
X111529040Y73605720D01*
X111520017Y73607121D01*
X111278818Y73674462D01*
X111276580Y73675236D01*
X111275060Y73675597D01*
X111273775Y73675646D01*
X111271351Y73675503D01*
X98284005Y73675503D01*
X98280222Y73675776D01*
X98276372Y73675582D01*
X98274869Y73675544D01*
X98273262Y73675192D01*
X98273059Y73675154D01*
X98271126Y73674535D01*
X98053542Y73619440D01*
X98045450Y73618551D01*
X98039734Y73616360D01*
X98037684Y73615702D01*
X98036405Y73615145D01*
X98035570Y73614582D01*
X98033870Y73613161D01*
X98028881Y73609402D01*
X98023907Y73603169D01*
X97858408Y73445452D01*
X97851627Y73440431D01*
X97849501Y73437737D01*
X97848188Y73436278D01*
X97846965Y73434537D01*
X97845840Y73432281D01*
X97845204Y73430511D01*
X97844067Y73427926D01*
X97842810Y73419683D01*
X97775514Y73178643D01*
X97774722Y73176334D01*
X97774427Y73175087D01*
X97774375Y73173684D01*
X97774518Y73171285D01*
X97774518Y60183853D01*
X97774237Y60179911D01*
X92725508Y60179911D01*
X92725508Y73166016D01*
X92725780Y73169797D01*
X92725587Y73173648D01*
X92725551Y73175049D01*
X92725254Y73176370D01*
X92724455Y73180365D01*
X92723246Y73183995D01*
X92669606Y73395832D01*
X92668725Y73404265D01*
X92666597Y73409733D01*
X92665768Y73412352D01*
X92665213Y73413671D01*
X92664824Y73414237D01*
X92662903Y73416524D01*
X92659542Y73421027D01*
X92653177Y73426107D01*
X92495908Y73591136D01*
X92490523Y73598489D01*
X92488755Y73600091D01*
X92485758Y73602199D01*
X92484577Y73603078D01*
X92483246Y73603710D01*
X92479883Y73605414D01*
X92479030Y73605720D01*
X92470007Y73607121D01*
X92228808Y73674462D01*
X92226570Y73675236D01*
X92225050Y73675597D01*
X92223765Y73675646D01*
X92221341Y73675503D01*
X79233995Y73675503D01*
X79230212Y73675776D01*
X79226362Y73675582D01*
X79224859Y73675544D01*
X79223252Y73675192D01*
X79223049Y73675154D01*
X79221116Y73674535D01*
X79003532Y73619440D01*
X78995440Y73618551D01*
X78989724Y73616360D01*
X78987674Y73615702D01*
X78986395Y73615145D01*
X78985560Y73614582D01*
X78983860Y73613161D01*
X78978871Y73609402D01*
X78973897Y73603169D01*
X78808398Y73445452D01*
X78801617Y73440431D01*
X78799491Y73437737D01*
X78798178Y73436278D01*
X78796955Y73434537D01*
X78795830Y73432281D01*
X78795194Y73430511D01*
X78794057Y73427926D01*
X78792800Y73419683D01*
X78725504Y73178643D01*
X78724712Y73176334D01*
X78724417Y73175087D01*
X78724365Y73173684D01*
X78724508Y73171285D01*
X78724508Y60183853D01*
X78724227Y60179911D01*
X73675498Y60179911D01*
X73675498Y73166016D01*
X73675770Y73169797D01*
X73675577Y73173648D01*
X73675541Y73175049D01*
X73675244Y73176370D01*
X73674445Y73180365D01*
X73673236Y73183995D01*
X73619596Y73395832D01*
X73618715Y73404265D01*
X73616587Y73409733D01*
X73615758Y73412352D01*
X73615203Y73413671D01*
X73614814Y73414237D01*
X73612893Y73416524D01*
X73609532Y73421027D01*
X73603167Y73426107D01*
X73445898Y73591136D01*
X73440513Y73598489D01*
X73438745Y73600091D01*
X73435748Y73602199D01*
X73434567Y73603078D01*
X73433236Y73603710D01*
X73429873Y73605414D01*
X73429020Y73605720D01*
X73419997Y73607121D01*
X73178798Y73674462D01*
X73176560Y73675236D01*
X73175040Y73675597D01*
X73173755Y73675646D01*
X73171331Y73675503D01*
X60183985Y73675503D01*
X60180202Y73675776D01*
X60176352Y73675582D01*
X60174849Y73675544D01*
X60173242Y73675192D01*
X60173039Y73675154D01*
X60171106Y73674535D01*
X59953522Y73619440D01*
X59945430Y73618551D01*
X59939714Y73616360D01*
X59937664Y73615702D01*
X59936385Y73615145D01*
X59935550Y73614582D01*
X59933850Y73613161D01*
X59928861Y73609402D01*
X59923887Y73603169D01*
X59758388Y73445452D01*
X59751607Y73440431D01*
X59749481Y73437737D01*
X59748168Y73436278D01*
X59746945Y73434537D01*
X59745820Y73432281D01*
X59745184Y73430511D01*
X59744047Y73427926D01*
X59742790Y73419683D01*
X59675494Y73178643D01*
X59674702Y73176334D01*
X59674407Y73175087D01*
X59674355Y73173684D01*
X59674498Y73171285D01*
X59674498Y60183854D01*
X59674217Y60179912D01*
X54625513Y60179912D01*
X54625513Y73166016D01*
X54625785Y73169797D01*
X54625592Y73173648D01*
X54625556Y73175049D01*
X54625259Y73176370D01*
X54624460Y73180365D01*
X54623251Y73183995D01*
X54569611Y73395832D01*
X54568730Y73404265D01*
X54566602Y73409733D01*
X54565773Y73412352D01*
X54565218Y73413671D01*
X54564829Y73414237D01*
X54562908Y73416524D01*
X54559547Y73421027D01*
X54553182Y73426107D01*
X54395913Y73591136D01*
X54390528Y73598489D01*
X54388760Y73600091D01*
X54385763Y73602199D01*
X54384582Y73603078D01*
X54383251Y73603710D01*
X54379888Y73605414D01*
X54379035Y73605720D01*
X54370012Y73607121D01*
X54128813Y73674462D01*
X54126575Y73675236D01*
X54125055Y73675597D01*
X54123770Y73675646D01*
X54121346Y73675503D01*
X41134000Y73675503D01*
X41130217Y73675776D01*
X41126367Y73675582D01*
X41124864Y73675544D01*
X41123257Y73675192D01*
X41123054Y73675154D01*
X41121121Y73674535D01*
X40903537Y73619440D01*
X40895445Y73618551D01*
X40889729Y73616360D01*
X40887679Y73615702D01*
X40886400Y73615145D01*
X40885565Y73614582D01*
X40883865Y73613161D01*
X40878876Y73609402D01*
X40873902Y73603169D01*
X40708403Y73445452D01*
X40701622Y73440431D01*
X40699496Y73437737D01*
X40698183Y73436278D01*
X40696960Y73434537D01*
X40695835Y73432281D01*
X40695199Y73430511D01*
X40694062Y73427926D01*
X40692805Y73419683D01*
X40625509Y73178643D01*
X40624717Y73176334D01*
X40624422Y73175087D01*
X40624370Y73173684D01*
X40624513Y73171285D01*
X40624513Y60183853D01*
X40624232Y60179911D01*
X35575503Y60179911D01*
X35575503Y73166016D01*
X35575775Y73169797D01*
X35575582Y73173648D01*
X35575546Y73175049D01*
X35575249Y73176370D01*
X35574450Y73180365D01*
X35573241Y73183995D01*
X35519601Y73395832D01*
X35518720Y73404265D01*
X35516592Y73409733D01*
X35515763Y73412352D01*
X35515208Y73413671D01*
X35514819Y73414237D01*
X35512898Y73416524D01*
X35509537Y73421027D01*
X35503172Y73426107D01*
X35345903Y73591136D01*
X35340518Y73598489D01*
X35338750Y73600091D01*
X35335753Y73602199D01*
X35334572Y73603078D01*
X35333241Y73603710D01*
X35329878Y73605414D01*
X35329025Y73605720D01*
X35320002Y73607121D01*
X35078803Y73674462D01*
X35076565Y73675236D01*
X35075045Y73675597D01*
X35073760Y73675646D01*
X35071336Y73675503D01*
X22083990Y73675503D01*
X22080207Y73675776D01*
X22076357Y73675582D01*
X22074854Y73675544D01*
X22073247Y73675192D01*
X22073044Y73675154D01*
X22071111Y73674535D01*
X21853527Y73619440D01*
X21845435Y73618551D01*
X21839719Y73616360D01*
X21837669Y73615702D01*
X21836390Y73615145D01*
X21835555Y73614582D01*
X21833855Y73613161D01*
X21828866Y73609402D01*
X21823892Y73603169D01*
X21658393Y73445452D01*
X21651612Y73440431D01*
X21649486Y73437737D01*
X21648173Y73436278D01*
X21646950Y73434537D01*
X21645825Y73432281D01*
X21645189Y73430511D01*
X21644052Y73427926D01*
X21642795Y73419683D01*
X21575499Y73178643D01*
X21574707Y73176334D01*
X21574412Y73175087D01*
X21574360Y73173684D01*
X21574503Y73171285D01*
X21574503Y60183854D01*
X21574222Y60179912D01*
X16525493Y60179912D01*
X16525493Y73166016D01*
X16525765Y73169797D01*
X16525572Y73173648D01*
X16525536Y73175049D01*
X16525239Y73176370D01*
X16524440Y73180365D01*
X16523231Y73183995D01*
X16469591Y73395832D01*
X16468710Y73404265D01*
X16466582Y73409733D01*
X16465753Y73412352D01*
X16465198Y73413671D01*
X16464809Y73414237D01*
X16462888Y73416524D01*
X16459527Y73421027D01*
X16453162Y73426107D01*
X16295893Y73591136D01*
X16290508Y73598489D01*
X16288740Y73600091D01*
X16285743Y73602199D01*
X16284562Y73603078D01*
X16283231Y73603710D01*
X16279868Y73605414D01*
X16279015Y73605720D01*
X16269992Y73607121D01*
X16028793Y73674462D01*
X16026555Y73675236D01*
X16025035Y73675597D01*
X16023750Y73675646D01*
X16021326Y73675503D01*
X3033980Y73675503D01*
X3030197Y73675776D01*
X3026347Y73675582D01*
X3024844Y73675544D01*
X3023237Y73675192D01*
X3023034Y73675154D01*
X3021101Y73674535D01*
X2803517Y73619440D01*
X2795425Y73618551D01*
X2789709Y73616360D01*
X2787659Y73615702D01*
X2786380Y73615145D01*
X2785545Y73614582D01*
X2783845Y73613161D01*
X2778856Y73609402D01*
X2773882Y73603169D01*
X2608383Y73445452D01*
X2601602Y73440431D01*
X2599476Y73437737D01*
X2598163Y73436278D01*
X2596940Y73434537D01*
X2595815Y73432281D01*
X2595179Y73430511D01*
X2594042Y73427926D01*
X2592785Y73419683D01*
X2525489Y73178643D01*
X2524697Y73176334D01*
X2524402Y73175087D01*
X2524350Y73173684D01*
X2524493Y73171285D01*
X2524493Y60183853D01*
X2524212Y60179911D01*
X500Y60179911D01*
X500Y73818752D01*
X17944785Y73818752D01*
X17963602Y73615670D01*
X18019417Y73419505D01*
X18019422Y73419492D01*
X18110327Y73236931D01*
X18233237Y73074171D01*
X18383958Y72936772D01*
X18383960Y72936770D01*
X18510148Y72858639D01*
X18557363Y72829404D01*
X18588863Y72817201D01*
X18591927Y72815908D01*
X18592002Y72815882D01*
X18592004Y72815881D01*
X18593021Y72815529D01*
X18594499Y72815017D01*
X18672885Y72784651D01*
X18747544Y72755728D01*
X18780395Y72749587D01*
X18783608Y72748898D01*
X18790070Y72747330D01*
X18790075Y72747328D01*
X18790079Y72747328D01*
X18790081Y72747327D01*
X18800493Y72745830D01*
X18827696Y72740745D01*
X18948024Y72718252D01*
X18948026Y72718252D01*
X18983437Y72718252D01*
X18991643Y72717666D01*
X18991649Y72717780D01*
X18997537Y72717500D01*
X18997541Y72717499D01*
X18997544Y72717500D01*
X18997548Y72717499D01*
X19005954Y72717899D01*
X19005964Y72717897D01*
X19011938Y72718182D01*
X19014891Y72718252D01*
X19151975Y72718252D01*
X19151976Y72718252D01*
X19195198Y72726332D01*
X19203646Y72727317D01*
X19206902Y72727472D01*
X19206904Y72727473D01*
X19208781Y72727562D01*
X19208827Y72727567D01*
X19241914Y72729144D01*
X19272294Y72740744D01*
X19352456Y72755728D01*
X19397381Y72773133D01*
X19405145Y72775566D01*
X19410593Y72776887D01*
X19410596Y72776889D01*
X19413340Y72777554D01*
X19413370Y72777562D01*
X19442586Y72784651D01*
X19468999Y72800877D01*
X19525895Y72822919D01*
X19542635Y72829403D01*
X19542640Y72829406D01*
X19587244Y72857024D01*
X19594092Y72860688D01*
X19601251Y72863957D01*
X19601254Y72863960D01*
X19605575Y72865932D01*
X19607528Y72866824D01*
X19608782Y72867005D01*
X19612029Y72868880D01*
X19629245Y72876742D01*
X19651028Y72896518D01*
X19716041Y72936771D01*
X19758053Y72975071D01*
X19763809Y72979716D01*
X19771985Y72985537D01*
X19771989Y72985542D01*
X19772077Y72985604D01*
X19774906Y72986584D01*
X19781622Y72992402D01*
X19795296Y73002140D01*
X19812053Y73024299D01*
X19866764Y73074173D01*
X19903691Y73123074D01*
X19908278Y73128474D01*
X19911207Y73131549D01*
X19912284Y73132678D01*
X19916302Y73135000D01*
X19924799Y73145803D01*
X19934839Y73156333D01*
X19946455Y73179702D01*
X19989673Y73236931D01*
X20016822Y73291455D01*
X20024339Y73299563D01*
X20025541Y73302565D01*
X20036342Y73323517D01*
X20042993Y73333868D01*
X20049607Y73357297D01*
X20080582Y73419502D01*
X20097598Y73479309D01*
X20104343Y73490002D01*
X20105596Y73496499D01*
X20112240Y73519126D01*
X20115947Y73528387D01*
X20117948Y73550831D01*
X20136397Y73615669D01*
X20143368Y73690907D01*
X20144217Y73696872D01*
X20147510Y73713953D01*
X20147510Y73713958D01*
X20151179Y73732994D01*
X20149173Y73753557D01*
X20155215Y73818752D01*
X170344785Y73818752D01*
X170363602Y73615670D01*
X170419417Y73419505D01*
X170419422Y73419492D01*
X170510327Y73236931D01*
X170633237Y73074171D01*
X170783958Y72936772D01*
X170783960Y72936770D01*
X170910148Y72858639D01*
X170957363Y72829404D01*
X170988863Y72817201D01*
X170991927Y72815908D01*
X170992002Y72815882D01*
X170992004Y72815881D01*
X170993021Y72815529D01*
X170994499Y72815017D01*
X171072885Y72784651D01*
X171147544Y72755728D01*
X171180395Y72749587D01*
X171183608Y72748898D01*
X171190070Y72747330D01*
X171190075Y72747328D01*
X171190079Y72747328D01*
X171190081Y72747327D01*
X171200493Y72745830D01*
X171227696Y72740745D01*
X171348024Y72718252D01*
X171348026Y72718252D01*
X171383437Y72718252D01*
X171391643Y72717666D01*
X171391649Y72717780D01*
X171397537Y72717500D01*
X171397541Y72717499D01*
X171397544Y72717500D01*
X171397548Y72717499D01*
X171405954Y72717899D01*
X171405964Y72717897D01*
X171411938Y72718182D01*
X171414891Y72718252D01*
X171551975Y72718252D01*
X171551976Y72718252D01*
X171595198Y72726332D01*
X171603646Y72727317D01*
X171606902Y72727472D01*
X171606904Y72727473D01*
X171608781Y72727562D01*
X171608827Y72727567D01*
X171641914Y72729144D01*
X171672294Y72740744D01*
X171752456Y72755728D01*
X171797381Y72773133D01*
X171805145Y72775566D01*
X171810593Y72776887D01*
X171810596Y72776889D01*
X171813340Y72777554D01*
X171813370Y72777562D01*
X171842586Y72784651D01*
X171868999Y72800877D01*
X171925895Y72822919D01*
X171942635Y72829403D01*
X171942640Y72829406D01*
X171987244Y72857024D01*
X171994092Y72860688D01*
X172001251Y72863957D01*
X172001254Y72863960D01*
X172005575Y72865932D01*
X172007528Y72866824D01*
X172008782Y72867005D01*
X172012029Y72868880D01*
X172029245Y72876742D01*
X172051028Y72896518D01*
X172116041Y72936771D01*
X172158053Y72975071D01*
X172163809Y72979716D01*
X172171985Y72985537D01*
X172171989Y72985542D01*
X172172077Y72985604D01*
X172174906Y72986584D01*
X172181622Y72992402D01*
X172195296Y73002140D01*
X172212053Y73024299D01*
X172266764Y73074173D01*
X172303691Y73123074D01*
X172308278Y73128474D01*
X172311207Y73131549D01*
X172312284Y73132678D01*
X172316302Y73135000D01*
X172324799Y73145803D01*
X172334839Y73156333D01*
X172346455Y73179702D01*
X172389673Y73236931D01*
X172416822Y73291455D01*
X172424339Y73299563D01*
X172425541Y73302565D01*
X172436342Y73323517D01*
X172442993Y73333868D01*
X172449607Y73357297D01*
X172480582Y73419502D01*
X172497598Y73479309D01*
X172504343Y73490002D01*
X172505596Y73496499D01*
X172512240Y73519126D01*
X172515947Y73528387D01*
X172517948Y73550831D01*
X172536397Y73615669D01*
X172543368Y73690907D01*
X172544217Y73696872D01*
X172547510Y73713953D01*
X172547510Y73713958D01*
X172551179Y73732994D01*
X172549173Y73753557D01*
X172555215Y73818752D01*
X172549173Y73883948D01*
X172552180Y73899319D01*
X172544220Y73940620D01*
X172543368Y73946604D01*
X172536397Y74021835D01*
X172517948Y74086676D01*
X172518091Y74103766D01*
X172512239Y74118383D01*
X172505597Y74141006D01*
X172505152Y74143312D01*
X172497599Y74158194D01*
X172480582Y74218002D01*
X172480581Y74218005D01*
X172480580Y74218008D01*
X172449608Y74280206D01*
X172446365Y74298393D01*
X172436342Y74313990D01*
X172425891Y74334262D01*
X172416824Y74346047D01*
X172389673Y74400573D01*
X172389670Y74400577D01*
X172389669Y74400579D01*
X172346456Y74457803D01*
X172339456Y74476332D01*
X172324797Y74491705D01*
X172318144Y74500164D01*
X172312316Y74504795D01*
X172308299Y74509008D01*
X172303692Y74514430D01*
X172293043Y74528532D01*
X172266766Y74563330D01*
X172266764Y74563332D01*
X172212055Y74613205D01*
X172201101Y74631233D01*
X172181623Y74645103D01*
X172176369Y74649656D01*
X172172065Y74651910D01*
X172163832Y74657774D01*
X172158024Y74662461D01*
X172143766Y74675459D01*
X172116041Y74700733D01*
X172116034Y74700737D01*
X172116032Y74700739D01*
X172051029Y74740987D01*
X172036113Y74757628D01*
X172012029Y74768626D01*
X172009533Y74770067D01*
X172007586Y74770655D01*
X171994104Y74776812D01*
X171987214Y74780499D01*
X171942637Y74808100D01*
X171896282Y74826058D01*
X171868993Y74836630D01*
X171850320Y74850980D01*
X171810264Y74860697D01*
X171808216Y74861194D01*
X171805155Y74861937D01*
X171797370Y74864377D01*
X171766645Y74876279D01*
X171752456Y74881776D01*
X171752447Y74881778D01*
X171752446Y74881778D01*
X171672284Y74896764D01*
X171650247Y74907969D01*
X171603641Y74910189D01*
X171595191Y74911175D01*
X171551980Y74919252D01*
X171551976Y74919252D01*
X171414834Y74919252D01*
X171411884Y74919322D01*
X171397540Y74920006D01*
X171391649Y74919724D01*
X171391643Y74919839D01*
X171383437Y74919252D01*
X171348024Y74919252D01*
X171304816Y74911175D01*
X171200491Y74891674D01*
X171190072Y74890176D01*
X171183593Y74888604D01*
X171180373Y74887913D01*
X171147548Y74881777D01*
X171147538Y74881775D01*
X170994496Y74822486D01*
X170991915Y74821593D01*
X170988811Y74820284D01*
X170957363Y74808101D01*
X170957361Y74808100D01*
X170783957Y74700732D01*
X170633237Y74563334D01*
X170510327Y74400574D01*
X170419422Y74218013D01*
X170419417Y74218000D01*
X170363602Y74021835D01*
X170344785Y73818753D01*
X170344785Y73818752D01*
X20155215Y73818752D01*
X20149173Y73883948D01*
X20152180Y73899319D01*
X20144220Y73940620D01*
X20143368Y73946604D01*
X20136397Y74021835D01*
X20117948Y74086676D01*
X20118091Y74103766D01*
X20112239Y74118383D01*
X20105597Y74141006D01*
X20105152Y74143312D01*
X20097599Y74158194D01*
X20080582Y74218002D01*
X20080581Y74218005D01*
X20080580Y74218008D01*
X20049608Y74280206D01*
X20046365Y74298393D01*
X20036342Y74313990D01*
X20025891Y74334262D01*
X20016824Y74346047D01*
X19989673Y74400573D01*
X19989670Y74400577D01*
X19989669Y74400579D01*
X19946456Y74457803D01*
X19939456Y74476332D01*
X19924797Y74491705D01*
X19918144Y74500164D01*
X19912316Y74504795D01*
X19908299Y74509008D01*
X19903692Y74514430D01*
X19893043Y74528532D01*
X19866766Y74563330D01*
X19866764Y74563332D01*
X19812055Y74613205D01*
X19801101Y74631233D01*
X19781623Y74645103D01*
X19776369Y74649656D01*
X19772065Y74651910D01*
X19763832Y74657774D01*
X19758024Y74662461D01*
X19743766Y74675459D01*
X19716041Y74700733D01*
X19716034Y74700737D01*
X19716032Y74700739D01*
X19651029Y74740987D01*
X19636113Y74757628D01*
X19612029Y74768626D01*
X19609533Y74770067D01*
X19607586Y74770655D01*
X19594104Y74776812D01*
X19587214Y74780499D01*
X19542637Y74808100D01*
X19496282Y74826058D01*
X19468993Y74836630D01*
X19450320Y74850980D01*
X19410264Y74860697D01*
X19408216Y74861194D01*
X19405155Y74861937D01*
X19397370Y74864377D01*
X19366645Y74876279D01*
X19352456Y74881776D01*
X19352447Y74881778D01*
X19352446Y74881778D01*
X19272284Y74896764D01*
X19250247Y74907969D01*
X19203641Y74910189D01*
X19195191Y74911175D01*
X19151980Y74919252D01*
X19151976Y74919252D01*
X19014834Y74919252D01*
X19011884Y74919322D01*
X18997540Y74920006D01*
X18991649Y74919724D01*
X18991643Y74919839D01*
X18983437Y74919252D01*
X18948024Y74919252D01*
X18904816Y74911175D01*
X18800491Y74891674D01*
X18790072Y74890176D01*
X18783593Y74888604D01*
X18780373Y74887913D01*
X18747548Y74881777D01*
X18747538Y74881775D01*
X18594496Y74822486D01*
X18591915Y74821593D01*
X18588811Y74820284D01*
X18557363Y74808101D01*
X18557361Y74808100D01*
X18383957Y74700732D01*
X18233237Y74563334D01*
X18110327Y74400574D01*
X18019422Y74218013D01*
X18019417Y74218000D01*
X17963602Y74021835D01*
X17944785Y73818753D01*
X17944785Y73818752D01*
X500Y73818752D01*
X500Y75197637D01*
X677Y75202316D01*
X10960Y75338249D01*
X16155Y75365569D01*
X93646Y75615828D01*
X109311Y75648510D01*
X250118Y75857169D01*
X273993Y75883456D01*
X467729Y76043254D01*
X498442Y76061848D01*
X593317Y76101862D01*
X734473Y76161396D01*
X767160Y76170169D01*
X826072Y76177590D01*
X996172Y76199015D01*
X1003928Y76199502D01*
X189497635Y76199502D01*
X189502314Y76199325D01*
G37*
%TD.AperFunction*%
M02*
