%TF.GenerationSoftware,KiCad,Pcbnew,7.0.6*%
%TF.CreationDate,2023-10-29T00:27:11-04:00*%
%TF.ProjectId,dual-stagger-good-delivery-plate,6475616c-2d73-4746-9167-6765722d676f,rev?*%
%TF.SameCoordinates,PX3318a14PY7a102be*%
%TF.FileFunction,Profile,NP*%
%FSLAX46Y46*%
G04 Gerber Fmt 4.6, Leading zero omitted, Abs format (unit mm)*
G04 Created by KiCad (PCBNEW 7.0.6) date 2023-10-29 00:27:11*
%MOMM*%
%LPD*%
G01*
G04 APERTURE LIST*
%TA.AperFunction,Profile*%
%ADD10C,0.250000*%
%TD*%
%ADD11C,0.250000*%
G04 APERTURE END LIST*
D10*
X20150000Y73818752D02*
G75*
G03*
X20150000Y73818752I-1100000J0D01*
G01*
X172550000Y73818752D02*
G75*
G03*
X172550000Y73818752I-1100000J0D01*
G01*
X20150000Y2381250D02*
G75*
G03*
X20150000Y2381250I-1100000J0D01*
G01*
X172550000Y2381250D02*
G75*
G03*
X172550000Y2381250I-1100000J0D01*
G01*
D11*
X1000000Y76200002D02*
X750084Y76168520D01*
X481463Y76055229D01*
X259781Y75872380D01*
X98610Y75633544D01*
X11522Y75352293D01*
X0Y75200002D01*
D10*
X189500000Y76200002D02*
X1000000Y76200002D01*
D11*
X190500000Y75200002D02*
X190468517Y75449918D01*
X190355226Y75718539D01*
X190172377Y75940221D01*
X189933541Y76101392D01*
X189652290Y76188480D01*
X189500000Y76200002D01*
D10*
X190500000Y1000000D02*
X190500000Y75200002D01*
D11*
X189500000Y0D02*
X189749915Y31483D01*
X190018536Y144774D01*
X190240218Y327623D01*
X190401389Y566459D01*
X190488477Y847710D01*
X190500000Y1000000D01*
D10*
X1587500Y0D02*
X189500000Y0D01*
X999999Y1D02*
X1587500Y0D01*
D11*
X0Y1000001D02*
X31482Y750086D01*
X144773Y481465D01*
X327622Y259783D01*
X566458Y98612D01*
X847709Y11524D01*
X999999Y1D01*
D10*
X0Y75200002D02*
X0Y1000001D01*
X129238008Y3524615D02*
X121300008Y3524616D01*
D11*
X129738008Y4024615D02*
X129665621Y3765347D01*
X129476337Y3584963D01*
X129238008Y3524615D01*
D10*
X129738008Y18024615D02*
X129738008Y4024615D01*
D11*
X129238008Y18524615D02*
X129497276Y18452229D01*
X129677660Y18262945D01*
X129738008Y18024615D01*
D10*
X120825008Y18524615D02*
X129238008Y18524615D01*
D11*
X120325008Y18024615D02*
X120397394Y18283884D01*
X120586678Y18464268D01*
X120825008Y18524615D01*
D10*
X120325008Y16524998D02*
X120325008Y18024615D01*
X107800008Y16525018D02*
X120325008Y16524998D01*
D11*
X107300008Y16025018D02*
X107372394Y16284287D01*
X107561678Y16464671D01*
X107800008Y16525018D01*
D10*
X107300008Y3025018D02*
X107300008Y16025018D01*
D11*
X107800008Y2525018D02*
X107540739Y2597405D01*
X107360355Y2786689D01*
X107300008Y3025018D01*
D10*
X120800008Y2525018D02*
X107800008Y2525018D01*
D11*
X121300008Y3025018D02*
X121227621Y2765750D01*
X121038337Y2585366D01*
X120800008Y2525018D01*
D10*
X121300008Y3524616D02*
X121300008Y3025018D01*
X154925003Y3524608D02*
X149874993Y3524608D01*
X154925003Y3025018D02*
X154925003Y3524608D01*
D11*
X155425003Y2525018D02*
X155165734Y2597405D01*
X154985350Y2786689D01*
X154925003Y3025018D01*
D10*
X168425003Y2525018D02*
X155425003Y2525018D01*
D11*
X168925003Y3025018D02*
X168852616Y2765750D01*
X168663332Y2585366D01*
X168425003Y2525018D01*
D10*
X168925003Y16025018D02*
X168925003Y3025018D01*
D11*
X168425003Y16525018D02*
X168684271Y16452632D01*
X168864655Y16263348D01*
X168925003Y16025018D01*
D10*
X165424988Y16525019D02*
X168425003Y16525018D01*
X165424988Y18024610D02*
X165424988Y16525019D01*
D11*
X164924988Y18524610D02*
X165184256Y18452224D01*
X165364640Y18262940D01*
X165424988Y18024610D01*
D10*
X158924988Y18524610D02*
X164924988Y18524610D01*
D11*
X158424988Y18024610D02*
X158497374Y18283879D01*
X158686658Y18464263D01*
X158924988Y18524610D01*
D10*
X158424988Y16525019D02*
X158424988Y18024610D01*
X155899998Y16525019D02*
X158424988Y16525019D01*
X155899998Y18024610D02*
X155899998Y16525019D01*
D11*
X155399998Y18524610D02*
X155659266Y18452224D01*
X155839650Y18262940D01*
X155899998Y18024610D01*
D10*
X149399998Y18524610D02*
X155399998Y18524610D01*
D11*
X148899998Y18024610D02*
X148972384Y18283879D01*
X149161668Y18464263D01*
X149399998Y18524610D01*
D10*
X148899998Y16525019D02*
X148899998Y18024610D01*
X146374993Y16525019D02*
X148899998Y16525019D01*
X146374993Y18024610D02*
X146374993Y16525019D01*
D11*
X145874993Y18524610D02*
X146134261Y18452224D01*
X146314645Y18262940D01*
X146374993Y18024610D01*
D10*
X139874993Y18524610D02*
X145874993Y18524610D01*
D11*
X139374993Y18024610D02*
X139447379Y18283879D01*
X139636663Y18464263D01*
X139874993Y18524610D01*
D10*
X139374993Y16525019D02*
X139374993Y18024610D01*
X136374993Y16525018D02*
X139374993Y16525019D01*
D11*
X135874993Y16025018D02*
X135947379Y16284287D01*
X136136663Y16464671D01*
X136374993Y16525018D01*
D10*
X135874993Y3025018D02*
X135874993Y16025018D01*
D11*
X136374993Y2525018D02*
X136115724Y2597405D01*
X135935340Y2786689D01*
X135874993Y3025018D01*
D10*
X149374993Y2525018D02*
X136374993Y2525018D01*
D11*
X149874993Y3025018D02*
X149802606Y2765750D01*
X149613322Y2585366D01*
X149374993Y2525018D01*
D10*
X149874993Y3524608D02*
X149874993Y3025018D01*
X61261993Y3524615D02*
X69199993Y3524616D01*
D11*
X60761993Y4024615D02*
X60834379Y3765347D01*
X61023663Y3584963D01*
X61261993Y3524615D01*
D10*
X60761993Y18024615D02*
X60761993Y4024615D01*
D11*
X61261993Y18524615D02*
X61002724Y18452229D01*
X60822340Y18262945D01*
X60761993Y18024615D01*
D10*
X69674993Y18524615D02*
X61261993Y18524615D01*
D11*
X70174993Y18024615D02*
X70102606Y18283884D01*
X69913322Y18464268D01*
X69674993Y18524615D01*
D10*
X70174993Y16524998D02*
X70174993Y18024615D01*
X82699993Y16525018D02*
X70174993Y16524998D01*
D11*
X83199993Y16025018D02*
X83127606Y16284287D01*
X82938322Y16464671D01*
X82699993Y16525018D01*
D10*
X83199993Y3025018D02*
X83199993Y16025018D01*
D11*
X82699993Y2525018D02*
X82959261Y2597405D01*
X83139645Y2786689D01*
X83199993Y3025018D01*
D10*
X69699993Y2525018D02*
X82699993Y2525018D01*
D11*
X69199993Y3025018D02*
X69272379Y2765750D01*
X69461663Y2585366D01*
X69699993Y2525018D01*
D10*
X69199993Y3524616D02*
X69199993Y3025018D01*
D11*
X187975013Y60175003D02*
X187902626Y59915735D01*
X187713342Y59735351D01*
X187475013Y59675003D01*
D10*
X187975013Y73175003D02*
X187975013Y60175003D01*
D11*
X187475013Y73675003D02*
X187734281Y73602617D01*
X187914665Y73413333D01*
X187975013Y73175003D01*
D10*
X174475013Y73675003D02*
X187475013Y73675003D01*
D11*
X173975013Y73175003D02*
X174047399Y73434272D01*
X174236683Y73614656D01*
X174475013Y73675003D01*
D10*
X173975013Y60175003D02*
X173975013Y73175003D01*
D11*
X174475013Y59675003D02*
X174215744Y59747390D01*
X174035360Y59936674D01*
X173975013Y60175003D01*
D10*
X187475013Y59675003D02*
X174475013Y59675003D01*
D11*
X130824993Y60175003D02*
X130752606Y59915735D01*
X130563322Y59735351D01*
X130324993Y59675003D01*
D10*
X130824993Y73175003D02*
X130824993Y60175003D01*
D11*
X130324993Y73675003D02*
X130584261Y73602617D01*
X130764645Y73413333D01*
X130824993Y73175003D01*
D10*
X117324993Y73675003D02*
X130324993Y73675003D01*
D11*
X116824993Y73175003D02*
X116897379Y73434272D01*
X117086663Y73614656D01*
X117324993Y73675003D01*
D10*
X116824993Y60175003D02*
X116824993Y73175003D01*
D11*
X117324993Y59675003D02*
X117065724Y59747390D01*
X116885340Y59936674D01*
X116824993Y60175003D01*
D10*
X130324993Y59675003D02*
X117324993Y59675003D01*
D11*
X149875003Y60175003D02*
X149802616Y59915735D01*
X149613332Y59735351D01*
X149375003Y59675003D01*
D10*
X149875003Y73175003D02*
X149875003Y60175003D01*
D11*
X149375003Y73675003D02*
X149634271Y73602617D01*
X149814655Y73413333D01*
X149875003Y73175003D01*
D10*
X136375003Y73675003D02*
X149375003Y73675003D01*
D11*
X135875003Y73175003D02*
X135947389Y73434272D01*
X136136673Y73614656D01*
X136375003Y73675003D01*
D10*
X135875003Y60175003D02*
X135875003Y73175003D01*
D11*
X136375003Y59675003D02*
X136115734Y59747390D01*
X135935350Y59936674D01*
X135875003Y60175003D01*
D10*
X149375003Y59675003D02*
X136375003Y59675003D01*
D11*
X168925013Y60175003D02*
X168852626Y59915735D01*
X168663342Y59735351D01*
X168425013Y59675003D01*
D10*
X168925013Y73175003D02*
X168925013Y60175003D01*
D11*
X168425013Y73675003D02*
X168684281Y73602617D01*
X168864665Y73413333D01*
X168925013Y73175003D01*
D10*
X155425013Y73675003D02*
X168425013Y73675003D01*
D11*
X154925013Y73175003D02*
X154997399Y73434272D01*
X155186683Y73614656D01*
X155425013Y73675003D01*
D10*
X154925013Y60175003D02*
X154925013Y73175003D01*
D11*
X155425013Y59675003D02*
X155165744Y59747390D01*
X154985360Y59936674D01*
X154925013Y60175003D01*
D10*
X168425013Y59675003D02*
X155425013Y59675003D01*
D11*
X73674998Y60175003D02*
X73602611Y59915735D01*
X73413327Y59735351D01*
X73174998Y59675003D01*
D10*
X73674998Y73175003D02*
X73674998Y60175003D01*
D11*
X73174998Y73675003D02*
X73434266Y73602617D01*
X73614650Y73413333D01*
X73674998Y73175003D01*
D10*
X60174998Y73675003D02*
X73174998Y73675003D01*
D11*
X59674998Y73175003D02*
X59747384Y73434272D01*
X59936668Y73614656D01*
X60174998Y73675003D01*
D10*
X59674998Y60175003D02*
X59674998Y73175003D01*
D11*
X60174998Y59675003D02*
X59915729Y59747390D01*
X59735345Y59936674D01*
X59674998Y60175003D01*
D10*
X73174998Y59675003D02*
X60174998Y59675003D01*
D11*
X92725008Y60175003D02*
X92652621Y59915735D01*
X92463337Y59735351D01*
X92225008Y59675003D01*
D10*
X92725008Y73175003D02*
X92725008Y60175003D01*
D11*
X92225008Y73675003D02*
X92484276Y73602617D01*
X92664660Y73413333D01*
X92725008Y73175003D01*
D10*
X79225008Y73675003D02*
X92225008Y73675003D01*
D11*
X78725008Y73175003D02*
X78797394Y73434272D01*
X78986678Y73614656D01*
X79225008Y73675003D01*
D10*
X78725008Y60175003D02*
X78725008Y73175003D01*
D11*
X79225008Y59675003D02*
X78965739Y59747390D01*
X78785355Y59936674D01*
X78725008Y60175003D01*
D10*
X92225008Y59675003D02*
X79225008Y59675003D01*
D11*
X111775018Y60175003D02*
X111702631Y59915735D01*
X111513347Y59735351D01*
X111275018Y59675003D01*
D10*
X111775018Y73175003D02*
X111775018Y60175003D01*
D11*
X111275018Y73675003D02*
X111534286Y73602617D01*
X111714670Y73413333D01*
X111775018Y73175003D01*
D10*
X98275018Y73675003D02*
X111275018Y73675003D01*
D11*
X97775018Y73175003D02*
X97847404Y73434272D01*
X98036688Y73614656D01*
X98275018Y73675003D01*
D10*
X97775018Y60175003D02*
X97775018Y73175003D01*
D11*
X98275018Y59675003D02*
X98015749Y59747390D01*
X97835365Y59936674D01*
X97775018Y60175003D01*
D10*
X111275018Y59675003D02*
X98275018Y59675003D01*
D11*
X16524993Y60175003D02*
X16452606Y59915735D01*
X16263322Y59735351D01*
X16024993Y59675003D01*
D10*
X16524993Y73175003D02*
X16524993Y60175003D01*
D11*
X16024993Y73675003D02*
X16284261Y73602617D01*
X16464645Y73413333D01*
X16524993Y73175003D01*
D10*
X3024993Y73675003D02*
X16024993Y73675003D01*
D11*
X2524993Y73175003D02*
X2597379Y73434272D01*
X2786663Y73614656D01*
X3024993Y73675003D01*
D10*
X2524993Y60175003D02*
X2524993Y73175003D01*
D11*
X3024993Y59675003D02*
X2765724Y59747390D01*
X2585340Y59936674D01*
X2524993Y60175003D01*
D10*
X16024993Y59675003D02*
X3024993Y59675003D01*
D11*
X35575003Y60175003D02*
X35502616Y59915735D01*
X35313332Y59735351D01*
X35075003Y59675003D01*
D10*
X35575003Y73175003D02*
X35575003Y60175003D01*
D11*
X35075003Y73675003D02*
X35334271Y73602617D01*
X35514655Y73413333D01*
X35575003Y73175003D01*
D10*
X22075003Y73675003D02*
X35075003Y73675003D01*
D11*
X21575003Y73175003D02*
X21647389Y73434272D01*
X21836673Y73614656D01*
X22075003Y73675003D01*
D10*
X21575003Y60175003D02*
X21575003Y73175003D01*
D11*
X22075003Y59675003D02*
X21815734Y59747390D01*
X21635350Y59936674D01*
X21575003Y60175003D01*
D10*
X35075003Y59675003D02*
X22075003Y59675003D01*
D11*
X54625013Y60175003D02*
X54552626Y59915735D01*
X54363342Y59735351D01*
X54125013Y59675003D01*
D10*
X54625013Y73175003D02*
X54625013Y60175003D01*
D11*
X54125013Y73675003D02*
X54384281Y73602617D01*
X54564665Y73413333D01*
X54625013Y73175003D01*
D10*
X41125013Y73675003D02*
X54125013Y73675003D01*
D11*
X40625013Y73175003D02*
X40697399Y73434272D01*
X40886683Y73614656D01*
X41125013Y73675003D01*
D10*
X40625013Y60175003D02*
X40625013Y73175003D01*
D11*
X41125013Y59675003D02*
X40865744Y59747390D01*
X40685360Y59936674D01*
X40625013Y60175003D01*
D10*
X54125013Y59675003D02*
X41125013Y59675003D01*
D11*
X187975003Y3024998D02*
X187902616Y2765730D01*
X187713332Y2585346D01*
X187475003Y2524998D01*
D10*
X187975003Y16024998D02*
X187975003Y3024998D01*
D11*
X187475003Y16524998D02*
X187734271Y16452612D01*
X187914655Y16263328D01*
X187975003Y16024998D01*
D10*
X174475003Y16524998D02*
X187475003Y16524998D01*
D11*
X173975003Y16024998D02*
X174047389Y16284267D01*
X174236673Y16464651D01*
X174475003Y16524998D01*
D10*
X173975003Y3024998D02*
X173975003Y16024998D01*
D11*
X174475003Y2524998D02*
X174215734Y2597385D01*
X174035350Y2786669D01*
X173975003Y3024998D01*
D10*
X187475003Y2524998D02*
X174475003Y2524998D01*
D11*
X16524988Y3025018D02*
X16452601Y2765750D01*
X16263317Y2585366D01*
X16024988Y2525018D01*
D10*
X16524988Y16025018D02*
X16524988Y3025018D01*
D11*
X16024988Y16525018D02*
X16284256Y16452632D01*
X16464640Y16263348D01*
X16524988Y16025018D01*
D10*
X3024988Y16525018D02*
X16024988Y16525018D01*
D11*
X2524988Y16025018D02*
X2597374Y16284287D01*
X2786658Y16464671D01*
X3024988Y16525018D01*
D10*
X2524988Y3025018D02*
X2524988Y16025018D01*
D11*
X3024988Y2525018D02*
X2765719Y2597405D01*
X2585335Y2786689D01*
X2524988Y3025018D01*
D10*
X16024988Y2525018D02*
X3024988Y2525018D01*
X35574998Y3524608D02*
X40625008Y3524608D01*
X35574998Y3025018D02*
X35574998Y3524608D01*
D11*
X35074998Y2525018D02*
X35334266Y2597405D01*
X35514650Y2786689D01*
X35574998Y3025018D01*
D10*
X22074998Y2525018D02*
X35074998Y2525018D01*
D11*
X21574998Y3025018D02*
X21647384Y2765750D01*
X21836668Y2585366D01*
X22074998Y2525018D01*
D10*
X21574998Y16025018D02*
X21574998Y3025018D01*
D11*
X22074998Y16525018D02*
X21815729Y16452632D01*
X21635345Y16263348D01*
X21574998Y16025018D01*
D10*
X25075013Y16525019D02*
X22074998Y16525018D01*
X25075013Y18024610D02*
X25075013Y16525019D01*
D11*
X25575013Y18524610D02*
X25315744Y18452224D01*
X25135360Y18262940D01*
X25075013Y18024610D01*
D10*
X31575013Y18524610D02*
X25575013Y18524610D01*
D11*
X32075013Y18024610D02*
X32002626Y18283879D01*
X31813342Y18464263D01*
X31575013Y18524610D01*
D10*
X32075013Y16525019D02*
X32075013Y18024610D01*
X34600003Y16525019D02*
X32075013Y16525019D01*
X34600003Y18024610D02*
X34600003Y16525019D01*
D11*
X35100003Y18524610D02*
X34840734Y18452224D01*
X34660350Y18262940D01*
X34600003Y18024610D01*
D10*
X41100003Y18524610D02*
X35100003Y18524610D01*
D11*
X41600003Y18024610D02*
X41527616Y18283879D01*
X41338332Y18464263D01*
X41100003Y18524610D01*
D10*
X41600003Y16525019D02*
X41600003Y18024610D01*
X44125008Y16525019D02*
X41600003Y16525019D01*
X44125008Y18024610D02*
X44125008Y16525019D01*
D11*
X44625008Y18524610D02*
X44365739Y18452224D01*
X44185355Y18262940D01*
X44125008Y18024610D01*
D10*
X50625008Y18524610D02*
X44625008Y18524610D01*
D11*
X51125008Y18024610D02*
X51052621Y18283879D01*
X50863337Y18464263D01*
X50625008Y18524610D01*
D10*
X51125008Y16525019D02*
X51125008Y18024610D01*
X54125008Y16525018D02*
X51125008Y16525019D01*
D11*
X54625008Y16025018D02*
X54552621Y16284287D01*
X54363337Y16464671D01*
X54125008Y16525018D01*
D10*
X54625008Y3025018D02*
X54625008Y16025018D01*
D11*
X54125008Y2525018D02*
X54384276Y2597405D01*
X54564660Y2786689D01*
X54625008Y3025018D01*
D10*
X41125008Y2525018D02*
X54125008Y2525018D01*
D11*
X40625008Y3025018D02*
X40697394Y2765750D01*
X40886678Y2585366D01*
X41125008Y2525018D01*
D10*
X40625008Y3524608D02*
X40625008Y3025018D01*
X102250008Y3524616D02*
X105362003Y3524615D01*
X102250008Y3025018D02*
X102250008Y3524616D01*
D11*
X101750008Y2525018D02*
X102009276Y2597405D01*
X102189660Y2786689D01*
X102250008Y3025018D01*
D10*
X88750008Y2525018D02*
X101750008Y2525018D01*
D11*
X88250008Y3025018D02*
X88322394Y2765750D01*
X88511678Y2585366D01*
X88750008Y2525018D01*
D10*
X88250008Y3524616D02*
X88250008Y3025018D01*
X85138003Y3524615D02*
X88250008Y3524616D01*
D11*
X84638003Y4024615D02*
X84710389Y3765347D01*
X84899673Y3584963D01*
X85138003Y3524615D01*
D10*
X84638003Y18024615D02*
X84638003Y4024615D01*
D11*
X85138003Y18524615D02*
X84878734Y18452229D01*
X84698350Y18262945D01*
X84638003Y18024615D01*
D10*
X91138003Y18524615D02*
X85138003Y18524615D01*
D11*
X91638003Y18024615D02*
X91565616Y18283884D01*
X91376332Y18464268D01*
X91138003Y18524615D01*
D10*
X91638003Y16525021D02*
X91638003Y18024615D01*
X98862003Y16525021D02*
X91638003Y16525021D01*
X98862003Y18024615D02*
X98862003Y16525021D01*
D11*
X99362003Y18524615D02*
X99102734Y18452229D01*
X98922350Y18262945D01*
X98862003Y18024615D01*
D10*
X105362003Y18524615D02*
X99362003Y18524615D01*
D11*
X105862003Y18024615D02*
X105789616Y18283884D01*
X105600332Y18464268D01*
X105362003Y18524615D01*
D10*
X105862003Y4024615D02*
X105862003Y18024615D01*
D11*
X105362003Y3524615D02*
X105621271Y3597002D01*
X105801655Y3786286D01*
X105862003Y4024615D01*
X185593481Y22075013D02*
X185521094Y21815745D01*
X185331810Y21635361D01*
X185093481Y21575013D01*
D10*
X185593481Y35075013D02*
X185593481Y22075013D01*
D11*
X185093481Y35575013D02*
X185352749Y35502627D01*
X185533133Y35313343D01*
X185593481Y35075013D01*
D10*
X169712481Y35575013D02*
X185093481Y35575013D01*
D11*
X169212481Y35075013D02*
X169284867Y35334282D01*
X169474151Y35514666D01*
X169712481Y35575013D01*
D10*
X169212481Y22075013D02*
X169212481Y35075013D01*
D11*
X169712481Y21575013D02*
X169453212Y21647400D01*
X169272828Y21836684D01*
X169212481Y22075013D01*
D10*
X185093481Y21575013D02*
X169712481Y21575013D01*
D11*
X23655578Y22075021D02*
X23583191Y21815753D01*
X23393907Y21635369D01*
X23155578Y21575021D01*
D10*
X23655578Y35075021D02*
X23655578Y22075021D01*
D11*
X23155578Y35575021D02*
X23414846Y35502635D01*
X23595230Y35313351D01*
X23655578Y35075021D01*
D10*
X7774578Y35575021D02*
X23155578Y35575021D01*
D11*
X7274578Y35075021D02*
X7346964Y35334290D01*
X7536248Y35514674D01*
X7774578Y35575021D01*
D10*
X7274578Y22075021D02*
X7274578Y35075021D01*
D11*
X7774578Y21575021D02*
X7515309Y21647408D01*
X7334925Y21836692D01*
X7274578Y22075021D01*
D10*
X23155578Y21575021D02*
X7774578Y21575021D01*
D11*
X18906003Y41125008D02*
X18833616Y40865740D01*
X18644332Y40685356D01*
X18406003Y40625008D01*
D10*
X18906003Y54125008D02*
X18906003Y41125008D01*
D11*
X18406003Y54625008D02*
X18665271Y54552622D01*
X18845655Y54363338D01*
X18906003Y54125008D01*
D10*
X3025003Y54625008D02*
X18406003Y54625008D01*
D11*
X2525003Y54125008D02*
X2597389Y54384277D01*
X2786673Y54564661D01*
X3025003Y54625008D01*
D10*
X2525003Y41125008D02*
X2525003Y54125008D01*
D11*
X3025003Y40625008D02*
X2765734Y40697395D01*
X2585350Y40886679D01*
X2525003Y41125008D01*
D10*
X18406003Y40625008D02*
X3025003Y40625008D01*
D11*
X164162500Y22075001D02*
X164090113Y21815733D01*
X163900829Y21635349D01*
X163662500Y21575001D01*
D10*
X164162500Y35075001D02*
X164162500Y22075001D01*
D11*
X163662500Y35575001D02*
X163921768Y35502615D01*
X164102152Y35313331D01*
X164162500Y35075001D01*
D10*
X31599500Y35575001D02*
X163662500Y35575001D01*
D11*
X31099500Y35075001D02*
X31171886Y35334270D01*
X31361170Y35514654D01*
X31599500Y35575001D01*
D10*
X31099500Y22075001D02*
X31099500Y35075001D01*
D11*
X31599500Y21575001D02*
X31340231Y21647388D01*
X31159847Y21836672D01*
X31099500Y22075001D01*
D10*
X163662500Y21575001D02*
X31599500Y21575001D01*
D11*
X187974993Y41125008D02*
X187902606Y40865740D01*
X187713322Y40685356D01*
X187474993Y40625008D01*
D10*
X187974993Y54125008D02*
X187974993Y41125008D01*
D11*
X187474993Y54625008D02*
X187734261Y54552622D01*
X187914645Y54363338D01*
X187974993Y54125008D01*
D10*
X22074993Y54625008D02*
X187474993Y54625008D01*
D11*
X21574993Y54125008D02*
X21647379Y54384277D01*
X21836663Y54564661D01*
X22074993Y54625008D01*
D10*
X21574993Y41125008D02*
X21574993Y54125008D01*
D11*
X22074993Y40625008D02*
X21815724Y40697395D01*
X21635340Y40886679D01*
X21574993Y41125008D01*
D10*
X187474993Y40625008D02*
X22074993Y40625008D01*
M02*
