%TF.GenerationSoftware,KiCad,Pcbnew,7.0.6*%
%TF.CreationDate,2023-10-29T00:27:15-04:00*%
%TF.ProjectId,dual-stagger-good-delivery-plate,6475616c-2d73-4746-9167-6765722d676f,rev?*%
%TF.SameCoordinates,PX3318a14PY7a102be*%
%TF.FileFunction,Drillmap*%
%TF.FilePolarity,Positive*%
%FSLAX45Y45*%
G04 Gerber Fmt 4.5, Leading zero omitted, Abs format (unit mm)*
G04 Created by KiCad (PCBNEW 7.0.6) date 2023-10-29 00:27:15*
%MOMM*%
%LPD*%
G01*
G04 APERTURE LIST*
%ADD10C,0.250000*%
%ADD11C,0.200000*%
G04 APERTURE END LIST*
D10*
X2015000Y7381875D02*
G75*
G03*
X2015000Y7381875I-110000J0D01*
G01*
X17255000Y7381875D02*
G75*
G03*
X17255000Y7381875I-110000J0D01*
G01*
X2015000Y238125D02*
G75*
G03*
X2015000Y238125I-110000J0D01*
G01*
X17255000Y238125D02*
G75*
G03*
X17255000Y238125I-110000J0D01*
G01*
X100000Y7620000D02*
X75008Y7616852D01*
X48146Y7605523D01*
X25978Y7587238D01*
X9861Y7563354D01*
X1152Y7535229D01*
X0Y7520000D01*
X18950000Y7620000D02*
X100000Y7620000D01*
X19050000Y7520000D02*
X19046852Y7544992D01*
X19035523Y7571854D01*
X19017238Y7594022D01*
X18993354Y7610139D01*
X18965229Y7618848D01*
X18950000Y7620000D01*
X19050000Y100000D02*
X19050000Y7520000D01*
X18950000Y0D02*
X18974992Y3148D01*
X19001854Y14477D01*
X19024022Y32762D01*
X19040139Y56646D01*
X19048848Y84771D01*
X19050000Y100000D01*
X158750Y0D02*
X18950000Y0D01*
X100000Y0D02*
X158750Y0D01*
X0Y100000D02*
X3148Y75009D01*
X14477Y48146D01*
X32762Y25978D01*
X56646Y9861D01*
X84771Y1152D01*
X100000Y0D01*
X0Y7520000D02*
X0Y100000D01*
X12923801Y352461D02*
X12130001Y352462D01*
X12973801Y402461D02*
X12966562Y376535D01*
X12947634Y358496D01*
X12923801Y352461D01*
X12973801Y1802461D02*
X12973801Y402461D01*
X12923801Y1852461D02*
X12949728Y1845223D01*
X12967766Y1826294D01*
X12973801Y1802461D01*
X12082501Y1852461D02*
X12923801Y1852461D01*
X12032501Y1802461D02*
X12039739Y1828388D01*
X12058668Y1846427D01*
X12082501Y1852461D01*
X12032501Y1652500D02*
X12032501Y1802461D01*
X10780001Y1652502D02*
X12032501Y1652500D01*
X10730001Y1602502D02*
X10737239Y1628429D01*
X10756168Y1646467D01*
X10780001Y1652502D01*
X10730001Y302502D02*
X10730001Y1602502D01*
X10780001Y252502D02*
X10754074Y259740D01*
X10736036Y278669D01*
X10730001Y302502D01*
X12080001Y252502D02*
X10780001Y252502D01*
X12130001Y302502D02*
X12122762Y276575D01*
X12103834Y258537D01*
X12080001Y252502D01*
X12130001Y352462D02*
X12130001Y302502D01*
X15492500Y352461D02*
X14987499Y352461D01*
X15492500Y302502D02*
X15492500Y352461D01*
X15542500Y252502D02*
X15516573Y259740D01*
X15498535Y278669D01*
X15492500Y302502D01*
X16842500Y252502D02*
X15542500Y252502D01*
X16892500Y302502D02*
X16885262Y276575D01*
X16866333Y258537D01*
X16842500Y252502D01*
X16892500Y1602502D02*
X16892500Y302502D01*
X16842500Y1652502D02*
X16868427Y1645263D01*
X16886466Y1626335D01*
X16892500Y1602502D01*
X16542499Y1652502D02*
X16842500Y1652502D01*
X16542499Y1802461D02*
X16542499Y1652502D01*
X16492499Y1852461D02*
X16518426Y1845222D01*
X16536464Y1826294D01*
X16542499Y1802461D01*
X15892499Y1852461D02*
X16492499Y1852461D01*
X15842499Y1802461D02*
X15849737Y1828388D01*
X15868666Y1846426D01*
X15892499Y1852461D01*
X15842499Y1652502D02*
X15842499Y1802461D01*
X15590000Y1652502D02*
X15842499Y1652502D01*
X15590000Y1802461D02*
X15590000Y1652502D01*
X15540000Y1852461D02*
X15565927Y1845222D01*
X15583965Y1826294D01*
X15590000Y1802461D01*
X14940000Y1852461D02*
X15540000Y1852461D01*
X14890000Y1802461D02*
X14897238Y1828388D01*
X14916167Y1846426D01*
X14940000Y1852461D01*
X14890000Y1652502D02*
X14890000Y1802461D01*
X14637499Y1652502D02*
X14890000Y1652502D01*
X14637499Y1802461D02*
X14637499Y1652502D01*
X14587499Y1852461D02*
X14613426Y1845222D01*
X14631464Y1826294D01*
X14637499Y1802461D01*
X13987499Y1852461D02*
X14587499Y1852461D01*
X13937499Y1802461D02*
X13944738Y1828388D01*
X13963666Y1846426D01*
X13987499Y1852461D01*
X13937499Y1652502D02*
X13937499Y1802461D01*
X13637499Y1652502D02*
X13937499Y1652502D01*
X13587499Y1602502D02*
X13594738Y1628429D01*
X13613666Y1646467D01*
X13637499Y1652502D01*
X13587499Y302502D02*
X13587499Y1602502D01*
X13637499Y252502D02*
X13611572Y259740D01*
X13593534Y278669D01*
X13587499Y302502D01*
X14937499Y252502D02*
X13637499Y252502D01*
X14987499Y302502D02*
X14980261Y276575D01*
X14961332Y258537D01*
X14937499Y252502D01*
X14987499Y352461D02*
X14987499Y302502D01*
X6126199Y352461D02*
X6919999Y352462D01*
X6076199Y402461D02*
X6083438Y376535D01*
X6102366Y358496D01*
X6126199Y352461D01*
X6076199Y1802461D02*
X6076199Y402461D01*
X6126199Y1852461D02*
X6100272Y1845223D01*
X6082234Y1826294D01*
X6076199Y1802461D01*
X6967499Y1852461D02*
X6126199Y1852461D01*
X7017499Y1802461D02*
X7010261Y1828388D01*
X6991332Y1846427D01*
X6967499Y1852461D01*
X7017499Y1652500D02*
X7017499Y1802461D01*
X8269999Y1652502D02*
X7017499Y1652500D01*
X8319999Y1602502D02*
X8312761Y1628429D01*
X8293832Y1646467D01*
X8269999Y1652502D01*
X8319999Y302502D02*
X8319999Y1602502D01*
X8269999Y252502D02*
X8295926Y259740D01*
X8313964Y278669D01*
X8319999Y302502D01*
X6969999Y252502D02*
X8269999Y252502D01*
X6919999Y302502D02*
X6927238Y276575D01*
X6946166Y258537D01*
X6969999Y252502D01*
X6919999Y352462D02*
X6919999Y302502D01*
X18797501Y6017500D02*
X18790263Y5991573D01*
X18771334Y5973535D01*
X18747501Y5967500D01*
X18797501Y7317500D02*
X18797501Y6017500D01*
X18747501Y7367500D02*
X18773428Y7360262D01*
X18791467Y7341333D01*
X18797501Y7317500D01*
X17447501Y7367500D02*
X18747501Y7367500D01*
X17397501Y7317500D02*
X17404740Y7343427D01*
X17423668Y7361466D01*
X17447501Y7367500D01*
X17397501Y6017500D02*
X17397501Y7317500D01*
X17447501Y5967500D02*
X17421574Y5974739D01*
X17403536Y5993667D01*
X17397501Y6017500D01*
X18747501Y5967500D02*
X17447501Y5967500D01*
X13082499Y6017500D02*
X13075261Y5991573D01*
X13056332Y5973535D01*
X13032499Y5967500D01*
X13082499Y7317500D02*
X13082499Y6017500D01*
X13032499Y7367500D02*
X13058426Y7360262D01*
X13076464Y7341333D01*
X13082499Y7317500D01*
X11732499Y7367500D02*
X13032499Y7367500D01*
X11682499Y7317500D02*
X11689738Y7343427D01*
X11708666Y7361466D01*
X11732499Y7367500D01*
X11682499Y6017500D02*
X11682499Y7317500D01*
X11732499Y5967500D02*
X11706572Y5974739D01*
X11688534Y5993667D01*
X11682499Y6017500D01*
X13032499Y5967500D02*
X11732499Y5967500D01*
X14987500Y6017500D02*
X14980262Y5991573D01*
X14961333Y5973535D01*
X14937500Y5967500D01*
X14987500Y7317500D02*
X14987500Y6017500D01*
X14937500Y7367500D02*
X14963427Y7360262D01*
X14981465Y7341333D01*
X14987500Y7317500D01*
X13637500Y7367500D02*
X14937500Y7367500D01*
X13587500Y7317500D02*
X13594739Y7343427D01*
X13613667Y7361466D01*
X13637500Y7367500D01*
X13587500Y6017500D02*
X13587500Y7317500D01*
X13637500Y5967500D02*
X13611573Y5974739D01*
X13593535Y5993667D01*
X13587500Y6017500D01*
X14937500Y5967500D02*
X13637500Y5967500D01*
X16892501Y6017500D02*
X16885263Y5991573D01*
X16866334Y5973535D01*
X16842501Y5967500D01*
X16892501Y7317500D02*
X16892501Y6017500D01*
X16842501Y7367500D02*
X16868428Y7360262D01*
X16886467Y7341333D01*
X16892501Y7317500D01*
X15542501Y7367500D02*
X16842501Y7367500D01*
X15492501Y7317500D02*
X15499740Y7343427D01*
X15518668Y7361466D01*
X15542501Y7367500D01*
X15492501Y6017500D02*
X15492501Y7317500D01*
X15542501Y5967500D02*
X15516574Y5974739D01*
X15498536Y5993667D01*
X15492501Y6017500D01*
X16842501Y5967500D02*
X15542501Y5967500D01*
X7367500Y6017500D02*
X7360261Y5991573D01*
X7341333Y5973535D01*
X7317500Y5967500D01*
X7367500Y7317500D02*
X7367500Y6017500D01*
X7317500Y7367500D02*
X7343427Y7360262D01*
X7361465Y7341333D01*
X7367500Y7317500D01*
X6017500Y7367500D02*
X7317500Y7367500D01*
X5967500Y7317500D02*
X5974738Y7343427D01*
X5993667Y7361466D01*
X6017500Y7367500D01*
X5967500Y6017500D02*
X5967500Y7317500D01*
X6017500Y5967500D02*
X5991573Y5974739D01*
X5973534Y5993667D01*
X5967500Y6017500D01*
X7317500Y5967500D02*
X6017500Y5967500D01*
X9272501Y6017500D02*
X9265262Y5991573D01*
X9246334Y5973535D01*
X9222501Y5967500D01*
X9272501Y7317500D02*
X9272501Y6017500D01*
X9222501Y7367500D02*
X9248428Y7360262D01*
X9266466Y7341333D01*
X9272501Y7317500D01*
X7922501Y7367500D02*
X9222501Y7367500D01*
X7872501Y7317500D02*
X7879739Y7343427D01*
X7898668Y7361466D01*
X7922501Y7367500D01*
X7872501Y6017500D02*
X7872501Y7317500D01*
X7922501Y5967500D02*
X7896574Y5974739D01*
X7878535Y5993667D01*
X7872501Y6017500D01*
X9222501Y5967500D02*
X7922501Y5967500D01*
X11177502Y6017500D02*
X11170263Y5991573D01*
X11151335Y5973535D01*
X11127502Y5967500D01*
X11177502Y7317500D02*
X11177502Y6017500D01*
X11127502Y7367500D02*
X11153429Y7360262D01*
X11171467Y7341333D01*
X11177502Y7317500D01*
X9827502Y7367500D02*
X11127502Y7367500D01*
X9777502Y7317500D02*
X9784740Y7343427D01*
X9803669Y7361466D01*
X9827502Y7367500D01*
X9777502Y6017500D02*
X9777502Y7317500D01*
X9827502Y5967500D02*
X9801575Y5974739D01*
X9783537Y5993667D01*
X9777502Y6017500D01*
X11127502Y5967500D02*
X9827502Y5967500D01*
X1652499Y6017500D02*
X1645261Y5991573D01*
X1626332Y5973535D01*
X1602499Y5967500D01*
X1652499Y7317500D02*
X1652499Y6017500D01*
X1602499Y7367500D02*
X1628426Y7360262D01*
X1646464Y7341333D01*
X1652499Y7317500D01*
X302499Y7367500D02*
X1602499Y7367500D01*
X252499Y7317500D02*
X259738Y7343427D01*
X278666Y7361466D01*
X302499Y7367500D01*
X252499Y6017500D02*
X252499Y7317500D01*
X302499Y5967500D02*
X276572Y5974739D01*
X258534Y5993667D01*
X252499Y6017500D01*
X1602499Y5967500D02*
X302499Y5967500D01*
X3557500Y6017500D02*
X3550262Y5991573D01*
X3531333Y5973535D01*
X3507500Y5967500D01*
X3557500Y7317500D02*
X3557500Y6017500D01*
X3507500Y7367500D02*
X3533427Y7360262D01*
X3551465Y7341333D01*
X3557500Y7317500D01*
X2207500Y7367500D02*
X3507500Y7367500D01*
X2157500Y7317500D02*
X2164739Y7343427D01*
X2183667Y7361466D01*
X2207500Y7367500D01*
X2157500Y6017500D02*
X2157500Y7317500D01*
X2207500Y5967500D02*
X2181573Y5974739D01*
X2163535Y5993667D01*
X2157500Y6017500D01*
X3507500Y5967500D02*
X2207500Y5967500D01*
X5462501Y6017500D02*
X5455263Y5991573D01*
X5436334Y5973535D01*
X5412501Y5967500D01*
X5462501Y7317500D02*
X5462501Y6017500D01*
X5412501Y7367500D02*
X5438428Y7360262D01*
X5456467Y7341333D01*
X5462501Y7317500D01*
X4112501Y7367500D02*
X5412501Y7367500D01*
X4062501Y7317500D02*
X4069740Y7343427D01*
X4088668Y7361466D01*
X4112501Y7367500D01*
X4062501Y6017500D02*
X4062501Y7317500D01*
X4112501Y5967500D02*
X4086574Y5974739D01*
X4068536Y5993667D01*
X4062501Y6017500D01*
X5412501Y5967500D02*
X4112501Y5967500D01*
X18797500Y302500D02*
X18790262Y276573D01*
X18771333Y258535D01*
X18747500Y252500D01*
X18797500Y1602500D02*
X18797500Y302500D01*
X18747500Y1652500D02*
X18773427Y1645261D01*
X18791466Y1626333D01*
X18797500Y1602500D01*
X17447500Y1652500D02*
X18747500Y1652500D01*
X17397500Y1602500D02*
X17404739Y1628427D01*
X17423667Y1646465D01*
X17447500Y1652500D01*
X17397500Y302500D02*
X17397500Y1602500D01*
X17447500Y252500D02*
X17421573Y259738D01*
X17403535Y278667D01*
X17397500Y302500D01*
X18747500Y252500D02*
X17447500Y252500D01*
X1652499Y302502D02*
X1645260Y276575D01*
X1626332Y258537D01*
X1602499Y252502D01*
X1652499Y1602502D02*
X1652499Y302502D01*
X1602499Y1652502D02*
X1628426Y1645263D01*
X1646464Y1626335D01*
X1652499Y1602502D01*
X302499Y1652502D02*
X1602499Y1652502D01*
X252499Y1602502D02*
X259737Y1628429D01*
X278666Y1646467D01*
X302499Y1652502D01*
X252499Y302502D02*
X252499Y1602502D01*
X302499Y252502D02*
X276572Y259740D01*
X258533Y278669D01*
X252499Y302502D01*
X1602499Y252502D02*
X302499Y252502D01*
X3557500Y352461D02*
X4062501Y352461D01*
X3557500Y302502D02*
X3557500Y352461D01*
X3507500Y252502D02*
X3533427Y259740D01*
X3551465Y278669D01*
X3557500Y302502D01*
X2207500Y252502D02*
X3507500Y252502D01*
X2157500Y302502D02*
X2164738Y276575D01*
X2183667Y258537D01*
X2207500Y252502D01*
X2157500Y1602502D02*
X2157500Y302502D01*
X2207500Y1652502D02*
X2181573Y1645263D01*
X2163535Y1626335D01*
X2157500Y1602502D01*
X2507501Y1652502D02*
X2207500Y1652502D01*
X2507501Y1802461D02*
X2507501Y1652502D01*
X2557501Y1852461D02*
X2531574Y1845222D01*
X2513536Y1826294D01*
X2507501Y1802461D01*
X3157501Y1852461D02*
X2557501Y1852461D01*
X3207501Y1802461D02*
X3200263Y1828388D01*
X3181334Y1846426D01*
X3157501Y1852461D01*
X3207501Y1652502D02*
X3207501Y1802461D01*
X3460000Y1652502D02*
X3207501Y1652502D01*
X3460000Y1802461D02*
X3460000Y1652502D01*
X3510000Y1852461D02*
X3484073Y1845222D01*
X3466035Y1826294D01*
X3460000Y1802461D01*
X4110000Y1852461D02*
X3510000Y1852461D01*
X4160000Y1802461D02*
X4152762Y1828388D01*
X4133833Y1846426D01*
X4110000Y1852461D01*
X4160000Y1652502D02*
X4160000Y1802461D01*
X4412501Y1652502D02*
X4160000Y1652502D01*
X4412501Y1802461D02*
X4412501Y1652502D01*
X4462501Y1852461D02*
X4436574Y1845222D01*
X4418536Y1826294D01*
X4412501Y1802461D01*
X5062501Y1852461D02*
X4462501Y1852461D01*
X5112501Y1802461D02*
X5105262Y1828388D01*
X5086334Y1846426D01*
X5062501Y1852461D01*
X5112501Y1652502D02*
X5112501Y1802461D01*
X5412501Y1652502D02*
X5112501Y1652502D01*
X5462501Y1602502D02*
X5455262Y1628429D01*
X5436334Y1646467D01*
X5412501Y1652502D01*
X5462501Y302502D02*
X5462501Y1602502D01*
X5412501Y252502D02*
X5438428Y259740D01*
X5456466Y278669D01*
X5462501Y302502D01*
X4112501Y252502D02*
X5412501Y252502D01*
X4062501Y302502D02*
X4069739Y276575D01*
X4088668Y258537D01*
X4112501Y252502D01*
X4062501Y352461D02*
X4062501Y302502D01*
X10225001Y352462D02*
X10536200Y352461D01*
X10225001Y302502D02*
X10225001Y352462D01*
X10175001Y252502D02*
X10200928Y259740D01*
X10218966Y278669D01*
X10225001Y302502D01*
X8875001Y252502D02*
X10175001Y252502D01*
X8825001Y302502D02*
X8832239Y276575D01*
X8851168Y258537D01*
X8875001Y252502D01*
X8825001Y352462D02*
X8825001Y302502D01*
X8513800Y352461D02*
X8825001Y352462D01*
X8463800Y402461D02*
X8471039Y376535D01*
X8489967Y358496D01*
X8513800Y352461D01*
X8463800Y1802461D02*
X8463800Y402461D01*
X8513800Y1852461D02*
X8487873Y1845223D01*
X8469835Y1826294D01*
X8463800Y1802461D01*
X9113800Y1852461D02*
X8513800Y1852461D01*
X9163800Y1802461D02*
X9156562Y1828388D01*
X9137633Y1846427D01*
X9113800Y1852461D01*
X9163800Y1652502D02*
X9163800Y1802461D01*
X9886200Y1652502D02*
X9163800Y1652502D01*
X9886200Y1802461D02*
X9886200Y1652502D01*
X9936200Y1852461D02*
X9910273Y1845223D01*
X9892235Y1826294D01*
X9886200Y1802461D01*
X10536200Y1852461D02*
X9936200Y1852461D01*
X10586200Y1802461D02*
X10578962Y1828388D01*
X10560033Y1846427D01*
X10536200Y1852461D01*
X10586200Y402461D02*
X10586200Y1802461D01*
X10536200Y352461D02*
X10562127Y359700D01*
X10580166Y378629D01*
X10586200Y402461D01*
X18559348Y2207501D02*
X18552109Y2181575D01*
X18533181Y2163536D01*
X18509348Y2157501D01*
X18559348Y3507501D02*
X18559348Y2207501D01*
X18509348Y3557501D02*
X18535275Y3550263D01*
X18553313Y3531334D01*
X18559348Y3507501D01*
X16971248Y3557501D02*
X18509348Y3557501D01*
X16921248Y3507501D02*
X16928487Y3533428D01*
X16947415Y3551467D01*
X16971248Y3557501D01*
X16921248Y2207501D02*
X16921248Y3507501D01*
X16971248Y2157501D02*
X16945321Y2164740D01*
X16927283Y2183668D01*
X16921248Y2207501D01*
X18509348Y2157501D02*
X16971248Y2157501D01*
X2365558Y2207502D02*
X2358319Y2181575D01*
X2339391Y2163537D01*
X2315558Y2157502D01*
X2365558Y3507502D02*
X2365558Y2207502D01*
X2315558Y3557502D02*
X2341485Y3550263D01*
X2359523Y3531335D01*
X2365558Y3507502D01*
X777458Y3557502D02*
X2315558Y3557502D01*
X727458Y3507502D02*
X734696Y3533429D01*
X753625Y3551467D01*
X777458Y3557502D01*
X727458Y2207502D02*
X727458Y3507502D01*
X777458Y2157502D02*
X751531Y2164741D01*
X733492Y2183669D01*
X727458Y2207502D01*
X2315558Y2157502D02*
X777458Y2157502D01*
X1890600Y4112501D02*
X1883362Y4086574D01*
X1864433Y4068536D01*
X1840600Y4062501D01*
X1890600Y5412501D02*
X1890600Y4112501D01*
X1840600Y5462501D02*
X1866527Y5455262D01*
X1884565Y5436334D01*
X1890600Y5412501D01*
X302500Y5462501D02*
X1840600Y5462501D01*
X252500Y5412501D02*
X259739Y5438428D01*
X278667Y5456466D01*
X302500Y5462501D01*
X252500Y4112501D02*
X252500Y5412501D01*
X302500Y4062501D02*
X276573Y4069739D01*
X258535Y4088668D01*
X252500Y4112501D01*
X1840600Y4062501D02*
X302500Y4062501D01*
X16416250Y2207500D02*
X16409011Y2181573D01*
X16390083Y2163535D01*
X16366250Y2157500D01*
X16416250Y3507500D02*
X16416250Y2207500D01*
X16366250Y3557500D02*
X16392177Y3550261D01*
X16410215Y3531333D01*
X16416250Y3507500D01*
X3159950Y3557500D02*
X16366250Y3557500D01*
X3109950Y3507500D02*
X3117189Y3533427D01*
X3136117Y3551465D01*
X3159950Y3557500D01*
X3109950Y2207500D02*
X3109950Y3507500D01*
X3159950Y2157500D02*
X3134023Y2164739D01*
X3115985Y2183667D01*
X3109950Y2207500D01*
X16366250Y2157500D02*
X3159950Y2157500D01*
X18797499Y4112501D02*
X18790261Y4086574D01*
X18771332Y4068536D01*
X18747499Y4062501D01*
X18797499Y5412501D02*
X18797499Y4112501D01*
X18747499Y5462501D02*
X18773426Y5455262D01*
X18791465Y5436334D01*
X18797499Y5412501D01*
X2207499Y5462501D02*
X18747499Y5462501D01*
X2157499Y5412501D02*
X2164738Y5438428D01*
X2183666Y5456466D01*
X2207499Y5462501D01*
X2157499Y4112501D02*
X2157499Y5412501D01*
X2207499Y4062501D02*
X2181572Y4069739D01*
X2163534Y4088668D01*
X2157499Y4112501D01*
X18747499Y4062501D02*
X2207499Y4062501D01*
D11*
X248277Y-323984D02*
X248277Y-123984D01*
X248277Y-123984D02*
X295896Y-123984D01*
X295896Y-123984D02*
X324467Y-133508D01*
X324467Y-133508D02*
X343515Y-152555D01*
X343515Y-152555D02*
X353039Y-171603D01*
X353039Y-171603D02*
X362562Y-209698D01*
X362562Y-209698D02*
X362562Y-238269D01*
X362562Y-238269D02*
X353039Y-276365D01*
X353039Y-276365D02*
X343515Y-295412D01*
X343515Y-295412D02*
X324467Y-314460D01*
X324467Y-314460D02*
X295896Y-323984D01*
X295896Y-323984D02*
X248277Y-323984D01*
X448277Y-323984D02*
X448277Y-190650D01*
X448277Y-228746D02*
X457801Y-209698D01*
X457801Y-209698D02*
X467324Y-200174D01*
X467324Y-200174D02*
X486372Y-190650D01*
X486372Y-190650D02*
X505420Y-190650D01*
X572086Y-323984D02*
X572086Y-190650D01*
X572086Y-123984D02*
X562563Y-133508D01*
X562563Y-133508D02*
X572086Y-143031D01*
X572086Y-143031D02*
X581610Y-133508D01*
X581610Y-133508D02*
X572086Y-123984D01*
X572086Y-123984D02*
X572086Y-143031D01*
X695896Y-323984D02*
X676848Y-314460D01*
X676848Y-314460D02*
X667324Y-295412D01*
X667324Y-295412D02*
X667324Y-123984D01*
X800658Y-323984D02*
X781610Y-314460D01*
X781610Y-314460D02*
X772086Y-295412D01*
X772086Y-295412D02*
X772086Y-123984D01*
X1029229Y-323984D02*
X1029229Y-123984D01*
X1029229Y-123984D02*
X1095896Y-266841D01*
X1095896Y-266841D02*
X1162563Y-123984D01*
X1162563Y-123984D02*
X1162563Y-323984D01*
X1343515Y-323984D02*
X1343515Y-219222D01*
X1343515Y-219222D02*
X1333991Y-200174D01*
X1333991Y-200174D02*
X1314944Y-190650D01*
X1314944Y-190650D02*
X1276848Y-190650D01*
X1276848Y-190650D02*
X1257801Y-200174D01*
X1343515Y-314460D02*
X1324467Y-323984D01*
X1324467Y-323984D02*
X1276848Y-323984D01*
X1276848Y-323984D02*
X1257801Y-314460D01*
X1257801Y-314460D02*
X1248277Y-295412D01*
X1248277Y-295412D02*
X1248277Y-276365D01*
X1248277Y-276365D02*
X1257801Y-257317D01*
X1257801Y-257317D02*
X1276848Y-247793D01*
X1276848Y-247793D02*
X1324467Y-247793D01*
X1324467Y-247793D02*
X1343515Y-238269D01*
X1438753Y-190650D02*
X1438753Y-390650D01*
X1438753Y-200174D02*
X1457801Y-190650D01*
X1457801Y-190650D02*
X1495896Y-190650D01*
X1495896Y-190650D02*
X1514943Y-200174D01*
X1514943Y-200174D02*
X1524467Y-209698D01*
X1524467Y-209698D02*
X1533991Y-228746D01*
X1533991Y-228746D02*
X1533991Y-285889D01*
X1533991Y-285889D02*
X1524467Y-304936D01*
X1524467Y-304936D02*
X1514943Y-314460D01*
X1514943Y-314460D02*
X1495896Y-323984D01*
X1495896Y-323984D02*
X1457801Y-323984D01*
X1457801Y-323984D02*
X1438753Y-314460D01*
X1619705Y-304936D02*
X1629229Y-314460D01*
X1629229Y-314460D02*
X1619705Y-323984D01*
X1619705Y-323984D02*
X1610182Y-314460D01*
X1610182Y-314460D02*
X1619705Y-304936D01*
X1619705Y-304936D02*
X1619705Y-323984D01*
X1619705Y-200174D02*
X1629229Y-209698D01*
X1629229Y-209698D02*
X1619705Y-219222D01*
X1619705Y-219222D02*
X1610182Y-209698D01*
X1610182Y-209698D02*
X1619705Y-200174D01*
X1619705Y-200174D02*
X1619705Y-219222D01*
M02*
