M48
; DRILL file {KiCad 7.0.6} date Tue Aug  1 10:10:27 2023
; FORMAT={-:-/ absolute / metric / decimal}
; #@! TF.CreationDate,2023-08-01T10:10:27-04:00
; #@! TF.GenerationSoftware,Kicad,Pcbnew,7.0.6
; #@! TF.FileFunction,NonPlated,1,2,NPTH
FMAT,2
METRIC
; #@! TA.AperFunction,NonPlated,NPTH,ComponentDrill
T1C0.650
; #@! TA.AperFunction,NonPlated,NPTH,ComponentDrill
T2C1.750
; #@! TA.AperFunction,NonPlated,NPTH,ComponentDrill
T3C3.000
; #@! TA.AperFunction,NonPlated,NPTH,ComponentDrill
T4C3.048
; #@! TA.AperFunction,NonPlated,NPTH,ComponentDrill
T5C3.988
%
G90
G05
T1
X92.36Y71.517
X98.14Y71.517
T2
X4.445Y66.675
X4.445Y9.525
X6.826Y47.625
X11.589Y28.575
X14.605Y66.675
X14.605Y9.525
X16.986Y47.625
X21.749Y28.575
X23.495Y66.675
X23.495Y9.525
X28.258Y47.625
X33.655Y66.675
X33.655Y9.525
X37.783Y28.575
X38.418Y47.625
X42.545Y66.675
X42.545Y9.525
X47.308Y47.625
X47.943Y28.575
X52.705Y66.675
X52.705Y9.525
X56.833Y28.575
X57.468Y47.625
X61.595Y66.675
X66.358Y47.625
X66.993Y28.575
X71.12Y9.525
X71.755Y66.675
X75.883Y28.575
X76.518Y47.625
X80.645Y66.675
X81.28Y9.525
X85.408Y47.625
X86.043Y28.575
X90.17Y9.525
X90.805Y66.675
X94.933Y28.575
X95.568Y47.625
X99.695Y66.675
X100.33Y9.525
X104.458Y47.625
X105.093Y28.575
X109.22Y9.525
X109.855Y66.675
X113.983Y28.575
X114.618Y47.625
X118.745Y66.675
X119.38Y9.525
X123.508Y47.625
X124.143Y28.575
X128.905Y66.675
X133.033Y28.575
X133.668Y47.625
X137.795Y66.675
X137.795Y9.525
X142.558Y47.625
X143.193Y28.575
X147.955Y66.675
X147.955Y9.525
X152.083Y28.575
X152.718Y47.625
X156.845Y66.675
X156.845Y9.525
X162.243Y28.575
X167.005Y66.675
X167.005Y9.525
X168.751Y47.625
X173.514Y28.575
X175.895Y66.675
X175.895Y9.525
X178.911Y47.625
X183.674Y28.575
X186.055Y66.675
X186.055Y9.525
T3
X5.715Y69.215
X5.715Y12.065
X8.096Y50.165
X12.065Y71.755
X12.065Y14.605
X12.859Y31.115
X14.446Y52.705
X19.209Y33.655
X24.765Y69.215
X24.765Y12.065
X29.528Y50.165
X31.115Y71.755
X31.115Y14.605
X35.878Y52.705
X39.053Y31.115
X43.815Y69.215
X43.815Y12.065
X45.403Y33.655
X48.578Y50.165
X50.165Y71.755
X50.165Y14.605
X54.928Y52.705
X58.103Y31.115
X62.865Y69.215
X64.453Y33.655
X67.628Y50.165
X69.215Y71.755
X72.39Y12.065
X73.978Y52.705
X77.153Y31.115
X78.74Y14.605
X83.185Y61.595
X83.503Y33.655
X86.678Y50.165
X89.535Y64.135
X91.44Y12.065
X93.028Y52.705
X96.203Y31.115
X97.79Y14.605
X102.235Y61.595
X102.553Y33.655
X105.728Y50.165
X108.585Y64.135
X110.49Y12.065
X112.078Y52.705
X115.253Y31.115
X116.84Y14.605
X120.015Y69.215
X121.603Y33.655
X124.778Y50.165
X126.365Y71.755
X131.128Y52.705
X134.303Y31.115
X139.065Y69.215
X139.065Y12.065
X140.653Y33.655
X143.828Y50.165
X145.415Y71.755
X145.415Y14.605
X150.178Y52.705
X153.353Y31.115
X158.115Y69.215
X158.115Y12.065
X159.703Y33.655
X164.465Y71.755
X164.465Y14.605
X170.021Y50.165
X174.784Y31.115
X176.371Y52.705
X177.165Y69.215
X177.165Y12.065
X181.134Y33.655
X183.515Y71.755
X183.515Y14.605
T4
X28.575Y2.54
X38.1Y2.54
X47.625Y2.54
X64.262Y2.54
X66.675Y2.54
X88.138Y2.54
X102.362Y2.54
X123.825Y2.54
X126.238Y2.54
X142.875Y2.54
X152.4Y2.54
X161.925Y2.54
T5
X9.525Y66.675
X9.525Y9.525
X11.906Y47.625
X16.669Y28.575
X28.575Y66.675
X28.575Y9.525
X28.575Y17.78
X33.338Y47.625
X38.1Y17.78
X42.863Y28.575
X47.625Y66.675
X47.625Y9.525
X47.625Y17.78
X52.388Y47.625
X61.913Y28.575
X64.262Y17.78
X66.675Y66.675
X66.675Y17.78
X71.438Y47.625
X76.2Y9.525
X80.963Y28.575
X85.725Y66.675
X88.138Y17.78
X90.488Y47.625
X95.25Y9.525
X100.013Y28.575
X102.362Y17.78
X104.775Y66.675
X109.538Y47.625
X114.3Y9.525
X119.063Y28.575
X123.825Y66.675
X123.825Y17.78
X126.238Y17.78
X128.588Y47.625
X138.113Y28.575
X142.875Y66.675
X142.875Y9.525
X142.875Y17.78
X147.638Y47.625
X152.4Y17.78
X157.163Y28.575
X161.925Y66.675
X161.925Y9.525
X161.925Y17.78
X173.831Y47.625
X178.594Y28.575
X180.975Y66.675
X180.975Y9.525
T0
M30
