M48
; DRILL file {KiCad 7.0.6} date Tue Aug  1 10:10:27 2023
; FORMAT={-:-/ absolute / metric / decimal}
; #@! TF.CreationDate,2023-08-01T10:10:27-04:00
; #@! TF.GenerationSoftware,Kicad,Pcbnew,7.0.6
; #@! TF.FileFunction,Plated,1,2,PTH
FMAT,2
METRIC
; #@! TA.AperFunction,Plated,PTH,ComponentDrill
T1C0.300
; #@! TA.AperFunction,Plated,PTH,ViaDrill
T2C0.350
; #@! TA.AperFunction,Plated,PTH,ViaDrill
T3C0.400
; #@! TA.AperFunction,Plated,PTH,ComponentDrill
T4C0.400
; #@! TA.AperFunction,Plated,PTH,ComponentDrill
T5C0.600
; #@! TA.AperFunction,Plated,PTH,ComponentDrill
T6C1.000
; #@! TA.AperFunction,Plated,PTH,ComponentDrill
T7C1.470
%
G90
G05
T1
X60.11Y9.227
X61.011Y10.129
X61.011Y8.326
X61.913Y11.03
X61.913Y9.227
X61.913Y7.424
X62.814Y10.129
X62.814Y8.326
X63.716Y9.227
T2
X64.294Y15.151
X65.336Y15.151
X66.378Y15.151
T3
X14.883Y35.719
X29.17Y31.254
X29.17Y25.003
X51.197Y1.786
X52.388Y1.786
X53.975Y3.87
X53.98Y0.893
X55.067Y8.334
X55.777Y16.073
X56.257Y2.381
X56.737Y14.883
X56.737Y13.692
X57.745Y19.645
X58.043Y3.87
X59.234Y13.692
X61.913Y13.99
X64.889Y5.655
X67.866Y9.823
X68.461Y5.358
X71.438Y26.194
X71.438Y25.003
X71.438Y22.622
X71.438Y21.431
X72.926Y9.525
X72.926Y8.334
X73.521Y21.431
X73.521Y20.538
X76.2Y64.125
X76.796Y4.167
X81.558Y74.712
X81.558Y53.578
X81.856Y1.786
X82.451Y74.712
X84.237Y4.167
X92.0Y68.461
X94.655Y66.675
X96.739Y61.595
X97.0Y65.782
X101.203Y68.461
T4
X2.413Y69.977
X2.413Y68.453
X2.413Y12.827
X2.413Y11.303
X4.794Y50.927
X4.794Y49.403
X9.584Y31.877
X9.584Y30.353
X15.367Y72.517
X15.367Y70.993
X15.367Y15.367
X15.367Y13.843
X17.748Y53.467
X17.748Y51.943
X21.463Y69.977
X21.463Y68.453
X21.463Y12.827
X21.463Y11.303
X22.511Y34.417
X22.511Y32.893
X26.226Y50.927
X26.226Y49.403
X34.417Y72.517
X34.417Y70.993
X34.417Y15.367
X34.417Y13.843
X35.751Y31.877
X35.751Y30.353
X39.18Y53.467
X39.18Y51.943
X40.513Y69.977
X40.513Y68.453
X40.513Y12.827
X40.513Y11.303
X45.276Y50.927
X45.276Y49.403
X48.705Y34.417
X48.705Y32.893
X53.467Y72.517
X53.467Y70.993
X53.467Y15.367
X53.467Y13.843
X54.801Y31.877
X54.801Y30.353
X58.23Y53.467
X58.23Y51.943
X59.563Y69.977
X59.563Y68.453
X64.326Y50.927
X64.326Y49.403
X67.755Y34.417
X67.755Y32.893
X69.088Y12.827
X69.088Y11.303
X72.517Y72.517
X72.517Y70.993
X73.851Y31.877
X73.851Y30.353
X77.28Y53.467
X77.28Y51.943
X79.883Y62.357
X79.883Y60.833
X82.042Y15.367
X82.042Y13.843
X83.376Y50.927
X83.376Y49.403
X86.805Y34.417
X86.805Y32.893
X88.138Y12.827
X88.138Y11.303
X92.837Y64.897
X92.837Y63.373
X92.901Y31.877
X92.901Y30.353
X96.33Y53.467
X96.33Y51.943
X98.933Y62.357
X98.933Y60.833
X101.092Y13.843
X102.426Y50.927
X102.426Y49.403
X105.855Y34.417
X105.855Y32.893
X107.188Y12.827
X107.188Y11.303
X111.887Y64.897
X111.887Y63.373
X111.951Y31.877
X111.951Y30.353
X115.38Y53.467
X115.38Y51.943
X116.713Y69.977
X116.713Y68.453
X120.142Y15.367
X120.142Y13.843
X121.476Y50.927
X121.476Y49.403
X124.905Y34.417
X124.905Y32.893
X129.667Y72.517
X129.667Y70.993
X131.001Y31.877
X131.001Y30.353
X134.43Y53.467
X134.43Y51.943
X135.763Y69.977
X135.763Y68.453
X135.763Y12.827
X135.763Y11.303
X140.526Y50.927
X140.526Y49.403
X143.955Y34.417
X143.955Y32.893
X148.717Y72.517
X148.717Y70.993
X148.717Y15.367
X148.717Y13.843
X150.051Y31.877
X150.051Y30.353
X153.48Y53.467
X153.48Y51.943
X154.813Y69.977
X154.813Y68.453
X154.813Y12.827
X154.813Y11.303
X163.005Y34.417
X163.005Y32.893
X166.746Y50.927
X166.746Y49.403
X167.767Y72.517
X167.767Y70.993
X167.767Y15.367
X167.767Y13.843
X171.482Y31.877
X171.482Y30.353
X173.863Y69.977
X173.863Y68.453
X173.863Y12.827
X173.863Y11.303
X179.673Y53.467
X179.673Y51.943
X184.436Y34.417
X184.436Y32.893
X186.817Y72.517
X186.817Y70.993
X186.817Y15.367
X186.817Y13.843
T6
X2.977Y33.65
X2.977Y31.11
X2.977Y28.57
X2.977Y26.03
X2.977Y23.49
T7
X7.025Y62.175
X7.025Y5.025
X9.406Y43.125
X12.025Y62.675
X12.025Y5.525
X14.169Y24.075
X14.406Y43.625
X19.169Y24.575
X26.075Y62.175
X26.075Y5.025
X30.838Y43.125
X31.075Y62.675
X31.075Y5.525
X35.838Y43.625
X40.363Y24.075
X45.125Y62.175
X45.125Y5.025
X45.363Y24.575
X49.888Y43.125
X50.125Y62.675
X50.125Y5.525
X54.888Y43.625
X59.413Y24.075
X64.175Y62.175
X64.413Y24.575
X68.938Y43.125
X69.175Y62.675
X73.7Y5.025
X73.938Y43.625
X78.463Y24.075
X78.7Y5.525
X83.225Y70.675
X83.463Y24.575
X87.988Y43.125
X88.225Y71.175
X92.75Y5.025
X92.988Y43.625
X97.513Y24.075
X97.75Y5.525
X102.275Y70.675
X102.513Y24.575
X107.038Y43.125
X107.275Y71.175
X111.8Y5.025
X112.038Y43.625
X116.563Y24.075
X116.8Y5.525
X121.325Y62.175
X121.563Y24.575
X126.088Y43.125
X126.325Y62.675
X131.088Y43.625
X135.613Y24.075
X140.375Y62.175
X140.375Y5.025
X140.613Y24.575
X145.138Y43.125
X145.375Y62.675
X145.375Y5.525
X150.138Y43.625
X154.663Y24.075
X159.425Y62.175
X159.425Y5.025
X159.663Y24.575
X164.425Y62.675
X164.425Y5.525
X171.331Y43.125
X176.094Y24.075
X176.331Y43.625
X178.475Y62.175
X178.475Y5.025
X181.094Y24.575
X183.475Y62.675
X183.475Y5.525
T5
G00X90.93Y75.467
M15
G01X90.93Y74.867
M16
G05
G00X90.93Y71.537
M15
G01X90.93Y70.437
M16
G05
G00X99.57Y75.467
M15
G01X99.57Y74.867
M16
G05
G00X99.57Y71.537
M15
G01X99.57Y70.437
M16
G05
T0
M30
