%TF.GenerationSoftware,KiCad,Pcbnew,7.0.6*%
%TF.CreationDate,2023-08-01T10:10:29-04:00*%
%TF.ProjectId,good-delivery,676f6f64-2d64-4656-9c69-766572792e6b,rev?*%
%TF.SameCoordinates,PX2d6b3a0PY7e9ae4e*%
%TF.FileFunction,Drillmap*%
%TF.FilePolarity,Positive*%
%FSLAX45Y45*%
G04 Gerber Fmt 4.5, Leading zero omitted, Abs format (unit mm)*
G04 Created by KiCad (PCBNEW 7.0.6) date 2023-08-01 10:10:29*
%MOMM*%
%LPD*%
G01*
G04 APERTURE LIST*
%ADD10C,0.100000*%
%ADD11C,0.200000*%
%ADD12C,0.065000*%
%ADD13C,0.175000*%
%ADD14C,0.300000*%
%ADD15C,0.304800*%
%ADD16C,0.398780*%
G04 APERTURE END LIST*
D10*
X-8Y297679D02*
X-8Y7322372D01*
X17619488Y7620029D02*
X18752352Y7620029D01*
X17619488Y7620022D02*
G75*
G03*
X17461488Y7462002I10J-158010D01*
G01*
X18752391Y-8D02*
G75*
G03*
X19050048Y297657I-3J297660D01*
G01*
X19050008Y7322372D02*
X19050008Y297679D01*
X2379488Y7620022D02*
G75*
G03*
X2221488Y7462002I10J-158010D01*
G01*
X2379488Y0D02*
X16669488Y0D01*
X17461488Y157502D02*
G75*
G03*
X16827488Y157502I-317000J0D01*
G01*
X17619488Y0D02*
X18752391Y0D01*
X297657Y7620020D02*
G75*
G03*
X0Y7322362I1J-297658D01*
G01*
X16827488Y7462002D02*
G75*
G03*
X17461488Y7462002I317000J0D01*
G01*
X17461486Y157502D02*
G75*
G03*
X17619488Y0I157752J250D01*
G01*
X2379488Y7620019D02*
X16669488Y7620019D01*
X19050045Y7322362D02*
G75*
G03*
X18752391Y7620019I-297657J0D01*
G01*
X16827485Y7462002D02*
G75*
G03*
X16669488Y7620019I-158007J10D01*
G01*
X6Y297657D02*
G75*
G03*
X297657Y0I297652J-5D01*
G01*
X1428743Y22D02*
X297649Y22D01*
X2221486Y157502D02*
G75*
G03*
X2379488Y0I157752J250D01*
G01*
X1587488Y7462002D02*
G75*
G03*
X2221488Y7462002I317000J0D01*
G01*
X1587485Y7462002D02*
G75*
G03*
X1429488Y7620019I-158007J10D01*
G01*
X16669488Y2D02*
G75*
G03*
X16827488Y157502I250J157750D01*
G01*
X2221488Y157502D02*
G75*
G03*
X1587488Y157502I-317000J0D01*
G01*
X1429488Y2D02*
G75*
G03*
X1587488Y157502I250J157750D01*
G01*
X297649Y7620029D02*
X1428743Y7620029D01*
D11*
D12*
X9203524Y7184159D02*
X9268524Y7119159D01*
X9268524Y7184159D02*
X9203524Y7119159D01*
X9781524Y7184159D02*
X9846524Y7119159D01*
X9846524Y7184159D02*
X9781524Y7119159D01*
D13*
X532002Y6667517D02*
G75*
G03*
X532002Y6667517I-87500J0D01*
G01*
X532002Y952517D02*
G75*
G03*
X532002Y952517I-87500J0D01*
G01*
X770127Y4762517D02*
G75*
G03*
X770127Y4762517I-87500J0D01*
G01*
X1246377Y2857517D02*
G75*
G03*
X1246377Y2857517I-87500J0D01*
G01*
X1548002Y6667517D02*
G75*
G03*
X1548002Y6667517I-87500J0D01*
G01*
X1548002Y952517D02*
G75*
G03*
X1548002Y952517I-87500J0D01*
G01*
X1786127Y4762517D02*
G75*
G03*
X1786127Y4762517I-87500J0D01*
G01*
X2262377Y2857517D02*
G75*
G03*
X2262377Y2857517I-87500J0D01*
G01*
X2437002Y6667517D02*
G75*
G03*
X2437002Y6667517I-87500J0D01*
G01*
X2437002Y952517D02*
G75*
G03*
X2437002Y952517I-87500J0D01*
G01*
X2913252Y4762517D02*
G75*
G03*
X2913252Y4762517I-87500J0D01*
G01*
X3453002Y6667517D02*
G75*
G03*
X3453002Y6667517I-87500J0D01*
G01*
X3453002Y952517D02*
G75*
G03*
X3453002Y952517I-87500J0D01*
G01*
X3865752Y2857517D02*
G75*
G03*
X3865752Y2857517I-87500J0D01*
G01*
X3929252Y4762517D02*
G75*
G03*
X3929252Y4762517I-87500J0D01*
G01*
X4342002Y6667517D02*
G75*
G03*
X4342002Y6667517I-87500J0D01*
G01*
X4342002Y952517D02*
G75*
G03*
X4342002Y952517I-87500J0D01*
G01*
X4818252Y4762517D02*
G75*
G03*
X4818252Y4762517I-87500J0D01*
G01*
X4881752Y2857517D02*
G75*
G03*
X4881752Y2857517I-87500J0D01*
G01*
X5358002Y6667517D02*
G75*
G03*
X5358002Y6667517I-87500J0D01*
G01*
X5358002Y952517D02*
G75*
G03*
X5358002Y952517I-87500J0D01*
G01*
X5770752Y2857517D02*
G75*
G03*
X5770752Y2857517I-87500J0D01*
G01*
X5834252Y4762517D02*
G75*
G03*
X5834252Y4762517I-87500J0D01*
G01*
X6247002Y6667517D02*
G75*
G03*
X6247002Y6667517I-87500J0D01*
G01*
X6723252Y4762517D02*
G75*
G03*
X6723252Y4762517I-87500J0D01*
G01*
X6786752Y2857517D02*
G75*
G03*
X6786752Y2857517I-87500J0D01*
G01*
X7199502Y952517D02*
G75*
G03*
X7199502Y952517I-87500J0D01*
G01*
X7263002Y6667517D02*
G75*
G03*
X7263002Y6667517I-87500J0D01*
G01*
X7675752Y2857517D02*
G75*
G03*
X7675752Y2857517I-87500J0D01*
G01*
X7739252Y4762517D02*
G75*
G03*
X7739252Y4762517I-87500J0D01*
G01*
X8152002Y6667517D02*
G75*
G03*
X8152002Y6667517I-87500J0D01*
G01*
X8215502Y952517D02*
G75*
G03*
X8215502Y952517I-87500J0D01*
G01*
X8628252Y4762517D02*
G75*
G03*
X8628252Y4762517I-87500J0D01*
G01*
X8691752Y2857517D02*
G75*
G03*
X8691752Y2857517I-87500J0D01*
G01*
X9104524Y952502D02*
G75*
G03*
X9104524Y952502I-87500J0D01*
G01*
X9168002Y6667517D02*
G75*
G03*
X9168002Y6667517I-87500J0D01*
G01*
X9580752Y2857517D02*
G75*
G03*
X9580752Y2857517I-87500J0D01*
G01*
X9644252Y4762517D02*
G75*
G03*
X9644252Y4762517I-87500J0D01*
G01*
X10057002Y6667517D02*
G75*
G03*
X10057002Y6667517I-87500J0D01*
G01*
X10120524Y952502D02*
G75*
G03*
X10120524Y952502I-87500J0D01*
G01*
X10533252Y4762517D02*
G75*
G03*
X10533252Y4762517I-87500J0D01*
G01*
X10596752Y2857517D02*
G75*
G03*
X10596752Y2857517I-87500J0D01*
G01*
X11009502Y952517D02*
G75*
G03*
X11009502Y952517I-87500J0D01*
G01*
X11073002Y6667517D02*
G75*
G03*
X11073002Y6667517I-87500J0D01*
G01*
X11485752Y2857517D02*
G75*
G03*
X11485752Y2857517I-87500J0D01*
G01*
X11549252Y4762517D02*
G75*
G03*
X11549252Y4762517I-87500J0D01*
G01*
X11962002Y6667517D02*
G75*
G03*
X11962002Y6667517I-87500J0D01*
G01*
X12025502Y952517D02*
G75*
G03*
X12025502Y952517I-87500J0D01*
G01*
X12438252Y4762517D02*
G75*
G03*
X12438252Y4762517I-87500J0D01*
G01*
X12501752Y2857517D02*
G75*
G03*
X12501752Y2857517I-87500J0D01*
G01*
X12978002Y6667517D02*
G75*
G03*
X12978002Y6667517I-87500J0D01*
G01*
X13390752Y2857517D02*
G75*
G03*
X13390752Y2857517I-87500J0D01*
G01*
X13454252Y4762517D02*
G75*
G03*
X13454252Y4762517I-87500J0D01*
G01*
X13867002Y6667517D02*
G75*
G03*
X13867002Y6667517I-87500J0D01*
G01*
X13867002Y952517D02*
G75*
G03*
X13867002Y952517I-87500J0D01*
G01*
X14343252Y4762517D02*
G75*
G03*
X14343252Y4762517I-87500J0D01*
G01*
X14406752Y2857517D02*
G75*
G03*
X14406752Y2857517I-87500J0D01*
G01*
X14883002Y6667517D02*
G75*
G03*
X14883002Y6667517I-87500J0D01*
G01*
X14883002Y952517D02*
G75*
G03*
X14883002Y952517I-87500J0D01*
G01*
X15295752Y2857517D02*
G75*
G03*
X15295752Y2857517I-87500J0D01*
G01*
X15359252Y4762517D02*
G75*
G03*
X15359252Y4762517I-87500J0D01*
G01*
X15772002Y6667517D02*
G75*
G03*
X15772002Y6667517I-87500J0D01*
G01*
X15772002Y952517D02*
G75*
G03*
X15772002Y952517I-87500J0D01*
G01*
X16311752Y2857517D02*
G75*
G03*
X16311752Y2857517I-87500J0D01*
G01*
X16788002Y6667517D02*
G75*
G03*
X16788002Y6667517I-87500J0D01*
G01*
X16788002Y952517D02*
G75*
G03*
X16788002Y952517I-87500J0D01*
G01*
X16962627Y4762517D02*
G75*
G03*
X16962627Y4762517I-87500J0D01*
G01*
X17438877Y2857517D02*
G75*
G03*
X17438877Y2857517I-87500J0D01*
G01*
X17677002Y6667517D02*
G75*
G03*
X17677002Y6667517I-87500J0D01*
G01*
X17677002Y952517D02*
G75*
G03*
X17677002Y952517I-87500J0D01*
G01*
X17978627Y4762517D02*
G75*
G03*
X17978627Y4762517I-87500J0D01*
G01*
X18454877Y2857517D02*
G75*
G03*
X18454877Y2857517I-87500J0D01*
G01*
X18693002Y6667517D02*
G75*
G03*
X18693002Y6667517I-87500J0D01*
G01*
X18693002Y952517D02*
G75*
G03*
X18693002Y952517I-87500J0D01*
G01*
D14*
X571502Y7071517D02*
X571502Y6771517D01*
X421502Y6921517D02*
X721502Y6921517D01*
X571502Y1356517D02*
X571502Y1056517D01*
X421502Y1206517D02*
X721502Y1206517D01*
X809627Y5166517D02*
X809627Y4866517D01*
X659627Y5016517D02*
X959627Y5016517D01*
X1206502Y7325517D02*
X1206502Y7025517D01*
X1056502Y7175517D02*
X1356502Y7175517D01*
X1206502Y1610517D02*
X1206502Y1310517D01*
X1056502Y1460517D02*
X1356502Y1460517D01*
X1285877Y3261517D02*
X1285877Y2961517D01*
X1135877Y3111517D02*
X1435877Y3111517D01*
X1444627Y5420517D02*
X1444627Y5120517D01*
X1294627Y5270517D02*
X1594627Y5270517D01*
X1920877Y3515517D02*
X1920877Y3215517D01*
X1770877Y3365517D02*
X2070877Y3365517D01*
X2476502Y7071517D02*
X2476502Y6771517D01*
X2326502Y6921517D02*
X2626502Y6921517D01*
X2476502Y1356517D02*
X2476502Y1056517D01*
X2326502Y1206517D02*
X2626502Y1206517D01*
X2952752Y5166517D02*
X2952752Y4866517D01*
X2802752Y5016517D02*
X3102752Y5016517D01*
X3111502Y7325517D02*
X3111502Y7025517D01*
X2961502Y7175517D02*
X3261502Y7175517D01*
X3111502Y1610517D02*
X3111502Y1310517D01*
X2961502Y1460517D02*
X3261502Y1460517D01*
X3587752Y5420517D02*
X3587752Y5120517D01*
X3437752Y5270517D02*
X3737752Y5270517D01*
X3905252Y3261517D02*
X3905252Y2961517D01*
X3755252Y3111517D02*
X4055252Y3111517D01*
X4381502Y7071517D02*
X4381502Y6771517D01*
X4231502Y6921517D02*
X4531502Y6921517D01*
X4381502Y1356517D02*
X4381502Y1056517D01*
X4231502Y1206517D02*
X4531502Y1206517D01*
X4540252Y3515517D02*
X4540252Y3215517D01*
X4390252Y3365517D02*
X4690252Y3365517D01*
X4857752Y5166517D02*
X4857752Y4866517D01*
X4707752Y5016517D02*
X5007752Y5016517D01*
X5016502Y7325517D02*
X5016502Y7025517D01*
X4866502Y7175517D02*
X5166502Y7175517D01*
X5016502Y1610517D02*
X5016502Y1310517D01*
X4866502Y1460517D02*
X5166502Y1460517D01*
X5492752Y5420517D02*
X5492752Y5120517D01*
X5342752Y5270517D02*
X5642752Y5270517D01*
X5810252Y3261517D02*
X5810252Y2961517D01*
X5660252Y3111517D02*
X5960252Y3111517D01*
X6286502Y7071517D02*
X6286502Y6771517D01*
X6136502Y6921517D02*
X6436502Y6921517D01*
X6445252Y3515517D02*
X6445252Y3215517D01*
X6295252Y3365517D02*
X6595252Y3365517D01*
X6762752Y5166517D02*
X6762752Y4866517D01*
X6612752Y5016517D02*
X6912752Y5016517D01*
X6921502Y7325517D02*
X6921502Y7025517D01*
X6771502Y7175517D02*
X7071502Y7175517D01*
X7239002Y1356517D02*
X7239002Y1056517D01*
X7089002Y1206517D02*
X7389002Y1206517D01*
X7397752Y5420517D02*
X7397752Y5120517D01*
X7247752Y5270517D02*
X7547752Y5270517D01*
X7715252Y3261517D02*
X7715252Y2961517D01*
X7565252Y3111517D02*
X7865252Y3111517D01*
X7874002Y1610517D02*
X7874002Y1310517D01*
X7724002Y1460517D02*
X8024002Y1460517D01*
X8318502Y6309517D02*
X8318502Y6009517D01*
X8168502Y6159517D02*
X8468502Y6159517D01*
X8350252Y3515517D02*
X8350252Y3215517D01*
X8200252Y3365517D02*
X8500252Y3365517D01*
X8667752Y5166517D02*
X8667752Y4866517D01*
X8517752Y5016517D02*
X8817752Y5016517D01*
X8953502Y6563517D02*
X8953502Y6263517D01*
X8803502Y6413517D02*
X9103502Y6413517D01*
X9144024Y1356502D02*
X9144024Y1056502D01*
X8994024Y1206502D02*
X9294024Y1206502D01*
X9302752Y5420517D02*
X9302752Y5120517D01*
X9152752Y5270517D02*
X9452752Y5270517D01*
X9620252Y3261517D02*
X9620252Y2961517D01*
X9470252Y3111517D02*
X9770252Y3111517D01*
X9779024Y1610502D02*
X9779024Y1310502D01*
X9629024Y1460502D02*
X9929024Y1460502D01*
X10223502Y6309517D02*
X10223502Y6009517D01*
X10073502Y6159517D02*
X10373502Y6159517D01*
X10255252Y3515517D02*
X10255252Y3215517D01*
X10105252Y3365517D02*
X10405252Y3365517D01*
X10572752Y5166517D02*
X10572752Y4866517D01*
X10422752Y5016517D02*
X10722752Y5016517D01*
X10858502Y6563517D02*
X10858502Y6263517D01*
X10708502Y6413517D02*
X11008502Y6413517D01*
X11049002Y1356517D02*
X11049002Y1056517D01*
X10899002Y1206517D02*
X11199002Y1206517D01*
X11207752Y5420517D02*
X11207752Y5120517D01*
X11057752Y5270517D02*
X11357752Y5270517D01*
X11525252Y3261517D02*
X11525252Y2961517D01*
X11375252Y3111517D02*
X11675252Y3111517D01*
X11684002Y1610517D02*
X11684002Y1310517D01*
X11534002Y1460517D02*
X11834002Y1460517D01*
X12001502Y7071517D02*
X12001502Y6771517D01*
X11851502Y6921517D02*
X12151502Y6921517D01*
X12160252Y3515517D02*
X12160252Y3215517D01*
X12010252Y3365517D02*
X12310252Y3365517D01*
X12477752Y5166517D02*
X12477752Y4866517D01*
X12327752Y5016517D02*
X12627752Y5016517D01*
X12636502Y7325517D02*
X12636502Y7025517D01*
X12486502Y7175517D02*
X12786502Y7175517D01*
X13112752Y5420517D02*
X13112752Y5120517D01*
X12962752Y5270517D02*
X13262752Y5270517D01*
X13430252Y3261517D02*
X13430252Y2961517D01*
X13280252Y3111517D02*
X13580252Y3111517D01*
X13906502Y7071517D02*
X13906502Y6771517D01*
X13756502Y6921517D02*
X14056502Y6921517D01*
X13906502Y1356517D02*
X13906502Y1056517D01*
X13756502Y1206517D02*
X14056502Y1206517D01*
X14065252Y3515517D02*
X14065252Y3215517D01*
X13915252Y3365517D02*
X14215252Y3365517D01*
X14382752Y5166517D02*
X14382752Y4866517D01*
X14232752Y5016517D02*
X14532752Y5016517D01*
X14541502Y7325517D02*
X14541502Y7025517D01*
X14391502Y7175517D02*
X14691502Y7175517D01*
X14541502Y1610517D02*
X14541502Y1310517D01*
X14391502Y1460517D02*
X14691502Y1460517D01*
X15017752Y5420517D02*
X15017752Y5120517D01*
X14867752Y5270517D02*
X15167752Y5270517D01*
X15335252Y3261517D02*
X15335252Y2961517D01*
X15185252Y3111517D02*
X15485252Y3111517D01*
X15811502Y7071517D02*
X15811502Y6771517D01*
X15661502Y6921517D02*
X15961502Y6921517D01*
X15811502Y1356517D02*
X15811502Y1056517D01*
X15661502Y1206517D02*
X15961502Y1206517D01*
X15970252Y3515517D02*
X15970252Y3215517D01*
X15820252Y3365517D02*
X16120252Y3365517D01*
X16446502Y7325517D02*
X16446502Y7025517D01*
X16296502Y7175517D02*
X16596502Y7175517D01*
X16446502Y1610517D02*
X16446502Y1310517D01*
X16296502Y1460517D02*
X16596502Y1460517D01*
X17002127Y5166517D02*
X17002127Y4866517D01*
X16852127Y5016517D02*
X17152127Y5016517D01*
X17478377Y3261517D02*
X17478377Y2961517D01*
X17328377Y3111517D02*
X17628377Y3111517D01*
X17637127Y5420517D02*
X17637127Y5120517D01*
X17487127Y5270517D02*
X17787127Y5270517D01*
X17716502Y7071517D02*
X17716502Y6771517D01*
X17566502Y6921517D02*
X17866502Y6921517D01*
X17716502Y1356517D02*
X17716502Y1056517D01*
X17566502Y1206517D02*
X17866502Y1206517D01*
X18113377Y3515517D02*
X18113377Y3215517D01*
X17963377Y3365517D02*
X18263377Y3365517D01*
X18351502Y7325517D02*
X18351502Y7025517D01*
X18201502Y7175517D02*
X18501502Y7175517D01*
X18351502Y1610517D02*
X18351502Y1310517D01*
X18201502Y1460517D02*
X18501502Y1460517D01*
D15*
X2965288Y146238D02*
X2965288Y361766D01*
X2749760Y361766D01*
X2749760Y146238D01*
X2965288Y146238D01*
X3917788Y146238D02*
X3917788Y361766D01*
X3702260Y361766D01*
X3702260Y146238D01*
X3917788Y146238D01*
X4870288Y146238D02*
X4870288Y361766D01*
X4654760Y361766D01*
X4654760Y146238D01*
X4870288Y146238D01*
X6533966Y146253D02*
X6533966Y361781D01*
X6318438Y361781D01*
X6318438Y146253D01*
X6533966Y146253D01*
X6775288Y146238D02*
X6775288Y361766D01*
X6559760Y361766D01*
X6559760Y146238D01*
X6775288Y146238D01*
X8921567Y146253D02*
X8921567Y361781D01*
X8706038Y361781D01*
X8706038Y146253D01*
X8921567Y146253D01*
X10343967Y146253D02*
X10343967Y361781D01*
X10128438Y361781D01*
X10128438Y146253D01*
X10343967Y146253D01*
X12490288Y146238D02*
X12490288Y361766D01*
X12274760Y361766D01*
X12274760Y146238D01*
X12490288Y146238D01*
X12731566Y146253D02*
X12731566Y361781D01*
X12516038Y361781D01*
X12516038Y146253D01*
X12731566Y146253D01*
X14395288Y146238D02*
X14395288Y361766D01*
X14179760Y361766D01*
X14179760Y146238D01*
X14395288Y146238D01*
X15347788Y146238D02*
X15347788Y361766D01*
X15132260Y361766D01*
X15132260Y146238D01*
X15347788Y146238D01*
X16300288Y146238D02*
X16300288Y361766D01*
X16084760Y361766D01*
X16084760Y146238D01*
X16300288Y146238D01*
D16*
X952502Y6468127D02*
X1151892Y6667517D01*
X952502Y6866907D01*
X753112Y6667517D01*
X952502Y6468127D01*
X952502Y753127D02*
X1151892Y952517D01*
X952502Y1151907D01*
X753112Y952517D01*
X952502Y753127D01*
X1190627Y4563127D02*
X1390017Y4762517D01*
X1190627Y4961907D01*
X991237Y4762517D01*
X1190627Y4563127D01*
X1666877Y2658127D02*
X1866267Y2857517D01*
X1666877Y3056907D01*
X1467487Y2857517D01*
X1666877Y2658127D01*
X2857502Y6468127D02*
X3056892Y6667517D01*
X2857502Y6866907D01*
X2658112Y6667517D01*
X2857502Y6468127D01*
X2857502Y753127D02*
X3056892Y952517D01*
X2857502Y1151907D01*
X2658112Y952517D01*
X2857502Y753127D01*
X2857524Y1578612D02*
X3056914Y1778002D01*
X2857524Y1977392D01*
X2658134Y1778002D01*
X2857524Y1578612D01*
X3333752Y4563127D02*
X3533142Y4762517D01*
X3333752Y4961907D01*
X3134362Y4762517D01*
X3333752Y4563127D01*
X3810024Y1578612D02*
X4009414Y1778002D01*
X3810024Y1977392D01*
X3610634Y1778002D01*
X3810024Y1578612D01*
X4286252Y2658127D02*
X4485642Y2857517D01*
X4286252Y3056907D01*
X4086862Y2857517D01*
X4286252Y2658127D01*
X4762502Y6468127D02*
X4961892Y6667517D01*
X4762502Y6866907D01*
X4563112Y6667517D01*
X4762502Y6468127D01*
X4762502Y753127D02*
X4961892Y952517D01*
X4762502Y1151907D01*
X4563112Y952517D01*
X4762502Y753127D01*
X4762524Y1578612D02*
X4961914Y1778002D01*
X4762524Y1977392D01*
X4563134Y1778002D01*
X4762524Y1578612D01*
X5238752Y4563127D02*
X5438142Y4762517D01*
X5238752Y4961907D01*
X5039362Y4762517D01*
X5238752Y4563127D01*
X6191252Y2658127D02*
X6390642Y2857517D01*
X6191252Y3056907D01*
X5991862Y2857517D01*
X6191252Y2658127D01*
X6426202Y1578627D02*
X6625592Y1778017D01*
X6426202Y1977407D01*
X6226812Y1778017D01*
X6426202Y1578627D01*
X6667502Y6468127D02*
X6866892Y6667517D01*
X6667502Y6866907D01*
X6468112Y6667517D01*
X6667502Y6468127D01*
X6667524Y1578612D02*
X6866914Y1778002D01*
X6667524Y1977392D01*
X6468134Y1778002D01*
X6667524Y1578612D01*
X7143752Y4563127D02*
X7343142Y4762517D01*
X7143752Y4961907D01*
X6944362Y4762517D01*
X7143752Y4563127D01*
X7620002Y753127D02*
X7819392Y952517D01*
X7620002Y1151907D01*
X7420612Y952517D01*
X7620002Y753127D01*
X8096252Y2658127D02*
X8295642Y2857517D01*
X8096252Y3056907D01*
X7896862Y2857517D01*
X8096252Y2658127D01*
X8572502Y6468127D02*
X8771892Y6667517D01*
X8572502Y6866907D01*
X8373112Y6667517D01*
X8572502Y6468127D01*
X8813802Y1578627D02*
X9013192Y1778017D01*
X8813802Y1977407D01*
X8614412Y1778017D01*
X8813802Y1578627D01*
X9048752Y4563127D02*
X9248142Y4762517D01*
X9048752Y4961907D01*
X8849362Y4762517D01*
X9048752Y4563127D01*
X9525024Y753112D02*
X9724414Y952502D01*
X9525024Y1151892D01*
X9325634Y952502D01*
X9525024Y753112D01*
X10001252Y2658127D02*
X10200642Y2857517D01*
X10001252Y3056907D01*
X9801862Y2857517D01*
X10001252Y2658127D01*
X10236202Y1578627D02*
X10435592Y1778017D01*
X10236202Y1977407D01*
X10036812Y1778017D01*
X10236202Y1578627D01*
X10477502Y6468127D02*
X10676892Y6667517D01*
X10477502Y6866907D01*
X10278112Y6667517D01*
X10477502Y6468127D01*
X10953752Y4563127D02*
X11153142Y4762517D01*
X10953752Y4961907D01*
X10754362Y4762517D01*
X10953752Y4563127D01*
X11430002Y753127D02*
X11629392Y952517D01*
X11430002Y1151907D01*
X11230612Y952517D01*
X11430002Y753127D01*
X11906252Y2658127D02*
X12105642Y2857517D01*
X11906252Y3056907D01*
X11706862Y2857517D01*
X11906252Y2658127D01*
X12382502Y6468127D02*
X12581892Y6667517D01*
X12382502Y6866907D01*
X12183112Y6667517D01*
X12382502Y6468127D01*
X12382524Y1578612D02*
X12581914Y1778002D01*
X12382524Y1977392D01*
X12183134Y1778002D01*
X12382524Y1578612D01*
X12623802Y1578627D02*
X12823192Y1778017D01*
X12623802Y1977407D01*
X12424412Y1778017D01*
X12623802Y1578627D01*
X12858752Y4563127D02*
X13058142Y4762517D01*
X12858752Y4961907D01*
X12659362Y4762517D01*
X12858752Y4563127D01*
X13811252Y2658127D02*
X14010642Y2857517D01*
X13811252Y3056907D01*
X13611862Y2857517D01*
X13811252Y2658127D01*
X14287502Y6468127D02*
X14486892Y6667517D01*
X14287502Y6866907D01*
X14088112Y6667517D01*
X14287502Y6468127D01*
X14287502Y753127D02*
X14486892Y952517D01*
X14287502Y1151907D01*
X14088112Y952517D01*
X14287502Y753127D01*
X14287524Y1578612D02*
X14486914Y1778002D01*
X14287524Y1977392D01*
X14088134Y1778002D01*
X14287524Y1578612D01*
X14763752Y4563127D02*
X14963142Y4762517D01*
X14763752Y4961907D01*
X14564362Y4762517D01*
X14763752Y4563127D01*
X15240024Y1578612D02*
X15439414Y1778002D01*
X15240024Y1977392D01*
X15040634Y1778002D01*
X15240024Y1578612D01*
X15716252Y2658127D02*
X15915642Y2857517D01*
X15716252Y3056907D01*
X15516862Y2857517D01*
X15716252Y2658127D01*
X16192502Y6468127D02*
X16391892Y6667517D01*
X16192502Y6866907D01*
X15993112Y6667517D01*
X16192502Y6468127D01*
X16192502Y753127D02*
X16391892Y952517D01*
X16192502Y1151907D01*
X15993112Y952517D01*
X16192502Y753127D01*
X16192524Y1578612D02*
X16391914Y1778002D01*
X16192524Y1977392D01*
X15993134Y1778002D01*
X16192524Y1578612D01*
X17383127Y4563127D02*
X17582517Y4762517D01*
X17383127Y4961907D01*
X17183737Y4762517D01*
X17383127Y4563127D01*
X17859377Y2658127D02*
X18058767Y2857517D01*
X17859377Y3056907D01*
X17659987Y2857517D01*
X17859377Y2658127D01*
X18097502Y6468127D02*
X18296892Y6667517D01*
X18097502Y6866907D01*
X17898112Y6667517D01*
X18097502Y6468127D01*
X18097502Y753127D02*
X18296892Y952517D01*
X18097502Y1151907D01*
X17898112Y952517D01*
X18097502Y753127D01*
D11*
X255769Y-316484D02*
X255769Y-116484D01*
X255769Y-116484D02*
X303388Y-116484D01*
X303388Y-116484D02*
X331959Y-126008D01*
X331959Y-126008D02*
X351007Y-145055D01*
X351007Y-145055D02*
X360531Y-164103D01*
X360531Y-164103D02*
X370054Y-202198D01*
X370054Y-202198D02*
X370054Y-230770D01*
X370054Y-230770D02*
X360531Y-268865D01*
X360531Y-268865D02*
X351007Y-287913D01*
X351007Y-287913D02*
X331959Y-306960D01*
X331959Y-306960D02*
X303388Y-316484D01*
X303388Y-316484D02*
X255769Y-316484D01*
X455769Y-316484D02*
X455769Y-183151D01*
X455769Y-221246D02*
X465293Y-202198D01*
X465293Y-202198D02*
X474816Y-192674D01*
X474816Y-192674D02*
X493864Y-183151D01*
X493864Y-183151D02*
X512912Y-183151D01*
X579578Y-316484D02*
X579578Y-183151D01*
X579578Y-116484D02*
X570055Y-126008D01*
X570055Y-126008D02*
X579578Y-135532D01*
X579578Y-135532D02*
X589102Y-126008D01*
X589102Y-126008D02*
X579578Y-116484D01*
X579578Y-116484D02*
X579578Y-135532D01*
X703388Y-316484D02*
X684340Y-306960D01*
X684340Y-306960D02*
X674816Y-287913D01*
X674816Y-287913D02*
X674816Y-116484D01*
X808150Y-316484D02*
X789102Y-306960D01*
X789102Y-306960D02*
X779578Y-287913D01*
X779578Y-287913D02*
X779578Y-116484D01*
X1036721Y-316484D02*
X1036721Y-116484D01*
X1036721Y-116484D02*
X1103388Y-259341D01*
X1103388Y-259341D02*
X1170055Y-116484D01*
X1170055Y-116484D02*
X1170055Y-316484D01*
X1351007Y-316484D02*
X1351007Y-211722D01*
X1351007Y-211722D02*
X1341483Y-192674D01*
X1341483Y-192674D02*
X1322436Y-183151D01*
X1322436Y-183151D02*
X1284340Y-183151D01*
X1284340Y-183151D02*
X1265293Y-192674D01*
X1351007Y-306960D02*
X1331959Y-316484D01*
X1331959Y-316484D02*
X1284340Y-316484D01*
X1284340Y-316484D02*
X1265293Y-306960D01*
X1265293Y-306960D02*
X1255769Y-287913D01*
X1255769Y-287913D02*
X1255769Y-268865D01*
X1255769Y-268865D02*
X1265293Y-249817D01*
X1265293Y-249817D02*
X1284340Y-240293D01*
X1284340Y-240293D02*
X1331959Y-240293D01*
X1331959Y-240293D02*
X1351007Y-230770D01*
X1446245Y-183151D02*
X1446245Y-383151D01*
X1446245Y-192674D02*
X1465293Y-183151D01*
X1465293Y-183151D02*
X1503388Y-183151D01*
X1503388Y-183151D02*
X1522435Y-192674D01*
X1522435Y-192674D02*
X1531959Y-202198D01*
X1531959Y-202198D02*
X1541483Y-221246D01*
X1541483Y-221246D02*
X1541483Y-278389D01*
X1541483Y-278389D02*
X1531959Y-297436D01*
X1531959Y-297436D02*
X1522435Y-306960D01*
X1522435Y-306960D02*
X1503388Y-316484D01*
X1503388Y-316484D02*
X1465293Y-316484D01*
X1465293Y-316484D02*
X1446245Y-306960D01*
X1627197Y-297436D02*
X1636721Y-306960D01*
X1636721Y-306960D02*
X1627197Y-316484D01*
X1627197Y-316484D02*
X1617674Y-306960D01*
X1617674Y-306960D02*
X1627197Y-297436D01*
X1627197Y-297436D02*
X1627197Y-316484D01*
X1627197Y-192674D02*
X1636721Y-202198D01*
X1636721Y-202198D02*
X1627197Y-211722D01*
X1627197Y-211722D02*
X1617674Y-202198D01*
X1617674Y-202198D02*
X1627197Y-192674D01*
X1627197Y-192674D02*
X1627197Y-211722D01*
D12*
X-70008Y-612500D02*
X-5008Y-677500D01*
X-5008Y-612500D02*
X-70008Y-677500D01*
D11*
X293864Y-536484D02*
X312912Y-536484D01*
X312912Y-536484D02*
X331959Y-546008D01*
X331959Y-546008D02*
X341483Y-555532D01*
X341483Y-555532D02*
X351007Y-574579D01*
X351007Y-574579D02*
X360531Y-612674D01*
X360531Y-612674D02*
X360531Y-660294D01*
X360531Y-660294D02*
X351007Y-698389D01*
X351007Y-698389D02*
X341483Y-717436D01*
X341483Y-717436D02*
X331959Y-726960D01*
X331959Y-726960D02*
X312912Y-736484D01*
X312912Y-736484D02*
X293864Y-736484D01*
X293864Y-736484D02*
X274816Y-726960D01*
X274816Y-726960D02*
X265293Y-717436D01*
X265293Y-717436D02*
X255769Y-698389D01*
X255769Y-698389D02*
X246245Y-660294D01*
X246245Y-660294D02*
X246245Y-612674D01*
X246245Y-612674D02*
X255769Y-574579D01*
X255769Y-574579D02*
X265293Y-555532D01*
X265293Y-555532D02*
X274816Y-546008D01*
X274816Y-546008D02*
X293864Y-536484D01*
X446245Y-717436D02*
X455769Y-726960D01*
X455769Y-726960D02*
X446245Y-736484D01*
X446245Y-736484D02*
X436721Y-726960D01*
X436721Y-726960D02*
X446245Y-717436D01*
X446245Y-717436D02*
X446245Y-736484D01*
X627197Y-536484D02*
X589102Y-536484D01*
X589102Y-536484D02*
X570055Y-546008D01*
X570055Y-546008D02*
X560531Y-555532D01*
X560531Y-555532D02*
X541483Y-584103D01*
X541483Y-584103D02*
X531959Y-622198D01*
X531959Y-622198D02*
X531959Y-698389D01*
X531959Y-698389D02*
X541483Y-717436D01*
X541483Y-717436D02*
X551007Y-726960D01*
X551007Y-726960D02*
X570055Y-736484D01*
X570055Y-736484D02*
X608150Y-736484D01*
X608150Y-736484D02*
X627197Y-726960D01*
X627197Y-726960D02*
X636721Y-717436D01*
X636721Y-717436D02*
X646245Y-698389D01*
X646245Y-698389D02*
X646245Y-650770D01*
X646245Y-650770D02*
X636721Y-631722D01*
X636721Y-631722D02*
X627197Y-622198D01*
X627197Y-622198D02*
X608150Y-612674D01*
X608150Y-612674D02*
X570055Y-612674D01*
X570055Y-612674D02*
X551007Y-622198D01*
X551007Y-622198D02*
X541483Y-631722D01*
X541483Y-631722D02*
X531959Y-650770D01*
X827197Y-536484D02*
X731959Y-536484D01*
X731959Y-536484D02*
X722435Y-631722D01*
X722435Y-631722D02*
X731959Y-622198D01*
X731959Y-622198D02*
X751007Y-612674D01*
X751007Y-612674D02*
X798626Y-612674D01*
X798626Y-612674D02*
X817674Y-622198D01*
X817674Y-622198D02*
X827197Y-631722D01*
X827197Y-631722D02*
X836721Y-650770D01*
X836721Y-650770D02*
X836721Y-698389D01*
X836721Y-698389D02*
X827197Y-717436D01*
X827197Y-717436D02*
X817674Y-726960D01*
X817674Y-726960D02*
X798626Y-736484D01*
X798626Y-736484D02*
X751007Y-736484D01*
X751007Y-736484D02*
X731959Y-726960D01*
X731959Y-726960D02*
X722435Y-717436D01*
X960531Y-536484D02*
X979578Y-536484D01*
X979578Y-536484D02*
X998626Y-546008D01*
X998626Y-546008D02*
X1008150Y-555532D01*
X1008150Y-555532D02*
X1017674Y-574579D01*
X1017674Y-574579D02*
X1027197Y-612674D01*
X1027197Y-612674D02*
X1027197Y-660294D01*
X1027197Y-660294D02*
X1017674Y-698389D01*
X1017674Y-698389D02*
X1008150Y-717436D01*
X1008150Y-717436D02*
X998626Y-726960D01*
X998626Y-726960D02*
X979578Y-736484D01*
X979578Y-736484D02*
X960531Y-736484D01*
X960531Y-736484D02*
X941483Y-726960D01*
X941483Y-726960D02*
X931959Y-717436D01*
X931959Y-717436D02*
X922435Y-698389D01*
X922435Y-698389D02*
X912912Y-660294D01*
X912912Y-660294D02*
X912912Y-612674D01*
X912912Y-612674D02*
X922435Y-574579D01*
X922435Y-574579D02*
X931959Y-555532D01*
X931959Y-555532D02*
X941483Y-546008D01*
X941483Y-546008D02*
X960531Y-536484D01*
X1112912Y-736484D02*
X1112912Y-603151D01*
X1112912Y-622198D02*
X1122436Y-612674D01*
X1122436Y-612674D02*
X1141483Y-603151D01*
X1141483Y-603151D02*
X1170055Y-603151D01*
X1170055Y-603151D02*
X1189102Y-612674D01*
X1189102Y-612674D02*
X1198626Y-631722D01*
X1198626Y-631722D02*
X1198626Y-736484D01*
X1198626Y-631722D02*
X1208150Y-612674D01*
X1208150Y-612674D02*
X1227197Y-603151D01*
X1227197Y-603151D02*
X1255769Y-603151D01*
X1255769Y-603151D02*
X1274817Y-612674D01*
X1274817Y-612674D02*
X1284340Y-631722D01*
X1284340Y-631722D02*
X1284340Y-736484D01*
X1379578Y-736484D02*
X1379578Y-603151D01*
X1379578Y-622198D02*
X1389102Y-612674D01*
X1389102Y-612674D02*
X1408150Y-603151D01*
X1408150Y-603151D02*
X1436721Y-603151D01*
X1436721Y-603151D02*
X1455769Y-612674D01*
X1455769Y-612674D02*
X1465293Y-631722D01*
X1465293Y-631722D02*
X1465293Y-736484D01*
X1465293Y-631722D02*
X1474816Y-612674D01*
X1474816Y-612674D02*
X1493864Y-603151D01*
X1493864Y-603151D02*
X1522435Y-603151D01*
X1522435Y-603151D02*
X1541483Y-612674D01*
X1541483Y-612674D02*
X1551007Y-631722D01*
X1551007Y-631722D02*
X1551007Y-736484D01*
X1941483Y-526960D02*
X1770055Y-784103D01*
X2198626Y-536484D02*
X2217674Y-536484D01*
X2217674Y-536484D02*
X2236721Y-546008D01*
X2236721Y-546008D02*
X2246245Y-555532D01*
X2246245Y-555532D02*
X2255769Y-574579D01*
X2255769Y-574579D02*
X2265293Y-612674D01*
X2265293Y-612674D02*
X2265293Y-660294D01*
X2265293Y-660294D02*
X2255769Y-698389D01*
X2255769Y-698389D02*
X2246245Y-717436D01*
X2246245Y-717436D02*
X2236721Y-726960D01*
X2236721Y-726960D02*
X2217674Y-736484D01*
X2217674Y-736484D02*
X2198626Y-736484D01*
X2198626Y-736484D02*
X2179579Y-726960D01*
X2179579Y-726960D02*
X2170055Y-717436D01*
X2170055Y-717436D02*
X2160531Y-698389D01*
X2160531Y-698389D02*
X2151007Y-660294D01*
X2151007Y-660294D02*
X2151007Y-612674D01*
X2151007Y-612674D02*
X2160531Y-574579D01*
X2160531Y-574579D02*
X2170055Y-555532D01*
X2170055Y-555532D02*
X2179579Y-546008D01*
X2179579Y-546008D02*
X2198626Y-536484D01*
X2351007Y-717436D02*
X2360531Y-726960D01*
X2360531Y-726960D02*
X2351007Y-736484D01*
X2351007Y-736484D02*
X2341483Y-726960D01*
X2341483Y-726960D02*
X2351007Y-717436D01*
X2351007Y-717436D02*
X2351007Y-736484D01*
X2484340Y-536484D02*
X2503388Y-536484D01*
X2503388Y-536484D02*
X2522436Y-546008D01*
X2522436Y-546008D02*
X2531960Y-555532D01*
X2531960Y-555532D02*
X2541483Y-574579D01*
X2541483Y-574579D02*
X2551007Y-612674D01*
X2551007Y-612674D02*
X2551007Y-660294D01*
X2551007Y-660294D02*
X2541483Y-698389D01*
X2541483Y-698389D02*
X2531960Y-717436D01*
X2531960Y-717436D02*
X2522436Y-726960D01*
X2522436Y-726960D02*
X2503388Y-736484D01*
X2503388Y-736484D02*
X2484340Y-736484D01*
X2484340Y-736484D02*
X2465293Y-726960D01*
X2465293Y-726960D02*
X2455769Y-717436D01*
X2455769Y-717436D02*
X2446245Y-698389D01*
X2446245Y-698389D02*
X2436721Y-660294D01*
X2436721Y-660294D02*
X2436721Y-612674D01*
X2436721Y-612674D02*
X2446245Y-574579D01*
X2446245Y-574579D02*
X2455769Y-555532D01*
X2455769Y-555532D02*
X2465293Y-546008D01*
X2465293Y-546008D02*
X2484340Y-536484D01*
X2627198Y-555532D02*
X2636721Y-546008D01*
X2636721Y-546008D02*
X2655769Y-536484D01*
X2655769Y-536484D02*
X2703388Y-536484D01*
X2703388Y-536484D02*
X2722436Y-546008D01*
X2722436Y-546008D02*
X2731960Y-555532D01*
X2731960Y-555532D02*
X2741483Y-574579D01*
X2741483Y-574579D02*
X2741483Y-593627D01*
X2741483Y-593627D02*
X2731960Y-622198D01*
X2731960Y-622198D02*
X2617674Y-736484D01*
X2617674Y-736484D02*
X2741483Y-736484D01*
X2922436Y-536484D02*
X2827198Y-536484D01*
X2827198Y-536484D02*
X2817674Y-631722D01*
X2817674Y-631722D02*
X2827198Y-622198D01*
X2827198Y-622198D02*
X2846245Y-612674D01*
X2846245Y-612674D02*
X2893864Y-612674D01*
X2893864Y-612674D02*
X2912912Y-622198D01*
X2912912Y-622198D02*
X2922436Y-631722D01*
X2922436Y-631722D02*
X2931959Y-650770D01*
X2931959Y-650770D02*
X2931959Y-698389D01*
X2931959Y-698389D02*
X2922436Y-717436D01*
X2922436Y-717436D02*
X2912912Y-726960D01*
X2912912Y-726960D02*
X2893864Y-736484D01*
X2893864Y-736484D02*
X2846245Y-736484D01*
X2846245Y-736484D02*
X2827198Y-726960D01*
X2827198Y-726960D02*
X2817674Y-717436D01*
X3103388Y-536484D02*
X3065293Y-536484D01*
X3065293Y-536484D02*
X3046245Y-546008D01*
X3046245Y-546008D02*
X3036721Y-555532D01*
X3036721Y-555532D02*
X3017674Y-584103D01*
X3017674Y-584103D02*
X3008150Y-622198D01*
X3008150Y-622198D02*
X3008150Y-698389D01*
X3008150Y-698389D02*
X3017674Y-717436D01*
X3017674Y-717436D02*
X3027198Y-726960D01*
X3027198Y-726960D02*
X3046245Y-736484D01*
X3046245Y-736484D02*
X3084340Y-736484D01*
X3084340Y-736484D02*
X3103388Y-726960D01*
X3103388Y-726960D02*
X3112912Y-717436D01*
X3112912Y-717436D02*
X3122436Y-698389D01*
X3122436Y-698389D02*
X3122436Y-650770D01*
X3122436Y-650770D02*
X3112912Y-631722D01*
X3112912Y-631722D02*
X3103388Y-622198D01*
X3103388Y-622198D02*
X3084340Y-612674D01*
X3084340Y-612674D02*
X3046245Y-612674D01*
X3046245Y-612674D02*
X3027198Y-622198D01*
X3027198Y-622198D02*
X3017674Y-631722D01*
X3017674Y-631722D02*
X3008150Y-650770D01*
X3198626Y-536484D02*
X3198626Y-574579D01*
X3274817Y-536484D02*
X3274817Y-574579D01*
X3570055Y-812674D02*
X3560531Y-803151D01*
X3560531Y-803151D02*
X3541483Y-774579D01*
X3541483Y-774579D02*
X3531960Y-755532D01*
X3531960Y-755532D02*
X3522436Y-726960D01*
X3522436Y-726960D02*
X3512912Y-679341D01*
X3512912Y-679341D02*
X3512912Y-641246D01*
X3512912Y-641246D02*
X3522436Y-593627D01*
X3522436Y-593627D02*
X3531960Y-565055D01*
X3531960Y-565055D02*
X3541483Y-546008D01*
X3541483Y-546008D02*
X3560531Y-517436D01*
X3560531Y-517436D02*
X3570055Y-507912D01*
X3636721Y-555532D02*
X3646245Y-546008D01*
X3646245Y-546008D02*
X3665293Y-536484D01*
X3665293Y-536484D02*
X3712912Y-536484D01*
X3712912Y-536484D02*
X3731960Y-546008D01*
X3731960Y-546008D02*
X3741483Y-555532D01*
X3741483Y-555532D02*
X3751007Y-574579D01*
X3751007Y-574579D02*
X3751007Y-593627D01*
X3751007Y-593627D02*
X3741483Y-622198D01*
X3741483Y-622198D02*
X3627198Y-736484D01*
X3627198Y-736484D02*
X3751007Y-736484D01*
X3989102Y-736484D02*
X3989102Y-536484D01*
X4074817Y-736484D02*
X4074817Y-631722D01*
X4074817Y-631722D02*
X4065293Y-612674D01*
X4065293Y-612674D02*
X4046245Y-603151D01*
X4046245Y-603151D02*
X4017674Y-603151D01*
X4017674Y-603151D02*
X3998626Y-612674D01*
X3998626Y-612674D02*
X3989102Y-622198D01*
X4198626Y-736484D02*
X4179579Y-726960D01*
X4179579Y-726960D02*
X4170055Y-717436D01*
X4170055Y-717436D02*
X4160531Y-698389D01*
X4160531Y-698389D02*
X4160531Y-641246D01*
X4160531Y-641246D02*
X4170055Y-622198D01*
X4170055Y-622198D02*
X4179579Y-612674D01*
X4179579Y-612674D02*
X4198626Y-603151D01*
X4198626Y-603151D02*
X4227198Y-603151D01*
X4227198Y-603151D02*
X4246245Y-612674D01*
X4246245Y-612674D02*
X4255769Y-622198D01*
X4255769Y-622198D02*
X4265293Y-641246D01*
X4265293Y-641246D02*
X4265293Y-698389D01*
X4265293Y-698389D02*
X4255769Y-717436D01*
X4255769Y-717436D02*
X4246245Y-726960D01*
X4246245Y-726960D02*
X4227198Y-736484D01*
X4227198Y-736484D02*
X4198626Y-736484D01*
X4379579Y-736484D02*
X4360531Y-726960D01*
X4360531Y-726960D02*
X4351007Y-707912D01*
X4351007Y-707912D02*
X4351007Y-536484D01*
X4531960Y-726960D02*
X4512912Y-736484D01*
X4512912Y-736484D02*
X4474817Y-736484D01*
X4474817Y-736484D02*
X4455769Y-726960D01*
X4455769Y-726960D02*
X4446245Y-707912D01*
X4446245Y-707912D02*
X4446245Y-631722D01*
X4446245Y-631722D02*
X4455769Y-612674D01*
X4455769Y-612674D02*
X4474817Y-603151D01*
X4474817Y-603151D02*
X4512912Y-603151D01*
X4512912Y-603151D02*
X4531960Y-612674D01*
X4531960Y-612674D02*
X4541484Y-631722D01*
X4541484Y-631722D02*
X4541484Y-650770D01*
X4541484Y-650770D02*
X4446245Y-669817D01*
X4617674Y-726960D02*
X4636722Y-736484D01*
X4636722Y-736484D02*
X4674817Y-736484D01*
X4674817Y-736484D02*
X4693865Y-726960D01*
X4693865Y-726960D02*
X4703388Y-707912D01*
X4703388Y-707912D02*
X4703388Y-698389D01*
X4703388Y-698389D02*
X4693865Y-679341D01*
X4693865Y-679341D02*
X4674817Y-669817D01*
X4674817Y-669817D02*
X4646245Y-669817D01*
X4646245Y-669817D02*
X4627198Y-660294D01*
X4627198Y-660294D02*
X4617674Y-641246D01*
X4617674Y-641246D02*
X4617674Y-631722D01*
X4617674Y-631722D02*
X4627198Y-612674D01*
X4627198Y-612674D02*
X4646245Y-603151D01*
X4646245Y-603151D02*
X4674817Y-603151D01*
X4674817Y-603151D02*
X4693865Y-612674D01*
X4770055Y-812674D02*
X4779579Y-803151D01*
X4779579Y-803151D02*
X4798626Y-774579D01*
X4798626Y-774579D02*
X4808150Y-755532D01*
X4808150Y-755532D02*
X4817674Y-726960D01*
X4817674Y-726960D02*
X4827198Y-679341D01*
X4827198Y-679341D02*
X4827198Y-641246D01*
X4827198Y-641246D02*
X4817674Y-593627D01*
X4817674Y-593627D02*
X4808150Y-565055D01*
X4808150Y-565055D02*
X4798626Y-546008D01*
X4798626Y-546008D02*
X4779579Y-517436D01*
X4779579Y-517436D02*
X4770055Y-507912D01*
X5131960Y-812674D02*
X5122436Y-803151D01*
X5122436Y-803151D02*
X5103388Y-774579D01*
X5103388Y-774579D02*
X5093865Y-755532D01*
X5093865Y-755532D02*
X5084341Y-726960D01*
X5084341Y-726960D02*
X5074817Y-679341D01*
X5074817Y-679341D02*
X5074817Y-641246D01*
X5074817Y-641246D02*
X5084341Y-593627D01*
X5084341Y-593627D02*
X5093865Y-565055D01*
X5093865Y-565055D02*
X5103388Y-546008D01*
X5103388Y-546008D02*
X5122436Y-517436D01*
X5122436Y-517436D02*
X5131960Y-507912D01*
X5208150Y-603151D02*
X5208150Y-736484D01*
X5208150Y-622198D02*
X5217674Y-612674D01*
X5217674Y-612674D02*
X5236722Y-603151D01*
X5236722Y-603151D02*
X5265293Y-603151D01*
X5265293Y-603151D02*
X5284341Y-612674D01*
X5284341Y-612674D02*
X5293865Y-631722D01*
X5293865Y-631722D02*
X5293865Y-736484D01*
X5417674Y-736484D02*
X5398626Y-726960D01*
X5398626Y-726960D02*
X5389103Y-717436D01*
X5389103Y-717436D02*
X5379579Y-698389D01*
X5379579Y-698389D02*
X5379579Y-641246D01*
X5379579Y-641246D02*
X5389103Y-622198D01*
X5389103Y-622198D02*
X5398626Y-612674D01*
X5398626Y-612674D02*
X5417674Y-603151D01*
X5417674Y-603151D02*
X5446246Y-603151D01*
X5446246Y-603151D02*
X5465293Y-612674D01*
X5465293Y-612674D02*
X5474817Y-622198D01*
X5474817Y-622198D02*
X5484341Y-641246D01*
X5484341Y-641246D02*
X5484341Y-698389D01*
X5484341Y-698389D02*
X5474817Y-717436D01*
X5474817Y-717436D02*
X5465293Y-726960D01*
X5465293Y-726960D02*
X5446246Y-736484D01*
X5446246Y-736484D02*
X5417674Y-736484D01*
X5541484Y-603151D02*
X5617674Y-603151D01*
X5570055Y-536484D02*
X5570055Y-707912D01*
X5570055Y-707912D02*
X5579579Y-726960D01*
X5579579Y-726960D02*
X5598626Y-736484D01*
X5598626Y-736484D02*
X5617674Y-736484D01*
X5836722Y-603151D02*
X5836722Y-803151D01*
X5836722Y-612674D02*
X5855769Y-603151D01*
X5855769Y-603151D02*
X5893865Y-603151D01*
X5893865Y-603151D02*
X5912912Y-612674D01*
X5912912Y-612674D02*
X5922436Y-622198D01*
X5922436Y-622198D02*
X5931960Y-641246D01*
X5931960Y-641246D02*
X5931960Y-698389D01*
X5931960Y-698389D02*
X5922436Y-717436D01*
X5922436Y-717436D02*
X5912912Y-726960D01*
X5912912Y-726960D02*
X5893865Y-736484D01*
X5893865Y-736484D02*
X5855769Y-736484D01*
X5855769Y-736484D02*
X5836722Y-726960D01*
X6046245Y-736484D02*
X6027198Y-726960D01*
X6027198Y-726960D02*
X6017674Y-707912D01*
X6017674Y-707912D02*
X6017674Y-536484D01*
X6208150Y-736484D02*
X6208150Y-631722D01*
X6208150Y-631722D02*
X6198626Y-612674D01*
X6198626Y-612674D02*
X6179579Y-603151D01*
X6179579Y-603151D02*
X6141484Y-603151D01*
X6141484Y-603151D02*
X6122436Y-612674D01*
X6208150Y-726960D02*
X6189103Y-736484D01*
X6189103Y-736484D02*
X6141484Y-736484D01*
X6141484Y-736484D02*
X6122436Y-726960D01*
X6122436Y-726960D02*
X6112912Y-707912D01*
X6112912Y-707912D02*
X6112912Y-688865D01*
X6112912Y-688865D02*
X6122436Y-669817D01*
X6122436Y-669817D02*
X6141484Y-660294D01*
X6141484Y-660294D02*
X6189103Y-660294D01*
X6189103Y-660294D02*
X6208150Y-650770D01*
X6274817Y-603151D02*
X6351007Y-603151D01*
X6303388Y-536484D02*
X6303388Y-707912D01*
X6303388Y-707912D02*
X6312912Y-726960D01*
X6312912Y-726960D02*
X6331960Y-736484D01*
X6331960Y-736484D02*
X6351007Y-736484D01*
X6493865Y-726960D02*
X6474817Y-736484D01*
X6474817Y-736484D02*
X6436722Y-736484D01*
X6436722Y-736484D02*
X6417674Y-726960D01*
X6417674Y-726960D02*
X6408150Y-707912D01*
X6408150Y-707912D02*
X6408150Y-631722D01*
X6408150Y-631722D02*
X6417674Y-612674D01*
X6417674Y-612674D02*
X6436722Y-603151D01*
X6436722Y-603151D02*
X6474817Y-603151D01*
X6474817Y-603151D02*
X6493865Y-612674D01*
X6493865Y-612674D02*
X6503388Y-631722D01*
X6503388Y-631722D02*
X6503388Y-650770D01*
X6503388Y-650770D02*
X6408150Y-669817D01*
X6674817Y-736484D02*
X6674817Y-536484D01*
X6674817Y-726960D02*
X6655769Y-736484D01*
X6655769Y-736484D02*
X6617674Y-736484D01*
X6617674Y-736484D02*
X6598626Y-726960D01*
X6598626Y-726960D02*
X6589103Y-717436D01*
X6589103Y-717436D02*
X6579579Y-698389D01*
X6579579Y-698389D02*
X6579579Y-641246D01*
X6579579Y-641246D02*
X6589103Y-622198D01*
X6589103Y-622198D02*
X6598626Y-612674D01*
X6598626Y-612674D02*
X6617674Y-603151D01*
X6617674Y-603151D02*
X6655769Y-603151D01*
X6655769Y-603151D02*
X6674817Y-612674D01*
X6751007Y-812674D02*
X6760531Y-803151D01*
X6760531Y-803151D02*
X6779579Y-774579D01*
X6779579Y-774579D02*
X6789103Y-755532D01*
X6789103Y-755532D02*
X6798626Y-726960D01*
X6798626Y-726960D02*
X6808150Y-679341D01*
X6808150Y-679341D02*
X6808150Y-641246D01*
X6808150Y-641246D02*
X6798626Y-593627D01*
X6798626Y-593627D02*
X6789103Y-565055D01*
X6789103Y-565055D02*
X6779579Y-546008D01*
X6779579Y-546008D02*
X6760531Y-517436D01*
X6760531Y-517436D02*
X6751007Y-507912D01*
D13*
X-5008Y-909000D02*
G75*
G03*
X-5008Y-909000I-87500J0D01*
G01*
D11*
X360531Y-1000484D02*
X246245Y-1000484D01*
X303388Y-1000484D02*
X303388Y-800484D01*
X303388Y-800484D02*
X284340Y-829055D01*
X284340Y-829055D02*
X265293Y-848103D01*
X265293Y-848103D02*
X246245Y-857627D01*
X446245Y-981436D02*
X455769Y-990960D01*
X455769Y-990960D02*
X446245Y-1000484D01*
X446245Y-1000484D02*
X436721Y-990960D01*
X436721Y-990960D02*
X446245Y-981436D01*
X446245Y-981436D02*
X446245Y-1000484D01*
X522435Y-800484D02*
X655769Y-800484D01*
X655769Y-800484D02*
X570055Y-1000484D01*
X827197Y-800484D02*
X731959Y-800484D01*
X731959Y-800484D02*
X722435Y-895722D01*
X722435Y-895722D02*
X731959Y-886198D01*
X731959Y-886198D02*
X751007Y-876674D01*
X751007Y-876674D02*
X798626Y-876674D01*
X798626Y-876674D02*
X817674Y-886198D01*
X817674Y-886198D02*
X827197Y-895722D01*
X827197Y-895722D02*
X836721Y-914770D01*
X836721Y-914770D02*
X836721Y-962389D01*
X836721Y-962389D02*
X827197Y-981436D01*
X827197Y-981436D02*
X817674Y-990960D01*
X817674Y-990960D02*
X798626Y-1000484D01*
X798626Y-1000484D02*
X751007Y-1000484D01*
X751007Y-1000484D02*
X731959Y-990960D01*
X731959Y-990960D02*
X722435Y-981436D01*
X960531Y-800484D02*
X979578Y-800484D01*
X979578Y-800484D02*
X998626Y-810008D01*
X998626Y-810008D02*
X1008150Y-819532D01*
X1008150Y-819532D02*
X1017674Y-838579D01*
X1017674Y-838579D02*
X1027197Y-876674D01*
X1027197Y-876674D02*
X1027197Y-924293D01*
X1027197Y-924293D02*
X1017674Y-962389D01*
X1017674Y-962389D02*
X1008150Y-981436D01*
X1008150Y-981436D02*
X998626Y-990960D01*
X998626Y-990960D02*
X979578Y-1000484D01*
X979578Y-1000484D02*
X960531Y-1000484D01*
X960531Y-1000484D02*
X941483Y-990960D01*
X941483Y-990960D02*
X931959Y-981436D01*
X931959Y-981436D02*
X922435Y-962389D01*
X922435Y-962389D02*
X912912Y-924293D01*
X912912Y-924293D02*
X912912Y-876674D01*
X912912Y-876674D02*
X922435Y-838579D01*
X922435Y-838579D02*
X931959Y-819532D01*
X931959Y-819532D02*
X941483Y-810008D01*
X941483Y-810008D02*
X960531Y-800484D01*
X1112912Y-1000484D02*
X1112912Y-867151D01*
X1112912Y-886198D02*
X1122436Y-876674D01*
X1122436Y-876674D02*
X1141483Y-867151D01*
X1141483Y-867151D02*
X1170055Y-867151D01*
X1170055Y-867151D02*
X1189102Y-876674D01*
X1189102Y-876674D02*
X1198626Y-895722D01*
X1198626Y-895722D02*
X1198626Y-1000484D01*
X1198626Y-895722D02*
X1208150Y-876674D01*
X1208150Y-876674D02*
X1227197Y-867151D01*
X1227197Y-867151D02*
X1255769Y-867151D01*
X1255769Y-867151D02*
X1274817Y-876674D01*
X1274817Y-876674D02*
X1284340Y-895722D01*
X1284340Y-895722D02*
X1284340Y-1000484D01*
X1379578Y-1000484D02*
X1379578Y-867151D01*
X1379578Y-886198D02*
X1389102Y-876674D01*
X1389102Y-876674D02*
X1408150Y-867151D01*
X1408150Y-867151D02*
X1436721Y-867151D01*
X1436721Y-867151D02*
X1455769Y-876674D01*
X1455769Y-876674D02*
X1465293Y-895722D01*
X1465293Y-895722D02*
X1465293Y-1000484D01*
X1465293Y-895722D02*
X1474816Y-876674D01*
X1474816Y-876674D02*
X1493864Y-867151D01*
X1493864Y-867151D02*
X1522435Y-867151D01*
X1522435Y-867151D02*
X1541483Y-876674D01*
X1541483Y-876674D02*
X1551007Y-895722D01*
X1551007Y-895722D02*
X1551007Y-1000484D01*
X1941483Y-790960D02*
X1770055Y-1048103D01*
X2198626Y-800484D02*
X2217674Y-800484D01*
X2217674Y-800484D02*
X2236721Y-810008D01*
X2236721Y-810008D02*
X2246245Y-819532D01*
X2246245Y-819532D02*
X2255769Y-838579D01*
X2255769Y-838579D02*
X2265293Y-876674D01*
X2265293Y-876674D02*
X2265293Y-924293D01*
X2265293Y-924293D02*
X2255769Y-962389D01*
X2255769Y-962389D02*
X2246245Y-981436D01*
X2246245Y-981436D02*
X2236721Y-990960D01*
X2236721Y-990960D02*
X2217674Y-1000484D01*
X2217674Y-1000484D02*
X2198626Y-1000484D01*
X2198626Y-1000484D02*
X2179579Y-990960D01*
X2179579Y-990960D02*
X2170055Y-981436D01*
X2170055Y-981436D02*
X2160531Y-962389D01*
X2160531Y-962389D02*
X2151007Y-924293D01*
X2151007Y-924293D02*
X2151007Y-876674D01*
X2151007Y-876674D02*
X2160531Y-838579D01*
X2160531Y-838579D02*
X2170055Y-819532D01*
X2170055Y-819532D02*
X2179579Y-810008D01*
X2179579Y-810008D02*
X2198626Y-800484D01*
X2351007Y-981436D02*
X2360531Y-990960D01*
X2360531Y-990960D02*
X2351007Y-1000484D01*
X2351007Y-1000484D02*
X2341483Y-990960D01*
X2341483Y-990960D02*
X2351007Y-981436D01*
X2351007Y-981436D02*
X2351007Y-1000484D01*
X2484340Y-800484D02*
X2503388Y-800484D01*
X2503388Y-800484D02*
X2522436Y-810008D01*
X2522436Y-810008D02*
X2531960Y-819532D01*
X2531960Y-819532D02*
X2541483Y-838579D01*
X2541483Y-838579D02*
X2551007Y-876674D01*
X2551007Y-876674D02*
X2551007Y-924293D01*
X2551007Y-924293D02*
X2541483Y-962389D01*
X2541483Y-962389D02*
X2531960Y-981436D01*
X2531960Y-981436D02*
X2522436Y-990960D01*
X2522436Y-990960D02*
X2503388Y-1000484D01*
X2503388Y-1000484D02*
X2484340Y-1000484D01*
X2484340Y-1000484D02*
X2465293Y-990960D01*
X2465293Y-990960D02*
X2455769Y-981436D01*
X2455769Y-981436D02*
X2446245Y-962389D01*
X2446245Y-962389D02*
X2436721Y-924293D01*
X2436721Y-924293D02*
X2436721Y-876674D01*
X2436721Y-876674D02*
X2446245Y-838579D01*
X2446245Y-838579D02*
X2455769Y-819532D01*
X2455769Y-819532D02*
X2465293Y-810008D01*
X2465293Y-810008D02*
X2484340Y-800484D01*
X2722436Y-800484D02*
X2684340Y-800484D01*
X2684340Y-800484D02*
X2665293Y-810008D01*
X2665293Y-810008D02*
X2655769Y-819532D01*
X2655769Y-819532D02*
X2636721Y-848103D01*
X2636721Y-848103D02*
X2627198Y-886198D01*
X2627198Y-886198D02*
X2627198Y-962389D01*
X2627198Y-962389D02*
X2636721Y-981436D01*
X2636721Y-981436D02*
X2646245Y-990960D01*
X2646245Y-990960D02*
X2665293Y-1000484D01*
X2665293Y-1000484D02*
X2703388Y-1000484D01*
X2703388Y-1000484D02*
X2722436Y-990960D01*
X2722436Y-990960D02*
X2731960Y-981436D01*
X2731960Y-981436D02*
X2741483Y-962389D01*
X2741483Y-962389D02*
X2741483Y-914770D01*
X2741483Y-914770D02*
X2731960Y-895722D01*
X2731960Y-895722D02*
X2722436Y-886198D01*
X2722436Y-886198D02*
X2703388Y-876674D01*
X2703388Y-876674D02*
X2665293Y-876674D01*
X2665293Y-876674D02*
X2646245Y-886198D01*
X2646245Y-886198D02*
X2636721Y-895722D01*
X2636721Y-895722D02*
X2627198Y-914770D01*
X2855769Y-886198D02*
X2836721Y-876674D01*
X2836721Y-876674D02*
X2827198Y-867151D01*
X2827198Y-867151D02*
X2817674Y-848103D01*
X2817674Y-848103D02*
X2817674Y-838579D01*
X2817674Y-838579D02*
X2827198Y-819532D01*
X2827198Y-819532D02*
X2836721Y-810008D01*
X2836721Y-810008D02*
X2855769Y-800484D01*
X2855769Y-800484D02*
X2893864Y-800484D01*
X2893864Y-800484D02*
X2912912Y-810008D01*
X2912912Y-810008D02*
X2922436Y-819532D01*
X2922436Y-819532D02*
X2931959Y-838579D01*
X2931959Y-838579D02*
X2931959Y-848103D01*
X2931959Y-848103D02*
X2922436Y-867151D01*
X2922436Y-867151D02*
X2912912Y-876674D01*
X2912912Y-876674D02*
X2893864Y-886198D01*
X2893864Y-886198D02*
X2855769Y-886198D01*
X2855769Y-886198D02*
X2836721Y-895722D01*
X2836721Y-895722D02*
X2827198Y-905246D01*
X2827198Y-905246D02*
X2817674Y-924293D01*
X2817674Y-924293D02*
X2817674Y-962389D01*
X2817674Y-962389D02*
X2827198Y-981436D01*
X2827198Y-981436D02*
X2836721Y-990960D01*
X2836721Y-990960D02*
X2855769Y-1000484D01*
X2855769Y-1000484D02*
X2893864Y-1000484D01*
X2893864Y-1000484D02*
X2912912Y-990960D01*
X2912912Y-990960D02*
X2922436Y-981436D01*
X2922436Y-981436D02*
X2931959Y-962389D01*
X2931959Y-962389D02*
X2931959Y-924293D01*
X2931959Y-924293D02*
X2922436Y-905246D01*
X2922436Y-905246D02*
X2912912Y-895722D01*
X2912912Y-895722D02*
X2893864Y-886198D01*
X3027198Y-1000484D02*
X3065293Y-1000484D01*
X3065293Y-1000484D02*
X3084340Y-990960D01*
X3084340Y-990960D02*
X3093864Y-981436D01*
X3093864Y-981436D02*
X3112912Y-952865D01*
X3112912Y-952865D02*
X3122436Y-914770D01*
X3122436Y-914770D02*
X3122436Y-838579D01*
X3122436Y-838579D02*
X3112912Y-819532D01*
X3112912Y-819532D02*
X3103388Y-810008D01*
X3103388Y-810008D02*
X3084340Y-800484D01*
X3084340Y-800484D02*
X3046245Y-800484D01*
X3046245Y-800484D02*
X3027198Y-810008D01*
X3027198Y-810008D02*
X3017674Y-819532D01*
X3017674Y-819532D02*
X3008150Y-838579D01*
X3008150Y-838579D02*
X3008150Y-886198D01*
X3008150Y-886198D02*
X3017674Y-905246D01*
X3017674Y-905246D02*
X3027198Y-914770D01*
X3027198Y-914770D02*
X3046245Y-924293D01*
X3046245Y-924293D02*
X3084340Y-924293D01*
X3084340Y-924293D02*
X3103388Y-914770D01*
X3103388Y-914770D02*
X3112912Y-905246D01*
X3112912Y-905246D02*
X3122436Y-886198D01*
X3198626Y-800484D02*
X3198626Y-838579D01*
X3274817Y-800484D02*
X3274817Y-838579D01*
X3570055Y-1076674D02*
X3560531Y-1067151D01*
X3560531Y-1067151D02*
X3541483Y-1038579D01*
X3541483Y-1038579D02*
X3531960Y-1019532D01*
X3531960Y-1019532D02*
X3522436Y-990960D01*
X3522436Y-990960D02*
X3512912Y-943341D01*
X3512912Y-943341D02*
X3512912Y-905246D01*
X3512912Y-905246D02*
X3522436Y-857627D01*
X3522436Y-857627D02*
X3531960Y-829055D01*
X3531960Y-829055D02*
X3541483Y-810008D01*
X3541483Y-810008D02*
X3560531Y-781436D01*
X3560531Y-781436D02*
X3570055Y-771912D01*
X3627198Y-800484D02*
X3760531Y-800484D01*
X3760531Y-800484D02*
X3674817Y-1000484D01*
X3922436Y-867151D02*
X3922436Y-1000484D01*
X3874817Y-790960D02*
X3827198Y-933817D01*
X3827198Y-933817D02*
X3951007Y-933817D01*
X4179579Y-1000484D02*
X4179579Y-800484D01*
X4265293Y-1000484D02*
X4265293Y-895722D01*
X4265293Y-895722D02*
X4255769Y-876674D01*
X4255769Y-876674D02*
X4236722Y-867151D01*
X4236722Y-867151D02*
X4208150Y-867151D01*
X4208150Y-867151D02*
X4189102Y-876674D01*
X4189102Y-876674D02*
X4179579Y-886198D01*
X4389103Y-1000484D02*
X4370055Y-990960D01*
X4370055Y-990960D02*
X4360531Y-981436D01*
X4360531Y-981436D02*
X4351007Y-962389D01*
X4351007Y-962389D02*
X4351007Y-905246D01*
X4351007Y-905246D02*
X4360531Y-886198D01*
X4360531Y-886198D02*
X4370055Y-876674D01*
X4370055Y-876674D02*
X4389103Y-867151D01*
X4389103Y-867151D02*
X4417674Y-867151D01*
X4417674Y-867151D02*
X4436722Y-876674D01*
X4436722Y-876674D02*
X4446245Y-886198D01*
X4446245Y-886198D02*
X4455769Y-905246D01*
X4455769Y-905246D02*
X4455769Y-962389D01*
X4455769Y-962389D02*
X4446245Y-981436D01*
X4446245Y-981436D02*
X4436722Y-990960D01*
X4436722Y-990960D02*
X4417674Y-1000484D01*
X4417674Y-1000484D02*
X4389103Y-1000484D01*
X4570055Y-1000484D02*
X4551007Y-990960D01*
X4551007Y-990960D02*
X4541484Y-971912D01*
X4541484Y-971912D02*
X4541484Y-800484D01*
X4722436Y-990960D02*
X4703388Y-1000484D01*
X4703388Y-1000484D02*
X4665293Y-1000484D01*
X4665293Y-1000484D02*
X4646245Y-990960D01*
X4646245Y-990960D02*
X4636722Y-971912D01*
X4636722Y-971912D02*
X4636722Y-895722D01*
X4636722Y-895722D02*
X4646245Y-876674D01*
X4646245Y-876674D02*
X4665293Y-867151D01*
X4665293Y-867151D02*
X4703388Y-867151D01*
X4703388Y-867151D02*
X4722436Y-876674D01*
X4722436Y-876674D02*
X4731960Y-895722D01*
X4731960Y-895722D02*
X4731960Y-914770D01*
X4731960Y-914770D02*
X4636722Y-933817D01*
X4808150Y-990960D02*
X4827198Y-1000484D01*
X4827198Y-1000484D02*
X4865293Y-1000484D01*
X4865293Y-1000484D02*
X4884341Y-990960D01*
X4884341Y-990960D02*
X4893865Y-971912D01*
X4893865Y-971912D02*
X4893865Y-962389D01*
X4893865Y-962389D02*
X4884341Y-943341D01*
X4884341Y-943341D02*
X4865293Y-933817D01*
X4865293Y-933817D02*
X4836722Y-933817D01*
X4836722Y-933817D02*
X4817674Y-924293D01*
X4817674Y-924293D02*
X4808150Y-905246D01*
X4808150Y-905246D02*
X4808150Y-895722D01*
X4808150Y-895722D02*
X4817674Y-876674D01*
X4817674Y-876674D02*
X4836722Y-867151D01*
X4836722Y-867151D02*
X4865293Y-867151D01*
X4865293Y-867151D02*
X4884341Y-876674D01*
X4960531Y-1076674D02*
X4970055Y-1067151D01*
X4970055Y-1067151D02*
X4989103Y-1038579D01*
X4989103Y-1038579D02*
X4998626Y-1019532D01*
X4998626Y-1019532D02*
X5008150Y-990960D01*
X5008150Y-990960D02*
X5017674Y-943341D01*
X5017674Y-943341D02*
X5017674Y-905246D01*
X5017674Y-905246D02*
X5008150Y-857627D01*
X5008150Y-857627D02*
X4998626Y-829055D01*
X4998626Y-829055D02*
X4989103Y-810008D01*
X4989103Y-810008D02*
X4970055Y-781436D01*
X4970055Y-781436D02*
X4960531Y-771912D01*
X5322436Y-1076674D02*
X5312912Y-1067151D01*
X5312912Y-1067151D02*
X5293865Y-1038579D01*
X5293865Y-1038579D02*
X5284341Y-1019532D01*
X5284341Y-1019532D02*
X5274817Y-990960D01*
X5274817Y-990960D02*
X5265293Y-943341D01*
X5265293Y-943341D02*
X5265293Y-905246D01*
X5265293Y-905246D02*
X5274817Y-857627D01*
X5274817Y-857627D02*
X5284341Y-829055D01*
X5284341Y-829055D02*
X5293865Y-810008D01*
X5293865Y-810008D02*
X5312912Y-781436D01*
X5312912Y-781436D02*
X5322436Y-771912D01*
X5398626Y-867151D02*
X5398626Y-1000484D01*
X5398626Y-886198D02*
X5408150Y-876674D01*
X5408150Y-876674D02*
X5427198Y-867151D01*
X5427198Y-867151D02*
X5455769Y-867151D01*
X5455769Y-867151D02*
X5474817Y-876674D01*
X5474817Y-876674D02*
X5484341Y-895722D01*
X5484341Y-895722D02*
X5484341Y-1000484D01*
X5608150Y-1000484D02*
X5589103Y-990960D01*
X5589103Y-990960D02*
X5579579Y-981436D01*
X5579579Y-981436D02*
X5570055Y-962389D01*
X5570055Y-962389D02*
X5570055Y-905246D01*
X5570055Y-905246D02*
X5579579Y-886198D01*
X5579579Y-886198D02*
X5589103Y-876674D01*
X5589103Y-876674D02*
X5608150Y-867151D01*
X5608150Y-867151D02*
X5636722Y-867151D01*
X5636722Y-867151D02*
X5655769Y-876674D01*
X5655769Y-876674D02*
X5665293Y-886198D01*
X5665293Y-886198D02*
X5674817Y-905246D01*
X5674817Y-905246D02*
X5674817Y-962389D01*
X5674817Y-962389D02*
X5665293Y-981436D01*
X5665293Y-981436D02*
X5655769Y-990960D01*
X5655769Y-990960D02*
X5636722Y-1000484D01*
X5636722Y-1000484D02*
X5608150Y-1000484D01*
X5731960Y-867151D02*
X5808150Y-867151D01*
X5760531Y-800484D02*
X5760531Y-971912D01*
X5760531Y-971912D02*
X5770055Y-990960D01*
X5770055Y-990960D02*
X5789103Y-1000484D01*
X5789103Y-1000484D02*
X5808150Y-1000484D01*
X6027198Y-867151D02*
X6027198Y-1067151D01*
X6027198Y-876674D02*
X6046245Y-867151D01*
X6046245Y-867151D02*
X6084341Y-867151D01*
X6084341Y-867151D02*
X6103388Y-876674D01*
X6103388Y-876674D02*
X6112912Y-886198D01*
X6112912Y-886198D02*
X6122436Y-905246D01*
X6122436Y-905246D02*
X6122436Y-962389D01*
X6122436Y-962389D02*
X6112912Y-981436D01*
X6112912Y-981436D02*
X6103388Y-990960D01*
X6103388Y-990960D02*
X6084341Y-1000484D01*
X6084341Y-1000484D02*
X6046245Y-1000484D01*
X6046245Y-1000484D02*
X6027198Y-990960D01*
X6236722Y-1000484D02*
X6217674Y-990960D01*
X6217674Y-990960D02*
X6208150Y-971912D01*
X6208150Y-971912D02*
X6208150Y-800484D01*
X6398626Y-1000484D02*
X6398626Y-895722D01*
X6398626Y-895722D02*
X6389103Y-876674D01*
X6389103Y-876674D02*
X6370055Y-867151D01*
X6370055Y-867151D02*
X6331960Y-867151D01*
X6331960Y-867151D02*
X6312912Y-876674D01*
X6398626Y-990960D02*
X6379579Y-1000484D01*
X6379579Y-1000484D02*
X6331960Y-1000484D01*
X6331960Y-1000484D02*
X6312912Y-990960D01*
X6312912Y-990960D02*
X6303388Y-971912D01*
X6303388Y-971912D02*
X6303388Y-952865D01*
X6303388Y-952865D02*
X6312912Y-933817D01*
X6312912Y-933817D02*
X6331960Y-924293D01*
X6331960Y-924293D02*
X6379579Y-924293D01*
X6379579Y-924293D02*
X6398626Y-914770D01*
X6465293Y-867151D02*
X6541484Y-867151D01*
X6493865Y-800484D02*
X6493865Y-971912D01*
X6493865Y-971912D02*
X6503388Y-990960D01*
X6503388Y-990960D02*
X6522436Y-1000484D01*
X6522436Y-1000484D02*
X6541484Y-1000484D01*
X6684341Y-990960D02*
X6665293Y-1000484D01*
X6665293Y-1000484D02*
X6627198Y-1000484D01*
X6627198Y-1000484D02*
X6608150Y-990960D01*
X6608150Y-990960D02*
X6598626Y-971912D01*
X6598626Y-971912D02*
X6598626Y-895722D01*
X6598626Y-895722D02*
X6608150Y-876674D01*
X6608150Y-876674D02*
X6627198Y-867151D01*
X6627198Y-867151D02*
X6665293Y-867151D01*
X6665293Y-867151D02*
X6684341Y-876674D01*
X6684341Y-876674D02*
X6693865Y-895722D01*
X6693865Y-895722D02*
X6693865Y-914770D01*
X6693865Y-914770D02*
X6598626Y-933817D01*
X6865293Y-1000484D02*
X6865293Y-800484D01*
X6865293Y-990960D02*
X6846246Y-1000484D01*
X6846246Y-1000484D02*
X6808150Y-1000484D01*
X6808150Y-1000484D02*
X6789103Y-990960D01*
X6789103Y-990960D02*
X6779579Y-981436D01*
X6779579Y-981436D02*
X6770055Y-962389D01*
X6770055Y-962389D02*
X6770055Y-905246D01*
X6770055Y-905246D02*
X6779579Y-886198D01*
X6779579Y-886198D02*
X6789103Y-876674D01*
X6789103Y-876674D02*
X6808150Y-867151D01*
X6808150Y-867151D02*
X6846246Y-867151D01*
X6846246Y-867151D02*
X6865293Y-876674D01*
X6941484Y-1076674D02*
X6951007Y-1067151D01*
X6951007Y-1067151D02*
X6970055Y-1038579D01*
X6970055Y-1038579D02*
X6979579Y-1019532D01*
X6979579Y-1019532D02*
X6989103Y-990960D01*
X6989103Y-990960D02*
X6998626Y-943341D01*
X6998626Y-943341D02*
X6998626Y-905246D01*
X6998626Y-905246D02*
X6989103Y-857627D01*
X6989103Y-857627D02*
X6979579Y-829055D01*
X6979579Y-829055D02*
X6970055Y-810008D01*
X6970055Y-810008D02*
X6951007Y-781436D01*
X6951007Y-781436D02*
X6941484Y-771912D01*
X-105008Y-1104000D02*
X-105008Y-1304000D01*
X-205008Y-1204000D02*
X-5008Y-1204000D01*
X236721Y-1095484D02*
X360531Y-1095484D01*
X360531Y-1095484D02*
X293864Y-1171674D01*
X293864Y-1171674D02*
X322436Y-1171674D01*
X322436Y-1171674D02*
X341483Y-1181198D01*
X341483Y-1181198D02*
X351007Y-1190722D01*
X351007Y-1190722D02*
X360531Y-1209770D01*
X360531Y-1209770D02*
X360531Y-1257389D01*
X360531Y-1257389D02*
X351007Y-1276436D01*
X351007Y-1276436D02*
X341483Y-1285960D01*
X341483Y-1285960D02*
X322436Y-1295484D01*
X322436Y-1295484D02*
X265293Y-1295484D01*
X265293Y-1295484D02*
X246245Y-1285960D01*
X246245Y-1285960D02*
X236721Y-1276436D01*
X446245Y-1276436D02*
X455769Y-1285960D01*
X455769Y-1285960D02*
X446245Y-1295484D01*
X446245Y-1295484D02*
X436721Y-1285960D01*
X436721Y-1285960D02*
X446245Y-1276436D01*
X446245Y-1276436D02*
X446245Y-1295484D01*
X579578Y-1095484D02*
X598626Y-1095484D01*
X598626Y-1095484D02*
X617674Y-1105008D01*
X617674Y-1105008D02*
X627197Y-1114532D01*
X627197Y-1114532D02*
X636721Y-1133579D01*
X636721Y-1133579D02*
X646245Y-1171674D01*
X646245Y-1171674D02*
X646245Y-1219294D01*
X646245Y-1219294D02*
X636721Y-1257389D01*
X636721Y-1257389D02*
X627197Y-1276436D01*
X627197Y-1276436D02*
X617674Y-1285960D01*
X617674Y-1285960D02*
X598626Y-1295484D01*
X598626Y-1295484D02*
X579578Y-1295484D01*
X579578Y-1295484D02*
X560531Y-1285960D01*
X560531Y-1285960D02*
X551007Y-1276436D01*
X551007Y-1276436D02*
X541483Y-1257389D01*
X541483Y-1257389D02*
X531959Y-1219294D01*
X531959Y-1219294D02*
X531959Y-1171674D01*
X531959Y-1171674D02*
X541483Y-1133579D01*
X541483Y-1133579D02*
X551007Y-1114532D01*
X551007Y-1114532D02*
X560531Y-1105008D01*
X560531Y-1105008D02*
X579578Y-1095484D01*
X770054Y-1095484D02*
X789102Y-1095484D01*
X789102Y-1095484D02*
X808150Y-1105008D01*
X808150Y-1105008D02*
X817674Y-1114532D01*
X817674Y-1114532D02*
X827197Y-1133579D01*
X827197Y-1133579D02*
X836721Y-1171674D01*
X836721Y-1171674D02*
X836721Y-1219294D01*
X836721Y-1219294D02*
X827197Y-1257389D01*
X827197Y-1257389D02*
X817674Y-1276436D01*
X817674Y-1276436D02*
X808150Y-1285960D01*
X808150Y-1285960D02*
X789102Y-1295484D01*
X789102Y-1295484D02*
X770054Y-1295484D01*
X770054Y-1295484D02*
X751007Y-1285960D01*
X751007Y-1285960D02*
X741483Y-1276436D01*
X741483Y-1276436D02*
X731959Y-1257389D01*
X731959Y-1257389D02*
X722435Y-1219294D01*
X722435Y-1219294D02*
X722435Y-1171674D01*
X722435Y-1171674D02*
X731959Y-1133579D01*
X731959Y-1133579D02*
X741483Y-1114532D01*
X741483Y-1114532D02*
X751007Y-1105008D01*
X751007Y-1105008D02*
X770054Y-1095484D01*
X960531Y-1095484D02*
X979578Y-1095484D01*
X979578Y-1095484D02*
X998626Y-1105008D01*
X998626Y-1105008D02*
X1008150Y-1114532D01*
X1008150Y-1114532D02*
X1017674Y-1133579D01*
X1017674Y-1133579D02*
X1027197Y-1171674D01*
X1027197Y-1171674D02*
X1027197Y-1219294D01*
X1027197Y-1219294D02*
X1017674Y-1257389D01*
X1017674Y-1257389D02*
X1008150Y-1276436D01*
X1008150Y-1276436D02*
X998626Y-1285960D01*
X998626Y-1285960D02*
X979578Y-1295484D01*
X979578Y-1295484D02*
X960531Y-1295484D01*
X960531Y-1295484D02*
X941483Y-1285960D01*
X941483Y-1285960D02*
X931959Y-1276436D01*
X931959Y-1276436D02*
X922435Y-1257389D01*
X922435Y-1257389D02*
X912912Y-1219294D01*
X912912Y-1219294D02*
X912912Y-1171674D01*
X912912Y-1171674D02*
X922435Y-1133579D01*
X922435Y-1133579D02*
X931959Y-1114532D01*
X931959Y-1114532D02*
X941483Y-1105008D01*
X941483Y-1105008D02*
X960531Y-1095484D01*
X1112912Y-1295484D02*
X1112912Y-1162151D01*
X1112912Y-1181198D02*
X1122436Y-1171674D01*
X1122436Y-1171674D02*
X1141483Y-1162151D01*
X1141483Y-1162151D02*
X1170055Y-1162151D01*
X1170055Y-1162151D02*
X1189102Y-1171674D01*
X1189102Y-1171674D02*
X1198626Y-1190722D01*
X1198626Y-1190722D02*
X1198626Y-1295484D01*
X1198626Y-1190722D02*
X1208150Y-1171674D01*
X1208150Y-1171674D02*
X1227197Y-1162151D01*
X1227197Y-1162151D02*
X1255769Y-1162151D01*
X1255769Y-1162151D02*
X1274817Y-1171674D01*
X1274817Y-1171674D02*
X1284340Y-1190722D01*
X1284340Y-1190722D02*
X1284340Y-1295484D01*
X1379578Y-1295484D02*
X1379578Y-1162151D01*
X1379578Y-1181198D02*
X1389102Y-1171674D01*
X1389102Y-1171674D02*
X1408150Y-1162151D01*
X1408150Y-1162151D02*
X1436721Y-1162151D01*
X1436721Y-1162151D02*
X1455769Y-1171674D01*
X1455769Y-1171674D02*
X1465293Y-1190722D01*
X1465293Y-1190722D02*
X1465293Y-1295484D01*
X1465293Y-1190722D02*
X1474816Y-1171674D01*
X1474816Y-1171674D02*
X1493864Y-1162151D01*
X1493864Y-1162151D02*
X1522435Y-1162151D01*
X1522435Y-1162151D02*
X1541483Y-1171674D01*
X1541483Y-1171674D02*
X1551007Y-1190722D01*
X1551007Y-1190722D02*
X1551007Y-1295484D01*
X1941483Y-1085960D02*
X1770055Y-1343103D01*
X2198626Y-1095484D02*
X2217674Y-1095484D01*
X2217674Y-1095484D02*
X2236721Y-1105008D01*
X2236721Y-1105008D02*
X2246245Y-1114532D01*
X2246245Y-1114532D02*
X2255769Y-1133579D01*
X2255769Y-1133579D02*
X2265293Y-1171674D01*
X2265293Y-1171674D02*
X2265293Y-1219294D01*
X2265293Y-1219294D02*
X2255769Y-1257389D01*
X2255769Y-1257389D02*
X2246245Y-1276436D01*
X2246245Y-1276436D02*
X2236721Y-1285960D01*
X2236721Y-1285960D02*
X2217674Y-1295484D01*
X2217674Y-1295484D02*
X2198626Y-1295484D01*
X2198626Y-1295484D02*
X2179579Y-1285960D01*
X2179579Y-1285960D02*
X2170055Y-1276436D01*
X2170055Y-1276436D02*
X2160531Y-1257389D01*
X2160531Y-1257389D02*
X2151007Y-1219294D01*
X2151007Y-1219294D02*
X2151007Y-1171674D01*
X2151007Y-1171674D02*
X2160531Y-1133579D01*
X2160531Y-1133579D02*
X2170055Y-1114532D01*
X2170055Y-1114532D02*
X2179579Y-1105008D01*
X2179579Y-1105008D02*
X2198626Y-1095484D01*
X2351007Y-1276436D02*
X2360531Y-1285960D01*
X2360531Y-1285960D02*
X2351007Y-1295484D01*
X2351007Y-1295484D02*
X2341483Y-1285960D01*
X2341483Y-1285960D02*
X2351007Y-1276436D01*
X2351007Y-1276436D02*
X2351007Y-1295484D01*
X2551007Y-1295484D02*
X2436721Y-1295484D01*
X2493864Y-1295484D02*
X2493864Y-1095484D01*
X2493864Y-1095484D02*
X2474817Y-1124055D01*
X2474817Y-1124055D02*
X2455769Y-1143103D01*
X2455769Y-1143103D02*
X2436721Y-1152627D01*
X2741483Y-1295484D02*
X2627198Y-1295484D01*
X2684340Y-1295484D02*
X2684340Y-1095484D01*
X2684340Y-1095484D02*
X2665293Y-1124055D01*
X2665293Y-1124055D02*
X2646245Y-1143103D01*
X2646245Y-1143103D02*
X2627198Y-1152627D01*
X2855769Y-1181198D02*
X2836721Y-1171674D01*
X2836721Y-1171674D02*
X2827198Y-1162151D01*
X2827198Y-1162151D02*
X2817674Y-1143103D01*
X2817674Y-1143103D02*
X2817674Y-1133579D01*
X2817674Y-1133579D02*
X2827198Y-1114532D01*
X2827198Y-1114532D02*
X2836721Y-1105008D01*
X2836721Y-1105008D02*
X2855769Y-1095484D01*
X2855769Y-1095484D02*
X2893864Y-1095484D01*
X2893864Y-1095484D02*
X2912912Y-1105008D01*
X2912912Y-1105008D02*
X2922436Y-1114532D01*
X2922436Y-1114532D02*
X2931959Y-1133579D01*
X2931959Y-1133579D02*
X2931959Y-1143103D01*
X2931959Y-1143103D02*
X2922436Y-1162151D01*
X2922436Y-1162151D02*
X2912912Y-1171674D01*
X2912912Y-1171674D02*
X2893864Y-1181198D01*
X2893864Y-1181198D02*
X2855769Y-1181198D01*
X2855769Y-1181198D02*
X2836721Y-1190722D01*
X2836721Y-1190722D02*
X2827198Y-1200246D01*
X2827198Y-1200246D02*
X2817674Y-1219294D01*
X2817674Y-1219294D02*
X2817674Y-1257389D01*
X2817674Y-1257389D02*
X2827198Y-1276436D01*
X2827198Y-1276436D02*
X2836721Y-1285960D01*
X2836721Y-1285960D02*
X2855769Y-1295484D01*
X2855769Y-1295484D02*
X2893864Y-1295484D01*
X2893864Y-1295484D02*
X2912912Y-1285960D01*
X2912912Y-1285960D02*
X2922436Y-1276436D01*
X2922436Y-1276436D02*
X2931959Y-1257389D01*
X2931959Y-1257389D02*
X2931959Y-1219294D01*
X2931959Y-1219294D02*
X2922436Y-1200246D01*
X2922436Y-1200246D02*
X2912912Y-1190722D01*
X2912912Y-1190722D02*
X2893864Y-1181198D01*
X3122436Y-1295484D02*
X3008150Y-1295484D01*
X3065293Y-1295484D02*
X3065293Y-1095484D01*
X3065293Y-1095484D02*
X3046245Y-1124055D01*
X3046245Y-1124055D02*
X3027198Y-1143103D01*
X3027198Y-1143103D02*
X3008150Y-1152627D01*
X3198626Y-1095484D02*
X3198626Y-1133579D01*
X3274817Y-1095484D02*
X3274817Y-1133579D01*
X3570055Y-1371674D02*
X3560531Y-1362151D01*
X3560531Y-1362151D02*
X3541483Y-1333579D01*
X3541483Y-1333579D02*
X3531960Y-1314532D01*
X3531960Y-1314532D02*
X3522436Y-1285960D01*
X3522436Y-1285960D02*
X3512912Y-1238341D01*
X3512912Y-1238341D02*
X3512912Y-1200246D01*
X3512912Y-1200246D02*
X3522436Y-1152627D01*
X3522436Y-1152627D02*
X3531960Y-1124055D01*
X3531960Y-1124055D02*
X3541483Y-1105008D01*
X3541483Y-1105008D02*
X3560531Y-1076436D01*
X3560531Y-1076436D02*
X3570055Y-1066913D01*
X3627198Y-1095484D02*
X3760531Y-1095484D01*
X3760531Y-1095484D02*
X3674817Y-1295484D01*
X3922436Y-1162151D02*
X3922436Y-1295484D01*
X3874817Y-1085960D02*
X3827198Y-1228817D01*
X3827198Y-1228817D02*
X3951007Y-1228817D01*
X4179579Y-1295484D02*
X4179579Y-1095484D01*
X4265293Y-1295484D02*
X4265293Y-1190722D01*
X4265293Y-1190722D02*
X4255769Y-1171674D01*
X4255769Y-1171674D02*
X4236722Y-1162151D01*
X4236722Y-1162151D02*
X4208150Y-1162151D01*
X4208150Y-1162151D02*
X4189102Y-1171674D01*
X4189102Y-1171674D02*
X4179579Y-1181198D01*
X4389103Y-1295484D02*
X4370055Y-1285960D01*
X4370055Y-1285960D02*
X4360531Y-1276436D01*
X4360531Y-1276436D02*
X4351007Y-1257389D01*
X4351007Y-1257389D02*
X4351007Y-1200246D01*
X4351007Y-1200246D02*
X4360531Y-1181198D01*
X4360531Y-1181198D02*
X4370055Y-1171674D01*
X4370055Y-1171674D02*
X4389103Y-1162151D01*
X4389103Y-1162151D02*
X4417674Y-1162151D01*
X4417674Y-1162151D02*
X4436722Y-1171674D01*
X4436722Y-1171674D02*
X4446245Y-1181198D01*
X4446245Y-1181198D02*
X4455769Y-1200246D01*
X4455769Y-1200246D02*
X4455769Y-1257389D01*
X4455769Y-1257389D02*
X4446245Y-1276436D01*
X4446245Y-1276436D02*
X4436722Y-1285960D01*
X4436722Y-1285960D02*
X4417674Y-1295484D01*
X4417674Y-1295484D02*
X4389103Y-1295484D01*
X4570055Y-1295484D02*
X4551007Y-1285960D01*
X4551007Y-1285960D02*
X4541484Y-1266913D01*
X4541484Y-1266913D02*
X4541484Y-1095484D01*
X4722436Y-1285960D02*
X4703388Y-1295484D01*
X4703388Y-1295484D02*
X4665293Y-1295484D01*
X4665293Y-1295484D02*
X4646245Y-1285960D01*
X4646245Y-1285960D02*
X4636722Y-1266913D01*
X4636722Y-1266913D02*
X4636722Y-1190722D01*
X4636722Y-1190722D02*
X4646245Y-1171674D01*
X4646245Y-1171674D02*
X4665293Y-1162151D01*
X4665293Y-1162151D02*
X4703388Y-1162151D01*
X4703388Y-1162151D02*
X4722436Y-1171674D01*
X4722436Y-1171674D02*
X4731960Y-1190722D01*
X4731960Y-1190722D02*
X4731960Y-1209770D01*
X4731960Y-1209770D02*
X4636722Y-1228817D01*
X4808150Y-1285960D02*
X4827198Y-1295484D01*
X4827198Y-1295484D02*
X4865293Y-1295484D01*
X4865293Y-1295484D02*
X4884341Y-1285960D01*
X4884341Y-1285960D02*
X4893865Y-1266913D01*
X4893865Y-1266913D02*
X4893865Y-1257389D01*
X4893865Y-1257389D02*
X4884341Y-1238341D01*
X4884341Y-1238341D02*
X4865293Y-1228817D01*
X4865293Y-1228817D02*
X4836722Y-1228817D01*
X4836722Y-1228817D02*
X4817674Y-1219294D01*
X4817674Y-1219294D02*
X4808150Y-1200246D01*
X4808150Y-1200246D02*
X4808150Y-1190722D01*
X4808150Y-1190722D02*
X4817674Y-1171674D01*
X4817674Y-1171674D02*
X4836722Y-1162151D01*
X4836722Y-1162151D02*
X4865293Y-1162151D01*
X4865293Y-1162151D02*
X4884341Y-1171674D01*
X4960531Y-1371674D02*
X4970055Y-1362151D01*
X4970055Y-1362151D02*
X4989103Y-1333579D01*
X4989103Y-1333579D02*
X4998626Y-1314532D01*
X4998626Y-1314532D02*
X5008150Y-1285960D01*
X5008150Y-1285960D02*
X5017674Y-1238341D01*
X5017674Y-1238341D02*
X5017674Y-1200246D01*
X5017674Y-1200246D02*
X5008150Y-1152627D01*
X5008150Y-1152627D02*
X4998626Y-1124055D01*
X4998626Y-1124055D02*
X4989103Y-1105008D01*
X4989103Y-1105008D02*
X4970055Y-1076436D01*
X4970055Y-1076436D02*
X4960531Y-1066913D01*
X5322436Y-1371674D02*
X5312912Y-1362151D01*
X5312912Y-1362151D02*
X5293865Y-1333579D01*
X5293865Y-1333579D02*
X5284341Y-1314532D01*
X5284341Y-1314532D02*
X5274817Y-1285960D01*
X5274817Y-1285960D02*
X5265293Y-1238341D01*
X5265293Y-1238341D02*
X5265293Y-1200246D01*
X5265293Y-1200246D02*
X5274817Y-1152627D01*
X5274817Y-1152627D02*
X5284341Y-1124055D01*
X5284341Y-1124055D02*
X5293865Y-1105008D01*
X5293865Y-1105008D02*
X5312912Y-1076436D01*
X5312912Y-1076436D02*
X5322436Y-1066913D01*
X5398626Y-1162151D02*
X5398626Y-1295484D01*
X5398626Y-1181198D02*
X5408150Y-1171674D01*
X5408150Y-1171674D02*
X5427198Y-1162151D01*
X5427198Y-1162151D02*
X5455769Y-1162151D01*
X5455769Y-1162151D02*
X5474817Y-1171674D01*
X5474817Y-1171674D02*
X5484341Y-1190722D01*
X5484341Y-1190722D02*
X5484341Y-1295484D01*
X5608150Y-1295484D02*
X5589103Y-1285960D01*
X5589103Y-1285960D02*
X5579579Y-1276436D01*
X5579579Y-1276436D02*
X5570055Y-1257389D01*
X5570055Y-1257389D02*
X5570055Y-1200246D01*
X5570055Y-1200246D02*
X5579579Y-1181198D01*
X5579579Y-1181198D02*
X5589103Y-1171674D01*
X5589103Y-1171674D02*
X5608150Y-1162151D01*
X5608150Y-1162151D02*
X5636722Y-1162151D01*
X5636722Y-1162151D02*
X5655769Y-1171674D01*
X5655769Y-1171674D02*
X5665293Y-1181198D01*
X5665293Y-1181198D02*
X5674817Y-1200246D01*
X5674817Y-1200246D02*
X5674817Y-1257389D01*
X5674817Y-1257389D02*
X5665293Y-1276436D01*
X5665293Y-1276436D02*
X5655769Y-1285960D01*
X5655769Y-1285960D02*
X5636722Y-1295484D01*
X5636722Y-1295484D02*
X5608150Y-1295484D01*
X5731960Y-1162151D02*
X5808150Y-1162151D01*
X5760531Y-1095484D02*
X5760531Y-1266913D01*
X5760531Y-1266913D02*
X5770055Y-1285960D01*
X5770055Y-1285960D02*
X5789103Y-1295484D01*
X5789103Y-1295484D02*
X5808150Y-1295484D01*
X6027198Y-1162151D02*
X6027198Y-1362151D01*
X6027198Y-1171674D02*
X6046245Y-1162151D01*
X6046245Y-1162151D02*
X6084341Y-1162151D01*
X6084341Y-1162151D02*
X6103388Y-1171674D01*
X6103388Y-1171674D02*
X6112912Y-1181198D01*
X6112912Y-1181198D02*
X6122436Y-1200246D01*
X6122436Y-1200246D02*
X6122436Y-1257389D01*
X6122436Y-1257389D02*
X6112912Y-1276436D01*
X6112912Y-1276436D02*
X6103388Y-1285960D01*
X6103388Y-1285960D02*
X6084341Y-1295484D01*
X6084341Y-1295484D02*
X6046245Y-1295484D01*
X6046245Y-1295484D02*
X6027198Y-1285960D01*
X6236722Y-1295484D02*
X6217674Y-1285960D01*
X6217674Y-1285960D02*
X6208150Y-1266913D01*
X6208150Y-1266913D02*
X6208150Y-1095484D01*
X6398626Y-1295484D02*
X6398626Y-1190722D01*
X6398626Y-1190722D02*
X6389103Y-1171674D01*
X6389103Y-1171674D02*
X6370055Y-1162151D01*
X6370055Y-1162151D02*
X6331960Y-1162151D01*
X6331960Y-1162151D02*
X6312912Y-1171674D01*
X6398626Y-1285960D02*
X6379579Y-1295484D01*
X6379579Y-1295484D02*
X6331960Y-1295484D01*
X6331960Y-1295484D02*
X6312912Y-1285960D01*
X6312912Y-1285960D02*
X6303388Y-1266913D01*
X6303388Y-1266913D02*
X6303388Y-1247865D01*
X6303388Y-1247865D02*
X6312912Y-1228817D01*
X6312912Y-1228817D02*
X6331960Y-1219294D01*
X6331960Y-1219294D02*
X6379579Y-1219294D01*
X6379579Y-1219294D02*
X6398626Y-1209770D01*
X6465293Y-1162151D02*
X6541484Y-1162151D01*
X6493865Y-1095484D02*
X6493865Y-1266913D01*
X6493865Y-1266913D02*
X6503388Y-1285960D01*
X6503388Y-1285960D02*
X6522436Y-1295484D01*
X6522436Y-1295484D02*
X6541484Y-1295484D01*
X6684341Y-1285960D02*
X6665293Y-1295484D01*
X6665293Y-1295484D02*
X6627198Y-1295484D01*
X6627198Y-1295484D02*
X6608150Y-1285960D01*
X6608150Y-1285960D02*
X6598626Y-1266913D01*
X6598626Y-1266913D02*
X6598626Y-1190722D01*
X6598626Y-1190722D02*
X6608150Y-1171674D01*
X6608150Y-1171674D02*
X6627198Y-1162151D01*
X6627198Y-1162151D02*
X6665293Y-1162151D01*
X6665293Y-1162151D02*
X6684341Y-1171674D01*
X6684341Y-1171674D02*
X6693865Y-1190722D01*
X6693865Y-1190722D02*
X6693865Y-1209770D01*
X6693865Y-1209770D02*
X6598626Y-1228817D01*
X6865293Y-1295484D02*
X6865293Y-1095484D01*
X6865293Y-1285960D02*
X6846246Y-1295484D01*
X6846246Y-1295484D02*
X6808150Y-1295484D01*
X6808150Y-1295484D02*
X6789103Y-1285960D01*
X6789103Y-1285960D02*
X6779579Y-1276436D01*
X6779579Y-1276436D02*
X6770055Y-1257389D01*
X6770055Y-1257389D02*
X6770055Y-1200246D01*
X6770055Y-1200246D02*
X6779579Y-1181198D01*
X6779579Y-1181198D02*
X6789103Y-1171674D01*
X6789103Y-1171674D02*
X6808150Y-1162151D01*
X6808150Y-1162151D02*
X6846246Y-1162151D01*
X6846246Y-1162151D02*
X6865293Y-1171674D01*
X6941484Y-1371674D02*
X6951007Y-1362151D01*
X6951007Y-1362151D02*
X6970055Y-1333579D01*
X6970055Y-1333579D02*
X6979579Y-1314532D01*
X6979579Y-1314532D02*
X6989103Y-1285960D01*
X6989103Y-1285960D02*
X6998626Y-1238341D01*
X6998626Y-1238341D02*
X6998626Y-1200246D01*
X6998626Y-1200246D02*
X6989103Y-1152627D01*
X6989103Y-1152627D02*
X6979579Y-1124055D01*
X6979579Y-1124055D02*
X6970055Y-1105008D01*
X6970055Y-1105008D02*
X6951007Y-1076436D01*
X6951007Y-1076436D02*
X6941484Y-1066913D01*
X-34297Y-1594712D02*
X-34297Y-1453289D01*
X-175719Y-1453289D01*
X-175719Y-1594712D01*
X-34297Y-1594712D01*
X236721Y-1415484D02*
X360531Y-1415484D01*
X360531Y-1415484D02*
X293864Y-1491674D01*
X293864Y-1491674D02*
X322436Y-1491674D01*
X322436Y-1491674D02*
X341483Y-1501198D01*
X341483Y-1501198D02*
X351007Y-1510722D01*
X351007Y-1510722D02*
X360531Y-1529770D01*
X360531Y-1529770D02*
X360531Y-1577389D01*
X360531Y-1577389D02*
X351007Y-1596436D01*
X351007Y-1596436D02*
X341483Y-1605960D01*
X341483Y-1605960D02*
X322436Y-1615484D01*
X322436Y-1615484D02*
X265293Y-1615484D01*
X265293Y-1615484D02*
X246245Y-1605960D01*
X246245Y-1605960D02*
X236721Y-1596436D01*
X446245Y-1596436D02*
X455769Y-1605960D01*
X455769Y-1605960D02*
X446245Y-1615484D01*
X446245Y-1615484D02*
X436721Y-1605960D01*
X436721Y-1605960D02*
X446245Y-1596436D01*
X446245Y-1596436D02*
X446245Y-1615484D01*
X579578Y-1415484D02*
X598626Y-1415484D01*
X598626Y-1415484D02*
X617674Y-1425008D01*
X617674Y-1425008D02*
X627197Y-1434532D01*
X627197Y-1434532D02*
X636721Y-1453579D01*
X636721Y-1453579D02*
X646245Y-1491674D01*
X646245Y-1491674D02*
X646245Y-1539293D01*
X646245Y-1539293D02*
X636721Y-1577389D01*
X636721Y-1577389D02*
X627197Y-1596436D01*
X627197Y-1596436D02*
X617674Y-1605960D01*
X617674Y-1605960D02*
X598626Y-1615484D01*
X598626Y-1615484D02*
X579578Y-1615484D01*
X579578Y-1615484D02*
X560531Y-1605960D01*
X560531Y-1605960D02*
X551007Y-1596436D01*
X551007Y-1596436D02*
X541483Y-1577389D01*
X541483Y-1577389D02*
X531959Y-1539293D01*
X531959Y-1539293D02*
X531959Y-1491674D01*
X531959Y-1491674D02*
X541483Y-1453579D01*
X541483Y-1453579D02*
X551007Y-1434532D01*
X551007Y-1434532D02*
X560531Y-1425008D01*
X560531Y-1425008D02*
X579578Y-1415484D01*
X817674Y-1482151D02*
X817674Y-1615484D01*
X770054Y-1405960D02*
X722435Y-1548817D01*
X722435Y-1548817D02*
X846245Y-1548817D01*
X951007Y-1501198D02*
X931959Y-1491674D01*
X931959Y-1491674D02*
X922435Y-1482151D01*
X922435Y-1482151D02*
X912912Y-1463103D01*
X912912Y-1463103D02*
X912912Y-1453579D01*
X912912Y-1453579D02*
X922435Y-1434532D01*
X922435Y-1434532D02*
X931959Y-1425008D01*
X931959Y-1425008D02*
X951007Y-1415484D01*
X951007Y-1415484D02*
X989102Y-1415484D01*
X989102Y-1415484D02*
X1008150Y-1425008D01*
X1008150Y-1425008D02*
X1017674Y-1434532D01*
X1017674Y-1434532D02*
X1027197Y-1453579D01*
X1027197Y-1453579D02*
X1027197Y-1463103D01*
X1027197Y-1463103D02*
X1017674Y-1482151D01*
X1017674Y-1482151D02*
X1008150Y-1491674D01*
X1008150Y-1491674D02*
X989102Y-1501198D01*
X989102Y-1501198D02*
X951007Y-1501198D01*
X951007Y-1501198D02*
X931959Y-1510722D01*
X931959Y-1510722D02*
X922435Y-1520246D01*
X922435Y-1520246D02*
X912912Y-1539293D01*
X912912Y-1539293D02*
X912912Y-1577389D01*
X912912Y-1577389D02*
X922435Y-1596436D01*
X922435Y-1596436D02*
X931959Y-1605960D01*
X931959Y-1605960D02*
X951007Y-1615484D01*
X951007Y-1615484D02*
X989102Y-1615484D01*
X989102Y-1615484D02*
X1008150Y-1605960D01*
X1008150Y-1605960D02*
X1017674Y-1596436D01*
X1017674Y-1596436D02*
X1027197Y-1577389D01*
X1027197Y-1577389D02*
X1027197Y-1539293D01*
X1027197Y-1539293D02*
X1017674Y-1520246D01*
X1017674Y-1520246D02*
X1008150Y-1510722D01*
X1008150Y-1510722D02*
X989102Y-1501198D01*
X1112912Y-1615484D02*
X1112912Y-1482151D01*
X1112912Y-1501198D02*
X1122436Y-1491674D01*
X1122436Y-1491674D02*
X1141483Y-1482151D01*
X1141483Y-1482151D02*
X1170055Y-1482151D01*
X1170055Y-1482151D02*
X1189102Y-1491674D01*
X1189102Y-1491674D02*
X1198626Y-1510722D01*
X1198626Y-1510722D02*
X1198626Y-1615484D01*
X1198626Y-1510722D02*
X1208150Y-1491674D01*
X1208150Y-1491674D02*
X1227197Y-1482151D01*
X1227197Y-1482151D02*
X1255769Y-1482151D01*
X1255769Y-1482151D02*
X1274817Y-1491674D01*
X1274817Y-1491674D02*
X1284340Y-1510722D01*
X1284340Y-1510722D02*
X1284340Y-1615484D01*
X1379578Y-1615484D02*
X1379578Y-1482151D01*
X1379578Y-1501198D02*
X1389102Y-1491674D01*
X1389102Y-1491674D02*
X1408150Y-1482151D01*
X1408150Y-1482151D02*
X1436721Y-1482151D01*
X1436721Y-1482151D02*
X1455769Y-1491674D01*
X1455769Y-1491674D02*
X1465293Y-1510722D01*
X1465293Y-1510722D02*
X1465293Y-1615484D01*
X1465293Y-1510722D02*
X1474816Y-1491674D01*
X1474816Y-1491674D02*
X1493864Y-1482151D01*
X1493864Y-1482151D02*
X1522435Y-1482151D01*
X1522435Y-1482151D02*
X1541483Y-1491674D01*
X1541483Y-1491674D02*
X1551007Y-1510722D01*
X1551007Y-1510722D02*
X1551007Y-1615484D01*
X1941483Y-1405960D02*
X1770055Y-1663103D01*
X2198626Y-1415484D02*
X2217674Y-1415484D01*
X2217674Y-1415484D02*
X2236721Y-1425008D01*
X2236721Y-1425008D02*
X2246245Y-1434532D01*
X2246245Y-1434532D02*
X2255769Y-1453579D01*
X2255769Y-1453579D02*
X2265293Y-1491674D01*
X2265293Y-1491674D02*
X2265293Y-1539293D01*
X2265293Y-1539293D02*
X2255769Y-1577389D01*
X2255769Y-1577389D02*
X2246245Y-1596436D01*
X2246245Y-1596436D02*
X2236721Y-1605960D01*
X2236721Y-1605960D02*
X2217674Y-1615484D01*
X2217674Y-1615484D02*
X2198626Y-1615484D01*
X2198626Y-1615484D02*
X2179579Y-1605960D01*
X2179579Y-1605960D02*
X2170055Y-1596436D01*
X2170055Y-1596436D02*
X2160531Y-1577389D01*
X2160531Y-1577389D02*
X2151007Y-1539293D01*
X2151007Y-1539293D02*
X2151007Y-1491674D01*
X2151007Y-1491674D02*
X2160531Y-1453579D01*
X2160531Y-1453579D02*
X2170055Y-1434532D01*
X2170055Y-1434532D02*
X2179579Y-1425008D01*
X2179579Y-1425008D02*
X2198626Y-1415484D01*
X2351007Y-1596436D02*
X2360531Y-1605960D01*
X2360531Y-1605960D02*
X2351007Y-1615484D01*
X2351007Y-1615484D02*
X2341483Y-1605960D01*
X2341483Y-1605960D02*
X2351007Y-1596436D01*
X2351007Y-1596436D02*
X2351007Y-1615484D01*
X2551007Y-1615484D02*
X2436721Y-1615484D01*
X2493864Y-1615484D02*
X2493864Y-1415484D01*
X2493864Y-1415484D02*
X2474817Y-1444055D01*
X2474817Y-1444055D02*
X2455769Y-1463103D01*
X2455769Y-1463103D02*
X2436721Y-1472627D01*
X2627198Y-1434532D02*
X2636721Y-1425008D01*
X2636721Y-1425008D02*
X2655769Y-1415484D01*
X2655769Y-1415484D02*
X2703388Y-1415484D01*
X2703388Y-1415484D02*
X2722436Y-1425008D01*
X2722436Y-1425008D02*
X2731960Y-1434532D01*
X2731960Y-1434532D02*
X2741483Y-1453579D01*
X2741483Y-1453579D02*
X2741483Y-1472627D01*
X2741483Y-1472627D02*
X2731960Y-1501198D01*
X2731960Y-1501198D02*
X2617674Y-1615484D01*
X2617674Y-1615484D02*
X2741483Y-1615484D01*
X2865293Y-1415484D02*
X2884340Y-1415484D01*
X2884340Y-1415484D02*
X2903388Y-1425008D01*
X2903388Y-1425008D02*
X2912912Y-1434532D01*
X2912912Y-1434532D02*
X2922436Y-1453579D01*
X2922436Y-1453579D02*
X2931959Y-1491674D01*
X2931959Y-1491674D02*
X2931959Y-1539293D01*
X2931959Y-1539293D02*
X2922436Y-1577389D01*
X2922436Y-1577389D02*
X2912912Y-1596436D01*
X2912912Y-1596436D02*
X2903388Y-1605960D01*
X2903388Y-1605960D02*
X2884340Y-1615484D01*
X2884340Y-1615484D02*
X2865293Y-1615484D01*
X2865293Y-1615484D02*
X2846245Y-1605960D01*
X2846245Y-1605960D02*
X2836721Y-1596436D01*
X2836721Y-1596436D02*
X2827198Y-1577389D01*
X2827198Y-1577389D02*
X2817674Y-1539293D01*
X2817674Y-1539293D02*
X2817674Y-1491674D01*
X2817674Y-1491674D02*
X2827198Y-1453579D01*
X2827198Y-1453579D02*
X2836721Y-1434532D01*
X2836721Y-1434532D02*
X2846245Y-1425008D01*
X2846245Y-1425008D02*
X2865293Y-1415484D01*
X3055769Y-1415484D02*
X3074817Y-1415484D01*
X3074817Y-1415484D02*
X3093864Y-1425008D01*
X3093864Y-1425008D02*
X3103388Y-1434532D01*
X3103388Y-1434532D02*
X3112912Y-1453579D01*
X3112912Y-1453579D02*
X3122436Y-1491674D01*
X3122436Y-1491674D02*
X3122436Y-1539293D01*
X3122436Y-1539293D02*
X3112912Y-1577389D01*
X3112912Y-1577389D02*
X3103388Y-1596436D01*
X3103388Y-1596436D02*
X3093864Y-1605960D01*
X3093864Y-1605960D02*
X3074817Y-1615484D01*
X3074817Y-1615484D02*
X3055769Y-1615484D01*
X3055769Y-1615484D02*
X3036721Y-1605960D01*
X3036721Y-1605960D02*
X3027198Y-1596436D01*
X3027198Y-1596436D02*
X3017674Y-1577389D01*
X3017674Y-1577389D02*
X3008150Y-1539293D01*
X3008150Y-1539293D02*
X3008150Y-1491674D01*
X3008150Y-1491674D02*
X3017674Y-1453579D01*
X3017674Y-1453579D02*
X3027198Y-1434532D01*
X3027198Y-1434532D02*
X3036721Y-1425008D01*
X3036721Y-1425008D02*
X3055769Y-1415484D01*
X3198626Y-1415484D02*
X3198626Y-1453579D01*
X3274817Y-1415484D02*
X3274817Y-1453579D01*
X3570055Y-1691674D02*
X3560531Y-1682151D01*
X3560531Y-1682151D02*
X3541483Y-1653579D01*
X3541483Y-1653579D02*
X3531960Y-1634532D01*
X3531960Y-1634532D02*
X3522436Y-1605960D01*
X3522436Y-1605960D02*
X3512912Y-1558341D01*
X3512912Y-1558341D02*
X3512912Y-1520246D01*
X3512912Y-1520246D02*
X3522436Y-1472627D01*
X3522436Y-1472627D02*
X3531960Y-1444055D01*
X3531960Y-1444055D02*
X3541483Y-1425008D01*
X3541483Y-1425008D02*
X3560531Y-1396436D01*
X3560531Y-1396436D02*
X3570055Y-1386913D01*
X3751007Y-1615484D02*
X3636721Y-1615484D01*
X3693864Y-1615484D02*
X3693864Y-1415484D01*
X3693864Y-1415484D02*
X3674817Y-1444055D01*
X3674817Y-1444055D02*
X3655769Y-1463103D01*
X3655769Y-1463103D02*
X3636721Y-1472627D01*
X3827198Y-1434532D02*
X3836721Y-1425008D01*
X3836721Y-1425008D02*
X3855769Y-1415484D01*
X3855769Y-1415484D02*
X3903388Y-1415484D01*
X3903388Y-1415484D02*
X3922436Y-1425008D01*
X3922436Y-1425008D02*
X3931960Y-1434532D01*
X3931960Y-1434532D02*
X3941483Y-1453579D01*
X3941483Y-1453579D02*
X3941483Y-1472627D01*
X3941483Y-1472627D02*
X3931960Y-1501198D01*
X3931960Y-1501198D02*
X3817674Y-1615484D01*
X3817674Y-1615484D02*
X3941483Y-1615484D01*
X4179579Y-1615484D02*
X4179579Y-1415484D01*
X4265293Y-1615484D02*
X4265293Y-1510722D01*
X4265293Y-1510722D02*
X4255769Y-1491674D01*
X4255769Y-1491674D02*
X4236722Y-1482151D01*
X4236722Y-1482151D02*
X4208150Y-1482151D01*
X4208150Y-1482151D02*
X4189102Y-1491674D01*
X4189102Y-1491674D02*
X4179579Y-1501198D01*
X4389103Y-1615484D02*
X4370055Y-1605960D01*
X4370055Y-1605960D02*
X4360531Y-1596436D01*
X4360531Y-1596436D02*
X4351007Y-1577389D01*
X4351007Y-1577389D02*
X4351007Y-1520246D01*
X4351007Y-1520246D02*
X4360531Y-1501198D01*
X4360531Y-1501198D02*
X4370055Y-1491674D01*
X4370055Y-1491674D02*
X4389103Y-1482151D01*
X4389103Y-1482151D02*
X4417674Y-1482151D01*
X4417674Y-1482151D02*
X4436722Y-1491674D01*
X4436722Y-1491674D02*
X4446245Y-1501198D01*
X4446245Y-1501198D02*
X4455769Y-1520246D01*
X4455769Y-1520246D02*
X4455769Y-1577389D01*
X4455769Y-1577389D02*
X4446245Y-1596436D01*
X4446245Y-1596436D02*
X4436722Y-1605960D01*
X4436722Y-1605960D02*
X4417674Y-1615484D01*
X4417674Y-1615484D02*
X4389103Y-1615484D01*
X4570055Y-1615484D02*
X4551007Y-1605960D01*
X4551007Y-1605960D02*
X4541484Y-1586912D01*
X4541484Y-1586912D02*
X4541484Y-1415484D01*
X4722436Y-1605960D02*
X4703388Y-1615484D01*
X4703388Y-1615484D02*
X4665293Y-1615484D01*
X4665293Y-1615484D02*
X4646245Y-1605960D01*
X4646245Y-1605960D02*
X4636722Y-1586912D01*
X4636722Y-1586912D02*
X4636722Y-1510722D01*
X4636722Y-1510722D02*
X4646245Y-1491674D01*
X4646245Y-1491674D02*
X4665293Y-1482151D01*
X4665293Y-1482151D02*
X4703388Y-1482151D01*
X4703388Y-1482151D02*
X4722436Y-1491674D01*
X4722436Y-1491674D02*
X4731960Y-1510722D01*
X4731960Y-1510722D02*
X4731960Y-1529770D01*
X4731960Y-1529770D02*
X4636722Y-1548817D01*
X4808150Y-1605960D02*
X4827198Y-1615484D01*
X4827198Y-1615484D02*
X4865293Y-1615484D01*
X4865293Y-1615484D02*
X4884341Y-1605960D01*
X4884341Y-1605960D02*
X4893865Y-1586912D01*
X4893865Y-1586912D02*
X4893865Y-1577389D01*
X4893865Y-1577389D02*
X4884341Y-1558341D01*
X4884341Y-1558341D02*
X4865293Y-1548817D01*
X4865293Y-1548817D02*
X4836722Y-1548817D01*
X4836722Y-1548817D02*
X4817674Y-1539293D01*
X4817674Y-1539293D02*
X4808150Y-1520246D01*
X4808150Y-1520246D02*
X4808150Y-1510722D01*
X4808150Y-1510722D02*
X4817674Y-1491674D01*
X4817674Y-1491674D02*
X4836722Y-1482151D01*
X4836722Y-1482151D02*
X4865293Y-1482151D01*
X4865293Y-1482151D02*
X4884341Y-1491674D01*
X4960531Y-1691674D02*
X4970055Y-1682151D01*
X4970055Y-1682151D02*
X4989103Y-1653579D01*
X4989103Y-1653579D02*
X4998626Y-1634532D01*
X4998626Y-1634532D02*
X5008150Y-1605960D01*
X5008150Y-1605960D02*
X5017674Y-1558341D01*
X5017674Y-1558341D02*
X5017674Y-1520246D01*
X5017674Y-1520246D02*
X5008150Y-1472627D01*
X5008150Y-1472627D02*
X4998626Y-1444055D01*
X4998626Y-1444055D02*
X4989103Y-1425008D01*
X4989103Y-1425008D02*
X4970055Y-1396436D01*
X4970055Y-1396436D02*
X4960531Y-1386913D01*
X5322436Y-1691674D02*
X5312912Y-1682151D01*
X5312912Y-1682151D02*
X5293865Y-1653579D01*
X5293865Y-1653579D02*
X5284341Y-1634532D01*
X5284341Y-1634532D02*
X5274817Y-1605960D01*
X5274817Y-1605960D02*
X5265293Y-1558341D01*
X5265293Y-1558341D02*
X5265293Y-1520246D01*
X5265293Y-1520246D02*
X5274817Y-1472627D01*
X5274817Y-1472627D02*
X5284341Y-1444055D01*
X5284341Y-1444055D02*
X5293865Y-1425008D01*
X5293865Y-1425008D02*
X5312912Y-1396436D01*
X5312912Y-1396436D02*
X5322436Y-1386913D01*
X5398626Y-1482151D02*
X5398626Y-1615484D01*
X5398626Y-1501198D02*
X5408150Y-1491674D01*
X5408150Y-1491674D02*
X5427198Y-1482151D01*
X5427198Y-1482151D02*
X5455769Y-1482151D01*
X5455769Y-1482151D02*
X5474817Y-1491674D01*
X5474817Y-1491674D02*
X5484341Y-1510722D01*
X5484341Y-1510722D02*
X5484341Y-1615484D01*
X5608150Y-1615484D02*
X5589103Y-1605960D01*
X5589103Y-1605960D02*
X5579579Y-1596436D01*
X5579579Y-1596436D02*
X5570055Y-1577389D01*
X5570055Y-1577389D02*
X5570055Y-1520246D01*
X5570055Y-1520246D02*
X5579579Y-1501198D01*
X5579579Y-1501198D02*
X5589103Y-1491674D01*
X5589103Y-1491674D02*
X5608150Y-1482151D01*
X5608150Y-1482151D02*
X5636722Y-1482151D01*
X5636722Y-1482151D02*
X5655769Y-1491674D01*
X5655769Y-1491674D02*
X5665293Y-1501198D01*
X5665293Y-1501198D02*
X5674817Y-1520246D01*
X5674817Y-1520246D02*
X5674817Y-1577389D01*
X5674817Y-1577389D02*
X5665293Y-1596436D01*
X5665293Y-1596436D02*
X5655769Y-1605960D01*
X5655769Y-1605960D02*
X5636722Y-1615484D01*
X5636722Y-1615484D02*
X5608150Y-1615484D01*
X5731960Y-1482151D02*
X5808150Y-1482151D01*
X5760531Y-1415484D02*
X5760531Y-1586912D01*
X5760531Y-1586912D02*
X5770055Y-1605960D01*
X5770055Y-1605960D02*
X5789103Y-1615484D01*
X5789103Y-1615484D02*
X5808150Y-1615484D01*
X6027198Y-1482151D02*
X6027198Y-1682151D01*
X6027198Y-1491674D02*
X6046245Y-1482151D01*
X6046245Y-1482151D02*
X6084341Y-1482151D01*
X6084341Y-1482151D02*
X6103388Y-1491674D01*
X6103388Y-1491674D02*
X6112912Y-1501198D01*
X6112912Y-1501198D02*
X6122436Y-1520246D01*
X6122436Y-1520246D02*
X6122436Y-1577389D01*
X6122436Y-1577389D02*
X6112912Y-1596436D01*
X6112912Y-1596436D02*
X6103388Y-1605960D01*
X6103388Y-1605960D02*
X6084341Y-1615484D01*
X6084341Y-1615484D02*
X6046245Y-1615484D01*
X6046245Y-1615484D02*
X6027198Y-1605960D01*
X6236722Y-1615484D02*
X6217674Y-1605960D01*
X6217674Y-1605960D02*
X6208150Y-1586912D01*
X6208150Y-1586912D02*
X6208150Y-1415484D01*
X6398626Y-1615484D02*
X6398626Y-1510722D01*
X6398626Y-1510722D02*
X6389103Y-1491674D01*
X6389103Y-1491674D02*
X6370055Y-1482151D01*
X6370055Y-1482151D02*
X6331960Y-1482151D01*
X6331960Y-1482151D02*
X6312912Y-1491674D01*
X6398626Y-1605960D02*
X6379579Y-1615484D01*
X6379579Y-1615484D02*
X6331960Y-1615484D01*
X6331960Y-1615484D02*
X6312912Y-1605960D01*
X6312912Y-1605960D02*
X6303388Y-1586912D01*
X6303388Y-1586912D02*
X6303388Y-1567865D01*
X6303388Y-1567865D02*
X6312912Y-1548817D01*
X6312912Y-1548817D02*
X6331960Y-1539293D01*
X6331960Y-1539293D02*
X6379579Y-1539293D01*
X6379579Y-1539293D02*
X6398626Y-1529770D01*
X6465293Y-1482151D02*
X6541484Y-1482151D01*
X6493865Y-1415484D02*
X6493865Y-1586912D01*
X6493865Y-1586912D02*
X6503388Y-1605960D01*
X6503388Y-1605960D02*
X6522436Y-1615484D01*
X6522436Y-1615484D02*
X6541484Y-1615484D01*
X6684341Y-1605960D02*
X6665293Y-1615484D01*
X6665293Y-1615484D02*
X6627198Y-1615484D01*
X6627198Y-1615484D02*
X6608150Y-1605960D01*
X6608150Y-1605960D02*
X6598626Y-1586912D01*
X6598626Y-1586912D02*
X6598626Y-1510722D01*
X6598626Y-1510722D02*
X6608150Y-1491674D01*
X6608150Y-1491674D02*
X6627198Y-1482151D01*
X6627198Y-1482151D02*
X6665293Y-1482151D01*
X6665293Y-1482151D02*
X6684341Y-1491674D01*
X6684341Y-1491674D02*
X6693865Y-1510722D01*
X6693865Y-1510722D02*
X6693865Y-1529770D01*
X6693865Y-1529770D02*
X6598626Y-1548817D01*
X6865293Y-1615484D02*
X6865293Y-1415484D01*
X6865293Y-1605960D02*
X6846246Y-1615484D01*
X6846246Y-1615484D02*
X6808150Y-1615484D01*
X6808150Y-1615484D02*
X6789103Y-1605960D01*
X6789103Y-1605960D02*
X6779579Y-1596436D01*
X6779579Y-1596436D02*
X6770055Y-1577389D01*
X6770055Y-1577389D02*
X6770055Y-1520246D01*
X6770055Y-1520246D02*
X6779579Y-1501198D01*
X6779579Y-1501198D02*
X6789103Y-1491674D01*
X6789103Y-1491674D02*
X6808150Y-1482151D01*
X6808150Y-1482151D02*
X6846246Y-1482151D01*
X6846246Y-1482151D02*
X6865293Y-1491674D01*
X6941484Y-1691674D02*
X6951007Y-1682151D01*
X6951007Y-1682151D02*
X6970055Y-1653579D01*
X6970055Y-1653579D02*
X6979579Y-1634532D01*
X6979579Y-1634532D02*
X6989103Y-1605960D01*
X6989103Y-1605960D02*
X6998626Y-1558341D01*
X6998626Y-1558341D02*
X6998626Y-1520246D01*
X6998626Y-1520246D02*
X6989103Y-1472627D01*
X6989103Y-1472627D02*
X6979579Y-1444055D01*
X6979579Y-1444055D02*
X6970055Y-1425008D01*
X6970055Y-1425008D02*
X6951007Y-1396436D01*
X6951007Y-1396436D02*
X6941484Y-1386913D01*
X-105008Y-1944000D02*
X-5008Y-1844000D01*
X-105008Y-1744000D01*
X-205008Y-1844000D01*
X-105008Y-1944000D01*
X236721Y-1735484D02*
X360531Y-1735484D01*
X360531Y-1735484D02*
X293864Y-1811674D01*
X293864Y-1811674D02*
X322436Y-1811674D01*
X322436Y-1811674D02*
X341483Y-1821198D01*
X341483Y-1821198D02*
X351007Y-1830722D01*
X351007Y-1830722D02*
X360531Y-1849770D01*
X360531Y-1849770D02*
X360531Y-1897389D01*
X360531Y-1897389D02*
X351007Y-1916436D01*
X351007Y-1916436D02*
X341483Y-1925960D01*
X341483Y-1925960D02*
X322436Y-1935484D01*
X322436Y-1935484D02*
X265293Y-1935484D01*
X265293Y-1935484D02*
X246245Y-1925960D01*
X246245Y-1925960D02*
X236721Y-1916436D01*
X446245Y-1916436D02*
X455769Y-1925960D01*
X455769Y-1925960D02*
X446245Y-1935484D01*
X446245Y-1935484D02*
X436721Y-1925960D01*
X436721Y-1925960D02*
X446245Y-1916436D01*
X446245Y-1916436D02*
X446245Y-1935484D01*
X551007Y-1935484D02*
X589102Y-1935484D01*
X589102Y-1935484D02*
X608150Y-1925960D01*
X608150Y-1925960D02*
X617674Y-1916436D01*
X617674Y-1916436D02*
X636721Y-1887865D01*
X636721Y-1887865D02*
X646245Y-1849770D01*
X646245Y-1849770D02*
X646245Y-1773579D01*
X646245Y-1773579D02*
X636721Y-1754532D01*
X636721Y-1754532D02*
X627197Y-1745008D01*
X627197Y-1745008D02*
X608150Y-1735484D01*
X608150Y-1735484D02*
X570055Y-1735484D01*
X570055Y-1735484D02*
X551007Y-1745008D01*
X551007Y-1745008D02*
X541483Y-1754532D01*
X541483Y-1754532D02*
X531959Y-1773579D01*
X531959Y-1773579D02*
X531959Y-1821198D01*
X531959Y-1821198D02*
X541483Y-1840246D01*
X541483Y-1840246D02*
X551007Y-1849770D01*
X551007Y-1849770D02*
X570055Y-1859293D01*
X570055Y-1859293D02*
X608150Y-1859293D01*
X608150Y-1859293D02*
X627197Y-1849770D01*
X627197Y-1849770D02*
X636721Y-1840246D01*
X636721Y-1840246D02*
X646245Y-1821198D01*
X760531Y-1821198D02*
X741483Y-1811674D01*
X741483Y-1811674D02*
X731959Y-1802151D01*
X731959Y-1802151D02*
X722435Y-1783103D01*
X722435Y-1783103D02*
X722435Y-1773579D01*
X722435Y-1773579D02*
X731959Y-1754532D01*
X731959Y-1754532D02*
X741483Y-1745008D01*
X741483Y-1745008D02*
X760531Y-1735484D01*
X760531Y-1735484D02*
X798626Y-1735484D01*
X798626Y-1735484D02*
X817674Y-1745008D01*
X817674Y-1745008D02*
X827197Y-1754532D01*
X827197Y-1754532D02*
X836721Y-1773579D01*
X836721Y-1773579D02*
X836721Y-1783103D01*
X836721Y-1783103D02*
X827197Y-1802151D01*
X827197Y-1802151D02*
X817674Y-1811674D01*
X817674Y-1811674D02*
X798626Y-1821198D01*
X798626Y-1821198D02*
X760531Y-1821198D01*
X760531Y-1821198D02*
X741483Y-1830722D01*
X741483Y-1830722D02*
X731959Y-1840246D01*
X731959Y-1840246D02*
X722435Y-1859293D01*
X722435Y-1859293D02*
X722435Y-1897389D01*
X722435Y-1897389D02*
X731959Y-1916436D01*
X731959Y-1916436D02*
X741483Y-1925960D01*
X741483Y-1925960D02*
X760531Y-1935484D01*
X760531Y-1935484D02*
X798626Y-1935484D01*
X798626Y-1935484D02*
X817674Y-1925960D01*
X817674Y-1925960D02*
X827197Y-1916436D01*
X827197Y-1916436D02*
X836721Y-1897389D01*
X836721Y-1897389D02*
X836721Y-1859293D01*
X836721Y-1859293D02*
X827197Y-1840246D01*
X827197Y-1840246D02*
X817674Y-1830722D01*
X817674Y-1830722D02*
X798626Y-1821198D01*
X951007Y-1821198D02*
X931959Y-1811674D01*
X931959Y-1811674D02*
X922435Y-1802151D01*
X922435Y-1802151D02*
X912912Y-1783103D01*
X912912Y-1783103D02*
X912912Y-1773579D01*
X912912Y-1773579D02*
X922435Y-1754532D01*
X922435Y-1754532D02*
X931959Y-1745008D01*
X931959Y-1745008D02*
X951007Y-1735484D01*
X951007Y-1735484D02*
X989102Y-1735484D01*
X989102Y-1735484D02*
X1008150Y-1745008D01*
X1008150Y-1745008D02*
X1017674Y-1754532D01*
X1017674Y-1754532D02*
X1027197Y-1773579D01*
X1027197Y-1773579D02*
X1027197Y-1783103D01*
X1027197Y-1783103D02*
X1017674Y-1802151D01*
X1017674Y-1802151D02*
X1008150Y-1811674D01*
X1008150Y-1811674D02*
X989102Y-1821198D01*
X989102Y-1821198D02*
X951007Y-1821198D01*
X951007Y-1821198D02*
X931959Y-1830722D01*
X931959Y-1830722D02*
X922435Y-1840246D01*
X922435Y-1840246D02*
X912912Y-1859293D01*
X912912Y-1859293D02*
X912912Y-1897389D01*
X912912Y-1897389D02*
X922435Y-1916436D01*
X922435Y-1916436D02*
X931959Y-1925960D01*
X931959Y-1925960D02*
X951007Y-1935484D01*
X951007Y-1935484D02*
X989102Y-1935484D01*
X989102Y-1935484D02*
X1008150Y-1925960D01*
X1008150Y-1925960D02*
X1017674Y-1916436D01*
X1017674Y-1916436D02*
X1027197Y-1897389D01*
X1027197Y-1897389D02*
X1027197Y-1859293D01*
X1027197Y-1859293D02*
X1017674Y-1840246D01*
X1017674Y-1840246D02*
X1008150Y-1830722D01*
X1008150Y-1830722D02*
X989102Y-1821198D01*
X1112912Y-1935484D02*
X1112912Y-1802151D01*
X1112912Y-1821198D02*
X1122436Y-1811674D01*
X1122436Y-1811674D02*
X1141483Y-1802151D01*
X1141483Y-1802151D02*
X1170055Y-1802151D01*
X1170055Y-1802151D02*
X1189102Y-1811674D01*
X1189102Y-1811674D02*
X1198626Y-1830722D01*
X1198626Y-1830722D02*
X1198626Y-1935484D01*
X1198626Y-1830722D02*
X1208150Y-1811674D01*
X1208150Y-1811674D02*
X1227197Y-1802151D01*
X1227197Y-1802151D02*
X1255769Y-1802151D01*
X1255769Y-1802151D02*
X1274817Y-1811674D01*
X1274817Y-1811674D02*
X1284340Y-1830722D01*
X1284340Y-1830722D02*
X1284340Y-1935484D01*
X1379578Y-1935484D02*
X1379578Y-1802151D01*
X1379578Y-1821198D02*
X1389102Y-1811674D01*
X1389102Y-1811674D02*
X1408150Y-1802151D01*
X1408150Y-1802151D02*
X1436721Y-1802151D01*
X1436721Y-1802151D02*
X1455769Y-1811674D01*
X1455769Y-1811674D02*
X1465293Y-1830722D01*
X1465293Y-1830722D02*
X1465293Y-1935484D01*
X1465293Y-1830722D02*
X1474816Y-1811674D01*
X1474816Y-1811674D02*
X1493864Y-1802151D01*
X1493864Y-1802151D02*
X1522435Y-1802151D01*
X1522435Y-1802151D02*
X1541483Y-1811674D01*
X1541483Y-1811674D02*
X1551007Y-1830722D01*
X1551007Y-1830722D02*
X1551007Y-1935484D01*
X1941483Y-1725960D02*
X1770055Y-1983103D01*
X2198626Y-1735484D02*
X2217674Y-1735484D01*
X2217674Y-1735484D02*
X2236721Y-1745008D01*
X2236721Y-1745008D02*
X2246245Y-1754532D01*
X2246245Y-1754532D02*
X2255769Y-1773579D01*
X2255769Y-1773579D02*
X2265293Y-1811674D01*
X2265293Y-1811674D02*
X2265293Y-1859293D01*
X2265293Y-1859293D02*
X2255769Y-1897389D01*
X2255769Y-1897389D02*
X2246245Y-1916436D01*
X2246245Y-1916436D02*
X2236721Y-1925960D01*
X2236721Y-1925960D02*
X2217674Y-1935484D01*
X2217674Y-1935484D02*
X2198626Y-1935484D01*
X2198626Y-1935484D02*
X2179579Y-1925960D01*
X2179579Y-1925960D02*
X2170055Y-1916436D01*
X2170055Y-1916436D02*
X2160531Y-1897389D01*
X2160531Y-1897389D02*
X2151007Y-1859293D01*
X2151007Y-1859293D02*
X2151007Y-1811674D01*
X2151007Y-1811674D02*
X2160531Y-1773579D01*
X2160531Y-1773579D02*
X2170055Y-1754532D01*
X2170055Y-1754532D02*
X2179579Y-1745008D01*
X2179579Y-1745008D02*
X2198626Y-1735484D01*
X2351007Y-1916436D02*
X2360531Y-1925960D01*
X2360531Y-1925960D02*
X2351007Y-1935484D01*
X2351007Y-1935484D02*
X2341483Y-1925960D01*
X2341483Y-1925960D02*
X2351007Y-1916436D01*
X2351007Y-1916436D02*
X2351007Y-1935484D01*
X2551007Y-1935484D02*
X2436721Y-1935484D01*
X2493864Y-1935484D02*
X2493864Y-1735484D01*
X2493864Y-1735484D02*
X2474817Y-1764055D01*
X2474817Y-1764055D02*
X2455769Y-1783103D01*
X2455769Y-1783103D02*
X2436721Y-1792627D01*
X2731960Y-1735484D02*
X2636721Y-1735484D01*
X2636721Y-1735484D02*
X2627198Y-1830722D01*
X2627198Y-1830722D02*
X2636721Y-1821198D01*
X2636721Y-1821198D02*
X2655769Y-1811674D01*
X2655769Y-1811674D02*
X2703388Y-1811674D01*
X2703388Y-1811674D02*
X2722436Y-1821198D01*
X2722436Y-1821198D02*
X2731960Y-1830722D01*
X2731960Y-1830722D02*
X2741483Y-1849770D01*
X2741483Y-1849770D02*
X2741483Y-1897389D01*
X2741483Y-1897389D02*
X2731960Y-1916436D01*
X2731960Y-1916436D02*
X2722436Y-1925960D01*
X2722436Y-1925960D02*
X2703388Y-1935484D01*
X2703388Y-1935484D02*
X2655769Y-1935484D01*
X2655769Y-1935484D02*
X2636721Y-1925960D01*
X2636721Y-1925960D02*
X2627198Y-1916436D01*
X2808150Y-1735484D02*
X2941483Y-1735484D01*
X2941483Y-1735484D02*
X2855769Y-1935484D01*
X3055769Y-1735484D02*
X3074817Y-1735484D01*
X3074817Y-1735484D02*
X3093864Y-1745008D01*
X3093864Y-1745008D02*
X3103388Y-1754532D01*
X3103388Y-1754532D02*
X3112912Y-1773579D01*
X3112912Y-1773579D02*
X3122436Y-1811674D01*
X3122436Y-1811674D02*
X3122436Y-1859293D01*
X3122436Y-1859293D02*
X3112912Y-1897389D01*
X3112912Y-1897389D02*
X3103388Y-1916436D01*
X3103388Y-1916436D02*
X3093864Y-1925960D01*
X3093864Y-1925960D02*
X3074817Y-1935484D01*
X3074817Y-1935484D02*
X3055769Y-1935484D01*
X3055769Y-1935484D02*
X3036721Y-1925960D01*
X3036721Y-1925960D02*
X3027198Y-1916436D01*
X3027198Y-1916436D02*
X3017674Y-1897389D01*
X3017674Y-1897389D02*
X3008150Y-1859293D01*
X3008150Y-1859293D02*
X3008150Y-1811674D01*
X3008150Y-1811674D02*
X3017674Y-1773579D01*
X3017674Y-1773579D02*
X3027198Y-1754532D01*
X3027198Y-1754532D02*
X3036721Y-1745008D01*
X3036721Y-1745008D02*
X3055769Y-1735484D01*
X3198626Y-1735484D02*
X3198626Y-1773579D01*
X3274817Y-1735484D02*
X3274817Y-1773579D01*
X3570055Y-2011674D02*
X3560531Y-2002151D01*
X3560531Y-2002151D02*
X3541483Y-1973579D01*
X3541483Y-1973579D02*
X3531960Y-1954532D01*
X3531960Y-1954532D02*
X3522436Y-1925960D01*
X3522436Y-1925960D02*
X3512912Y-1878341D01*
X3512912Y-1878341D02*
X3512912Y-1840246D01*
X3512912Y-1840246D02*
X3522436Y-1792627D01*
X3522436Y-1792627D02*
X3531960Y-1764055D01*
X3531960Y-1764055D02*
X3541483Y-1745008D01*
X3541483Y-1745008D02*
X3560531Y-1716436D01*
X3560531Y-1716436D02*
X3570055Y-1706912D01*
X3731960Y-1802151D02*
X3731960Y-1935484D01*
X3684340Y-1725960D02*
X3636721Y-1868817D01*
X3636721Y-1868817D02*
X3760531Y-1868817D01*
X3846245Y-1935484D02*
X3884340Y-1935484D01*
X3884340Y-1935484D02*
X3903388Y-1925960D01*
X3903388Y-1925960D02*
X3912912Y-1916436D01*
X3912912Y-1916436D02*
X3931960Y-1887865D01*
X3931960Y-1887865D02*
X3941483Y-1849770D01*
X3941483Y-1849770D02*
X3941483Y-1773579D01*
X3941483Y-1773579D02*
X3931960Y-1754532D01*
X3931960Y-1754532D02*
X3922436Y-1745008D01*
X3922436Y-1745008D02*
X3903388Y-1735484D01*
X3903388Y-1735484D02*
X3865293Y-1735484D01*
X3865293Y-1735484D02*
X3846245Y-1745008D01*
X3846245Y-1745008D02*
X3836721Y-1754532D01*
X3836721Y-1754532D02*
X3827198Y-1773579D01*
X3827198Y-1773579D02*
X3827198Y-1821198D01*
X3827198Y-1821198D02*
X3836721Y-1840246D01*
X3836721Y-1840246D02*
X3846245Y-1849770D01*
X3846245Y-1849770D02*
X3865293Y-1859293D01*
X3865293Y-1859293D02*
X3903388Y-1859293D01*
X3903388Y-1859293D02*
X3922436Y-1849770D01*
X3922436Y-1849770D02*
X3931960Y-1840246D01*
X3931960Y-1840246D02*
X3941483Y-1821198D01*
X4179579Y-1935484D02*
X4179579Y-1735484D01*
X4265293Y-1935484D02*
X4265293Y-1830722D01*
X4265293Y-1830722D02*
X4255769Y-1811674D01*
X4255769Y-1811674D02*
X4236722Y-1802151D01*
X4236722Y-1802151D02*
X4208150Y-1802151D01*
X4208150Y-1802151D02*
X4189102Y-1811674D01*
X4189102Y-1811674D02*
X4179579Y-1821198D01*
X4389103Y-1935484D02*
X4370055Y-1925960D01*
X4370055Y-1925960D02*
X4360531Y-1916436D01*
X4360531Y-1916436D02*
X4351007Y-1897389D01*
X4351007Y-1897389D02*
X4351007Y-1840246D01*
X4351007Y-1840246D02*
X4360531Y-1821198D01*
X4360531Y-1821198D02*
X4370055Y-1811674D01*
X4370055Y-1811674D02*
X4389103Y-1802151D01*
X4389103Y-1802151D02*
X4417674Y-1802151D01*
X4417674Y-1802151D02*
X4436722Y-1811674D01*
X4436722Y-1811674D02*
X4446245Y-1821198D01*
X4446245Y-1821198D02*
X4455769Y-1840246D01*
X4455769Y-1840246D02*
X4455769Y-1897389D01*
X4455769Y-1897389D02*
X4446245Y-1916436D01*
X4446245Y-1916436D02*
X4436722Y-1925960D01*
X4436722Y-1925960D02*
X4417674Y-1935484D01*
X4417674Y-1935484D02*
X4389103Y-1935484D01*
X4570055Y-1935484D02*
X4551007Y-1925960D01*
X4551007Y-1925960D02*
X4541484Y-1906912D01*
X4541484Y-1906912D02*
X4541484Y-1735484D01*
X4722436Y-1925960D02*
X4703388Y-1935484D01*
X4703388Y-1935484D02*
X4665293Y-1935484D01*
X4665293Y-1935484D02*
X4646245Y-1925960D01*
X4646245Y-1925960D02*
X4636722Y-1906912D01*
X4636722Y-1906912D02*
X4636722Y-1830722D01*
X4636722Y-1830722D02*
X4646245Y-1811674D01*
X4646245Y-1811674D02*
X4665293Y-1802151D01*
X4665293Y-1802151D02*
X4703388Y-1802151D01*
X4703388Y-1802151D02*
X4722436Y-1811674D01*
X4722436Y-1811674D02*
X4731960Y-1830722D01*
X4731960Y-1830722D02*
X4731960Y-1849770D01*
X4731960Y-1849770D02*
X4636722Y-1868817D01*
X4808150Y-1925960D02*
X4827198Y-1935484D01*
X4827198Y-1935484D02*
X4865293Y-1935484D01*
X4865293Y-1935484D02*
X4884341Y-1925960D01*
X4884341Y-1925960D02*
X4893865Y-1906912D01*
X4893865Y-1906912D02*
X4893865Y-1897389D01*
X4893865Y-1897389D02*
X4884341Y-1878341D01*
X4884341Y-1878341D02*
X4865293Y-1868817D01*
X4865293Y-1868817D02*
X4836722Y-1868817D01*
X4836722Y-1868817D02*
X4817674Y-1859293D01*
X4817674Y-1859293D02*
X4808150Y-1840246D01*
X4808150Y-1840246D02*
X4808150Y-1830722D01*
X4808150Y-1830722D02*
X4817674Y-1811674D01*
X4817674Y-1811674D02*
X4836722Y-1802151D01*
X4836722Y-1802151D02*
X4865293Y-1802151D01*
X4865293Y-1802151D02*
X4884341Y-1811674D01*
X4960531Y-2011674D02*
X4970055Y-2002151D01*
X4970055Y-2002151D02*
X4989103Y-1973579D01*
X4989103Y-1973579D02*
X4998626Y-1954532D01*
X4998626Y-1954532D02*
X5008150Y-1925960D01*
X5008150Y-1925960D02*
X5017674Y-1878341D01*
X5017674Y-1878341D02*
X5017674Y-1840246D01*
X5017674Y-1840246D02*
X5008150Y-1792627D01*
X5008150Y-1792627D02*
X4998626Y-1764055D01*
X4998626Y-1764055D02*
X4989103Y-1745008D01*
X4989103Y-1745008D02*
X4970055Y-1716436D01*
X4970055Y-1716436D02*
X4960531Y-1706912D01*
X5322436Y-2011674D02*
X5312912Y-2002151D01*
X5312912Y-2002151D02*
X5293865Y-1973579D01*
X5293865Y-1973579D02*
X5284341Y-1954532D01*
X5284341Y-1954532D02*
X5274817Y-1925960D01*
X5274817Y-1925960D02*
X5265293Y-1878341D01*
X5265293Y-1878341D02*
X5265293Y-1840246D01*
X5265293Y-1840246D02*
X5274817Y-1792627D01*
X5274817Y-1792627D02*
X5284341Y-1764055D01*
X5284341Y-1764055D02*
X5293865Y-1745008D01*
X5293865Y-1745008D02*
X5312912Y-1716436D01*
X5312912Y-1716436D02*
X5322436Y-1706912D01*
X5398626Y-1802151D02*
X5398626Y-1935484D01*
X5398626Y-1821198D02*
X5408150Y-1811674D01*
X5408150Y-1811674D02*
X5427198Y-1802151D01*
X5427198Y-1802151D02*
X5455769Y-1802151D01*
X5455769Y-1802151D02*
X5474817Y-1811674D01*
X5474817Y-1811674D02*
X5484341Y-1830722D01*
X5484341Y-1830722D02*
X5484341Y-1935484D01*
X5608150Y-1935484D02*
X5589103Y-1925960D01*
X5589103Y-1925960D02*
X5579579Y-1916436D01*
X5579579Y-1916436D02*
X5570055Y-1897389D01*
X5570055Y-1897389D02*
X5570055Y-1840246D01*
X5570055Y-1840246D02*
X5579579Y-1821198D01*
X5579579Y-1821198D02*
X5589103Y-1811674D01*
X5589103Y-1811674D02*
X5608150Y-1802151D01*
X5608150Y-1802151D02*
X5636722Y-1802151D01*
X5636722Y-1802151D02*
X5655769Y-1811674D01*
X5655769Y-1811674D02*
X5665293Y-1821198D01*
X5665293Y-1821198D02*
X5674817Y-1840246D01*
X5674817Y-1840246D02*
X5674817Y-1897389D01*
X5674817Y-1897389D02*
X5665293Y-1916436D01*
X5665293Y-1916436D02*
X5655769Y-1925960D01*
X5655769Y-1925960D02*
X5636722Y-1935484D01*
X5636722Y-1935484D02*
X5608150Y-1935484D01*
X5731960Y-1802151D02*
X5808150Y-1802151D01*
X5760531Y-1735484D02*
X5760531Y-1906912D01*
X5760531Y-1906912D02*
X5770055Y-1925960D01*
X5770055Y-1925960D02*
X5789103Y-1935484D01*
X5789103Y-1935484D02*
X5808150Y-1935484D01*
X6027198Y-1802151D02*
X6027198Y-2002151D01*
X6027198Y-1811674D02*
X6046245Y-1802151D01*
X6046245Y-1802151D02*
X6084341Y-1802151D01*
X6084341Y-1802151D02*
X6103388Y-1811674D01*
X6103388Y-1811674D02*
X6112912Y-1821198D01*
X6112912Y-1821198D02*
X6122436Y-1840246D01*
X6122436Y-1840246D02*
X6122436Y-1897389D01*
X6122436Y-1897389D02*
X6112912Y-1916436D01*
X6112912Y-1916436D02*
X6103388Y-1925960D01*
X6103388Y-1925960D02*
X6084341Y-1935484D01*
X6084341Y-1935484D02*
X6046245Y-1935484D01*
X6046245Y-1935484D02*
X6027198Y-1925960D01*
X6236722Y-1935484D02*
X6217674Y-1925960D01*
X6217674Y-1925960D02*
X6208150Y-1906912D01*
X6208150Y-1906912D02*
X6208150Y-1735484D01*
X6398626Y-1935484D02*
X6398626Y-1830722D01*
X6398626Y-1830722D02*
X6389103Y-1811674D01*
X6389103Y-1811674D02*
X6370055Y-1802151D01*
X6370055Y-1802151D02*
X6331960Y-1802151D01*
X6331960Y-1802151D02*
X6312912Y-1811674D01*
X6398626Y-1925960D02*
X6379579Y-1935484D01*
X6379579Y-1935484D02*
X6331960Y-1935484D01*
X6331960Y-1935484D02*
X6312912Y-1925960D01*
X6312912Y-1925960D02*
X6303388Y-1906912D01*
X6303388Y-1906912D02*
X6303388Y-1887865D01*
X6303388Y-1887865D02*
X6312912Y-1868817D01*
X6312912Y-1868817D02*
X6331960Y-1859293D01*
X6331960Y-1859293D02*
X6379579Y-1859293D01*
X6379579Y-1859293D02*
X6398626Y-1849770D01*
X6465293Y-1802151D02*
X6541484Y-1802151D01*
X6493865Y-1735484D02*
X6493865Y-1906912D01*
X6493865Y-1906912D02*
X6503388Y-1925960D01*
X6503388Y-1925960D02*
X6522436Y-1935484D01*
X6522436Y-1935484D02*
X6541484Y-1935484D01*
X6684341Y-1925960D02*
X6665293Y-1935484D01*
X6665293Y-1935484D02*
X6627198Y-1935484D01*
X6627198Y-1935484D02*
X6608150Y-1925960D01*
X6608150Y-1925960D02*
X6598626Y-1906912D01*
X6598626Y-1906912D02*
X6598626Y-1830722D01*
X6598626Y-1830722D02*
X6608150Y-1811674D01*
X6608150Y-1811674D02*
X6627198Y-1802151D01*
X6627198Y-1802151D02*
X6665293Y-1802151D01*
X6665293Y-1802151D02*
X6684341Y-1811674D01*
X6684341Y-1811674D02*
X6693865Y-1830722D01*
X6693865Y-1830722D02*
X6693865Y-1849770D01*
X6693865Y-1849770D02*
X6598626Y-1868817D01*
X6865293Y-1935484D02*
X6865293Y-1735484D01*
X6865293Y-1925960D02*
X6846246Y-1935484D01*
X6846246Y-1935484D02*
X6808150Y-1935484D01*
X6808150Y-1935484D02*
X6789103Y-1925960D01*
X6789103Y-1925960D02*
X6779579Y-1916436D01*
X6779579Y-1916436D02*
X6770055Y-1897389D01*
X6770055Y-1897389D02*
X6770055Y-1840246D01*
X6770055Y-1840246D02*
X6779579Y-1821198D01*
X6779579Y-1821198D02*
X6789103Y-1811674D01*
X6789103Y-1811674D02*
X6808150Y-1802151D01*
X6808150Y-1802151D02*
X6846246Y-1802151D01*
X6846246Y-1802151D02*
X6865293Y-1811674D01*
X6941484Y-2011674D02*
X6951007Y-2002151D01*
X6951007Y-2002151D02*
X6970055Y-1973579D01*
X6970055Y-1973579D02*
X6979579Y-1954532D01*
X6979579Y-1954532D02*
X6989103Y-1925960D01*
X6989103Y-1925960D02*
X6998626Y-1878341D01*
X6998626Y-1878341D02*
X6998626Y-1840246D01*
X6998626Y-1840246D02*
X6989103Y-1792627D01*
X6989103Y-1792627D02*
X6979579Y-1764055D01*
X6979579Y-1764055D02*
X6970055Y-1745008D01*
X6970055Y-1745008D02*
X6951007Y-1716436D01*
X6951007Y-1716436D02*
X6941484Y-1706912D01*
M02*
