%TF.GenerationSoftware,KiCad,Pcbnew,7.0.6*%
%TF.CreationDate,2023-08-01T10:10:29-04:00*%
%TF.ProjectId,good-delivery,676f6f64-2d64-4656-9c69-766572792e6b,rev?*%
%TF.SameCoordinates,PX2d6b3a0PY7e9ae4e*%
%TF.FileFunction,Drillmap*%
%TF.FilePolarity,Positive*%
%FSLAX45Y45*%
G04 Gerber Fmt 4.5, Leading zero omitted, Abs format (unit mm)*
G04 Created by KiCad (PCBNEW 7.0.6) date 2023-08-01 10:10:29*
%MOMM*%
%LPD*%
G01*
G04 APERTURE LIST*
%ADD10C,0.100000*%
%ADD11C,0.200000*%
%ADD12C,0.030000*%
%ADD13C,0.035000*%
%ADD14C,0.040000*%
%ADD15C,0.060000*%
%ADD16C,0.147000*%
G04 APERTURE END LIST*
D10*
X-8Y297679D02*
X-8Y7322372D01*
X17619488Y7620029D02*
X18752352Y7620029D01*
X17619488Y7620022D02*
G75*
G03*
X17461488Y7462002I10J-158010D01*
G01*
X18752391Y-8D02*
G75*
G03*
X19050048Y297657I-3J297660D01*
G01*
X19050008Y7322372D02*
X19050008Y297679D01*
X2379488Y7620022D02*
G75*
G03*
X2221488Y7462002I10J-158010D01*
G01*
X2379488Y0D02*
X16669488Y0D01*
X17461488Y157502D02*
G75*
G03*
X16827488Y157502I-317000J0D01*
G01*
X17619488Y0D02*
X18752391Y0D01*
X297657Y7620020D02*
G75*
G03*
X0Y7322362I1J-297658D01*
G01*
X16827488Y7462002D02*
G75*
G03*
X17461488Y7462002I317000J0D01*
G01*
X17461486Y157502D02*
G75*
G03*
X17619488Y0I157752J250D01*
G01*
X2379488Y7620019D02*
X16669488Y7620019D01*
X19050045Y7322362D02*
G75*
G03*
X18752391Y7620019I-297657J0D01*
G01*
X16827485Y7462002D02*
G75*
G03*
X16669488Y7620019I-158007J10D01*
G01*
X6Y297657D02*
G75*
G03*
X297657Y0I297652J-5D01*
G01*
X1428743Y22D02*
X297649Y22D01*
X2221486Y157502D02*
G75*
G03*
X2379488Y0I157752J250D01*
G01*
X1587488Y7462002D02*
G75*
G03*
X2221488Y7462002I317000J0D01*
G01*
X1587485Y7462002D02*
G75*
G03*
X1429488Y7620019I-158007J10D01*
G01*
X16669488Y2D02*
G75*
G03*
X16827488Y157502I250J157750D01*
G01*
X2221488Y157502D02*
G75*
G03*
X1587488Y157502I-317000J0D01*
G01*
X1429488Y2D02*
G75*
G03*
X1587488Y157502I250J157750D01*
G01*
X297649Y7620029D02*
X1428743Y7620029D01*
D11*
D12*
X5995953Y937737D02*
X6025953Y907737D01*
X6025953Y937737D02*
X5995953Y907737D01*
X6086109Y1027893D02*
X6116109Y997893D01*
X6116109Y1027893D02*
X6086109Y997893D01*
X6086109Y847581D02*
X6116109Y817581D01*
X6116109Y847581D02*
X6086109Y817581D01*
X6176266Y1118049D02*
X6206266Y1088049D01*
X6206266Y1118049D02*
X6176266Y1088049D01*
X6176266Y937737D02*
X6206266Y907737D01*
X6206266Y937737D02*
X6176266Y907737D01*
X6176266Y757424D02*
X6206266Y727424D01*
X6206266Y757424D02*
X6176266Y727424D01*
X6266422Y1027893D02*
X6296422Y997893D01*
X6296422Y1027893D02*
X6266422Y997893D01*
X6266422Y847581D02*
X6296422Y817581D01*
X6296422Y847581D02*
X6266422Y817581D01*
X6356578Y937737D02*
X6386578Y907737D01*
X6386578Y937737D02*
X6356578Y907737D01*
D13*
X6446891Y1515051D02*
G75*
G03*
X6446891Y1515051I-17500J0D01*
G01*
X6551071Y1515051D02*
G75*
G03*
X6551071Y1515051I-17500J0D01*
G01*
X6655251Y1515051D02*
G75*
G03*
X6655251Y1515051I-17500J0D01*
G01*
D14*
X1488285Y3591884D02*
X1488285Y3551884D01*
X1468285Y3571884D02*
X1508285Y3571884D01*
X2917039Y3145398D02*
X2917039Y3105398D01*
X2897039Y3125398D02*
X2937039Y3125398D01*
X2917039Y2520319D02*
X2917039Y2480319D01*
X2897039Y2500319D02*
X2937039Y2500319D01*
X5119700Y198594D02*
X5119700Y158594D01*
X5099700Y178594D02*
X5139700Y178594D01*
X5238763Y198594D02*
X5238763Y158594D01*
X5218763Y178594D02*
X5258763Y178594D01*
X5397488Y406954D02*
X5397488Y366954D01*
X5377488Y386954D02*
X5417488Y386954D01*
X5398002Y109297D02*
X5398002Y69297D01*
X5378002Y89297D02*
X5418002Y89297D01*
X5506655Y853440D02*
X5506655Y813440D01*
X5486655Y833440D02*
X5526655Y833440D01*
X5577717Y1627348D02*
X5577717Y1587348D01*
X5557717Y1607348D02*
X5597717Y1607348D01*
X5625717Y258126D02*
X5625717Y218126D01*
X5605717Y238126D02*
X5645717Y238126D01*
X5673717Y1508285D02*
X5673717Y1468285D01*
X5653717Y1488285D02*
X5693717Y1488285D01*
X5673717Y1389222D02*
X5673717Y1349222D01*
X5653717Y1369222D02*
X5693717Y1369222D01*
X5774546Y1984536D02*
X5774546Y1944536D01*
X5754546Y1964536D02*
X5794546Y1964536D01*
X5804311Y406954D02*
X5804311Y366954D01*
X5784311Y386954D02*
X5824311Y386954D01*
X5923374Y1389222D02*
X5923374Y1349222D01*
X5903374Y1369222D02*
X5943374Y1369222D01*
X6191266Y1418988D02*
X6191266Y1378988D01*
X6171266Y1398988D02*
X6211266Y1398988D01*
X6488923Y585548D02*
X6488923Y545548D01*
X6468923Y565548D02*
X6508923Y565548D01*
X6786580Y1002268D02*
X6786580Y962268D01*
X6766580Y982268D02*
X6806580Y982268D01*
X6846111Y555783D02*
X6846111Y515783D01*
X6826111Y535783D02*
X6866111Y535783D01*
X7143768Y2639382D02*
X7143768Y2599382D01*
X7123768Y2619382D02*
X7163768Y2619382D01*
X7143768Y2520319D02*
X7143768Y2480319D01*
X7123768Y2500319D02*
X7163768Y2500319D01*
X7143768Y2282193D02*
X7143768Y2242193D01*
X7123768Y2262193D02*
X7163768Y2262193D01*
X7143768Y2163130D02*
X7143768Y2123130D01*
X7123768Y2143130D02*
X7163768Y2143130D01*
X7292596Y972502D02*
X7292596Y932502D01*
X7272596Y952502D02*
X7312596Y952502D01*
X7292596Y853440D02*
X7292596Y813440D01*
X7272596Y833440D02*
X7312596Y833440D01*
X7352128Y2163130D02*
X7352128Y2123130D01*
X7332128Y2143130D02*
X7372128Y2143130D01*
X7352128Y2073833D02*
X7352128Y2033833D01*
X7332128Y2053833D02*
X7372128Y2053833D01*
X7620019Y6432526D02*
X7620019Y6392526D01*
X7600019Y6412526D02*
X7640019Y6412526D01*
X7679551Y436720D02*
X7679551Y396720D01*
X7659551Y416720D02*
X7699551Y416720D01*
X8155802Y7491191D02*
X8155802Y7451191D01*
X8135802Y7471191D02*
X8175802Y7471191D01*
X8155802Y5377826D02*
X8155802Y5337826D01*
X8135802Y5357826D02*
X8175802Y5357826D01*
X8185567Y198594D02*
X8185567Y158594D01*
X8165567Y178594D02*
X8205567Y178594D01*
X8245099Y7491191D02*
X8245099Y7451191D01*
X8225099Y7471191D02*
X8265099Y7471191D01*
X8423693Y436720D02*
X8423693Y396720D01*
X8403693Y416720D02*
X8443693Y416720D01*
X9200024Y6866111D02*
X9200024Y6826111D01*
X9180024Y6846111D02*
X9220024Y6846111D01*
X9465493Y6687517D02*
X9465493Y6647517D01*
X9445493Y6667517D02*
X9485493Y6667517D01*
X9673853Y6179517D02*
X9673853Y6139517D01*
X9653853Y6159517D02*
X9693853Y6159517D01*
X9700024Y6598220D02*
X9700024Y6558220D01*
X9680024Y6578220D02*
X9720024Y6578220D01*
X10120338Y6866111D02*
X10120338Y6826111D01*
X10100338Y6846111D02*
X10140338Y6846111D01*
X255445Y6983574D02*
X255445Y7011859D01*
X227160Y7011859D01*
X227160Y6983574D01*
X255445Y6983574D01*
X255445Y6831174D02*
X255445Y6859459D01*
X227160Y6859459D01*
X227160Y6831174D01*
X255445Y6831174D01*
X255445Y1268575D02*
X255445Y1296859D01*
X227160Y1296859D01*
X227160Y1268575D01*
X255445Y1268575D01*
X255445Y1116175D02*
X255445Y1144459D01*
X227160Y1144459D01*
X227160Y1116175D01*
X255445Y1116175D01*
X493570Y5078575D02*
X493570Y5106859D01*
X465285Y5106859D01*
X465285Y5078575D01*
X493570Y5078575D01*
X493570Y4926175D02*
X493570Y4954459D01*
X465285Y4954459D01*
X465285Y4926175D01*
X493570Y4926175D01*
X972520Y3173574D02*
X972520Y3201859D01*
X944235Y3201859D01*
X944235Y3173574D01*
X972520Y3173574D01*
X972520Y3021174D02*
X972520Y3049459D01*
X944235Y3049459D01*
X944235Y3021174D01*
X972520Y3021174D01*
X1550845Y7237574D02*
X1550845Y7265859D01*
X1522560Y7265859D01*
X1522560Y7237574D01*
X1550845Y7237574D01*
X1550845Y7085174D02*
X1550845Y7113459D01*
X1522560Y7113459D01*
X1522560Y7085174D01*
X1550845Y7085174D01*
X1550845Y1522574D02*
X1550845Y1550859D01*
X1522560Y1550859D01*
X1522560Y1522574D01*
X1550845Y1522574D01*
X1550845Y1370175D02*
X1550845Y1398459D01*
X1522560Y1398459D01*
X1522560Y1370175D01*
X1550845Y1370175D01*
X1788970Y5332575D02*
X1788970Y5360859D01*
X1760685Y5360859D01*
X1760685Y5332575D01*
X1788970Y5332575D01*
X1788970Y5180175D02*
X1788970Y5208459D01*
X1760685Y5208459D01*
X1760685Y5180175D01*
X1788970Y5180175D01*
X2160445Y6983574D02*
X2160445Y7011859D01*
X2132160Y7011859D01*
X2132160Y6983574D01*
X2160445Y6983574D01*
X2160445Y6831174D02*
X2160445Y6859459D01*
X2132160Y6859459D01*
X2132160Y6831174D01*
X2160445Y6831174D01*
X2160445Y1268575D02*
X2160445Y1296859D01*
X2132160Y1296859D01*
X2132160Y1268575D01*
X2160445Y1268575D01*
X2160445Y1116175D02*
X2160445Y1144459D01*
X2132160Y1144459D01*
X2132160Y1116175D01*
X2160445Y1116175D01*
X2265220Y3427574D02*
X2265220Y3455859D01*
X2236935Y3455859D01*
X2236935Y3427574D01*
X2265220Y3427574D01*
X2265220Y3275174D02*
X2265220Y3303459D01*
X2236935Y3303459D01*
X2236935Y3275174D01*
X2265220Y3275174D01*
X2636695Y5078575D02*
X2636695Y5106859D01*
X2608410Y5106859D01*
X2608410Y5078575D01*
X2636695Y5078575D01*
X2636695Y4926175D02*
X2636695Y4954459D01*
X2608410Y4954459D01*
X2608410Y4926175D01*
X2636695Y4926175D01*
X3455845Y7237574D02*
X3455845Y7265859D01*
X3427560Y7265859D01*
X3427560Y7237574D01*
X3455845Y7237574D01*
X3455845Y7085174D02*
X3455845Y7113459D01*
X3427560Y7113459D01*
X3427560Y7085174D01*
X3455845Y7085174D01*
X3455845Y1522574D02*
X3455845Y1550859D01*
X3427560Y1550859D01*
X3427560Y1522574D01*
X3455845Y1522574D01*
X3455845Y1370175D02*
X3455845Y1398459D01*
X3427560Y1398459D01*
X3427560Y1370175D01*
X3455845Y1370175D01*
X3589195Y3173574D02*
X3589195Y3201859D01*
X3560910Y3201859D01*
X3560910Y3173574D01*
X3589195Y3173574D01*
X3589195Y3021174D02*
X3589195Y3049459D01*
X3560910Y3049459D01*
X3560910Y3021174D01*
X3589195Y3021174D01*
X3932095Y5332575D02*
X3932095Y5360859D01*
X3903810Y5360859D01*
X3903810Y5332575D01*
X3932095Y5332575D01*
X3932095Y5180175D02*
X3932095Y5208459D01*
X3903810Y5208459D01*
X3903810Y5180175D01*
X3932095Y5180175D01*
X4065445Y6983574D02*
X4065445Y7011859D01*
X4037160Y7011859D01*
X4037160Y6983574D01*
X4065445Y6983574D01*
X4065445Y6831174D02*
X4065445Y6859459D01*
X4037160Y6859459D01*
X4037160Y6831174D01*
X4065445Y6831174D01*
X4065445Y1268575D02*
X4065445Y1296859D01*
X4037160Y1296859D01*
X4037160Y1268575D01*
X4065445Y1268575D01*
X4065445Y1116175D02*
X4065445Y1144459D01*
X4037160Y1144459D01*
X4037160Y1116175D01*
X4065445Y1116175D01*
X4541695Y5078575D02*
X4541695Y5106859D01*
X4513410Y5106859D01*
X4513410Y5078575D01*
X4541695Y5078575D01*
X4541695Y4926175D02*
X4541695Y4954459D01*
X4513410Y4954459D01*
X4513410Y4926175D01*
X4541695Y4926175D01*
X4884595Y3427574D02*
X4884595Y3455859D01*
X4856310Y3455859D01*
X4856310Y3427574D01*
X4884595Y3427574D01*
X4884595Y3275174D02*
X4884595Y3303459D01*
X4856310Y3303459D01*
X4856310Y3275174D01*
X4884595Y3275174D01*
X5360845Y7237574D02*
X5360845Y7265859D01*
X5332560Y7265859D01*
X5332560Y7237574D01*
X5360845Y7237574D01*
X5360845Y7085174D02*
X5360845Y7113459D01*
X5332560Y7113459D01*
X5332560Y7085174D01*
X5360845Y7085174D01*
X5360845Y1522574D02*
X5360845Y1550859D01*
X5332560Y1550859D01*
X5332560Y1522574D01*
X5360845Y1522574D01*
X5360845Y1370175D02*
X5360845Y1398459D01*
X5332560Y1398459D01*
X5332560Y1370175D01*
X5360845Y1370175D01*
X5494195Y3173574D02*
X5494195Y3201859D01*
X5465910Y3201859D01*
X5465910Y3173574D01*
X5494195Y3173574D01*
X5494195Y3021174D02*
X5494195Y3049459D01*
X5465910Y3049459D01*
X5465910Y3021174D01*
X5494195Y3021174D01*
X5837095Y5332575D02*
X5837095Y5360859D01*
X5808810Y5360859D01*
X5808810Y5332575D01*
X5837095Y5332575D01*
X5837095Y5180175D02*
X5837095Y5208459D01*
X5808810Y5208459D01*
X5808810Y5180175D01*
X5837095Y5180175D01*
X5970445Y6983574D02*
X5970445Y7011859D01*
X5942160Y7011859D01*
X5942160Y6983574D01*
X5970445Y6983574D01*
X5970445Y6831174D02*
X5970445Y6859459D01*
X5942160Y6859459D01*
X5942160Y6831174D01*
X5970445Y6831174D01*
X6446695Y5078575D02*
X6446695Y5106859D01*
X6418410Y5106859D01*
X6418410Y5078575D01*
X6446695Y5078575D01*
X6446695Y4926175D02*
X6446695Y4954459D01*
X6418410Y4954459D01*
X6418410Y4926175D01*
X6446695Y4926175D01*
X6789595Y3427574D02*
X6789595Y3455859D01*
X6761310Y3455859D01*
X6761310Y3427574D01*
X6789595Y3427574D01*
X6789595Y3275174D02*
X6789595Y3303459D01*
X6761310Y3303459D01*
X6761310Y3275174D01*
X6789595Y3275174D01*
X6922945Y1268575D02*
X6922945Y1296859D01*
X6894660Y1296859D01*
X6894660Y1268575D01*
X6922945Y1268575D01*
X6922945Y1116175D02*
X6922945Y1144459D01*
X6894660Y1144459D01*
X6894660Y1116175D01*
X6922945Y1116175D01*
X7265845Y7237574D02*
X7265845Y7265859D01*
X7237560Y7265859D01*
X7237560Y7237574D01*
X7265845Y7237574D01*
X7265845Y7085174D02*
X7265845Y7113459D01*
X7237560Y7113459D01*
X7237560Y7085174D01*
X7265845Y7085174D01*
X7399195Y3173574D02*
X7399195Y3201859D01*
X7370910Y3201859D01*
X7370910Y3173574D01*
X7399195Y3173574D01*
X7399195Y3021174D02*
X7399195Y3049459D01*
X7370910Y3049459D01*
X7370910Y3021174D01*
X7399195Y3021174D01*
X7742095Y5332575D02*
X7742095Y5360859D01*
X7713810Y5360859D01*
X7713810Y5332575D01*
X7742095Y5332575D01*
X7742095Y5180175D02*
X7742095Y5208459D01*
X7713810Y5208459D01*
X7713810Y5180175D01*
X7742095Y5180175D01*
X8002445Y6221574D02*
X8002445Y6249859D01*
X7974160Y6249859D01*
X7974160Y6221574D01*
X8002445Y6221574D01*
X8002445Y6069174D02*
X8002445Y6097459D01*
X7974160Y6097459D01*
X7974160Y6069174D01*
X8002445Y6069174D01*
X8218345Y1522574D02*
X8218345Y1550859D01*
X8190060Y1550859D01*
X8190060Y1522574D01*
X8218345Y1522574D01*
X8218345Y1370175D02*
X8218345Y1398459D01*
X8190060Y1398459D01*
X8190060Y1370175D01*
X8218345Y1370175D01*
X8351695Y5078575D02*
X8351695Y5106859D01*
X8323410Y5106859D01*
X8323410Y5078575D01*
X8351695Y5078575D01*
X8351695Y4926175D02*
X8351695Y4954459D01*
X8323410Y4954459D01*
X8323410Y4926175D01*
X8351695Y4926175D01*
X8694595Y3427574D02*
X8694595Y3455859D01*
X8666310Y3455859D01*
X8666310Y3427574D01*
X8694595Y3427574D01*
X8694595Y3275174D02*
X8694595Y3303459D01*
X8666310Y3303459D01*
X8666310Y3275174D01*
X8694595Y3275174D01*
X8827966Y1268560D02*
X8827966Y1296845D01*
X8799682Y1296845D01*
X8799682Y1268560D01*
X8827966Y1268560D01*
X8827966Y1116160D02*
X8827966Y1144445D01*
X8799682Y1144445D01*
X8799682Y1116160D01*
X8827966Y1116160D01*
X9297845Y6475574D02*
X9297845Y6503859D01*
X9269560Y6503859D01*
X9269560Y6475574D01*
X9297845Y6475574D01*
X9297845Y6323174D02*
X9297845Y6351459D01*
X9269560Y6351459D01*
X9269560Y6323174D01*
X9297845Y6323174D01*
X9304195Y3173574D02*
X9304195Y3201859D01*
X9275910Y3201859D01*
X9275910Y3173574D01*
X9304195Y3173574D01*
X9304195Y3021174D02*
X9304195Y3049459D01*
X9275910Y3049459D01*
X9275910Y3021174D01*
X9304195Y3021174D01*
X9647095Y5332575D02*
X9647095Y5360859D01*
X9618810Y5360859D01*
X9618810Y5332575D01*
X9647095Y5332575D01*
X9647095Y5180175D02*
X9647095Y5208459D01*
X9618810Y5208459D01*
X9618810Y5180175D01*
X9647095Y5180175D01*
X9907445Y6221574D02*
X9907445Y6249859D01*
X9879160Y6249859D01*
X9879160Y6221574D01*
X9907445Y6221574D01*
X9907445Y6069174D02*
X9907445Y6097459D01*
X9879160Y6097459D01*
X9879160Y6069174D01*
X9907445Y6069174D01*
X10123366Y1370160D02*
X10123366Y1398445D01*
X10095082Y1398445D01*
X10095082Y1370160D01*
X10123366Y1370160D01*
X10256695Y5078575D02*
X10256695Y5106859D01*
X10228410Y5106859D01*
X10228410Y5078575D01*
X10256695Y5078575D01*
X10256695Y4926175D02*
X10256695Y4954459D01*
X10228410Y4954459D01*
X10228410Y4926175D01*
X10256695Y4926175D01*
X10599595Y3427574D02*
X10599595Y3455859D01*
X10571310Y3455859D01*
X10571310Y3427574D01*
X10599595Y3427574D01*
X10599595Y3275174D02*
X10599595Y3303459D01*
X10571310Y3303459D01*
X10571310Y3275174D01*
X10599595Y3275174D01*
X10732945Y1268575D02*
X10732945Y1296859D01*
X10704660Y1296859D01*
X10704660Y1268575D01*
X10732945Y1268575D01*
X10732945Y1116175D02*
X10732945Y1144459D01*
X10704660Y1144459D01*
X10704660Y1116175D01*
X10732945Y1116175D01*
X11202845Y6475574D02*
X11202845Y6503859D01*
X11174560Y6503859D01*
X11174560Y6475574D01*
X11202845Y6475574D01*
X11202845Y6323174D02*
X11202845Y6351459D01*
X11174560Y6351459D01*
X11174560Y6323174D01*
X11202845Y6323174D01*
X11209195Y3173574D02*
X11209195Y3201859D01*
X11180910Y3201859D01*
X11180910Y3173574D01*
X11209195Y3173574D01*
X11209195Y3021174D02*
X11209195Y3049459D01*
X11180910Y3049459D01*
X11180910Y3021174D01*
X11209195Y3021174D01*
X11552095Y5332575D02*
X11552095Y5360859D01*
X11523810Y5360859D01*
X11523810Y5332575D01*
X11552095Y5332575D01*
X11552095Y5180175D02*
X11552095Y5208459D01*
X11523810Y5208459D01*
X11523810Y5180175D01*
X11552095Y5180175D01*
X11685445Y6983574D02*
X11685445Y7011859D01*
X11657160Y7011859D01*
X11657160Y6983574D01*
X11685445Y6983574D01*
X11685445Y6831174D02*
X11685445Y6859459D01*
X11657160Y6859459D01*
X11657160Y6831174D01*
X11685445Y6831174D01*
X12028345Y1522574D02*
X12028345Y1550859D01*
X12000060Y1550859D01*
X12000060Y1522574D01*
X12028345Y1522574D01*
X12028345Y1370175D02*
X12028345Y1398459D01*
X12000060Y1398459D01*
X12000060Y1370175D01*
X12028345Y1370175D01*
X12161695Y5078575D02*
X12161695Y5106859D01*
X12133410Y5106859D01*
X12133410Y5078575D01*
X12161695Y5078575D01*
X12161695Y4926175D02*
X12161695Y4954459D01*
X12133410Y4954459D01*
X12133410Y4926175D01*
X12161695Y4926175D01*
X12504595Y3427574D02*
X12504595Y3455859D01*
X12476310Y3455859D01*
X12476310Y3427574D01*
X12504595Y3427574D01*
X12504595Y3275174D02*
X12504595Y3303459D01*
X12476310Y3303459D01*
X12476310Y3275174D01*
X12504595Y3275174D01*
X12980845Y7237574D02*
X12980845Y7265859D01*
X12952560Y7265859D01*
X12952560Y7237574D01*
X12980845Y7237574D01*
X12980845Y7085174D02*
X12980845Y7113459D01*
X12952560Y7113459D01*
X12952560Y7085174D01*
X12980845Y7085174D01*
X13114195Y3173574D02*
X13114195Y3201859D01*
X13085910Y3201859D01*
X13085910Y3173574D01*
X13114195Y3173574D01*
X13114195Y3021174D02*
X13114195Y3049459D01*
X13085910Y3049459D01*
X13085910Y3021174D01*
X13114195Y3021174D01*
X13457095Y5332575D02*
X13457095Y5360859D01*
X13428810Y5360859D01*
X13428810Y5332575D01*
X13457095Y5332575D01*
X13457095Y5180175D02*
X13457095Y5208459D01*
X13428810Y5208459D01*
X13428810Y5180175D01*
X13457095Y5180175D01*
X13590445Y6983574D02*
X13590445Y7011859D01*
X13562160Y7011859D01*
X13562160Y6983574D01*
X13590445Y6983574D01*
X13590445Y6831174D02*
X13590445Y6859459D01*
X13562160Y6859459D01*
X13562160Y6831174D01*
X13590445Y6831174D01*
X13590445Y1268575D02*
X13590445Y1296859D01*
X13562160Y1296859D01*
X13562160Y1268575D01*
X13590445Y1268575D01*
X13590445Y1116175D02*
X13590445Y1144459D01*
X13562160Y1144459D01*
X13562160Y1116175D01*
X13590445Y1116175D01*
X14066695Y5078575D02*
X14066695Y5106859D01*
X14038410Y5106859D01*
X14038410Y5078575D01*
X14066695Y5078575D01*
X14066695Y4926175D02*
X14066695Y4954459D01*
X14038410Y4954459D01*
X14038410Y4926175D01*
X14066695Y4926175D01*
X14409595Y3427574D02*
X14409595Y3455859D01*
X14381310Y3455859D01*
X14381310Y3427574D01*
X14409595Y3427574D01*
X14409595Y3275174D02*
X14409595Y3303459D01*
X14381310Y3303459D01*
X14381310Y3275174D01*
X14409595Y3275174D01*
X14885845Y7237574D02*
X14885845Y7265859D01*
X14857560Y7265859D01*
X14857560Y7237574D01*
X14885845Y7237574D01*
X14885845Y7085174D02*
X14885845Y7113459D01*
X14857560Y7113459D01*
X14857560Y7085174D01*
X14885845Y7085174D01*
X14885845Y1522574D02*
X14885845Y1550859D01*
X14857560Y1550859D01*
X14857560Y1522574D01*
X14885845Y1522574D01*
X14885845Y1370175D02*
X14885845Y1398459D01*
X14857560Y1398459D01*
X14857560Y1370175D01*
X14885845Y1370175D01*
X15019195Y3173574D02*
X15019195Y3201859D01*
X14990910Y3201859D01*
X14990910Y3173574D01*
X15019195Y3173574D01*
X15019195Y3021174D02*
X15019195Y3049459D01*
X14990910Y3049459D01*
X14990910Y3021174D01*
X15019195Y3021174D01*
X15362095Y5332575D02*
X15362095Y5360859D01*
X15333810Y5360859D01*
X15333810Y5332575D01*
X15362095Y5332575D01*
X15362095Y5180175D02*
X15362095Y5208459D01*
X15333810Y5208459D01*
X15333810Y5180175D01*
X15362095Y5180175D01*
X15495445Y6983574D02*
X15495445Y7011859D01*
X15467160Y7011859D01*
X15467160Y6983574D01*
X15495445Y6983574D01*
X15495445Y6831174D02*
X15495445Y6859459D01*
X15467160Y6859459D01*
X15467160Y6831174D01*
X15495445Y6831174D01*
X15495445Y1268575D02*
X15495445Y1296859D01*
X15467160Y1296859D01*
X15467160Y1268575D01*
X15495445Y1268575D01*
X15495445Y1116175D02*
X15495445Y1144459D01*
X15467160Y1144459D01*
X15467160Y1116175D01*
X15495445Y1116175D01*
X16314595Y3427574D02*
X16314595Y3455859D01*
X16286310Y3455859D01*
X16286310Y3427574D01*
X16314595Y3427574D01*
X16314595Y3275174D02*
X16314595Y3303459D01*
X16286310Y3303459D01*
X16286310Y3275174D01*
X16314595Y3275174D01*
X16688770Y5078575D02*
X16688770Y5106859D01*
X16660485Y5106859D01*
X16660485Y5078575D01*
X16688770Y5078575D01*
X16688770Y4926175D02*
X16688770Y4954459D01*
X16660485Y4954459D01*
X16660485Y4926175D01*
X16688770Y4926175D01*
X16790845Y7237574D02*
X16790845Y7265859D01*
X16762560Y7265859D01*
X16762560Y7237574D01*
X16790845Y7237574D01*
X16790845Y7085174D02*
X16790845Y7113459D01*
X16762560Y7113459D01*
X16762560Y7085174D01*
X16790845Y7085174D01*
X16790845Y1522574D02*
X16790845Y1550859D01*
X16762560Y1550859D01*
X16762560Y1522574D01*
X16790845Y1522574D01*
X16790845Y1370175D02*
X16790845Y1398459D01*
X16762560Y1398459D01*
X16762560Y1370175D01*
X16790845Y1370175D01*
X17162320Y3173574D02*
X17162320Y3201859D01*
X17134035Y3201859D01*
X17134035Y3173574D01*
X17162320Y3173574D01*
X17162320Y3021174D02*
X17162320Y3049459D01*
X17134035Y3049459D01*
X17134035Y3021174D01*
X17162320Y3021174D01*
X17400445Y6983574D02*
X17400445Y7011859D01*
X17372160Y7011859D01*
X17372160Y6983574D01*
X17400445Y6983574D01*
X17400445Y6831174D02*
X17400445Y6859459D01*
X17372160Y6859459D01*
X17372160Y6831174D01*
X17400445Y6831174D01*
X17400445Y1268575D02*
X17400445Y1296859D01*
X17372160Y1296859D01*
X17372160Y1268575D01*
X17400445Y1268575D01*
X17400445Y1116175D02*
X17400445Y1144459D01*
X17372160Y1144459D01*
X17372160Y1116175D01*
X17400445Y1116175D01*
X17981470Y5332575D02*
X17981470Y5360859D01*
X17953185Y5360859D01*
X17953185Y5332575D01*
X17981470Y5332575D01*
X17981470Y5180175D02*
X17981470Y5208459D01*
X17953185Y5208459D01*
X17953185Y5180175D01*
X17981470Y5180175D01*
X18457720Y3427574D02*
X18457720Y3455859D01*
X18429435Y3455859D01*
X18429435Y3427574D01*
X18457720Y3427574D01*
X18457720Y3275174D02*
X18457720Y3303459D01*
X18429435Y3303459D01*
X18429435Y3275174D01*
X18457720Y3275174D01*
X18695845Y7237574D02*
X18695845Y7265859D01*
X18667560Y7265859D01*
X18667560Y7237574D01*
X18695845Y7237574D01*
X18695845Y7085174D02*
X18695845Y7113459D01*
X18667560Y7113459D01*
X18667560Y7085174D01*
X18695845Y7085174D01*
X18695845Y1522574D02*
X18695845Y1550859D01*
X18667560Y1550859D01*
X18667560Y1522574D01*
X18695845Y1522574D01*
X18695845Y1370175D02*
X18695845Y1398459D01*
X18667560Y1398459D01*
X18667560Y1370175D01*
X18695845Y1370175D01*
D15*
X9093024Y7486659D02*
X9123024Y7516659D01*
X9093024Y7546659D01*
X9063024Y7516659D01*
X9093024Y7486659D01*
D11*
X9063024Y7546659D02*
X9063024Y7486659D01*
X9063024Y7486659D02*
G75*
G03*
X9123024Y7486659I30000J0D01*
G01*
X9123024Y7486659D02*
X9123024Y7546659D01*
X9123024Y7546659D02*
G75*
G03*
X9063024Y7546659I-30000J0D01*
G01*
D15*
X9093024Y7068659D02*
X9123024Y7098659D01*
X9093024Y7128659D01*
X9063024Y7098659D01*
X9093024Y7068659D01*
D11*
X9063024Y7153659D02*
X9063024Y7043659D01*
X9063024Y7043659D02*
G75*
G03*
X9123024Y7043659I30000J0D01*
G01*
X9123024Y7043659D02*
X9123024Y7153659D01*
X9123024Y7153659D02*
G75*
G03*
X9063024Y7153659I-30000J0D01*
G01*
D15*
X9957024Y7486659D02*
X9987024Y7516659D01*
X9957024Y7546659D01*
X9927024Y7516659D01*
X9957024Y7486659D01*
D11*
X9927024Y7546659D02*
X9927024Y7486659D01*
X9927024Y7486659D02*
G75*
G03*
X9987024Y7486659I30000J0D01*
G01*
X9987024Y7486659D02*
X9987024Y7546659D01*
X9987024Y7546659D02*
G75*
G03*
X9927024Y7546659I-30000J0D01*
G01*
D15*
X9957024Y7068659D02*
X9987024Y7098659D01*
X9957024Y7128659D01*
X9927024Y7098659D01*
X9957024Y7068659D01*
D11*
X9927024Y7153659D02*
X9927024Y7043659D01*
X9927024Y7043659D02*
G75*
G03*
X9987024Y7043659I30000J0D01*
G01*
X9987024Y7043659D02*
X9987024Y7153659D01*
X9987024Y7153659D02*
G75*
G03*
X9927024Y7153659I-30000J0D01*
G01*
D10*
X247657Y3415007D02*
X347657Y3315007D01*
X347657Y3415007D02*
X247657Y3315007D01*
X347657Y3365007D02*
G75*
G03*
X347657Y3365007I-50000J0D01*
G01*
X247657Y3161007D02*
X347657Y3061007D01*
X347657Y3161007D02*
X247657Y3061007D01*
X347657Y3111007D02*
G75*
G03*
X347657Y3111007I-50000J0D01*
G01*
X247657Y2907007D02*
X347657Y2807007D01*
X347657Y2907007D02*
X247657Y2807007D01*
X347657Y2857007D02*
G75*
G03*
X347657Y2857007I-50000J0D01*
G01*
X247657Y2653007D02*
X347657Y2553007D01*
X347657Y2653007D02*
X247657Y2553007D01*
X347657Y2603007D02*
G75*
G03*
X347657Y2603007I-50000J0D01*
G01*
X247657Y2399007D02*
X347657Y2299007D01*
X347657Y2399007D02*
X247657Y2299007D01*
X347657Y2349007D02*
G75*
G03*
X347657Y2349007I-50000J0D01*
G01*
D16*
X629002Y6291017D02*
X776002Y6144017D01*
X776002Y6291017D02*
X629002Y6144017D01*
X702502Y6291017D02*
X702502Y6144017D01*
X629002Y6217517D02*
X776002Y6217517D01*
X629002Y576017D02*
X776002Y429017D01*
X776002Y576017D02*
X629002Y429017D01*
X702502Y576017D02*
X702502Y429017D01*
X629002Y502517D02*
X776002Y502517D01*
X867127Y4386017D02*
X1014127Y4239017D01*
X1014127Y4386017D02*
X867127Y4239017D01*
X940627Y4386017D02*
X940627Y4239017D01*
X867127Y4312517D02*
X1014127Y4312517D01*
X1129002Y6341017D02*
X1276002Y6194017D01*
X1276002Y6341017D02*
X1129002Y6194017D01*
X1202502Y6341017D02*
X1202502Y6194017D01*
X1129002Y6267517D02*
X1276002Y6267517D01*
X1129002Y626017D02*
X1276002Y479017D01*
X1276002Y626017D02*
X1129002Y479017D01*
X1202502Y626017D02*
X1202502Y479017D01*
X1129002Y552517D02*
X1276002Y552517D01*
X1343377Y2481017D02*
X1490377Y2334017D01*
X1490377Y2481017D02*
X1343377Y2334017D01*
X1416877Y2481017D02*
X1416877Y2334017D01*
X1343377Y2407517D02*
X1490377Y2407517D01*
X1367127Y4436017D02*
X1514127Y4289017D01*
X1514127Y4436017D02*
X1367127Y4289017D01*
X1440627Y4436017D02*
X1440627Y4289017D01*
X1367127Y4362517D02*
X1514127Y4362517D01*
X1843377Y2531017D02*
X1990377Y2384017D01*
X1990377Y2531017D02*
X1843377Y2384017D01*
X1916877Y2531017D02*
X1916877Y2384017D01*
X1843377Y2457517D02*
X1990377Y2457517D01*
X2534002Y6291017D02*
X2681002Y6144017D01*
X2681002Y6291017D02*
X2534002Y6144017D01*
X2607502Y6291017D02*
X2607502Y6144017D01*
X2534002Y6217517D02*
X2681002Y6217517D01*
X2534002Y576017D02*
X2681002Y429017D01*
X2681002Y576017D02*
X2534002Y429017D01*
X2607502Y576017D02*
X2607502Y429017D01*
X2534002Y502517D02*
X2681002Y502517D01*
X3010252Y4386017D02*
X3157252Y4239017D01*
X3157252Y4386017D02*
X3010252Y4239017D01*
X3083752Y4386017D02*
X3083752Y4239017D01*
X3010252Y4312517D02*
X3157252Y4312517D01*
X3034002Y6341017D02*
X3181002Y6194017D01*
X3181002Y6341017D02*
X3034002Y6194017D01*
X3107502Y6341017D02*
X3107502Y6194017D01*
X3034002Y6267517D02*
X3181002Y6267517D01*
X3034002Y626017D02*
X3181002Y479017D01*
X3181002Y626017D02*
X3034002Y479017D01*
X3107502Y626017D02*
X3107502Y479017D01*
X3034002Y552517D02*
X3181002Y552517D01*
X3510252Y4436017D02*
X3657252Y4289017D01*
X3657252Y4436017D02*
X3510252Y4289017D01*
X3583752Y4436017D02*
X3583752Y4289017D01*
X3510252Y4362517D02*
X3657252Y4362517D01*
X3962752Y2481017D02*
X4109752Y2334017D01*
X4109752Y2481017D02*
X3962752Y2334017D01*
X4036252Y2481017D02*
X4036252Y2334017D01*
X3962752Y2407517D02*
X4109752Y2407517D01*
X4439002Y6291017D02*
X4586002Y6144017D01*
X4586002Y6291017D02*
X4439002Y6144017D01*
X4512502Y6291017D02*
X4512502Y6144017D01*
X4439002Y6217517D02*
X4586002Y6217517D01*
X4439002Y576017D02*
X4586002Y429017D01*
X4586002Y576017D02*
X4439002Y429017D01*
X4512502Y576017D02*
X4512502Y429017D01*
X4439002Y502517D02*
X4586002Y502517D01*
X4462752Y2531017D02*
X4609752Y2384017D01*
X4609752Y2531017D02*
X4462752Y2384017D01*
X4536252Y2531017D02*
X4536252Y2384017D01*
X4462752Y2457517D02*
X4609752Y2457517D01*
X4915252Y4386017D02*
X5062252Y4239017D01*
X5062252Y4386017D02*
X4915252Y4239017D01*
X4988752Y4386017D02*
X4988752Y4239017D01*
X4915252Y4312517D02*
X5062252Y4312517D01*
X4939002Y6341017D02*
X5086002Y6194017D01*
X5086002Y6341017D02*
X4939002Y6194017D01*
X5012502Y6341017D02*
X5012502Y6194017D01*
X4939002Y6267517D02*
X5086002Y6267517D01*
X4939002Y626017D02*
X5086002Y479017D01*
X5086002Y626017D02*
X4939002Y479017D01*
X5012502Y626017D02*
X5012502Y479017D01*
X4939002Y552517D02*
X5086002Y552517D01*
X5415252Y4436017D02*
X5562252Y4289017D01*
X5562252Y4436017D02*
X5415252Y4289017D01*
X5488752Y4436017D02*
X5488752Y4289017D01*
X5415252Y4362517D02*
X5562252Y4362517D01*
X5867752Y2481017D02*
X6014752Y2334017D01*
X6014752Y2481017D02*
X5867752Y2334017D01*
X5941252Y2481017D02*
X5941252Y2334017D01*
X5867752Y2407517D02*
X6014752Y2407517D01*
X6344002Y6291017D02*
X6491002Y6144017D01*
X6491002Y6291017D02*
X6344002Y6144017D01*
X6417502Y6291017D02*
X6417502Y6144017D01*
X6344002Y6217517D02*
X6491002Y6217517D01*
X6367752Y2531017D02*
X6514752Y2384017D01*
X6514752Y2531017D02*
X6367752Y2384017D01*
X6441252Y2531017D02*
X6441252Y2384017D01*
X6367752Y2457517D02*
X6514752Y2457517D01*
X6820252Y4386017D02*
X6967252Y4239017D01*
X6967252Y4386017D02*
X6820252Y4239017D01*
X6893752Y4386017D02*
X6893752Y4239017D01*
X6820252Y4312517D02*
X6967252Y4312517D01*
X6844002Y6341017D02*
X6991002Y6194017D01*
X6991002Y6341017D02*
X6844002Y6194017D01*
X6917502Y6341017D02*
X6917502Y6194017D01*
X6844002Y6267517D02*
X6991002Y6267517D01*
X7296502Y576017D02*
X7443502Y429017D01*
X7443502Y576017D02*
X7296502Y429017D01*
X7370002Y576017D02*
X7370002Y429017D01*
X7296502Y502517D02*
X7443502Y502517D01*
X7320252Y4436017D02*
X7467252Y4289017D01*
X7467252Y4436017D02*
X7320252Y4289017D01*
X7393752Y4436017D02*
X7393752Y4289017D01*
X7320252Y4362517D02*
X7467252Y4362517D01*
X7772752Y2481017D02*
X7919752Y2334017D01*
X7919752Y2481017D02*
X7772752Y2334017D01*
X7846252Y2481017D02*
X7846252Y2334017D01*
X7772752Y2407517D02*
X7919752Y2407517D01*
X7796502Y626017D02*
X7943502Y479017D01*
X7943502Y626017D02*
X7796502Y479017D01*
X7870002Y626017D02*
X7870002Y479017D01*
X7796502Y552517D02*
X7943502Y552517D01*
X8249002Y7141017D02*
X8396002Y6994017D01*
X8396002Y7141017D02*
X8249002Y6994017D01*
X8322502Y7141017D02*
X8322502Y6994017D01*
X8249002Y7067517D02*
X8396002Y7067517D01*
X8272752Y2531017D02*
X8419752Y2384017D01*
X8419752Y2531017D02*
X8272752Y2384017D01*
X8346252Y2531017D02*
X8346252Y2384017D01*
X8272752Y2457517D02*
X8419752Y2457517D01*
X8725252Y4386017D02*
X8872252Y4239017D01*
X8872252Y4386017D02*
X8725252Y4239017D01*
X8798752Y4386017D02*
X8798752Y4239017D01*
X8725252Y4312517D02*
X8872252Y4312517D01*
X8749002Y7191017D02*
X8896002Y7044017D01*
X8896002Y7191017D02*
X8749002Y7044017D01*
X8822502Y7191017D02*
X8822502Y7044017D01*
X8749002Y7117517D02*
X8896002Y7117517D01*
X9201524Y576002D02*
X9348524Y429002D01*
X9348524Y576002D02*
X9201524Y429002D01*
X9275024Y576002D02*
X9275024Y429002D01*
X9201524Y502502D02*
X9348524Y502502D01*
X9225252Y4436017D02*
X9372252Y4289017D01*
X9372252Y4436017D02*
X9225252Y4289017D01*
X9298752Y4436017D02*
X9298752Y4289017D01*
X9225252Y4362517D02*
X9372252Y4362517D01*
X9677752Y2481017D02*
X9824752Y2334017D01*
X9824752Y2481017D02*
X9677752Y2334017D01*
X9751252Y2481017D02*
X9751252Y2334017D01*
X9677752Y2407517D02*
X9824752Y2407517D01*
X9701524Y626002D02*
X9848524Y479002D01*
X9848524Y626002D02*
X9701524Y479002D01*
X9775024Y626002D02*
X9775024Y479002D01*
X9701524Y552502D02*
X9848524Y552502D01*
X10154002Y7141017D02*
X10301002Y6994017D01*
X10301002Y7141017D02*
X10154002Y6994017D01*
X10227502Y7141017D02*
X10227502Y6994017D01*
X10154002Y7067517D02*
X10301002Y7067517D01*
X10177752Y2531017D02*
X10324752Y2384017D01*
X10324752Y2531017D02*
X10177752Y2384017D01*
X10251252Y2531017D02*
X10251252Y2384017D01*
X10177752Y2457517D02*
X10324752Y2457517D01*
X10630252Y4386017D02*
X10777252Y4239017D01*
X10777252Y4386017D02*
X10630252Y4239017D01*
X10703752Y4386017D02*
X10703752Y4239017D01*
X10630252Y4312517D02*
X10777252Y4312517D01*
X10654002Y7191017D02*
X10801002Y7044017D01*
X10801002Y7191017D02*
X10654002Y7044017D01*
X10727502Y7191017D02*
X10727502Y7044017D01*
X10654002Y7117517D02*
X10801002Y7117517D01*
X11106502Y576017D02*
X11253502Y429017D01*
X11253502Y576017D02*
X11106502Y429017D01*
X11180002Y576017D02*
X11180002Y429017D01*
X11106502Y502517D02*
X11253502Y502517D01*
X11130252Y4436017D02*
X11277252Y4289017D01*
X11277252Y4436017D02*
X11130252Y4289017D01*
X11203752Y4436017D02*
X11203752Y4289017D01*
X11130252Y4362517D02*
X11277252Y4362517D01*
X11582752Y2481017D02*
X11729752Y2334017D01*
X11729752Y2481017D02*
X11582752Y2334017D01*
X11656252Y2481017D02*
X11656252Y2334017D01*
X11582752Y2407517D02*
X11729752Y2407517D01*
X11606502Y626017D02*
X11753502Y479017D01*
X11753502Y626017D02*
X11606502Y479017D01*
X11680002Y626017D02*
X11680002Y479017D01*
X11606502Y552517D02*
X11753502Y552517D01*
X12059002Y6291017D02*
X12206002Y6144017D01*
X12206002Y6291017D02*
X12059002Y6144017D01*
X12132502Y6291017D02*
X12132502Y6144017D01*
X12059002Y6217517D02*
X12206002Y6217517D01*
X12082752Y2531017D02*
X12229752Y2384017D01*
X12229752Y2531017D02*
X12082752Y2384017D01*
X12156252Y2531017D02*
X12156252Y2384017D01*
X12082752Y2457517D02*
X12229752Y2457517D01*
X12535252Y4386017D02*
X12682252Y4239017D01*
X12682252Y4386017D02*
X12535252Y4239017D01*
X12608752Y4386017D02*
X12608752Y4239017D01*
X12535252Y4312517D02*
X12682252Y4312517D01*
X12559002Y6341017D02*
X12706002Y6194017D01*
X12706002Y6341017D02*
X12559002Y6194017D01*
X12632502Y6341017D02*
X12632502Y6194017D01*
X12559002Y6267517D02*
X12706002Y6267517D01*
X13035252Y4436017D02*
X13182252Y4289017D01*
X13182252Y4436017D02*
X13035252Y4289017D01*
X13108752Y4436017D02*
X13108752Y4289017D01*
X13035252Y4362517D02*
X13182252Y4362517D01*
X13487752Y2481017D02*
X13634752Y2334017D01*
X13634752Y2481017D02*
X13487752Y2334017D01*
X13561252Y2481017D02*
X13561252Y2334017D01*
X13487752Y2407517D02*
X13634752Y2407517D01*
X13964002Y6291017D02*
X14111002Y6144017D01*
X14111002Y6291017D02*
X13964002Y6144017D01*
X14037502Y6291017D02*
X14037502Y6144017D01*
X13964002Y6217517D02*
X14111002Y6217517D01*
X13964002Y576017D02*
X14111002Y429017D01*
X14111002Y576017D02*
X13964002Y429017D01*
X14037502Y576017D02*
X14037502Y429017D01*
X13964002Y502517D02*
X14111002Y502517D01*
X13987752Y2531017D02*
X14134752Y2384017D01*
X14134752Y2531017D02*
X13987752Y2384017D01*
X14061252Y2531017D02*
X14061252Y2384017D01*
X13987752Y2457517D02*
X14134752Y2457517D01*
X14440252Y4386017D02*
X14587252Y4239017D01*
X14587252Y4386017D02*
X14440252Y4239017D01*
X14513752Y4386017D02*
X14513752Y4239017D01*
X14440252Y4312517D02*
X14587252Y4312517D01*
X14464002Y6341017D02*
X14611002Y6194017D01*
X14611002Y6341017D02*
X14464002Y6194017D01*
X14537502Y6341017D02*
X14537502Y6194017D01*
X14464002Y6267517D02*
X14611002Y6267517D01*
X14464002Y626017D02*
X14611002Y479017D01*
X14611002Y626017D02*
X14464002Y479017D01*
X14537502Y626017D02*
X14537502Y479017D01*
X14464002Y552517D02*
X14611002Y552517D01*
X14940252Y4436017D02*
X15087252Y4289017D01*
X15087252Y4436017D02*
X14940252Y4289017D01*
X15013752Y4436017D02*
X15013752Y4289017D01*
X14940252Y4362517D02*
X15087252Y4362517D01*
X15392752Y2481017D02*
X15539752Y2334017D01*
X15539752Y2481017D02*
X15392752Y2334017D01*
X15466252Y2481017D02*
X15466252Y2334017D01*
X15392752Y2407517D02*
X15539752Y2407517D01*
X15869002Y6291017D02*
X16016002Y6144017D01*
X16016002Y6291017D02*
X15869002Y6144017D01*
X15942502Y6291017D02*
X15942502Y6144017D01*
X15869002Y6217517D02*
X16016002Y6217517D01*
X15869002Y576017D02*
X16016002Y429017D01*
X16016002Y576017D02*
X15869002Y429017D01*
X15942502Y576017D02*
X15942502Y429017D01*
X15869002Y502517D02*
X16016002Y502517D01*
X15892752Y2531017D02*
X16039752Y2384017D01*
X16039752Y2531017D02*
X15892752Y2384017D01*
X15966252Y2531017D02*
X15966252Y2384017D01*
X15892752Y2457517D02*
X16039752Y2457517D01*
X16369002Y6341017D02*
X16516002Y6194017D01*
X16516002Y6341017D02*
X16369002Y6194017D01*
X16442502Y6341017D02*
X16442502Y6194017D01*
X16369002Y6267517D02*
X16516002Y6267517D01*
X16369002Y626017D02*
X16516002Y479017D01*
X16516002Y626017D02*
X16369002Y479017D01*
X16442502Y626017D02*
X16442502Y479017D01*
X16369002Y552517D02*
X16516002Y552517D01*
X17059627Y4386017D02*
X17206627Y4239017D01*
X17206627Y4386017D02*
X17059627Y4239017D01*
X17133127Y4386017D02*
X17133127Y4239017D01*
X17059627Y4312517D02*
X17206627Y4312517D01*
X17535877Y2481017D02*
X17682877Y2334017D01*
X17682877Y2481017D02*
X17535877Y2334017D01*
X17609377Y2481017D02*
X17609377Y2334017D01*
X17535877Y2407517D02*
X17682877Y2407517D01*
X17559627Y4436017D02*
X17706627Y4289017D01*
X17706627Y4436017D02*
X17559627Y4289017D01*
X17633127Y4436017D02*
X17633127Y4289017D01*
X17559627Y4362517D02*
X17706627Y4362517D01*
X17774002Y6291017D02*
X17921002Y6144017D01*
X17921002Y6291017D02*
X17774002Y6144017D01*
X17847502Y6291017D02*
X17847502Y6144017D01*
X17774002Y6217517D02*
X17921002Y6217517D01*
X17774002Y576017D02*
X17921002Y429017D01*
X17921002Y576017D02*
X17774002Y429017D01*
X17847502Y576017D02*
X17847502Y429017D01*
X17774002Y502517D02*
X17921002Y502517D01*
X18035877Y2531017D02*
X18182877Y2384017D01*
X18182877Y2531017D02*
X18035877Y2384017D01*
X18109377Y2531017D02*
X18109377Y2384017D01*
X18035877Y2457517D02*
X18182877Y2457517D01*
X18274002Y6341017D02*
X18421002Y6194017D01*
X18421002Y6341017D02*
X18274002Y6194017D01*
X18347502Y6341017D02*
X18347502Y6194017D01*
X18274002Y6267517D02*
X18421002Y6267517D01*
X18274002Y626017D02*
X18421002Y479017D01*
X18421002Y626017D02*
X18274002Y479017D01*
X18347502Y626017D02*
X18347502Y479017D01*
X18274002Y552517D02*
X18421002Y552517D01*
D11*
X255769Y-316484D02*
X255769Y-116484D01*
X255769Y-116484D02*
X303388Y-116484D01*
X303388Y-116484D02*
X331959Y-126008D01*
X331959Y-126008D02*
X351007Y-145055D01*
X351007Y-145055D02*
X360531Y-164103D01*
X360531Y-164103D02*
X370054Y-202198D01*
X370054Y-202198D02*
X370054Y-230770D01*
X370054Y-230770D02*
X360531Y-268865D01*
X360531Y-268865D02*
X351007Y-287913D01*
X351007Y-287913D02*
X331959Y-306960D01*
X331959Y-306960D02*
X303388Y-316484D01*
X303388Y-316484D02*
X255769Y-316484D01*
X455769Y-316484D02*
X455769Y-183151D01*
X455769Y-221246D02*
X465293Y-202198D01*
X465293Y-202198D02*
X474816Y-192674D01*
X474816Y-192674D02*
X493864Y-183151D01*
X493864Y-183151D02*
X512912Y-183151D01*
X579578Y-316484D02*
X579578Y-183151D01*
X579578Y-116484D02*
X570055Y-126008D01*
X570055Y-126008D02*
X579578Y-135532D01*
X579578Y-135532D02*
X589102Y-126008D01*
X589102Y-126008D02*
X579578Y-116484D01*
X579578Y-116484D02*
X579578Y-135532D01*
X703388Y-316484D02*
X684340Y-306960D01*
X684340Y-306960D02*
X674816Y-287913D01*
X674816Y-287913D02*
X674816Y-116484D01*
X808150Y-316484D02*
X789102Y-306960D01*
X789102Y-306960D02*
X779578Y-287913D01*
X779578Y-287913D02*
X779578Y-116484D01*
X1036721Y-316484D02*
X1036721Y-116484D01*
X1036721Y-116484D02*
X1103388Y-259341D01*
X1103388Y-259341D02*
X1170055Y-116484D01*
X1170055Y-116484D02*
X1170055Y-316484D01*
X1351007Y-316484D02*
X1351007Y-211722D01*
X1351007Y-211722D02*
X1341483Y-192674D01*
X1341483Y-192674D02*
X1322436Y-183151D01*
X1322436Y-183151D02*
X1284340Y-183151D01*
X1284340Y-183151D02*
X1265293Y-192674D01*
X1351007Y-306960D02*
X1331959Y-316484D01*
X1331959Y-316484D02*
X1284340Y-316484D01*
X1284340Y-316484D02*
X1265293Y-306960D01*
X1265293Y-306960D02*
X1255769Y-287913D01*
X1255769Y-287913D02*
X1255769Y-268865D01*
X1255769Y-268865D02*
X1265293Y-249817D01*
X1265293Y-249817D02*
X1284340Y-240293D01*
X1284340Y-240293D02*
X1331959Y-240293D01*
X1331959Y-240293D02*
X1351007Y-230770D01*
X1446245Y-183151D02*
X1446245Y-383151D01*
X1446245Y-192674D02*
X1465293Y-183151D01*
X1465293Y-183151D02*
X1503388Y-183151D01*
X1503388Y-183151D02*
X1522435Y-192674D01*
X1522435Y-192674D02*
X1531959Y-202198D01*
X1531959Y-202198D02*
X1541483Y-221246D01*
X1541483Y-221246D02*
X1541483Y-278389D01*
X1541483Y-278389D02*
X1531959Y-297436D01*
X1531959Y-297436D02*
X1522435Y-306960D01*
X1522435Y-306960D02*
X1503388Y-316484D01*
X1503388Y-316484D02*
X1465293Y-316484D01*
X1465293Y-316484D02*
X1446245Y-306960D01*
X1627197Y-297436D02*
X1636721Y-306960D01*
X1636721Y-306960D02*
X1627197Y-316484D01*
X1627197Y-316484D02*
X1617674Y-306960D01*
X1617674Y-306960D02*
X1627197Y-297436D01*
X1627197Y-297436D02*
X1627197Y-316484D01*
X1627197Y-192674D02*
X1636721Y-202198D01*
X1636721Y-202198D02*
X1627197Y-211722D01*
X1627197Y-211722D02*
X1617674Y-202198D01*
X1617674Y-202198D02*
X1627197Y-192674D01*
X1627197Y-192674D02*
X1627197Y-211722D01*
D12*
X-35008Y-630000D02*
X-5008Y-660000D01*
X-5008Y-630000D02*
X-35008Y-660000D01*
D11*
X293864Y-536484D02*
X312912Y-536484D01*
X312912Y-536484D02*
X331959Y-546008D01*
X331959Y-546008D02*
X341483Y-555532D01*
X341483Y-555532D02*
X351007Y-574579D01*
X351007Y-574579D02*
X360531Y-612674D01*
X360531Y-612674D02*
X360531Y-660294D01*
X360531Y-660294D02*
X351007Y-698389D01*
X351007Y-698389D02*
X341483Y-717436D01*
X341483Y-717436D02*
X331959Y-726960D01*
X331959Y-726960D02*
X312912Y-736484D01*
X312912Y-736484D02*
X293864Y-736484D01*
X293864Y-736484D02*
X274816Y-726960D01*
X274816Y-726960D02*
X265293Y-717436D01*
X265293Y-717436D02*
X255769Y-698389D01*
X255769Y-698389D02*
X246245Y-660294D01*
X246245Y-660294D02*
X246245Y-612674D01*
X246245Y-612674D02*
X255769Y-574579D01*
X255769Y-574579D02*
X265293Y-555532D01*
X265293Y-555532D02*
X274816Y-546008D01*
X274816Y-546008D02*
X293864Y-536484D01*
X446245Y-717436D02*
X455769Y-726960D01*
X455769Y-726960D02*
X446245Y-736484D01*
X446245Y-736484D02*
X436721Y-726960D01*
X436721Y-726960D02*
X446245Y-717436D01*
X446245Y-717436D02*
X446245Y-736484D01*
X522435Y-536484D02*
X646245Y-536484D01*
X646245Y-536484D02*
X579578Y-612674D01*
X579578Y-612674D02*
X608150Y-612674D01*
X608150Y-612674D02*
X627197Y-622198D01*
X627197Y-622198D02*
X636721Y-631722D01*
X636721Y-631722D02*
X646245Y-650770D01*
X646245Y-650770D02*
X646245Y-698389D01*
X646245Y-698389D02*
X636721Y-717436D01*
X636721Y-717436D02*
X627197Y-726960D01*
X627197Y-726960D02*
X608150Y-736484D01*
X608150Y-736484D02*
X551007Y-736484D01*
X551007Y-736484D02*
X531959Y-726960D01*
X531959Y-726960D02*
X522435Y-717436D01*
X770054Y-536484D02*
X789102Y-536484D01*
X789102Y-536484D02*
X808150Y-546008D01*
X808150Y-546008D02*
X817674Y-555532D01*
X817674Y-555532D02*
X827197Y-574579D01*
X827197Y-574579D02*
X836721Y-612674D01*
X836721Y-612674D02*
X836721Y-660294D01*
X836721Y-660294D02*
X827197Y-698389D01*
X827197Y-698389D02*
X817674Y-717436D01*
X817674Y-717436D02*
X808150Y-726960D01*
X808150Y-726960D02*
X789102Y-736484D01*
X789102Y-736484D02*
X770054Y-736484D01*
X770054Y-736484D02*
X751007Y-726960D01*
X751007Y-726960D02*
X741483Y-717436D01*
X741483Y-717436D02*
X731959Y-698389D01*
X731959Y-698389D02*
X722435Y-660294D01*
X722435Y-660294D02*
X722435Y-612674D01*
X722435Y-612674D02*
X731959Y-574579D01*
X731959Y-574579D02*
X741483Y-555532D01*
X741483Y-555532D02*
X751007Y-546008D01*
X751007Y-546008D02*
X770054Y-536484D01*
X960531Y-536484D02*
X979578Y-536484D01*
X979578Y-536484D02*
X998626Y-546008D01*
X998626Y-546008D02*
X1008150Y-555532D01*
X1008150Y-555532D02*
X1017674Y-574579D01*
X1017674Y-574579D02*
X1027197Y-612674D01*
X1027197Y-612674D02*
X1027197Y-660294D01*
X1027197Y-660294D02*
X1017674Y-698389D01*
X1017674Y-698389D02*
X1008150Y-717436D01*
X1008150Y-717436D02*
X998626Y-726960D01*
X998626Y-726960D02*
X979578Y-736484D01*
X979578Y-736484D02*
X960531Y-736484D01*
X960531Y-736484D02*
X941483Y-726960D01*
X941483Y-726960D02*
X931959Y-717436D01*
X931959Y-717436D02*
X922435Y-698389D01*
X922435Y-698389D02*
X912912Y-660294D01*
X912912Y-660294D02*
X912912Y-612674D01*
X912912Y-612674D02*
X922435Y-574579D01*
X922435Y-574579D02*
X931959Y-555532D01*
X931959Y-555532D02*
X941483Y-546008D01*
X941483Y-546008D02*
X960531Y-536484D01*
X1112912Y-736484D02*
X1112912Y-603151D01*
X1112912Y-622198D02*
X1122436Y-612674D01*
X1122436Y-612674D02*
X1141483Y-603151D01*
X1141483Y-603151D02*
X1170055Y-603151D01*
X1170055Y-603151D02*
X1189102Y-612674D01*
X1189102Y-612674D02*
X1198626Y-631722D01*
X1198626Y-631722D02*
X1198626Y-736484D01*
X1198626Y-631722D02*
X1208150Y-612674D01*
X1208150Y-612674D02*
X1227197Y-603151D01*
X1227197Y-603151D02*
X1255769Y-603151D01*
X1255769Y-603151D02*
X1274817Y-612674D01*
X1274817Y-612674D02*
X1284340Y-631722D01*
X1284340Y-631722D02*
X1284340Y-736484D01*
X1379578Y-736484D02*
X1379578Y-603151D01*
X1379578Y-622198D02*
X1389102Y-612674D01*
X1389102Y-612674D02*
X1408150Y-603151D01*
X1408150Y-603151D02*
X1436721Y-603151D01*
X1436721Y-603151D02*
X1455769Y-612674D01*
X1455769Y-612674D02*
X1465293Y-631722D01*
X1465293Y-631722D02*
X1465293Y-736484D01*
X1465293Y-631722D02*
X1474816Y-612674D01*
X1474816Y-612674D02*
X1493864Y-603151D01*
X1493864Y-603151D02*
X1522435Y-603151D01*
X1522435Y-603151D02*
X1541483Y-612674D01*
X1541483Y-612674D02*
X1551007Y-631722D01*
X1551007Y-631722D02*
X1551007Y-736484D01*
X1941483Y-526960D02*
X1770055Y-784103D01*
X2198626Y-536484D02*
X2217674Y-536484D01*
X2217674Y-536484D02*
X2236721Y-546008D01*
X2236721Y-546008D02*
X2246245Y-555532D01*
X2246245Y-555532D02*
X2255769Y-574579D01*
X2255769Y-574579D02*
X2265293Y-612674D01*
X2265293Y-612674D02*
X2265293Y-660294D01*
X2265293Y-660294D02*
X2255769Y-698389D01*
X2255769Y-698389D02*
X2246245Y-717436D01*
X2246245Y-717436D02*
X2236721Y-726960D01*
X2236721Y-726960D02*
X2217674Y-736484D01*
X2217674Y-736484D02*
X2198626Y-736484D01*
X2198626Y-736484D02*
X2179579Y-726960D01*
X2179579Y-726960D02*
X2170055Y-717436D01*
X2170055Y-717436D02*
X2160531Y-698389D01*
X2160531Y-698389D02*
X2151007Y-660294D01*
X2151007Y-660294D02*
X2151007Y-612674D01*
X2151007Y-612674D02*
X2160531Y-574579D01*
X2160531Y-574579D02*
X2170055Y-555532D01*
X2170055Y-555532D02*
X2179579Y-546008D01*
X2179579Y-546008D02*
X2198626Y-536484D01*
X2351007Y-717436D02*
X2360531Y-726960D01*
X2360531Y-726960D02*
X2351007Y-736484D01*
X2351007Y-736484D02*
X2341483Y-726960D01*
X2341483Y-726960D02*
X2351007Y-717436D01*
X2351007Y-717436D02*
X2351007Y-736484D01*
X2484340Y-536484D02*
X2503388Y-536484D01*
X2503388Y-536484D02*
X2522436Y-546008D01*
X2522436Y-546008D02*
X2531960Y-555532D01*
X2531960Y-555532D02*
X2541483Y-574579D01*
X2541483Y-574579D02*
X2551007Y-612674D01*
X2551007Y-612674D02*
X2551007Y-660294D01*
X2551007Y-660294D02*
X2541483Y-698389D01*
X2541483Y-698389D02*
X2531960Y-717436D01*
X2531960Y-717436D02*
X2522436Y-726960D01*
X2522436Y-726960D02*
X2503388Y-736484D01*
X2503388Y-736484D02*
X2484340Y-736484D01*
X2484340Y-736484D02*
X2465293Y-726960D01*
X2465293Y-726960D02*
X2455769Y-717436D01*
X2455769Y-717436D02*
X2446245Y-698389D01*
X2446245Y-698389D02*
X2436721Y-660294D01*
X2436721Y-660294D02*
X2436721Y-612674D01*
X2436721Y-612674D02*
X2446245Y-574579D01*
X2446245Y-574579D02*
X2455769Y-555532D01*
X2455769Y-555532D02*
X2465293Y-546008D01*
X2465293Y-546008D02*
X2484340Y-536484D01*
X2741483Y-736484D02*
X2627198Y-736484D01*
X2684340Y-736484D02*
X2684340Y-536484D01*
X2684340Y-536484D02*
X2665293Y-565055D01*
X2665293Y-565055D02*
X2646245Y-584103D01*
X2646245Y-584103D02*
X2627198Y-593627D01*
X2931959Y-736484D02*
X2817674Y-736484D01*
X2874817Y-736484D02*
X2874817Y-536484D01*
X2874817Y-536484D02*
X2855769Y-565055D01*
X2855769Y-565055D02*
X2836721Y-584103D01*
X2836721Y-584103D02*
X2817674Y-593627D01*
X3046245Y-622198D02*
X3027198Y-612674D01*
X3027198Y-612674D02*
X3017674Y-603151D01*
X3017674Y-603151D02*
X3008150Y-584103D01*
X3008150Y-584103D02*
X3008150Y-574579D01*
X3008150Y-574579D02*
X3017674Y-555532D01*
X3017674Y-555532D02*
X3027198Y-546008D01*
X3027198Y-546008D02*
X3046245Y-536484D01*
X3046245Y-536484D02*
X3084340Y-536484D01*
X3084340Y-536484D02*
X3103388Y-546008D01*
X3103388Y-546008D02*
X3112912Y-555532D01*
X3112912Y-555532D02*
X3122436Y-574579D01*
X3122436Y-574579D02*
X3122436Y-584103D01*
X3122436Y-584103D02*
X3112912Y-603151D01*
X3112912Y-603151D02*
X3103388Y-612674D01*
X3103388Y-612674D02*
X3084340Y-622198D01*
X3084340Y-622198D02*
X3046245Y-622198D01*
X3046245Y-622198D02*
X3027198Y-631722D01*
X3027198Y-631722D02*
X3017674Y-641246D01*
X3017674Y-641246D02*
X3008150Y-660294D01*
X3008150Y-660294D02*
X3008150Y-698389D01*
X3008150Y-698389D02*
X3017674Y-717436D01*
X3017674Y-717436D02*
X3027198Y-726960D01*
X3027198Y-726960D02*
X3046245Y-736484D01*
X3046245Y-736484D02*
X3084340Y-736484D01*
X3084340Y-736484D02*
X3103388Y-726960D01*
X3103388Y-726960D02*
X3112912Y-717436D01*
X3112912Y-717436D02*
X3122436Y-698389D01*
X3122436Y-698389D02*
X3122436Y-660294D01*
X3122436Y-660294D02*
X3112912Y-641246D01*
X3112912Y-641246D02*
X3103388Y-631722D01*
X3103388Y-631722D02*
X3084340Y-622198D01*
X3198626Y-536484D02*
X3198626Y-574579D01*
X3274817Y-536484D02*
X3274817Y-574579D01*
X3570055Y-812674D02*
X3560531Y-803151D01*
X3560531Y-803151D02*
X3541483Y-774579D01*
X3541483Y-774579D02*
X3531960Y-755532D01*
X3531960Y-755532D02*
X3522436Y-726960D01*
X3522436Y-726960D02*
X3512912Y-679341D01*
X3512912Y-679341D02*
X3512912Y-641246D01*
X3512912Y-641246D02*
X3522436Y-593627D01*
X3522436Y-593627D02*
X3531960Y-565055D01*
X3531960Y-565055D02*
X3541483Y-546008D01*
X3541483Y-546008D02*
X3560531Y-517436D01*
X3560531Y-517436D02*
X3570055Y-507912D01*
X3655769Y-736484D02*
X3693864Y-736484D01*
X3693864Y-736484D02*
X3712912Y-726960D01*
X3712912Y-726960D02*
X3722436Y-717436D01*
X3722436Y-717436D02*
X3741483Y-688865D01*
X3741483Y-688865D02*
X3751007Y-650770D01*
X3751007Y-650770D02*
X3751007Y-574579D01*
X3751007Y-574579D02*
X3741483Y-555532D01*
X3741483Y-555532D02*
X3731960Y-546008D01*
X3731960Y-546008D02*
X3712912Y-536484D01*
X3712912Y-536484D02*
X3674817Y-536484D01*
X3674817Y-536484D02*
X3655769Y-546008D01*
X3655769Y-546008D02*
X3646245Y-555532D01*
X3646245Y-555532D02*
X3636721Y-574579D01*
X3636721Y-574579D02*
X3636721Y-622198D01*
X3636721Y-622198D02*
X3646245Y-641246D01*
X3646245Y-641246D02*
X3655769Y-650770D01*
X3655769Y-650770D02*
X3674817Y-660294D01*
X3674817Y-660294D02*
X3712912Y-660294D01*
X3712912Y-660294D02*
X3731960Y-650770D01*
X3731960Y-650770D02*
X3741483Y-641246D01*
X3741483Y-641246D02*
X3751007Y-622198D01*
X3989102Y-736484D02*
X3989102Y-536484D01*
X4074817Y-736484D02*
X4074817Y-631722D01*
X4074817Y-631722D02*
X4065293Y-612674D01*
X4065293Y-612674D02*
X4046245Y-603151D01*
X4046245Y-603151D02*
X4017674Y-603151D01*
X4017674Y-603151D02*
X3998626Y-612674D01*
X3998626Y-612674D02*
X3989102Y-622198D01*
X4198626Y-736484D02*
X4179579Y-726960D01*
X4179579Y-726960D02*
X4170055Y-717436D01*
X4170055Y-717436D02*
X4160531Y-698389D01*
X4160531Y-698389D02*
X4160531Y-641246D01*
X4160531Y-641246D02*
X4170055Y-622198D01*
X4170055Y-622198D02*
X4179579Y-612674D01*
X4179579Y-612674D02*
X4198626Y-603151D01*
X4198626Y-603151D02*
X4227198Y-603151D01*
X4227198Y-603151D02*
X4246245Y-612674D01*
X4246245Y-612674D02*
X4255769Y-622198D01*
X4255769Y-622198D02*
X4265293Y-641246D01*
X4265293Y-641246D02*
X4265293Y-698389D01*
X4265293Y-698389D02*
X4255769Y-717436D01*
X4255769Y-717436D02*
X4246245Y-726960D01*
X4246245Y-726960D02*
X4227198Y-736484D01*
X4227198Y-736484D02*
X4198626Y-736484D01*
X4379579Y-736484D02*
X4360531Y-726960D01*
X4360531Y-726960D02*
X4351007Y-707912D01*
X4351007Y-707912D02*
X4351007Y-536484D01*
X4531960Y-726960D02*
X4512912Y-736484D01*
X4512912Y-736484D02*
X4474817Y-736484D01*
X4474817Y-736484D02*
X4455769Y-726960D01*
X4455769Y-726960D02*
X4446245Y-707912D01*
X4446245Y-707912D02*
X4446245Y-631722D01*
X4446245Y-631722D02*
X4455769Y-612674D01*
X4455769Y-612674D02*
X4474817Y-603151D01*
X4474817Y-603151D02*
X4512912Y-603151D01*
X4512912Y-603151D02*
X4531960Y-612674D01*
X4531960Y-612674D02*
X4541484Y-631722D01*
X4541484Y-631722D02*
X4541484Y-650770D01*
X4541484Y-650770D02*
X4446245Y-669817D01*
X4617674Y-726960D02*
X4636722Y-736484D01*
X4636722Y-736484D02*
X4674817Y-736484D01*
X4674817Y-736484D02*
X4693865Y-726960D01*
X4693865Y-726960D02*
X4703388Y-707912D01*
X4703388Y-707912D02*
X4703388Y-698389D01*
X4703388Y-698389D02*
X4693865Y-679341D01*
X4693865Y-679341D02*
X4674817Y-669817D01*
X4674817Y-669817D02*
X4646245Y-669817D01*
X4646245Y-669817D02*
X4627198Y-660294D01*
X4627198Y-660294D02*
X4617674Y-641246D01*
X4617674Y-641246D02*
X4617674Y-631722D01*
X4617674Y-631722D02*
X4627198Y-612674D01*
X4627198Y-612674D02*
X4646245Y-603151D01*
X4646245Y-603151D02*
X4674817Y-603151D01*
X4674817Y-603151D02*
X4693865Y-612674D01*
X4770055Y-812674D02*
X4779579Y-803151D01*
X4779579Y-803151D02*
X4798626Y-774579D01*
X4798626Y-774579D02*
X4808150Y-755532D01*
X4808150Y-755532D02*
X4817674Y-726960D01*
X4817674Y-726960D02*
X4827198Y-679341D01*
X4827198Y-679341D02*
X4827198Y-641246D01*
X4827198Y-641246D02*
X4817674Y-593627D01*
X4817674Y-593627D02*
X4808150Y-565055D01*
X4808150Y-565055D02*
X4798626Y-546008D01*
X4798626Y-546008D02*
X4779579Y-517436D01*
X4779579Y-517436D02*
X4770055Y-507912D01*
D13*
X-5008Y-909000D02*
G75*
G03*
X-5008Y-909000I-17500J0D01*
G01*
D11*
X293864Y-800484D02*
X312912Y-800484D01*
X312912Y-800484D02*
X331959Y-810008D01*
X331959Y-810008D02*
X341483Y-819532D01*
X341483Y-819532D02*
X351007Y-838579D01*
X351007Y-838579D02*
X360531Y-876674D01*
X360531Y-876674D02*
X360531Y-924293D01*
X360531Y-924293D02*
X351007Y-962389D01*
X351007Y-962389D02*
X341483Y-981436D01*
X341483Y-981436D02*
X331959Y-990960D01*
X331959Y-990960D02*
X312912Y-1000484D01*
X312912Y-1000484D02*
X293864Y-1000484D01*
X293864Y-1000484D02*
X274816Y-990960D01*
X274816Y-990960D02*
X265293Y-981436D01*
X265293Y-981436D02*
X255769Y-962389D01*
X255769Y-962389D02*
X246245Y-924293D01*
X246245Y-924293D02*
X246245Y-876674D01*
X246245Y-876674D02*
X255769Y-838579D01*
X255769Y-838579D02*
X265293Y-819532D01*
X265293Y-819532D02*
X274816Y-810008D01*
X274816Y-810008D02*
X293864Y-800484D01*
X446245Y-981436D02*
X455769Y-990960D01*
X455769Y-990960D02*
X446245Y-1000484D01*
X446245Y-1000484D02*
X436721Y-990960D01*
X436721Y-990960D02*
X446245Y-981436D01*
X446245Y-981436D02*
X446245Y-1000484D01*
X522435Y-800484D02*
X646245Y-800484D01*
X646245Y-800484D02*
X579578Y-876674D01*
X579578Y-876674D02*
X608150Y-876674D01*
X608150Y-876674D02*
X627197Y-886198D01*
X627197Y-886198D02*
X636721Y-895722D01*
X636721Y-895722D02*
X646245Y-914770D01*
X646245Y-914770D02*
X646245Y-962389D01*
X646245Y-962389D02*
X636721Y-981436D01*
X636721Y-981436D02*
X627197Y-990960D01*
X627197Y-990960D02*
X608150Y-1000484D01*
X608150Y-1000484D02*
X551007Y-1000484D01*
X551007Y-1000484D02*
X531959Y-990960D01*
X531959Y-990960D02*
X522435Y-981436D01*
X827197Y-800484D02*
X731959Y-800484D01*
X731959Y-800484D02*
X722435Y-895722D01*
X722435Y-895722D02*
X731959Y-886198D01*
X731959Y-886198D02*
X751007Y-876674D01*
X751007Y-876674D02*
X798626Y-876674D01*
X798626Y-876674D02*
X817674Y-886198D01*
X817674Y-886198D02*
X827197Y-895722D01*
X827197Y-895722D02*
X836721Y-914770D01*
X836721Y-914770D02*
X836721Y-962389D01*
X836721Y-962389D02*
X827197Y-981436D01*
X827197Y-981436D02*
X817674Y-990960D01*
X817674Y-990960D02*
X798626Y-1000484D01*
X798626Y-1000484D02*
X751007Y-1000484D01*
X751007Y-1000484D02*
X731959Y-990960D01*
X731959Y-990960D02*
X722435Y-981436D01*
X960531Y-800484D02*
X979578Y-800484D01*
X979578Y-800484D02*
X998626Y-810008D01*
X998626Y-810008D02*
X1008150Y-819532D01*
X1008150Y-819532D02*
X1017674Y-838579D01*
X1017674Y-838579D02*
X1027197Y-876674D01*
X1027197Y-876674D02*
X1027197Y-924293D01*
X1027197Y-924293D02*
X1017674Y-962389D01*
X1017674Y-962389D02*
X1008150Y-981436D01*
X1008150Y-981436D02*
X998626Y-990960D01*
X998626Y-990960D02*
X979578Y-1000484D01*
X979578Y-1000484D02*
X960531Y-1000484D01*
X960531Y-1000484D02*
X941483Y-990960D01*
X941483Y-990960D02*
X931959Y-981436D01*
X931959Y-981436D02*
X922435Y-962389D01*
X922435Y-962389D02*
X912912Y-924293D01*
X912912Y-924293D02*
X912912Y-876674D01*
X912912Y-876674D02*
X922435Y-838579D01*
X922435Y-838579D02*
X931959Y-819532D01*
X931959Y-819532D02*
X941483Y-810008D01*
X941483Y-810008D02*
X960531Y-800484D01*
X1112912Y-1000484D02*
X1112912Y-867151D01*
X1112912Y-886198D02*
X1122436Y-876674D01*
X1122436Y-876674D02*
X1141483Y-867151D01*
X1141483Y-867151D02*
X1170055Y-867151D01*
X1170055Y-867151D02*
X1189102Y-876674D01*
X1189102Y-876674D02*
X1198626Y-895722D01*
X1198626Y-895722D02*
X1198626Y-1000484D01*
X1198626Y-895722D02*
X1208150Y-876674D01*
X1208150Y-876674D02*
X1227197Y-867151D01*
X1227197Y-867151D02*
X1255769Y-867151D01*
X1255769Y-867151D02*
X1274817Y-876674D01*
X1274817Y-876674D02*
X1284340Y-895722D01*
X1284340Y-895722D02*
X1284340Y-1000484D01*
X1379578Y-1000484D02*
X1379578Y-867151D01*
X1379578Y-886198D02*
X1389102Y-876674D01*
X1389102Y-876674D02*
X1408150Y-867151D01*
X1408150Y-867151D02*
X1436721Y-867151D01*
X1436721Y-867151D02*
X1455769Y-876674D01*
X1455769Y-876674D02*
X1465293Y-895722D01*
X1465293Y-895722D02*
X1465293Y-1000484D01*
X1465293Y-895722D02*
X1474816Y-876674D01*
X1474816Y-876674D02*
X1493864Y-867151D01*
X1493864Y-867151D02*
X1522435Y-867151D01*
X1522435Y-867151D02*
X1541483Y-876674D01*
X1541483Y-876674D02*
X1551007Y-895722D01*
X1551007Y-895722D02*
X1551007Y-1000484D01*
X1941483Y-790960D02*
X1770055Y-1048103D01*
X2198626Y-800484D02*
X2217674Y-800484D01*
X2217674Y-800484D02*
X2236721Y-810008D01*
X2236721Y-810008D02*
X2246245Y-819532D01*
X2246245Y-819532D02*
X2255769Y-838579D01*
X2255769Y-838579D02*
X2265293Y-876674D01*
X2265293Y-876674D02*
X2265293Y-924293D01*
X2265293Y-924293D02*
X2255769Y-962389D01*
X2255769Y-962389D02*
X2246245Y-981436D01*
X2246245Y-981436D02*
X2236721Y-990960D01*
X2236721Y-990960D02*
X2217674Y-1000484D01*
X2217674Y-1000484D02*
X2198626Y-1000484D01*
X2198626Y-1000484D02*
X2179579Y-990960D01*
X2179579Y-990960D02*
X2170055Y-981436D01*
X2170055Y-981436D02*
X2160531Y-962389D01*
X2160531Y-962389D02*
X2151007Y-924293D01*
X2151007Y-924293D02*
X2151007Y-876674D01*
X2151007Y-876674D02*
X2160531Y-838579D01*
X2160531Y-838579D02*
X2170055Y-819532D01*
X2170055Y-819532D02*
X2179579Y-810008D01*
X2179579Y-810008D02*
X2198626Y-800484D01*
X2351007Y-981436D02*
X2360531Y-990960D01*
X2360531Y-990960D02*
X2351007Y-1000484D01*
X2351007Y-1000484D02*
X2341483Y-990960D01*
X2341483Y-990960D02*
X2351007Y-981436D01*
X2351007Y-981436D02*
X2351007Y-1000484D01*
X2484340Y-800484D02*
X2503388Y-800484D01*
X2503388Y-800484D02*
X2522436Y-810008D01*
X2522436Y-810008D02*
X2531960Y-819532D01*
X2531960Y-819532D02*
X2541483Y-838579D01*
X2541483Y-838579D02*
X2551007Y-876674D01*
X2551007Y-876674D02*
X2551007Y-924293D01*
X2551007Y-924293D02*
X2541483Y-962389D01*
X2541483Y-962389D02*
X2531960Y-981436D01*
X2531960Y-981436D02*
X2522436Y-990960D01*
X2522436Y-990960D02*
X2503388Y-1000484D01*
X2503388Y-1000484D02*
X2484340Y-1000484D01*
X2484340Y-1000484D02*
X2465293Y-990960D01*
X2465293Y-990960D02*
X2455769Y-981436D01*
X2455769Y-981436D02*
X2446245Y-962389D01*
X2446245Y-962389D02*
X2436721Y-924293D01*
X2436721Y-924293D02*
X2436721Y-876674D01*
X2436721Y-876674D02*
X2446245Y-838579D01*
X2446245Y-838579D02*
X2455769Y-819532D01*
X2455769Y-819532D02*
X2465293Y-810008D01*
X2465293Y-810008D02*
X2484340Y-800484D01*
X2741483Y-1000484D02*
X2627198Y-1000484D01*
X2684340Y-1000484D02*
X2684340Y-800484D01*
X2684340Y-800484D02*
X2665293Y-829055D01*
X2665293Y-829055D02*
X2646245Y-848103D01*
X2646245Y-848103D02*
X2627198Y-857627D01*
X2808150Y-800484D02*
X2931959Y-800484D01*
X2931959Y-800484D02*
X2865293Y-876674D01*
X2865293Y-876674D02*
X2893864Y-876674D01*
X2893864Y-876674D02*
X2912912Y-886198D01*
X2912912Y-886198D02*
X2922436Y-895722D01*
X2922436Y-895722D02*
X2931959Y-914770D01*
X2931959Y-914770D02*
X2931959Y-962389D01*
X2931959Y-962389D02*
X2922436Y-981436D01*
X2922436Y-981436D02*
X2912912Y-990960D01*
X2912912Y-990960D02*
X2893864Y-1000484D01*
X2893864Y-1000484D02*
X2836721Y-1000484D01*
X2836721Y-1000484D02*
X2817674Y-990960D01*
X2817674Y-990960D02*
X2808150Y-981436D01*
X3046245Y-886198D02*
X3027198Y-876674D01*
X3027198Y-876674D02*
X3017674Y-867151D01*
X3017674Y-867151D02*
X3008150Y-848103D01*
X3008150Y-848103D02*
X3008150Y-838579D01*
X3008150Y-838579D02*
X3017674Y-819532D01*
X3017674Y-819532D02*
X3027198Y-810008D01*
X3027198Y-810008D02*
X3046245Y-800484D01*
X3046245Y-800484D02*
X3084340Y-800484D01*
X3084340Y-800484D02*
X3103388Y-810008D01*
X3103388Y-810008D02*
X3112912Y-819532D01*
X3112912Y-819532D02*
X3122436Y-838579D01*
X3122436Y-838579D02*
X3122436Y-848103D01*
X3122436Y-848103D02*
X3112912Y-867151D01*
X3112912Y-867151D02*
X3103388Y-876674D01*
X3103388Y-876674D02*
X3084340Y-886198D01*
X3084340Y-886198D02*
X3046245Y-886198D01*
X3046245Y-886198D02*
X3027198Y-895722D01*
X3027198Y-895722D02*
X3017674Y-905246D01*
X3017674Y-905246D02*
X3008150Y-924293D01*
X3008150Y-924293D02*
X3008150Y-962389D01*
X3008150Y-962389D02*
X3017674Y-981436D01*
X3017674Y-981436D02*
X3027198Y-990960D01*
X3027198Y-990960D02*
X3046245Y-1000484D01*
X3046245Y-1000484D02*
X3084340Y-1000484D01*
X3084340Y-1000484D02*
X3103388Y-990960D01*
X3103388Y-990960D02*
X3112912Y-981436D01*
X3112912Y-981436D02*
X3122436Y-962389D01*
X3122436Y-962389D02*
X3122436Y-924293D01*
X3122436Y-924293D02*
X3112912Y-905246D01*
X3112912Y-905246D02*
X3103388Y-895722D01*
X3103388Y-895722D02*
X3084340Y-886198D01*
X3198626Y-800484D02*
X3198626Y-838579D01*
X3274817Y-800484D02*
X3274817Y-838579D01*
X3570055Y-1076674D02*
X3560531Y-1067151D01*
X3560531Y-1067151D02*
X3541483Y-1038579D01*
X3541483Y-1038579D02*
X3531960Y-1019532D01*
X3531960Y-1019532D02*
X3522436Y-990960D01*
X3522436Y-990960D02*
X3512912Y-943341D01*
X3512912Y-943341D02*
X3512912Y-905246D01*
X3512912Y-905246D02*
X3522436Y-857627D01*
X3522436Y-857627D02*
X3531960Y-829055D01*
X3531960Y-829055D02*
X3541483Y-810008D01*
X3541483Y-810008D02*
X3560531Y-781436D01*
X3560531Y-781436D02*
X3570055Y-771912D01*
X3627198Y-800484D02*
X3751007Y-800484D01*
X3751007Y-800484D02*
X3684340Y-876674D01*
X3684340Y-876674D02*
X3712912Y-876674D01*
X3712912Y-876674D02*
X3731960Y-886198D01*
X3731960Y-886198D02*
X3741483Y-895722D01*
X3741483Y-895722D02*
X3751007Y-914770D01*
X3751007Y-914770D02*
X3751007Y-962389D01*
X3751007Y-962389D02*
X3741483Y-981436D01*
X3741483Y-981436D02*
X3731960Y-990960D01*
X3731960Y-990960D02*
X3712912Y-1000484D01*
X3712912Y-1000484D02*
X3655769Y-1000484D01*
X3655769Y-1000484D02*
X3636721Y-990960D01*
X3636721Y-990960D02*
X3627198Y-981436D01*
X3989102Y-1000484D02*
X3989102Y-800484D01*
X4074817Y-1000484D02*
X4074817Y-895722D01*
X4074817Y-895722D02*
X4065293Y-876674D01*
X4065293Y-876674D02*
X4046245Y-867151D01*
X4046245Y-867151D02*
X4017674Y-867151D01*
X4017674Y-867151D02*
X3998626Y-876674D01*
X3998626Y-876674D02*
X3989102Y-886198D01*
X4198626Y-1000484D02*
X4179579Y-990960D01*
X4179579Y-990960D02*
X4170055Y-981436D01*
X4170055Y-981436D02*
X4160531Y-962389D01*
X4160531Y-962389D02*
X4160531Y-905246D01*
X4160531Y-905246D02*
X4170055Y-886198D01*
X4170055Y-886198D02*
X4179579Y-876674D01*
X4179579Y-876674D02*
X4198626Y-867151D01*
X4198626Y-867151D02*
X4227198Y-867151D01*
X4227198Y-867151D02*
X4246245Y-876674D01*
X4246245Y-876674D02*
X4255769Y-886198D01*
X4255769Y-886198D02*
X4265293Y-905246D01*
X4265293Y-905246D02*
X4265293Y-962389D01*
X4265293Y-962389D02*
X4255769Y-981436D01*
X4255769Y-981436D02*
X4246245Y-990960D01*
X4246245Y-990960D02*
X4227198Y-1000484D01*
X4227198Y-1000484D02*
X4198626Y-1000484D01*
X4379579Y-1000484D02*
X4360531Y-990960D01*
X4360531Y-990960D02*
X4351007Y-971912D01*
X4351007Y-971912D02*
X4351007Y-800484D01*
X4531960Y-990960D02*
X4512912Y-1000484D01*
X4512912Y-1000484D02*
X4474817Y-1000484D01*
X4474817Y-1000484D02*
X4455769Y-990960D01*
X4455769Y-990960D02*
X4446245Y-971912D01*
X4446245Y-971912D02*
X4446245Y-895722D01*
X4446245Y-895722D02*
X4455769Y-876674D01*
X4455769Y-876674D02*
X4474817Y-867151D01*
X4474817Y-867151D02*
X4512912Y-867151D01*
X4512912Y-867151D02*
X4531960Y-876674D01*
X4531960Y-876674D02*
X4541484Y-895722D01*
X4541484Y-895722D02*
X4541484Y-914770D01*
X4541484Y-914770D02*
X4446245Y-933817D01*
X4617674Y-990960D02*
X4636722Y-1000484D01*
X4636722Y-1000484D02*
X4674817Y-1000484D01*
X4674817Y-1000484D02*
X4693865Y-990960D01*
X4693865Y-990960D02*
X4703388Y-971912D01*
X4703388Y-971912D02*
X4703388Y-962389D01*
X4703388Y-962389D02*
X4693865Y-943341D01*
X4693865Y-943341D02*
X4674817Y-933817D01*
X4674817Y-933817D02*
X4646245Y-933817D01*
X4646245Y-933817D02*
X4627198Y-924293D01*
X4627198Y-924293D02*
X4617674Y-905246D01*
X4617674Y-905246D02*
X4617674Y-895722D01*
X4617674Y-895722D02*
X4627198Y-876674D01*
X4627198Y-876674D02*
X4646245Y-867151D01*
X4646245Y-867151D02*
X4674817Y-867151D01*
X4674817Y-867151D02*
X4693865Y-876674D01*
X4770055Y-1076674D02*
X4779579Y-1067151D01*
X4779579Y-1067151D02*
X4798626Y-1038579D01*
X4798626Y-1038579D02*
X4808150Y-1019532D01*
X4808150Y-1019532D02*
X4817674Y-990960D01*
X4817674Y-990960D02*
X4827198Y-943341D01*
X4827198Y-943341D02*
X4827198Y-905246D01*
X4827198Y-905246D02*
X4817674Y-857627D01*
X4817674Y-857627D02*
X4808150Y-829055D01*
X4808150Y-829055D02*
X4798626Y-810008D01*
X4798626Y-810008D02*
X4779579Y-781436D01*
X4779579Y-781436D02*
X4770055Y-771912D01*
D14*
X-25008Y-1153000D02*
X-25008Y-1193000D01*
X-45008Y-1173000D02*
X-5008Y-1173000D01*
D11*
X293864Y-1064484D02*
X312912Y-1064484D01*
X312912Y-1064484D02*
X331959Y-1074008D01*
X331959Y-1074008D02*
X341483Y-1083532D01*
X341483Y-1083532D02*
X351007Y-1102579D01*
X351007Y-1102579D02*
X360531Y-1140674D01*
X360531Y-1140674D02*
X360531Y-1188294D01*
X360531Y-1188294D02*
X351007Y-1226389D01*
X351007Y-1226389D02*
X341483Y-1245436D01*
X341483Y-1245436D02*
X331959Y-1254960D01*
X331959Y-1254960D02*
X312912Y-1264484D01*
X312912Y-1264484D02*
X293864Y-1264484D01*
X293864Y-1264484D02*
X274816Y-1254960D01*
X274816Y-1254960D02*
X265293Y-1245436D01*
X265293Y-1245436D02*
X255769Y-1226389D01*
X255769Y-1226389D02*
X246245Y-1188294D01*
X246245Y-1188294D02*
X246245Y-1140674D01*
X246245Y-1140674D02*
X255769Y-1102579D01*
X255769Y-1102579D02*
X265293Y-1083532D01*
X265293Y-1083532D02*
X274816Y-1074008D01*
X274816Y-1074008D02*
X293864Y-1064484D01*
X446245Y-1245436D02*
X455769Y-1254960D01*
X455769Y-1254960D02*
X446245Y-1264484D01*
X446245Y-1264484D02*
X436721Y-1254960D01*
X436721Y-1254960D02*
X446245Y-1245436D01*
X446245Y-1245436D02*
X446245Y-1264484D01*
X627197Y-1131151D02*
X627197Y-1264484D01*
X579578Y-1054960D02*
X531959Y-1197817D01*
X531959Y-1197817D02*
X655769Y-1197817D01*
X770054Y-1064484D02*
X789102Y-1064484D01*
X789102Y-1064484D02*
X808150Y-1074008D01*
X808150Y-1074008D02*
X817674Y-1083532D01*
X817674Y-1083532D02*
X827197Y-1102579D01*
X827197Y-1102579D02*
X836721Y-1140674D01*
X836721Y-1140674D02*
X836721Y-1188294D01*
X836721Y-1188294D02*
X827197Y-1226389D01*
X827197Y-1226389D02*
X817674Y-1245436D01*
X817674Y-1245436D02*
X808150Y-1254960D01*
X808150Y-1254960D02*
X789102Y-1264484D01*
X789102Y-1264484D02*
X770054Y-1264484D01*
X770054Y-1264484D02*
X751007Y-1254960D01*
X751007Y-1254960D02*
X741483Y-1245436D01*
X741483Y-1245436D02*
X731959Y-1226389D01*
X731959Y-1226389D02*
X722435Y-1188294D01*
X722435Y-1188294D02*
X722435Y-1140674D01*
X722435Y-1140674D02*
X731959Y-1102579D01*
X731959Y-1102579D02*
X741483Y-1083532D01*
X741483Y-1083532D02*
X751007Y-1074008D01*
X751007Y-1074008D02*
X770054Y-1064484D01*
X960531Y-1064484D02*
X979578Y-1064484D01*
X979578Y-1064484D02*
X998626Y-1074008D01*
X998626Y-1074008D02*
X1008150Y-1083532D01*
X1008150Y-1083532D02*
X1017674Y-1102579D01*
X1017674Y-1102579D02*
X1027197Y-1140674D01*
X1027197Y-1140674D02*
X1027197Y-1188294D01*
X1027197Y-1188294D02*
X1017674Y-1226389D01*
X1017674Y-1226389D02*
X1008150Y-1245436D01*
X1008150Y-1245436D02*
X998626Y-1254960D01*
X998626Y-1254960D02*
X979578Y-1264484D01*
X979578Y-1264484D02*
X960531Y-1264484D01*
X960531Y-1264484D02*
X941483Y-1254960D01*
X941483Y-1254960D02*
X931959Y-1245436D01*
X931959Y-1245436D02*
X922435Y-1226389D01*
X922435Y-1226389D02*
X912912Y-1188294D01*
X912912Y-1188294D02*
X912912Y-1140674D01*
X912912Y-1140674D02*
X922435Y-1102579D01*
X922435Y-1102579D02*
X931959Y-1083532D01*
X931959Y-1083532D02*
X941483Y-1074008D01*
X941483Y-1074008D02*
X960531Y-1064484D01*
X1112912Y-1264484D02*
X1112912Y-1131151D01*
X1112912Y-1150198D02*
X1122436Y-1140674D01*
X1122436Y-1140674D02*
X1141483Y-1131151D01*
X1141483Y-1131151D02*
X1170055Y-1131151D01*
X1170055Y-1131151D02*
X1189102Y-1140674D01*
X1189102Y-1140674D02*
X1198626Y-1159722D01*
X1198626Y-1159722D02*
X1198626Y-1264484D01*
X1198626Y-1159722D02*
X1208150Y-1140674D01*
X1208150Y-1140674D02*
X1227197Y-1131151D01*
X1227197Y-1131151D02*
X1255769Y-1131151D01*
X1255769Y-1131151D02*
X1274817Y-1140674D01*
X1274817Y-1140674D02*
X1284340Y-1159722D01*
X1284340Y-1159722D02*
X1284340Y-1264484D01*
X1379578Y-1264484D02*
X1379578Y-1131151D01*
X1379578Y-1150198D02*
X1389102Y-1140674D01*
X1389102Y-1140674D02*
X1408150Y-1131151D01*
X1408150Y-1131151D02*
X1436721Y-1131151D01*
X1436721Y-1131151D02*
X1455769Y-1140674D01*
X1455769Y-1140674D02*
X1465293Y-1159722D01*
X1465293Y-1159722D02*
X1465293Y-1264484D01*
X1465293Y-1159722D02*
X1474816Y-1140674D01*
X1474816Y-1140674D02*
X1493864Y-1131151D01*
X1493864Y-1131151D02*
X1522435Y-1131151D01*
X1522435Y-1131151D02*
X1541483Y-1140674D01*
X1541483Y-1140674D02*
X1551007Y-1159722D01*
X1551007Y-1159722D02*
X1551007Y-1264484D01*
X1941483Y-1054960D02*
X1770055Y-1312103D01*
X2198626Y-1064484D02*
X2217674Y-1064484D01*
X2217674Y-1064484D02*
X2236721Y-1074008D01*
X2236721Y-1074008D02*
X2246245Y-1083532D01*
X2246245Y-1083532D02*
X2255769Y-1102579D01*
X2255769Y-1102579D02*
X2265293Y-1140674D01*
X2265293Y-1140674D02*
X2265293Y-1188294D01*
X2265293Y-1188294D02*
X2255769Y-1226389D01*
X2255769Y-1226389D02*
X2246245Y-1245436D01*
X2246245Y-1245436D02*
X2236721Y-1254960D01*
X2236721Y-1254960D02*
X2217674Y-1264484D01*
X2217674Y-1264484D02*
X2198626Y-1264484D01*
X2198626Y-1264484D02*
X2179579Y-1254960D01*
X2179579Y-1254960D02*
X2170055Y-1245436D01*
X2170055Y-1245436D02*
X2160531Y-1226389D01*
X2160531Y-1226389D02*
X2151007Y-1188294D01*
X2151007Y-1188294D02*
X2151007Y-1140674D01*
X2151007Y-1140674D02*
X2160531Y-1102579D01*
X2160531Y-1102579D02*
X2170055Y-1083532D01*
X2170055Y-1083532D02*
X2179579Y-1074008D01*
X2179579Y-1074008D02*
X2198626Y-1064484D01*
X2351007Y-1245436D02*
X2360531Y-1254960D01*
X2360531Y-1254960D02*
X2351007Y-1264484D01*
X2351007Y-1264484D02*
X2341483Y-1254960D01*
X2341483Y-1254960D02*
X2351007Y-1245436D01*
X2351007Y-1245436D02*
X2351007Y-1264484D01*
X2484340Y-1064484D02*
X2503388Y-1064484D01*
X2503388Y-1064484D02*
X2522436Y-1074008D01*
X2522436Y-1074008D02*
X2531960Y-1083532D01*
X2531960Y-1083532D02*
X2541483Y-1102579D01*
X2541483Y-1102579D02*
X2551007Y-1140674D01*
X2551007Y-1140674D02*
X2551007Y-1188294D01*
X2551007Y-1188294D02*
X2541483Y-1226389D01*
X2541483Y-1226389D02*
X2531960Y-1245436D01*
X2531960Y-1245436D02*
X2522436Y-1254960D01*
X2522436Y-1254960D02*
X2503388Y-1264484D01*
X2503388Y-1264484D02*
X2484340Y-1264484D01*
X2484340Y-1264484D02*
X2465293Y-1254960D01*
X2465293Y-1254960D02*
X2455769Y-1245436D01*
X2455769Y-1245436D02*
X2446245Y-1226389D01*
X2446245Y-1226389D02*
X2436721Y-1188294D01*
X2436721Y-1188294D02*
X2436721Y-1140674D01*
X2436721Y-1140674D02*
X2446245Y-1102579D01*
X2446245Y-1102579D02*
X2455769Y-1083532D01*
X2455769Y-1083532D02*
X2465293Y-1074008D01*
X2465293Y-1074008D02*
X2484340Y-1064484D01*
X2741483Y-1264484D02*
X2627198Y-1264484D01*
X2684340Y-1264484D02*
X2684340Y-1064484D01*
X2684340Y-1064484D02*
X2665293Y-1093055D01*
X2665293Y-1093055D02*
X2646245Y-1112103D01*
X2646245Y-1112103D02*
X2627198Y-1121627D01*
X2922436Y-1064484D02*
X2827198Y-1064484D01*
X2827198Y-1064484D02*
X2817674Y-1159722D01*
X2817674Y-1159722D02*
X2827198Y-1150198D01*
X2827198Y-1150198D02*
X2846245Y-1140674D01*
X2846245Y-1140674D02*
X2893864Y-1140674D01*
X2893864Y-1140674D02*
X2912912Y-1150198D01*
X2912912Y-1150198D02*
X2922436Y-1159722D01*
X2922436Y-1159722D02*
X2931959Y-1178770D01*
X2931959Y-1178770D02*
X2931959Y-1226389D01*
X2931959Y-1226389D02*
X2922436Y-1245436D01*
X2922436Y-1245436D02*
X2912912Y-1254960D01*
X2912912Y-1254960D02*
X2893864Y-1264484D01*
X2893864Y-1264484D02*
X2846245Y-1264484D01*
X2846245Y-1264484D02*
X2827198Y-1254960D01*
X2827198Y-1254960D02*
X2817674Y-1245436D01*
X2998626Y-1064484D02*
X3131959Y-1064484D01*
X3131959Y-1064484D02*
X3046245Y-1264484D01*
X3198626Y-1064484D02*
X3198626Y-1102579D01*
X3274817Y-1064484D02*
X3274817Y-1102579D01*
X3570055Y-1340674D02*
X3560531Y-1331151D01*
X3560531Y-1331151D02*
X3541483Y-1302579D01*
X3541483Y-1302579D02*
X3531960Y-1283532D01*
X3531960Y-1283532D02*
X3522436Y-1254960D01*
X3522436Y-1254960D02*
X3512912Y-1207341D01*
X3512912Y-1207341D02*
X3512912Y-1169246D01*
X3512912Y-1169246D02*
X3522436Y-1121627D01*
X3522436Y-1121627D02*
X3531960Y-1093055D01*
X3531960Y-1093055D02*
X3541483Y-1074008D01*
X3541483Y-1074008D02*
X3560531Y-1045436D01*
X3560531Y-1045436D02*
X3570055Y-1035912D01*
X3627198Y-1064484D02*
X3751007Y-1064484D01*
X3751007Y-1064484D02*
X3684340Y-1140674D01*
X3684340Y-1140674D02*
X3712912Y-1140674D01*
X3712912Y-1140674D02*
X3731960Y-1150198D01*
X3731960Y-1150198D02*
X3741483Y-1159722D01*
X3741483Y-1159722D02*
X3751007Y-1178770D01*
X3751007Y-1178770D02*
X3751007Y-1226389D01*
X3751007Y-1226389D02*
X3741483Y-1245436D01*
X3741483Y-1245436D02*
X3731960Y-1254960D01*
X3731960Y-1254960D02*
X3712912Y-1264484D01*
X3712912Y-1264484D02*
X3655769Y-1264484D01*
X3655769Y-1264484D02*
X3636721Y-1254960D01*
X3636721Y-1254960D02*
X3627198Y-1245436D01*
X3846245Y-1264484D02*
X3884340Y-1264484D01*
X3884340Y-1264484D02*
X3903388Y-1254960D01*
X3903388Y-1254960D02*
X3912912Y-1245436D01*
X3912912Y-1245436D02*
X3931960Y-1216865D01*
X3931960Y-1216865D02*
X3941483Y-1178770D01*
X3941483Y-1178770D02*
X3941483Y-1102579D01*
X3941483Y-1102579D02*
X3931960Y-1083532D01*
X3931960Y-1083532D02*
X3922436Y-1074008D01*
X3922436Y-1074008D02*
X3903388Y-1064484D01*
X3903388Y-1064484D02*
X3865293Y-1064484D01*
X3865293Y-1064484D02*
X3846245Y-1074008D01*
X3846245Y-1074008D02*
X3836721Y-1083532D01*
X3836721Y-1083532D02*
X3827198Y-1102579D01*
X3827198Y-1102579D02*
X3827198Y-1150198D01*
X3827198Y-1150198D02*
X3836721Y-1169246D01*
X3836721Y-1169246D02*
X3846245Y-1178770D01*
X3846245Y-1178770D02*
X3865293Y-1188294D01*
X3865293Y-1188294D02*
X3903388Y-1188294D01*
X3903388Y-1188294D02*
X3922436Y-1178770D01*
X3922436Y-1178770D02*
X3931960Y-1169246D01*
X3931960Y-1169246D02*
X3941483Y-1150198D01*
X4179579Y-1264484D02*
X4179579Y-1064484D01*
X4265293Y-1264484D02*
X4265293Y-1159722D01*
X4265293Y-1159722D02*
X4255769Y-1140674D01*
X4255769Y-1140674D02*
X4236722Y-1131151D01*
X4236722Y-1131151D02*
X4208150Y-1131151D01*
X4208150Y-1131151D02*
X4189102Y-1140674D01*
X4189102Y-1140674D02*
X4179579Y-1150198D01*
X4389103Y-1264484D02*
X4370055Y-1254960D01*
X4370055Y-1254960D02*
X4360531Y-1245436D01*
X4360531Y-1245436D02*
X4351007Y-1226389D01*
X4351007Y-1226389D02*
X4351007Y-1169246D01*
X4351007Y-1169246D02*
X4360531Y-1150198D01*
X4360531Y-1150198D02*
X4370055Y-1140674D01*
X4370055Y-1140674D02*
X4389103Y-1131151D01*
X4389103Y-1131151D02*
X4417674Y-1131151D01*
X4417674Y-1131151D02*
X4436722Y-1140674D01*
X4436722Y-1140674D02*
X4446245Y-1150198D01*
X4446245Y-1150198D02*
X4455769Y-1169246D01*
X4455769Y-1169246D02*
X4455769Y-1226389D01*
X4455769Y-1226389D02*
X4446245Y-1245436D01*
X4446245Y-1245436D02*
X4436722Y-1254960D01*
X4436722Y-1254960D02*
X4417674Y-1264484D01*
X4417674Y-1264484D02*
X4389103Y-1264484D01*
X4570055Y-1264484D02*
X4551007Y-1254960D01*
X4551007Y-1254960D02*
X4541484Y-1235913D01*
X4541484Y-1235913D02*
X4541484Y-1064484D01*
X4722436Y-1254960D02*
X4703388Y-1264484D01*
X4703388Y-1264484D02*
X4665293Y-1264484D01*
X4665293Y-1264484D02*
X4646245Y-1254960D01*
X4646245Y-1254960D02*
X4636722Y-1235913D01*
X4636722Y-1235913D02*
X4636722Y-1159722D01*
X4636722Y-1159722D02*
X4646245Y-1140674D01*
X4646245Y-1140674D02*
X4665293Y-1131151D01*
X4665293Y-1131151D02*
X4703388Y-1131151D01*
X4703388Y-1131151D02*
X4722436Y-1140674D01*
X4722436Y-1140674D02*
X4731960Y-1159722D01*
X4731960Y-1159722D02*
X4731960Y-1178770D01*
X4731960Y-1178770D02*
X4636722Y-1197817D01*
X4808150Y-1254960D02*
X4827198Y-1264484D01*
X4827198Y-1264484D02*
X4865293Y-1264484D01*
X4865293Y-1264484D02*
X4884341Y-1254960D01*
X4884341Y-1254960D02*
X4893865Y-1235913D01*
X4893865Y-1235913D02*
X4893865Y-1226389D01*
X4893865Y-1226389D02*
X4884341Y-1207341D01*
X4884341Y-1207341D02*
X4865293Y-1197817D01*
X4865293Y-1197817D02*
X4836722Y-1197817D01*
X4836722Y-1197817D02*
X4817674Y-1188294D01*
X4817674Y-1188294D02*
X4808150Y-1169246D01*
X4808150Y-1169246D02*
X4808150Y-1159722D01*
X4808150Y-1159722D02*
X4817674Y-1140674D01*
X4817674Y-1140674D02*
X4836722Y-1131151D01*
X4836722Y-1131151D02*
X4865293Y-1131151D01*
X4865293Y-1131151D02*
X4884341Y-1140674D01*
X4960531Y-1340674D02*
X4970055Y-1331151D01*
X4970055Y-1331151D02*
X4989103Y-1302579D01*
X4989103Y-1302579D02*
X4998626Y-1283532D01*
X4998626Y-1283532D02*
X5008150Y-1254960D01*
X5008150Y-1254960D02*
X5017674Y-1207341D01*
X5017674Y-1207341D02*
X5017674Y-1169246D01*
X5017674Y-1169246D02*
X5008150Y-1121627D01*
X5008150Y-1121627D02*
X4998626Y-1093055D01*
X4998626Y-1093055D02*
X4989103Y-1074008D01*
X4989103Y-1074008D02*
X4970055Y-1045436D01*
X4970055Y-1045436D02*
X4960531Y-1035912D01*
D14*
X-10866Y-1451142D02*
X-10866Y-1422858D01*
X-39150Y-1422858D01*
X-39150Y-1451142D01*
X-10866Y-1451142D01*
D11*
X293864Y-1328484D02*
X312912Y-1328484D01*
X312912Y-1328484D02*
X331959Y-1338008D01*
X331959Y-1338008D02*
X341483Y-1347532D01*
X341483Y-1347532D02*
X351007Y-1366579D01*
X351007Y-1366579D02*
X360531Y-1404674D01*
X360531Y-1404674D02*
X360531Y-1452293D01*
X360531Y-1452293D02*
X351007Y-1490389D01*
X351007Y-1490389D02*
X341483Y-1509436D01*
X341483Y-1509436D02*
X331959Y-1518960D01*
X331959Y-1518960D02*
X312912Y-1528484D01*
X312912Y-1528484D02*
X293864Y-1528484D01*
X293864Y-1528484D02*
X274816Y-1518960D01*
X274816Y-1518960D02*
X265293Y-1509436D01*
X265293Y-1509436D02*
X255769Y-1490389D01*
X255769Y-1490389D02*
X246245Y-1452293D01*
X246245Y-1452293D02*
X246245Y-1404674D01*
X246245Y-1404674D02*
X255769Y-1366579D01*
X255769Y-1366579D02*
X265293Y-1347532D01*
X265293Y-1347532D02*
X274816Y-1338008D01*
X274816Y-1338008D02*
X293864Y-1328484D01*
X446245Y-1509436D02*
X455769Y-1518960D01*
X455769Y-1518960D02*
X446245Y-1528484D01*
X446245Y-1528484D02*
X436721Y-1518960D01*
X436721Y-1518960D02*
X446245Y-1509436D01*
X446245Y-1509436D02*
X446245Y-1528484D01*
X627197Y-1395151D02*
X627197Y-1528484D01*
X579578Y-1318960D02*
X531959Y-1461817D01*
X531959Y-1461817D02*
X655769Y-1461817D01*
X770054Y-1328484D02*
X789102Y-1328484D01*
X789102Y-1328484D02*
X808150Y-1338008D01*
X808150Y-1338008D02*
X817674Y-1347532D01*
X817674Y-1347532D02*
X827197Y-1366579D01*
X827197Y-1366579D02*
X836721Y-1404674D01*
X836721Y-1404674D02*
X836721Y-1452293D01*
X836721Y-1452293D02*
X827197Y-1490389D01*
X827197Y-1490389D02*
X817674Y-1509436D01*
X817674Y-1509436D02*
X808150Y-1518960D01*
X808150Y-1518960D02*
X789102Y-1528484D01*
X789102Y-1528484D02*
X770054Y-1528484D01*
X770054Y-1528484D02*
X751007Y-1518960D01*
X751007Y-1518960D02*
X741483Y-1509436D01*
X741483Y-1509436D02*
X731959Y-1490389D01*
X731959Y-1490389D02*
X722435Y-1452293D01*
X722435Y-1452293D02*
X722435Y-1404674D01*
X722435Y-1404674D02*
X731959Y-1366579D01*
X731959Y-1366579D02*
X741483Y-1347532D01*
X741483Y-1347532D02*
X751007Y-1338008D01*
X751007Y-1338008D02*
X770054Y-1328484D01*
X960531Y-1328484D02*
X979578Y-1328484D01*
X979578Y-1328484D02*
X998626Y-1338008D01*
X998626Y-1338008D02*
X1008150Y-1347532D01*
X1008150Y-1347532D02*
X1017674Y-1366579D01*
X1017674Y-1366579D02*
X1027197Y-1404674D01*
X1027197Y-1404674D02*
X1027197Y-1452293D01*
X1027197Y-1452293D02*
X1017674Y-1490389D01*
X1017674Y-1490389D02*
X1008150Y-1509436D01*
X1008150Y-1509436D02*
X998626Y-1518960D01*
X998626Y-1518960D02*
X979578Y-1528484D01*
X979578Y-1528484D02*
X960531Y-1528484D01*
X960531Y-1528484D02*
X941483Y-1518960D01*
X941483Y-1518960D02*
X931959Y-1509436D01*
X931959Y-1509436D02*
X922435Y-1490389D01*
X922435Y-1490389D02*
X912912Y-1452293D01*
X912912Y-1452293D02*
X912912Y-1404674D01*
X912912Y-1404674D02*
X922435Y-1366579D01*
X922435Y-1366579D02*
X931959Y-1347532D01*
X931959Y-1347532D02*
X941483Y-1338008D01*
X941483Y-1338008D02*
X960531Y-1328484D01*
X1112912Y-1528484D02*
X1112912Y-1395151D01*
X1112912Y-1414198D02*
X1122436Y-1404674D01*
X1122436Y-1404674D02*
X1141483Y-1395151D01*
X1141483Y-1395151D02*
X1170055Y-1395151D01*
X1170055Y-1395151D02*
X1189102Y-1404674D01*
X1189102Y-1404674D02*
X1198626Y-1423722D01*
X1198626Y-1423722D02*
X1198626Y-1528484D01*
X1198626Y-1423722D02*
X1208150Y-1404674D01*
X1208150Y-1404674D02*
X1227197Y-1395151D01*
X1227197Y-1395151D02*
X1255769Y-1395151D01*
X1255769Y-1395151D02*
X1274817Y-1404674D01*
X1274817Y-1404674D02*
X1284340Y-1423722D01*
X1284340Y-1423722D02*
X1284340Y-1528484D01*
X1379578Y-1528484D02*
X1379578Y-1395151D01*
X1379578Y-1414198D02*
X1389102Y-1404674D01*
X1389102Y-1404674D02*
X1408150Y-1395151D01*
X1408150Y-1395151D02*
X1436721Y-1395151D01*
X1436721Y-1395151D02*
X1455769Y-1404674D01*
X1455769Y-1404674D02*
X1465293Y-1423722D01*
X1465293Y-1423722D02*
X1465293Y-1528484D01*
X1465293Y-1423722D02*
X1474816Y-1404674D01*
X1474816Y-1404674D02*
X1493864Y-1395151D01*
X1493864Y-1395151D02*
X1522435Y-1395151D01*
X1522435Y-1395151D02*
X1541483Y-1404674D01*
X1541483Y-1404674D02*
X1551007Y-1423722D01*
X1551007Y-1423722D02*
X1551007Y-1528484D01*
X1941483Y-1318960D02*
X1770055Y-1576103D01*
X2198626Y-1328484D02*
X2217674Y-1328484D01*
X2217674Y-1328484D02*
X2236721Y-1338008D01*
X2236721Y-1338008D02*
X2246245Y-1347532D01*
X2246245Y-1347532D02*
X2255769Y-1366579D01*
X2255769Y-1366579D02*
X2265293Y-1404674D01*
X2265293Y-1404674D02*
X2265293Y-1452293D01*
X2265293Y-1452293D02*
X2255769Y-1490389D01*
X2255769Y-1490389D02*
X2246245Y-1509436D01*
X2246245Y-1509436D02*
X2236721Y-1518960D01*
X2236721Y-1518960D02*
X2217674Y-1528484D01*
X2217674Y-1528484D02*
X2198626Y-1528484D01*
X2198626Y-1528484D02*
X2179579Y-1518960D01*
X2179579Y-1518960D02*
X2170055Y-1509436D01*
X2170055Y-1509436D02*
X2160531Y-1490389D01*
X2160531Y-1490389D02*
X2151007Y-1452293D01*
X2151007Y-1452293D02*
X2151007Y-1404674D01*
X2151007Y-1404674D02*
X2160531Y-1366579D01*
X2160531Y-1366579D02*
X2170055Y-1347532D01*
X2170055Y-1347532D02*
X2179579Y-1338008D01*
X2179579Y-1338008D02*
X2198626Y-1328484D01*
X2351007Y-1509436D02*
X2360531Y-1518960D01*
X2360531Y-1518960D02*
X2351007Y-1528484D01*
X2351007Y-1528484D02*
X2341483Y-1518960D01*
X2341483Y-1518960D02*
X2351007Y-1509436D01*
X2351007Y-1509436D02*
X2351007Y-1528484D01*
X2484340Y-1328484D02*
X2503388Y-1328484D01*
X2503388Y-1328484D02*
X2522436Y-1338008D01*
X2522436Y-1338008D02*
X2531960Y-1347532D01*
X2531960Y-1347532D02*
X2541483Y-1366579D01*
X2541483Y-1366579D02*
X2551007Y-1404674D01*
X2551007Y-1404674D02*
X2551007Y-1452293D01*
X2551007Y-1452293D02*
X2541483Y-1490389D01*
X2541483Y-1490389D02*
X2531960Y-1509436D01*
X2531960Y-1509436D02*
X2522436Y-1518960D01*
X2522436Y-1518960D02*
X2503388Y-1528484D01*
X2503388Y-1528484D02*
X2484340Y-1528484D01*
X2484340Y-1528484D02*
X2465293Y-1518960D01*
X2465293Y-1518960D02*
X2455769Y-1509436D01*
X2455769Y-1509436D02*
X2446245Y-1490389D01*
X2446245Y-1490389D02*
X2436721Y-1452293D01*
X2436721Y-1452293D02*
X2436721Y-1404674D01*
X2436721Y-1404674D02*
X2446245Y-1366579D01*
X2446245Y-1366579D02*
X2455769Y-1347532D01*
X2455769Y-1347532D02*
X2465293Y-1338008D01*
X2465293Y-1338008D02*
X2484340Y-1328484D01*
X2741483Y-1528484D02*
X2627198Y-1528484D01*
X2684340Y-1528484D02*
X2684340Y-1328484D01*
X2684340Y-1328484D02*
X2665293Y-1357055D01*
X2665293Y-1357055D02*
X2646245Y-1376103D01*
X2646245Y-1376103D02*
X2627198Y-1385627D01*
X2922436Y-1328484D02*
X2827198Y-1328484D01*
X2827198Y-1328484D02*
X2817674Y-1423722D01*
X2817674Y-1423722D02*
X2827198Y-1414198D01*
X2827198Y-1414198D02*
X2846245Y-1404674D01*
X2846245Y-1404674D02*
X2893864Y-1404674D01*
X2893864Y-1404674D02*
X2912912Y-1414198D01*
X2912912Y-1414198D02*
X2922436Y-1423722D01*
X2922436Y-1423722D02*
X2931959Y-1442770D01*
X2931959Y-1442770D02*
X2931959Y-1490389D01*
X2931959Y-1490389D02*
X2922436Y-1509436D01*
X2922436Y-1509436D02*
X2912912Y-1518960D01*
X2912912Y-1518960D02*
X2893864Y-1528484D01*
X2893864Y-1528484D02*
X2846245Y-1528484D01*
X2846245Y-1528484D02*
X2827198Y-1518960D01*
X2827198Y-1518960D02*
X2817674Y-1509436D01*
X2998626Y-1328484D02*
X3131959Y-1328484D01*
X3131959Y-1328484D02*
X3046245Y-1528484D01*
X3198626Y-1328484D02*
X3198626Y-1366579D01*
X3274817Y-1328484D02*
X3274817Y-1366579D01*
X3570055Y-1604674D02*
X3560531Y-1595151D01*
X3560531Y-1595151D02*
X3541483Y-1566579D01*
X3541483Y-1566579D02*
X3531960Y-1547532D01*
X3531960Y-1547532D02*
X3522436Y-1518960D01*
X3522436Y-1518960D02*
X3512912Y-1471341D01*
X3512912Y-1471341D02*
X3512912Y-1433246D01*
X3512912Y-1433246D02*
X3522436Y-1385627D01*
X3522436Y-1385627D02*
X3531960Y-1357055D01*
X3531960Y-1357055D02*
X3541483Y-1338008D01*
X3541483Y-1338008D02*
X3560531Y-1309436D01*
X3560531Y-1309436D02*
X3570055Y-1299913D01*
X3751007Y-1528484D02*
X3636721Y-1528484D01*
X3693864Y-1528484D02*
X3693864Y-1328484D01*
X3693864Y-1328484D02*
X3674817Y-1357055D01*
X3674817Y-1357055D02*
X3655769Y-1376103D01*
X3655769Y-1376103D02*
X3636721Y-1385627D01*
X3922436Y-1395151D02*
X3922436Y-1528484D01*
X3874817Y-1318960D02*
X3827198Y-1461817D01*
X3827198Y-1461817D02*
X3951007Y-1461817D01*
X4008150Y-1328484D02*
X4141483Y-1328484D01*
X4141483Y-1328484D02*
X4055769Y-1528484D01*
X4370055Y-1528484D02*
X4370055Y-1328484D01*
X4455769Y-1528484D02*
X4455769Y-1423722D01*
X4455769Y-1423722D02*
X4446245Y-1404674D01*
X4446245Y-1404674D02*
X4427198Y-1395151D01*
X4427198Y-1395151D02*
X4398626Y-1395151D01*
X4398626Y-1395151D02*
X4379579Y-1404674D01*
X4379579Y-1404674D02*
X4370055Y-1414198D01*
X4579579Y-1528484D02*
X4560531Y-1518960D01*
X4560531Y-1518960D02*
X4551007Y-1509436D01*
X4551007Y-1509436D02*
X4541484Y-1490389D01*
X4541484Y-1490389D02*
X4541484Y-1433246D01*
X4541484Y-1433246D02*
X4551007Y-1414198D01*
X4551007Y-1414198D02*
X4560531Y-1404674D01*
X4560531Y-1404674D02*
X4579579Y-1395151D01*
X4579579Y-1395151D02*
X4608150Y-1395151D01*
X4608150Y-1395151D02*
X4627198Y-1404674D01*
X4627198Y-1404674D02*
X4636722Y-1414198D01*
X4636722Y-1414198D02*
X4646245Y-1433246D01*
X4646245Y-1433246D02*
X4646245Y-1490389D01*
X4646245Y-1490389D02*
X4636722Y-1509436D01*
X4636722Y-1509436D02*
X4627198Y-1518960D01*
X4627198Y-1518960D02*
X4608150Y-1528484D01*
X4608150Y-1528484D02*
X4579579Y-1528484D01*
X4760531Y-1528484D02*
X4741484Y-1518960D01*
X4741484Y-1518960D02*
X4731960Y-1499912D01*
X4731960Y-1499912D02*
X4731960Y-1328484D01*
X4912912Y-1518960D02*
X4893865Y-1528484D01*
X4893865Y-1528484D02*
X4855769Y-1528484D01*
X4855769Y-1528484D02*
X4836722Y-1518960D01*
X4836722Y-1518960D02*
X4827198Y-1499912D01*
X4827198Y-1499912D02*
X4827198Y-1423722D01*
X4827198Y-1423722D02*
X4836722Y-1404674D01*
X4836722Y-1404674D02*
X4855769Y-1395151D01*
X4855769Y-1395151D02*
X4893865Y-1395151D01*
X4893865Y-1395151D02*
X4912912Y-1404674D01*
X4912912Y-1404674D02*
X4922436Y-1423722D01*
X4922436Y-1423722D02*
X4922436Y-1442770D01*
X4922436Y-1442770D02*
X4827198Y-1461817D01*
X4998626Y-1518960D02*
X5017674Y-1528484D01*
X5017674Y-1528484D02*
X5055769Y-1528484D01*
X5055769Y-1528484D02*
X5074817Y-1518960D01*
X5074817Y-1518960D02*
X5084341Y-1499912D01*
X5084341Y-1499912D02*
X5084341Y-1490389D01*
X5084341Y-1490389D02*
X5074817Y-1471341D01*
X5074817Y-1471341D02*
X5055769Y-1461817D01*
X5055769Y-1461817D02*
X5027198Y-1461817D01*
X5027198Y-1461817D02*
X5008150Y-1452293D01*
X5008150Y-1452293D02*
X4998626Y-1433246D01*
X4998626Y-1433246D02*
X4998626Y-1423722D01*
X4998626Y-1423722D02*
X5008150Y-1404674D01*
X5008150Y-1404674D02*
X5027198Y-1395151D01*
X5027198Y-1395151D02*
X5055769Y-1395151D01*
X5055769Y-1395151D02*
X5074817Y-1404674D01*
X5151007Y-1604674D02*
X5160531Y-1595151D01*
X5160531Y-1595151D02*
X5179579Y-1566579D01*
X5179579Y-1566579D02*
X5189103Y-1547532D01*
X5189103Y-1547532D02*
X5198626Y-1518960D01*
X5198626Y-1518960D02*
X5208150Y-1471341D01*
X5208150Y-1471341D02*
X5208150Y-1433246D01*
X5208150Y-1433246D02*
X5198626Y-1385627D01*
X5198626Y-1385627D02*
X5189103Y-1357055D01*
X5189103Y-1357055D02*
X5179579Y-1338008D01*
X5179579Y-1338008D02*
X5160531Y-1309436D01*
X5160531Y-1309436D02*
X5151007Y-1299913D01*
D15*
X-35008Y-1731000D02*
X-5008Y-1701000D01*
X-35008Y-1671000D01*
X-65008Y-1701000D01*
X-35008Y-1731000D01*
D11*
X293864Y-1592484D02*
X312912Y-1592484D01*
X312912Y-1592484D02*
X331959Y-1602008D01*
X331959Y-1602008D02*
X341483Y-1611532D01*
X341483Y-1611532D02*
X351007Y-1630579D01*
X351007Y-1630579D02*
X360531Y-1668674D01*
X360531Y-1668674D02*
X360531Y-1716293D01*
X360531Y-1716293D02*
X351007Y-1754389D01*
X351007Y-1754389D02*
X341483Y-1773436D01*
X341483Y-1773436D02*
X331959Y-1782960D01*
X331959Y-1782960D02*
X312912Y-1792484D01*
X312912Y-1792484D02*
X293864Y-1792484D01*
X293864Y-1792484D02*
X274816Y-1782960D01*
X274816Y-1782960D02*
X265293Y-1773436D01*
X265293Y-1773436D02*
X255769Y-1754389D01*
X255769Y-1754389D02*
X246245Y-1716293D01*
X246245Y-1716293D02*
X246245Y-1668674D01*
X246245Y-1668674D02*
X255769Y-1630579D01*
X255769Y-1630579D02*
X265293Y-1611532D01*
X265293Y-1611532D02*
X274816Y-1602008D01*
X274816Y-1602008D02*
X293864Y-1592484D01*
X446245Y-1773436D02*
X455769Y-1782960D01*
X455769Y-1782960D02*
X446245Y-1792484D01*
X446245Y-1792484D02*
X436721Y-1782960D01*
X436721Y-1782960D02*
X446245Y-1773436D01*
X446245Y-1773436D02*
X446245Y-1792484D01*
X627197Y-1592484D02*
X589102Y-1592484D01*
X589102Y-1592484D02*
X570055Y-1602008D01*
X570055Y-1602008D02*
X560531Y-1611532D01*
X560531Y-1611532D02*
X541483Y-1640103D01*
X541483Y-1640103D02*
X531959Y-1678198D01*
X531959Y-1678198D02*
X531959Y-1754389D01*
X531959Y-1754389D02*
X541483Y-1773436D01*
X541483Y-1773436D02*
X551007Y-1782960D01*
X551007Y-1782960D02*
X570055Y-1792484D01*
X570055Y-1792484D02*
X608150Y-1792484D01*
X608150Y-1792484D02*
X627197Y-1782960D01*
X627197Y-1782960D02*
X636721Y-1773436D01*
X636721Y-1773436D02*
X646245Y-1754389D01*
X646245Y-1754389D02*
X646245Y-1706770D01*
X646245Y-1706770D02*
X636721Y-1687722D01*
X636721Y-1687722D02*
X627197Y-1678198D01*
X627197Y-1678198D02*
X608150Y-1668674D01*
X608150Y-1668674D02*
X570055Y-1668674D01*
X570055Y-1668674D02*
X551007Y-1678198D01*
X551007Y-1678198D02*
X541483Y-1687722D01*
X541483Y-1687722D02*
X531959Y-1706770D01*
X770054Y-1592484D02*
X789102Y-1592484D01*
X789102Y-1592484D02*
X808150Y-1602008D01*
X808150Y-1602008D02*
X817674Y-1611532D01*
X817674Y-1611532D02*
X827197Y-1630579D01*
X827197Y-1630579D02*
X836721Y-1668674D01*
X836721Y-1668674D02*
X836721Y-1716293D01*
X836721Y-1716293D02*
X827197Y-1754389D01*
X827197Y-1754389D02*
X817674Y-1773436D01*
X817674Y-1773436D02*
X808150Y-1782960D01*
X808150Y-1782960D02*
X789102Y-1792484D01*
X789102Y-1792484D02*
X770054Y-1792484D01*
X770054Y-1792484D02*
X751007Y-1782960D01*
X751007Y-1782960D02*
X741483Y-1773436D01*
X741483Y-1773436D02*
X731959Y-1754389D01*
X731959Y-1754389D02*
X722435Y-1716293D01*
X722435Y-1716293D02*
X722435Y-1668674D01*
X722435Y-1668674D02*
X731959Y-1630579D01*
X731959Y-1630579D02*
X741483Y-1611532D01*
X741483Y-1611532D02*
X751007Y-1602008D01*
X751007Y-1602008D02*
X770054Y-1592484D01*
X960531Y-1592484D02*
X979578Y-1592484D01*
X979578Y-1592484D02*
X998626Y-1602008D01*
X998626Y-1602008D02*
X1008150Y-1611532D01*
X1008150Y-1611532D02*
X1017674Y-1630579D01*
X1017674Y-1630579D02*
X1027197Y-1668674D01*
X1027197Y-1668674D02*
X1027197Y-1716293D01*
X1027197Y-1716293D02*
X1017674Y-1754389D01*
X1017674Y-1754389D02*
X1008150Y-1773436D01*
X1008150Y-1773436D02*
X998626Y-1782960D01*
X998626Y-1782960D02*
X979578Y-1792484D01*
X979578Y-1792484D02*
X960531Y-1792484D01*
X960531Y-1792484D02*
X941483Y-1782960D01*
X941483Y-1782960D02*
X931959Y-1773436D01*
X931959Y-1773436D02*
X922435Y-1754389D01*
X922435Y-1754389D02*
X912912Y-1716293D01*
X912912Y-1716293D02*
X912912Y-1668674D01*
X912912Y-1668674D02*
X922435Y-1630579D01*
X922435Y-1630579D02*
X931959Y-1611532D01*
X931959Y-1611532D02*
X941483Y-1602008D01*
X941483Y-1602008D02*
X960531Y-1592484D01*
X1112912Y-1792484D02*
X1112912Y-1659151D01*
X1112912Y-1678198D02*
X1122436Y-1668674D01*
X1122436Y-1668674D02*
X1141483Y-1659151D01*
X1141483Y-1659151D02*
X1170055Y-1659151D01*
X1170055Y-1659151D02*
X1189102Y-1668674D01*
X1189102Y-1668674D02*
X1198626Y-1687722D01*
X1198626Y-1687722D02*
X1198626Y-1792484D01*
X1198626Y-1687722D02*
X1208150Y-1668674D01*
X1208150Y-1668674D02*
X1227197Y-1659151D01*
X1227197Y-1659151D02*
X1255769Y-1659151D01*
X1255769Y-1659151D02*
X1274817Y-1668674D01*
X1274817Y-1668674D02*
X1284340Y-1687722D01*
X1284340Y-1687722D02*
X1284340Y-1792484D01*
X1379578Y-1792484D02*
X1379578Y-1659151D01*
X1379578Y-1678198D02*
X1389102Y-1668674D01*
X1389102Y-1668674D02*
X1408150Y-1659151D01*
X1408150Y-1659151D02*
X1436721Y-1659151D01*
X1436721Y-1659151D02*
X1455769Y-1668674D01*
X1455769Y-1668674D02*
X1465293Y-1687722D01*
X1465293Y-1687722D02*
X1465293Y-1792484D01*
X1465293Y-1687722D02*
X1474816Y-1668674D01*
X1474816Y-1668674D02*
X1493864Y-1659151D01*
X1493864Y-1659151D02*
X1522435Y-1659151D01*
X1522435Y-1659151D02*
X1541483Y-1668674D01*
X1541483Y-1668674D02*
X1551007Y-1687722D01*
X1551007Y-1687722D02*
X1551007Y-1792484D01*
X1941483Y-1582960D02*
X1770055Y-1840103D01*
X2198626Y-1592484D02*
X2217674Y-1592484D01*
X2217674Y-1592484D02*
X2236721Y-1602008D01*
X2236721Y-1602008D02*
X2246245Y-1611532D01*
X2246245Y-1611532D02*
X2255769Y-1630579D01*
X2255769Y-1630579D02*
X2265293Y-1668674D01*
X2265293Y-1668674D02*
X2265293Y-1716293D01*
X2265293Y-1716293D02*
X2255769Y-1754389D01*
X2255769Y-1754389D02*
X2246245Y-1773436D01*
X2246245Y-1773436D02*
X2236721Y-1782960D01*
X2236721Y-1782960D02*
X2217674Y-1792484D01*
X2217674Y-1792484D02*
X2198626Y-1792484D01*
X2198626Y-1792484D02*
X2179579Y-1782960D01*
X2179579Y-1782960D02*
X2170055Y-1773436D01*
X2170055Y-1773436D02*
X2160531Y-1754389D01*
X2160531Y-1754389D02*
X2151007Y-1716293D01*
X2151007Y-1716293D02*
X2151007Y-1668674D01*
X2151007Y-1668674D02*
X2160531Y-1630579D01*
X2160531Y-1630579D02*
X2170055Y-1611532D01*
X2170055Y-1611532D02*
X2179579Y-1602008D01*
X2179579Y-1602008D02*
X2198626Y-1592484D01*
X2351007Y-1773436D02*
X2360531Y-1782960D01*
X2360531Y-1782960D02*
X2351007Y-1792484D01*
X2351007Y-1792484D02*
X2341483Y-1782960D01*
X2341483Y-1782960D02*
X2351007Y-1773436D01*
X2351007Y-1773436D02*
X2351007Y-1792484D01*
X2484340Y-1592484D02*
X2503388Y-1592484D01*
X2503388Y-1592484D02*
X2522436Y-1602008D01*
X2522436Y-1602008D02*
X2531960Y-1611532D01*
X2531960Y-1611532D02*
X2541483Y-1630579D01*
X2541483Y-1630579D02*
X2551007Y-1668674D01*
X2551007Y-1668674D02*
X2551007Y-1716293D01*
X2551007Y-1716293D02*
X2541483Y-1754389D01*
X2541483Y-1754389D02*
X2531960Y-1773436D01*
X2531960Y-1773436D02*
X2522436Y-1782960D01*
X2522436Y-1782960D02*
X2503388Y-1792484D01*
X2503388Y-1792484D02*
X2484340Y-1792484D01*
X2484340Y-1792484D02*
X2465293Y-1782960D01*
X2465293Y-1782960D02*
X2455769Y-1773436D01*
X2455769Y-1773436D02*
X2446245Y-1754389D01*
X2446245Y-1754389D02*
X2436721Y-1716293D01*
X2436721Y-1716293D02*
X2436721Y-1668674D01*
X2436721Y-1668674D02*
X2446245Y-1630579D01*
X2446245Y-1630579D02*
X2455769Y-1611532D01*
X2455769Y-1611532D02*
X2465293Y-1602008D01*
X2465293Y-1602008D02*
X2484340Y-1592484D01*
X2627198Y-1611532D02*
X2636721Y-1602008D01*
X2636721Y-1602008D02*
X2655769Y-1592484D01*
X2655769Y-1592484D02*
X2703388Y-1592484D01*
X2703388Y-1592484D02*
X2722436Y-1602008D01*
X2722436Y-1602008D02*
X2731960Y-1611532D01*
X2731960Y-1611532D02*
X2741483Y-1630579D01*
X2741483Y-1630579D02*
X2741483Y-1649627D01*
X2741483Y-1649627D02*
X2731960Y-1678198D01*
X2731960Y-1678198D02*
X2617674Y-1792484D01*
X2617674Y-1792484D02*
X2741483Y-1792484D01*
X2808150Y-1592484D02*
X2931959Y-1592484D01*
X2931959Y-1592484D02*
X2865293Y-1668674D01*
X2865293Y-1668674D02*
X2893864Y-1668674D01*
X2893864Y-1668674D02*
X2912912Y-1678198D01*
X2912912Y-1678198D02*
X2922436Y-1687722D01*
X2922436Y-1687722D02*
X2931959Y-1706770D01*
X2931959Y-1706770D02*
X2931959Y-1754389D01*
X2931959Y-1754389D02*
X2922436Y-1773436D01*
X2922436Y-1773436D02*
X2912912Y-1782960D01*
X2912912Y-1782960D02*
X2893864Y-1792484D01*
X2893864Y-1792484D02*
X2836721Y-1792484D01*
X2836721Y-1792484D02*
X2817674Y-1782960D01*
X2817674Y-1782960D02*
X2808150Y-1773436D01*
X3103388Y-1592484D02*
X3065293Y-1592484D01*
X3065293Y-1592484D02*
X3046245Y-1602008D01*
X3046245Y-1602008D02*
X3036721Y-1611532D01*
X3036721Y-1611532D02*
X3017674Y-1640103D01*
X3017674Y-1640103D02*
X3008150Y-1678198D01*
X3008150Y-1678198D02*
X3008150Y-1754389D01*
X3008150Y-1754389D02*
X3017674Y-1773436D01*
X3017674Y-1773436D02*
X3027198Y-1782960D01*
X3027198Y-1782960D02*
X3046245Y-1792484D01*
X3046245Y-1792484D02*
X3084340Y-1792484D01*
X3084340Y-1792484D02*
X3103388Y-1782960D01*
X3103388Y-1782960D02*
X3112912Y-1773436D01*
X3112912Y-1773436D02*
X3122436Y-1754389D01*
X3122436Y-1754389D02*
X3122436Y-1706770D01*
X3122436Y-1706770D02*
X3112912Y-1687722D01*
X3112912Y-1687722D02*
X3103388Y-1678198D01*
X3103388Y-1678198D02*
X3084340Y-1668674D01*
X3084340Y-1668674D02*
X3046245Y-1668674D01*
X3046245Y-1668674D02*
X3027198Y-1678198D01*
X3027198Y-1678198D02*
X3017674Y-1687722D01*
X3017674Y-1687722D02*
X3008150Y-1706770D01*
X3198626Y-1592484D02*
X3198626Y-1630579D01*
X3274817Y-1592484D02*
X3274817Y-1630579D01*
X3570055Y-1868674D02*
X3560531Y-1859151D01*
X3560531Y-1859151D02*
X3541483Y-1830579D01*
X3541483Y-1830579D02*
X3531960Y-1811532D01*
X3531960Y-1811532D02*
X3522436Y-1782960D01*
X3522436Y-1782960D02*
X3512912Y-1735341D01*
X3512912Y-1735341D02*
X3512912Y-1697246D01*
X3512912Y-1697246D02*
X3522436Y-1649627D01*
X3522436Y-1649627D02*
X3531960Y-1621055D01*
X3531960Y-1621055D02*
X3541483Y-1602008D01*
X3541483Y-1602008D02*
X3560531Y-1573436D01*
X3560531Y-1573436D02*
X3570055Y-1563912D01*
X3684340Y-1592484D02*
X3703388Y-1592484D01*
X3703388Y-1592484D02*
X3722436Y-1602008D01*
X3722436Y-1602008D02*
X3731960Y-1611532D01*
X3731960Y-1611532D02*
X3741483Y-1630579D01*
X3741483Y-1630579D02*
X3751007Y-1668674D01*
X3751007Y-1668674D02*
X3751007Y-1716293D01*
X3751007Y-1716293D02*
X3741483Y-1754389D01*
X3741483Y-1754389D02*
X3731960Y-1773436D01*
X3731960Y-1773436D02*
X3722436Y-1782960D01*
X3722436Y-1782960D02*
X3703388Y-1792484D01*
X3703388Y-1792484D02*
X3684340Y-1792484D01*
X3684340Y-1792484D02*
X3665293Y-1782960D01*
X3665293Y-1782960D02*
X3655769Y-1773436D01*
X3655769Y-1773436D02*
X3646245Y-1754389D01*
X3646245Y-1754389D02*
X3636721Y-1716293D01*
X3636721Y-1716293D02*
X3636721Y-1668674D01*
X3636721Y-1668674D02*
X3646245Y-1630579D01*
X3646245Y-1630579D02*
X3655769Y-1611532D01*
X3655769Y-1611532D02*
X3665293Y-1602008D01*
X3665293Y-1602008D02*
X3684340Y-1592484D01*
X3989102Y-1792484D02*
X3989102Y-1592484D01*
X4074817Y-1792484D02*
X4074817Y-1687722D01*
X4074817Y-1687722D02*
X4065293Y-1668674D01*
X4065293Y-1668674D02*
X4046245Y-1659151D01*
X4046245Y-1659151D02*
X4017674Y-1659151D01*
X4017674Y-1659151D02*
X3998626Y-1668674D01*
X3998626Y-1668674D02*
X3989102Y-1678198D01*
X4198626Y-1792484D02*
X4179579Y-1782960D01*
X4179579Y-1782960D02*
X4170055Y-1773436D01*
X4170055Y-1773436D02*
X4160531Y-1754389D01*
X4160531Y-1754389D02*
X4160531Y-1697246D01*
X4160531Y-1697246D02*
X4170055Y-1678198D01*
X4170055Y-1678198D02*
X4179579Y-1668674D01*
X4179579Y-1668674D02*
X4198626Y-1659151D01*
X4198626Y-1659151D02*
X4227198Y-1659151D01*
X4227198Y-1659151D02*
X4246245Y-1668674D01*
X4246245Y-1668674D02*
X4255769Y-1678198D01*
X4255769Y-1678198D02*
X4265293Y-1697246D01*
X4265293Y-1697246D02*
X4265293Y-1754389D01*
X4265293Y-1754389D02*
X4255769Y-1773436D01*
X4255769Y-1773436D02*
X4246245Y-1782960D01*
X4246245Y-1782960D02*
X4227198Y-1792484D01*
X4227198Y-1792484D02*
X4198626Y-1792484D01*
X4379579Y-1792484D02*
X4360531Y-1782960D01*
X4360531Y-1782960D02*
X4351007Y-1763912D01*
X4351007Y-1763912D02*
X4351007Y-1592484D01*
X4531960Y-1782960D02*
X4512912Y-1792484D01*
X4512912Y-1792484D02*
X4474817Y-1792484D01*
X4474817Y-1792484D02*
X4455769Y-1782960D01*
X4455769Y-1782960D02*
X4446245Y-1763912D01*
X4446245Y-1763912D02*
X4446245Y-1687722D01*
X4446245Y-1687722D02*
X4455769Y-1668674D01*
X4455769Y-1668674D02*
X4474817Y-1659151D01*
X4474817Y-1659151D02*
X4512912Y-1659151D01*
X4512912Y-1659151D02*
X4531960Y-1668674D01*
X4531960Y-1668674D02*
X4541484Y-1687722D01*
X4541484Y-1687722D02*
X4541484Y-1706770D01*
X4541484Y-1706770D02*
X4446245Y-1725817D01*
X4617674Y-1782960D02*
X4636722Y-1792484D01*
X4636722Y-1792484D02*
X4674817Y-1792484D01*
X4674817Y-1792484D02*
X4693865Y-1782960D01*
X4693865Y-1782960D02*
X4703388Y-1763912D01*
X4703388Y-1763912D02*
X4703388Y-1754389D01*
X4703388Y-1754389D02*
X4693865Y-1735341D01*
X4693865Y-1735341D02*
X4674817Y-1725817D01*
X4674817Y-1725817D02*
X4646245Y-1725817D01*
X4646245Y-1725817D02*
X4627198Y-1716293D01*
X4627198Y-1716293D02*
X4617674Y-1697246D01*
X4617674Y-1697246D02*
X4617674Y-1687722D01*
X4617674Y-1687722D02*
X4627198Y-1668674D01*
X4627198Y-1668674D02*
X4646245Y-1659151D01*
X4646245Y-1659151D02*
X4674817Y-1659151D01*
X4674817Y-1659151D02*
X4693865Y-1668674D01*
X4941484Y-1716293D02*
X5093865Y-1716293D01*
X5017674Y-1792484D02*
X5017674Y-1640103D01*
X5427198Y-1659151D02*
X5427198Y-1792484D01*
X5379579Y-1582960D02*
X5331960Y-1725817D01*
X5331960Y-1725817D02*
X5455769Y-1725817D01*
X5674817Y-1782960D02*
X5693865Y-1792484D01*
X5693865Y-1792484D02*
X5731960Y-1792484D01*
X5731960Y-1792484D02*
X5751007Y-1782960D01*
X5751007Y-1782960D02*
X5760531Y-1763912D01*
X5760531Y-1763912D02*
X5760531Y-1754389D01*
X5760531Y-1754389D02*
X5751007Y-1735341D01*
X5751007Y-1735341D02*
X5731960Y-1725817D01*
X5731960Y-1725817D02*
X5703388Y-1725817D01*
X5703388Y-1725817D02*
X5684341Y-1716293D01*
X5684341Y-1716293D02*
X5674817Y-1697246D01*
X5674817Y-1697246D02*
X5674817Y-1687722D01*
X5674817Y-1687722D02*
X5684341Y-1668674D01*
X5684341Y-1668674D02*
X5703388Y-1659151D01*
X5703388Y-1659151D02*
X5731960Y-1659151D01*
X5731960Y-1659151D02*
X5751007Y-1668674D01*
X5874817Y-1792484D02*
X5855769Y-1782960D01*
X5855769Y-1782960D02*
X5846246Y-1763912D01*
X5846246Y-1763912D02*
X5846246Y-1592484D01*
X5979579Y-1792484D02*
X5960531Y-1782960D01*
X5960531Y-1782960D02*
X5951007Y-1773436D01*
X5951007Y-1773436D02*
X5941484Y-1754389D01*
X5941484Y-1754389D02*
X5941484Y-1697246D01*
X5941484Y-1697246D02*
X5951007Y-1678198D01*
X5951007Y-1678198D02*
X5960531Y-1668674D01*
X5960531Y-1668674D02*
X5979579Y-1659151D01*
X5979579Y-1659151D02*
X6008150Y-1659151D01*
X6008150Y-1659151D02*
X6027198Y-1668674D01*
X6027198Y-1668674D02*
X6036722Y-1678198D01*
X6036722Y-1678198D02*
X6046246Y-1697246D01*
X6046246Y-1697246D02*
X6046246Y-1754389D01*
X6046246Y-1754389D02*
X6036722Y-1773436D01*
X6036722Y-1773436D02*
X6027198Y-1782960D01*
X6027198Y-1782960D02*
X6008150Y-1792484D01*
X6008150Y-1792484D02*
X5979579Y-1792484D01*
X6103388Y-1659151D02*
X6179579Y-1659151D01*
X6131960Y-1592484D02*
X6131960Y-1763912D01*
X6131960Y-1763912D02*
X6141484Y-1782960D01*
X6141484Y-1782960D02*
X6160531Y-1792484D01*
X6160531Y-1792484D02*
X6179579Y-1792484D01*
X6236722Y-1782960D02*
X6255769Y-1792484D01*
X6255769Y-1792484D02*
X6293865Y-1792484D01*
X6293865Y-1792484D02*
X6312912Y-1782960D01*
X6312912Y-1782960D02*
X6322436Y-1763912D01*
X6322436Y-1763912D02*
X6322436Y-1754389D01*
X6322436Y-1754389D02*
X6312912Y-1735341D01*
X6312912Y-1735341D02*
X6293865Y-1725817D01*
X6293865Y-1725817D02*
X6265293Y-1725817D01*
X6265293Y-1725817D02*
X6246246Y-1716293D01*
X6246246Y-1716293D02*
X6236722Y-1697246D01*
X6236722Y-1697246D02*
X6236722Y-1687722D01*
X6236722Y-1687722D02*
X6246246Y-1668674D01*
X6246246Y-1668674D02*
X6265293Y-1659151D01*
X6265293Y-1659151D02*
X6293865Y-1659151D01*
X6293865Y-1659151D02*
X6312912Y-1668674D01*
X6389103Y-1868674D02*
X6398627Y-1859151D01*
X6398627Y-1859151D02*
X6417674Y-1830579D01*
X6417674Y-1830579D02*
X6427198Y-1811532D01*
X6427198Y-1811532D02*
X6436722Y-1782960D01*
X6436722Y-1782960D02*
X6446246Y-1735341D01*
X6446246Y-1735341D02*
X6446246Y-1697246D01*
X6446246Y-1697246D02*
X6436722Y-1649627D01*
X6436722Y-1649627D02*
X6427198Y-1621055D01*
X6427198Y-1621055D02*
X6417674Y-1602008D01*
X6417674Y-1602008D02*
X6398627Y-1573436D01*
X6398627Y-1573436D02*
X6389103Y-1563912D01*
D10*
X-105008Y-1915000D02*
X-5008Y-2015000D01*
X-5008Y-1915000D02*
X-105008Y-2015000D01*
X-5008Y-1965000D02*
G75*
G03*
X-5008Y-1965000I-50000J0D01*
G01*
D11*
X360531Y-2056484D02*
X246245Y-2056484D01*
X303388Y-2056484D02*
X303388Y-1856484D01*
X303388Y-1856484D02*
X284340Y-1885055D01*
X284340Y-1885055D02*
X265293Y-1904103D01*
X265293Y-1904103D02*
X246245Y-1913627D01*
X446245Y-2037436D02*
X455769Y-2046960D01*
X455769Y-2046960D02*
X446245Y-2056484D01*
X446245Y-2056484D02*
X436721Y-2046960D01*
X436721Y-2046960D02*
X446245Y-2037436D01*
X446245Y-2037436D02*
X446245Y-2056484D01*
X579578Y-1856484D02*
X598626Y-1856484D01*
X598626Y-1856484D02*
X617674Y-1866008D01*
X617674Y-1866008D02*
X627197Y-1875532D01*
X627197Y-1875532D02*
X636721Y-1894579D01*
X636721Y-1894579D02*
X646245Y-1932674D01*
X646245Y-1932674D02*
X646245Y-1980293D01*
X646245Y-1980293D02*
X636721Y-2018389D01*
X636721Y-2018389D02*
X627197Y-2037436D01*
X627197Y-2037436D02*
X617674Y-2046960D01*
X617674Y-2046960D02*
X598626Y-2056484D01*
X598626Y-2056484D02*
X579578Y-2056484D01*
X579578Y-2056484D02*
X560531Y-2046960D01*
X560531Y-2046960D02*
X551007Y-2037436D01*
X551007Y-2037436D02*
X541483Y-2018389D01*
X541483Y-2018389D02*
X531959Y-1980293D01*
X531959Y-1980293D02*
X531959Y-1932674D01*
X531959Y-1932674D02*
X541483Y-1894579D01*
X541483Y-1894579D02*
X551007Y-1875532D01*
X551007Y-1875532D02*
X560531Y-1866008D01*
X560531Y-1866008D02*
X579578Y-1856484D01*
X770054Y-1856484D02*
X789102Y-1856484D01*
X789102Y-1856484D02*
X808150Y-1866008D01*
X808150Y-1866008D02*
X817674Y-1875532D01*
X817674Y-1875532D02*
X827197Y-1894579D01*
X827197Y-1894579D02*
X836721Y-1932674D01*
X836721Y-1932674D02*
X836721Y-1980293D01*
X836721Y-1980293D02*
X827197Y-2018389D01*
X827197Y-2018389D02*
X817674Y-2037436D01*
X817674Y-2037436D02*
X808150Y-2046960D01*
X808150Y-2046960D02*
X789102Y-2056484D01*
X789102Y-2056484D02*
X770054Y-2056484D01*
X770054Y-2056484D02*
X751007Y-2046960D01*
X751007Y-2046960D02*
X741483Y-2037436D01*
X741483Y-2037436D02*
X731959Y-2018389D01*
X731959Y-2018389D02*
X722435Y-1980293D01*
X722435Y-1980293D02*
X722435Y-1932674D01*
X722435Y-1932674D02*
X731959Y-1894579D01*
X731959Y-1894579D02*
X741483Y-1875532D01*
X741483Y-1875532D02*
X751007Y-1866008D01*
X751007Y-1866008D02*
X770054Y-1856484D01*
X960531Y-1856484D02*
X979578Y-1856484D01*
X979578Y-1856484D02*
X998626Y-1866008D01*
X998626Y-1866008D02*
X1008150Y-1875532D01*
X1008150Y-1875532D02*
X1017674Y-1894579D01*
X1017674Y-1894579D02*
X1027197Y-1932674D01*
X1027197Y-1932674D02*
X1027197Y-1980293D01*
X1027197Y-1980293D02*
X1017674Y-2018389D01*
X1017674Y-2018389D02*
X1008150Y-2037436D01*
X1008150Y-2037436D02*
X998626Y-2046960D01*
X998626Y-2046960D02*
X979578Y-2056484D01*
X979578Y-2056484D02*
X960531Y-2056484D01*
X960531Y-2056484D02*
X941483Y-2046960D01*
X941483Y-2046960D02*
X931959Y-2037436D01*
X931959Y-2037436D02*
X922435Y-2018389D01*
X922435Y-2018389D02*
X912912Y-1980293D01*
X912912Y-1980293D02*
X912912Y-1932674D01*
X912912Y-1932674D02*
X922435Y-1894579D01*
X922435Y-1894579D02*
X931959Y-1875532D01*
X931959Y-1875532D02*
X941483Y-1866008D01*
X941483Y-1866008D02*
X960531Y-1856484D01*
X1112912Y-2056484D02*
X1112912Y-1923151D01*
X1112912Y-1942198D02*
X1122436Y-1932674D01*
X1122436Y-1932674D02*
X1141483Y-1923151D01*
X1141483Y-1923151D02*
X1170055Y-1923151D01*
X1170055Y-1923151D02*
X1189102Y-1932674D01*
X1189102Y-1932674D02*
X1198626Y-1951722D01*
X1198626Y-1951722D02*
X1198626Y-2056484D01*
X1198626Y-1951722D02*
X1208150Y-1932674D01*
X1208150Y-1932674D02*
X1227197Y-1923151D01*
X1227197Y-1923151D02*
X1255769Y-1923151D01*
X1255769Y-1923151D02*
X1274817Y-1932674D01*
X1274817Y-1932674D02*
X1284340Y-1951722D01*
X1284340Y-1951722D02*
X1284340Y-2056484D01*
X1379578Y-2056484D02*
X1379578Y-1923151D01*
X1379578Y-1942198D02*
X1389102Y-1932674D01*
X1389102Y-1932674D02*
X1408150Y-1923151D01*
X1408150Y-1923151D02*
X1436721Y-1923151D01*
X1436721Y-1923151D02*
X1455769Y-1932674D01*
X1455769Y-1932674D02*
X1465293Y-1951722D01*
X1465293Y-1951722D02*
X1465293Y-2056484D01*
X1465293Y-1951722D02*
X1474816Y-1932674D01*
X1474816Y-1932674D02*
X1493864Y-1923151D01*
X1493864Y-1923151D02*
X1522435Y-1923151D01*
X1522435Y-1923151D02*
X1541483Y-1932674D01*
X1541483Y-1932674D02*
X1551007Y-1951722D01*
X1551007Y-1951722D02*
X1551007Y-2056484D01*
X1941483Y-1846960D02*
X1770055Y-2104103D01*
X2198626Y-1856484D02*
X2217674Y-1856484D01*
X2217674Y-1856484D02*
X2236721Y-1866008D01*
X2236721Y-1866008D02*
X2246245Y-1875532D01*
X2246245Y-1875532D02*
X2255769Y-1894579D01*
X2255769Y-1894579D02*
X2265293Y-1932674D01*
X2265293Y-1932674D02*
X2265293Y-1980293D01*
X2265293Y-1980293D02*
X2255769Y-2018389D01*
X2255769Y-2018389D02*
X2246245Y-2037436D01*
X2246245Y-2037436D02*
X2236721Y-2046960D01*
X2236721Y-2046960D02*
X2217674Y-2056484D01*
X2217674Y-2056484D02*
X2198626Y-2056484D01*
X2198626Y-2056484D02*
X2179579Y-2046960D01*
X2179579Y-2046960D02*
X2170055Y-2037436D01*
X2170055Y-2037436D02*
X2160531Y-2018389D01*
X2160531Y-2018389D02*
X2151007Y-1980293D01*
X2151007Y-1980293D02*
X2151007Y-1932674D01*
X2151007Y-1932674D02*
X2160531Y-1894579D01*
X2160531Y-1894579D02*
X2170055Y-1875532D01*
X2170055Y-1875532D02*
X2179579Y-1866008D01*
X2179579Y-1866008D02*
X2198626Y-1856484D01*
X2351007Y-2037436D02*
X2360531Y-2046960D01*
X2360531Y-2046960D02*
X2351007Y-2056484D01*
X2351007Y-2056484D02*
X2341483Y-2046960D01*
X2341483Y-2046960D02*
X2351007Y-2037436D01*
X2351007Y-2037436D02*
X2351007Y-2056484D01*
X2484340Y-1856484D02*
X2503388Y-1856484D01*
X2503388Y-1856484D02*
X2522436Y-1866008D01*
X2522436Y-1866008D02*
X2531960Y-1875532D01*
X2531960Y-1875532D02*
X2541483Y-1894579D01*
X2541483Y-1894579D02*
X2551007Y-1932674D01*
X2551007Y-1932674D02*
X2551007Y-1980293D01*
X2551007Y-1980293D02*
X2541483Y-2018389D01*
X2541483Y-2018389D02*
X2531960Y-2037436D01*
X2531960Y-2037436D02*
X2522436Y-2046960D01*
X2522436Y-2046960D02*
X2503388Y-2056484D01*
X2503388Y-2056484D02*
X2484340Y-2056484D01*
X2484340Y-2056484D02*
X2465293Y-2046960D01*
X2465293Y-2046960D02*
X2455769Y-2037436D01*
X2455769Y-2037436D02*
X2446245Y-2018389D01*
X2446245Y-2018389D02*
X2436721Y-1980293D01*
X2436721Y-1980293D02*
X2436721Y-1932674D01*
X2436721Y-1932674D02*
X2446245Y-1894579D01*
X2446245Y-1894579D02*
X2455769Y-1875532D01*
X2455769Y-1875532D02*
X2465293Y-1866008D01*
X2465293Y-1866008D02*
X2484340Y-1856484D01*
X2617674Y-1856484D02*
X2741483Y-1856484D01*
X2741483Y-1856484D02*
X2674817Y-1932674D01*
X2674817Y-1932674D02*
X2703388Y-1932674D01*
X2703388Y-1932674D02*
X2722436Y-1942198D01*
X2722436Y-1942198D02*
X2731960Y-1951722D01*
X2731960Y-1951722D02*
X2741483Y-1970770D01*
X2741483Y-1970770D02*
X2741483Y-2018389D01*
X2741483Y-2018389D02*
X2731960Y-2037436D01*
X2731960Y-2037436D02*
X2722436Y-2046960D01*
X2722436Y-2046960D02*
X2703388Y-2056484D01*
X2703388Y-2056484D02*
X2646245Y-2056484D01*
X2646245Y-2056484D02*
X2627198Y-2046960D01*
X2627198Y-2046960D02*
X2617674Y-2037436D01*
X2836721Y-2056484D02*
X2874817Y-2056484D01*
X2874817Y-2056484D02*
X2893864Y-2046960D01*
X2893864Y-2046960D02*
X2903388Y-2037436D01*
X2903388Y-2037436D02*
X2922436Y-2008865D01*
X2922436Y-2008865D02*
X2931959Y-1970770D01*
X2931959Y-1970770D02*
X2931959Y-1894579D01*
X2931959Y-1894579D02*
X2922436Y-1875532D01*
X2922436Y-1875532D02*
X2912912Y-1866008D01*
X2912912Y-1866008D02*
X2893864Y-1856484D01*
X2893864Y-1856484D02*
X2855769Y-1856484D01*
X2855769Y-1856484D02*
X2836721Y-1866008D01*
X2836721Y-1866008D02*
X2827198Y-1875532D01*
X2827198Y-1875532D02*
X2817674Y-1894579D01*
X2817674Y-1894579D02*
X2817674Y-1942198D01*
X2817674Y-1942198D02*
X2827198Y-1961246D01*
X2827198Y-1961246D02*
X2836721Y-1970770D01*
X2836721Y-1970770D02*
X2855769Y-1980293D01*
X2855769Y-1980293D02*
X2893864Y-1980293D01*
X2893864Y-1980293D02*
X2912912Y-1970770D01*
X2912912Y-1970770D02*
X2922436Y-1961246D01*
X2922436Y-1961246D02*
X2931959Y-1942198D01*
X3103388Y-1923151D02*
X3103388Y-2056484D01*
X3055769Y-1846960D02*
X3008150Y-1989817D01*
X3008150Y-1989817D02*
X3131959Y-1989817D01*
X3198626Y-1856484D02*
X3198626Y-1894579D01*
X3274817Y-1856484D02*
X3274817Y-1894579D01*
X3570055Y-2132674D02*
X3560531Y-2123151D01*
X3560531Y-2123151D02*
X3541483Y-2094579D01*
X3541483Y-2094579D02*
X3531960Y-2075532D01*
X3531960Y-2075532D02*
X3522436Y-2046960D01*
X3522436Y-2046960D02*
X3512912Y-1999341D01*
X3512912Y-1999341D02*
X3512912Y-1961246D01*
X3512912Y-1961246D02*
X3522436Y-1913627D01*
X3522436Y-1913627D02*
X3531960Y-1885055D01*
X3531960Y-1885055D02*
X3541483Y-1866008D01*
X3541483Y-1866008D02*
X3560531Y-1837436D01*
X3560531Y-1837436D02*
X3570055Y-1827912D01*
X3741483Y-1856484D02*
X3646245Y-1856484D01*
X3646245Y-1856484D02*
X3636721Y-1951722D01*
X3636721Y-1951722D02*
X3646245Y-1942198D01*
X3646245Y-1942198D02*
X3665293Y-1932674D01*
X3665293Y-1932674D02*
X3712912Y-1932674D01*
X3712912Y-1932674D02*
X3731960Y-1942198D01*
X3731960Y-1942198D02*
X3741483Y-1951722D01*
X3741483Y-1951722D02*
X3751007Y-1970770D01*
X3751007Y-1970770D02*
X3751007Y-2018389D01*
X3751007Y-2018389D02*
X3741483Y-2037436D01*
X3741483Y-2037436D02*
X3731960Y-2046960D01*
X3731960Y-2046960D02*
X3712912Y-2056484D01*
X3712912Y-2056484D02*
X3665293Y-2056484D01*
X3665293Y-2056484D02*
X3646245Y-2046960D01*
X3646245Y-2046960D02*
X3636721Y-2037436D01*
X3989102Y-2056484D02*
X3989102Y-1856484D01*
X4074817Y-2056484D02*
X4074817Y-1951722D01*
X4074817Y-1951722D02*
X4065293Y-1932674D01*
X4065293Y-1932674D02*
X4046245Y-1923151D01*
X4046245Y-1923151D02*
X4017674Y-1923151D01*
X4017674Y-1923151D02*
X3998626Y-1932674D01*
X3998626Y-1932674D02*
X3989102Y-1942198D01*
X4198626Y-2056484D02*
X4179579Y-2046960D01*
X4179579Y-2046960D02*
X4170055Y-2037436D01*
X4170055Y-2037436D02*
X4160531Y-2018389D01*
X4160531Y-2018389D02*
X4160531Y-1961246D01*
X4160531Y-1961246D02*
X4170055Y-1942198D01*
X4170055Y-1942198D02*
X4179579Y-1932674D01*
X4179579Y-1932674D02*
X4198626Y-1923151D01*
X4198626Y-1923151D02*
X4227198Y-1923151D01*
X4227198Y-1923151D02*
X4246245Y-1932674D01*
X4246245Y-1932674D02*
X4255769Y-1942198D01*
X4255769Y-1942198D02*
X4265293Y-1961246D01*
X4265293Y-1961246D02*
X4265293Y-2018389D01*
X4265293Y-2018389D02*
X4255769Y-2037436D01*
X4255769Y-2037436D02*
X4246245Y-2046960D01*
X4246245Y-2046960D02*
X4227198Y-2056484D01*
X4227198Y-2056484D02*
X4198626Y-2056484D01*
X4379579Y-2056484D02*
X4360531Y-2046960D01*
X4360531Y-2046960D02*
X4351007Y-2027912D01*
X4351007Y-2027912D02*
X4351007Y-1856484D01*
X4531960Y-2046960D02*
X4512912Y-2056484D01*
X4512912Y-2056484D02*
X4474817Y-2056484D01*
X4474817Y-2056484D02*
X4455769Y-2046960D01*
X4455769Y-2046960D02*
X4446245Y-2027912D01*
X4446245Y-2027912D02*
X4446245Y-1951722D01*
X4446245Y-1951722D02*
X4455769Y-1932674D01*
X4455769Y-1932674D02*
X4474817Y-1923151D01*
X4474817Y-1923151D02*
X4512912Y-1923151D01*
X4512912Y-1923151D02*
X4531960Y-1932674D01*
X4531960Y-1932674D02*
X4541484Y-1951722D01*
X4541484Y-1951722D02*
X4541484Y-1970770D01*
X4541484Y-1970770D02*
X4446245Y-1989817D01*
X4617674Y-2046960D02*
X4636722Y-2056484D01*
X4636722Y-2056484D02*
X4674817Y-2056484D01*
X4674817Y-2056484D02*
X4693865Y-2046960D01*
X4693865Y-2046960D02*
X4703388Y-2027912D01*
X4703388Y-2027912D02*
X4703388Y-2018389D01*
X4703388Y-2018389D02*
X4693865Y-1999341D01*
X4693865Y-1999341D02*
X4674817Y-1989817D01*
X4674817Y-1989817D02*
X4646245Y-1989817D01*
X4646245Y-1989817D02*
X4627198Y-1980293D01*
X4627198Y-1980293D02*
X4617674Y-1961246D01*
X4617674Y-1961246D02*
X4617674Y-1951722D01*
X4617674Y-1951722D02*
X4627198Y-1932674D01*
X4627198Y-1932674D02*
X4646245Y-1923151D01*
X4646245Y-1923151D02*
X4674817Y-1923151D01*
X4674817Y-1923151D02*
X4693865Y-1932674D01*
X4770055Y-2132674D02*
X4779579Y-2123151D01*
X4779579Y-2123151D02*
X4798626Y-2094579D01*
X4798626Y-2094579D02*
X4808150Y-2075532D01*
X4808150Y-2075532D02*
X4817674Y-2046960D01*
X4817674Y-2046960D02*
X4827198Y-1999341D01*
X4827198Y-1999341D02*
X4827198Y-1961246D01*
X4827198Y-1961246D02*
X4817674Y-1913627D01*
X4817674Y-1913627D02*
X4808150Y-1885055D01*
X4808150Y-1885055D02*
X4798626Y-1866008D01*
X4798626Y-1866008D02*
X4779579Y-1837436D01*
X4779579Y-1837436D02*
X4770055Y-1827912D01*
D16*
X-152008Y-2155500D02*
X-5008Y-2302500D01*
X-5008Y-2155500D02*
X-152008Y-2302500D01*
X-78508Y-2155500D02*
X-78508Y-2302500D01*
X-152008Y-2229000D02*
X-5008Y-2229000D01*
D11*
X360531Y-2320484D02*
X246245Y-2320484D01*
X303388Y-2320484D02*
X303388Y-2120484D01*
X303388Y-2120484D02*
X284340Y-2149055D01*
X284340Y-2149055D02*
X265293Y-2168103D01*
X265293Y-2168103D02*
X246245Y-2177627D01*
X446245Y-2301436D02*
X455769Y-2310960D01*
X455769Y-2310960D02*
X446245Y-2320484D01*
X446245Y-2320484D02*
X436721Y-2310960D01*
X436721Y-2310960D02*
X446245Y-2301436D01*
X446245Y-2301436D02*
X446245Y-2320484D01*
X627197Y-2187151D02*
X627197Y-2320484D01*
X579578Y-2110960D02*
X531959Y-2253817D01*
X531959Y-2253817D02*
X655769Y-2253817D01*
X712912Y-2120484D02*
X846245Y-2120484D01*
X846245Y-2120484D02*
X760531Y-2320484D01*
X960531Y-2120484D02*
X979578Y-2120484D01*
X979578Y-2120484D02*
X998626Y-2130008D01*
X998626Y-2130008D02*
X1008150Y-2139532D01*
X1008150Y-2139532D02*
X1017674Y-2158579D01*
X1017674Y-2158579D02*
X1027197Y-2196674D01*
X1027197Y-2196674D02*
X1027197Y-2244294D01*
X1027197Y-2244294D02*
X1017674Y-2282389D01*
X1017674Y-2282389D02*
X1008150Y-2301436D01*
X1008150Y-2301436D02*
X998626Y-2310960D01*
X998626Y-2310960D02*
X979578Y-2320484D01*
X979578Y-2320484D02*
X960531Y-2320484D01*
X960531Y-2320484D02*
X941483Y-2310960D01*
X941483Y-2310960D02*
X931959Y-2301436D01*
X931959Y-2301436D02*
X922435Y-2282389D01*
X922435Y-2282389D02*
X912912Y-2244294D01*
X912912Y-2244294D02*
X912912Y-2196674D01*
X912912Y-2196674D02*
X922435Y-2158579D01*
X922435Y-2158579D02*
X931959Y-2139532D01*
X931959Y-2139532D02*
X941483Y-2130008D01*
X941483Y-2130008D02*
X960531Y-2120484D01*
X1112912Y-2320484D02*
X1112912Y-2187151D01*
X1112912Y-2206198D02*
X1122436Y-2196674D01*
X1122436Y-2196674D02*
X1141483Y-2187151D01*
X1141483Y-2187151D02*
X1170055Y-2187151D01*
X1170055Y-2187151D02*
X1189102Y-2196674D01*
X1189102Y-2196674D02*
X1198626Y-2215722D01*
X1198626Y-2215722D02*
X1198626Y-2320484D01*
X1198626Y-2215722D02*
X1208150Y-2196674D01*
X1208150Y-2196674D02*
X1227197Y-2187151D01*
X1227197Y-2187151D02*
X1255769Y-2187151D01*
X1255769Y-2187151D02*
X1274817Y-2196674D01*
X1274817Y-2196674D02*
X1284340Y-2215722D01*
X1284340Y-2215722D02*
X1284340Y-2320484D01*
X1379578Y-2320484D02*
X1379578Y-2187151D01*
X1379578Y-2206198D02*
X1389102Y-2196674D01*
X1389102Y-2196674D02*
X1408150Y-2187151D01*
X1408150Y-2187151D02*
X1436721Y-2187151D01*
X1436721Y-2187151D02*
X1455769Y-2196674D01*
X1455769Y-2196674D02*
X1465293Y-2215722D01*
X1465293Y-2215722D02*
X1465293Y-2320484D01*
X1465293Y-2215722D02*
X1474816Y-2196674D01*
X1474816Y-2196674D02*
X1493864Y-2187151D01*
X1493864Y-2187151D02*
X1522435Y-2187151D01*
X1522435Y-2187151D02*
X1541483Y-2196674D01*
X1541483Y-2196674D02*
X1551007Y-2215722D01*
X1551007Y-2215722D02*
X1551007Y-2320484D01*
X1941483Y-2110960D02*
X1770055Y-2368103D01*
X2198626Y-2120484D02*
X2217674Y-2120484D01*
X2217674Y-2120484D02*
X2236721Y-2130008D01*
X2236721Y-2130008D02*
X2246245Y-2139532D01*
X2246245Y-2139532D02*
X2255769Y-2158579D01*
X2255769Y-2158579D02*
X2265293Y-2196674D01*
X2265293Y-2196674D02*
X2265293Y-2244294D01*
X2265293Y-2244294D02*
X2255769Y-2282389D01*
X2255769Y-2282389D02*
X2246245Y-2301436D01*
X2246245Y-2301436D02*
X2236721Y-2310960D01*
X2236721Y-2310960D02*
X2217674Y-2320484D01*
X2217674Y-2320484D02*
X2198626Y-2320484D01*
X2198626Y-2320484D02*
X2179579Y-2310960D01*
X2179579Y-2310960D02*
X2170055Y-2301436D01*
X2170055Y-2301436D02*
X2160531Y-2282389D01*
X2160531Y-2282389D02*
X2151007Y-2244294D01*
X2151007Y-2244294D02*
X2151007Y-2196674D01*
X2151007Y-2196674D02*
X2160531Y-2158579D01*
X2160531Y-2158579D02*
X2170055Y-2139532D01*
X2170055Y-2139532D02*
X2179579Y-2130008D01*
X2179579Y-2130008D02*
X2198626Y-2120484D01*
X2351007Y-2301436D02*
X2360531Y-2310960D01*
X2360531Y-2310960D02*
X2351007Y-2320484D01*
X2351007Y-2320484D02*
X2341483Y-2310960D01*
X2341483Y-2310960D02*
X2351007Y-2301436D01*
X2351007Y-2301436D02*
X2351007Y-2320484D01*
X2484340Y-2120484D02*
X2503388Y-2120484D01*
X2503388Y-2120484D02*
X2522436Y-2130008D01*
X2522436Y-2130008D02*
X2531960Y-2139532D01*
X2531960Y-2139532D02*
X2541483Y-2158579D01*
X2541483Y-2158579D02*
X2551007Y-2196674D01*
X2551007Y-2196674D02*
X2551007Y-2244294D01*
X2551007Y-2244294D02*
X2541483Y-2282389D01*
X2541483Y-2282389D02*
X2531960Y-2301436D01*
X2531960Y-2301436D02*
X2522436Y-2310960D01*
X2522436Y-2310960D02*
X2503388Y-2320484D01*
X2503388Y-2320484D02*
X2484340Y-2320484D01*
X2484340Y-2320484D02*
X2465293Y-2310960D01*
X2465293Y-2310960D02*
X2455769Y-2301436D01*
X2455769Y-2301436D02*
X2446245Y-2282389D01*
X2446245Y-2282389D02*
X2436721Y-2244294D01*
X2436721Y-2244294D02*
X2436721Y-2196674D01*
X2436721Y-2196674D02*
X2446245Y-2158579D01*
X2446245Y-2158579D02*
X2455769Y-2139532D01*
X2455769Y-2139532D02*
X2465293Y-2130008D01*
X2465293Y-2130008D02*
X2484340Y-2120484D01*
X2731960Y-2120484D02*
X2636721Y-2120484D01*
X2636721Y-2120484D02*
X2627198Y-2215722D01*
X2627198Y-2215722D02*
X2636721Y-2206198D01*
X2636721Y-2206198D02*
X2655769Y-2196674D01*
X2655769Y-2196674D02*
X2703388Y-2196674D01*
X2703388Y-2196674D02*
X2722436Y-2206198D01*
X2722436Y-2206198D02*
X2731960Y-2215722D01*
X2731960Y-2215722D02*
X2741483Y-2234770D01*
X2741483Y-2234770D02*
X2741483Y-2282389D01*
X2741483Y-2282389D02*
X2731960Y-2301436D01*
X2731960Y-2301436D02*
X2722436Y-2310960D01*
X2722436Y-2310960D02*
X2703388Y-2320484D01*
X2703388Y-2320484D02*
X2655769Y-2320484D01*
X2655769Y-2320484D02*
X2636721Y-2310960D01*
X2636721Y-2310960D02*
X2627198Y-2301436D01*
X2808150Y-2120484D02*
X2941483Y-2120484D01*
X2941483Y-2120484D02*
X2855769Y-2320484D01*
X3027198Y-2320484D02*
X3065293Y-2320484D01*
X3065293Y-2320484D02*
X3084340Y-2310960D01*
X3084340Y-2310960D02*
X3093864Y-2301436D01*
X3093864Y-2301436D02*
X3112912Y-2272865D01*
X3112912Y-2272865D02*
X3122436Y-2234770D01*
X3122436Y-2234770D02*
X3122436Y-2158579D01*
X3122436Y-2158579D02*
X3112912Y-2139532D01*
X3112912Y-2139532D02*
X3103388Y-2130008D01*
X3103388Y-2130008D02*
X3084340Y-2120484D01*
X3084340Y-2120484D02*
X3046245Y-2120484D01*
X3046245Y-2120484D02*
X3027198Y-2130008D01*
X3027198Y-2130008D02*
X3017674Y-2139532D01*
X3017674Y-2139532D02*
X3008150Y-2158579D01*
X3008150Y-2158579D02*
X3008150Y-2206198D01*
X3008150Y-2206198D02*
X3017674Y-2225246D01*
X3017674Y-2225246D02*
X3027198Y-2234770D01*
X3027198Y-2234770D02*
X3046245Y-2244294D01*
X3046245Y-2244294D02*
X3084340Y-2244294D01*
X3084340Y-2244294D02*
X3103388Y-2234770D01*
X3103388Y-2234770D02*
X3112912Y-2225246D01*
X3112912Y-2225246D02*
X3122436Y-2206198D01*
X3198626Y-2120484D02*
X3198626Y-2158579D01*
X3274817Y-2120484D02*
X3274817Y-2158579D01*
X3570055Y-2396674D02*
X3560531Y-2387151D01*
X3560531Y-2387151D02*
X3541483Y-2358579D01*
X3541483Y-2358579D02*
X3531960Y-2339532D01*
X3531960Y-2339532D02*
X3522436Y-2310960D01*
X3522436Y-2310960D02*
X3512912Y-2263341D01*
X3512912Y-2263341D02*
X3512912Y-2225246D01*
X3512912Y-2225246D02*
X3522436Y-2177627D01*
X3522436Y-2177627D02*
X3531960Y-2149055D01*
X3531960Y-2149055D02*
X3541483Y-2130008D01*
X3541483Y-2130008D02*
X3560531Y-2101436D01*
X3560531Y-2101436D02*
X3570055Y-2091912D01*
X3627198Y-2120484D02*
X3760531Y-2120484D01*
X3760531Y-2120484D02*
X3674817Y-2320484D01*
X3922436Y-2187151D02*
X3922436Y-2320484D01*
X3874817Y-2110960D02*
X3827198Y-2253817D01*
X3827198Y-2253817D02*
X3951007Y-2253817D01*
X4179579Y-2320484D02*
X4179579Y-2120484D01*
X4265293Y-2320484D02*
X4265293Y-2215722D01*
X4265293Y-2215722D02*
X4255769Y-2196674D01*
X4255769Y-2196674D02*
X4236722Y-2187151D01*
X4236722Y-2187151D02*
X4208150Y-2187151D01*
X4208150Y-2187151D02*
X4189102Y-2196674D01*
X4189102Y-2196674D02*
X4179579Y-2206198D01*
X4389103Y-2320484D02*
X4370055Y-2310960D01*
X4370055Y-2310960D02*
X4360531Y-2301436D01*
X4360531Y-2301436D02*
X4351007Y-2282389D01*
X4351007Y-2282389D02*
X4351007Y-2225246D01*
X4351007Y-2225246D02*
X4360531Y-2206198D01*
X4360531Y-2206198D02*
X4370055Y-2196674D01*
X4370055Y-2196674D02*
X4389103Y-2187151D01*
X4389103Y-2187151D02*
X4417674Y-2187151D01*
X4417674Y-2187151D02*
X4436722Y-2196674D01*
X4436722Y-2196674D02*
X4446245Y-2206198D01*
X4446245Y-2206198D02*
X4455769Y-2225246D01*
X4455769Y-2225246D02*
X4455769Y-2282389D01*
X4455769Y-2282389D02*
X4446245Y-2301436D01*
X4446245Y-2301436D02*
X4436722Y-2310960D01*
X4436722Y-2310960D02*
X4417674Y-2320484D01*
X4417674Y-2320484D02*
X4389103Y-2320484D01*
X4570055Y-2320484D02*
X4551007Y-2310960D01*
X4551007Y-2310960D02*
X4541484Y-2291913D01*
X4541484Y-2291913D02*
X4541484Y-2120484D01*
X4722436Y-2310960D02*
X4703388Y-2320484D01*
X4703388Y-2320484D02*
X4665293Y-2320484D01*
X4665293Y-2320484D02*
X4646245Y-2310960D01*
X4646245Y-2310960D02*
X4636722Y-2291913D01*
X4636722Y-2291913D02*
X4636722Y-2215722D01*
X4636722Y-2215722D02*
X4646245Y-2196674D01*
X4646245Y-2196674D02*
X4665293Y-2187151D01*
X4665293Y-2187151D02*
X4703388Y-2187151D01*
X4703388Y-2187151D02*
X4722436Y-2196674D01*
X4722436Y-2196674D02*
X4731960Y-2215722D01*
X4731960Y-2215722D02*
X4731960Y-2234770D01*
X4731960Y-2234770D02*
X4636722Y-2253817D01*
X4808150Y-2310960D02*
X4827198Y-2320484D01*
X4827198Y-2320484D02*
X4865293Y-2320484D01*
X4865293Y-2320484D02*
X4884341Y-2310960D01*
X4884341Y-2310960D02*
X4893865Y-2291913D01*
X4893865Y-2291913D02*
X4893865Y-2282389D01*
X4893865Y-2282389D02*
X4884341Y-2263341D01*
X4884341Y-2263341D02*
X4865293Y-2253817D01*
X4865293Y-2253817D02*
X4836722Y-2253817D01*
X4836722Y-2253817D02*
X4817674Y-2244294D01*
X4817674Y-2244294D02*
X4808150Y-2225246D01*
X4808150Y-2225246D02*
X4808150Y-2215722D01*
X4808150Y-2215722D02*
X4817674Y-2196674D01*
X4817674Y-2196674D02*
X4836722Y-2187151D01*
X4836722Y-2187151D02*
X4865293Y-2187151D01*
X4865293Y-2187151D02*
X4884341Y-2196674D01*
X4960531Y-2396674D02*
X4970055Y-2387151D01*
X4970055Y-2387151D02*
X4989103Y-2358579D01*
X4989103Y-2358579D02*
X4998626Y-2339532D01*
X4998626Y-2339532D02*
X5008150Y-2310960D01*
X5008150Y-2310960D02*
X5017674Y-2263341D01*
X5017674Y-2263341D02*
X5017674Y-2225246D01*
X5017674Y-2225246D02*
X5008150Y-2177627D01*
X5008150Y-2177627D02*
X4998626Y-2149055D01*
X4998626Y-2149055D02*
X4989103Y-2130008D01*
X4989103Y-2130008D02*
X4970055Y-2101436D01*
X4970055Y-2101436D02*
X4960531Y-2091912D01*
M02*
