%TF.GenerationSoftware,KiCad,Pcbnew,7.0.6*%
%TF.CreationDate,2023-08-01T10:10:22-04:00*%
%TF.ProjectId,good-delivery,676f6f64-2d64-4656-9c69-766572792e6b,rev?*%
%TF.SameCoordinates,PX2d6b3a0PY7e9ae4e*%
%TF.FileFunction,Soldermask,Bot*%
%TF.FilePolarity,Negative*%
%FSLAX46Y46*%
G04 Gerber Fmt 4.6, Leading zero omitted, Abs format (unit mm)*
G04 Created by KiCad (PCBNEW 7.0.6) date 2023-08-01 10:10:22*
%MOMM*%
%LPD*%
G01*
G04 APERTURE LIST*
G04 Aperture macros list*
%AMRoundRect*
0 Rectangle with rounded corners*
0 $1 Rounding radius*
0 $2 $3 $4 $5 $6 $7 $8 $9 X,Y pos of 4 corners*
0 Add a 4 corners polygon primitive as box body*
4,1,4,$2,$3,$4,$5,$6,$7,$8,$9,$2,$3,0*
0 Add four circle primitives for the rounded corners*
1,1,$1+$1,$2,$3*
1,1,$1+$1,$4,$5*
1,1,$1+$1,$6,$7*
1,1,$1+$1,$8,$9*
0 Add four rect primitives between the rounded corners*
20,1,$1+$1,$2,$3,$4,$5,0*
20,1,$1+$1,$4,$5,$6,$7,0*
20,1,$1+$1,$6,$7,$8,$9,0*
20,1,$1+$1,$8,$9,$2,$3,0*%
%AMOutline5P*
0 Free polygon, 5 corners , with rotation*
0 The origin of the aperture is its center*
0 number of corners: always 5*
0 $1 to $10 corner X, Y*
0 $11 Rotation angle, in degrees counterclockwise*
0 create outline with 5 corners*
4,1,5,$1,$2,$3,$4,$5,$6,$7,$8,$9,$10,$1,$2,$11*%
%AMOutline6P*
0 Free polygon, 6 corners , with rotation*
0 The origin of the aperture is its center*
0 number of corners: always 6*
0 $1 to $12 corner X, Y*
0 $13 Rotation angle, in degrees counterclockwise*
0 create outline with 6 corners*
4,1,6,$1,$2,$3,$4,$5,$6,$7,$8,$9,$10,$11,$12,$1,$2,$13*%
%AMOutline7P*
0 Free polygon, 7 corners , with rotation*
0 The origin of the aperture is its center*
0 number of corners: always 7*
0 $1 to $14 corner X, Y*
0 $15 Rotation angle, in degrees counterclockwise*
0 create outline with 7 corners*
4,1,7,$1,$2,$3,$4,$5,$6,$7,$8,$9,$10,$11,$12,$13,$14,$1,$2,$15*%
%AMOutline8P*
0 Free polygon, 8 corners , with rotation*
0 The origin of the aperture is its center*
0 number of corners: always 8*
0 $1 to $16 corner X, Y*
0 $17 Rotation angle, in degrees counterclockwise*
0 create outline with 8 corners*
4,1,8,$1,$2,$3,$4,$5,$6,$7,$8,$9,$10,$11,$12,$13,$14,$15,$16,$1,$2,$17*%
G04 Aperture macros list end*
%ADD10C,1.750000*%
%ADD11C,3.000000*%
%ADD12C,3.987800*%
%ADD13R,2.550000X2.500000*%
%ADD14C,2.250000*%
%ADD15C,3.048000*%
%ADD16R,2.550000X2.250000*%
%ADD17Outline5P,-1.275000X1.250000X0.575000X1.250000X1.275000X0.550000X1.275000X-1.250000X-1.275000X-1.250000X0.000000*%
%ADD18R,1.700000X1.700000*%
%ADD19O,1.700000X1.700000*%
%ADD20RoundRect,0.135000X-0.226274X-0.035355X-0.035355X-0.226274X0.226274X0.035355X0.035355X0.226274X0*%
%ADD21RoundRect,0.135000X-0.185000X0.135000X-0.185000X-0.135000X0.185000X-0.135000X0.185000X0.135000X0*%
%ADD22RoundRect,0.140000X0.021213X-0.219203X0.219203X-0.021213X-0.021213X0.219203X-0.219203X0.021213X0*%
%ADD23C,0.650000*%
%ADD24R,0.600000X1.450000*%
%ADD25R,0.300000X1.450000*%
%ADD26O,1.000000X1.600000*%
%ADD27O,1.000000X2.100000*%
%ADD28RoundRect,0.140000X-0.170000X0.140000X-0.170000X-0.140000X0.170000X-0.140000X0.170000X0.140000X0*%
%ADD29RoundRect,0.150000X0.150000X-0.587500X0.150000X0.587500X-0.150000X0.587500X-0.150000X-0.587500X0*%
%ADD30RoundRect,0.140000X0.140000X0.170000X-0.140000X0.170000X-0.140000X-0.170000X0.140000X-0.170000X0*%
%ADD31RoundRect,0.150000X0.587500X0.150000X-0.587500X0.150000X-0.587500X-0.150000X0.587500X-0.150000X0*%
%ADD32RoundRect,0.200000X-0.275000X0.200000X-0.275000X-0.200000X0.275000X-0.200000X0.275000X0.200000X0*%
%ADD33RoundRect,0.218750X0.218750X0.256250X-0.218750X0.256250X-0.218750X-0.256250X0.218750X-0.256250X0*%
%ADD34RoundRect,0.140000X-0.140000X-0.170000X0.140000X-0.170000X0.140000X0.170000X-0.140000X0.170000X0*%
%ADD35RoundRect,0.140000X0.170000X-0.140000X0.170000X0.140000X-0.170000X0.140000X-0.170000X-0.140000X0*%
%ADD36RoundRect,0.050000X0.309359X-0.238649X-0.238649X0.309359X-0.309359X0.238649X0.238649X-0.309359X0*%
%ADD37RoundRect,0.050000X0.309359X0.238649X0.238649X0.309359X-0.309359X-0.238649X-0.238649X-0.309359X0*%
%ADD38RoundRect,0.144000X2.059095X0.000000X0.000000X2.059095X-2.059095X0.000000X0.000000X-2.059095X0*%
%ADD39R,1.700000X1.000000*%
%ADD40RoundRect,0.135000X0.035355X-0.226274X0.226274X-0.035355X-0.035355X0.226274X-0.226274X0.035355X0*%
%ADD41RoundRect,0.112500X0.112500X-0.187500X0.112500X0.187500X-0.112500X0.187500X-0.112500X-0.187500X0*%
%ADD42RoundRect,0.135000X-0.135000X-0.185000X0.135000X-0.185000X0.135000X0.185000X-0.135000X0.185000X0*%
%ADD43RoundRect,0.150000X0.650000X0.150000X-0.650000X0.150000X-0.650000X-0.150000X0.650000X-0.150000X0*%
%ADD44RoundRect,0.140000X-0.021213X0.219203X-0.219203X0.021213X0.021213X-0.219203X0.219203X-0.021213X0*%
%ADD45R,1.400000X1.200000*%
%ADD46RoundRect,0.147500X0.172500X-0.147500X0.172500X0.147500X-0.172500X0.147500X-0.172500X-0.147500X0*%
%ADD47RoundRect,0.147500X0.147500X0.172500X-0.147500X0.172500X-0.147500X-0.172500X0.147500X-0.172500X0*%
G04 APERTURE END LIST*
D10*
%TO.C,MX11*%
X37782524Y28575168D03*
D11*
X39052524Y31115168D03*
D12*
X42862524Y28575168D03*
D11*
X45402524Y33655168D03*
D10*
X47942524Y28575168D03*
D13*
X35777524Y31115168D03*
D14*
X40362524Y24075168D03*
X45362524Y24575168D03*
D13*
X48704524Y33655168D03*
%TD*%
D10*
%TO.C,MX33*%
X152082524Y28575168D03*
D11*
X153352524Y31115168D03*
D12*
X157162524Y28575168D03*
D11*
X159702524Y33655168D03*
D10*
X162242524Y28575168D03*
D13*
X150077524Y31115168D03*
D14*
X154662524Y24075168D03*
X159662524Y24575168D03*
D13*
X163004524Y33655168D03*
%TD*%
D10*
%TO.C,MX21*%
X104457524Y47625168D03*
D11*
X105727524Y50165168D03*
D12*
X109537524Y47625168D03*
D11*
X112077524Y52705168D03*
D10*
X114617524Y47625168D03*
D13*
X102452524Y50165168D03*
D14*
X107037524Y43125168D03*
X112037524Y43625168D03*
D13*
X115379524Y52705168D03*
%TD*%
D10*
%TO.C,MX3*%
X11588774Y28575168D03*
D11*
X12858774Y31115168D03*
D12*
X16668774Y28575168D03*
D11*
X19208774Y33655168D03*
D10*
X21748774Y28575168D03*
D13*
X9583774Y31115168D03*
D14*
X14168774Y24075168D03*
X19168774Y24575168D03*
D13*
X22510774Y33655168D03*
%TD*%
D10*
%TO.C,MX7*%
X28257524Y47625168D03*
D11*
X29527524Y50165168D03*
D12*
X33337524Y47625168D03*
D11*
X35877524Y52705168D03*
D10*
X38417524Y47625168D03*
D13*
X26252524Y50165168D03*
D14*
X30837524Y43125168D03*
X35837524Y43625168D03*
D13*
X39179524Y52705168D03*
%TD*%
D10*
%TO.C,MX8*%
X23495024Y9525168D03*
D11*
X24765024Y12065168D03*
D12*
X28575024Y9525168D03*
D11*
X31115024Y14605168D03*
D10*
X33655024Y9525168D03*
D13*
X21490024Y12065168D03*
D14*
X26075024Y5025168D03*
X31075024Y5525168D03*
D13*
X34417024Y14605168D03*
%TD*%
D10*
%TO.C,MX12*%
X42545024Y9525168D03*
D11*
X43815024Y12065168D03*
D12*
X47625024Y9525168D03*
D11*
X50165024Y14605168D03*
D10*
X52705024Y9525168D03*
D13*
X40540024Y12065168D03*
D14*
X45125024Y5025168D03*
X50125024Y5525168D03*
D13*
X53467024Y14605168D03*
%TD*%
D10*
%TO.C,MX15*%
X56832524Y28575168D03*
D11*
X58102524Y31115168D03*
D12*
X61912524Y28575168D03*
D11*
X64452524Y33655168D03*
D10*
X66992524Y28575168D03*
D13*
X54827524Y31115168D03*
D14*
X59412524Y24075168D03*
X64412524Y24575168D03*
D13*
X67754524Y33655168D03*
%TD*%
D10*
%TO.C,MX24*%
X118745024Y66675168D03*
D11*
X120015024Y69215168D03*
D12*
X123825024Y66675168D03*
D11*
X126365024Y71755168D03*
D10*
X128905024Y66675168D03*
D13*
X116740024Y69215168D03*
D14*
X121325024Y62175168D03*
X126325024Y62675168D03*
D13*
X129667024Y71755168D03*
%TD*%
D12*
%TO.C,MX27*%
X102362024Y17780168D03*
D15*
X102362024Y2540168D03*
D10*
X109220024Y9525168D03*
D11*
X110490024Y12065168D03*
D12*
X114300024Y9525168D03*
D11*
X116840024Y14605168D03*
D10*
X119380024Y9525168D03*
D12*
X126238024Y17780168D03*
D15*
X126238024Y2540168D03*
D13*
X107215024Y12065168D03*
D14*
X111800024Y5025168D03*
X116800024Y5525168D03*
D13*
X120142024Y14605168D03*
%TD*%
D10*
%TO.C,MX6*%
X23495024Y66675168D03*
D11*
X24765024Y69215168D03*
D12*
X28575024Y66675168D03*
D11*
X31115024Y71755168D03*
D10*
X33655024Y66675168D03*
D13*
X21490024Y69215168D03*
D14*
X26075024Y62175168D03*
X31075024Y62675168D03*
D13*
X34417024Y71755168D03*
%TD*%
D10*
%TO.C,MX14*%
X66357524Y47625168D03*
D11*
X67627524Y50165168D03*
D12*
X71437524Y47625168D03*
D11*
X73977524Y52705168D03*
D10*
X76517524Y47625168D03*
D13*
X64352524Y50165168D03*
D14*
X68937524Y43125168D03*
X73937524Y43625168D03*
D13*
X77279524Y52705168D03*
%TD*%
D10*
%TO.C,MX37*%
X173513774Y28575168D03*
D11*
X174783774Y31115168D03*
D12*
X178593774Y28575168D03*
D11*
X181133774Y33655168D03*
D10*
X183673774Y28575168D03*
D13*
X171508774Y31115168D03*
D14*
X176093774Y24075168D03*
X181093774Y24575168D03*
D13*
X184435774Y33655168D03*
%TD*%
D10*
%TO.C,MX29*%
X142557524Y47625168D03*
D11*
X143827524Y50165168D03*
D12*
X147637524Y47625168D03*
D11*
X150177524Y52705168D03*
D10*
X152717524Y47625168D03*
D13*
X140552524Y50165168D03*
D14*
X145137524Y43125168D03*
X150137524Y43625168D03*
D13*
X153479524Y52705168D03*
%TD*%
D10*
%TO.C,MX16*%
X90805024Y66675168D03*
D11*
X89535024Y64135168D03*
D12*
X85725024Y66675168D03*
D11*
X83185024Y61595168D03*
D10*
X80645024Y66675168D03*
D14*
X83225024Y70675168D03*
D13*
X79883024Y61595168D03*
X92810024Y64135168D03*
D14*
X88225024Y71175168D03*
%TD*%
D10*
%TO.C,MX17*%
X85407524Y47625168D03*
D11*
X86677524Y50165168D03*
D12*
X90487524Y47625168D03*
D11*
X93027524Y52705168D03*
D10*
X95567524Y47625168D03*
D13*
X83402524Y50165168D03*
D14*
X87987524Y43125168D03*
X92987524Y43625168D03*
D13*
X96329524Y52705168D03*
%TD*%
D10*
%TO.C,MX13*%
X61595024Y66675168D03*
D11*
X62865024Y69215168D03*
D12*
X66675024Y66675168D03*
D11*
X69215024Y71755168D03*
D10*
X71755024Y66675168D03*
D13*
X59590024Y69215168D03*
D14*
X64175024Y62175168D03*
X69175024Y62675168D03*
D13*
X72517024Y71755168D03*
%TD*%
D12*
%TO.C,MX23*%
X28575240Y17780024D03*
D15*
X28575240Y2540024D03*
D12*
X38100240Y17780024D03*
D15*
X38100240Y2540024D03*
D12*
X47625240Y17780024D03*
D15*
X47625240Y2540024D03*
D12*
X66675240Y17780024D03*
D15*
X66675240Y2540024D03*
D10*
X90170240Y9525024D03*
D11*
X91440240Y12065024D03*
D12*
X95250240Y9525024D03*
D11*
X97790240Y14605024D03*
D10*
X100330240Y9525024D03*
D12*
X123825240Y17780024D03*
D15*
X123825240Y2540024D03*
D12*
X142875240Y17780024D03*
D15*
X142875240Y2540024D03*
D12*
X152400240Y17780024D03*
D15*
X152400240Y2540024D03*
D12*
X161925240Y17780024D03*
D15*
X161925240Y2540024D03*
D13*
X88165240Y12065024D03*
D14*
X92750240Y5025024D03*
X97750240Y5525024D03*
D16*
X101092240Y14355024D03*
%TD*%
D10*
%TO.C,MX26*%
X113982524Y28575168D03*
D11*
X115252524Y31115168D03*
D12*
X119062524Y28575168D03*
D11*
X121602524Y33655168D03*
D10*
X124142524Y28575168D03*
D13*
X111977524Y31115168D03*
D14*
X116562524Y24075168D03*
X121562524Y24575168D03*
D13*
X124904524Y33655168D03*
%TD*%
D10*
%TO.C,MX18*%
X75882524Y28575168D03*
D11*
X77152524Y31115168D03*
D12*
X80962524Y28575168D03*
D11*
X83502524Y33655168D03*
D10*
X86042524Y28575168D03*
D13*
X73877524Y31115168D03*
D14*
X78462524Y24075168D03*
X83462524Y24575168D03*
D13*
X86804524Y33655168D03*
%TD*%
D10*
%TO.C,MX38*%
X175895024Y9525168D03*
D11*
X177165024Y12065168D03*
D12*
X180975024Y9525168D03*
D11*
X183515024Y14605168D03*
D10*
X186055024Y9525168D03*
D13*
X173890024Y12065168D03*
D14*
X178475024Y5025168D03*
X183475024Y5525168D03*
D13*
X186817024Y14605168D03*
%TD*%
D10*
%TO.C,MX2*%
X6826274Y47625168D03*
D11*
X8096274Y50165168D03*
D12*
X11906274Y47625168D03*
D11*
X14446274Y52705168D03*
D10*
X16986274Y47625168D03*
D13*
X4821274Y50165168D03*
D14*
X9406274Y43125168D03*
X14406274Y43625168D03*
D13*
X17748274Y52705168D03*
%TD*%
D10*
%TO.C,MX35*%
X175895024Y66675168D03*
D11*
X177165024Y69215168D03*
D12*
X180975024Y66675168D03*
D11*
X183515024Y71755168D03*
D10*
X186055024Y66675168D03*
D13*
X173890024Y69215168D03*
D14*
X178475024Y62175168D03*
X183475024Y62675168D03*
D13*
X186817024Y71755168D03*
%TD*%
D10*
%TO.C,MX1*%
X4445024Y66675168D03*
D11*
X5715024Y69215168D03*
D12*
X9525024Y66675168D03*
D11*
X12065024Y71755168D03*
D10*
X14605024Y66675168D03*
D13*
X2440024Y69215168D03*
D14*
X7025024Y62175168D03*
X12025024Y62675168D03*
D17*
X15367024Y71755168D03*
%TD*%
D18*
%TO.C,J2*%
X2976570Y33650072D03*
D19*
X2976570Y31110072D03*
X2976570Y28570072D03*
X2976570Y26030072D03*
X2976570Y23490072D03*
%TD*%
D10*
%TO.C,MX36*%
X168751274Y47625168D03*
D11*
X170021274Y50165168D03*
D12*
X173831274Y47625168D03*
D11*
X176371274Y52705168D03*
D10*
X178911274Y47625168D03*
D13*
X166746274Y50165168D03*
D14*
X171331274Y43125168D03*
X176331274Y43625168D03*
D13*
X179673274Y52705168D03*
%TD*%
D10*
%TO.C,MX28*%
X137795024Y66675168D03*
D11*
X139065024Y69215168D03*
D12*
X142875024Y66675168D03*
D11*
X145415024Y71755168D03*
D10*
X147955024Y66675168D03*
D13*
X135790024Y69215168D03*
D14*
X140375024Y62175168D03*
X145375024Y62675168D03*
D13*
X148717024Y71755168D03*
%TD*%
D12*
%TO.C,MX19*%
X64262024Y17780168D03*
D15*
X64262024Y2540168D03*
D10*
X71120024Y9525168D03*
D11*
X72390024Y12065168D03*
D12*
X76200024Y9525168D03*
D11*
X78740024Y14605168D03*
D10*
X81280024Y9525168D03*
D12*
X88138024Y17780168D03*
D15*
X88138024Y2540168D03*
D13*
X69115024Y12065168D03*
D14*
X73700024Y5025168D03*
X78700024Y5525168D03*
D13*
X82042024Y14605168D03*
%TD*%
D10*
%TO.C,MX4*%
X4445024Y9525168D03*
D11*
X5715024Y12065168D03*
D12*
X9525024Y9525168D03*
D11*
X12065024Y14605168D03*
D10*
X14605024Y9525168D03*
D13*
X2440024Y12065168D03*
D14*
X7025024Y5025168D03*
X12025024Y5525168D03*
D13*
X15367024Y14605168D03*
%TD*%
D10*
%TO.C,MX32*%
X156845024Y66675168D03*
D11*
X158115024Y69215168D03*
D12*
X161925024Y66675168D03*
D11*
X164465024Y71755168D03*
D10*
X167005024Y66675168D03*
D13*
X154840024Y69215168D03*
D14*
X159425024Y62175168D03*
X164425024Y62675168D03*
D17*
X167767024Y71755168D03*
%TD*%
D10*
%TO.C,MX31*%
X137795024Y9525168D03*
D11*
X139065024Y12065168D03*
D12*
X142875024Y9525168D03*
D11*
X145415024Y14605168D03*
D10*
X147955024Y9525168D03*
D13*
X135790024Y12065168D03*
D14*
X140375024Y5025168D03*
X145375024Y5525168D03*
D13*
X148717024Y14605168D03*
%TD*%
D10*
%TO.C,MX9*%
X42545024Y66675168D03*
D11*
X43815024Y69215168D03*
D12*
X47625024Y66675168D03*
D11*
X50165024Y71755168D03*
D10*
X52705024Y66675168D03*
D13*
X40540024Y69215168D03*
D14*
X45125024Y62175168D03*
X50125024Y62675168D03*
D13*
X53467024Y71755168D03*
%TD*%
D10*
%TO.C,MX34*%
X156845024Y9525168D03*
D11*
X158115024Y12065168D03*
D12*
X161925024Y9525168D03*
D11*
X164465024Y14605168D03*
D10*
X167005024Y9525168D03*
D13*
X154840024Y12065168D03*
D14*
X159425024Y5025168D03*
X164425024Y5525168D03*
D13*
X167767024Y14605168D03*
%TD*%
D10*
%TO.C,MX22*%
X94932524Y28575168D03*
D11*
X96202524Y31115168D03*
D12*
X100012524Y28575168D03*
D11*
X102552524Y33655168D03*
D10*
X105092524Y28575168D03*
D13*
X92927524Y31115168D03*
D14*
X97512524Y24075168D03*
X102512524Y24575168D03*
D13*
X105854524Y33655168D03*
%TD*%
D10*
%TO.C,MX30*%
X133032524Y28575168D03*
D11*
X134302524Y31115168D03*
D12*
X138112524Y28575168D03*
D11*
X140652524Y33655168D03*
D10*
X143192524Y28575168D03*
D13*
X131027524Y31115168D03*
D14*
X135612524Y24075168D03*
X140612524Y24575168D03*
D13*
X143954524Y33655168D03*
%TD*%
D10*
%TO.C,MX20*%
X109855024Y66675168D03*
D11*
X108585024Y64135168D03*
D12*
X104775024Y66675168D03*
D11*
X102235024Y61595168D03*
D10*
X99695024Y66675168D03*
D13*
X111860024Y64135168D03*
D14*
X107275024Y71175168D03*
X102275024Y70675168D03*
D13*
X98933024Y61595168D03*
%TD*%
D10*
%TO.C,MX10*%
X47307524Y47625168D03*
D11*
X48577524Y50165168D03*
D12*
X52387524Y47625168D03*
D11*
X54927524Y52705168D03*
D10*
X57467524Y47625168D03*
D13*
X45302524Y50165168D03*
D14*
X49887524Y43125168D03*
X54887524Y43625168D03*
D13*
X58229524Y52705168D03*
%TD*%
D10*
%TO.C,MX25*%
X123507524Y47625168D03*
D11*
X124777524Y50165168D03*
D12*
X128587524Y47625168D03*
D11*
X131127524Y52705168D03*
D10*
X133667524Y47625168D03*
D13*
X121502524Y50165168D03*
D14*
X126087524Y43125168D03*
X131087524Y43625168D03*
D13*
X134429524Y52705168D03*
%TD*%
D20*
%TO.C,R_DATA1*%
X61158431Y21494271D03*
X61879679Y20773023D03*
%TD*%
D21*
%TO.C,R2*%
X94000240Y68349854D03*
X94000240Y67329854D03*
%TD*%
D22*
%TO.C,C_3V-Decoup5*%
X57703704Y16924695D03*
X58382526Y17603517D03*
%TD*%
D23*
%TO.C,J3*%
X92360240Y71516593D03*
X98140240Y71516593D03*
D24*
X92000240Y70071593D03*
X92800240Y70071593D03*
D25*
X94000240Y70071593D03*
X95000240Y70071593D03*
X95500240Y70071593D03*
X96500240Y70071593D03*
D24*
X97700240Y70071593D03*
X98500240Y70071593D03*
X98500240Y70071593D03*
X97700240Y70071593D03*
D25*
X97000240Y70071593D03*
X96000240Y70071593D03*
X94500240Y70071593D03*
X93500240Y70071593D03*
D24*
X92800240Y70071593D03*
X92000240Y70071593D03*
D26*
X90930240Y75166593D03*
D27*
X90930240Y70986593D03*
D26*
X99570240Y75166593D03*
D27*
X99570240Y70986593D03*
%TD*%
D28*
%TO.C,C_3V-Decoup8*%
X53980024Y2788913D03*
X53980024Y1828913D03*
%TD*%
D29*
%TO.C,D8*%
X41431352Y5100168D03*
X39531352Y5100168D03*
X40481352Y6975168D03*
%TD*%
D30*
%TO.C,C_1V-Decoup1*%
X60904371Y17264106D03*
X59944371Y17264106D03*
%TD*%
D29*
%TO.C,D1*%
X16130663Y62250264D03*
X14230663Y62250264D03*
X15180663Y64125264D03*
%TD*%
D22*
%TO.C,C_3V-Decoup4*%
X59191989Y15436410D03*
X59870811Y16115232D03*
%TD*%
D28*
%TO.C,C1*%
X88999443Y74664564D03*
X88999443Y73704564D03*
%TD*%
D31*
%TO.C,U3*%
X74458779Y59588429D03*
X74458779Y57688429D03*
X72583779Y58638429D03*
%TD*%
D29*
%TO.C,D17*%
X168531047Y62250264D03*
X166631047Y62250264D03*
X167581047Y64125264D03*
%TD*%
D20*
%TO.C,R_Flash3*%
X74053626Y27447411D03*
X74774874Y26726163D03*
%TD*%
D29*
%TO.C,D11*%
X87568343Y24150168D03*
X85668343Y24150168D03*
X86618343Y26025168D03*
%TD*%
D32*
%TO.C,R1*%
X87511158Y75009564D03*
X87511158Y73359564D03*
%TD*%
D29*
%TO.C,D20*%
X172343403Y8289867D03*
X170443403Y8289867D03*
X171393403Y10164867D03*
%TD*%
%TO.C,D18*%
X180380142Y43200390D03*
X178480142Y43200390D03*
X179430142Y45075390D03*
%TD*%
D33*
%TO.C,F1*%
X91087885Y58638429D03*
X89512885Y58638429D03*
%TD*%
D34*
%TO.C,C_3V-Decoup6*%
X68278767Y8632053D03*
X69238767Y8632053D03*
%TD*%
D22*
%TO.C,C_Flash1*%
X69609984Y26747376D03*
X70288806Y27426198D03*
%TD*%
D35*
%TO.C,C_LD2*%
X70842366Y57688429D03*
X70842366Y58648429D03*
%TD*%
D29*
%TO.C,D6*%
X58993271Y43200216D03*
X57093271Y43200216D03*
X58043271Y45075216D03*
%TD*%
D36*
%TO.C,U1*%
X66181813Y8635165D03*
X65898970Y8352322D03*
X65616128Y8069480D03*
X65333285Y7786637D03*
X65050442Y7503794D03*
X64767600Y7220952D03*
X64484757Y6938109D03*
X64201914Y6655266D03*
X63919071Y6372423D03*
X63636229Y6089581D03*
X63353386Y5806738D03*
X63070543Y5523895D03*
X62787701Y5241053D03*
X62504858Y4958210D03*
D37*
X61320454Y4958210D03*
X61037611Y5241053D03*
X60754769Y5523895D03*
X60471926Y5806738D03*
X60189083Y6089581D03*
X59906241Y6372423D03*
X59623398Y6655266D03*
X59340555Y6938109D03*
X59057712Y7220952D03*
X58774870Y7503794D03*
X58492027Y7786637D03*
X58209184Y8069480D03*
X57926342Y8352322D03*
X57643499Y8635165D03*
D36*
X57643499Y9819569D03*
X57926342Y10102412D03*
X58209184Y10385254D03*
X58492027Y10668097D03*
X58774870Y10950940D03*
X59057712Y11233782D03*
X59340555Y11516625D03*
X59623398Y11799468D03*
X59906241Y12082311D03*
X60189083Y12365153D03*
X60471926Y12647996D03*
X60754769Y12930839D03*
X61037611Y13213681D03*
X61320454Y13496524D03*
D37*
X62504858Y13496524D03*
X62787701Y13213681D03*
X63070543Y12930839D03*
X63353386Y12647996D03*
X63636229Y12365153D03*
X63919071Y12082311D03*
X64201914Y11799468D03*
X64484757Y11516625D03*
X64767600Y11233782D03*
X65050442Y10950940D03*
X65333285Y10668097D03*
X65616128Y10385254D03*
X65898970Y10102412D03*
X66181813Y9819569D03*
D38*
X61912656Y9227367D03*
%TD*%
D34*
%TO.C,C_3V-Decoup9*%
X65897511Y5655483D03*
X66857511Y5655483D03*
%TD*%
D29*
%TO.C,D15*%
X125668439Y24150168D03*
X123768439Y24150168D03*
X124718439Y26025168D03*
%TD*%
D20*
%TO.C,R_DATA2*%
X60361404Y20697244D03*
X61082652Y19975996D03*
%TD*%
D29*
%TO.C,D14*%
X135193463Y43200216D03*
X133293463Y43200216D03*
X134243463Y45075216D03*
%TD*%
D21*
%TO.C,R_RST1*%
X5357826Y32130072D03*
X5357826Y31110072D03*
%TD*%
D39*
%TO.C,SW2*%
X26020386Y29353985D03*
X32320386Y29353985D03*
X26020386Y33153985D03*
X32320386Y33153985D03*
%TD*%
D35*
%TO.C,C_LD1*%
X76200192Y58638429D03*
X76200192Y59598429D03*
%TD*%
D29*
%TO.C,D3*%
X23274431Y24150168D03*
X21374431Y24150168D03*
X22324431Y26025168D03*
%TD*%
%TO.C,D5*%
X54230759Y62250264D03*
X52330759Y62250264D03*
X53280759Y64125264D03*
%TD*%
D22*
%TO.C,C_3V-Decoup3*%
X60084960Y14543439D03*
X60763782Y15222261D03*
%TD*%
D40*
%TO.C,R_Flash1*%
X68100486Y26726163D03*
X68821734Y27447411D03*
%TD*%
D29*
%TO.C,D13*%
X130430951Y62250264D03*
X128530951Y62250264D03*
X129480951Y64125264D03*
%TD*%
D30*
%TO.C,C_Crystal2*%
X56439516Y892971D03*
X55479516Y892971D03*
%TD*%
D41*
%TO.C,D21*%
X85427559Y73134564D03*
X85427559Y75234564D03*
%TD*%
D20*
%TO.C,R_Flash2*%
X72565341Y27447411D03*
X73286589Y26726163D03*
%TD*%
D29*
%TO.C,D4*%
X20000048Y7396896D03*
X18100048Y7396896D03*
X19050048Y9271896D03*
%TD*%
%TO.C,D10*%
X97093367Y43200216D03*
X95193367Y43200216D03*
X96143367Y45075216D03*
%TD*%
%TO.C,D19*%
X163768535Y24150168D03*
X161868535Y24150168D03*
X162818535Y26025168D03*
%TD*%
D30*
%TO.C,C_1V-Decoup2*%
X60904371Y18454734D03*
X59944371Y18454734D03*
%TD*%
D42*
%TO.C,R_Crystal1*%
X56640144Y5357827D03*
X57660144Y5357827D03*
%TD*%
D39*
%TO.C,SW1*%
X26020386Y23103188D03*
X32320386Y23103188D03*
X26020386Y26903188D03*
X32320386Y26903188D03*
%TD*%
D43*
%TO.C,U2*%
X75037680Y24824589D03*
X75037680Y23554589D03*
X75037680Y22284589D03*
X75037680Y21014589D03*
X67837680Y21014589D03*
X67837680Y22284589D03*
X67837680Y23554589D03*
X67837680Y24824589D03*
%TD*%
D44*
%TO.C,C_1V-Decoup3*%
X54810642Y5697237D03*
X54131820Y5018415D03*
%TD*%
D21*
%TO.C,R3*%
X97000240Y68349854D03*
X97000240Y67329854D03*
%TD*%
D34*
%TO.C,C_Crystal1*%
X57860772Y892971D03*
X58820772Y892971D03*
%TD*%
D29*
%TO.C,D9*%
X103225024Y72881436D03*
X101325024Y72881436D03*
X102275024Y74756436D03*
%TD*%
D22*
%TO.C,C_3V-Decoup2*%
X56852487Y17817666D03*
X57531309Y18496488D03*
%TD*%
D45*
%TO.C,Y1*%
X56050144Y4008913D03*
X58250144Y4008913D03*
X58250144Y2308913D03*
X56050144Y2308913D03*
%TD*%
D30*
%TO.C,C_3V-Decoup7*%
X56737173Y12799251D03*
X55777173Y12799251D03*
%TD*%
D29*
%TO.C,D16*%
X120905771Y5100168D03*
X119005771Y5100168D03*
X119955771Y6975168D03*
%TD*%
%TO.C,D2*%
X18511919Y43200216D03*
X16611919Y43200216D03*
X17561919Y45075216D03*
%TD*%
%TO.C,D7*%
X49468247Y24150168D03*
X47568247Y24150168D03*
X48518247Y26025168D03*
%TD*%
D46*
%TO.C,FB1*%
X83641617Y73699564D03*
X83641617Y74669564D03*
%TD*%
D22*
%TO.C,C_3V-Decoup1*%
X55917762Y18710637D03*
X56596584Y19389459D03*
%TD*%
D47*
%TO.C,FB2*%
X93464298Y58638429D03*
X92494298Y58638429D03*
%TD*%
D29*
%TO.C,D12*%
X82805675Y5100168D03*
X80905675Y5100168D03*
X81855675Y6975168D03*
%TD*%
M02*
