%TF.GenerationSoftware,KiCad,Pcbnew,7.0.6*%
%TF.CreationDate,2023-08-01T10:10:22-04:00*%
%TF.ProjectId,good-delivery,676f6f64-2d64-4656-9c69-766572792e6b,rev?*%
%TF.SameCoordinates,PX2d6b3a0PY7e9ae4e*%
%TF.FileFunction,Profile,NP*%
%FSLAX46Y46*%
G04 Gerber Fmt 4.6, Leading zero omitted, Abs format (unit mm)*
G04 Created by KiCad (PCBNEW 7.0.6) date 2023-08-01 10:10:22*
%MOMM*%
%LPD*%
G01*
G04 APERTURE LIST*
%TA.AperFunction,Profile*%
%ADD10C,0.100000*%
%TD*%
G04 APERTURE END LIST*
D10*
X-80Y2976788D02*
X-80Y73223722D01*
X176194880Y76200287D02*
X187523515Y76200287D01*
X176194880Y76200222D02*
G75*
G03*
X174614880Y74620022I100J-1580100D01*
G01*
X187523910Y-78D02*
G75*
G03*
X190500480Y2976570I-30J2976600D01*
G01*
X190500080Y73223722D02*
X190500080Y2976788D01*
X23794880Y76200222D02*
G75*
G03*
X22214880Y74620022I100J-1580100D01*
G01*
X23794880Y0D02*
X166694879Y0D01*
X174614880Y1575022D02*
G75*
G03*
X168274880Y1575022I-3170000J0D01*
G01*
X176194880Y0D02*
X187523910Y0D01*
X2976570Y76200202D02*
G75*
G03*
X0Y73223622I10J-2976580D01*
G01*
X168274880Y74620022D02*
G75*
G03*
X174614880Y74620022I3170000J0D01*
G01*
X174614859Y1575022D02*
G75*
G03*
X176194880Y1I1577521J2500D01*
G01*
X23794880Y76200192D02*
X166694880Y76200192D01*
X190500450Y73223622D02*
G75*
G03*
X187523910Y76200192I-2976570J0D01*
G01*
X168274850Y74620022D02*
G75*
G03*
X166694880Y76200192I-1580070J100D01*
G01*
X58Y2976570D02*
G75*
G03*
X2976570Y0I2976522J-48D01*
G01*
X14287432Y223D02*
X2976485Y223D01*
X22214859Y1575022D02*
G75*
G03*
X23794880Y1I1577521J2500D01*
G01*
X15874880Y74620022D02*
G75*
G03*
X22214880Y74620022I3170000J0D01*
G01*
X15874850Y74620022D02*
G75*
G03*
X14294880Y76200192I-1580070J100D01*
G01*
X166694879Y23D02*
G75*
G03*
X168274879Y1575022I2501J1577499D01*
G01*
X22214880Y1575022D02*
G75*
G03*
X15874880Y1575022I-3170000J0D01*
G01*
X14294880Y23D02*
G75*
G03*
X15874879Y1575022I2500J1577499D01*
G01*
X2976485Y76200287D02*
X14287432Y76200287D01*
M02*
