  0
SECTION
  2
HEADER
  9
$ACADVER
  1
AC1032
  9
$ACADMAINTVER
 90
      228
  9
$DWGCODEPAGE
  3
ANSI_1252
  9
$REQUIREDVERSIONS
160
                 0
  9
$INSBASE
 10
0.0
 20
0.0
 30
0.0
  9
$EXTMIN
 10
1.000000000000000E+20
 20
1.000000000000000E+20
 30
1.000000000000000E+20
  9
$EXTMAX
 10
-1.000000000000000E+20
 20
-1.000000000000000E+20
 30
-1.000000000000000E+20
  9
$LIMMIN
 10
0.0
 20
0.0
  9
$LIMMAX
 10
12.0
 20
9.0
  9
$ORTHOMODE
 70
     0
  9
$REGENMODE
 70
     1
  9
$FILLMODE
 70
     1
  9
$QTEXTMODE
 70
     0
  9
$MIRRTEXT
 70
     0
  9
$LTSCALE
 40
1.0
  9
$ATTMODE
 70
     1
  9
$TEXTSIZE
 40
0.2
  9
$TRACEWID
 40
0.05
  9
$TEXTSTYLE
  7
Standard
  9
$CLAYER
  8
0
  9
$CELTYPE
  6
ByLayer
  9
$CECOLOR
 62
   256
  9
$CELTSCALE
 40
1.0
  9
$DISPSILH
 70
     0
  9
$DIMSCALE
 40
1.0
  9
$DIMASZ
 40
0.18
  9
$DIMEXO
 40
0.0625
  9
$DIMDLI
 40
0.38
  9
$DIMRND
 40
0.0
  9
$DIMDLE
 40
0.0
  9
$DIMEXE
 40
0.18
  9
$DIMTP
 40
0.0
  9
$DIMTM
 40
0.0
  9
$DIMTXT
 40
0.18
  9
$DIMCEN
 40
0.09
  9
$DIMTSZ
 40
0.0
  9
$DIMTOL
 70
     0
  9
$DIMLIM
 70
     0
  9
$DIMTIH
 70
     1
  9
$DIMTOH
 70
     1
  9
$DIMSE1
 70
     0
  9
$DIMSE2
 70
     0
  9
$DIMTAD
 70
     0
  9
$DIMZIN
 70
     0
  9
$DIMBLK
  1

  9
$DIMASO
 70
     1
  9
$DIMSHO
 70
     1
  9
$DIMPOST
  1

  9
$DIMAPOST
  1

  9
$DIMALT
 70
     0
  9
$DIMALTD
 70
     2
  9
$DIMALTF
 40
25.4
  9
$DIMLFAC
 40
1.0
  9
$DIMTOFL
 70
     0
  9
$DIMTVP
 40
0.0
  9
$DIMTIX
 70
     0
  9
$DIMSOXD
 70
     0
  9
$DIMSAH
 70
     0
  9
$DIMBLK1
  1

  9
$DIMBLK2
  1

  9
$DIMSTYLE
  2
Standard
  9
$DIMCLRD
 70
     0
  9
$DIMCLRE
 70
     0
  9
$DIMCLRT
 70
     0
  9
$DIMTFAC
 40
1.0
  9
$DIMGAP
 40
0.09
  9
$DIMJUST
 70
     0
  9
$DIMSD1
 70
     0
  9
$DIMSD2
 70
     0
  9
$DIMTOLJ
 70
     1
  9
$DIMTZIN
 70
     0
  9
$DIMALTZ
 70
     0
  9
$DIMALTTZ
 70
     0
  9
$DIMUPT
 70
     0
  9
$DIMDEC
 70
     4
  9
$DIMTDEC
 70
     4
  9
$DIMALTU
 70
     2
  9
$DIMALTTD
 70
     2
  9
$DIMTXSTY
  7
Standard
  9
$DIMAUNIT
 70
     0
  9
$DIMADEC
 70
     0
  9
$DIMALTRND
 40
0.0
  9
$DIMAZIN
 70
     0
  9
$DIMDSEP
 70
    46
  9
$DIMATFIT
 70
     3
  9
$DIMFRAC
 70
     0
  9
$DIMLDRBLK
  1

  9
$DIMLUNIT
 70
     2
  9
$DIMLWD
 70
    -2
  9
$DIMLWE
 70
    -2
  9
$DIMTMOVE
 70
     0
  9
$DIMFXL
 40
1.0
  9
$DIMFXLON
 70
     0
  9
$DIMJOGANG
 40
0.7853981633974483
  9
$DIMTFILL
 70
     0
  9
$DIMTFILLCLR
 70
     0
  9
$DIMARCSYM
 70
     0
  9
$DIMLTYPE
  6

  9
$DIMLTEX1
  6

  9
$DIMLTEX2
  6

  9
$DIMTXTDIRECTION
 70
     0
  9
$LUNITS
 70
     2
  9
$LUPREC
 70
     4
  9
$SKETCHINC
 40
0.1
  9
$FILLETRAD
 40
0.0
  9
$AUNITS
 70
     0
  9
$AUPREC
 70
     0
  9
$MENU
  1
.
  9
$ELEVATION
 40
0.0
  9
$PELEVATION
 40
0.0
  9
$THICKNESS
 40
0.0
  9
$LIMCHECK
 70
     0
  9
$CHAMFERA
 40
0.0
  9
$CHAMFERB
 40
0.0
  9
$CHAMFERC
 40
0.0
  9
$CHAMFERD
 40
0.0
  9
$SKPOLY
 70
     0
  9
$TDCREATE
 40
2460247.005763889
  9
$TDUCREATE
 40
2460247.172430555
  9
$TDUPDATE
 40
2460247.005763889
  9
$TDUUPDATE
 40
2460247.172430555
  9
$TDINDWG
 40
0.0000000000
  9
$TDUSRTIMER
 40
0.0000000000
  9
$USRTIMER
 70
     1
  9
$ANGBASE
 50
0.0
  9
$ANGDIR
 70
     0
  9
$PDMODE
 70
     0
  9
$PDSIZE
 40
0.0
  9
$PLINEWID
 40
0.0
  9
$SPLFRAME
 70
     0
  9
$SPLINETYPE
 70
     6
  9
$SPLINESEGS
 70
     8
  9
$HANDSEED
  5
9D
  9
$SURFTAB1
 70
     6
  9
$SURFTAB2
 70
     6
  9
$SURFTYPE
 70
     6
  9
$SURFU
 70
     6
  9
$SURFV
 70
     6
  9
$UCSBASE
  2

  9
$UCSNAME
  2

  9
$UCSORG
 10
0.0
 20
0.0
 30
0.0
  9
$UCSXDIR
 10
1.0
 20
0.0
 30
0.0
  9
$UCSYDIR
 10
0.0
 20
1.0
 30
0.0
  9
$UCSORTHOREF
  2

  9
$UCSORTHOVIEW
 70
     0
  9
$UCSORGTOP
 10
0.0
 20
0.0
 30
0.0
  9
$UCSORGBOTTOM
 10
0.0
 20
0.0
 30
0.0
  9
$UCSORGLEFT
 10
0.0
 20
0.0
 30
0.0
  9
$UCSORGRIGHT
 10
0.0
 20
0.0
 30
0.0
  9
$UCSORGFRONT
 10
0.0
 20
0.0
 30
0.0
  9
$UCSORGBACK
 10
0.0
 20
0.0
 30
0.0
  9
$PUCSBASE
  2

  9
$PUCSNAME
  2

  9
$PUCSORG
 10
0.0
 20
0.0
 30
0.0
  9
$PUCSXDIR
 10
1.0
 20
0.0
 30
0.0
  9
$PUCSYDIR
 10
0.0
 20
1.0
 30
0.0
  9
$PUCSORTHOREF
  2

  9
$PUCSORTHOVIEW
 70
     0
  9
$PUCSORGTOP
 10
0.0
 20
0.0
 30
0.0
  9
$PUCSORGBOTTOM
 10
0.0
 20
0.0
 30
0.0
  9
$PUCSORGLEFT
 10
0.0
 20
0.0
 30
0.0
  9
$PUCSORGRIGHT
 10
0.0
 20
0.0
 30
0.0
  9
$PUCSORGFRONT
 10
0.0
 20
0.0
 30
0.0
  9
$PUCSORGBACK
 10
0.0
 20
0.0
 30
0.0
  9
$USERI1
 70
     0
  9
$USERI2
 70
     0
  9
$USERI3
 70
     0
  9
$USERI4
 70
     0
  9
$USERI5
 70
     0
  9
$USERR1
 40
0.0
  9
$USERR2
 40
0.0
  9
$USERR3
 40
0.0
  9
$USERR4
 40
0.0
  9
$USERR5
 40
0.0
  9
$WORLDVIEW
 70
     1
  9
$SHADEDGE
 70
     3
  9
$SHADEDIF
 70
    70
  9
$TILEMODE
 70
     1
  9
$MAXACTVP
 70
    64
  9
$PINSBASE
 10
0.0
 20
0.0
 30
0.0
  9
$PLIMCHECK
 70
     0
  9
$PEXTMIN
 10
1.000000000000000E+20
 20
1.000000000000000E+20
 30
1.000000000000000E+20
  9
$PEXTMAX
 10
-1.000000000000000E+20
 20
-1.000000000000000E+20
 30
-1.000000000000000E+20
  9
$PLIMMIN
 10
0.0
 20
0.0
  9
$PLIMMAX
 10
12.0
 20
9.0
  9
$UNITMODE
 70
     0
  9
$VISRETAIN
 70
     1
  9
$PLINEGEN
 70
     0
  9
$PSLTSCALE
 70
     1
  9
$TREEDEPTH
 70
  3020
  9
$CMLSTYLE
  2
Standard
  9
$CMLJUST
 70
     0
  9
$CMLSCALE
 40
1.0
  9
$PROXYGRAPHICS
 70
     1
  9
$MEASUREMENT
 70
     0
  9
$CELWEIGHT
370
    -1
  9
$ENDCAPS
280
     0
  9
$JOINSTYLE
280
     0
  9
$LWDISPLAY
290
     1
  9
$INSUNITS
 70
     4
  9
$HYPERLINKBASE
  1

  9
$STYLESHEET
  1

  9
$XEDIT
290
     1
  9
$CEPSNTYPE
380
     0
  9
$PSTYLEMODE
290
     1
  9
$FINGERPRINTGUID
  2
{C0AC7EC5-D0CC-7943-864C-5105164D9A23}
  9
$VERSIONGUID
  2
{CE79BE44-08B2-3647-9AF3-9C5CC4E8F9B8}
  9
$EXTNAMES
290
     1
  9
$PSVPSCALE
 40
0.0
  9
$OLESTARTUP
290
     0
  9
$SORTENTS
280
   127
  9
$INDEXCTL
280
     0
  9
$HIDETEXT
280
     1
  9
$XCLIPFRAME
280
     2
  9
$HALOGAP
280
     0
  9
$OBSCOLOR
 70
   257
  9
$OBSLTYPE
280
     0
  9
$INTERSECTIONDISPLAY
280
     0
  9
$INTERSECTIONCOLOR
 70
   257
  9
$DIMASSOC
280
     2
  9
$PROJECTNAME
  1

  9
$CAMERADISPLAY
290
     0
  9
$LENSLENGTH
 40
50.0
  9
$CAMERAHEIGHT
 40
0.0
  9
$STEPSPERSEC
 40
2.0
  9
$STEPSIZE
 40
6.0
  9
$3DDWFPREC
 40
2.0
  9
$PSOLWIDTH
 40
0.25
  9
$PSOLHEIGHT
 40
4.0
  9
$LOFTANG1
 40
1.570796326794896
  9
$LOFTANG2
 40
1.570796326794896
  9
$LOFTMAG1
 40
0.0
  9
$LOFTMAG2
 40
0.0
  9
$LOFTPARAM
 70
     7
  9
$LOFTNORMALS
280
     1
  9
$LATITUDE
 40
37.795
  9
$LONGITUDE
 40
-122.394
  9
$NORTHDIRECTION
 40
0.0
  9
$TIMEZONE
 70
 -8000
  9
$LIGHTGLYPHDISPLAY
280
     1
  9
$TILEMODELIGHTSYNCH
280
     1
  9
$CMATERIAL
347
11
  9
$SOLIDHIST
280
     0
  9
$SHOWHIST
280
     1
  9
$DWFFRAME
280
     2
  9
$DGNFRAME
280
     0
  9
$REALWORLDSCALE
290
     1
  9
$INTERFERECOLOR
 62
     1
  9
$INTERFEREOBJVS
345
33
  9
$INTERFEREVPVS
346
30
  9
$CSHADOW
280
     0
  9
$SHADOWPLANELOCATION
 40
0.0
  0
ENDSEC
  0
SECTION
  2
CLASSES
  0
CLASS
  1
ACDBDICTIONARYWDFLT
  2
AcDbDictionaryWithDefault
  3
ObjectDBX Classes
 90
        0
 91
        1
280
     0
281
     0
  0
CLASS
  1
MATERIAL
  2
AcDbMaterial
  3
ObjectDBX Classes
 90
     1153
 91
        3
280
     0
281
     0
  0
CLASS
  1
VISUALSTYLE
  2
AcDbVisualStyle
  3
ObjectDBX Classes
 90
     4095
 91
       24
280
     0
281
     0
  0
CLASS
  1
SCALE
  2
AcDbScale
  3
ObjectDBX Classes
 90
     1153
 91
       17
280
     0
281
     0
  0
CLASS
  1
TABLESTYLE
  2
AcDbTableStyle
  3
ObjectDBX Classes
 90
     4095
 91
        1
280
     0
281
     0
  0
CLASS
  1
MLEADERSTYLE
  2
AcDbMLeaderStyle
  3
ACDB_MLEADERSTYLE_CLASS
 90
     4095
 91
        1
280
     0
281
     0
  0
CLASS
  1
ACDBSECTIONVIEWSTYLE
  2
AcDbSectionViewStyle
  3
ObjectDBX Classes
 90
     1025
 91
        1
280
     0
281
     0
  0
CLASS
  1
ACDBDETAILVIEWSTYLE
  2
AcDbDetailViewStyle
  3
ObjectDBX Classes
 90
     1025
 91
        1
280
     0
281
     0
  0
CLASS
  1
DICTIONARYVAR
  2
AcDbDictionaryVar
  3
ObjectDBX Classes
 90
        0
 91
        5
280
     0
281
     0
  0
CLASS
  1
CELLSTYLEMAP
  2
AcDbCellStyleMap
  3
ObjectDBX Classes
 90
     1152
 91
        1
280
     0
281
     0
  0
ENDSEC
  0
SECTION
  2
TABLES
  0
TABLE
  2
VPORT
  5
8
330
0
100
AcDbSymbolTable
 70
     1
  0
VPORT
  5
57
330
8
100
AcDbSymbolTableRecord
100
AcDbViewportTableRecord
  2
*Active
 70
     0
 10
0.0
 20
0.0
 11
1.0
 21
1.0
 12
0.0
 22
0.0
 13
0.0
 23
0.0
 14
1.0
 24
1.0
 15
0.0
 25
0.0
 16
0.0
 26
0.0
 36
1.0
 17
107.9499962225747
 27
134.6676129599641
 37
0.0
 40
77.97900172850714
 41
2.495094777917277
 42
50.0
 43
0.0
 44
0.0
 50
0.0
 51
0.0
 71
     0
 72
   100
 73
     1
 74
     1
 75
     0
 76
     0
 77
     0
 78
     0
281
     0
 65
     1
110
0.0
120
0.0
130
0.0
111
1.0
121
0.0
131
0.0
112
0.0
122
1.0
132
0.0
 79
     0
146
0.0
 60
     3
 61
     5
292
     1
282
     1
141
0.0
142
0.0
 63
   250
421
  3355443
  0
ENDTAB
  0
TABLE
  2
LTYPE
  5
5
330
0
100
AcDbSymbolTable
 70
     1
  0
LTYPE
  5
5B
330
5
100
AcDbSymbolTableRecord
100
AcDbLinetypeTableRecord
  2
ByBlock
 70
     0
  3

 72
    65
 73
     0
 40
0.0
  0
LTYPE
  5
5C
330
5
100
AcDbSymbolTableRecord
100
AcDbLinetypeTableRecord
  2
ByLayer
 70
     0
  3

 72
    65
 73
     0
 40
0.0
  0
LTYPE
  5
5D
330
5
100
AcDbSymbolTableRecord
100
AcDbLinetypeTableRecord
  2
Continuous
 70
     0
  3
Solid line
 72
    65
 73
     0
 40
0.0
  0
ENDTAB
  0
TABLE
  2
LAYER
  5
2
330
0
100
AcDbSymbolTable
 70
     2
  0
LAYER
  5
54
330
2
100
AcDbSymbolTableRecord
100
AcDbLayerTableRecord
  2
0
 70
     0
 62
     7
  6
Continuous
370
    -3
390
F
347
21
348
0
  0
LAYER
  5
78
330
2
100
AcDbSymbolTableRecord
100
AcDbLayerTableRecord
  2
Layer_0
 70
     0
 62
     7
  6
Continuous
370
     0
390
F
347
21
348
0
  0
ENDTAB
  0
TABLE
  2
STYLE
  5
3
330
0
100
AcDbSymbolTable
 70
     2
  0
STYLE
  5
55
330
3
100
AcDbSymbolTableRecord
100
AcDbTextStyleTableRecord
  2
Standard
 70
     0
 40
0.0
 41
1.0
 50
0.0
 71
     0
 42
0.2
  3
txt
  4

  0
STYLE
  5
5A
330
3
100
AcDbSymbolTableRecord
100
AcDbTextStyleTableRecord
  2
Annotative
 70
     0
 40
0.0
 41
1.0
 50
0.0
 71
     0
 42
0.2
  3
txt
  4

1001
AcadAnnotative
1000
AnnotativeData
1002
{
1070
     1
1070
     1
1002
}
  0
ENDTAB
  0
TABLE
  2
VIEW
  5
6
330
0
100
AcDbSymbolTable
 70
     0
  0
ENDTAB
  0
TABLE
  2
UCS
  5
7
330
0
100
AcDbSymbolTable
 70
     0
  0
ENDTAB
  0
TABLE
  2
APPID
  5
9
330
0
100
AcDbSymbolTable
 70
     2
  0
APPID
  5
56
330
9
100
AcDbSymbolTableRecord
100
AcDbRegAppTableRecord
  2
ACAD
 70
     0
  0
APPID
  5
5E
330
9
100
AcDbSymbolTableRecord
100
AcDbRegAppTableRecord
  2
AcadAnnotative
 70
     0
  0
ENDTAB
  0
TABLE
  2
DIMSTYLE
  5
A
330
0
100
AcDbSymbolTable
 70
     2
100
AcDbDimStyleTable
 71
     0
  0
DIMSTYLE
105
58
330
A
100
AcDbSymbolTableRecord
100
AcDbDimStyleTableRecord
  2
Standard
 70
     0
340
55
  0
DIMSTYLE
105
59
330
A
100
AcDbSymbolTableRecord
100
AcDbDimStyleTableRecord
  2
Annotative
 70
     0
340
55
1001
AcadAnnotative
1000
AnnotativeData
1002
{
1070
     1
1070
     1
1002
}
  0
ENDTAB
  0
TABLE
  2
BLOCK_RECORD
  5
1
330
0
100
AcDbSymbolTable
 70
     1
  0
BLOCK_RECORD
  5
70
330
1
100
AcDbSymbolTableRecord
100
AcDbBlockTableRecord
  2
*Model_Space
340
73
 70
     0
280
     1
281
     0
  0
BLOCK_RECORD
  5
6C
330
1
100
AcDbSymbolTableRecord
100
AcDbBlockTableRecord
  2
*Paper_Space
340
6F
 70
     0
280
     1
281
     0
  0
BLOCK_RECORD
  5
74
330
1
100
AcDbSymbolTableRecord
100
AcDbBlockTableRecord
  2
*Paper_Space0
340
77
 70
     0
280
     1
281
     0
  0
ENDTAB
  0
ENDSEC
  0
SECTION
  2
BLOCKS
  0
BLOCK
  5
71
330
70
100
AcDbEntity
  8
0
100
AcDbBlockBegin
  2
*Model_Space
 70
     0
 10
0.0
 20
0.0
 30
0.0
  3
*Model_Space
  1

  0
ENDBLK
  5
72
330
70
100
AcDbEntity
  8
0
100
AcDbBlockEnd
  0
BLOCK
  5
6D
330
6C
100
AcDbEntity
 67
     1
  8
0
100
AcDbBlockBegin
  2
*Paper_Space
 70
     0
 10
0.0
 20
0.0
 30
0.0
  3
*Paper_Space
  1

  0
ENDBLK
  5
6E
330
6C
100
AcDbEntity
 67
     1
  8
0
100
AcDbBlockEnd
  0
BLOCK
  5
75
330
74
100
AcDbEntity
 67
     1
  8
0
100
AcDbBlockBegin
  2
*Paper_Space0
 70
     0
 10
0.0
 20
0.0
 30
0.0
  3
*Paper_Space0
  1

  0
ENDBLK
  5
76
330
74
100
AcDbEntity
 67
     1
  8
0
100
AcDbBlockEnd
  0
ENDSEC
  0
SECTION
  2
ENTITIES
  0
SPLINE
  5
79
330
70
100
AcDbEntity
  8
Layer_0
 62
    18
420
        0
370
    25
100
AcDbSpline
210
0.0
220
0.0
230
1.0
 70
     9
 71
     3
 72
    29
 73
    25
 74
     0
 42
0.0000000001
 43
0.0000000001
 40
0.0
 40
0.0
 40
0.0
 40
0.0
 40
1.0
 40
1.0
 40
1.0
 40
2.0
 40
2.0
 40
2.0
 40
3.0
 40
3.0
 40
3.0
 40
4.0
 40
4.0
 40
4.0
 40
5.0
 40
5.0
 40
5.0
 40
6.0
 40
6.0
 40
6.0
 40
7.0
 40
7.0
 40
7.0
 40
8.0
 40
8.0
 40
8.0
 40
8.0
 10
200.1749887027747
 20
137.1926204617137
 30
0.0
 10
200.1749887027747
 20
137.1926204617137
 30
0.0
 10
34.77498874412514
 20
137.1926204617137
 30
0.0
 10
34.77498874412514
 20
137.1926204617137
 30
0.0
 10
34.49884636927865
 20
137.1926204617137
 30
0.0
 10
34.27498874424993
 20
137.4164780867424
 30
0.0
 10
34.27498874424993
 20
137.6926204615889
 30
0.0
 10
34.27498874424993
 20
137.6926204615889
 30
0.0
 10
34.27498874424993
 20
150.6926204583388
 30
0.0
 10
34.27498874424993
 20
150.6926204583388
 30
0.0
 10
34.27498874424993
 20
150.968762833185
 30
0.0
 10
34.49884636927865
 20
151.1926204582137
 30
0.0
 10
34.77498874412514
 20
151.1926204582137
 30
0.0
 10
34.77498874412514
 20
151.1926204582137
 30
0.0
 10
200.1749887027747
 20
151.1926204582137
 30
0.0
 10
200.1749887027747
 20
151.1926204582137
 30
0.0
 10
200.4511310776213
 20
151.1926204582137
 30
0.0
 10
200.6749887026499
 20
150.968762833185
 30
0.0
 10
200.6749887026499
 20
150.6926204583388
 30
0.0
 10
200.6749887026499
 20
150.6926204583388
 30
0.0
 10
200.6749887026499
 20
137.6926204615889
 30
0.0
 10
200.6749887026499
 20
137.6926204615889
 30
0.0
 10
200.6749887026499
 20
137.4164780867424
 30
0.0
 10
200.4511310776213
 20
137.1926204617137
 30
0.0
 10
200.1749887027747
 20
137.1926204617137
 30
0.0
  0
SPLINE
  5
7A
330
70
100
AcDbEntity
  8
Layer_0
 62
    18
420
        0
370
    25
100
AcDbSpline
210
0.0
220
0.0
230
1.0
 70
     9
 71
     3
 72
    29
 73
    25
 74
     0
 42
0.0000000001
 43
0.0000000001
 40
0.0
 40
0.0
 40
0.0
 40
0.0
 40
1.0
 40
1.0
 40
1.0
 40
2.0
 40
2.0
 40
2.0
 40
3.0
 40
3.0
 40
3.0
 40
4.0
 40
4.0
 40
4.0
 40
5.0
 40
5.0
 40
5.0
 40
6.0
 40
6.0
 40
6.0
 40
7.0
 40
7.0
 40
7.0
 40
8.0
 40
8.0
 40
8.0
 40
8.0
 10
176.3624962054404
 20
118.1426129641263
 30
0.0
 10
176.3624962054404
 20
118.1426129641263
 30
0.0
 10
44.29949623845689
 20
118.1426129641263
 30
0.0
 10
44.29949623845689
 20
118.1426129641263
 30
0.0
 10
44.02335386361039
 20
118.1426129641263
 30
0.0
 10
43.79949623858169
 20
118.366470589155
 30
0.0
 10
43.79949623858169
 20
118.6426129640022
 30
0.0
 10
43.79949623858169
 20
118.6426129640022
 30
0.0
 10
43.79949623858169
 20
131.6426129607524
 30
0.0
 10
43.79949623858169
 20
131.6426129607524
 30
0.0
 10
43.79949623858169
 20
131.9187553355982
 30
0.0
 10
44.02335386361039
 20
132.142612960627
 30
0.0
 10
44.29949623845689
 20
132.142612960627
 30
0.0
 10
44.29949623845689
 20
132.142612960627
 30
0.0
 10
176.3624962054404
 20
132.142612960627
 30
0.0
 10
176.3624962054404
 20
132.142612960627
 30
0.0
 10
176.6386385802863
 20
132.142612960627
 30
0.0
 10
176.862496205315
 20
131.9187553355982
 30
0.0
 10
176.862496205315
 20
131.6426129607524
 30
0.0
 10
176.862496205315
 20
131.6426129607524
 30
0.0
 10
176.862496205315
 20
118.6426129640022
 30
0.0
 10
176.862496205315
 20
118.6426129640022
 30
0.0
 10
176.862496205315
 20
118.366470589155
 30
0.0
 10
176.6386385802863
 20
118.1426129641263
 30
0.0
 10
176.3624962054404
 20
118.1426129641263
 30
0.0
  0
SPLINE
  5
7B
330
70
100
AcDbEntity
  8
Layer_0
 62
    18
420
        0
370
    25
100
AcDbSpline
210
0.0
220
0.0
230
1.0
 70
     9
 71
     3
 72
    29
 73
    25
 74
     0
 42
0.0000000001
 43
0.0000000001
 40
0.0
 40
0.0
 40
0.0
 40
0.0
 40
1.0
 40
1.0
 40
1.0
 40
2.0
 40
2.0
 40
2.0
 40
3.0
 40
3.0
 40
3.0
 40
4.0
 40
4.0
 40
4.0
 40
5.0
 40
5.0
 40
5.0
 40
6.0
 40
6.0
 40
6.0
 40
7.0
 40
7.0
 40
7.0
 40
8.0
 40
8.0
 40
8.0
 40
8.0
 10
31.10599871947984
 20
137.1926204617137
 30
0.0
 10
31.10599871947984
 20
137.1926204617137
 30
0.0
 10
15.72499872332532
 20
137.1926204617137
 30
0.0
 10
15.72499872332532
 20
137.1926204617137
 30
0.0
 10
15.44885634847882
 20
137.1926204617137
 30
0.0
 10
15.22499872345011
 20
137.4164780867424
 30
0.0
 10
15.22499872345011
 20
137.6926204615889
 30
0.0
 10
15.22499872345011
 20
137.6926204615889
 30
0.0
 10
15.22499872345011
 20
150.6926204583388
 30
0.0
 10
15.22499872345011
 20
150.6926204583388
 30
0.0
 10
15.22499872345011
 20
150.968762833185
 30
0.0
 10
15.44885634847882
 20
151.1926204582137
 30
0.0
 10
15.72499872332532
 20
151.1926204582137
 30
0.0
 10
15.72499872332532
 20
151.1926204582137
 30
0.0
 10
31.10599871947984
 20
151.1926204582137
 30
0.0
 10
31.10599871947984
 20
151.1926204582137
 30
0.0
 10
31.38214109432634
 20
151.1926204582137
 30
0.0
 10
31.60599871935505
 20
150.968762833185
 30
0.0
 10
31.60599871935505
 20
150.6926204583388
 30
0.0
 10
31.60599871935505
 20
150.6926204583388
 30
0.0
 10
31.60599871935505
 20
137.6926204615889
 30
0.0
 10
31.60599871935505
 20
137.6926204615889
 30
0.0
 10
31.60599871935505
 20
137.4164780867424
 30
0.0
 10
31.38214109432634
 20
137.1926204617137
 30
0.0
 10
31.10599871947984
 20
137.1926204617137
 30
0.0
  0
SPLINE
  5
7C
330
70
100
AcDbEntity
  8
Layer_0
 62
    18
420
        0
370
    25
100
AcDbSpline
210
0.0
220
0.0
230
1.0
 70
     9
 71
     3
 72
    29
 73
    25
 74
     0
 42
0.0000000001
 43
0.0000000001
 40
0.0
 40
0.0
 40
0.0
 40
0.0
 40
1.0
 40
1.0
 40
1.0
 40
2.0
 40
2.0
 40
2.0
 40
3.0
 40
3.0
 40
3.0
 40
4.0
 40
4.0
 40
4.0
 40
5.0
 40
5.0
 40
5.0
 40
6.0
 40
6.0
 40
6.0
 40
7.0
 40
7.0
 40
7.0
 40
8.0
 40
8.0
 40
8.0
 40
8.0
 10
35.8555742043373
 20
118.1426329617137
 30
0.0
 10
35.8555742043373
 20
118.1426329617137
 30
0.0
 10
20.47457420818246
 20
118.1426329617137
 30
0.0
 10
20.47457420818246
 20
118.1426329617137
 30
0.0
 10
20.19843183333597
 20
118.1426329617137
 30
0.0
 10
19.97457420830725
 20
118.3664905867424
 30
0.0
 10
19.97457420830725
 20
118.6426329615889
 30
0.0
 10
19.97457420830725
 20
118.6426329615889
 30
0.0
 10
19.97457420830725
 20
131.6426329583391
 30
0.0
 10
19.97457420830725
 20
131.6426329583391
 30
0.0
 10
19.97457420830725
 20
131.918775333185
 30
0.0
 10
20.19843183333597
 20
132.1426329582137
 30
0.0
 10
20.47457420818246
 20
132.1426329582137
 30
0.0
 10
20.47457420818246
 20
132.1426329582137
 30
0.0
 10
35.8555742043373
 20
132.1426329582137
 30
0.0
 10
35.8555742043373
 20
132.1426329582137
 30
0.0
 10
36.13171657918349
 20
132.1426329582137
 30
0.0
 10
36.35557420421219
 20
131.918775333185
 30
0.0
 10
36.35557420421219
 20
131.6426329583391
 30
0.0
 10
36.35557420421219
 20
131.6426329583391
 30
0.0
 10
36.35557420421219
 20
118.6426329615889
 30
0.0
 10
36.35557420421219
 20
118.6426329615889
 30
0.0
 10
36.35557420421219
 20
118.3664905867424
 30
0.0
 10
36.13171657918349
 20
118.1426329617137
 30
0.0
 10
35.8555742043373
 20
118.1426329617137
 30
0.0
  0
SPLINE
  5
7D
330
70
100
AcDbEntity
  8
Layer_0
 62
    18
420
        0
370
    25
100
AcDbSpline
210
0.0
220
0.0
230
1.0
 70
     9
 71
     3
 72
    29
 73
    25
 74
     0
 42
0.0000000001
 43
0.0000000001
 40
0.0
 40
0.0
 40
0.0
 40
0.0
 40
1.0
 40
1.0
 40
1.0
 40
2.0
 40
2.0
 40
2.0
 40
3.0
 40
3.0
 40
3.0
 40
4.0
 40
4.0
 40
4.0
 40
5.0
 40
5.0
 40
5.0
 40
6.0
 40
6.0
 40
6.0
 40
7.0
 40
7.0
 40
7.0
 40
8.0
 40
8.0
 40
8.0
 40
8.0
 10
197.7934774681666
 20
118.1426254599638
 30
0.0
 10
197.7934774681666
 20
118.1426254599638
 30
0.0
 10
182.4124774720127
 20
118.1426254599638
 30
0.0
 10
182.4124774720127
 20
118.1426254599638
 30
0.0
 10
182.1363350971656
 20
118.1426254599638
 30
0.0
 10
181.9124774721369
 20
118.3664830849925
 30
0.0
 10
181.9124774721369
 20
118.6426254598396
 30
0.0
 10
181.9124774721369
 20
118.6426254598396
 30
0.0
 10
181.9124774721369
 20
131.6426254565899
 30
0.0
 10
181.9124774721369
 20
131.6426254565899
 30
0.0
 10
181.9124774721369
 20
131.9187678314357
 30
0.0
 10
182.1363350971656
 20
132.1426254564644
 30
0.0
 10
182.4124774720127
 20
132.1426254564644
 30
0.0
 10
182.4124774720127
 20
132.1426254564644
 30
0.0
 10
197.7934774681666
 20
132.1426254564644
 30
0.0
 10
197.7934774681666
 20
132.1426254564644
 30
0.0
 10
198.0696198430137
 20
132.1426254564644
 30
0.0
 10
198.2934774680424
 20
131.9187678314357
 30
0.0
 10
198.2934774680424
 20
131.6426254565899
 30
0.0
 10
198.2934774680424
 20
131.6426254565899
 30
0.0
 10
198.2934774680424
 20
118.6426254598396
 30
0.0
 10
198.2934774680424
 20
118.6426254598396
 30
0.0
 10
198.2934774680424
 20
118.3664830849925
 30
0.0
 10
198.0696198430137
 20
118.1426254599638
 30
0.0
 10
197.7934774681666
 20
118.1426254599638
 30
0.0
  0
SPLINE
  5
7E
330
70
100
AcDbEntity
  8
Layer_0
 62
    18
420
        0
370
    25
100
AcDbSpline
210
0.0
220
0.0
230
1.0
 70
     9
 71
     3
 72
    65
 73
    61
 74
     0
 42
0.0000000001
 43
0.0000000001
 40
0.0
 40
0.0
 40
0.0
 40
0.0
 40
1.0
 40
1.0
 40
1.0
 40
2.0
 40
2.0
 40
2.0
 40
3.0
 40
3.0
 40
3.0
 40
4.0
 40
4.0
 40
4.0
 40
5.0
 40
5.0
 40
5.0
 40
6.0
 40
6.0
 40
6.0
 40
7.0
 40
7.0
 40
7.0
 40
8.0
 40
8.0
 40
8.0
 40
9.0
 40
9.0
 40
9.0
 40
10.0
 40
10.0
 40
10.0
 40
11.0
 40
11.0
 40
11.0
 40
12.0
 40
12.0
 40
12.0
 40
13.0
 40
13.0
 40
13.0
 40
14.0
 40
14.0
 40
14.0
 40
15.0
 40
15.0
 40
15.0
 40
16.0
 40
16.0
 40
16.0
 40
17.0
 40
17.0
 40
17.0
 40
18.0
 40
18.0
 40
18.0
 40
19.0
 40
19.0
 40
19.0
 40
20.0
 40
20.0
 40
20.0
 40
20.0
 10
118.0619987227
 20
100.0922265706092
 30
0.0
 10
118.3381410975458
 20
100.0922265706092
 30
0.0
 10
118.5619987225745
 20
100.316084195638
 30
0.0
 10
118.5619987225745
 20
100.5922265704844
 30
0.0
 10
118.5619987225745
 20
100.5922265704844
 30
0.0
 10
118.5619987225745
 20
114.5922265669838
 30
0.0
 10
118.5619987225745
 20
114.5922265669838
 30
0.0
 10
118.5619987225745
 20
114.8683689418303
 30
0.0
 10
118.3381410975458
 20
115.092226566859
 30
0.0
 10
118.0619987227
 20
115.092226566859
 30
0.0
 10
118.0619987227
 20
115.092226566859
 30
0.0
 10
112.0619987242
 20
115.092226566859
 30
0.0
 10
112.0619987242
 20
115.092226566859
 30
0.0
 10
111.7858563493542
 20
115.092226566859
 30
0.0
 10
111.5619987243255
 20
114.8683689418303
 30
0.0
 10
111.5619987243255
 20
114.5922265669838
 30
0.0
 10
111.5619987243255
 20
114.5922265669838
 30
0.0
 10
111.5619987243255
 20
113.0926325351785
 30
0.0
 10
111.5619987243255
 20
113.0926325351785
 30
0.0
 10
111.5619987243255
 20
113.0926325351785
 30
0.0
 10
104.3379987225532
 20
113.0926325351785
 30
0.0
 10
104.3379987225532
 20
113.0926325351785
 30
0.0
 10
104.3379987225532
 20
113.0926325351785
 30
0.0
 10
104.3379987225532
 20
114.5922265669838
 30
0.0
 10
104.3379987225532
 20
114.5922265669838
 30
0.0
 10
104.3379987225532
 20
114.8683689418303
 30
0.0
 10
104.1141410975244
 20
115.092226566859
 30
0.0
 10
103.837998722678
 20
115.092226566859
 30
0.0
 10
103.837998722678
 20
115.092226566859
 30
0.0
 10
97.83799872417807
 20
115.092226566859
 30
0.0
 10
97.83799872417807
 20
115.092226566859
 30
0.0
 10
97.5618563493322
 20
115.092226566859
 30
0.0
 10
97.33799872430349
 20
114.8683689418303
 30
0.0
 10
97.33799872430349
 20
114.5922265669838
 30
0.0
 10
97.33799872430349
 20
114.5922265669838
 30
0.0
 10
97.33799872430349
 20
100.5922265704844
 30
0.0
 10
97.33799872430349
 20
100.5922265704844
 30
0.0
 10
97.33799872430349
 20
100.316084195638
 30
0.0
 10
97.5618563493322
 20
100.0922265706092
 30
0.0
 10
97.83799872417807
 20
100.0922265706092
 30
0.0
 10
97.83799872417807
 20
100.0922265706092
 30
0.0
 10
100.9500037252004
 20
100.092228118515
 30
0.0
 10
100.9500037252004
 20
100.092228118515
 30
0.0
 10
100.9500037252004
 20
100.092228118515
 30
0.0
 10
100.9500037252004
 20
99.59263046158893
 30
0.0
 10
100.9500037252004
 20
99.59263046158893
 30
0.0
 10
100.9500037252004
 20
99.31648808674244
 30
0.0
 10
101.1738613502291
 20
99.09263046171373
 30
0.0
 10
101.450003725075
 20
99.09263046171373
 30
0.0
 10
101.450003725075
 20
99.09263046171373
 30
0.0
 10
114.4500037218252
 20
99.09263046171373
 30
0.0
 10
114.4500037218252
 20
99.09263046171373
 30
0.0
 10
114.7261460966717
 20
99.09263046171373
 30
0.0
 10
114.9500037217004
 20
99.31648808674244
 30
0.0
 10
114.9500037217004
 20
99.59263046158893
 30
0.0
 10
114.9500037217004
 20
99.59263046158893
 30
0.0
 10
114.9500037217004
 20
100.092228118515
 30
0.0
 10
114.9500037217004
 20
100.092228118515
 30
0.0
 10
114.9500037217004
 20
100.092228118515
 30
0.0
 10
118.0619987227
 20
100.0922265706092
 30
0.0
 10
118.0619987227
 20
100.0922265706092
 30
0.0
  0
SPLINE
  5
7F
330
70
100
AcDbEntity
  8
Layer_0
 62
    18
420
        0
370
    25
100
AcDbSpline
210
0.0
220
0.0
230
1.0
 70
    11
 71
     3
 72
   101
 73
    97
 74
     0
 42
0.0000000001
 43
0.0000000001
 40
0.0
 40
0.0
 40
0.0
 40
0.0
 40
1.0
 40
1.0
 40
1.0
 40
2.0
 40
2.0
 40
2.0
 40
3.0
 40
3.0
 40
3.0
 40
4.0
 40
4.0
 40
4.0
 40
5.0
 40
5.0
 40
5.0
 40
6.0
 40
6.0
 40
6.0
 40
7.0
 40
7.0
 40
7.0
 40
8.0
 40
8.0
 40
8.0
 40
9.0
 40
9.0
 40
9.0
 40
10.0
 40
10.0
 40
10.0
 40
11.0
 40
11.0
 40
11.0
 40
12.0
 40
12.0
 40
12.0
 40
13.0
 40
13.0
 40
13.0
 40
14.0
 40
14.0
 40
14.0
 40
15.0
 40
15.0
 40
15.0
 40
16.0
 40
16.0
 40
16.0
 40
17.0
 40
17.0
 40
17.0
 40
18.0
 40
18.0
 40
18.0
 40
19.0
 40
19.0
 40
19.0
 40
20.0
 40
20.0
 40
20.0
 40
21.0
 40
21.0
 40
21.0
 40
22.0
 40
22.0
 40
22.0
 40
23.0
 40
23.0
 40
23.0
 40
24.0
 40
24.0
 40
24.0
 40
25.0
 40
25.0
 40
25.0
 40
26.0
 40
26.0
 40
26.0
 40
27.0
 40
27.0
 40
27.0
 40
28.0
 40
28.0
 40
28.0
 40
29.0
 40
29.0
 40
29.0
 40
30.0
 40
30.0
 40
30.0
 40
31.0
 40
31.0
 40
31.0
 40
32.0
 40
32.0
 40
32.0
 40
32.0
 10
53.32500372519996
 20
100.0922203817217
 30
0.0
 10
53.32500372519996
 20
100.0922203817217
 30
0.0
 10
53.32500372519996
 20
99.59263046158893
 30
0.0
 10
53.32500372519996
 20
99.59263046158893
 30
0.0
 10
53.32500372519996
 20
99.31648808674244
 30
0.0
 10
53.54886135022868
 20
99.09263046171373
 30
0.0
 10
53.82500372507517
 20
99.09263046171373
 30
0.0
 10
53.82500372507517
 20
99.09263046171373
 30
0.0
 10
66.82500372182542
 20
99.09263046171373
 30
0.0
 10
66.82500372182542
 20
99.09263046171373
 30
0.0
 10
67.10114609667127
 20
99.09263046171373
 30
0.0
 10
67.32500372169998
 20
99.31648808674244
 30
0.0
 10
67.32500372169998
 20
99.59263046158893
 30
0.0
 10
67.32500372169998
 20
99.59263046158893
 30
0.0
 10
67.32500372169998
 20
112.5926304583392
 30
0.0
 10
67.32500372169998
 20
112.5926304583392
 30
0.0
 10
67.32500372169998
 20
112.868772833185
 30
0.0
 10
67.10114609667127
 20
113.0926304582137
 30
0.0
 10
66.82500372182542
 20
113.0926304582137
 30
0.0
 10
66.82500372182542
 20
113.0926304582137
 30
0.0
 10
63.82500372257482
 20
113.0926307752605
 30
0.0
 10
63.82500372257482
 20
113.0926307752605
 30
0.0
 10
63.82500372257482
 20
113.0926307752605
 30
0.0
 10
63.82500372257482
 20
114.5922215641871
 30
0.0
 10
63.82500372257482
 20
114.5922215641871
 30
0.0
 10
63.82500372257482
 20
114.8683639390336
 30
0.0
 10
63.60114609754578
 20
115.0922215640623
 30
0.0
 10
63.32500372270025
 20
115.0922215640623
 30
0.0
 10
63.32500372270025
 20
115.0922215640623
 30
0.0
 10
57.32500372420034
 20
115.0922215640623
 30
0.0
 10
57.32500372420034
 20
115.0922215640623
 30
0.0
 10
57.04886134935384
 20
115.0922215640623
 30
0.0
 10
56.82500372432513
 20
114.8683639390336
 30
0.0
 10
56.82500372432513
 20
114.5922215641871
 30
0.0
 10
56.82500372432513
 20
114.5922215641871
 30
0.0
 10
56.82500372432513
 20
113.0926307752605
 30
0.0
 10
56.82500372432513
 20
113.0926307752605
 30
0.0
 10
56.82500372432513
 20
113.0926307752605
 30
0.0
 10
54.29999872257517
 20
113.0926307752593
 30
0.0
 10
54.29999872257517
 20
113.0926307752593
 30
0.0
 10
54.29999872257517
 20
113.0926307752593
 30
0.0
 10
54.29999872257517
 20
114.5922215641864
 30
0.0
 10
54.29999872257517
 20
114.5922215641864
 30
0.0
 10
54.29999872257517
 20
114.8683639390329
 30
0.0
 10
54.07614109754645
 20
115.0922215640617
 30
0.0
 10
53.79999872269996
 20
115.0922215640617
 30
0.0
 10
53.79999872269996
 20
115.0922215640617
 30
0.0
 10
47.79999872420004
 20
115.0922215640617
 30
0.0
 10
47.79999872420004
 20
115.0922215640617
 30
0.0
 10
47.52385634935419
 20
115.0922215640617
 30
0.0
 10
47.29999872432547
 20
114.8683639390329
 30
0.0
 10
47.29999872432547
 20
114.5922215641864
 30
0.0
 10
47.29999872432547
 20
114.5922215641864
 30
0.0
 10
47.29999872432547
 20
113.0926307752593
 30
0.0
 10
47.29999872432547
 20
113.0926307752593
 30
0.0
 10
47.29999872432547
 20
113.0926307752593
 30
0.0
 10
44.77500872257483
 20
113.0926307752605
 30
0.0
 10
44.77500872257483
 20
113.0926307752605
 30
0.0
 10
44.77500872257483
 20
113.0926307752605
 30
0.0
 10
44.77500872257483
 20
114.5922215641871
 30
0.0
 10
44.77500872257483
 20
114.5922215641871
 30
0.0
 10
44.77500872257483
 20
114.8683639390336
 30
0.0
 10
44.55115109754611
 20
115.0922215640623
 30
0.0
 10
44.27500872270059
 20
115.0922215640623
 30
0.0
 10
44.27500872270059
 20
115.0922215640623
 30
0.0
 10
38.27500872420035
 20
115.0922215640623
 30
0.0
 10
38.27500872420035
 20
115.0922215640623
 30
0.0
 10
37.99886634935385
 20
115.0922215640623
 30
0.0
 10
37.77500872432482
 20
114.8683639390336
 30
0.0
 10
37.77500872432482
 20
114.5922215641871
 30
0.0
 10
37.77500872432482
 20
114.5922215641871
 30
0.0
 10
37.77500872432482
 20
113.0926307752605
 30
0.0
 10
37.77500872432482
 20
113.0926307752605
 30
0.0
 10
37.77500872432482
 20
113.0926307752605
 30
0.0
 10
34.77499372507522
 20
113.0926304582137
 30
0.0
 10
34.77499372507522
 20
113.0926304582137
 30
0.0
 10
34.49885135022873
 20
113.0926304582137
 30
0.0
 10
34.27499372520002
 20
112.868772833185
 30
0.0
 10
34.27499372520002
 20
112.5926304583392
 30
0.0
 10
34.27499372520002
 20
112.5926304583392
 30
0.0
 10
34.27499372520002
 20
99.59263046158893
 30
0.0
 10
34.27499372520002
 20
99.59263046158893
 30
0.0
 10
34.27499372520002
 20
99.31648808674244
 30
0.0
 10
34.49885135022873
 20
99.09263046171373
 30
0.0
 10
34.77499372507522
 20
99.09263046171373
 30
0.0
 10
34.77499372507522
 20
99.09263046171373
 30
0.0
 10
47.77499372182547
 20
99.09263046171373
 30
0.0
 10
47.77499372182547
 20
99.09263046171373
 30
0.0
 10
48.05113609667133
 20
99.09263046171373
 30
0.0
 10
48.27499372170004
 20
99.31648808674244
 30
0.0
 10
48.27499372170004
 20
99.59263046158893
 30
0.0
 10
48.27499372170004
 20
99.59263046158893
 30
0.0
 10
48.27499372170004
 20
100.0922203817217
 30
0.0
 10
48.27499372170004
 20
100.0922203817217
 30
0.0
 10
48.27499372170004
 20
100.0922203817217
 30
0.0
 10
53.32500372519996
 20
100.0922203817217
 30
0.0
 10
53.32500372519996
 20
100.0922203817217
 30
0.0
  0
SPLINE
  5
80
330
70
100
AcDbEntity
  8
Layer_0
 62
    18
420
        0
370
    25
100
AcDbSpline
210
0.0
220
0.0
230
1.0
 70
     9
 71
     3
 72
    29
 73
    25
 74
     0
 42
0.0000000001
 43
0.0000000001
 40
0.0
 40
0.0
 40
0.0
 40
0.0
 40
1.0
 40
1.0
 40
1.0
 40
2.0
 40
2.0
 40
2.0
 40
3.0
 40
3.0
 40
3.0
 40
4.0
 40
4.0
 40
4.0
 40
5.0
 40
5.0
 40
5.0
 40
6.0
 40
6.0
 40
6.0
 40
7.0
 40
7.0
 40
7.0
 40
8.0
 40
8.0
 40
8.0
 40
8.0
 10
28.72498372182553
 20
99.09263046171373
 30
0.0
 10
28.72498372182553
 20
99.09263046171373
 30
0.0
 10
15.72498372507527
 20
99.09263046171373
 30
0.0
 10
15.72498372507527
 20
99.09263046171373
 30
0.0
 10
15.44884135022877
 20
99.09263046171373
 30
0.0
 10
15.22498372520006
 20
99.31648808674244
 30
0.0
 10
15.22498372520006
 20
99.59263046158893
 30
0.0
 10
15.22498372520006
 20
99.59263046158893
 30
0.0
 10
15.22498372520006
 20
112.5926304583392
 30
0.0
 10
15.22498372520006
 20
112.5926304583392
 30
0.0
 10
15.22498372520006
 20
112.868772833185
 30
0.0
 10
15.44884135022877
 20
113.0926304582137
 30
0.0
 10
15.72498372507527
 20
113.0926304582137
 30
0.0
 10
15.72498372507527
 20
113.0926304582137
 30
0.0
 10
28.72498372182553
 20
113.0926304582137
 30
0.0
 10
28.72498372182553
 20
113.0926304582137
 30
0.0
 10
29.00112609667138
 20
113.0926304582137
 30
0.0
 10
29.22498372170009
 20
112.868772833185
 30
0.0
 10
29.22498372170009
 20
112.5926304583392
 30
0.0
 10
29.22498372170009
 20
112.5926304583392
 30
0.0
 10
29.22498372170009
 20
99.59263046158893
 30
0.0
 10
29.22498372170009
 20
99.59263046158893
 30
0.0
 10
29.22498372170009
 20
99.31648808674244
 30
0.0
 10
29.00112609667138
 20
99.09263046171373
 30
0.0
 10
28.72498372182553
 20
99.09263046171373
 30
0.0
  0
SPLINE
  5
81
330
70
100
AcDbEntity
  8
Layer_0
 62
    18
420
        0
370
    25
100
AcDbSpline
210
0.0
220
0.0
230
1.0
 70
     9
 71
     3
 72
    29
 73
    25
 74
     0
 42
0.0000000001
 43
0.0000000001
 40
0.0
 40
0.0
 40
0.0
 40
0.0
 40
1.0
 40
1.0
 40
1.0
 40
2.0
 40
2.0
 40
2.0
 40
3.0
 40
3.0
 40
3.0
 40
4.0
 40
4.0
 40
4.0
 40
5.0
 40
5.0
 40
5.0
 40
6.0
 40
6.0
 40
6.0
 40
7.0
 40
7.0
 40
7.0
 40
8.0
 40
8.0
 40
8.0
 40
8.0
 10
200.1749987218253
 20
99.09261046171421
 30
0.0
 10
200.1749987218253
 20
99.09261046171421
 30
0.0
 10
187.174998725075
 20
99.09261046171421
 30
0.0
 10
187.174998725075
 20
99.09261046171421
 30
0.0
 10
186.8988563502291
 20
99.09261046171421
 30
0.0
 10
186.6749987252004
 20
99.31646808674292
 30
0.0
 10
186.6749987252004
 20
99.59261046158941
 30
0.0
 10
186.6749987252004
 20
99.59261046158941
 30
0.0
 10
186.6749987252004
 20
112.592610458339
 30
0.0
 10
186.6749987252004
 20
112.592610458339
 30
0.0
 10
186.6749987252004
 20
112.8687528331855
 30
0.0
 10
186.8988563502291
 20
113.0926104582142
 30
0.0
 10
187.174998725075
 20
113.0926104582142
 30
0.0
 10
187.174998725075
 20
113.0926104582142
 30
0.0
 10
200.1749987218253
 20
113.0926104582142
 30
0.0
 10
200.1749987218253
 20
113.0926104582142
 30
0.0
 10
200.4511410966711
 20
113.0926104582142
 30
0.0
 10
200.6749987216998
 20
112.8687528331855
 30
0.0
 10
200.6749987216998
 20
112.592610458339
 30
0.0
 10
200.6749987216998
 20
112.592610458339
 30
0.0
 10
200.6749987216998
 20
99.59261046158941
 30
0.0
 10
200.6749987216998
 20
99.59261046158941
 30
0.0
 10
200.6749987216998
 20
99.31646808674292
 30
0.0
 10
200.4511410966711
 20
99.09261046171421
 30
0.0
 10
200.1749987218253
 20
99.09261046171421
 30
0.0
  0
SPLINE
  5
82
330
70
100
AcDbEntity
  8
Layer_0
 62
    18
420
        0
370
    25
100
AcDbSpline
210
0.0
220
0.0
230
1.0
 70
     9
 71
     3
 72
    29
 73
    25
 74
     0
 42
0.0000000001
 43
0.0000000001
 40
0.0
 40
0.0
 40
0.0
 40
0.0
 40
1.0
 40
1.0
 40
1.0
 40
2.0
 40
2.0
 40
2.0
 40
3.0
 40
3.0
 40
3.0
 40
4.0
 40
4.0
 40
4.0
 40
5.0
 40
5.0
 40
5.0
 40
6.0
 40
6.0
 40
6.0
 40
7.0
 40
7.0
 40
7.0
 40
8.0
 40
8.0
 40
8.0
 40
8.0
 10
66.82500872182562
 20
156.2426154617137
 30
0.0
 10
66.82500872182562
 20
156.2426154617137
 30
0.0
 10
53.82500872507537
 20
156.2426154617137
 30
0.0
 10
53.82500872507537
 20
156.2426154617137
 30
0.0
 10
53.54886635022888
 20
156.2426154617137
 30
0.0
 10
53.32500872520016
 20
156.4664730867424
 30
0.0
 10
53.32500872520016
 20
156.7426154615889
 30
0.0
 10
53.32500872520016
 20
156.7426154615889
 30
0.0
 10
53.32500872520016
 20
169.7426154583388
 30
0.0
 10
53.32500872520016
 20
169.7426154583388
 30
0.0
 10
53.32500872520016
 20
170.018757833185
 30
0.0
 10
53.54886635022888
 20
170.2426154582137
 30
0.0
 10
53.82500872507537
 20
170.2426154582137
 30
0.0
 10
53.82500872507537
 20
170.2426154582137
 30
0.0
 10
66.82500872182562
 20
170.2426154582137
 30
0.0
 10
66.82500872182562
 20
170.2426154582137
 30
0.0
 10
67.10115109667147
 20
170.2426154582137
 30
0.0
 10
67.32500872170018
 20
170.018757833185
 30
0.0
 10
67.32500872170018
 20
169.7426154583388
 30
0.0
 10
67.32500872170018
 20
169.7426154583388
 30
0.0
 10
67.32500872170018
 20
156.7426154615889
 30
0.0
 10
67.32500872170018
 20
156.7426154615889
 30
0.0
 10
67.32500872170018
 20
156.4664730867424
 30
0.0
 10
67.10115109667147
 20
156.2426154617137
 30
0.0
 10
66.82500872182562
 20
156.2426154617137
 30
0.0
  0
SPLINE
  5
83
330
70
100
AcDbEntity
  8
Layer_0
 62
    18
420
        0
370
    25
100
AcDbSpline
210
0.0
220
0.0
230
1.0
 70
     9
 71
     3
 72
    29
 73
    25
 74
     0
 42
0.0000000001
 43
0.0000000001
 40
0.0
 40
0.0
 40
0.0
 40
0.0
 40
1.0
 40
1.0
 40
1.0
 40
2.0
 40
2.0
 40
2.0
 40
3.0
 40
3.0
 40
3.0
 40
4.0
 40
4.0
 40
4.0
 40
5.0
 40
5.0
 40
5.0
 40
6.0
 40
6.0
 40
6.0
 40
7.0
 40
7.0
 40
7.0
 40
8.0
 40
8.0
 40
8.0
 40
8.0
 10
47.77499872182567
 20
156.2426154617137
 30
0.0
 10
47.77499872182567
 20
156.2426154617137
 30
0.0
 10
34.77499872507542
 20
156.2426154617137
 30
0.0
 10
34.77499872507542
 20
156.2426154617137
 30
0.0
 10
34.49885635022893
 20
156.2426154617137
 30
0.0
 10
34.27499872520022
 20
156.4664730867424
 30
0.0
 10
34.27499872520022
 20
156.7426154615889
 30
0.0
 10
34.27499872520022
 20
156.7426154615889
 30
0.0
 10
34.27499872520022
 20
169.7426154583388
 30
0.0
 10
34.27499872520022
 20
169.7426154583388
 30
0.0
 10
34.27499872520022
 20
170.018757833185
 30
0.0
 10
34.49885635022893
 20
170.2426154582137
 30
0.0
 10
34.77499872507542
 20
170.2426154582137
 30
0.0
 10
34.77499872507542
 20
170.2426154582137
 30
0.0
 10
47.77499872182567
 20
170.2426154582137
 30
0.0
 10
47.77499872182567
 20
170.2426154582137
 30
0.0
 10
48.05114109667153
 20
170.2426154582137
 30
0.0
 10
48.27499872170024
 20
170.018757833185
 30
0.0
 10
48.27499872170024
 20
169.7426154583388
 30
0.0
 10
48.27499872170024
 20
169.7426154583388
 30
0.0
 10
48.27499872170024
 20
156.7426154615889
 30
0.0
 10
48.27499872170024
 20
156.7426154615889
 30
0.0
 10
48.27499872170024
 20
156.4664730867424
 30
0.0
 10
48.05114109667153
 20
156.2426154617137
 30
0.0
 10
47.77499872182567
 20
156.2426154617137
 30
0.0
  0
SPLINE
  5
84
330
70
100
AcDbEntity
  8
Layer_0
 62
    18
420
        0
370
    25
100
AcDbSpline
210
0.0
220
0.0
230
1.0
 70
     9
 71
     3
 72
    29
 73
    25
 74
     0
 42
0.0000000001
 43
0.0000000001
 40
0.0
 40
0.0
 40
0.0
 40
0.0
 40
1.0
 40
1.0
 40
1.0
 40
2.0
 40
2.0
 40
2.0
 40
3.0
 40
3.0
 40
3.0
 40
4.0
 40
4.0
 40
4.0
 40
5.0
 40
5.0
 40
5.0
 40
6.0
 40
6.0
 40
6.0
 40
7.0
 40
7.0
 40
7.0
 40
8.0
 40
8.0
 40
8.0
 40
8.0
 10
28.72498872182573
 20
156.2426154617137
 30
0.0
 10
28.72498872182573
 20
156.2426154617137
 30
0.0
 10
15.72498872507547
 20
156.2426154617137
 30
0.0
 10
15.72498872507547
 20
156.2426154617137
 30
0.0
 10
15.44884635022897
 20
156.2426154617137
 30
0.0
 10
15.22498872520026
 20
156.4664730867424
 30
0.0
 10
15.22498872520026
 20
156.7426154615889
 30
0.0
 10
15.22498872520026
 20
156.7426154615889
 30
0.0
 10
15.22498872520026
 20
169.7426154583388
 30
0.0
 10
15.22498872520026
 20
169.7426154583388
 30
0.0
 10
15.22498872520026
 20
170.018757833185
 30
0.0
 10
15.44884635022897
 20
170.2426154582137
 30
0.0
 10
15.72498872507547
 20
170.2426154582137
 30
0.0
 10
15.72498872507547
 20
170.2426154582137
 30
0.0
 10
28.72498872182573
 20
170.2426154582137
 30
0.0
 10
28.72498872182573
 20
170.2426154582137
 30
0.0
 10
29.00113109667158
 20
170.2426154582137
 30
0.0
 10
29.22498872170029
 20
170.018757833185
 30
0.0
 10
29.22498872170029
 20
169.7426154583388
 30
0.0
 10
29.22498872170029
 20
169.7426154583388
 30
0.0
 10
29.22498872170029
 20
156.7426154615889
 30
0.0
 10
29.22498872170029
 20
156.7426154615889
 30
0.0
 10
29.22498872170029
 20
156.4664730867424
 30
0.0
 10
29.00113109667158
 20
156.2426154617137
 30
0.0
 10
28.72498872182573
 20
156.2426154617137
 30
0.0
  0
SPLINE
  5
85
330
70
100
AcDbEntity
  8
Layer_0
 62
    18
420
        0
370
    25
100
AcDbSpline
210
0.0
220
0.0
230
1.0
 70
     9
 71
     3
 72
    29
 73
    25
 74
     0
 42
0.0000000001
 43
0.0000000001
 40
0.0
 40
0.0
 40
0.0
 40
0.0
 40
1.0
 40
1.0
 40
1.0
 40
2.0
 40
2.0
 40
2.0
 40
3.0
 40
3.0
 40
3.0
 40
4.0
 40
4.0
 40
4.0
 40
5.0
 40
5.0
 40
5.0
 40
6.0
 40
6.0
 40
6.0
 40
7.0
 40
7.0
 40
7.0
 40
8.0
 40
8.0
 40
8.0
 40
8.0
 10
123.9750137209504
 20
156.2426154617137
 30
0.0
 10
123.9750137209504
 20
156.2426154617137
 30
0.0
 10
110.9750137242002
 20
156.2426154617137
 30
0.0
 10
110.9750137242002
 20
156.2426154617137
 30
0.0
 10
110.6988713493544
 20
156.2426154617137
 30
0.0
 10
110.4750137243256
 20
156.4664730867424
 30
0.0
 10
110.4750137243256
 20
156.7426154615889
 30
0.0
 10
110.4750137243256
 20
156.7426154615889
 30
0.0
 10
110.4750137243256
 20
169.7426154583388
 30
0.0
 10
110.4750137243256
 20
169.7426154583388
 30
0.0
 10
110.4750137243256
 20
170.018757833185
 30
0.0
 10
110.6988713493544
 20
170.2426154582137
 30
0.0
 10
110.9750137242002
 20
170.2426154582137
 30
0.0
 10
110.9750137242002
 20
170.2426154582137
 30
0.0
 10
123.9750137209504
 20
170.2426154582137
 30
0.0
 10
123.9750137209504
 20
170.2426154582137
 30
0.0
 10
124.2511560957963
 20
170.2426154582137
 30
0.0
 10
124.475013720825
 20
170.018757833185
 30
0.0
 10
124.475013720825
 20
169.7426154583388
 30
0.0
 10
124.475013720825
 20
169.7426154583388
 30
0.0
 10
124.475013720825
 20
156.7426154615889
 30
0.0
 10
124.475013720825
 20
156.7426154615889
 30
0.0
 10
124.475013720825
 20
156.4664730867424
 30
0.0
 10
124.2511560957963
 20
156.2426154617137
 30
0.0
 10
123.9750137209504
 20
156.2426154617137
 30
0.0
  0
SPLINE
  5
86
330
70
100
AcDbEntity
  8
Layer_0
 62
    18
420
        0
370
    25
100
AcDbSpline
210
0.0
220
0.0
230
1.0
 70
     9
 71
     3
 72
    29
 73
    25
 74
     0
 42
0.0000000001
 43
0.0000000001
 40
0.0
 40
0.0
 40
0.0
 40
0.0
 40
1.0
 40
1.0
 40
1.0
 40
2.0
 40
2.0
 40
2.0
 40
3.0
 40
3.0
 40
3.0
 40
4.0
 40
4.0
 40
4.0
 40
5.0
 40
5.0
 40
5.0
 40
6.0
 40
6.0
 40
6.0
 40
7.0
 40
7.0
 40
7.0
 40
8.0
 40
8.0
 40
8.0
 40
8.0
 10
104.9250037209505
 20
156.2426154617137
 30
0.0
 10
104.9250037209505
 20
156.2426154617137
 30
0.0
 10
91.92500372420028
 20
156.2426154617137
 30
0.0
 10
91.92500372420028
 20
156.2426154617137
 30
0.0
 10
91.64886134935441
 20
156.2426154617137
 30
0.0
 10
91.4250037243257
 20
156.4664730867424
 30
0.0
 10
91.4250037243257
 20
156.7426154615889
 30
0.0
 10
91.4250037243257
 20
156.7426154615889
 30
0.0
 10
91.4250037243257
 20
169.7426154583388
 30
0.0
 10
91.4250037243257
 20
169.7426154583388
 30
0.0
 10
91.4250037243257
 20
170.018757833185
 30
0.0
 10
91.64886134935441
 20
170.2426154582137
 30
0.0
 10
91.92500372420028
 20
170.2426154582137
 30
0.0
 10
91.92500372420028
 20
170.2426154582137
 30
0.0
 10
104.9250037209505
 20
170.2426154582137
 30
0.0
 10
104.9250037209505
 20
170.2426154582137
 30
0.0
 10
105.201146095797
 20
170.2426154582137
 30
0.0
 10
105.4250037208257
 20
170.018757833185
 30
0.0
 10
105.4250037208257
 20
169.7426154583388
 30
0.0
 10
105.4250037208257
 20
169.7426154583388
 30
0.0
 10
105.4250037208257
 20
156.7426154615889
 30
0.0
 10
105.4250037208257
 20
156.7426154615889
 30
0.0
 10
105.4250037208257
 20
156.4664730867424
 30
0.0
 10
105.201146095797
 20
156.2426154617137
 30
0.0
 10
104.9250037209505
 20
156.2426154617137
 30
0.0
  0
SPLINE
  5
87
330
70
100
AcDbEntity
  8
Layer_0
 62
    18
420
        0
370
    25
100
AcDbSpline
210
0.0
220
0.0
230
1.0
 70
     9
 71
     3
 72
    29
 73
    25
 74
     0
 42
0.0000000001
 43
0.0000000001
 40
0.0
 40
0.0
 40
0.0
 40
0.0
 40
1.0
 40
1.0
 40
1.0
 40
2.0
 40
2.0
 40
2.0
 40
3.0
 40
3.0
 40
3.0
 40
4.0
 40
4.0
 40
4.0
 40
5.0
 40
5.0
 40
5.0
 40
6.0
 40
6.0
 40
6.0
 40
7.0
 40
7.0
 40
7.0
 40
8.0
 40
8.0
 40
8.0
 40
8.0
 10
85.87499372095058
 20
156.2426154617137
 30
0.0
 10
85.87499372095058
 20
156.2426154617137
 30
0.0
 10
72.87499372420032
 20
156.2426154617137
 30
0.0
 10
72.87499372420032
 20
156.2426154617137
 30
0.0
 10
72.59885134935448
 20
156.2426154617137
 30
0.0
 10
72.37499372432576
 20
156.4664730867424
 30
0.0
 10
72.37499372432576
 20
156.7426154615889
 30
0.0
 10
72.37499372432576
 20
156.7426154615889
 30
0.0
 10
72.37499372432576
 20
169.7426154583388
 30
0.0
 10
72.37499372432576
 20
169.7426154583388
 30
0.0
 10
72.37499372432576
 20
170.018757833185
 30
0.0
 10
72.59885134935448
 20
170.2426154582137
 30
0.0
 10
72.87499372420032
 20
170.2426154582137
 30
0.0
 10
72.87499372420032
 20
170.2426154582137
 30
0.0
 10
85.87499372095058
 20
170.2426154582137
 30
0.0
 10
85.87499372095058
 20
170.2426154582137
 30
0.0
 10
86.15113609579706
 20
170.2426154582137
 30
0.0
 10
86.37499372082578
 20
170.018757833185
 30
0.0
 10
86.37499372082578
 20
169.7426154583388
 30
0.0
 10
86.37499372082578
 20
169.7426154583388
 30
0.0
 10
86.37499372082578
 20
156.7426154615889
 30
0.0
 10
86.37499372082578
 20
156.7426154615889
 30
0.0
 10
86.37499372082578
 20
156.4664730867424
 30
0.0
 10
86.15113609579706
 20
156.2426154617137
 30
0.0
 10
85.87499372095058
 20
156.2426154617137
 30
0.0
  0
SPLINE
  5
88
330
70
100
AcDbEntity
  8
Layer_0
 62
    18
420
        0
370
    25
100
AcDbSpline
210
0.0
220
0.0
230
1.0
 70
     9
 71
     3
 72
    29
 73
    25
 74
     0
 42
0.0000000001
 43
0.0000000001
 40
0.0
 40
0.0
 40
0.0
 40
0.0
 40
1.0
 40
1.0
 40
1.0
 40
2.0
 40
2.0
 40
2.0
 40
3.0
 40
3.0
 40
3.0
 40
4.0
 40
4.0
 40
4.0
 40
5.0
 40
5.0
 40
5.0
 40
6.0
 40
6.0
 40
6.0
 40
7.0
 40
7.0
 40
7.0
 40
8.0
 40
8.0
 40
8.0
 40
8.0
 10
181.1250087218255
 20
156.2426154617137
 30
0.0
 10
181.1250087218255
 20
156.2426154617137
 30
0.0
 10
168.1250087250752
 20
156.2426154617137
 30
0.0
 10
168.1250087250752
 20
156.2426154617137
 30
0.0
 10
167.8488663502293
 20
156.2426154617137
 30
0.0
 10
167.6250087252006
 20
156.4664730867424
 30
0.0
 10
167.6250087252006
 20
156.7426154615889
 30
0.0
 10
167.6250087252006
 20
156.7426154615889
 30
0.0
 10
167.6250087252006
 20
169.7426154583388
 30
0.0
 10
167.6250087252006
 20
169.7426154583388
 30
0.0
 10
167.6250087252006
 20
170.018757833185
 30
0.0
 10
167.8488663502293
 20
170.2426154582137
 30
0.0
 10
168.1250087250752
 20
170.2426154582137
 30
0.0
 10
168.1250087250752
 20
170.2426154582137
 30
0.0
 10
181.1250087218255
 20
170.2426154582137
 30
0.0
 10
181.1250087218255
 20
170.2426154582137
 30
0.0
 10
181.4011510966713
 20
170.2426154582137
 30
0.0
 10
181.6250087217
 20
170.018757833185
 30
0.0
 10
181.6250087217
 20
169.7426154583388
 30
0.0
 10
181.6250087217
 20
169.7426154583388
 30
0.0
 10
181.6250087217
 20
156.7426154615889
 30
0.0
 10
181.6250087217
 20
156.7426154615889
 30
0.0
 10
181.6250087217
 20
156.4664730867424
 30
0.0
 10
181.4011510966713
 20
156.2426154617137
 30
0.0
 10
181.1250087218255
 20
156.2426154617137
 30
0.0
  0
SPLINE
  5
89
330
70
100
AcDbEntity
  8
Layer_0
 62
    18
420
        0
370
    25
100
AcDbSpline
210
0.0
220
0.0
230
1.0
 70
     9
 71
     3
 72
    29
 73
    25
 74
     0
 42
0.0000000001
 43
0.0000000001
 40
0.0
 40
0.0
 40
0.0
 40
0.0
 40
1.0
 40
1.0
 40
1.0
 40
2.0
 40
2.0
 40
2.0
 40
3.0
 40
3.0
 40
3.0
 40
4.0
 40
4.0
 40
4.0
 40
5.0
 40
5.0
 40
5.0
 40
6.0
 40
6.0
 40
6.0
 40
7.0
 40
7.0
 40
7.0
 40
8.0
 40
8.0
 40
8.0
 40
8.0
 10
162.0749987218255
 20
156.2426154617137
 30
0.0
 10
162.0749987218255
 20
156.2426154617137
 30
0.0
 10
149.0749987250753
 20
156.2426154617137
 30
0.0
 10
149.0749987250753
 20
156.2426154617137
 30
0.0
 10
148.7988563502288
 20
156.2426154617137
 30
0.0
 10
148.5749987252001
 20
156.4664730867424
 30
0.0
 10
148.5749987252001
 20
156.7426154615889
 30
0.0
 10
148.5749987252001
 20
156.7426154615889
 30
0.0
 10
148.5749987252001
 20
169.7426154583388
 30
0.0
 10
148.5749987252001
 20
169.7426154583388
 30
0.0
 10
148.5749987252001
 20
170.018757833185
 30
0.0
 10
148.7988563502288
 20
170.2426154582137
 30
0.0
 10
149.0749987250753
 20
170.2426154582137
 30
0.0
 10
149.0749987250753
 20
170.2426154582137
 30
0.0
 10
162.0749987218255
 20
170.2426154582137
 30
0.0
 10
162.0749987218255
 20
170.2426154582137
 30
0.0
 10
162.351141096672
 20
170.2426154582137
 30
0.0
 10
162.5749987217007
 20
170.018757833185
 30
0.0
 10
162.5749987217007
 20
169.7426154583388
 30
0.0
 10
162.5749987217007
 20
169.7426154583388
 30
0.0
 10
162.5749987217007
 20
156.7426154615889
 30
0.0
 10
162.5749987217007
 20
156.7426154615889
 30
0.0
 10
162.5749987217007
 20
156.4664730867424
 30
0.0
 10
162.351141096672
 20
156.2426154617137
 30
0.0
 10
162.0749987218255
 20
156.2426154617137
 30
0.0
  0
SPLINE
  5
8A
330
70
100
AcDbEntity
  8
Layer_0
 62
    18
420
        0
370
    25
100
AcDbSpline
210
0.0
220
0.0
230
1.0
 70
     9
 71
     3
 72
    29
 73
    25
 74
     0
 42
0.0000000001
 43
0.0000000001
 40
0.0
 40
0.0
 40
0.0
 40
0.0
 40
1.0
 40
1.0
 40
1.0
 40
2.0
 40
2.0
 40
2.0
 40
3.0
 40
3.0
 40
3.0
 40
4.0
 40
4.0
 40
4.0
 40
5.0
 40
5.0
 40
5.0
 40
6.0
 40
6.0
 40
6.0
 40
7.0
 40
7.0
 40
7.0
 40
8.0
 40
8.0
 40
8.0
 40
8.0
 10
143.0249887218256
 20
156.2426154617137
 30
0.0
 10
143.0249887218256
 20
156.2426154617137
 30
0.0
 10
130.0249887250753
 20
156.2426154617137
 30
0.0
 10
130.0249887250753
 20
156.2426154617137
 30
0.0
 10
129.7488463502295
 20
156.2426154617137
 30
0.0
 10
129.5249887252007
 20
156.4664730867424
 30
0.0
 10
129.5249887252007
 20
156.7426154615889
 30
0.0
 10
129.5249887252007
 20
156.7426154615889
 30
0.0
 10
129.5249887252007
 20
169.7426154583388
 30
0.0
 10
129.5249887252007
 20
169.7426154583388
 30
0.0
 10
129.5249887252007
 20
170.018757833185
 30
0.0
 10
129.7488463502295
 20
170.2426154582137
 30
0.0
 10
130.0249887250753
 20
170.2426154582137
 30
0.0
 10
130.0249887250753
 20
170.2426154582137
 30
0.0
 10
143.0249887218256
 20
170.2426154582137
 30
0.0
 10
143.0249887218256
 20
170.2426154582137
 30
0.0
 10
143.3011310966714
 20
170.2426154582137
 30
0.0
 10
143.5249887217001
 20
170.018757833185
 30
0.0
 10
143.5249887217001
 20
169.7426154583388
 30
0.0
 10
143.5249887217001
 20
169.7426154583388
 30
0.0
 10
143.5249887217001
 20
156.7426154615889
 30
0.0
 10
143.5249887217001
 20
156.7426154615889
 30
0.0
 10
143.5249887217001
 20
156.4664730867424
 30
0.0
 10
143.3011310966714
 20
156.2426154617137
 30
0.0
 10
143.0249887218256
 20
156.2426154617137
 30
0.0
  0
SPLINE
  5
8B
330
70
100
AcDbEntity
  8
Layer_0
 62
    18
420
        0
370
    25
100
AcDbSpline
210
0.0
220
0.0
230
1.0
 70
     9
 71
     3
 72
    29
 73
    25
 74
     0
 42
0.0000000001
 43
0.0000000001
 40
0.0
 40
0.0
 40
0.0
 40
0.0
 40
1.0
 40
1.0
 40
1.0
 40
2.0
 40
2.0
 40
2.0
 40
3.0
 40
3.0
 40
3.0
 40
4.0
 40
4.0
 40
4.0
 40
5.0
 40
5.0
 40
5.0
 40
6.0
 40
6.0
 40
6.0
 40
7.0
 40
7.0
 40
7.0
 40
8.0
 40
8.0
 40
8.0
 40
8.0
 10
200.1750087200745
 20
156.2426154617137
 30
0.0
 10
200.1750087200745
 20
156.2426154617137
 30
0.0
 10
187.1750087233242
 20
156.2426154617137
 30
0.0
 10
187.1750087233242
 20
156.2426154617137
 30
0.0
 10
186.8988663484784
 20
156.2426154617137
 30
0.0
 10
186.6750087234496
 20
156.4664730867424
 30
0.0
 10
186.6750087234496
 20
156.7426154615889
 30
0.0
 10
186.6750087234496
 20
156.7426154615889
 30
0.0
 10
186.6750087234496
 20
169.7426154583388
 30
0.0
 10
186.6750087234496
 20
169.7426154583388
 30
0.0
 10
186.6750087234496
 20
170.018757833185
 30
0.0
 10
186.8988663484784
 20
170.2426154582137
 30
0.0
 10
187.1750087233242
 20
170.2426154582137
 30
0.0
 10
187.1750087233242
 20
170.2426154582137
 30
0.0
 10
200.1750087200745
 20
170.2426154582137
 30
0.0
 10
200.1750087200745
 20
170.2426154582137
 30
0.0
 10
200.4511510949203
 20
170.2426154582137
 30
0.0
 10
200.675008719949
 20
170.018757833185
 30
0.0
 10
200.675008719949
 20
169.7426154583388
 30
0.0
 10
200.675008719949
 20
169.7426154583388
 30
0.0
 10
200.675008719949
 20
156.7426154615889
 30
0.0
 10
200.675008719949
 20
156.7426154615889
 30
0.0
 10
200.675008719949
 20
156.4664730867424
 30
0.0
 10
200.4511510949203
 20
156.2426154617137
 30
0.0
 10
200.1750087200745
 20
156.2426154617137
 30
0.0
  0
SPLINE
  5
8C
330
70
100
AcDbEntity
  8
Layer_0
 62
    18
420
        0
370
    25
100
AcDbSpline
210
0.0
220
0.0
230
1.0
 70
    11
 71
     3
 72
    47
 73
    43
 74
     0
 42
0.0000000001
 43
0.0000000001
 40
0.0
 40
0.0
 40
0.0
 40
0.0
 40
1.0
 40
1.0
 40
1.0
 40
2.0
 40
2.0
 40
2.0
 40
3.0
 40
3.0
 40
3.0
 40
4.0
 40
4.0
 40
4.0
 40
5.0
 40
5.0
 40
5.0
 40
6.0
 40
6.0
 40
6.0
 40
7.0
 40
7.0
 40
7.0
 40
8.0
 40
8.0
 40
8.0
 40
9.0
 40
9.0
 40
9.0
 40
10.0
 40
10.0
 40
10.0
 40
11.0
 40
11.0
 40
11.0
 40
12.0
 40
12.0
 40
12.0
 40
13.0
 40
13.0
 40
13.0
 40
14.0
 40
14.0
 40
14.0
 40
14.0
 10
81.89998872524521
 20
100.092228118515
 30
0.0
 10
81.89998872524521
 20
100.092228118515
 30
0.0
 10
81.89998872524521
 20
99.59263046158893
 30
0.0
 10
81.89998872524521
 20
99.59263046158893
 30
0.0
 10
81.89998872524521
 20
99.31648808674244
 30
0.0
 10
82.12384635027392
 20
99.09263046171373
 30
0.0
 10
82.39998872512042
 20
99.09263046171373
 30
0.0
 10
82.39998872512042
 20
99.09263046171373
 30
0.0
 10
95.39998872187098
 20
99.09263046171373
 30
0.0
 10
95.39998872187098
 20
99.09263046171373
 30
0.0
 10
95.67613109671652
 20
99.09263046171373
 30
0.0
 10
95.89998872174524
 20
99.31648808674244
 30
0.0
 10
95.89998872174524
 20
99.59263046158893
 30
0.0
 10
95.89998872174524
 20
99.59263046158893
 30
0.0
 10
95.89998872174524
 20
112.5926304583392
 30
0.0
 10
95.89998872174524
 20
112.5926304583392
 30
0.0
 10
95.89998872174524
 20
112.868772833185
 30
0.0
 10
95.67613109671652
 20
113.0926304582137
 30
0.0
 10
95.39998872187098
 20
113.0926304582137
 30
0.0
 10
95.39998872187098
 20
113.0926304582137
 30
0.0
 10
82.87498872195069
 20
113.0926098351045
 30
0.0
 10
82.87498872195069
 20
113.0926098351045
 30
0.0
 10
82.87498872195069
 20
113.0926098351045
 30
0.0
 10
82.87498872195069
 20
114.592226567141
 30
0.0
 10
82.87498872195069
 20
114.592226567141
 30
0.0
 10
82.87498872195069
 20
114.8683689419869
 30
0.0
 10
82.65113109692197
 20
115.0922265670156
 30
0.0
 10
82.37498872207547
 20
115.0922265670156
 30
0.0
 10
82.37498872207547
 20
115.0922265670156
 30
0.0
 10
73.96198872417811
 20
115.0922265670156
 30
0.0
 10
73.96198872417811
 20
115.0922265670156
 30
0.0
 10
73.68584634933225
 20
115.0922265670156
 30
0.0
 10
73.46198872430353
 20
114.8683689419869
 30
0.0
 10
73.46198872430353
 20
114.592226567141
 30
0.0
 10
73.46198872430353
 20
114.592226567141
 30
0.0
 10
73.46198872430353
 20
100.5922265706404
 30
0.0
 10
73.46198872430353
 20
100.5922265706404
 30
0.0
 10
73.46198872430353
 20
100.3160841957939
 30
0.0
 10
73.68584634933225
 20
100.0922265707652
 30
0.0
 10
73.96198872417811
 20
100.0922265707652
 30
0.0
 10
73.96198872417811
 20
100.0922265707652
 30
0.0
 10
81.89998872524521
 20
100.092228118515
 30
0.0
 10
81.89998872524521
 20
100.092228118515
 30
0.0
  0
SPLINE
  5
8D
330
70
100
AcDbEntity
  8
Layer_0
 62
    18
420
        0
370
    25
100
AcDbSpline
210
0.0
220
0.0
230
1.0
 70
    11
 71
     3
 72
   101
 73
    97
 74
     0
 42
0.0000000001
 43
0.0000000001
 40
0.0
 40
0.0
 40
0.0
 40
0.0
 40
1.0
 40
1.0
 40
1.0
 40
2.0
 40
2.0
 40
2.0
 40
3.0
 40
3.0
 40
3.0
 40
4.0
 40
4.0
 40
4.0
 40
5.0
 40
5.0
 40
5.0
 40
6.0
 40
6.0
 40
6.0
 40
7.0
 40
7.0
 40
7.0
 40
8.0
 40
8.0
 40
8.0
 40
9.0
 40
9.0
 40
9.0
 40
10.0
 40
10.0
 40
10.0
 40
11.0
 40
11.0
 40
11.0
 40
12.0
 40
12.0
 40
12.0
 40
13.0
 40
13.0
 40
13.0
 40
14.0
 40
14.0
 40
14.0
 40
15.0
 40
15.0
 40
15.0
 40
16.0
 40
16.0
 40
16.0
 40
17.0
 40
17.0
 40
17.0
 40
18.0
 40
18.0
 40
18.0
 40
19.0
 40
19.0
 40
19.0
 40
20.0
 40
20.0
 40
20.0
 40
21.0
 40
21.0
 40
21.0
 40
22.0
 40
22.0
 40
22.0
 40
23.0
 40
23.0
 40
23.0
 40
24.0
 40
24.0
 40
24.0
 40
25.0
 40
25.0
 40
25.0
 40
26.0
 40
26.0
 40
26.0
 40
27.0
 40
27.0
 40
27.0
 40
28.0
 40
28.0
 40
28.0
 40
29.0
 40
29.0
 40
29.0
 40
30.0
 40
30.0
 40
30.0
 40
31.0
 40
31.0
 40
31.0
 40
32.0
 40
32.0
 40
32.0
 40
32.0
 10
162.5749887214539
 20
100.0922203814862
 30
0.0
 10
162.5749887214539
 20
100.0922203814862
 30
0.0
 10
162.5749887214315
 20
99.59263046135278
 30
0.0
 10
162.5749887214315
 20
99.59263046135278
 30
0.0
 10
162.5749887214193
 20
99.31648808650693
 30
0.0
 10
162.3511310963803
 20
99.09263046148849
 30
0.0
 10
162.0749887215344
 20
99.09263046150131
 30
0.0
 10
162.0749887215344
 20
99.09263046150131
 30
0.0
 10
149.0749887247842
 20
99.09263046208527
 30
0.0
 10
149.0749887247842
 20
99.09263046208527
 30
0.0
 10
148.7988463499377
 20
99.09263046209682
 30
0.0
 10
148.5749887249192
 20
99.3164880871358
 30
0.0
 10
148.5749887249314
 20
99.59263046198165
 30
0.0
 10
148.5749887249314
 20
99.59263046198165
 30
0.0
 10
148.5749887255154
 20
112.5926304587319
 30
0.0
 10
148.5749887255154
 20
112.5926304587319
 30
0.0
 10
148.5749887255276
 20
112.8687728335784
 30
0.0
 10
148.7988463505659
 20
113.0926304585968
 30
0.0
 10
149.0749887254124
 20
113.0926304585846
 30
0.0
 10
149.0749887254124
 20
113.0926304585846
 30
0.0
 10
152.074988724663
 20
113.0926307754967
 30
0.0
 10
152.074988724663
 20
113.0926307754967
 30
0.0
 10
152.074988724663
 20
113.0926307754967
 30
0.0
 10
152.0749887247298
 20
114.5922215644233
 30
0.0
 10
152.0749887247298
 20
114.5922215644233
 30
0.0
 10
152.0749887247426
 20
114.8683639392697
 30
0.0
 10
152.2988463497815
 20
115.0922215642882
 30
0.0
 10
152.5749887246274
 20
115.092221564276
 30
0.0
 10
152.5749887246274
 20
115.092221564276
 30
0.0
 10
158.5749887231273
 20
115.0922215640065
 30
0.0
 10
158.5749887231273
 20
115.0922215640065
 30
0.0
 10
158.8511310979732
 20
115.0922215639943
 30
0.0
 10
159.0749887229923
 20
114.8683639389553
 30
0.0
 10
159.0749887229801
 20
114.5922215641088
 30
0.0
 10
159.0749887229801
 20
114.5922215641088
 30
0.0
 10
159.0749887229121
 20
113.0926307751823
 30
0.0
 10
159.0749887229121
 20
113.0926307751823
 30
0.0
 10
159.0749887229121
 20
113.0926307751823
 30
0.0
 10
161.599993724662
 20
113.0926307750674
 30
0.0
 10
161.599993724662
 20
113.0926307750674
 30
0.0
 10
161.599993724662
 20
113.0926307750674
 30
0.0
 10
161.59999372473
 20
114.5922215639946
 30
0.0
 10
161.59999372473
 20
114.5922215639946
 30
0.0
 10
161.5999937247422
 20
114.8683639388411
 30
0.0
 10
161.8238513497805
 20
115.0922215638602
 30
0.0
 10
162.0999937246277
 20
115.0922215638473
 30
0.0
 10
162.0999937246277
 20
115.0922215638473
 30
0.0
 10
168.0999937231276
 20
115.0922215635785
 30
0.0
 10
168.0999937231276
 20
115.0922215635785
 30
0.0
 10
168.3761360979735
 20
115.0922215635656
 30
0.0
 10
168.5999937229919
 20
114.8683639385273
 30
0.0
 10
168.5999937229791
 20
114.5922215636808
 30
0.0
 10
168.5999937229791
 20
114.5922215636808
 30
0.0
 10
168.5999937229123
 20
113.0926307747536
 30
0.0
 10
168.5999937229123
 20
113.0926307747536
 30
0.0
 10
168.5999937229123
 20
113.0926307747536
 30
0.0
 10
171.1249837246624
 20
113.0926307746413
 30
0.0
 10
171.1249837246624
 20
113.0926307746413
 30
0.0
 10
171.1249837246624
 20
113.0926307746413
 30
0.0
 10
171.1249837247304
 20
114.5922215635678
 30
0.0
 10
171.1249837247304
 20
114.5922215635678
 30
0.0
 10
171.1249837247426
 20
114.8683639384143
 30
0.0
 10
171.3488413497809
 20
115.0922215634328
 30
0.0
 10
171.6249837246274
 20
115.0922215634206
 30
0.0
 10
171.6249837246274
 20
115.0922215634206
 30
0.0
 10
177.6249837231273
 20
115.0922215631511
 30
0.0
 10
177.6249837231273
 20
115.0922215631511
 30
0.0
 10
177.9011260979738
 20
115.0922215631389
 30
0.0
 10
178.1249837229923
 20
114.8683639380999
 30
0.0
 10
178.1249837229794
 20
114.5922215632534
 30
0.0
 10
178.1249837229794
 20
114.5922215632534
 30
0.0
 10
178.1249837229127
 20
113.0926307743269
 30
0.0
 10
178.1249837229127
 20
113.0926307743269
 30
0.0
 10
178.1249837229127
 20
113.0926307743269
 30
0.0
 10
181.1249987221626
 20
113.0926304571453
 30
0.0
 10
181.1249987221626
 20
113.0926304571453
 30
0.0
 10
181.4011410970084
 20
113.0926304571331
 30
0.0
 10
181.6249987220275
 20
112.8687728320941
 30
0.0
 10
181.6249987220153
 20
112.5926304572483
 30
0.0
 10
181.6249987220153
 20
112.5926304572483
 30
0.0
 10
181.6249987214314
 20
99.59263046049805
 30
0.0
 10
181.6249987214314
 20
99.59263046049805
 30
0.0
 10
181.6249987214192
 20
99.31648808565219
 30
0.0
 10
181.4011410963802
 20
99.09263046063374
 30
0.0
 10
181.1249987215337
 20
99.09263046064531
 30
0.0
 10
181.1249987215337
 20
99.09263046064531
 30
0.0
 10
168.1249987247835
 20
99.09263046122923
 30
0.0
 10
168.1249987247835
 20
99.09263046122923
 30
0.0
 10
167.8488563499376
 20
99.09263046124207
 30
0.0
 10
167.6249987249192
 20
99.31648808628105
 30
0.0
 10
167.6249987249314
 20
99.5926304611269
 30
0.0
 10
167.6249987249314
 20
99.5926304611269
 30
0.0
 10
167.6249987249538
 20
100.0922203812603
 30
0.0
 10
167.6249987249538
 20
100.0922203812603
 30
0.0
 10
167.6249987249538
 20
100.0922203812603
 30
0.0
 10
162.5749887214539
 20
100.0922203814862
 30
0.0
 10
162.5749887214539
 20
100.0922203814862
 30
0.0
  0
SPLINE
  5
8E
330
70
100
AcDbEntity
  8
Layer_0
 62
    18
420
        0
370
    25
100
AcDbSpline
210
0.0
220
0.0
230
1.0
 70
    11
 71
     3
 72
    47
 73
    43
 74
     0
 42
0.0000000001
 43
0.0000000001
 40
0.0
 40
0.0
 40
0.0
 40
0.0
 40
1.0
 40
1.0
 40
1.0
 40
2.0
 40
2.0
 40
2.0
 40
3.0
 40
3.0
 40
3.0
 40
4.0
 40
4.0
 40
4.0
 40
5.0
 40
5.0
 40
5.0
 40
6.0
 40
6.0
 40
6.0
 40
7.0
 40
7.0
 40
7.0
 40
8.0
 40
8.0
 40
8.0
 40
9.0
 40
9.0
 40
9.0
 40
10.0
 40
10.0
 40
10.0
 40
11.0
 40
11.0
 40
11.0
 40
12.0
 40
12.0
 40
12.0
 40
13.0
 40
13.0
 40
13.0
 40
14.0
 40
14.0
 40
14.0
 40
14.0
 10
134.0000037214087
 20
100.0922281195629
 30
0.0
 10
134.0000037214087
 20
100.0922281195629
 30
0.0
 10
134.0000037213862
 20
99.59263046263618
 30
0.0
 10
134.0000037213862
 20
99.59263046263618
 30
0.0
 10
134.000003721374
 20
99.31648808779033
 30
0.0
 10
133.776146096335
 20
99.09263046277189
 30
0.0
 10
133.5000037214885
 20
99.09263046278471
 30
0.0
 10
133.5000037214885
 20
99.09263046278471
 30
0.0
 10
120.5000037247383
 20
99.09263046336739
 30
0.0
 10
120.5000037247383
 20
99.09263046336739
 30
0.0
 10
120.2238613498924
 20
99.09263046338022
 30
0.0
 10
120.000003724874
 20
99.3164880884192
 30
0.0
 10
120.0000037248862
 20
99.59263046326505
 30
0.0
 10
120.0000037248862
 20
99.59263046326505
 30
0.0
 10
120.0000037254695
 20
112.5926304600146
 30
0.0
 10
120.0000037254695
 20
112.5926304600146
 30
0.0
 10
120.0000037254823
 20
112.8687728348611
 30
0.0
 10
120.2238613505213
 20
113.0926304598796
 30
0.0
 10
120.5000037253671
 20
113.0926304598674
 30
0.0
 10
120.5000037253671
 20
113.0926304598674
 30
0.0
 10
133.0250037252871
 20
113.0926098361954
 30
0.0
 10
133.0250037252871
 20
113.0926098361954
 30
0.0
 10
133.0250037252871
 20
113.0926098361954
 30
0.0
 10
133.0250037253545
 20
114.5922265682319
 30
0.0
 10
133.0250037253545
 20
114.5922265682319
 30
0.0
 10
133.0250037253674
 20
114.8683689430784
 30
0.0
 10
133.2488613504057
 20
115.0922265680969
 30
0.0
 10
133.5250037252522
 20
115.0922265680847
 30
0.0
 10
133.5250037252522
 20
115.0922265680847
 30
0.0
 10
141.9380037231489
 20
115.0922265677067
 30
0.0
 10
141.9380037231489
 20
115.0922265677067
 30
0.0
 10
142.2141460979954
 20
115.0922265676945
 30
0.0
 10
142.4380037230145
 20
114.8683689426555
 30
0.0
 10
142.4380037230017
 20
114.592226567809
 30
0.0
 10
142.4380037230017
 20
114.592226567809
 30
0.0
 10
142.4380037223728
 20
100.592226571309
 30
0.0
 10
142.4380037223728
 20
100.592226571309
 30
0.0
 10
142.4380037223612
 20
100.3160841964632
 30
0.0
 10
142.2141460973223
 20
100.0922265714447
 30
0.0
 10
141.9380037224757
 20
100.0922265714563
 30
0.0
 10
141.9380037224757
 20
100.0922265714563
 30
0.0
 10
134.0000037214087
 20
100.0922281195629
 30
0.0
 10
134.0000037214087
 20
100.0922281195629
 30
0.0
  0
SPLINE
  5
8F
330
70
100
AcDbEntity
  8
Layer_0
 62
    18
420
        0
370
    25
100
AcDbSpline
210
0.0
220
0.0
230
1.0
 70
     9
 71
     3
 72
    32
 73
    28
 74
     0
 42
0.0000000001
 43
0.0000000001
 40
0.0
 40
0.0
 40
0.0
 40
0.0
 40
1.0
 40
1.0
 40
1.0
 40
2.0
 40
2.0
 40
2.0
 40
3.0
 40
3.0
 40
3.0
 40
4.0
 40
4.0
 40
4.0
 40
5.0
 40
5.0
 40
5.0
 40
6.0
 40
6.0
 40
6.0
 40
7.0
 40
7.0
 40
7.0
 40
8.0
 40
8.0
 40
8.0
 40
9.0
 40
9.0
 40
9.0
 40
9.0
 10
12.69999622257456
 20
171.7676137850327
 30
0.0
 10
12.69999622257456
 20
171.7676137850327
 30
0.0
 10
12.69999622257456
 20
97.56761277900192
 30
0.0
 10
12.69999622257456
 20
97.56761277900192
 30
0.0
 10
12.6999962164335
 20
97.01532845118114
 30
0.0
 10
13.14771079840426
 20
96.56761336840117
 30
0.0
 10
13.69999512622441
 20
96.56761275676316
 30
0.0
 10
13.69999512622441
 20
96.56761275676316
 30
0.0
 10
14.28749622257458
 20
96.56761211265646
 30
0.0
 10
14.28749622257458
 20
96.56761211265646
 30
0.0
 10
14.28749622257458
 20
96.56761211265646
 30
0.0
 10
202.1999962225745
 20
96.56761211265646
 30
0.0
 10
202.1999962225745
 20
96.56761211265646
 30
0.0
 10
202.7522809785459
 20
96.56761211879754
 30
0.0
 10
203.1999962287163
 20
97.01532737892385
 30
0.0
 10
203.1999962225752
 20
97.56761213489587
 30
0.0
 10
203.1999962225752
 20
97.56761213489587
 30
0.0
 10
203.1999962225739
 20
171.7676137850327
 30
0.0
 10
203.1999962225739
 20
171.7676137850327
 30
0.0
 10
203.1999962287163
 20
172.3198985410044
 30
0.0
 10
202.7522809785459
 20
172.7676138011307
 30
0.0
 10
202.1999962225745
 20
172.7676138072714
 30
0.0
 10
202.1999962225745
 20
172.7676138072714
 30
0.0
 10
13.69999622257459
 20
172.7676138072714
 30
0.0
 10
13.69999622257459
 20
172.7676138072714
 30
0.0
 10
13.14771146660258
 20
172.7676138011307
 30
0.0
 10
12.6999962164335
 20
172.3198985410047
 30
0.0
 10
12.69999622257456
 20
171.7676137850327
 30
0.0
  0
CIRCLE
  5
90
330
70
100
AcDbEntity
  8
Layer_0
 62
    18
420
        0
370
    25
100
AcDbCircle
 10
184.1499962225748
 20
98.94886216561335
 30
0.0
 40
1.100000000000038
  0
CIRCLE
  5
91
330
70
100
AcDbEntity
  8
Layer_0
 62
    18
420
        0
370
    25
100
AcDbCircle
 10
31.74999622257475
 20
98.94886216561335
 30
0.0
 40
1.099999999999958
  0
CIRCLE
  5
92
330
70
100
AcDbEntity
  8
Layer_0
 62
    18
420
        0
370
    25
100
AcDbCircle
 10
184.1499962225748
 20
170.3863637543149
 30
0.0
 40
1.100000000000038
  0
CIRCLE
  5
93
330
70
100
AcDbEntity
  8
Layer_0
 62
    18
420
        0
370
    25
100
AcDbCircle
 10
31.74999622257475
 20
170.3863637543149
 30
0.0
 40
1.099999999999958
  0
ENDSEC
  0
SECTION
  2
OBJECTS
  0
DICTIONARY
  5
C
330
0
100
AcDbDictionary
281
     1
  3
ACAD_COLOR
350
63
  3
ACAD_DETAILVIEWSTYLE
350
6A
  3
ACAD_GROUP
350
D
  3
ACAD_LAYOUT
350
62
  3
ACAD_MATERIAL
350
10
  3
ACAD_MLEADERSTYLE
350
66
  3
ACAD_MLINESTYLE
350
5F
  3
ACAD_PLOTSETTINGS
350
61
  3
ACAD_PLOTSTYLENAME
350
E
  3
ACAD_SCALELIST
350
42
  3
ACAD_SECTIONVIEWSTYLE
350
68
  3
ACAD_TABLESTYLE
350
64
  3
ACAD_VISUALSTYLE
350
29
  3
ACDB_RECOMPOSE_DATA
350
9C
  3
AcDbVariableDictionary
350
94
  0
DICTIONARY
  5
63
102
{ACAD_REACTORS
330
C
102
}
330
C
100
AcDbDictionary
281
     1
  0
DICTIONARY
  5
6A
102
{ACAD_REACTORS
330
C
102
}
330
C
100
AcDbDictionary
281
     1
  3
Imperial24
350
6B
  0
DICTIONARY
  5
D
102
{ACAD_REACTORS
330
C
102
}
330
C
100
AcDbDictionary
281
     1
  0
DICTIONARY
  5
62
102
{ACAD_REACTORS
330
C
102
}
330
C
100
AcDbDictionary
281
     1
  3
Layout1
350
6F
  3
Layout2
350
77
  3
Model
350
73
  0
DICTIONARY
  5
10
102
{ACAD_REACTORS
330
C
102
}
330
C
100
AcDbDictionary
281
     1
  3
ByBlock
350
19
  3
ByLayer
350
11
  3
Global
350
21
  0
DICTIONARY
  5
66
102
{ACAD_REACTORS
330
C
102
}
330
C
100
AcDbDictionary
281
     1
  3
Standard
350
67
  0
DICTIONARY
  5
5F
102
{ACAD_REACTORS
330
C
102
}
330
C
100
AcDbDictionary
281
     1
  3
Standard
350
60
  0
DICTIONARY
  5
61
102
{ACAD_REACTORS
330
C
102
}
330
C
100
AcDbDictionary
281
     1
  0
ACDBDICTIONARYWDFLT
  5
E
102
{ACAD_REACTORS
330
C
102
}
330
C
100
AcDbDictionary
281
     1
  3
Normal
350
F
100
AcDbDictionaryWithDefault
340
F
  0
DICTIONARY
  5
42
102
{ACAD_REACTORS
330
C
102
}
330
C
100
AcDbDictionary
281
     1
  3
A0
350
43
  3
A1
350
44
  3
A2
350
45
  3
A3
350
46
  3
A4
350
47
  3
A5
350
48
  3
A6
350
49
  3
A7
350
4A
  3
A8
350
4B
  3
A9
350
4C
  3
B0
350
4D
  3
B1
350
4E
  3
B2
350
4F
  3
B3
350
50
  3
B4
350
51
  3
B5
350
52
  3
B6
350
53
  0
DICTIONARY
  5
68
102
{ACAD_REACTORS
330
C
102
}
330
C
100
AcDbDictionary
281
     1
  3
Imperial24
350
69
  0
DICTIONARY
  5
64
102
{ACAD_REACTORS
330
C
102
}
330
C
100
AcDbDictionary
281
     1
  3
Standard
350
65
  0
DICTIONARY
  5
29
102
{ACAD_REACTORS
330
C
102
}
330
C
100
AcDbDictionary
281
     1
  3
2dWireframe
350
2F
  3
Basic
350
2E
  3
Brighten
350
35
  3
ColorChange
350
39
  3
Conceptual
350
32
  3
Dim
350
34
  3
EdgeColorOff
350
41
  3
Facepattern
350
38
  3
Flat
350
2A
  3
FlatWithEdges
350
2B
  3
Gouraud
350
2C
  3
GouraudWithEdges
350
2D
  3
Hidden
350
31
  3
JitterOff
350
3F
  3
Linepattern
350
37
  3
OverhangOff
350
40
  3
Realistic
350
33
  3
Shaded
350
3E
  3
Shaded with edges
350
3D
  3
Shades of Gray
350
3A
  3
Sketchy
350
3B
  3
Thicken
350
36
  3
Wireframe
350
30
  3
X-Ray
350
3C
  0
XRECORD
  5
9C
102
{ACAD_REACTORS
330
C
102
}
330
C
100
AcDbXrecord
280
     1
 90
        1
330
65
  0
DICTIONARY
  5
94
102
{ACAD_REACTORS
330
C
102
}
330
C
100
AcDbDictionary
281
     1
  3
CANNOSCALE
350
99
  3
CMLEADERSTYLE
350
96
  3
CTABLESTYLE
350
95
  3
CVIEWDETAILSTYLE
350
97
  3
CVIEWSECTIONSTYLE
350
98
  0
ACDBDETAILVIEWSTYLE
  5
6B
102
{ACAD_REACTORS
330
6A
102
}
330
6A
100
AcDbModelDocViewStyle
 70
     0
  3
Imperial24
290
     1
300
Imperial24
 90
        0
100
AcDbDetailViewStyle
 70
     0
 71
     0
 90
        3
 71
     1
340
55
 62
   256
 40
0.24
340
0
 62
   256
 40
0.24
300

 40
0.36
280
     3
 71
     2
340
5D
 90
       25
 62
   256
 71
     3
340
55
 62
   256
 40
0.24
 90
        1
 40
0.75
 90
        1
300
%<\AcVar ViewType \f "%tc1">% %<\AcVar ViewDetailId>%\PSCALE %<\AcVar ViewScale \f "%sn">%
 71
     4
340
5D
 90
       25
 62
   256
340
5D
 90
       25
 62
   256
280
     0
  0
LAYOUT
  5
6F
102
{ACAD_REACTORS
330
62
102
}
330
62
100
AcDbPlotSettings
  1

  2

  4

  6

 40
0.0
 41
0.0
 42
0.0
 43
0.0
 44
0.0
 45
0.0
 46
0.0
 47
0.0
 48
0.0
 49
0.0
140
0.0
141
0.0
142
1.0
143
1.0
 70
   688
 72
     0
 73
     0
 74
     5
  7

 75
    16
147
1.0
 76
     0
 77
     2
 78
   300
148
0.0
149
0.0
100
AcDbLayout
  1
Layout1
 70
     1
 71
     1
 10
0.0
 20
0.0
 11
12.0
 21
9.0
 12
0.0
 22
0.0
 32
0.0
 14
0.0
 24
0.0
 34
0.0
 15
0.0
 25
0.0
 35
0.0
146
0.0
 13
0.0
 23
0.0
 33
0.0
 16
1.0
 26
0.0
 36
0.0
 17
0.0
 27
1.0
 37
0.0
 76
     0
330
6C
  0
LAYOUT
  5
77
102
{ACAD_REACTORS
330
62
102
}
330
62
100
AcDbPlotSettings
  1

  2

  4

  6

 40
0.0
 41
0.0
 42
0.0
 43
0.0
 44
0.0
 45
0.0
 46
0.0
 47
0.0
 48
0.0
 49
0.0
140
0.0
141
0.0
142
1.0
143
1.0
 70
   688
 72
     0
 73
     0
 74
     5
  7

 75
    16
147
1.0
 76
     0
 77
     2
 78
   300
148
0.0
149
0.0
100
AcDbLayout
  1
Layout2
 70
     1
 71
     2
 10
0.0
 20
0.0
 11
12.0
 21
9.0
 12
0.0
 22
0.0
 32
0.0
 14
0.0
 24
0.0
 34
0.0
 15
0.0
 25
0.0
 35
0.0
146
0.0
 13
0.0
 23
0.0
 33
0.0
 16
1.0
 26
0.0
 36
0.0
 17
0.0
 27
1.0
 37
0.0
 76
     0
330
74
  0
LAYOUT
  5
73
102
{ACAD_REACTORS
330
62
102
}
330
62
100
AcDbPlotSettings
  1

  2

  4

  6

 40
0.0
 41
0.0
 42
0.0
 43
0.0
 44
0.0
 45
0.0
 46
0.0
 47
0.0
 48
0.0
 49
0.0
140
0.0
141
0.0
142
1.0
143
1.0
 70
  1712
 72
     0
 73
     0
 74
     0
  7

 75
     0
147
1.0
 76
     0
 77
     2
 78
   300
148
0.0
149
0.0
100
AcDbLayout
  1
Model
 70
     1
 71
     0
 10
0.0
 20
0.0
 11
12.0
 21
9.0
 12
0.0
 22
0.0
 32
0.0
 14
0.0
 24
0.0
 34
0.0
 15
0.0
 25
0.0
 35
0.0
146
0.0
 13
0.0
 23
0.0
 33
0.0
 16
1.0
 26
0.0
 36
0.0
 17
0.0
 27
1.0
 37
0.0
 76
     0
330
70
  0
MATERIAL
  5
19
102
{ACAD_XDICTIONARY
360
1A
102
}
102
{ACAD_REACTORS
330
10
102
}
330
10
100
AcDbMaterial
  1
ByBlock
 72
     0
 43
0.0208333333333333
 43
0.0
 43
0.0
 43
0.0
 43
0.0
 43
0.0208333333333333
 43
0.0
 43
0.0
 43
0.0
 43
0.0
 43
1.0
 43
0.0
 43
0.0
 43
0.0
 43
0.0
 43
1.0
 77
     0
 47
0.0208333333333333
 47
0.0
 47
0.0
 47
0.0
 47
0.0
 47
0.0208333333333333
 47
0.0
 47
0.0
 47
0.0
 47
0.0
 47
1.0
 47
0.0
 47
0.0
 47
0.0
 47
0.0
 47
1.0
171
     0
 49
0.0208333333333333
 49
0.0
 49
0.0
 49
0.0
 49
0.0
 49
0.0208333333333333
 49
0.0
 49
0.0
 49
0.0
 49
0.0
 49
1.0
 49
0.0
 49
0.0
 49
0.0
 49
0.0
 49
1.0
175
     0
142
0.0208333333333333
142
0.0
142
0.0
142
0.0
142
0.0
142
0.0208333333333333
142
0.0
142
0.0
142
0.0
142
0.0
142
1.0
142
0.0
142
0.0
142
0.0
142
0.0
142
1.0
179
     0
144
0.0208333333333333
144
0.0
144
0.0
144
0.0
144
0.0
144
0.0208333333333333
144
0.0
144
0.0
144
0.0
144
0.0
144
1.0
144
0.0
144
0.0
144
0.0
144
0.0
144
1.0
147
0.0208333333333333
147
0.0
147
0.0
147
0.0
147
0.0
147
0.0208333333333333
147
0.0
147
0.0
147
0.0
147
0.0
147
1.0
147
0.0
147
0.0
147
0.0
147
0.0
147
1.0
  0
MATERIAL
  5
11
102
{ACAD_XDICTIONARY
360
12
102
}
102
{ACAD_REACTORS
330
10
102
}
330
10
100
AcDbMaterial
  1
ByLayer
 72
     0
 43
0.0208333333333333
 43
0.0
 43
0.0
 43
0.0
 43
0.0
 43
0.0208333333333333
 43
0.0
 43
0.0
 43
0.0
 43
0.0
 43
1.0
 43
0.0
 43
0.0
 43
0.0
 43
0.0
 43
1.0
 77
     0
 47
0.0208333333333333
 47
0.0
 47
0.0
 47
0.0
 47
0.0
 47
0.0208333333333333
 47
0.0
 47
0.0
 47
0.0
 47
0.0
 47
1.0
 47
0.0
 47
0.0
 47
0.0
 47
0.0
 47
1.0
171
     0
 49
0.0208333333333333
 49
0.0
 49
0.0
 49
0.0
 49
0.0
 49
0.0208333333333333
 49
0.0
 49
0.0
 49
0.0
 49
0.0
 49
1.0
 49
0.0
 49
0.0
 49
0.0
 49
0.0
 49
1.0
175
     0
142
0.0208333333333333
142
0.0
142
0.0
142
0.0
142
0.0
142
0.0208333333333333
142
0.0
142
0.0
142
0.0
142
0.0
142
1.0
142
0.0
142
0.0
142
0.0
142
0.0
142
1.0
179
     0
144
0.0208333333333333
144
0.0
144
0.0
144
0.0
144
0.0
144
0.0208333333333333
144
0.0
144
0.0
144
0.0
144
0.0
144
1.0
144
0.0
144
0.0
144
0.0
144
0.0
144
1.0
147
0.0208333333333333
147
0.0
147
0.0
147
0.0
147
0.0
147
0.0208333333333333
147
0.0
147
0.0
147
0.0
147
0.0
147
1.0
147
0.0
147
0.0
147
0.0
147
0.0
147
1.0
  0
MATERIAL
  5
21
102
{ACAD_XDICTIONARY
360
22
102
}
102
{ACAD_REACTORS
330
10
102
}
330
10
100
AcDbMaterial
  1
Global
 72
     0
 43
0.0208333333333333
 43
0.0
 43
0.0
 43
0.0
 43
0.0
 43
0.0208333333333333
 43
0.0
 43
0.0
 43
0.0
 43
0.0
 43
1.0
 43
0.0
 43
0.0
 43
0.0
 43
0.0
 43
1.0
 77
     0
 47
0.0208333333333333
 47
0.0
 47
0.0
 47
0.0
 47
0.0
 47
0.0208333333333333
 47
0.0
 47
0.0
 47
0.0
 47
0.0
 47
1.0
 47
0.0
 47
0.0
 47
0.0
 47
0.0
 47
1.0
171
     0
 49
0.0208333333333333
 49
0.0
 49
0.0
 49
0.0
 49
0.0
 49
0.0208333333333333
 49
0.0
 49
0.0
 49
0.0
 49
0.0
 49
1.0
 49
0.0
 49
0.0
 49
0.0
 49
0.0
 49
1.0
175
     0
142
0.0208333333333333
142
0.0
142
0.0
142
0.0
142
0.0
142
0.0208333333333333
142
0.0
142
0.0
142
0.0
142
0.0
142
1.0
142
0.0
142
0.0
142
0.0
142
0.0
142
1.0
179
     0
144
0.0208333333333333
144
0.0
144
0.0
144
0.0
144
0.0
144
0.0208333333333333
144
0.0
144
0.0
144
0.0
144
0.0
144
1.0
144
0.0
144
0.0
144
0.0
144
0.0
144
1.0
147
0.0208333333333333
147
0.0
147
0.0
147
0.0
147
0.0
147
0.0208333333333333
147
0.0
147
0.0
147
0.0
147
0.0
147
1.0
147
0.0
147
0.0
147
0.0
147
0.0
147
1.0
  0
MLEADERSTYLE
  5
67
102
{ACAD_REACTORS
330
66
102
}
330
66
100
AcDbMLeaderStyle
179
     2
170
     2
171
     1
172
     0
 90
        2
 40
0.0
 41
0.0
173
     1
 91
-1056964608
340
5B
 92
       -2
290
     1
 42
0.09
291
     1
 43
0.36
  3
Standard
 44
0.18
300

342
55
174
     1
178
     6
175
     1
176
     0
 93
-1056964608
 45
0.18
292
     0
297
     0
 46
0.18
 94
-1056964608
 47
1.0
 49
1.0
140
1.0
293
     1
141
0.0
294
     1
177
     0
142
1.0
295
     1
296
     0
143
0.125
271
     0
272
     9
273
     9
298
     1
  0
MLINESTYLE
  5
60
102
{ACAD_REACTORS
330
5F
102
}
330
5F
100
AcDbMlineStyle
  2
STANDARD
 70
     0
  3

 62
   256
 51
90.0
 52
90.0
 71
     2
 49
0.5
 62
   256
  6
BYLAYER
 49
-0.5
 62
   256
  6
BYLAYER
  0
ACDBPLACEHOLDER
  5
F
102
{ACAD_REACTORS
330
E
102
}
330
E
  0
SCALE
  5
43
102
{ACAD_REACTORS
330
42
102
}
330
42
100
AcDbScale
 70
     0
300
1:1
140
1.0
141
1.0
290
     1
  0
SCALE
  5
44
102
{ACAD_REACTORS
330
42
102
}
330
42
100
AcDbScale
 70
     0
300
1/128" = 1'-0"
140
0.0078125
141
12.0
290
     0
  0
SCALE
  5
45
102
{ACAD_REACTORS
330
42
102
}
330
42
100
AcDbScale
 70
     0
300
1/64" = 1'-0"
140
0.015625
141
12.0
290
     0
  0
SCALE
  5
46
102
{ACAD_REACTORS
330
42
102
}
330
42
100
AcDbScale
 70
     0
300
1/32" = 1'-0"
140
0.03125
141
12.0
290
     0
  0
SCALE
  5
47
102
{ACAD_REACTORS
330
42
102
}
330
42
100
AcDbScale
 70
     0
300
1/16" = 1'-0"
140
0.0625
141
12.0
290
     0
  0
SCALE
  5
48
102
{ACAD_REACTORS
330
42
102
}
330
42
100
AcDbScale
 70
     0
300
3/32" = 1'-0"
140
0.09375
141
12.0
290
     0
  0
SCALE
  5
49
102
{ACAD_REACTORS
330
42
102
}
330
42
100
AcDbScale
 70
     0
300
1/8" = 1'-0"
140
0.125
141
12.0
290
     0
  0
SCALE
  5
4A
102
{ACAD_REACTORS
330
42
102
}
330
42
100
AcDbScale
 70
     0
300
3/16" = 1'-0"
140
0.1875
141
12.0
290
     0
  0
SCALE
  5
4B
102
{ACAD_REACTORS
330
42
102
}
330
42
100
AcDbScale
 70
     0
300
1/4" = 1'-0"
140
0.25
141
12.0
290
     0
  0
SCALE
  5
4C
102
{ACAD_REACTORS
330
42
102
}
330
42
100
AcDbScale
 70
     0
300
3/8" = 1'-0"
140
0.375
141
12.0
290
     0
  0
SCALE
  5
4D
102
{ACAD_REACTORS
330
42
102
}
330
42
100
AcDbScale
 70
     0
300
1/2" = 1'-0"
140
0.5
141
12.0
290
     0
  0
SCALE
  5
4E
102
{ACAD_REACTORS
330
42
102
}
330
42
100
AcDbScale
 70
     0
300
3/4" = 1'-0"
140
0.75
141
12.0
290
     0
  0
SCALE
  5
4F
102
{ACAD_REACTORS
330
42
102
}
330
42
100
AcDbScale
 70
     0
300
1" = 1'-0"
140
1.0
141
12.0
290
     0
  0
SCALE
  5
50
102
{ACAD_REACTORS
330
42
102
}
330
42
100
AcDbScale
 70
     0
300
1-1/2" = 1'-0"
140
1.5
141
12.0
290
     0
  0
SCALE
  5
51
102
{ACAD_REACTORS
330
42
102
}
330
42
100
AcDbScale
 70
     0
300
3" = 1'-0"
140
3.0
141
12.0
290
     0
  0
SCALE
  5
52
102
{ACAD_REACTORS
330
42
102
}
330
42
100
AcDbScale
 70
     0
300
6" = 1'-0"
140
6.0
141
12.0
290
     0
  0
SCALE
  5
53
102
{ACAD_REACTORS
330
42
102
}
330
42
100
AcDbScale
 70
     0
300
1'-0" = 1'-0"
140
12.0
141
12.0
290
     0
  0
ACDBSECTIONVIEWSTYLE
  5
69
102
{ACAD_REACTORS
330
68
102
}
330
68
100
AcDbModelDocViewStyle
 70
     0
  3
Imperial24
290
     1
300
Imperial24
 90
        0
100
AcDbSectionViewStyle
 70
     0
 71
     0
 90
       78
 71
     1
340
55
 62
   256
 40
0.24
340
0
340
0
 62
   256
 40
0.24
300
I, O, Q, S, X, Z
 40
0.48
 90
        3
 40
0.18
 90
        1
 71
     2
340
5D
 90
       25
 62
   256
340
5D
 90
       50
 62
   256
 40
0.24
 40
0.0
 40
0.24
 71
     3
340
55
 62
   256
 40
0.24
 90
        1
 40
0.75
 90
        1
300
%<\AcVar ViewType \f "%tc1">% %<\AcVar ViewSectionStartId>%-%<\AcVar ViewSectionEndId>%\PSCALE %<\AcVar ViewScale \f "%sn">%
 71
     4
 62
   256
 62
   257
300
ANSI31
 40
1.0
 90
        0
290
     0
290
     0
 90
        6
 40
0.0
 40
1.570796326794896
 40
0.2617993877991494
 40
1.308996938995747
 40
-0.2617993877991494
 40
1.832595714594046
  0
TABLESTYLE
  5
65
102
{ACAD_XDICTIONARY
360
9A
102
}
102
{ACAD_REACTORS
330
64
102
}
330
64
100
AcDbTableStyle
280
     0
  3
Standard
 70
     0
 71
     0
 40
0.06
 41
0.06
280
     0
281
     0
  7
Standard
140
0.18
170
     2
 62
     0
 63
     7
283
     0
 90
      512
 91
        0
  1

274
    -2
284
     1
 64
     0
275
    -2
285
     1
 65
     0
276
    -2
286
     1
 66
     0
277
    -2
287
     1
 67
     0
278
    -2
288
     1
 68
     0
279
    -2
289
     1
 69
     0
  7
Standard
140
0.25
170
     5
 62
     0
 63
     7
283
     0
 90
      512
 91
        0
  1

274
    -2
284
     1
 64
     0
275
    -2
285
     1
 65
     0
276
    -2
286
     1
 66
     0
277
    -2
287
     1
 67
     0
278
    -2
288
     1
 68
     0
279
    -2
289
     1
 69
     0
  7
Standard
140
0.18
170
     5
 62
     0
 63
     7
283
     0
 90
      512
 91
        0
  1

274
    -2
284
     1
 64
     0
275
    -2
285
     1
 65
     0
276
    -2
286
     1
 66
     0
277
    -2
287
     1
 67
     0
278
    -2
288
     1
 68
     0
279
    -2
289
     1
 69
     0
  0
VISUALSTYLE
  5
2F
102
{ACAD_REACTORS
330
29
102
}
330
29
100
AcDbVisualStyle
  2
2dWireframe
 70
     4
177
     3
291
     0
 70
    58
 90
        0
176
     1
 90
        2
176
     1
 90
        0
176
     1
 90
        0
176
     1
 40
0.6
176
     1
 40
30.0
176
     1
 62
     7
420
 16777215
176
     1
 90
        1
176
     1
 90
        4
176
     1
 62
     7
176
     1
 62
   257
176
     1
 90
        1
176
     1
 90
        1
176
     1
 40
1.0
176
     1
 90
        0
176
     1
 62
   257
176
     1
 40
1.0
176
     1
 90
        1
176
     1
 90
        6
176
     1
 90
        2
176
     1
 62
     7
176
     1
 90
        5
176
     1
 90
        0
176
     1
 90
        0
176
     1
290
     0
176
     1
 90
        1
176
     1
 40
0.0
176
     1
 90
        0
176
     1
290
     1
176
     1
290
     1
176
     1
290
     0
176
     1
290
     0
176
     1
290
     0
176
     1
290
     0
176
     1
290
     0
176
     1
290
     0
176
     1
290
     0
176
     1
 90
       50
176
     1
 40
0.0
176
     1
 40
1.0
176
     1
 90
        0
176
     1
 62
    18
420
        0
176
     1
 90
       50
176
     1
 90
        3
176
     1
 62
     5
420
      255
176
     1
290
     0
176
     1
 90
       50
176
     1
 90
       50
176
     1
 90
       50
176
     1
290
     0
176
     1
 90
       50
176
     1
 62
   256
176
     0
 40
1.0
176
     0
 90
        2
176
     1
  1
strokes_ogs.tif
176
     1
290
     0
176
     1
 40
1.0
176
     1
 40
1.0
176
     1
  0
VISUALSTYLE
  5
2E
102
{ACAD_REACTORS
330
29
102
}
330
29
100
AcDbVisualStyle
  2
Basic
 70
     7
177
     3
291
     1
 70
    58
 90
        1
176
     1
 90
        0
176
     1
 90
        1
176
     1
 90
        0
176
     1
 40
0.6
176
     1
 40
30.0
176
     1
 62
     7
420
 16777215
176
     1
 90
        0
176
     1
 90
        4
176
     1
 62
     7
176
     1
 62
   257
176
     1
 90
        1
176
     1
 90
        1
176
     1
 40
1.0
176
     1
 90
        8
176
     1
 62
     7
176
     1
 40
1.0
176
     1
 90
        1
176
     1
 90
        6
176
     1
 90
        2
176
     1
 62
     7
176
     1
 90
        5
176
     1
 90
        0
176
     1
 90
        0
176
     1
290
     0
176
     1
 90
        1
176
     1
 40
0.0
176
     1
 90
        0
176
     1
290
     0
176
     1
290
     1
176
     1
290
     1
176
     1
290
     0
176
     1
290
     0
176
     1
290
     0
176
     1
290
     0
176
     1
290
     0
176
     1
290
     0
176
     1
 90
       50
176
     1
 40
0.0
176
     1
 40
1.0
176
     1
 90
        0
176
     1
 62
    18
420
        0
176
     1
 90
       50
176
     1
 90
        3
176
     1
 62
     5
420
      255
176
     1
290
     0
176
     1
 90
       50
176
     1
 90
       50
176
     1
 90
       50
176
     1
290
     0
176
     1
 90
       50
176
     1
 62
   256
176
     0
 40
1.0
176
     0
 90
        2
176
     1
  1
strokes_ogs.tif
176
     1
290
     0
176
     1
 40
1.0
176
     1
 40
1.0
176
     1
  0
VISUALSTYLE
  5
35
102
{ACAD_REACTORS
330
29
102
}
330
29
100
AcDbVisualStyle
  2
Brighten
 70
    12
177
     3
291
     1
 70
    58
 90
        2
176
     1
 90
        2
176
     1
 90
        0
176
     1
 90
        0
176
     1
 40
0.6
176
     1
 40
30.0
176
     1
 62
     7
420
 16777215
176
     1
 90
        1
176
     1
 90
        4
176
     1
 62
     7
176
     1
 62
   257
176
     1
 90
        1
176
     1
 90
        1
176
     1
 40
1.0
176
     1
 90
        8
176
     1
 62
     7
176
     1
 40
1.0
176
     1
 90
        1
176
     1
 90
        6
176
     1
 90
        2
176
     1
 62
     7
176
     1
 90
        5
176
     1
 90
        0
176
     1
 90
        0
176
     1
290
     0
176
     1
 90
        1
176
     1
 40
50.0
176
     1
 90
        0
176
     1
290
     0
176
     1
290
     1
176
     1
290
     1
176
     1
290
     0
176
     1
290
     0
176
     1
290
     0
176
     1
290
     0
176
     1
290
     0
176
     1
290
     0
176
     1
 90
       50
176
     1
 40
0.0
176
     1
 40
1.0
176
     1
 90
        0
176
     1
 62
    18
420
        0
176
     1
 90
       50
176
     1
 90
        3
176
     1
 62
     5
420
      255
176
     1
290
     0
176
     1
 90
       50
176
     1
 90
       50
176
     1
 90
       50
176
     1
290
     0
176
     1
 90
       50
176
     1
 62
   256
176
     0
 40
1.0
176
     0
 90
        2
176
     1
  1
strokes_ogs.tif
176
     1
290
     0
176
     1
 40
1.0
176
     1
 40
1.0
176
     1
  0
VISUALSTYLE
  5
39
102
{ACAD_REACTORS
330
29
102
}
330
29
100
AcDbVisualStyle
  2
ColorChange
 70
    16
177
     3
291
     1
 70
    58
 90
        2
176
     1
 90
        2
176
     1
 90
        3
176
     1
 90
        0
176
     1
 40
0.6
176
     1
 40
30.0
176
     1
 62
     8
420
  8421504
176
     1
 90
        1
176
     1
 90
        4
176
     1
 62
     7
176
     1
 62
   257
176
     1
 90
        1
176
     1
 90
        1
176
     1
 40
1.0
176
     1
 90
        8
176
     1
 62
     8
420
  8421504
176
     1
 40
1.0
176
     1
 90
        1
176
     1
 90
        6
176
     1
 90
        2
176
     1
 62
     7
176
     1
 90
        5
176
     1
 90
        0
176
     1
 90
        0
176
     1
290
     0
176
     1
 90
        1
176
     1
 40
0.0
176
     1
 90
        0
176
     1
290
     0
176
     1
290
     1
176
     1
290
     1
176
     1
290
     0
176
     1
290
     0
176
     1
290
     0
176
     1
290
     0
176
     1
290
     0
176
     1
290
     0
176
     1
 90
       50
176
     1
 40
0.0
176
     1
 40
1.0
176
     1
 90
        0
176
     1
 62
    18
420
        0
176
     1
 90
       50
176
     1
 90
        3
176
     1
 62
     5
420
      255
176
     1
290
     0
176
     1
 90
       50
176
     1
 90
       50
176
     1
 90
       50
176
     1
290
     0
176
     1
 90
       50
176
     1
 62
   256
176
     0
 40
1.0
176
     0
 90
        2
176
     1
  1
strokes_ogs.tif
176
     1
290
     0
176
     1
 40
1.0
176
     1
 40
1.0
176
     1
  0
VISUALSTYLE
  5
32
102
{ACAD_REACTORS
330
29
102
}
330
29
100
AcDbVisualStyle
  2
Conceptual
 70
     9
177
     3
291
     0
 70
    58
 90
        3
176
     1
 90
        2
176
     1
 90
        0
176
     1
 90
        0
176
     1
 40
0.6
176
     1
 40
30.0
176
     1
 62
     7
420
 16777215
176
     1
 90
        2
176
     1
 90
        2
176
     1
 62
     7
176
     1
 62
   257
176
     1
 90
        1
176
     1
 90
        1
176
     1
 40
179.0
176
     1
 90
        8
176
     1
 62
     7
176
     1
 40
1.0
176
     1
 90
        1
176
     1
 90
        6
176
     1
 90
        2
176
     1
 62
     7
176
     1
 90
        3
176
     1
 90
        0
176
     1
 90
        0
176
     1
290
     0
176
     1
 90
        1
176
     1
 40
0.0
176
     1
 90
        0
176
     1
290
     0
176
     1
290
     1
176
     1
290
     1
176
     1
290
     0
176
     1
290
     0
176
     1
290
     0
176
     1
290
     0
176
     1
290
     0
176
     1
290
     0
176
     1
 90
       50
176
     1
 40
0.0
176
     1
 40
1.0
176
     1
 90
        0
176
     1
 62
    18
420
        0
176
     1
 90
       50
176
     1
 90
        3
176
     1
 62
     5
420
      255
176
     1
290
     0
176
     1
 90
       50
176
     1
 90
       50
176
     1
 90
       50
176
     1
290
     0
176
     1
 90
       50
176
     1
 62
   256
176
     0
 40
1.0
176
     0
 90
        2
176
     1
  1
strokes_ogs.tif
176
     1
290
     0
176
     1
 40
1.0
176
     1
 40
1.0
176
     1
  0
VISUALSTYLE
  5
34
102
{ACAD_REACTORS
330
29
102
}
330
29
100
AcDbVisualStyle
  2
Dim
 70
    11
177
     3
291
     1
 70
    58
 90
        2
176
     1
 90
        2
176
     1
 90
        0
176
     1
 90
        0
176
     1
 40
0.6
176
     1
 40
30.0
176
     1
 62
     7
420
 16777215
176
     1
 90
        1
176
     1
 90
        4
176
     1
 62
     7
176
     1
 62
   257
176
     1
 90
        1
176
     1
 90
        1
176
     1
 40
1.0
176
     1
 90
        8
176
     1
 62
     7
176
     1
 40
1.0
176
     1
 90
        1
176
     1
 90
        6
176
     1
 90
        2
176
     1
 62
     7
176
     1
 90
        5
176
     1
 90
        0
176
     1
 90
        0
176
     1
290
     0
176
     1
 90
        1
176
     1
 40
-50.0
176
     1
 90
        0
176
     1
290
     0
176
     1
290
     1
176
     1
290
     1
176
     1
290
     0
176
     1
290
     0
176
     1
290
     0
176
     1
290
     0
176
     1
290
     0
176
     1
290
     0
176
     1
 90
       50
176
     1
 40
0.0
176
     1
 40
1.0
176
     1
 90
        0
176
     1
 62
    18
420
        0
176
     1
 90
       50
176
     1
 90
        3
176
     1
 62
     5
420
      255
176
     1
290
     0
176
     1
 90
       50
176
     1
 90
       50
176
     1
 90
       50
176
     1
290
     0
176
     1
 90
       50
176
     1
 62
   256
176
     0
 40
1.0
176
     0
 90
        2
176
     1
  1
strokes_ogs.tif
176
     1
290
     0
176
     1
 40
1.0
176
     1
 40
1.0
176
     1
  0
VISUALSTYLE
  5
41
102
{ACAD_REACTORS
330
29
102
}
330
29
100
AcDbVisualStyle
  2
EdgeColorOff
 70
    22
177
     3
291
     1
 70
    58
 90
        2
176
     0
 90
        2
176
     0
 90
        0
176
     0
 90
        0
176
     0
 40
0.6
176
     0
 40
30.0
176
     0
 62
     7
420
 16777215
176
     0
 90
        1
176
     0
 90
        4
176
     0
 62
     7
176
     0
 62
   257
176
     0
 90
        1
176
     0
 90
        1
176
     0
 40
1.0
176
     0
 90
        8
176
     2
 62
     7
176
     0
 40
1.0
176
     0
 90
        1
176
     0
 90
        6
176
     0
 90
        2
176
     0
 62
     7
176
     0
 90
        5
176
     0
 90
        0
176
     0
 90
        0
176
     0
290
     0
176
     0
 90
        1
176
     0
 40
0.0
176
     0
 90
        0
176
     0
290
     0
176
     0
290
     1
176
     0
290
     1
176
     0
290
     0
176
     0
290
     0
176
     0
290
     0
176
     0
290
     0
176
     0
290
     0
176
     0
290
     0
176
     0
 90
       50
176
     0
 40
0.0
176
     0
 40
1.0
176
     0
 90
        0
176
     0
 62
    18
420
        0
176
     0
 90
       50
176
     0
 90
        3
176
     0
 62
     5
420
      255
176
     0
290
     0
176
     0
 90
       50
176
     0
 90
       50
176
     0
 90
       50
176
     0
290
     0
176
     0
 90
       50
176
     0
 62
   256
176
     0
 40
1.0
176
     0
 90
        2
176
     0
  1
strokes_ogs.tif
176
     0
290
     0
176
     0
 40
1.0
176
     0
 40
1.0
176
     0
  0
VISUALSTYLE
  5
38
102
{ACAD_REACTORS
330
29
102
}
330
29
100
AcDbVisualStyle
  2
Facepattern
 70
    15
177
     3
291
     1
 70
    58
 90
        2
176
     1
 90
        2
176
     1
 90
        0
176
     1
 90
        0
176
     1
 40
0.6
176
     1
 40
30.0
176
     1
 62
     7
420
 16777215
176
     1
 90
        1
176
     1
 90
        4
176
     1
 62
     7
176
     1
 62
   257
176
     1
 90
        1
176
     1
 90
        1
176
     1
 40
1.0
176
     1
 90
        8
176
     1
 62
     7
176
     1
 40
1.0
176
     1
 90
        1
176
     1
 90
        6
176
     1
 90
        2
176
     1
 62
     7
176
     1
 90
        5
176
     1
 90
        0
176
     1
 90
        0
176
     1
290
     0
176
     1
 90
        1
176
     1
 40
0.0
176
     1
 90
        0
176
     1
290
     0
176
     1
290
     1
176
     1
290
     1
176
     1
290
     0
176
     1
290
     0
176
     1
290
     0
176
     1
290
     0
176
     1
290
     0
176
     1
290
     0
176
     1
 90
       50
176
     1
 40
0.0
176
     1
 40
1.0
176
     1
 90
        0
176
     1
 62
    18
420
        0
176
     1
 90
       50
176
     1
 90
        3
176
     1
 62
     5
420
      255
176
     1
290
     0
176
     1
 90
       50
176
     1
 90
       50
176
     1
 90
       50
176
     1
290
     0
176
     1
 90
       50
176
     1
 62
   256
176
     0
 40
1.0
176
     0
 90
        2
176
     1
  1
strokes_ogs.tif
176
     1
290
     0
176
     1
 40
1.0
176
     1
 40
1.0
176
     1
  0
VISUALSTYLE
  5
2A
102
{ACAD_REACTORS
330
29
102
}
330
29
100
AcDbVisualStyle
  2
Flat
 70
     0
177
     3
291
     1
 70
    58
 90
        2
176
     1
 90
        1
176
     1
 90
        1
176
     1
 90
        2
176
     1
 40
0.6
176
     1
 40
30.0
176
     1
 62
     7
420
 16777215
176
     1
 90
        0
176
     1
 90
        0
176
     1
 62
     7
176
     1
 62
   257
176
     1
 90
        1
176
     1
 90
        1
176
     1
 40
1.0
176
     1
 90
        8
176
     1
 62
     7
176
     1
 40
1.0
176
     1
 90
        1
176
     1
 90
        6
176
     1
 90
        2
176
     1
 62
     7
176
     1
 90
        5
176
     1
 90
        0
176
     1
 90
        0
176
     1
290
     0
176
     1
 90
       13
176
     1
 40
0.0
176
     1
 90
        0
176
     1
290
     0
176
     1
290
     1
176
     1
290
     1
176
     1
290
     0
176
     1
290
     0
176
     1
290
     0
176
     1
290
     0
176
     1
290
     0
176
     1
290
     0
176
     1
 90
       50
176
     1
 40
0.0
176
     1
 40
1.0
176
     1
 90
        0
176
     1
 62
    18
420
        0
176
     1
 90
       50
176
     1
 90
        3
176
     1
 62
     5
420
      255
176
     1
290
     0
176
     1
 90
       50
176
     1
 90
       50
176
     1
 90
       50
176
     1
290
     0
176
     1
 90
       50
176
     1
 62
   256
176
     0
 40
1.0
176
     0
 90
        2
176
     1
  1
strokes_ogs.tif
176
     1
290
     0
176
     1
 40
1.0
176
     1
 40
1.0
176
     1
  0
VISUALSTYLE
  5
2B
102
{ACAD_REACTORS
330
29
102
}
330
29
100
AcDbVisualStyle
  2
FlatWithEdges
 70
     1
177
     3
291
     1
 70
    58
 90
        2
176
     1
 90
        1
176
     1
 90
        1
176
     1
 90
        2
176
     1
 40
0.6
176
     1
 40
30.0
176
     1
 62
     7
420
 16777215
176
     1
 90
        1
176
     1
 90
        0
176
     1
 62
     7
176
     1
 62
   257
176
     1
 90
        1
176
     1
 90
        1
176
     1
 40
1.0
176
     1
 90
        0
176
     1
 62
   257
176
     1
 40
1.0
176
     1
 90
        1
176
     1
 90
        6
176
     1
 90
        2
176
     1
 62
     7
176
     1
 90
        5
176
     1
 90
        0
176
     1
 90
        0
176
     1
290
     0
176
     1
 90
       13
176
     1
 40
0.0
176
     1
 90
        0
176
     1
290
     0
176
     1
290
     1
176
     1
290
     1
176
     1
290
     0
176
     1
290
     0
176
     1
290
     0
176
     1
290
     0
176
     1
290
     0
176
     1
290
     0
176
     1
 90
       50
176
     1
 40
0.0
176
     1
 40
1.0
176
     1
 90
        0
176
     1
 62
    18
420
        0
176
     1
 90
       50
176
     1
 90
        3
176
     1
 62
     5
420
      255
176
     1
290
     0
176
     1
 90
       50
176
     1
 90
       50
176
     1
 90
       50
176
     1
290
     0
176
     1
 90
       50
176
     1
 62
   256
176
     0
 40
1.0
176
     0
 90
        2
176
     1
  1
strokes_ogs.tif
176
     1
290
     0
176
     1
 40
1.0
176
     1
 40
1.0
176
     1
  0
VISUALSTYLE
  5
2C
102
{ACAD_REACTORS
330
29
102
}
330
29
100
AcDbVisualStyle
  2
Gouraud
 70
     2
177
     3
291
     1
 70
    58
 90
        2
176
     1
 90
        2
176
     1
 90
        1
176
     1
 90
        2
176
     1
 40
0.6
176
     1
 40
30.0
176
     1
 62
     7
420
 16777215
176
     1
 90
        0
176
     1
 90
        0
176
     1
 62
     7
176
     1
 62
   257
176
     1
 90
        1
176
     1
 90
        1
176
     1
 40
1.0
176
     1
 90
        0
176
     1
 62
     7
176
     1
 40
1.0
176
     1
 90
        1
176
     1
 90
        6
176
     1
 90
        2
176
     1
 62
     7
176
     1
 90
        5
176
     1
 90
        0
176
     1
 90
        0
176
     1
290
     0
176
     1
 90
       13
176
     1
 40
0.0
176
     1
 90
        0
176
     1
290
     0
176
     1
290
     1
176
     1
290
     1
176
     1
290
     0
176
     1
290
     0
176
     1
290
     0
176
     1
290
     0
176
     1
290
     0
176
     1
290
     0
176
     1
 90
       50
176
     1
 40
0.0
176
     1
 40
1.0
176
     1
 90
        0
176
     1
 62
    18
420
        0
176
     1
 90
       50
176
     1
 90
        3
176
     1
 62
     5
420
      255
176
     1
290
     0
176
     1
 90
       50
176
     1
 90
       50
176
     1
 90
       50
176
     1
290
     0
176
     1
 90
       50
176
     1
 62
   256
176
     0
 40
1.0
176
     0
 90
        2
176
     1
  1
strokes_ogs.tif
176
     1
290
     0
176
     1
 40
1.0
176
     1
 40
1.0
176
     1
  0
VISUALSTYLE
  5
2D
102
{ACAD_REACTORS
330
29
102
}
330
29
100
AcDbVisualStyle
  2
GouraudWithEdges
 70
     3
177
     3
291
     1
 70
    58
 90
        2
176
     1
 90
        2
176
     1
 90
        1
176
     1
 90
        2
176
     1
 40
0.6
176
     1
 40
30.0
176
     1
 62
     7
420
 16777215
176
     1
 90
        1
176
     1
 90
        0
176
     1
 62
     7
176
     1
 62
   257
176
     1
 90
        1
176
     1
 90
        1
176
     1
 40
1.0
176
     1
 90
        0
176
     1
 62
   257
176
     1
 40
1.0
176
     1
 90
        1
176
     1
 90
        6
176
     1
 90
        2
176
     1
 62
     7
176
     1
 90
        5
176
     1
 90
        0
176
     1
 90
        0
176
     1
290
     0
176
     1
 90
       13
176
     1
 40
0.0
176
     1
 90
        0
176
     1
290
     0
176
     1
290
     1
176
     1
290
     1
176
     1
290
     0
176
     1
290
     0
176
     1
290
     0
176
     1
290
     0
176
     1
290
     0
176
     1
290
     0
176
     1
 90
       50
176
     1
 40
0.0
176
     1
 40
1.0
176
     1
 90
        0
176
     1
 62
    18
420
        0
176
     1
 90
       50
176
     1
 90
        3
176
     1
 62
     5
420
      255
176
     1
290
     0
176
     1
 90
       50
176
     1
 90
       50
176
     1
 90
       50
176
     1
290
     0
176
     1
 90
       50
176
     1
 62
   256
176
     0
 40
1.0
176
     0
 90
        2
176
     1
  1
strokes_ogs.tif
176
     1
290
     0
176
     1
 40
1.0
176
     1
 40
1.0
176
     1
  0
VISUALSTYLE
  5
31
102
{ACAD_REACTORS
330
29
102
}
330
29
100
AcDbVisualStyle
  2
Hidden
 70
     6
177
     3
291
     0
 70
    58
 90
        1
176
     1
 90
        2
176
     1
 90
        2
176
     1
 90
        0
176
     1
 40
0.6
176
     1
 40
30.0
176
     1
 62
     7
420
 16777215
176
     1
 90
        2
176
     1
 90
        2
176
     1
 62
     7
176
     1
 62
   257
176
     1
 90
        2
176
     1
 90
        1
176
     1
 40
40.0
176
     1
 90
        0
176
     1
 62
   257
176
     1
 40
1.0
176
     1
 90
        1
176
     1
 90
        6
176
     1
 90
        2
176
     1
 62
     7
176
     1
 90
        3
176
     1
 90
        0
176
     1
 90
        0
176
     1
290
     0
176
     1
 90
        1
176
     1
 40
0.0
176
     1
 90
        0
176
     1
290
     0
176
     1
290
     1
176
     1
290
     1
176
     1
290
     0
176
     1
290
     0
176
     1
290
     0
176
     1
290
     0
176
     1
290
     0
176
     1
290
     0
176
     1
 90
       50
176
     1
 40
0.0
176
     1
 40
1.0
176
     1
 90
        0
176
     1
 62
    18
420
        0
176
     1
 90
       50
176
     1
 90
        3
176
     1
 62
     5
420
      255
176
     1
290
     0
176
     1
 90
       50
176
     1
 90
       50
176
     1
 90
       50
176
     1
290
     0
176
     1
 90
       50
176
     1
 62
   256
176
     0
 40
1.0
176
     0
 90
        2
176
     1
  1
strokes_ogs.tif
176
     1
290
     0
176
     1
 40
1.0
176
     1
 40
1.0
176
     1
  0
VISUALSTYLE
  5
3F
102
{ACAD_REACTORS
330
29
102
}
330
29
100
AcDbVisualStyle
  2
JitterOff
 70
    20
177
     3
291
     1
 70
    58
 90
        2
176
     0
 90
        2
176
     0
 90
        0
176
     0
 90
        0
176
     0
 40
0.6
176
     0
 40
30.0
176
     0
 62
     7
420
 16777215
176
     0
 90
        1
176
     0
 90
        4
176
     0
 62
     7
176
     0
 62
   257
176
     0
 90
        1
176
     0
 90
        1
176
     0
 40
1.0
176
     0
 90
       10
176
     2
 62
     7
176
     0
 40
1.0
176
     0
 90
        1
176
     0
 90
        6
176
     0
 90
        2
176
     0
 62
     7
176
     0
 90
        5
176
     0
 90
        0
176
     0
 90
        0
176
     0
290
     0
176
     0
 90
        1
176
     0
 40
0.0
176
     0
 90
        0
176
     0
290
     0
176
     0
290
     1
176
     0
290
     1
176
     0
290
     0
176
     0
290
     0
176
     0
290
     0
176
     0
290
     0
176
     0
290
     0
176
     0
290
     0
176
     0
 90
       50
176
     0
 40
0.0
176
     0
 40
1.0
176
     0
 90
        0
176
     0
 62
    18
420
        0
176
     0
 90
       50
176
     0
 90
        3
176
     0
 62
     5
420
      255
176
     0
290
     0
176
     0
 90
       50
176
     0
 90
       50
176
     0
 90
       50
176
     0
290
     0
176
     0
 90
       50
176
     0
 62
   256
176
     0
 40
1.0
176
     0
 90
        2
176
     0
  1
strokes_ogs.tif
176
     0
290
     0
176
     0
 40
1.0
176
     0
 40
1.0
176
     0
  0
VISUALSTYLE
  5
37
102
{ACAD_REACTORS
330
29
102
}
330
29
100
AcDbVisualStyle
  2
Linepattern
 70
    14
177
     3
291
     1
 70
    58
 90
        2
176
     1
 90
        2
176
     1
 90
        0
176
     1
 90
        0
176
     1
 40
0.6
176
     1
 40
30.0
176
     1
 62
     7
420
 16777215
176
     1
 90
        1
176
     1
 90
        4
176
     1
 62
     7
176
     1
 62
   257
176
     1
 90
        7
176
     1
 90
        7
176
     1
 40
1.0
176
     1
 90
        8
176
     1
 62
     7
176
     1
 40
1.0
176
     1
 90
        1
176
     1
 90
        6
176
     1
 90
        2
176
     1
 62
     7
176
     1
 90
        5
176
     1
 90
        0
176
     1
 90
        0
176
     1
290
     0
176
     1
 90
        1
176
     1
 40
0.0
176
     1
 90
        0
176
     1
290
     0
176
     1
290
     1
176
     1
290
     1
176
     1
290
     0
176
     1
290
     0
176
     1
290
     0
176
     1
290
     0
176
     1
290
     0
176
     1
290
     0
176
     1
 90
       50
176
     1
 40
0.0
176
     1
 40
1.0
176
     1
 90
        0
176
     1
 62
    18
420
        0
176
     1
 90
       50
176
     1
 90
        3
176
     1
 62
     5
420
      255
176
     1
290
     0
176
     1
 90
       50
176
     1
 90
       50
176
     1
 90
       50
176
     1
290
     0
176
     1
 90
       50
176
     1
 62
   256
176
     0
 40
1.0
176
     0
 90
        2
176
     1
  1
strokes_ogs.tif
176
     1
290
     0
176
     1
 40
1.0
176
     1
 40
1.0
176
     1
  0
VISUALSTYLE
  5
40
102
{ACAD_REACTORS
330
29
102
}
330
29
100
AcDbVisualStyle
  2
OverhangOff
 70
    21
177
     3
291
     1
 70
    58
 90
        2
176
     0
 90
        2
176
     0
 90
        0
176
     0
 90
        0
176
     0
 40
0.6
176
     0
 40
30.0
176
     0
 62
     7
420
 16777215
176
     0
 90
        1
176
     0
 90
        4
176
     0
 62
     7
176
     0
 62
   257
176
     0
 90
        1
176
     0
 90
        1
176
     0
 40
1.0
176
     0
 90
        9
176
     2
 62
     7
176
     0
 40
1.0
176
     0
 90
        1
176
     0
 90
        6
176
     0
 90
        2
176
     0
 62
     7
176
     0
 90
        5
176
     0
 90
        0
176
     0
 90
        0
176
     0
290
     0
176
     0
 90
        1
176
     0
 40
0.0
176
     0
 90
        0
176
     0
290
     0
176
     0
290
     1
176
     0
290
     1
176
     0
290
     0
176
     0
290
     0
176
     0
290
     0
176
     0
290
     0
176
     0
290
     0
176
     0
290
     0
176
     0
 90
       50
176
     0
 40
0.0
176
     0
 40
1.0
176
     0
 90
        0
176
     0
 62
    18
420
        0
176
     0
 90
       50
176
     0
 90
        3
176
     0
 62
     5
420
      255
176
     0
290
     0
176
     0
 90
       50
176
     0
 90
       50
176
     0
 90
       50
176
     0
290
     0
176
     0
 90
       50
176
     0
 62
   256
176
     0
 40
1.0
176
     0
 90
        2
176
     0
  1
strokes_ogs.tif
176
     0
290
     0
176
     0
 40
1.0
176
     0
 40
1.0
176
     0
  0
VISUALSTYLE
  5
33
102
{ACAD_REACTORS
330
29
102
}
330
29
100
AcDbVisualStyle
  2
Realistic
 70
     8
177
     3
291
     0
 70
    58
 90
        2
176
     1
 90
        3
176
     1
 90
        0
176
     1
 90
        2
176
     1
 40
0.6
176
     1
 40
30.0
176
     1
 62
     7
420
 16777215
176
     1
 90
        0
176
     1
 90
        0
176
     1
 62
     7
176
     1
 62
   257
176
     1
 90
        1
176
     1
 90
        1
176
     1
 40
1.0
176
     1
 90
        8
176
     1
 62
   257
176
     1
 40
1.0
176
     1
 90
        1
176
     1
 90
        6
176
     1
 90
        2
176
     1
 62
     7
176
     1
 90
        3
176
     1
 90
        0
176
     1
 90
        0
176
     1
290
     0
176
     1
 90
       13
176
     1
 40
0.0
176
     1
 90
        0
176
     1
290
     0
176
     1
290
     1
176
     1
290
     1
176
     1
290
     0
176
     1
290
     0
176
     1
290
     0
176
     1
290
     0
176
     1
290
     0
176
     1
290
     0
176
     1
 90
       50
176
     1
 40
0.0
176
     1
 40
1.0
176
     1
 90
        0
176
     1
 62
    18
420
        0
176
     1
 90
       50
176
     1
 90
        3
176
     1
 62
     5
420
      255
176
     1
290
     0
176
     1
 90
       50
176
     1
 90
       50
176
     1
 90
       50
176
     1
290
     0
176
     1
 90
       50
176
     1
 62
   256
176
     0
 40
1.0
176
     0
 90
        2
176
     1
  1
strokes_ogs.tif
176
     1
290
     0
176
     1
 40
1.0
176
     1
 40
1.0
176
     1
  0
VISUALSTYLE
  5
3E
102
{ACAD_REACTORS
330
29
102
}
330
29
100
AcDbVisualStyle
  2
Shaded
 70
    27
177
     3
291
     0
 70
    58
 90
        2
176
     1
 90
        2
176
     1
 90
        1
176
     1
 90
        2
176
     1
 40
0.6
176
     1
 40
30.0
176
     1
 62
     7
420
 16777215
176
     1
 90
        0
176
     1
 90
        4
176
     1
 62
     7
176
     1
 62
   257
176
     1
 90
        1
176
     1
 90
        1
176
     1
 40
1.0
176
     1
 90
        8
176
     1
 62
   257
176
     1
 40
1.0
176
     1
 90
        1
176
     1
 90
        6
176
     1
 90
        2
176
     1
 62
     8
420
  7895160
176
     1
 90
        3
176
     1
 90
        0
176
     1
 90
        0
176
     1
290
     0
176
     1
 90
        5
176
     1
 40
0.0
176
     1
 90
        0
176
     1
290
     0
176
     1
290
     1
176
     1
290
     1
176
     1
290
     0
176
     1
290
     0
176
     1
290
     0
176
     1
290
     0
176
     1
290
     0
176
     1
290
     0
176
     1
 90
       50
176
     1
 40
0.0
176
     1
 40
1.0
176
     1
 90
        0
176
     1
 62
    18
420
        0
176
     1
 90
       50
176
     1
 90
        3
176
     1
 62
     5
420
      255
176
     1
290
     0
176
     1
 90
       50
176
     1
 90
       50
176
     1
 90
       50
176
     1
290
     0
176
     1
 90
       50
176
     1
 62
   256
176
     0
 40
1.0
176
     0
 90
        2
176
     1
  1
strokes_ogs.tif
176
     1
290
     0
176
     1
 40
1.0
176
     1
 40
1.0
176
     1
  0
VISUALSTYLE
  5
3D
102
{ACAD_REACTORS
330
29
102
}
330
29
100
AcDbVisualStyle
  2
Shaded with edges
 70
    26
177
     3
291
     0
 70
    58
 90
        2
176
     1
 90
        2
176
     1
 90
        1
176
     1
 90
        2
176
     1
 40
0.6
176
     1
 40
30.0
176
     1
 62
     7
420
 16777215
176
     1
 90
        1
176
     1
 90
        2
176
     1
 62
     7
176
     1
 62
   257
176
     1
 90
        2
176
     1
 90
        1
176
     1
 40
1.0
176
     1
 90
        8
176
     1
 62
   257
176
     1
 40
1.0
176
     1
 90
        1
176
     1
 90
        6
176
     1
 90
        2
176
     1
 62
     7
176
     1
 90
        3
176
     1
 90
        0
176
     1
 90
        0
176
     1
290
     0
176
     1
 90
        5
176
     1
 40
0.0
176
     1
 90
        0
176
     1
290
     0
176
     1
290
     1
176
     1
290
     1
176
     1
290
     0
176
     1
290
     0
176
     1
290
     0
176
     1
290
     0
176
     1
290
     0
176
     1
290
     0
176
     1
 90
       50
176
     1
 40
0.0
176
     1
 40
1.0
176
     1
 90
        0
176
     1
 62
    18
420
        0
176
     1
 90
       50
176
     1
 90
        3
176
     1
 62
     5
420
      255
176
     1
290
     0
176
     1
 90
       50
176
     1
 90
       50
176
     1
 90
       50
176
     1
290
     0
176
     1
 90
       50
176
     1
 62
   256
176
     0
 40
1.0
176
     0
 90
        2
176
     1
  1
strokes_ogs.tif
176
     1
290
     0
176
     1
 40
1.0
176
     1
 40
1.0
176
     1
  0
VISUALSTYLE
  5
3A
102
{ACAD_REACTORS
330
29
102
}
330
29
100
AcDbVisualStyle
  2
Shades of Gray
 70
    23
177
     3
291
     0
 70
    58
 90
        2
176
     1
 90
        2
176
     1
 90
        3
176
     1
 90
        0
176
     1
 40
0.6
176
     1
 40
30.0
176
     1
 62
     7
420
 16777215
176
     1
 90
        2
176
     1
 90
        2
176
     1
 62
     7
176
     1
 62
     7
176
     1
 90
        1
176
     1
 90
        1
176
     1
 40
40.0
176
     1
 90
        8
176
     1
 62
     7
176
     1
 40
1.0
176
     1
 90
        1
176
     1
 90
        6
176
     1
 90
        2
176
     1
 62
     7
176
     1
 90
        3
176
     1
 90
        0
176
     1
 90
        0
176
     1
290
     0
176
     1
 90
        1
176
     1
 40
0.0
176
     1
 90
        0
176
     1
290
     0
176
     1
290
     1
176
     1
290
     1
176
     1
290
     0
176
     1
290
     0
176
     1
290
     0
176
     1
290
     0
176
     1
290
     0
176
     1
290
     0
176
     1
 90
       50
176
     1
 40
0.0
176
     1
 40
1.0
176
     1
 90
        0
176
     1
 62
    18
420
        0
176
     1
 90
       50
176
     1
 90
        3
176
     1
 62
     5
420
      255
176
     1
290
     0
176
     1
 90
       50
176
     1
 90
       50
176
     1
 90
       50
176
     1
290
     0
176
     1
 90
       50
176
     1
 62
   256
176
     0
 40
1.0
176
     0
 90
        2
176
     1
  1
strokes_ogs.tif
176
     1
290
     0
176
     1
 40
1.0
176
     1
 40
1.0
176
     1
  0
VISUALSTYLE
  5
3B
102
{ACAD_REACTORS
330
29
102
}
330
29
100
AcDbVisualStyle
  2
Sketchy
 70
    24
177
     3
291
     0
 70
    58
 90
        1
176
     1
 90
        2
176
     1
 90
        2
176
     1
 90
        0
176
     1
 40
0.6
176
     1
 40
30.0
176
     1
 62
     7
420
 16777215
176
     1
 90
        2
176
     1
 90
        2
176
     1
 62
     7
176
     1
 62
     7
176
     1
 90
        1
176
     1
 90
        1
176
     1
 40
40.0
176
     1
 90
       11
176
     1
 62
     7
176
     1
 40
1.0
176
     1
 90
        1
176
     1
 90
        6
176
     1
 90
        2
176
     1
 62
     7
176
     1
 90
        6
176
     1
 90
        0
176
     1
 90
        0
176
     1
290
     0
176
     1
 90
        1
176
     1
 40
0.0
176
     1
 90
        0
176
     1
290
     0
176
     1
290
     1
176
     1
290
     1
176
     1
290
     0
176
     1
290
     0
176
     1
290
     0
176
     1
290
     0
176
     1
290
     0
176
     1
290
     0
176
     1
 90
       50
176
     1
 40
0.0
176
     1
 40
1.0
176
     1
 90
        0
176
     1
 62
    18
420
        0
176
     1
 90
       50
176
     1
 90
        3
176
     1
 62
     5
420
      255
176
     1
290
     0
176
     1
 90
       50
176
     1
 90
       50
176
     1
 90
       50
176
     1
290
     0
176
     1
 90
       50
176
     1
 62
   256
176
     0
 40
1.0
176
     0
 90
        2
176
     1
  1
strokes_ogs.tif
176
     1
290
     0
176
     1
 40
1.0
176
     1
 40
1.0
176
     1
  0
VISUALSTYLE
  5
36
102
{ACAD_REACTORS
330
29
102
}
330
29
100
AcDbVisualStyle
  2
Thicken
 70
    13
177
     3
291
     1
 70
    58
 90
        2
176
     1
 90
        2
176
     1
 90
        0
176
     1
 90
        0
176
     1
 40
0.6
176
     1
 40
30.0
176
     1
 62
     7
420
 16777215
176
     1
 90
        1
176
     1
 90
        4
176
     1
 62
     7
176
     1
 62
   257
176
     1
 90
        1
176
     1
 90
        1
176
     1
 40
1.0
176
     1
 90
       12
176
     1
 62
     7
176
     1
 40
1.0
176
     1
 90
        1
176
     1
 90
        6
176
     1
 90
        2
176
     1
 62
     7
176
     1
 90
        5
176
     1
 90
        0
176
     1
 90
        0
176
     1
290
     0
176
     1
 90
        1
176
     1
 40
0.0
176
     1
 90
        0
176
     1
290
     0
176
     1
290
     1
176
     1
290
     1
176
     1
290
     0
176
     1
290
     0
176
     1
290
     0
176
     1
290
     0
176
     1
290
     0
176
     1
290
     0
176
     1
 90
       50
176
     1
 40
0.0
176
     1
 40
1.0
176
     1
 90
        0
176
     1
 62
    18
420
        0
176
     1
 90
       50
176
     1
 90
        3
176
     1
 62
     5
420
      255
176
     1
290
     0
176
     1
 90
       50
176
     1
 90
       50
176
     1
 90
       50
176
     1
290
     0
176
     1
 90
       50
176
     1
 62
   256
176
     0
 40
1.0
176
     0
 90
        2
176
     1
  1
strokes_ogs.tif
176
     1
290
     0
176
     1
 40
1.0
176
     1
 40
1.0
176
     1
  0
VISUALSTYLE
  5
30
102
{ACAD_REACTORS
330
29
102
}
330
29
100
AcDbVisualStyle
  2
Wireframe
 70
     5
177
     3
291
     0
 70
    58
 90
        0
176
     1
 90
        2
176
     1
 90
        0
176
     1
 90
        0
176
     1
 40
0.6
176
     1
 40
30.0
176
     1
 62
     7
420
 16777215
176
     1
 90
        1
176
     1
 90
        4
176
     1
 62
     7
176
     1
 62
   257
176
     1
 90
        1
176
     1
 90
        1
176
     1
 40
1.0
176
     1
 90
        0
176
     1
 62
   257
176
     1
 40
1.0
176
     1
 90
        1
176
     1
 90
        6
176
     1
 90
        2
176
     1
 62
     7
176
     1
 90
        3
176
     1
 90
        0
176
     1
 90
        0
176
     1
290
     0
176
     1
 90
        1
176
     1
 40
0.0
176
     1
 90
        0
176
     1
290
     0
176
     1
290
     1
176
     1
290
     1
176
     1
290
     0
176
     1
290
     0
176
     1
290
     0
176
     1
290
     0
176
     1
290
     0
176
     1
290
     0
176
     1
 90
       50
176
     1
 40
0.0
176
     1
 40
1.0
176
     1
 90
        0
176
     1
 62
    18
420
        0
176
     1
 90
       50
176
     1
 90
        3
176
     1
 62
     5
420
      255
176
     1
290
     0
176
     1
 90
       50
176
     1
 90
       50
176
     1
 90
       50
176
     1
290
     0
176
     1
 90
       50
176
     1
 62
   256
176
     0
 40
1.0
176
     0
 90
        2
176
     1
  1
strokes_ogs.tif
176
     1
290
     0
176
     1
 40
1.0
176
     1
 40
1.0
176
     1
  0
VISUALSTYLE
  5
3C
102
{ACAD_REACTORS
330
29
102
}
330
29
100
AcDbVisualStyle
  2
X-Ray
 70
    25
177
     3
291
     0
 70
    58
 90
        2
176
     1
 90
        2
176
     1
 90
        1
176
     1
 90
        1
176
     1
 40
0.5
176
     1
 40
30.0
176
     1
 62
     7
420
 16777215
176
     1
 90
        1
176
     1
 90
        0
176
     1
 62
     7
176
     1
 62
   257
176
     1
 90
        1
176
     1
 90
        1
176
     1
 40
1.0
176
     1
 90
        8
176
     1
 62
     7
176
     1
 40
1.0
176
     1
 90
        1
176
     1
 90
        6
176
     1
 90
        2
176
     1
 62
     7
176
     1
 90
        3
176
     1
 90
        0
176
     1
 90
        0
176
     1
290
     0
176
     1
 90
       13
176
     1
 40
0.0
176
     1
 90
        0
176
     1
290
     0
176
     1
290
     1
176
     1
290
     1
176
     1
290
     0
176
     1
290
     0
176
     1
290
     0
176
     1
290
     0
176
     1
290
     0
176
     1
290
     0
176
     1
 90
       50
176
     1
 40
0.0
176
     1
 40
1.0
176
     1
 90
        0
176
     1
 62
    18
420
        0
176
     1
 90
       50
176
     1
 90
        3
176
     1
 62
     5
420
      255
176
     1
290
     0
176
     1
 90
       50
176
     1
 90
       50
176
     1
 90
       50
176
     1
290
     0
176
     1
 90
       50
176
     1
 62
   256
176
     0
 40
1.0
176
     0
 90
        2
176
     1
  1
strokes_ogs.tif
176
     1
290
     0
176
     1
 40
1.0
176
     1
 40
1.0
176
     1
  0
DICTIONARYVAR
  5
99
102
{ACAD_REACTORS
330
94
102
}
330
94
100
DictionaryVariables
280
     0
  1
1:1
  0
DICTIONARYVAR
  5
96
102
{ACAD_REACTORS
330
94
102
}
330
94
100
DictionaryVariables
280
     0
  1
STANDARD
  0
DICTIONARYVAR
  5
95
102
{ACAD_REACTORS
330
94
102
}
330
94
100
DictionaryVariables
280
     0
  1
STANDARD
  0
DICTIONARYVAR
  5
97
102
{ACAD_REACTORS
330
94
102
}
330
94
100
DictionaryVariables
280
     0
  1
Imperial24
  0
DICTIONARYVAR
  5
98
102
{ACAD_REACTORS
330
94
102
}
330
94
100
DictionaryVariables
280
     0
  1
Imperial24
  0
DICTIONARY
  5
1A
330
19
100
AcDbDictionary
280
     1
281
     1
  3
BUMPTILE
360
1C
  3
DIFFUSETILE
360
1B
  3
OPACITYTILE
360
1F
  3
REFLECTIONTILE
360
1E
  3
REFRACTIONTILE
360
20
  3
SPECULARTILE
360
1D
  0
DICTIONARY
  5
12
330
11
100
AcDbDictionary
280
     1
281
     1
  3
BUMPTILE
360
14
  3
DIFFUSETILE
360
13
  3
OPACITYTILE
360
17
  3
REFLECTIONTILE
360
16
  3
REFRACTIONTILE
360
18
  3
SPECULARTILE
360
15
  0
DICTIONARY
  5
22
330
21
100
AcDbDictionary
280
     1
281
     1
  3
BUMPTILE
360
24
  3
DIFFUSETILE
360
23
  3
OPACITYTILE
360
27
  3
REFLECTIONTILE
360
26
  3
REFRACTIONTILE
360
28
  3
SPECULARTILE
360
25
  0
DICTIONARY
  5
9A
330
65
100
AcDbDictionary
280
     1
281
     1
  3
ACAD_ROUNDTRIP_2008_TABLESTYLE_CELLSTYLEMAP
360
9B
  0
XRECORD
  5
1C
102
{ACAD_REACTORS
330
1A
102
}
330
1A
100
AcDbXrecord
280
     1
270
     1
271
     1
  0
XRECORD
  5
1B
102
{ACAD_REACTORS
330
1A
102
}
330
1A
100
AcDbXrecord
280
     1
270
     1
271
     1
  0
XRECORD
  5
1F
102
{ACAD_REACTORS
330
1A
102
}
330
1A
100
AcDbXrecord
280
     1
270
     1
271
     1
  0
XRECORD
  5
1E
102
{ACAD_REACTORS
330
1A
102
}
330
1A
100
AcDbXrecord
280
     1
270
     1
271
     1
  0
XRECORD
  5
20
102
{ACAD_REACTORS
330
1A
102
}
330
1A
100
AcDbXrecord
280
     1
270
     1
271
     1
  0
XRECORD
  5
1D
102
{ACAD_REACTORS
330
1A
102
}
330
1A
100
AcDbXrecord
280
     1
270
     1
271
     1
  0
XRECORD
  5
14
102
{ACAD_REACTORS
330
12
102
}
330
12
100
AcDbXrecord
280
     1
270
     1
271
     1
  0
XRECORD
  5
13
102
{ACAD_REACTORS
330
12
102
}
330
12
100
AcDbXrecord
280
     1
270
     1
271
     1
  0
XRECORD
  5
17
102
{ACAD_REACTORS
330
12
102
}
330
12
100
AcDbXrecord
280
     1
270
     1
271
     1
  0
XRECORD
  5
16
102
{ACAD_REACTORS
330
12
102
}
330
12
100
AcDbXrecord
280
     1
270
     1
271
     1
  0
XRECORD
  5
18
102
{ACAD_REACTORS
330
12
102
}
330
12
100
AcDbXrecord
280
     1
270
     1
271
     1
  0
XRECORD
  5
15
102
{ACAD_REACTORS
330
12
102
}
330
12
100
AcDbXrecord
280
     1
270
     1
271
     1
  0
XRECORD
  5
24
102
{ACAD_REACTORS
330
22
102
}
330
22
100
AcDbXrecord
280
     1
270
     1
271
     1
  0
XRECORD
  5
23
102
{ACAD_REACTORS
330
22
102
}
330
22
100
AcDbXrecord
280
     1
270
     1
271
     1
  0
XRECORD
  5
27
102
{ACAD_REACTORS
330
22
102
}
330
22
100
AcDbXrecord
280
     1
270
     1
271
     1
  0
XRECORD
  5
26
102
{ACAD_REACTORS
330
22
102
}
330
22
100
AcDbXrecord
280
     1
270
     1
271
     1
  0
XRECORD
  5
28
102
{ACAD_REACTORS
330
22
102
}
330
22
100
AcDbXrecord
280
     1
270
     1
271
     1
  0
XRECORD
  5
25
102
{ACAD_REACTORS
330
22
102
}
330
22
100
AcDbXrecord
280
     1
270
     1
271
     1
  0
CELLSTYLEMAP
  5
9B
102
{ACAD_REACTORS
330
9A
102
}
330
9A
100
AcDbCellStyleMap
 90
        3
300
CELLSTYLE
  1
TABLEFORMAT_BEGIN
 90
        5
170
     1
 91
        0
 92
    32768
 62
   257
 93
        1
300
CONTENTFORMAT
  1
CONTENTFORMAT_BEGIN
 90
        0
 91
        0
 92
      512
 93
        0
300

 40
0.0
140
1.0
 94
        5
 62
     0
340
55
144
0.25
309
CONTENTFORMAT_END
171
     0
 94
        0
309
TABLEFORMAT_END
  1
CELLSTYLE_BEGIN
 90
        1
 91
        1
300
_TITLE
309
CELLSTYLE_END
300
CELLSTYLE
  1
TABLEFORMAT_BEGIN
 90
        5
170
     1
 91
        0
 92
        0
 62
   257
 93
        1
300
CONTENTFORMAT
  1
CONTENTFORMAT_BEGIN
 90
        0
 91
        0
 92
      512
 93
        0
300

 40
0.0
140
1.0
 94
        5
 62
     0
340
55
144
0.18
309
CONTENTFORMAT_END
171
     0
 94
        0
309
TABLEFORMAT_END
  1
CELLSTYLE_BEGIN
 90
        2
 91
        1
300
_HEADER
309
CELLSTYLE_END
300
CELLSTYLE
  1
TABLEFORMAT_BEGIN
 90
        5
170
     1
 91
        0
 92
        0
 62
   257
 93
        1
300
CONTENTFORMAT
  1
CONTENTFORMAT_BEGIN
 90
        0
 91
        0
 92
      512
 93
        0
300

 40
0.0
140
1.0
 94
        2
 62
     0
340
55
144
0.18
309
CONTENTFORMAT_END
171
     0
 94
        0
309
TABLEFORMAT_END
  1
CELLSTYLE_BEGIN
 90
        3
 91
        2
300
_DATA
309
CELLSTYLE_END
  0
ENDSEC
  0
EOF
