%TF.GenerationSoftware,KiCad,Pcbnew,7.0.6*%
%TF.CreationDate,2023-10-22T23:34:03-04:00*%
%TF.ProjectId,good-delivery-alpha-stagger,676f6f64-2d64-4656-9c69-766572792d61,rev?*%
%TF.SameCoordinates,PX2d6b3a0PY7e9ae4e*%
%TF.FileFunction,Legend,Top*%
%TF.FilePolarity,Positive*%
%FSLAX46Y46*%
G04 Gerber Fmt 4.6, Leading zero omitted, Abs format (unit mm)*
G04 Created by KiCad (PCBNEW 7.0.6) date 2023-10-22 23:34:03*
%MOMM*%
%LPD*%
G01*
G04 APERTURE LIST*
%ADD10C,0.150000*%
%ADD11C,0.120000*%
%ADD12C,1.750000*%
%ADD13C,3.000000*%
%ADD14C,3.987800*%
%ADD15C,3.048000*%
%ADD16R,1.700000X1.700000*%
%ADD17O,1.700000X1.700000*%
%ADD18C,0.650000*%
%ADD19O,1.000000X1.600000*%
%ADD20O,1.000000X2.100000*%
G04 APERTURE END LIST*
D10*
X4432386Y29062496D02*
X4337148Y29110115D01*
X4337148Y29110115D02*
X4194291Y29110115D01*
X4194291Y29110115D02*
X4051434Y29062496D01*
X4051434Y29062496D02*
X3956196Y28967258D01*
X3956196Y28967258D02*
X3908577Y28872020D01*
X3908577Y28872020D02*
X3860958Y28681544D01*
X3860958Y28681544D02*
X3860958Y28538687D01*
X3860958Y28538687D02*
X3908577Y28348211D01*
X3908577Y28348211D02*
X3956196Y28252973D01*
X3956196Y28252973D02*
X4051434Y28157734D01*
X4051434Y28157734D02*
X4194291Y28110115D01*
X4194291Y28110115D02*
X4289529Y28110115D01*
X4289529Y28110115D02*
X4432386Y28157734D01*
X4432386Y28157734D02*
X4480005Y28205354D01*
X4480005Y28205354D02*
X4480005Y28538687D01*
X4480005Y28538687D02*
X4289529Y28538687D01*
X4908577Y28110115D02*
X4908577Y29110115D01*
X4908577Y29110115D02*
X5480005Y28110115D01*
X5480005Y28110115D02*
X5480005Y29110115D01*
X5956196Y28110115D02*
X5956196Y29110115D01*
X5956196Y29110115D02*
X6194291Y29110115D01*
X6194291Y29110115D02*
X6337148Y29062496D01*
X6337148Y29062496D02*
X6432386Y28967258D01*
X6432386Y28967258D02*
X6480005Y28872020D01*
X6480005Y28872020D02*
X6527624Y28681544D01*
X6527624Y28681544D02*
X6527624Y28538687D01*
X6527624Y28538687D02*
X6480005Y28348211D01*
X6480005Y28348211D02*
X6432386Y28252973D01*
X6432386Y28252973D02*
X6337148Y28157734D01*
X6337148Y28157734D02*
X6194291Y28110115D01*
X6194291Y28110115D02*
X5956196Y28110115D01*
X4480005Y30491367D02*
X4146672Y30967558D01*
X3908577Y30491367D02*
X3908577Y31491367D01*
X3908577Y31491367D02*
X4289529Y31491367D01*
X4289529Y31491367D02*
X4384767Y31443748D01*
X4384767Y31443748D02*
X4432386Y31396129D01*
X4432386Y31396129D02*
X4480005Y31300891D01*
X4480005Y31300891D02*
X4480005Y31158034D01*
X4480005Y31158034D02*
X4432386Y31062796D01*
X4432386Y31062796D02*
X4384767Y31015177D01*
X4384767Y31015177D02*
X4289529Y30967558D01*
X4289529Y30967558D02*
X3908577Y30967558D01*
X4860958Y30538986D02*
X5003815Y30491367D01*
X5003815Y30491367D02*
X5241910Y30491367D01*
X5241910Y30491367D02*
X5337148Y30538986D01*
X5337148Y30538986D02*
X5384767Y30586606D01*
X5384767Y30586606D02*
X5432386Y30681844D01*
X5432386Y30681844D02*
X5432386Y30777082D01*
X5432386Y30777082D02*
X5384767Y30872320D01*
X5384767Y30872320D02*
X5337148Y30919939D01*
X5337148Y30919939D02*
X5241910Y30967558D01*
X5241910Y30967558D02*
X5051434Y31015177D01*
X5051434Y31015177D02*
X4956196Y31062796D01*
X4956196Y31062796D02*
X4908577Y31110415D01*
X4908577Y31110415D02*
X4860958Y31205653D01*
X4860958Y31205653D02*
X4860958Y31300891D01*
X4860958Y31300891D02*
X4908577Y31396129D01*
X4908577Y31396129D02*
X4956196Y31443748D01*
X4956196Y31443748D02*
X5051434Y31491367D01*
X5051434Y31491367D02*
X5289529Y31491367D01*
X5289529Y31491367D02*
X5432386Y31443748D01*
X5718101Y31491367D02*
X6289529Y31491367D01*
X6003815Y30491367D02*
X6003815Y31491367D01*
D11*
%TO.C,J2*%
X1051172Y34980247D02*
X2381172Y34980247D01*
X1051172Y33650247D02*
X1051172Y34980247D01*
X1051172Y32380247D02*
X1051172Y22160247D01*
X1051172Y32380247D02*
X3711172Y32380247D01*
X1051172Y22160247D02*
X3711172Y22160247D01*
X3711172Y32380247D02*
X3711172Y22160247D01*
%TO.C,G1*%
G36*
X19455060Y54009797D02*
G01*
X19489745Y53996666D01*
X19532182Y53972308D01*
X19586334Y53933319D01*
X19656165Y53876295D01*
X19745637Y53797831D01*
X19858714Y53694524D01*
X19999359Y53562969D01*
X20171534Y53399763D01*
X20228634Y53345355D01*
X20566009Y53023621D01*
X20868172Y52735414D01*
X21137061Y52478713D01*
X21374613Y52251496D01*
X21582768Y52051743D01*
X21763463Y51877433D01*
X21918636Y51726546D01*
X22050224Y51597062D01*
X22160167Y51486958D01*
X22250403Y51394216D01*
X22322868Y51316813D01*
X22379502Y51252730D01*
X22422242Y51199945D01*
X22453027Y51156438D01*
X22473794Y51120189D01*
X22486481Y51089176D01*
X22493027Y51061380D01*
X22495370Y51034778D01*
X22495447Y51007352D01*
X22495179Y50982180D01*
X22472557Y50860264D01*
X22402853Y50744076D01*
X22343792Y50680953D01*
X22278288Y50630964D01*
X22203333Y50605473D01*
X22129401Y50596982D01*
X22022866Y50598963D01*
X21933377Y50616840D01*
X21916737Y50623419D01*
X21878090Y50650403D01*
X21808527Y50708367D01*
X21713738Y50792188D01*
X21599414Y50896740D01*
X21471247Y51016900D01*
X21338135Y51144435D01*
X21172806Y51304100D01*
X20982808Y51486896D01*
X20780845Y51680643D01*
X20579624Y51873161D01*
X20391849Y52052271D01*
X20296941Y52142521D01*
X20010023Y52415907D01*
X19757072Y52658877D01*
X19538673Y52870851D01*
X19355410Y53051247D01*
X19207868Y53199485D01*
X19096631Y53314983D01*
X19022284Y53397159D01*
X18985411Y53445434D01*
X18984208Y53447606D01*
X18945419Y53569169D01*
X18950900Y53690502D01*
X18994074Y53803752D01*
X19068361Y53901063D01*
X19167184Y53974581D01*
X19283965Y54016453D01*
X19412125Y54018823D01*
X19455060Y54009797D01*
G37*
G36*
X35636986Y56870297D02*
G01*
X35741863Y56793403D01*
X35815329Y56688082D01*
X35832603Y56652408D01*
X35846564Y56619462D01*
X35855874Y56585801D01*
X35859195Y56547979D01*
X35855189Y56502555D01*
X35842519Y56446084D01*
X35819847Y56375123D01*
X35785835Y56286228D01*
X35739146Y56175955D01*
X35678442Y56040861D01*
X35602386Y55877502D01*
X35509639Y55682434D01*
X35398864Y55452214D01*
X35268724Y55183399D01*
X35117880Y54872543D01*
X35078862Y54792151D01*
X34997940Y54625082D01*
X34901075Y54424566D01*
X34794505Y54203543D01*
X34684463Y53974955D01*
X34577186Y53751742D01*
X34496642Y53583852D01*
X34388535Y53359611D01*
X34298602Y53177593D01*
X34223501Y53033321D01*
X34159890Y52922320D01*
X34104428Y52840113D01*
X34053772Y52782223D01*
X34004581Y52744174D01*
X33953514Y52721491D01*
X33897228Y52709696D01*
X33840362Y52704748D01*
X33727375Y52705862D01*
X33640074Y52727099D01*
X33597480Y52747255D01*
X33512631Y52818349D01*
X33444243Y52921646D01*
X33402942Y53038263D01*
X33395584Y53105950D01*
X33398585Y53131812D01*
X33408569Y53169327D01*
X33427010Y53221713D01*
X33455380Y53292185D01*
X33495151Y53383964D01*
X33547796Y53500264D01*
X33614788Y53644305D01*
X33697599Y53819303D01*
X33797702Y54028477D01*
X33916570Y54275043D01*
X34055675Y54562219D01*
X34167348Y54792151D01*
X34252263Y54967212D01*
X34352886Y55175244D01*
X34462744Y55402835D01*
X34575366Y55636567D01*
X34684283Y55863026D01*
X34762558Y56026100D01*
X34848774Y56204041D01*
X34930495Y56369183D01*
X35004429Y56515145D01*
X35067285Y56635545D01*
X35115772Y56724002D01*
X35146597Y56774136D01*
X35151690Y56780517D01*
X35262002Y56865473D01*
X35386615Y56907786D01*
X35515090Y56908909D01*
X35636986Y56870297D01*
G37*
G36*
X50219649Y47761202D02*
G01*
X50362439Y47717859D01*
X50470540Y47638741D01*
X50540379Y47527853D01*
X50568385Y47389197D01*
X50568767Y47369865D01*
X50567363Y47341733D01*
X50562140Y47309018D01*
X50551648Y47268507D01*
X50534432Y47216988D01*
X50509043Y47151249D01*
X50474028Y47068077D01*
X50427935Y46964260D01*
X50369311Y46836586D01*
X50296707Y46681841D01*
X50208668Y46496814D01*
X50103744Y46278292D01*
X49980483Y46023062D01*
X49837433Y45727913D01*
X49682334Y45408548D01*
X49592164Y45222634D01*
X49487945Y45007172D01*
X49377807Y44779004D01*
X49269878Y44554973D01*
X49172286Y44351918D01*
X49161191Y44328791D01*
X49083721Y44168122D01*
X49011654Y44020240D01*
X48948562Y43892352D01*
X48898020Y43791669D01*
X48863601Y43725398D01*
X48851368Y43703879D01*
X48771059Y43623929D01*
X48660612Y43571550D01*
X48535201Y43550006D01*
X48409997Y43562562D01*
X48332650Y43592280D01*
X48228802Y43667797D01*
X48164588Y43766163D01*
X48133793Y43897398D01*
X48132057Y43915731D01*
X48129201Y43945782D01*
X48127217Y43972248D01*
X48127743Y43998951D01*
X48132415Y44029713D01*
X48142871Y44068355D01*
X48160748Y44118698D01*
X48187683Y44184564D01*
X48225314Y44269776D01*
X48275277Y44378153D01*
X48339211Y44513517D01*
X48418751Y44679691D01*
X48515536Y44880496D01*
X48631202Y45119753D01*
X48767386Y45401283D01*
X48777116Y45421402D01*
X48841483Y45554573D01*
X48923673Y45724725D01*
X49019180Y45922523D01*
X49123499Y46138634D01*
X49232124Y46363722D01*
X49340548Y46588453D01*
X49409149Y46730679D01*
X49504747Y46927776D01*
X49594976Y47111673D01*
X49677054Y47276858D01*
X49748197Y47417819D01*
X49805623Y47529042D01*
X49846549Y47605017D01*
X49868192Y47640230D01*
X49868458Y47640535D01*
X49966690Y47715673D01*
X50089927Y47758153D01*
X50218823Y47761327D01*
X50219649Y47761202D01*
G37*
G36*
X27051212Y58067598D02*
G01*
X27175405Y57997597D01*
X27201124Y57975783D01*
X27264636Y57908253D01*
X27309132Y57831855D01*
X27340709Y57732451D01*
X27365468Y57595905D01*
X27365691Y57594378D01*
X27376104Y57529765D01*
X27393626Y57428143D01*
X27415882Y57303040D01*
X27440495Y57167983D01*
X27442462Y57157334D01*
X27467193Y57022312D01*
X27498066Y56851898D01*
X27532336Y56661341D01*
X27567259Y56465892D01*
X27597391Y56296099D01*
X27628188Y56122899D01*
X27658675Y55953309D01*
X27686755Y55798855D01*
X27710330Y55671065D01*
X27727306Y55581466D01*
X27728322Y55576261D01*
X27776589Y55325306D01*
X27822674Y55076924D01*
X27865667Y54836718D01*
X27904660Y54610290D01*
X27938743Y54403240D01*
X27967006Y54221173D01*
X27988542Y54069689D01*
X28002440Y53954390D01*
X28007792Y53880879D01*
X28006785Y53860401D01*
X27965278Y53755679D01*
X27888794Y53657360D01*
X27792210Y53584429D01*
X27789345Y53582928D01*
X27682445Y53551446D01*
X27557778Y53549808D01*
X27439001Y53577403D01*
X27405102Y53592836D01*
X27354565Y53624728D01*
X27311842Y53665813D01*
X27274799Y53722024D01*
X27241304Y53799297D01*
X27209223Y53903566D01*
X27176425Y54040766D01*
X27140775Y54216831D01*
X27100142Y54437697D01*
X27098822Y54445087D01*
X27063991Y54639960D01*
X27028013Y54840821D01*
X26993242Y55034554D01*
X26962032Y55208044D01*
X26936739Y55348177D01*
X26930349Y55383447D01*
X26905958Y55518443D01*
X26875322Y55688823D01*
X26841173Y55879344D01*
X26806243Y56074763D01*
X26775962Y56244682D01*
X26742632Y56431258D01*
X26707452Y56626866D01*
X26673180Y56816261D01*
X26642574Y56984197D01*
X26620159Y57105917D01*
X26581563Y57322467D01*
X26555254Y57495542D01*
X26541538Y57631668D01*
X26540723Y57737372D01*
X26553113Y57819179D01*
X26579016Y57883615D01*
X26618737Y57937208D01*
X26661019Y57976955D01*
X26789413Y58057287D01*
X26921012Y58087498D01*
X27051212Y58067598D01*
G37*
G36*
X69891978Y54499267D02*
G01*
X69906324Y54440865D01*
X69913054Y54400097D01*
X69936069Y54286682D01*
X69975329Y54142988D01*
X70025459Y53985388D01*
X70081084Y53830253D01*
X70136831Y53693955D01*
X70163580Y53636963D01*
X70360531Y53299462D01*
X70600063Y52986949D01*
X70877431Y52704310D01*
X71187890Y52456433D01*
X71495584Y52264967D01*
X71620167Y52203865D01*
X71771789Y52139973D01*
X71935800Y52078485D01*
X72097548Y52024596D01*
X72242384Y51983500D01*
X72353937Y51960625D01*
X72428522Y51944815D01*
X72467063Y51925950D01*
X72465449Y51909360D01*
X72419574Y51900378D01*
X72400697Y51899945D01*
X72289517Y51886774D01*
X72145012Y51850021D01*
X71977165Y51793823D01*
X71795955Y51722318D01*
X71611363Y51639645D01*
X71433370Y51549941D01*
X71271955Y51457344D01*
X71168702Y51389146D01*
X70873016Y51149948D01*
X70608257Y50877274D01*
X70378349Y50577074D01*
X70187210Y50255297D01*
X70038762Y49917893D01*
X69936926Y49570810D01*
X69921806Y49497124D01*
X69903746Y49412284D01*
X69887139Y49351883D01*
X69875664Y49329095D01*
X69864497Y49352365D01*
X69848119Y49413827D01*
X69829793Y49500960D01*
X69827076Y49515481D01*
X69743306Y49838246D01*
X69613594Y50159447D01*
X69443034Y50471286D01*
X69236720Y50765965D01*
X68999747Y51035683D01*
X68737210Y51272643D01*
X68622910Y51358840D01*
X68457741Y51467009D01*
X68273586Y51571512D01*
X68079944Y51668302D01*
X67886309Y51753330D01*
X67702179Y51822547D01*
X67537049Y51871906D01*
X67400416Y51897358D01*
X67353639Y51899945D01*
X67294159Y51904977D01*
X67281457Y51918201D01*
X67312086Y51936810D01*
X67382596Y51957998D01*
X67440067Y51970298D01*
X67790472Y52062454D01*
X68127970Y52200408D01*
X68448237Y52379853D01*
X68746945Y52596480D01*
X69019767Y52845985D01*
X69262377Y53124060D01*
X69470448Y53426398D01*
X69639654Y53748693D01*
X69765668Y54086637D01*
X69829401Y54348680D01*
X69847879Y54435090D01*
X69865488Y54497248D01*
X69878525Y54522173D01*
X69878892Y54522212D01*
X69891978Y54499267D01*
G37*
G36*
X56380120Y41819357D02*
G01*
X56410252Y41815874D01*
X56412893Y41815615D01*
X56544387Y41783915D01*
X56648461Y41713382D01*
X56732053Y41601273D01*
X56779315Y41485620D01*
X56782744Y41371391D01*
X56742667Y41244179D01*
X56740292Y41238899D01*
X56720000Y41197821D01*
X56696013Y41161577D01*
X56662657Y41126281D01*
X56614260Y41088044D01*
X56545146Y41042979D01*
X56449644Y40987199D01*
X56322079Y40916816D01*
X56156778Y40827943D01*
X56083337Y40788753D01*
X55993412Y40740800D01*
X55904826Y40693524D01*
X55813671Y40644829D01*
X55716039Y40592622D01*
X55608023Y40534808D01*
X55485715Y40469293D01*
X55345207Y40393982D01*
X55182593Y40306782D01*
X54993963Y40205596D01*
X54775412Y40088333D01*
X54523031Y39952896D01*
X54232913Y39797191D01*
X53923822Y39631294D01*
X53708028Y39515659D01*
X53532249Y39422354D01*
X53391259Y39349282D01*
X53279828Y39294346D01*
X53192728Y39255447D01*
X53124733Y39230489D01*
X53070613Y39217374D01*
X53025141Y39214004D01*
X52983089Y39218283D01*
X52939229Y39228113D01*
X52926863Y39231324D01*
X52809244Y39287051D01*
X52715798Y39379573D01*
X52653777Y39497131D01*
X52630436Y39627967D01*
X52636763Y39701590D01*
X52668211Y39788116D01*
X52732231Y39873226D01*
X52833136Y39960690D01*
X52975241Y40054280D01*
X53152567Y40152422D01*
X53290274Y40224652D01*
X53433723Y40300776D01*
X53565446Y40371476D01*
X53663439Y40424924D01*
X53753922Y40474386D01*
X53825837Y40512655D01*
X53868530Y40534110D01*
X53875473Y40536787D01*
X53900600Y40548434D01*
X53960577Y40579826D01*
X54045360Y40625636D01*
X54110148Y40661248D01*
X54241048Y40733121D01*
X54387881Y40812927D01*
X54523713Y40886044D01*
X54553681Y40902036D01*
X54639704Y40947904D01*
X54761415Y41012904D01*
X54909184Y41091888D01*
X55073377Y41179706D01*
X55244361Y41271207D01*
X55337790Y41321229D01*
X55569296Y41445271D01*
X55759888Y41547325D01*
X55914087Y41629468D01*
X56036415Y41693780D01*
X56131392Y41742341D01*
X56203542Y41777229D01*
X56257385Y41800524D01*
X56297443Y41814305D01*
X56328237Y41820651D01*
X56354289Y41821642D01*
X56380120Y41819357D01*
G37*
G36*
X15829416Y46261637D02*
G01*
X15951738Y46245345D01*
X16099127Y46223423D01*
X16285996Y46196983D01*
X16500772Y46167651D01*
X16582223Y46156759D01*
X16635850Y46149519D01*
X16730598Y46136618D01*
X16856650Y46119396D01*
X17004188Y46099196D01*
X17160665Y46077733D01*
X17442177Y46039122D01*
X17717395Y46001446D01*
X17979211Y45965672D01*
X18220517Y45932770D01*
X18434206Y45903708D01*
X18613170Y45879456D01*
X18750301Y45860982D01*
X18780300Y45856967D01*
X19013665Y45824948D01*
X19201660Y45796537D01*
X19350036Y45769865D01*
X19464549Y45743062D01*
X19550950Y45714257D01*
X19614994Y45681581D01*
X19662433Y45643164D01*
X19699022Y45597136D01*
X19726511Y45549433D01*
X19763277Y45431654D01*
X19763571Y45304803D01*
X19729369Y45186744D01*
X19677936Y45110036D01*
X19572743Y45019792D01*
X19462434Y44971894D01*
X19338594Y44958649D01*
X19263636Y44960515D01*
X19213244Y44965264D01*
X19202348Y44968601D01*
X19174257Y44975331D01*
X19104925Y44986729D01*
X19004160Y45001315D01*
X18881768Y45017610D01*
X18854653Y45021058D01*
X18723251Y45037863D01*
X18605788Y45053310D01*
X18514089Y45065814D01*
X18459980Y45073791D01*
X18456171Y45074440D01*
X18403976Y45082449D01*
X18310641Y45095580D01*
X18186038Y45112517D01*
X18040039Y45131948D01*
X17882518Y45152557D01*
X17723346Y45173032D01*
X17572397Y45192059D01*
X17572001Y45192108D01*
X17470347Y45205450D01*
X17385789Y45217808D01*
X17333569Y45226921D01*
X17327770Y45228312D01*
X17288442Y45235505D01*
X17209356Y45247374D01*
X17101783Y45262303D01*
X16976998Y45278677D01*
X16969858Y45279587D01*
X16839507Y45296297D01*
X16720884Y45311702D01*
X16627099Y45324089D01*
X16571377Y45331724D01*
X16449110Y45349190D01*
X16302856Y45369685D01*
X16144707Y45391556D01*
X15986757Y45413153D01*
X15841098Y45432823D01*
X15719824Y45448916D01*
X15635027Y45459779D01*
X15623853Y45461137D01*
X15464657Y45499578D01*
X15341167Y45570753D01*
X15256437Y45671686D01*
X15213517Y45799396D01*
X15208655Y45866436D01*
X15230582Y46013666D01*
X15294420Y46135304D01*
X15397257Y46225873D01*
X15400966Y46228083D01*
X15500081Y46261778D01*
X15643539Y46272983D01*
X15829416Y46261637D01*
G37*
G36*
X41809800Y48907425D02*
G01*
X41921999Y48834029D01*
X41952665Y48802528D01*
X41981866Y48766352D01*
X42006314Y48726522D01*
X42027979Y48675948D01*
X42048831Y48607542D01*
X42070837Y48514213D01*
X42095969Y48388872D01*
X42126194Y48224429D01*
X42149174Y48095087D01*
X42193454Y47844382D01*
X42231369Y47630278D01*
X42262344Y47455994D01*
X42285809Y47324750D01*
X42301189Y47239766D01*
X42304659Y47220998D01*
X42313855Y47170468D01*
X42329652Y47082309D01*
X42349729Y46969528D01*
X42368944Y46861079D01*
X42396535Y46705951D01*
X42427450Y46533602D01*
X42456895Y46370704D01*
X42470601Y46295492D01*
X42493164Y46172009D01*
X42521819Y46014946D01*
X42553465Y45841312D01*
X42585000Y45668117D01*
X42597145Y45601362D01*
X42623971Y45453996D01*
X42648559Y45319156D01*
X42669008Y45207240D01*
X42683420Y45128644D01*
X42688708Y45100046D01*
X42715160Y44932392D01*
X42723316Y44802868D01*
X42712902Y44701447D01*
X42683644Y44618104D01*
X42675042Y44601895D01*
X42596074Y44506013D01*
X42488328Y44433938D01*
X42369907Y44396520D01*
X42327598Y44393627D01*
X42256780Y44404795D01*
X42170797Y44432053D01*
X42143433Y44443549D01*
X42062383Y44493773D01*
X41997057Y44557187D01*
X41985499Y44573815D01*
X41969976Y44601923D01*
X41955583Y44635793D01*
X41941043Y44681209D01*
X41925081Y44743954D01*
X41906421Y44829808D01*
X41883787Y44944556D01*
X41855903Y45093979D01*
X41821494Y45283860D01*
X41789984Y45459965D01*
X41764413Y45602645D01*
X41739780Y45738935D01*
X41718592Y45855029D01*
X41703359Y45937116D01*
X41701212Y45948427D01*
X41687906Y46020206D01*
X41668121Y46129636D01*
X41644187Y46263712D01*
X41618435Y46409430D01*
X41609103Y46462597D01*
X41582301Y46614374D01*
X41549105Y46800442D01*
X41512438Y47004529D01*
X41475224Y47210360D01*
X41442866Y47388103D01*
X41392878Y47661218D01*
X41351334Y47888370D01*
X41317625Y48074210D01*
X41291142Y48223389D01*
X41271279Y48340558D01*
X41257426Y48430368D01*
X41248975Y48497470D01*
X41245319Y48546515D01*
X41245849Y48582154D01*
X41249957Y48609038D01*
X41257036Y48631819D01*
X41266476Y48655146D01*
X41274560Y48675326D01*
X41344497Y48795306D01*
X41443093Y48880401D01*
X41560244Y48928716D01*
X41685847Y48938356D01*
X41809800Y48907425D01*
G37*
G36*
X154816839Y45147814D02*
G01*
X154801513Y45124808D01*
X154759271Y45068990D01*
X154695714Y44987377D01*
X154616441Y44886985D01*
X154527055Y44774832D01*
X154433156Y44657933D01*
X154340345Y44543306D01*
X154254223Y44437967D01*
X154180392Y44348932D01*
X154156488Y44320556D01*
X154140747Y44301235D01*
X154126405Y44284791D01*
X154109252Y44270342D01*
X154085080Y44257003D01*
X154049678Y44243891D01*
X153998837Y44230122D01*
X153928347Y44214811D01*
X153833999Y44197076D01*
X153711582Y44176032D01*
X153556888Y44150795D01*
X153365706Y44120482D01*
X153133828Y44084209D01*
X152857043Y44041091D01*
X152734450Y44021985D01*
X152592849Y43999798D01*
X152413563Y43971539D01*
X152209673Y43939282D01*
X151994262Y43905097D01*
X151780414Y43871057D01*
X151667547Y43853042D01*
X151479778Y43823064D01*
X151301203Y43794605D01*
X151140447Y43769034D01*
X151006137Y43747723D01*
X150906897Y43732041D01*
X150857729Y43724343D01*
X150799404Y43715221D01*
X150697199Y43699136D01*
X150558015Y43677177D01*
X150388754Y43650436D01*
X150196319Y43620002D01*
X149987611Y43586966D01*
X149803681Y43557830D01*
X149577140Y43521960D01*
X149352771Y43486485D01*
X149139101Y43452752D01*
X148944661Y43422104D01*
X148777979Y43395886D01*
X148647586Y43375444D01*
X148582527Y43365299D01*
X148321811Y43324657D01*
X148055083Y43282794D01*
X147788782Y43240742D01*
X147529352Y43199533D01*
X147283233Y43160199D01*
X147056868Y43123773D01*
X146856698Y43091287D01*
X146689165Y43063773D01*
X146560711Y43042264D01*
X146488990Y43029818D01*
X146394067Y43015375D01*
X146307227Y43006339D01*
X146272085Y43004803D01*
X146194871Y43004803D01*
X146259515Y43075502D01*
X146296242Y43117528D01*
X146359200Y43191551D01*
X146441920Y43289883D01*
X146537937Y43404839D01*
X146637759Y43525077D01*
X146751217Y43659174D01*
X146850026Y43770074D01*
X146929687Y43853029D01*
X146985705Y43903291D01*
X147008542Y43916504D01*
X147053065Y43924998D01*
X147135768Y43939234D01*
X147258832Y43959565D01*
X147424438Y43986344D01*
X147634765Y44019924D01*
X147891994Y44060658D01*
X148132628Y44098573D01*
X148429092Y44145205D01*
X148680278Y44184722D01*
X148891699Y44217996D01*
X149068869Y44245898D01*
X149217304Y44269301D01*
X149342518Y44289075D01*
X149450023Y44306092D01*
X149545336Y44321225D01*
X149633969Y44335344D01*
X149721438Y44349322D01*
X149813257Y44364030D01*
X149906515Y44378988D01*
X150020119Y44397107D01*
X150168423Y44420602D01*
X150335325Y44446930D01*
X150504721Y44473549D01*
X150574936Y44484548D01*
X150864713Y44529932D01*
X151133171Y44572062D01*
X151375100Y44610117D01*
X151585288Y44643274D01*
X151758523Y44670713D01*
X151889594Y44691611D01*
X151950341Y44701400D01*
X152195786Y44741018D01*
X152472210Y44785233D01*
X152768995Y44832378D01*
X153075521Y44880782D01*
X153381169Y44928778D01*
X153675320Y44974696D01*
X153947355Y45016867D01*
X154186656Y45053622D01*
X154328377Y45075141D01*
X154471818Y45097179D01*
X154598480Y45117392D01*
X154699160Y45134253D01*
X154764659Y45146233D01*
X154784703Y45150917D01*
X154813947Y45152909D01*
X154816839Y45147814D01*
G37*
G36*
X150691962Y40071592D02*
G01*
X150689362Y40060341D01*
X150676198Y40038026D01*
X150649831Y40001140D01*
X150607621Y39946177D01*
X150546928Y39869628D01*
X150465114Y39767988D01*
X150359538Y39637750D01*
X150227561Y39475405D01*
X150066544Y39277448D01*
X150022203Y39222918D01*
X149697904Y38823941D01*
X149403231Y38461167D01*
X149135262Y38130995D01*
X148891077Y37829822D01*
X148667753Y37554048D01*
X148462370Y37300070D01*
X148426991Y37256280D01*
X148331157Y37138530D01*
X148244757Y37034035D01*
X148173603Y36949691D01*
X148123509Y36892397D01*
X148101223Y36869654D01*
X148061462Y36860750D01*
X147979798Y36857147D01*
X147865490Y36859016D01*
X147772709Y36863570D01*
X147654119Y36870524D01*
X147497599Y36879342D01*
X147316572Y36889288D01*
X147124460Y36899624D01*
X146934683Y36909615D01*
X146911474Y36910820D01*
X146703054Y36921859D01*
X146462765Y36934980D01*
X146210055Y36949096D01*
X145964374Y36963121D01*
X145745173Y36975969D01*
X145741737Y36976174D01*
X145525846Y36988856D01*
X145285647Y37002628D01*
X145039828Y37016442D01*
X144807075Y37029247D01*
X144606076Y37039993D01*
X144597709Y37040431D01*
X144398670Y37051071D01*
X144166999Y37063848D01*
X143921382Y37077707D01*
X143680503Y37091594D01*
X143463049Y37104453D01*
X143453681Y37105016D01*
X143233756Y37117918D01*
X142985744Y37131900D01*
X142729484Y37145882D01*
X142484812Y37158780D01*
X142271568Y37169512D01*
X142271090Y37169535D01*
X142094452Y37178432D01*
X141926708Y37187444D01*
X141777582Y37196005D01*
X141656801Y37203549D01*
X141574091Y37209510D01*
X141555223Y37211188D01*
X141417799Y37224704D01*
X141467645Y37280391D01*
X141496917Y37314596D01*
X141554051Y37382663D01*
X141634208Y37478776D01*
X141732546Y37597120D01*
X141844227Y37731880D01*
X141963350Y37875957D01*
X142144616Y38095596D01*
X142296053Y38279072D01*
X142420802Y38429677D01*
X142522007Y38550702D01*
X142602808Y38645439D01*
X142666346Y38717179D01*
X142715765Y38769214D01*
X142754205Y38804836D01*
X142784809Y38827336D01*
X142810717Y38840006D01*
X142835073Y38846137D01*
X142861017Y38849021D01*
X142891692Y38851949D01*
X142895351Y38852397D01*
X142969387Y38862627D01*
X143080920Y38879110D01*
X143216698Y38899841D01*
X143363470Y38922816D01*
X143415118Y38931037D01*
X143546818Y38952070D01*
X143682899Y38973738D01*
X143829713Y38997046D01*
X143993609Y39022996D01*
X144180940Y39052595D01*
X144398058Y39086845D01*
X144651313Y39126751D01*
X144947057Y39173317D01*
X145047608Y39189144D01*
X145199356Y39213112D01*
X145346640Y39236523D01*
X145475830Y39257202D01*
X145573300Y39272972D01*
X145600341Y39277416D01*
X145698852Y39293609D01*
X145789031Y39308219D01*
X145833703Y39315314D01*
X145883326Y39323113D01*
X145974362Y39337474D01*
X146097439Y39356918D01*
X146243187Y39379964D01*
X146402235Y39405131D01*
X146412145Y39406700D01*
X146593363Y39435342D01*
X146782391Y39465140D01*
X146963752Y39493661D01*
X147121971Y39518470D01*
X147219976Y39533773D01*
X147496546Y39576905D01*
X147784083Y39621902D01*
X148092787Y39670364D01*
X148432856Y39723892D01*
X148775341Y39777907D01*
X148958038Y39806758D01*
X149113839Y39831412D01*
X149252837Y39853485D01*
X149385126Y39874596D01*
X149520798Y39896363D01*
X149669946Y39920404D01*
X149842663Y39948338D01*
X150049043Y39981781D01*
X150217156Y40009047D01*
X150357612Y40031384D01*
X150482482Y40050407D01*
X150581897Y40064676D01*
X150645988Y40072753D01*
X150662772Y40074034D01*
X150676027Y40074932D01*
X150686637Y40075287D01*
X150691962Y40071592D01*
G37*
G36*
X91424549Y45909864D02*
G01*
X91452736Y45828821D01*
X91494043Y45709103D01*
X91545035Y45560711D01*
X91602278Y45393649D01*
X91662336Y45217921D01*
X91689389Y45138609D01*
X91769365Y44908749D01*
X91838548Y44721989D01*
X91900106Y44571944D01*
X91957206Y44452228D01*
X92013016Y44356455D01*
X92070703Y44278241D01*
X92133434Y44211200D01*
X92162852Y44184125D01*
X92222525Y44132878D01*
X92280346Y44088367D01*
X92341005Y44049321D01*
X92409189Y44014466D01*
X92489585Y43982530D01*
X92586881Y43952241D01*
X92705765Y43922326D01*
X92850924Y43891513D01*
X93027047Y43858528D01*
X93238820Y43822100D01*
X93490932Y43780956D01*
X93788070Y43733823D01*
X93867852Y43721283D01*
X93998261Y43699541D01*
X94106740Y43679019D01*
X94185034Y43661477D01*
X94224887Y43648675D01*
X94227771Y43644557D01*
X94199194Y43631796D01*
X94128723Y43605032D01*
X94023181Y43566715D01*
X93889388Y43519295D01*
X93734164Y43465222D01*
X93604895Y43420789D01*
X93372182Y43341210D01*
X93182870Y43276290D01*
X93031701Y43224078D01*
X92913414Y43182626D01*
X92822751Y43149985D01*
X92754452Y43124207D01*
X92703258Y43103342D01*
X92663908Y43085442D01*
X92631144Y43068558D01*
X92599705Y43050741D01*
X92588459Y43044168D01*
X92516044Y42992447D01*
X92429394Y42917317D01*
X92347119Y42834925D01*
X92346197Y42833918D01*
X92287534Y42767814D01*
X92238263Y42705570D01*
X92196531Y42641286D01*
X92160485Y42569061D01*
X92128272Y42482994D01*
X92098040Y42377186D01*
X92067934Y42245735D01*
X92036104Y42082740D01*
X92000694Y41882303D01*
X91959854Y41638520D01*
X91947758Y41565127D01*
X91933942Y41482975D01*
X91921411Y41411226D01*
X91921348Y41410876D01*
X91910068Y41342171D01*
X91897465Y41257037D01*
X91895622Y41243771D01*
X91883876Y41165940D01*
X91866582Y41060250D01*
X91847459Y40949417D01*
X91847229Y40948123D01*
X91829334Y40853065D01*
X91816073Y40802410D01*
X91804409Y40789722D01*
X91791305Y40808562D01*
X91786564Y40819581D01*
X91771456Y40860541D01*
X91742381Y40943088D01*
X91701802Y41060085D01*
X91652184Y41204398D01*
X91595989Y41368891D01*
X91538056Y41539419D01*
X91455516Y41780806D01*
X91385629Y41978924D01*
X91325682Y42139569D01*
X91272959Y42268539D01*
X91224748Y42371631D01*
X91178334Y42454641D01*
X91131002Y42523367D01*
X91080038Y42583606D01*
X91022730Y42641155D01*
X91021831Y42642005D01*
X90926535Y42725178D01*
X90829620Y42792732D01*
X90722435Y42847983D01*
X90596332Y42894247D01*
X90442661Y42934839D01*
X90252773Y42973075D01*
X90082831Y43001968D01*
X89898702Y43031672D01*
X89700342Y43063669D01*
X89505853Y43095038D01*
X89333342Y43122860D01*
X89249223Y43136424D01*
X88891224Y43194148D01*
X89056410Y43251340D01*
X89127286Y43275746D01*
X89237842Y43313649D01*
X89379084Y43361973D01*
X89542016Y43417643D01*
X89717647Y43477583D01*
X89838600Y43518823D01*
X90048722Y43590919D01*
X90216749Y43650221D01*
X90349457Y43699924D01*
X90453618Y43743222D01*
X90536007Y43783310D01*
X90603398Y43823383D01*
X90662563Y43866636D01*
X90720278Y43916264D01*
X90760291Y43953516D01*
X90831005Y44022672D01*
X90890983Y44088449D01*
X90942001Y44156287D01*
X90985841Y44231624D01*
X91024280Y44319902D01*
X91059100Y44426557D01*
X91092078Y44557031D01*
X91124995Y44716762D01*
X91159629Y44911189D01*
X91197761Y45145752D01*
X91240482Y45421402D01*
X91261993Y45556899D01*
X91287759Y45711983D01*
X91312626Y45855691D01*
X91315412Y45871301D01*
X91356890Y46102678D01*
X91424549Y45909864D01*
G37*
G36*
X83791138Y42739959D02*
G01*
X83805959Y42738093D01*
X83886146Y42728209D01*
X84013672Y42713247D01*
X84184753Y42693635D01*
X84395606Y42669799D01*
X84642448Y42642165D01*
X84921496Y42611159D01*
X85228966Y42577208D01*
X85429592Y42555154D01*
X85606645Y42535708D01*
X85772211Y42517496D01*
X85917564Y42501480D01*
X86033980Y42488622D01*
X86112735Y42479884D01*
X86136576Y42477212D01*
X86242893Y42465300D01*
X86379142Y42450208D01*
X86535184Y42433040D01*
X86700882Y42414902D01*
X86866098Y42396898D01*
X87020696Y42380134D01*
X87154538Y42365712D01*
X87257486Y42354740D01*
X87319167Y42348343D01*
X87409909Y42338832D01*
X87527219Y42325878D01*
X87646615Y42312187D01*
X87653377Y42311393D01*
X87776163Y42297204D01*
X87924020Y42280474D01*
X88070894Y42264142D01*
X88116130Y42259186D01*
X88236800Y42245952D01*
X88348106Y42233611D01*
X88433601Y42223993D01*
X88463195Y42220581D01*
X88519560Y42214283D01*
X88615856Y42203865D01*
X88740874Y42190527D01*
X88883402Y42175467D01*
X88964511Y42166957D01*
X89105049Y42151281D01*
X89227546Y42135789D01*
X89322879Y42121779D01*
X89381923Y42110551D01*
X89396397Y42105474D01*
X89386113Y42081920D01*
X89345378Y42027087D01*
X89279165Y41946964D01*
X89192447Y41847541D01*
X89090196Y41734805D01*
X89075041Y41718426D01*
X88952439Y41586101D01*
X88826298Y41449698D01*
X88706750Y41320195D01*
X88603930Y41208567D01*
X88540320Y41139283D01*
X88472002Y41064843D01*
X88375387Y40959789D01*
X88257065Y40831274D01*
X88123626Y40686454D01*
X87981661Y40532483D01*
X87837760Y40376516D01*
X87820482Y40357798D01*
X87675028Y40200140D01*
X87529129Y40041855D01*
X87389735Y39890494D01*
X87263795Y39753608D01*
X87158259Y39638746D01*
X87080078Y39553460D01*
X87074936Y39547837D01*
X86914953Y39373052D01*
X86746668Y39189542D01*
X86575946Y39003675D01*
X86408653Y38821820D01*
X86250652Y38650346D01*
X86107808Y38495620D01*
X85985987Y38364012D01*
X85891052Y38261890D01*
X85866636Y38235759D01*
X85788937Y38152429D01*
X85685323Y38040833D01*
X85564675Y37910560D01*
X85435873Y37771200D01*
X85307797Y37632342D01*
X85289273Y37612233D01*
X85176998Y37491096D01*
X85076384Y37384015D01*
X84992596Y37296365D01*
X84930798Y37233522D01*
X84896154Y37200861D01*
X84890791Y37197444D01*
X84860756Y37201983D01*
X84792025Y37211819D01*
X84696835Y37225208D01*
X84645482Y37232366D01*
X84505442Y37251184D01*
X84345016Y37271771D01*
X84194920Y37290201D01*
X84169875Y37293162D01*
X84066938Y37305290D01*
X83925601Y37322025D01*
X83758514Y37341865D01*
X83578331Y37363307D01*
X83397702Y37384849D01*
X83385766Y37386274D01*
X83177522Y37411135D01*
X82939179Y37439574D01*
X82691695Y37469091D01*
X82456028Y37497187D01*
X82293154Y37516596D01*
X82084316Y37541501D01*
X81849975Y37569493D01*
X81610198Y37598171D01*
X81385052Y37625135D01*
X81226252Y37644185D01*
X81023080Y37668486D01*
X80794005Y37695727D01*
X80560212Y37723398D01*
X80342888Y37748990D01*
X80223620Y37762956D01*
X80070544Y37781485D01*
X79935314Y37799105D01*
X79826121Y37814644D01*
X79751156Y37826935D01*
X79718610Y37834808D01*
X79718183Y37835116D01*
X79727767Y37859080D01*
X79765157Y37915622D01*
X79825307Y37997766D01*
X79903170Y38098539D01*
X79962414Y38172612D01*
X80009788Y38231072D01*
X80058599Y38291293D01*
X80110990Y38355914D01*
X80169100Y38427572D01*
X80235071Y38508906D01*
X80311043Y38602555D01*
X80399159Y38711157D01*
X80501558Y38837351D01*
X80620381Y38983774D01*
X80757771Y39153066D01*
X80915867Y39347864D01*
X81096810Y39570808D01*
X81302742Y39824535D01*
X81535804Y40111684D01*
X81798136Y40434893D01*
X81930211Y40597618D01*
X82230947Y40968093D01*
X82504118Y41304514D01*
X82749195Y41606230D01*
X82965648Y41872587D01*
X83152946Y42102936D01*
X83310561Y42296625D01*
X83437962Y42453003D01*
X83534619Y42571417D01*
X83600003Y42651218D01*
X83633584Y42691752D01*
X83634527Y42692864D01*
X83673807Y42730018D01*
X83719211Y42743922D01*
X83791138Y42739959D01*
G37*
G36*
X166235783Y44844339D02*
G01*
X166332461Y44836013D01*
X166378010Y44831027D01*
X166628327Y44801955D01*
X166835482Y44778006D01*
X167007378Y44758296D01*
X167151916Y44741942D01*
X167276999Y44728058D01*
X167390531Y44715762D01*
X167500413Y44704169D01*
X167614548Y44692395D01*
X167645381Y44689248D01*
X167755054Y44677982D01*
X167867115Y44666265D01*
X167987480Y44653446D01*
X168122064Y44638876D01*
X168276783Y44621906D01*
X168457553Y44601886D01*
X168670289Y44578165D01*
X168920906Y44550095D01*
X169215321Y44517026D01*
X169290725Y44508546D01*
X169426420Y44493405D01*
X169601591Y44474044D01*
X169807506Y44451413D01*
X170035431Y44426462D01*
X170276633Y44400140D01*
X170522379Y44373398D01*
X170763937Y44347186D01*
X170992573Y44322452D01*
X171199554Y44300148D01*
X171376148Y44281222D01*
X171513621Y44266625D01*
X171553074Y44262485D01*
X171668134Y44249848D01*
X171765695Y44237979D01*
X171833384Y44228449D01*
X171856699Y44223913D01*
X171849639Y44202877D01*
X171810020Y44148600D01*
X171741002Y44064823D01*
X171645748Y43955288D01*
X171527417Y43823736D01*
X171419654Y43706655D01*
X171285769Y43562414D01*
X171155404Y43421825D01*
X171035092Y43291944D01*
X170931368Y43179829D01*
X170850764Y43092534D01*
X170806526Y43044449D01*
X170754728Y42988079D01*
X170673349Y42899688D01*
X170567691Y42785027D01*
X170443056Y42649847D01*
X170304748Y42499901D01*
X170158070Y42340940D01*
X170058159Y42232698D01*
X169898112Y42059229D01*
X169733466Y41880599D01*
X169571486Y41704703D01*
X169419436Y41539434D01*
X169284581Y41392686D01*
X169174186Y41272353D01*
X169135468Y41230066D01*
X169022685Y41107019D01*
X168911253Y40985869D01*
X168810098Y40876292D01*
X168728148Y40787963D01*
X168685577Y40742455D01*
X168606524Y40657767D01*
X168509596Y40552844D01*
X168411352Y40445640D01*
X168375260Y40405993D01*
X168304359Y40328240D01*
X168206643Y40221534D01*
X168090197Y40094680D01*
X167963105Y39956483D01*
X167833454Y39815747D01*
X167790987Y39769708D01*
X167383860Y39328487D01*
X167251109Y39331511D01*
X167144550Y39337521D01*
X167035739Y39348989D01*
X167002669Y39353921D01*
X166912001Y39367251D01*
X166799298Y39381330D01*
X166719875Y39389943D01*
X166605395Y39402112D01*
X166470518Y39417557D01*
X166353529Y39431804D01*
X166123432Y39460765D01*
X165937590Y39483754D01*
X165789294Y39501585D01*
X165671832Y39515069D01*
X165614410Y39521301D01*
X165513773Y39532442D01*
X165390236Y39546818D01*
X165280199Y39560132D01*
X165155360Y39575438D01*
X165009970Y39593030D01*
X164874544Y39609216D01*
X164868863Y39609889D01*
X164588646Y39643149D01*
X164335791Y39673337D01*
X164116091Y39699757D01*
X163935338Y39721711D01*
X163799326Y39738502D01*
X163789106Y39739783D01*
X163666391Y39754619D01*
X163537810Y39769278D01*
X163442041Y39779468D01*
X163322589Y39792805D01*
X163192567Y39809283D01*
X163133539Y39817531D01*
X163014093Y39833610D01*
X162884076Y39849067D01*
X162825037Y39855284D01*
X162732699Y39865248D01*
X162655118Y39875156D01*
X162619369Y39880945D01*
X162569188Y39888245D01*
X162485116Y39897660D01*
X162384517Y39907260D01*
X162375138Y39908077D01*
X162280194Y39918185D01*
X162206369Y39929615D01*
X162167667Y39940128D01*
X162165712Y39941532D01*
X162177672Y39964500D01*
X162218902Y40022736D01*
X162285977Y40111825D01*
X162375468Y40227352D01*
X162483952Y40364903D01*
X162608000Y40520063D01*
X162744188Y40688418D01*
X162769862Y40719949D01*
X162933371Y40920677D01*
X163120705Y41150860D01*
X163323329Y41399997D01*
X163532707Y41657588D01*
X163740304Y41913131D01*
X163937583Y42156127D01*
X164096845Y42352439D01*
X164271108Y42567286D01*
X164457418Y42796903D01*
X164648407Y43032215D01*
X164836707Y43264146D01*
X165014950Y43483620D01*
X165175768Y43681563D01*
X165311792Y43848898D01*
X165315277Y43853184D01*
X165448896Y44017513D01*
X165578935Y44177477D01*
X165699973Y44326405D01*
X165806591Y44457627D01*
X165893369Y44564474D01*
X165954888Y44640276D01*
X165968569Y44657152D01*
X166034567Y44737192D01*
X166089417Y44801121D01*
X166124379Y44838856D01*
X166130741Y44844297D01*
X166164236Y44847332D01*
X166235783Y44844339D01*
G37*
G36*
X141350456Y36390623D02*
G01*
X141455067Y36386575D01*
X141585092Y36379984D01*
X141696165Y36373434D01*
X141904612Y36360695D01*
X142154889Y36345829D01*
X142437480Y36329378D01*
X142742866Y36311885D01*
X143061532Y36293889D01*
X143383959Y36275933D01*
X143700630Y36258559D01*
X143980705Y36243446D01*
X144174167Y36232911D01*
X144383815Y36221171D01*
X144591549Y36209260D01*
X144779265Y36198212D01*
X144893357Y36191281D01*
X145061441Y36181162D01*
X145239946Y36170906D01*
X145409594Y36161589D01*
X145551113Y36154291D01*
X145574632Y36153155D01*
X145706163Y36146527D01*
X145870445Y36137692D01*
X146048911Y36127676D01*
X146222999Y36117506D01*
X146268762Y36114751D01*
X146438257Y36104715D01*
X146617369Y36094526D01*
X146787532Y36085216D01*
X146930181Y36077814D01*
X146962891Y36076213D01*
X147096558Y36069216D01*
X147262162Y36059680D01*
X147440355Y36048764D01*
X147611791Y36037626D01*
X147642668Y36035535D01*
X147794286Y36025476D01*
X147904389Y36016196D01*
X147982596Y36003081D01*
X148038528Y35981520D01*
X148081802Y35946898D01*
X148122039Y35894605D01*
X148168857Y35820027D01*
X148200884Y35767860D01*
X148260756Y35672128D01*
X148334932Y35554762D01*
X148409786Y35437299D01*
X148428614Y35407941D01*
X148484558Y35320508D01*
X148565917Y35192830D01*
X148670645Y35028133D01*
X148796696Y34829641D01*
X148942024Y34600579D01*
X149104582Y34344172D01*
X149282326Y34063644D01*
X149473207Y33762221D01*
X149611294Y33544075D01*
X149701110Y33402410D01*
X149790111Y33262468D01*
X149871172Y33135422D01*
X149937166Y33032447D01*
X149971997Y32978487D01*
X149999321Y32935905D01*
X150051391Y32854274D01*
X150125429Y32737976D01*
X150218653Y32591391D01*
X150328283Y32418899D01*
X150451541Y32224882D01*
X150585646Y32013719D01*
X150727819Y31789790D01*
X150875278Y31557477D01*
X151025246Y31321159D01*
X151174941Y31085217D01*
X151321583Y30854032D01*
X151462394Y30631984D01*
X151594593Y30423453D01*
X151715400Y30232819D01*
X151822035Y30064464D01*
X151911719Y29922767D01*
X151981671Y29812109D01*
X152022820Y29746871D01*
X152090832Y29638838D01*
X151982024Y29644037D01*
X151921767Y29647227D01*
X151820578Y29652926D01*
X151688847Y29660533D01*
X151536965Y29669449D01*
X151384754Y29678509D01*
X151195555Y29689717D01*
X150974383Y29702610D01*
X150740603Y29716073D01*
X150513582Y29728989D01*
X150343559Y29738527D01*
X150168001Y29748304D01*
X149998740Y29757750D01*
X149846480Y29766266D01*
X149721928Y29773255D01*
X149635789Y29778115D01*
X149623721Y29778802D01*
X149544896Y29783203D01*
X149426113Y29789713D01*
X149278760Y29797716D01*
X149114224Y29806592D01*
X148943891Y29815724D01*
X148942446Y29815801D01*
X148747557Y29826393D01*
X148535129Y29838239D01*
X148323707Y29850287D01*
X148131832Y29861483D01*
X148016940Y29868379D01*
X147852189Y29878268D01*
X147682381Y29888171D01*
X147524424Y29897122D01*
X147395223Y29904152D01*
X147361373Y29905906D01*
X147163291Y29916212D01*
X146928103Y29928826D01*
X146670026Y29942958D01*
X146403277Y29957818D01*
X146142074Y29972615D01*
X145900633Y29986557D01*
X145728883Y29996707D01*
X145560985Y30006589D01*
X145385011Y30016646D01*
X145218964Y30025868D01*
X145080845Y30033244D01*
X145047608Y30034942D01*
X144923081Y30041413D01*
X144764609Y30049944D01*
X144589575Y30059583D01*
X144415363Y30069381D01*
X144353478Y30072920D01*
X144210263Y30081115D01*
X144027964Y30091488D01*
X143818835Y30103344D01*
X143595128Y30115991D01*
X143369098Y30128734D01*
X143183742Y30139154D01*
X142960427Y30151779D01*
X142724463Y30165278D01*
X142489213Y30178875D01*
X142268041Y30191795D01*
X142074312Y30203262D01*
X141949733Y30210767D01*
X141461272Y30240532D01*
X141444204Y30639014D01*
X141439199Y30763024D01*
X141432972Y30928763D01*
X141425859Y31126565D01*
X141418200Y31346764D01*
X141410333Y31579696D01*
X141402597Y31815696D01*
X141398303Y31950147D01*
X141384664Y32372315D01*
X141368818Y32845191D01*
X141350791Y33368114D01*
X141330604Y33940423D01*
X141308282Y34561457D01*
X141283847Y35230556D01*
X141268385Y35649322D01*
X141261779Y35837634D01*
X141256496Y36008667D01*
X141252681Y36155841D01*
X141250479Y36272581D01*
X141250037Y36352306D01*
X141251500Y36388440D01*
X141251986Y36389816D01*
X141279886Y36391809D01*
X141350456Y36390623D01*
G37*
G36*
X155061069Y52436969D02*
G01*
X155417723Y52430628D01*
X155787538Y52424137D01*
X156166749Y52417558D01*
X156551591Y52410952D01*
X156938297Y52404380D01*
X157323102Y52397903D01*
X157702242Y52391583D01*
X158071949Y52385479D01*
X158428459Y52379655D01*
X158768006Y52374170D01*
X159086825Y52369085D01*
X159381149Y52364463D01*
X159647215Y52360364D01*
X159881254Y52356849D01*
X160079504Y52353979D01*
X160238197Y52351816D01*
X160353568Y52350420D01*
X160421852Y52349854D01*
X160427719Y52349844D01*
X160528031Y52348486D01*
X160605257Y52344855D01*
X160647775Y52339617D01*
X160652494Y52336990D01*
X160637164Y52313302D01*
X160595384Y52257731D01*
X160533255Y52178189D01*
X160456881Y52082591D01*
X160444327Y52067050D01*
X160258293Y51837114D01*
X160101199Y51642970D01*
X159969652Y51480430D01*
X159860261Y51345308D01*
X159769633Y51233417D01*
X159694375Y51140569D01*
X159631094Y51062578D01*
X159576399Y50995257D01*
X159526895Y50934419D01*
X159479192Y50875876D01*
X159475710Y50871605D01*
X159402471Y50781665D01*
X159300966Y50656835D01*
X159175296Y50502171D01*
X159029566Y50322731D01*
X158867879Y50123572D01*
X158694338Y49909751D01*
X158513048Y49686325D01*
X158328110Y49458353D01*
X158143630Y49230890D01*
X157963710Y49008995D01*
X157792453Y48797724D01*
X157633963Y48602135D01*
X157492344Y48427285D01*
X157464814Y48393284D01*
X157310503Y48202865D01*
X157136466Y47988417D01*
X156954068Y47763921D01*
X156774673Y47543361D01*
X156609644Y47340719D01*
X156525123Y47237071D01*
X156061039Y46668324D01*
X155920973Y46647563D01*
X155849276Y46636628D01*
X155738325Y46619328D01*
X155599627Y46597475D01*
X155444692Y46572881D01*
X155318154Y46552669D01*
X155128742Y46522369D01*
X154918067Y46488742D01*
X154707045Y46455121D01*
X154516588Y46424839D01*
X154444065Y46413333D01*
X154276433Y46386757D01*
X154076855Y46355111D01*
X153864170Y46321381D01*
X153657213Y46288554D01*
X153531414Y46268598D01*
X153326061Y46236037D01*
X153160093Y46209776D01*
X153022118Y46188034D01*
X152900743Y46169029D01*
X152784575Y46150978D01*
X152662221Y46132100D01*
X152522290Y46110613D01*
X152477365Y46103726D01*
X152356559Y46085050D01*
X152247120Y46067841D01*
X152163862Y46054443D01*
X152130300Y46048800D01*
X152077576Y46040001D01*
X151983495Y46024761D01*
X151857499Y46004571D01*
X151709034Y45980925D01*
X151547542Y45955317D01*
X151382467Y45929238D01*
X151223253Y45904182D01*
X151079344Y45881643D01*
X150960182Y45863112D01*
X150875212Y45850084D01*
X150844875Y45845574D01*
X150760405Y45832840D01*
X150686612Y45820863D01*
X150677770Y45819321D01*
X150602382Y45806648D01*
X150536373Y45796258D01*
X150481505Y45787703D01*
X150388736Y45772970D01*
X150270920Y45754107D01*
X150140909Y45733167D01*
X150137891Y45732680D01*
X150004512Y45711258D01*
X149879866Y45691466D01*
X149778028Y45675526D01*
X149713701Y45665750D01*
X149617462Y45651269D01*
X149488299Y45631218D01*
X149336491Y45607255D01*
X149172318Y45581039D01*
X149006061Y45554229D01*
X148847998Y45528485D01*
X148708410Y45505464D01*
X148597577Y45486826D01*
X148525779Y45474229D01*
X148519239Y45473006D01*
X148425150Y45457910D01*
X148339075Y45448578D01*
X148305931Y45447111D01*
X148254940Y45450319D01*
X148246894Y45465943D01*
X148264450Y45491777D01*
X148294877Y45529368D01*
X148349689Y45596249D01*
X148420440Y45682137D01*
X148480907Y45755289D01*
X148566288Y45858477D01*
X148672102Y45986439D01*
X148786050Y46124298D01*
X148895833Y46257176D01*
X148916862Y46282637D01*
X149100435Y46504809D01*
X149313717Y46762744D01*
X149553570Y47052647D01*
X149816855Y47370727D01*
X150081377Y47690178D01*
X150202921Y47837036D01*
X150336680Y47998818D01*
X150469801Y48159970D01*
X150589432Y48304935D01*
X150640537Y48366929D01*
X150715991Y48458388D01*
X150818750Y48582769D01*
X150943304Y48733412D01*
X151084145Y48903657D01*
X151235760Y49086843D01*
X151392641Y49276310D01*
X151549277Y49465397D01*
X151555076Y49472395D01*
X151716292Y49667050D01*
X151902695Y49892269D01*
X152106758Y50138949D01*
X152320954Y50397985D01*
X152537755Y50660275D01*
X152749636Y50916715D01*
X152949069Y51158200D01*
X153030821Y51257232D01*
X153194614Y51455517D01*
X153351169Y51644741D01*
X153496906Y51820599D01*
X153628244Y51978782D01*
X153741602Y52114984D01*
X153833401Y52224898D01*
X153900058Y52304216D01*
X153937995Y52348632D01*
X153940256Y52351197D01*
X154032729Y52455384D01*
X155061069Y52436969D01*
G37*
G36*
X58956262Y34276248D02*
G01*
X59031638Y34271424D01*
X59147589Y34264681D01*
X59293335Y34256613D01*
X59458095Y34247817D01*
X59631091Y34238885D01*
X59656818Y34237584D01*
X59852698Y34227464D01*
X60063219Y34216177D01*
X60271334Y34204662D01*
X60459993Y34193863D01*
X60595179Y34185772D01*
X60759971Y34175833D01*
X60932012Y34165844D01*
X61093217Y34156833D01*
X61225501Y34149825D01*
X61250746Y34148564D01*
X61415175Y34140202D01*
X61619930Y34129328D01*
X61854013Y34116555D01*
X62106425Y34102498D01*
X62366172Y34087767D01*
X62622254Y34072977D01*
X62863676Y34058740D01*
X62883235Y34057571D01*
X63048080Y34047844D01*
X63215950Y34038173D01*
X63370994Y34029456D01*
X63497360Y34022591D01*
X63538802Y34020439D01*
X63806347Y34006614D01*
X64072646Y33992408D01*
X64332749Y33978121D01*
X64581703Y33964050D01*
X64814558Y33950495D01*
X65026361Y33937754D01*
X65212162Y33926125D01*
X65367009Y33915907D01*
X65485950Y33907398D01*
X65564034Y33900897D01*
X65596309Y33896702D01*
X65596867Y33896371D01*
X65611108Y33873941D01*
X65647279Y33817029D01*
X65699717Y33734538D01*
X65755431Y33646909D01*
X65813637Y33555314D01*
X65893362Y33429785D01*
X65988584Y33279808D01*
X66093281Y33114868D01*
X66201431Y32944450D01*
X66269550Y32837091D01*
X66353763Y32704381D01*
X66462666Y32532802D01*
X66593381Y32326886D01*
X66743030Y32091166D01*
X66908735Y31830172D01*
X67087618Y31548439D01*
X67276801Y31250498D01*
X67473405Y30940881D01*
X67674553Y30624120D01*
X67877367Y30304748D01*
X68078968Y29987298D01*
X68276479Y29676301D01*
X68467021Y29376289D01*
X68647716Y29091796D01*
X68815686Y28827352D01*
X68968053Y28587491D01*
X69101940Y28376745D01*
X69150369Y28300522D01*
X69259306Y28128677D01*
X69359474Y27969919D01*
X69447497Y27829653D01*
X69520000Y27713285D01*
X69573610Y27626224D01*
X69604952Y27573875D01*
X69611656Y27561402D01*
X69613886Y27547731D01*
X69604028Y27538457D01*
X69575562Y27533495D01*
X69521970Y27532758D01*
X69436732Y27536160D01*
X69313328Y27543612D01*
X69145240Y27555029D01*
X69143256Y27555167D01*
X69026707Y27562828D01*
X68872562Y27572328D01*
X68694572Y27582856D01*
X68506490Y27593598D01*
X68322067Y27603740D01*
X68320584Y27603820D01*
X68144498Y27613354D01*
X67972403Y27622801D01*
X67815813Y27631517D01*
X67686243Y27638862D01*
X67595208Y27644194D01*
X67587891Y27644639D01*
X67496733Y27650073D01*
X67367502Y27657579D01*
X67213463Y27666396D01*
X67047883Y27675764D01*
X66932325Y27682236D01*
X66735104Y27693272D01*
X66510148Y27705929D01*
X66281050Y27718875D01*
X66071407Y27730779D01*
X66006818Y27734463D01*
X65837060Y27744092D01*
X65665745Y27753691D01*
X65507358Y27762457D01*
X65376382Y27769585D01*
X65312689Y27772967D01*
X65177953Y27780167D01*
X64998569Y27790021D01*
X64781216Y27802152D01*
X64532573Y27816183D01*
X64259319Y27831737D01*
X63968134Y27848438D01*
X63718762Y27862835D01*
X63547882Y27872579D01*
X63370285Y27882447D01*
X63202776Y27891523D01*
X63062164Y27898889D01*
X63011778Y27901420D01*
X62885528Y27907956D01*
X62725962Y27916699D01*
X62551079Y27926638D01*
X62378879Y27936762D01*
X62330503Y27939681D01*
X62164192Y27949588D01*
X61991325Y27959556D01*
X61829350Y27968599D01*
X61695714Y27975731D01*
X61662082Y27977434D01*
X61542698Y27983619D01*
X61388850Y27991959D01*
X61217400Y28001522D01*
X61045207Y28011375D01*
X60980806Y28015135D01*
X60624118Y28036035D01*
X60314992Y28054004D01*
X60049669Y28069247D01*
X59824390Y28081970D01*
X59635396Y28092377D01*
X59478929Y28100673D01*
X59351228Y28107063D01*
X59248536Y28111753D01*
X59167093Y28114948D01*
X59127956Y28116201D01*
X59010429Y28119581D01*
X58979117Y28948680D01*
X58970881Y29166048D01*
X58962690Y29380885D01*
X58954896Y29584054D01*
X58947853Y29766414D01*
X58941911Y29918829D01*
X58937423Y30032160D01*
X58936275Y30060573D01*
X58932652Y30155747D01*
X58927760Y30293691D01*
X58921885Y30465783D01*
X58915316Y30663400D01*
X58908341Y30877919D01*
X58901249Y31100717D01*
X58897195Y31230309D01*
X58888829Y31490476D01*
X58878847Y31785847D01*
X58867829Y32100257D01*
X58856350Y32417541D01*
X58844988Y32721533D01*
X58834321Y32996068D01*
X58832615Y33038735D01*
X58823936Y33259271D01*
X58815980Y33470242D01*
X58808991Y33664466D01*
X58803216Y33834759D01*
X58798899Y33973939D01*
X58796284Y34074823D01*
X58795584Y34123952D01*
X58795584Y34287687D01*
X58956262Y34276248D01*
G37*
G36*
X90150475Y41611063D02*
G01*
X90201906Y41559087D01*
X90279229Y41478014D01*
X90378170Y41372388D01*
X90494460Y41246752D01*
X90623828Y41105652D01*
X90697057Y41025249D01*
X90844506Y40863042D01*
X90992331Y40700536D01*
X91133869Y40545046D01*
X91262459Y40403886D01*
X91371441Y40284370D01*
X91454154Y40193813D01*
X91469661Y40176868D01*
X91578815Y40057064D01*
X91705481Y39917119D01*
X91833085Y39775385D01*
X91933935Y39662698D01*
X92029155Y39556445D01*
X92148781Y39423808D01*
X92282422Y39276259D01*
X92419690Y39125270D01*
X92549100Y38983506D01*
X92670423Y38850762D01*
X92789766Y38719878D01*
X92899257Y38599511D01*
X92991024Y38498315D01*
X93057194Y38424948D01*
X93065017Y38416217D01*
X93121481Y38353444D01*
X93206072Y38259844D01*
X93312283Y38142595D01*
X93433608Y38008875D01*
X93563540Y37865860D01*
X93669167Y37749739D01*
X93796358Y37609742D01*
X93915557Y37478078D01*
X94021323Y37360792D01*
X94108213Y37263932D01*
X94170786Y37193544D01*
X94201849Y37157785D01*
X94271779Y37074272D01*
X94073307Y36855682D01*
X94000840Y36776228D01*
X93897963Y36663949D01*
X93769197Y36523749D01*
X93619061Y36360535D01*
X93452077Y36179211D01*
X93272764Y35984682D01*
X93085643Y35781853D01*
X92895235Y35575630D01*
X92706059Y35370918D01*
X92522637Y35172620D01*
X92435159Y35078126D01*
X92308364Y34940925D01*
X92161254Y34781296D01*
X92008154Y34614806D01*
X91863386Y34457027D01*
X91792446Y34379537D01*
X91670691Y34246694D01*
X91525289Y34088518D01*
X91367598Y33917337D01*
X91208978Y33745478D01*
X91060785Y33585268D01*
X91034045Y33556408D01*
X90891876Y33402700D01*
X90739575Y33237498D01*
X90587791Y33072389D01*
X90447172Y32918961D01*
X90328367Y32788800D01*
X90304219Y32762240D01*
X90187901Y32634703D01*
X90067479Y32503563D01*
X89953791Y32380563D01*
X89857673Y32277447D01*
X89815730Y32232941D01*
X89744439Y32157134D01*
X89646258Y32051834D01*
X89529013Y31925481D01*
X89400526Y31786513D01*
X89268620Y31643370D01*
X89208714Y31578188D01*
X89021211Y31374019D01*
X88847582Y31185038D01*
X88682809Y31005796D01*
X88521869Y30830840D01*
X88359742Y30654721D01*
X88191407Y30471987D01*
X88011842Y30277188D01*
X87816028Y30064872D01*
X87598943Y29829588D01*
X87355566Y29565887D01*
X87162940Y29357211D01*
X87058131Y29243675D01*
X86990484Y29574998D01*
X86958070Y29732721D01*
X86919712Y29917761D01*
X86880190Y30107148D01*
X86844281Y30277911D01*
X86844030Y30279095D01*
X86810733Y30437518D01*
X86776257Y30603101D01*
X86744401Y30757522D01*
X86718958Y30882457D01*
X86716215Y30896099D01*
X86696739Y30991983D01*
X86668887Y31127489D01*
X86634876Y31291924D01*
X86596919Y31474593D01*
X86557231Y31664804D01*
X86535168Y31770188D01*
X86490042Y31985746D01*
X86440350Y32223604D01*
X86389671Y32466597D01*
X86341585Y32697562D01*
X86299671Y32899334D01*
X86291256Y32939925D01*
X86257267Y33103641D01*
X86226027Y33253541D01*
X86199314Y33381145D01*
X86178903Y33477974D01*
X86166571Y33535548D01*
X86164672Y33544075D01*
X86155307Y33587507D01*
X86136783Y33675602D01*
X86110278Y33802654D01*
X86076967Y33962956D01*
X86038028Y34150803D01*
X85994635Y34360490D01*
X85947966Y34586310D01*
X85899197Y34822558D01*
X85849504Y35063529D01*
X85800064Y35303517D01*
X85752053Y35536816D01*
X85706648Y35757720D01*
X85665023Y35960524D01*
X85628357Y36139522D01*
X85597826Y36289008D01*
X85574605Y36403277D01*
X85559871Y36476624D01*
X85556280Y36494982D01*
X85525399Y36656518D01*
X85702445Y36842594D01*
X85799701Y36945547D01*
X85918220Y37072371D01*
X86060471Y37225738D01*
X86228924Y37408322D01*
X86426048Y37622795D01*
X86654315Y37871830D01*
X86740725Y37966234D01*
X86858068Y38094175D01*
X86999393Y38247793D01*
X87153663Y38415119D01*
X87309841Y38584183D01*
X87456888Y38743016D01*
X87486272Y38774703D01*
X87631156Y38931146D01*
X87788690Y39101692D01*
X87947504Y39274001D01*
X88096228Y39435735D01*
X88223492Y39574556D01*
X88244673Y39597722D01*
X88366462Y39730679D01*
X88511907Y39888943D01*
X88669641Y40060178D01*
X88828297Y40232046D01*
X88976508Y40392209D01*
X89003074Y40420864D01*
X89148699Y40578238D01*
X89307636Y40750589D01*
X89468316Y40925335D01*
X89619173Y41089892D01*
X89748637Y41231675D01*
X89768796Y41253829D01*
X89874419Y41368974D01*
X89968688Y41469839D01*
X90046060Y41550648D01*
X90100988Y41605620D01*
X90127929Y41628979D01*
X90129205Y41629398D01*
X90150475Y41611063D01*
G37*
G36*
X172670716Y43667796D02*
G01*
X172712256Y43621129D01*
X172781625Y43544090D01*
X172871962Y43444263D01*
X172976405Y43329228D01*
X173088092Y43206565D01*
X173095584Y43198350D01*
X173226399Y43054604D01*
X173368250Y42898202D01*
X173508853Y42742724D01*
X173635922Y42601747D01*
X173712588Y42516342D01*
X173822212Y42394339D01*
X173954285Y42248021D01*
X174096509Y42090972D01*
X174236586Y41936778D01*
X174329592Y41834732D01*
X174460422Y41691173D01*
X174602289Y41535065D01*
X174742904Y41379957D01*
X174869980Y41239400D01*
X174946596Y41154366D01*
X175056107Y41032858D01*
X175188035Y40886929D01*
X175330119Y40730117D01*
X175470095Y40575960D01*
X175563600Y40473210D01*
X175692664Y40331176D01*
X175831114Y40178175D01*
X175967203Y40027230D01*
X176089182Y39891366D01*
X176164704Y39806791D01*
X176270201Y39689035D01*
X176378653Y39569351D01*
X176478461Y39460456D01*
X176558025Y39375067D01*
X176569613Y39362848D01*
X176638151Y39288968D01*
X176690417Y39229016D01*
X176718119Y39192650D01*
X176720482Y39187123D01*
X176703093Y39162456D01*
X176652232Y39102698D01*
X176569866Y39010013D01*
X176457957Y38886568D01*
X176318471Y38734528D01*
X176153371Y38556058D01*
X175964621Y38353325D01*
X175950975Y38338710D01*
X175881536Y38263893D01*
X175787903Y38162356D01*
X175680479Y38045414D01*
X175569668Y37924380D01*
X175525450Y37875957D01*
X175411972Y37751942D01*
X175293415Y37622993D01*
X175181645Y37501979D01*
X175088530Y37401768D01*
X175063154Y37374641D01*
X174992454Y37298855D01*
X174894801Y37193605D01*
X174777989Y37067324D01*
X174649815Y36928445D01*
X174518075Y36785400D01*
X174458134Y36720209D01*
X174313921Y36563333D01*
X174157218Y36392976D01*
X173999239Y36221324D01*
X173851200Y36060561D01*
X173724318Y35922873D01*
X173700954Y35897537D01*
X173585959Y35772807D01*
X173473074Y35650289D01*
X173370800Y35539215D01*
X173287640Y35448818D01*
X173238201Y35394992D01*
X173076260Y35218694D01*
X172908551Y35036621D01*
X172742790Y34857116D01*
X172586694Y34688521D01*
X172447978Y34539178D01*
X172334358Y34417430D01*
X172311474Y34393023D01*
X172221999Y34297139D01*
X172103085Y34168834D01*
X171959896Y34013720D01*
X171797593Y33837408D01*
X171621338Y33645510D01*
X171436294Y33443638D01*
X171247622Y33237405D01*
X171128883Y33107394D01*
X171047996Y33019061D01*
X170943007Y32904832D01*
X170824781Y32776510D01*
X170704186Y32645893D01*
X170640422Y32576958D01*
X170523924Y32451062D01*
X170384115Y32299894D01*
X170232558Y32135964D01*
X170080820Y31971779D01*
X169940463Y31819850D01*
X169935181Y31814131D01*
X169820769Y31691040D01*
X169717760Y31581718D01*
X169631297Y31491502D01*
X169566526Y31425729D01*
X169528591Y31389737D01*
X169521130Y31384560D01*
X169509228Y31408079D01*
X169490622Y31471653D01*
X169468126Y31564809D01*
X169450337Y31648073D01*
X169429521Y31749934D01*
X169400476Y31891068D01*
X169365490Y32060418D01*
X169326848Y32246926D01*
X169286837Y32439535D01*
X169265622Y32541443D01*
X169226126Y32731247D01*
X169187052Y32919471D01*
X169150614Y33095414D01*
X169119026Y33248379D01*
X169094501Y33367667D01*
X169084727Y33415532D01*
X169060208Y33535084D01*
X169028825Y33686604D01*
X168994388Y33851766D01*
X168960708Y34012242D01*
X168956430Y34032536D01*
X168924073Y34186667D01*
X168885132Y34373331D01*
X168843313Y34574687D01*
X168802326Y34772893D01*
X168777437Y34893771D01*
X168737463Y35087532D01*
X168692665Y35303349D01*
X168647262Y35520984D01*
X168605471Y35720203D01*
X168584561Y35819277D01*
X168547993Y35992855D01*
X168509396Y36177488D01*
X168472469Y36355388D01*
X168440913Y36508763D01*
X168429496Y36564824D01*
X168399337Y36712293D01*
X168362927Y36888376D01*
X168324766Y37071403D01*
X168289355Y37239706D01*
X168288002Y37246099D01*
X168257761Y37389959D01*
X168220435Y37569178D01*
X168179137Y37768721D01*
X168136977Y37973552D01*
X168097066Y38168633D01*
X168094205Y38182677D01*
X168057172Y38365404D01*
X168029815Y38504524D01*
X168011387Y38606781D01*
X168001139Y38678917D01*
X167998323Y38727676D01*
X168002190Y38759799D01*
X168011992Y38782031D01*
X168025729Y38799681D01*
X168078623Y38859508D01*
X168153191Y38942416D01*
X168251558Y39050729D01*
X168375846Y39186769D01*
X168528180Y39352859D01*
X168710682Y39551321D01*
X168925477Y39784480D01*
X168990970Y39855512D01*
X169159218Y40037976D01*
X169338272Y40232189D01*
X169519606Y40428900D01*
X169694694Y40618861D01*
X169855011Y40792823D01*
X169992032Y40941535D01*
X170033624Y40986686D01*
X170164744Y41128862D01*
X170295884Y41270750D01*
X170419259Y41403952D01*
X170527085Y41520067D01*
X170611580Y41610696D01*
X170641162Y41642253D01*
X170727056Y41734370D01*
X170834857Y41851113D01*
X170952070Y41978893D01*
X171066201Y42104122D01*
X171090320Y42130714D01*
X171201992Y42253472D01*
X171319538Y42381856D01*
X171430473Y42502282D01*
X171522315Y42601164D01*
X171539186Y42619177D01*
X171609258Y42694140D01*
X171706562Y42798680D01*
X171823469Y42924577D01*
X171952352Y43063614D01*
X172085582Y43207571D01*
X172156546Y43284348D01*
X172592912Y43756704D01*
X172670716Y43667796D01*
G37*
G36*
X161538993Y39167680D02*
G01*
X161606547Y39161953D01*
X161705735Y39151802D01*
X161826860Y39138165D01*
X161850492Y39135383D01*
X162018989Y39115408D01*
X162211183Y39092615D01*
X162399712Y39070248D01*
X162516535Y39056382D01*
X162664358Y39038851D01*
X162814655Y39021056D01*
X162949127Y39005163D01*
X163043559Y38994032D01*
X163349678Y38957986D01*
X163610302Y38927183D01*
X163831010Y38900957D01*
X164017384Y38878638D01*
X164175004Y38859559D01*
X164309450Y38843049D01*
X164426302Y38828443D01*
X164431818Y38827746D01*
X164578663Y38809367D01*
X164734229Y38790192D01*
X164875694Y38773023D01*
X164945988Y38764652D01*
X165060977Y38751042D01*
X165207248Y38733623D01*
X165365036Y38714754D01*
X165498721Y38698702D01*
X165652059Y38680325D01*
X165813225Y38661143D01*
X165961688Y38643590D01*
X166064308Y38631569D01*
X166194719Y38616195D01*
X166350948Y38597468D01*
X166507797Y38578418D01*
X166578478Y38569732D01*
X166714325Y38553224D01*
X166850679Y38537111D01*
X166967847Y38523701D01*
X167021950Y38517784D01*
X167105049Y38507875D01*
X167163099Y38498837D01*
X167182628Y38493130D01*
X167187827Y38465707D01*
X167203056Y38390630D01*
X167227762Y38270566D01*
X167261392Y38108177D01*
X167303395Y37906127D01*
X167353217Y37667080D01*
X167410306Y37393701D01*
X167454611Y37181828D01*
X167504462Y36943305D01*
X167555876Y36696845D01*
X167607297Y36449941D01*
X167657170Y36210084D01*
X167703939Y35984766D01*
X167746050Y35781480D01*
X167781947Y35607717D01*
X167810073Y35470970D01*
X167825564Y35395087D01*
X167850022Y35275522D01*
X167881312Y35123985D01*
X167915635Y34958807D01*
X167949192Y34798321D01*
X167953441Y34778083D01*
X167986601Y34619628D01*
X168021032Y34454014D01*
X168052937Y34299575D01*
X168078517Y34174641D01*
X168081270Y34161079D01*
X168096517Y34086547D01*
X168120987Y33967800D01*
X168153412Y33810958D01*
X168192524Y33622141D01*
X168237052Y33407469D01*
X168285730Y33173061D01*
X168337288Y32925038D01*
X168390360Y32669985D01*
X168443372Y32415316D01*
X168494660Y32168848D01*
X168542976Y31936589D01*
X168587071Y31724549D01*
X168625694Y31538737D01*
X168657597Y31385161D01*
X168681531Y31269830D01*
X168696246Y31198752D01*
X168696365Y31198174D01*
X168742784Y30973224D01*
X168650409Y30976725D01*
X168567350Y30981839D01*
X168495099Y30989319D01*
X168493762Y30989510D01*
X168439579Y30996647D01*
X168350288Y31007704D01*
X168241861Y31020716D01*
X168198114Y31025865D01*
X168084439Y31039280D01*
X167981634Y31051617D01*
X167906696Y31060828D01*
X167889612Y31063011D01*
X167836144Y31069534D01*
X167743482Y31080373D01*
X167623534Y31094154D01*
X167488208Y31109499D01*
X167452567Y31113508D01*
X167316647Y31129130D01*
X167194469Y31143831D01*
X167097452Y31156189D01*
X167037014Y31164784D01*
X167028377Y31166288D01*
X166982903Y31172979D01*
X166895733Y31184037D01*
X166776295Y31198332D01*
X166634016Y31214734D01*
X166488499Y31230994D01*
X166323863Y31249386D01*
X166164179Y31267713D01*
X166021557Y31284549D01*
X165908108Y31298470D01*
X165845786Y31306647D01*
X165743086Y31320246D01*
X165611764Y31336627D01*
X165474316Y31353012D01*
X165421596Y31359065D01*
X165277915Y31375614D01*
X165110686Y31395292D01*
X164947381Y31414856D01*
X164881717Y31422852D01*
X164729315Y31441272D01*
X164560469Y31461261D01*
X164402650Y31479581D01*
X164341839Y31486497D01*
X164201257Y31502655D01*
X164035540Y31522177D01*
X163870566Y31541996D01*
X163789106Y31551965D01*
X163642227Y31569976D01*
X163486628Y31588861D01*
X163345147Y31605857D01*
X163274936Y31614185D01*
X163108222Y31633909D01*
X162910450Y31657459D01*
X162698816Y31682776D01*
X162490521Y31707799D01*
X162302763Y31730467D01*
X162182325Y31745103D01*
X162093159Y31755860D01*
X161964399Y31771228D01*
X161807520Y31789844D01*
X161633999Y31810347D01*
X161455308Y31831377D01*
X161423924Y31835061D01*
X160942513Y31891802D01*
X160509121Y31943416D01*
X160120644Y31990274D01*
X160022810Y32002188D01*
X159933644Y32012944D01*
X159804884Y32028308D01*
X159648005Y32046919D01*
X159474482Y32067415D01*
X159295792Y32088437D01*
X159264410Y32092120D01*
X159077880Y32114163D01*
X158886866Y32137026D01*
X158705003Y32159056D01*
X158545930Y32178600D01*
X158423286Y32194006D01*
X158416029Y32194936D01*
X158270450Y32213104D01*
X158096221Y32234029D01*
X157915823Y32255052D01*
X157760462Y32272550D01*
X157612344Y32289238D01*
X157466152Y32306371D01*
X157337612Y32322065D01*
X157242449Y32334437D01*
X157233438Y32335690D01*
X157153633Y32346218D01*
X157034466Y32361037D01*
X156887673Y32378732D01*
X156724991Y32397885D01*
X156573844Y32415297D01*
X156081355Y32471391D01*
X156188216Y32605522D01*
X156239888Y32669989D01*
X156316259Y32764768D01*
X156409592Y32880278D01*
X156512146Y33006939D01*
X156595523Y33109728D01*
X156710839Y33251809D01*
X156846854Y33419454D01*
X156991897Y33598274D01*
X157134298Y33773884D01*
X157251089Y33917956D01*
X157408672Y34112311D01*
X157595816Y34343000D01*
X157809635Y34606467D01*
X158047244Y34899160D01*
X158305758Y35217524D01*
X158582292Y35558005D01*
X158873959Y35917051D01*
X159177875Y36291107D01*
X159212993Y36334325D01*
X159360672Y36516133D01*
X159532029Y36727198D01*
X159718382Y36956821D01*
X159911048Y37194300D01*
X160101346Y37428937D01*
X160280595Y37650029D01*
X160369875Y37760190D01*
X160548262Y37980293D01*
X160720227Y38192405D01*
X160882839Y38392913D01*
X161033166Y38578207D01*
X161168278Y38744676D01*
X161285243Y38888710D01*
X161381129Y39006698D01*
X161453006Y39095028D01*
X161497943Y39150091D01*
X161512771Y39168045D01*
X161538993Y39167680D01*
G37*
G36*
X161641194Y51134662D02*
G01*
X161749295Y50963212D01*
X161855750Y50794625D01*
X161955327Y50637171D01*
X162042791Y50499117D01*
X162112912Y50388731D01*
X162157509Y50318872D01*
X162217264Y50225435D01*
X162296363Y50101337D01*
X162386665Y49959368D01*
X162480030Y49812323D01*
X162533756Y49727577D01*
X162583922Y49648447D01*
X162659223Y49529749D01*
X162757225Y49375314D01*
X162875495Y49188977D01*
X163011599Y48974570D01*
X163163105Y48735925D01*
X163327578Y48476877D01*
X163502586Y48201258D01*
X163685694Y47912900D01*
X163874470Y47615637D01*
X164058323Y47326147D01*
X164244079Y47033388D01*
X164421995Y46752446D01*
X164590125Y46486420D01*
X164746525Y46238412D01*
X164889251Y46011523D01*
X165016359Y45808852D01*
X165125905Y45633501D01*
X165215945Y45488571D01*
X165284534Y45377162D01*
X165329729Y45302375D01*
X165349585Y45267312D01*
X165350310Y45265490D01*
X165348421Y45249080D01*
X165335245Y45220961D01*
X165308552Y45178248D01*
X165266111Y45118057D01*
X165205694Y45037504D01*
X165125071Y44933704D01*
X165022011Y44803774D01*
X164894286Y44644828D01*
X164739665Y44453983D01*
X164555918Y44228354D01*
X164417499Y44058852D01*
X164386397Y44020761D01*
X164350410Y43976610D01*
X164307349Y43923701D01*
X164255023Y43859333D01*
X164191241Y43780806D01*
X164113814Y43685421D01*
X164020550Y43570477D01*
X163909259Y43433274D01*
X163777751Y43271113D01*
X163623836Y43081294D01*
X163445322Y42861117D01*
X163240019Y42607881D01*
X163005738Y42318888D01*
X162863600Y42143552D01*
X162722752Y41969869D01*
X162586047Y41801412D01*
X162458389Y41644213D01*
X162344681Y41504308D01*
X162249826Y41387730D01*
X162178729Y41300514D01*
X162143762Y41257774D01*
X162091907Y41194343D01*
X162013044Y41097522D01*
X161912514Y40973886D01*
X161795659Y40830009D01*
X161667819Y40672466D01*
X161534337Y40507832D01*
X161483277Y40444819D01*
X161231167Y40133711D01*
X160951846Y39789168D01*
X160650550Y39417643D01*
X160332513Y39025589D01*
X160002970Y38619459D01*
X159667156Y38205706D01*
X159330305Y37790782D01*
X159253343Y37695998D01*
X159100857Y37508167D01*
X158925533Y37292137D01*
X158736902Y37059656D01*
X158544495Y36822473D01*
X158357844Y36592338D01*
X158186481Y36380998D01*
X158147933Y36333447D01*
X157869819Y35990443D01*
X157567655Y35617910D01*
X157249373Y35225622D01*
X156922908Y34823356D01*
X156596196Y34420887D01*
X156277169Y34027990D01*
X155973764Y33654440D01*
X155693914Y33310013D01*
X155665219Y33274706D01*
X155524965Y33102077D01*
X155360020Y32898964D01*
X155178065Y32674831D01*
X154986781Y32439142D01*
X154793850Y32201360D01*
X154606951Y31970950D01*
X154444065Y31770080D01*
X154276841Y31563831D01*
X154102447Y31348757D01*
X153927375Y31132863D01*
X153758115Y30924153D01*
X153601160Y30730631D01*
X153462999Y30560300D01*
X153350123Y30421164D01*
X153341164Y30410121D01*
X153229564Y30272560D01*
X153129155Y30148757D01*
X153044330Y30044133D01*
X152979482Y29964107D01*
X152939003Y29914097D01*
X152927064Y29899273D01*
X152909358Y29909565D01*
X152895566Y29924982D01*
X152876757Y29952862D01*
X152833302Y30019672D01*
X152768081Y30120914D01*
X152683973Y30252091D01*
X152583859Y30408704D01*
X152470618Y30586256D01*
X152347132Y30780248D01*
X152240830Y30947516D01*
X151855695Y31553960D01*
X151491290Y32127732D01*
X151148347Y32667681D01*
X150827595Y33172657D01*
X150529767Y33641510D01*
X150255592Y34073089D01*
X150005802Y34466243D01*
X149781126Y34819824D01*
X149582297Y35132680D01*
X149410044Y35403661D01*
X149358288Y35485066D01*
X149238626Y35673847D01*
X149127690Y35849976D01*
X149028524Y36008537D01*
X148944172Y36144612D01*
X148877678Y36253283D01*
X148832087Y36329635D01*
X148810443Y36368749D01*
X148809160Y36372010D01*
X148822801Y36400030D01*
X148866115Y36463508D01*
X148935946Y36558330D01*
X149029141Y36680380D01*
X149142544Y36825543D01*
X149273001Y36989704D01*
X149417357Y37168747D01*
X149462241Y37223935D01*
X149622869Y37421150D01*
X149806525Y37646807D01*
X150008503Y37895111D01*
X150224095Y38160266D01*
X150448592Y38436477D01*
X150677287Y38717947D01*
X150905473Y38998881D01*
X151128441Y39273483D01*
X151341485Y39535958D01*
X151539896Y39780509D01*
X151718967Y40001341D01*
X151873989Y40192659D01*
X151976049Y40318738D01*
X152127978Y40506467D01*
X152289387Y40705790D01*
X152456385Y40911909D01*
X152625080Y41120027D01*
X152791580Y41325348D01*
X152951992Y41523076D01*
X153102425Y41708414D01*
X153238987Y41876565D01*
X153357784Y42022733D01*
X153454927Y42142120D01*
X153526521Y42229930D01*
X153561053Y42272111D01*
X153612091Y42334489D01*
X153690630Y42430835D01*
X153791806Y42555166D01*
X153910753Y42701499D01*
X154042609Y42863848D01*
X154182508Y43036232D01*
X154302966Y43184763D01*
X154469063Y43389614D01*
X154651560Y43614657D01*
X154841305Y43848607D01*
X155029147Y44080182D01*
X155205934Y44298100D01*
X155362514Y44491076D01*
X155408152Y44547313D01*
X155516846Y44681257D01*
X155653369Y44849515D01*
X155813162Y45046466D01*
X155991666Y45266493D01*
X156184323Y45503973D01*
X156386573Y45753289D01*
X156593857Y46008819D01*
X156801616Y46264945D01*
X157005291Y46516047D01*
X157014068Y46526868D01*
X157205109Y46762391D01*
X157390899Y46991424D01*
X157568198Y47209976D01*
X157733770Y47414055D01*
X157884374Y47599670D01*
X158016773Y47762831D01*
X158127728Y47899545D01*
X158214001Y48005821D01*
X158272353Y48077669D01*
X158286511Y48095087D01*
X158623273Y48509292D01*
X158940574Y48899700D01*
X159236573Y49264041D01*
X159509428Y49600047D01*
X159757297Y49905450D01*
X159978340Y50177981D01*
X160170714Y50415373D01*
X160332579Y50615356D01*
X160343631Y50629023D01*
X160531610Y50861426D01*
X160689950Y51057032D01*
X160821283Y51219071D01*
X160928239Y51350776D01*
X161013451Y51455379D01*
X161079549Y51536110D01*
X161129165Y51596202D01*
X161164931Y51638886D01*
X161184481Y51661687D01*
X161256818Y51744784D01*
X161641194Y51134662D01*
G37*
G36*
X71929214Y50344514D02*
G01*
X72030674Y50341281D01*
X72179709Y50337452D01*
X72372480Y50333094D01*
X72605151Y50328271D01*
X72873884Y50323050D01*
X73174841Y50317496D01*
X73504184Y50311674D01*
X73858075Y50305651D01*
X74232676Y50299492D01*
X74624151Y50293262D01*
X75028660Y50287027D01*
X75442366Y50280853D01*
X75861432Y50274806D01*
X76282020Y50268950D01*
X76598721Y50264689D01*
X76855000Y50261017D01*
X77100889Y50256961D01*
X77330534Y50252655D01*
X77538083Y50248234D01*
X77717684Y50243829D01*
X77863482Y50239575D01*
X77969624Y50235605D01*
X78030259Y50232054D01*
X78030582Y50232024D01*
X78202727Y50216038D01*
X77709226Y49609432D01*
X77605551Y49481917D01*
X77473844Y49319798D01*
X77318443Y49128422D01*
X77143687Y48913134D01*
X76953913Y48679279D01*
X76753459Y48432203D01*
X76546663Y48177253D01*
X76337863Y47919773D01*
X76131396Y47665109D01*
X76084551Y47607319D01*
X75892901Y47370912D01*
X75708364Y47143337D01*
X75533876Y46928207D01*
X75372368Y46729137D01*
X75226776Y46549741D01*
X75100032Y46393633D01*
X74995070Y46264428D01*
X74914824Y46165739D01*
X74862227Y46101182D01*
X74844984Y46080120D01*
X74809300Y46036462D01*
X74744459Y45956810D01*
X74653671Y45845121D01*
X74540150Y45705350D01*
X74407106Y45541453D01*
X74257750Y45357386D01*
X74095294Y45157106D01*
X73922949Y44944568D01*
X73757218Y44740127D01*
X73577518Y44518451D01*
X73403903Y44304336D01*
X73239702Y44101883D01*
X73088242Y43915192D01*
X72952852Y43748367D01*
X72836861Y43605507D01*
X72743598Y43490716D01*
X72676390Y43408093D01*
X72641011Y43364722D01*
X72590046Y43302280D01*
X72510059Y43204016D01*
X72404399Y43074054D01*
X72276416Y42916523D01*
X72129458Y42735546D01*
X71966874Y42535249D01*
X71792014Y42319759D01*
X71608225Y42093201D01*
X71418858Y41859702D01*
X71227260Y41623385D01*
X71047147Y41401169D01*
X70558022Y40797823D01*
X70091288Y40222524D01*
X69650634Y39679814D01*
X69378277Y39344635D01*
X69270813Y39212277D01*
X69155909Y39070503D01*
X69046039Y38934722D01*
X68953677Y38820337D01*
X68938467Y38801463D01*
X68868704Y38715081D01*
X68773646Y38597706D01*
X68660483Y38458201D01*
X68536406Y38305426D01*
X68408608Y38148244D01*
X68330673Y38052483D01*
X68206588Y37899947D01*
X68058325Y37717472D01*
X67894033Y37515102D01*
X67721864Y37302882D01*
X67549966Y37090854D01*
X67386490Y36889062D01*
X67330806Y36820285D01*
X67190025Y36646439D01*
X67053380Y36477836D01*
X66925769Y36320507D01*
X66812087Y36180485D01*
X66717232Y36063802D01*
X66646100Y35976489D01*
X66610968Y35933546D01*
X66554848Y35864988D01*
X66472727Y35764355D01*
X66370999Y35639497D01*
X66256060Y35498268D01*
X66134304Y35348518D01*
X66049422Y35244033D01*
X65936418Y35105230D01*
X65834604Y34980841D01*
X65748280Y34876064D01*
X65681746Y34796098D01*
X65639303Y34746144D01*
X65625232Y34731157D01*
X65599679Y34735398D01*
X65539743Y34740933D01*
X65505503Y34743421D01*
X65441144Y34747427D01*
X65332500Y34753823D01*
X65186624Y34762211D01*
X65010573Y34772192D01*
X64811401Y34783368D01*
X64596164Y34795340D01*
X64371918Y34807711D01*
X64207223Y34816730D01*
X64111898Y34821982D01*
X63978720Y34829389D01*
X63821170Y34838198D01*
X63652733Y34847654D01*
X63532375Y34854435D01*
X63233753Y34871296D01*
X62949578Y34887352D01*
X62685777Y34902268D01*
X62448278Y34915709D01*
X62243008Y34927338D01*
X62075896Y34936822D01*
X61952868Y34943823D01*
X61932021Y34945013D01*
X61843612Y34950009D01*
X61716176Y34957134D01*
X61562024Y34965704D01*
X61393468Y34975034D01*
X61237891Y34983611D01*
X61042655Y34994419D01*
X60827591Y35006433D01*
X60612322Y35018552D01*
X60416472Y35029671D01*
X60312385Y35035639D01*
X60131664Y35045728D01*
X59932702Y35056302D01*
X59736867Y35066256D01*
X59565529Y35074485D01*
X59528276Y35076177D01*
X59388415Y35083295D01*
X59258901Y35091455D01*
X59152485Y35099747D01*
X59081918Y35107260D01*
X59072535Y35108707D01*
X58976712Y35125147D01*
X59393891Y35628276D01*
X59571913Y35843113D01*
X59781665Y36096485D01*
X60022191Y36387239D01*
X60292536Y36714218D01*
X60591744Y37076268D01*
X60918862Y37472233D01*
X61272933Y37900957D01*
X61441377Y38104958D01*
X61571957Y38263036D01*
X61703262Y38421860D01*
X61828291Y38572970D01*
X61940042Y38707906D01*
X62031512Y38818209D01*
X62084090Y38881478D01*
X62170706Y38985694D01*
X62278702Y39115871D01*
X62396727Y39258313D01*
X62513432Y39399328D01*
X62563526Y39459919D01*
X62669659Y39588328D01*
X62798188Y39743811D01*
X62938737Y39913820D01*
X63080934Y40085806D01*
X63214405Y40247222D01*
X63230634Y40266848D01*
X63358417Y40421375D01*
X63492751Y40583827D01*
X63624278Y40742887D01*
X63743639Y40887237D01*
X63841477Y41005562D01*
X63857756Y41025249D01*
X63961180Y41150313D01*
X64084993Y41300003D01*
X64216800Y41459333D01*
X64344204Y41613320D01*
X64405374Y41687243D01*
X64532792Y41841215D01*
X64678114Y42016823D01*
X64826463Y42196088D01*
X64962962Y42361035D01*
X65011704Y42419935D01*
X65131795Y42565074D01*
X65262815Y42723454D01*
X65392368Y42880090D01*
X65508062Y43019999D01*
X65559261Y43081929D01*
X66010251Y43627320D01*
X66435086Y44140698D01*
X66804893Y44587227D01*
X66918200Y44724061D01*
X67056632Y44891359D01*
X67212588Y45079929D01*
X67378469Y45280577D01*
X67546673Y45484112D01*
X67709600Y45681339D01*
X67780705Y45767443D01*
X67944711Y45965998D01*
X68132201Y46192867D01*
X68333854Y46436775D01*
X68540343Y46686447D01*
X68742346Y46930609D01*
X68930538Y47157985D01*
X69023319Y47270039D01*
X69169996Y47447181D01*
X69309428Y47615622D01*
X69437505Y47770393D01*
X69550114Y47906522D01*
X69643145Y48019040D01*
X69712486Y48102977D01*
X69754027Y48153362D01*
X69758950Y48159358D01*
X69819205Y48232620D01*
X69908384Y48340728D01*
X70022581Y48478959D01*
X70157888Y48642589D01*
X70310398Y48826894D01*
X70476205Y49027151D01*
X70651402Y49238634D01*
X70737023Y49341949D01*
X70862378Y49493199D01*
X70994781Y49652973D01*
X71124373Y49809368D01*
X71241290Y49950484D01*
X71335670Y50064417D01*
X71339000Y50068438D01*
X71578736Y50357883D01*
X71929214Y50344514D01*
G37*
G36*
X78799553Y49609486D02*
G01*
X78808166Y49600565D01*
X78822174Y49582557D01*
X78843236Y49552890D01*
X78873008Y49508996D01*
X78913146Y49448303D01*
X78965308Y49368242D01*
X79031150Y49266243D01*
X79112329Y49139736D01*
X79210502Y48986151D01*
X79327327Y48802918D01*
X79464459Y48587467D01*
X79623556Y48337228D01*
X79806274Y48049631D01*
X80014271Y47722106D01*
X80095757Y47593771D01*
X80241811Y47363754D01*
X80409383Y47099880D01*
X80592412Y46811689D01*
X80784840Y46508720D01*
X80980609Y46200512D01*
X81173658Y45896606D01*
X81357928Y45606540D01*
X81508217Y45369985D01*
X81735774Y45011811D01*
X81937321Y44694522D01*
X82114433Y44415610D01*
X82268686Y44172568D01*
X82401652Y43962889D01*
X82514907Y43784066D01*
X82610026Y43633592D01*
X82688583Y43508959D01*
X82752152Y43407662D01*
X82802308Y43327192D01*
X82840626Y43265042D01*
X82868681Y43218705D01*
X82888046Y43185675D01*
X82900297Y43163444D01*
X82907008Y43149504D01*
X82909753Y43141350D01*
X82910159Y43137742D01*
X82894735Y43109611D01*
X82852696Y43050551D01*
X82790387Y42969098D01*
X82714154Y42873784D01*
X82710918Y42869819D01*
X82608478Y42744229D01*
X82494085Y42603665D01*
X82384731Y42469019D01*
X82326864Y42397612D01*
X82261454Y42316881D01*
X82169889Y42203985D01*
X82058445Y42066659D01*
X81933401Y41912635D01*
X81801033Y41749647D01*
X81667618Y41585428D01*
X81658443Y41574137D01*
X81515350Y41398006D01*
X81349099Y41193311D01*
X81168922Y40971421D01*
X80984049Y40743704D01*
X80803711Y40521531D01*
X80637138Y40316269D01*
X80604349Y40275857D01*
X80439064Y40072143D01*
X80251431Y39840893D01*
X80051501Y39594495D01*
X79849326Y39345336D01*
X79654959Y39105806D01*
X79478451Y38888291D01*
X79439284Y38840026D01*
X79269208Y38630440D01*
X79079316Y38396429D01*
X78879546Y38150240D01*
X78679835Y37904119D01*
X78490121Y37670312D01*
X78320340Y37461067D01*
X78281505Y37413204D01*
X78167950Y37273258D01*
X78026353Y37098762D01*
X77861072Y36895087D01*
X77676466Y36667606D01*
X77476895Y36421689D01*
X77266719Y36162710D01*
X77050297Y35896039D01*
X76831988Y35627048D01*
X76616151Y35361109D01*
X76515800Y35237467D01*
X76281186Y34948391D01*
X76021150Y34627977D01*
X75742662Y34284816D01*
X75452695Y33927500D01*
X75158219Y33564619D01*
X74866207Y33204765D01*
X74583631Y32856528D01*
X74317461Y32528500D01*
X74074670Y32229272D01*
X74066434Y32219121D01*
X73849690Y31952003D01*
X73628477Y31679404D01*
X73407053Y31406571D01*
X73189677Y31138750D01*
X72980609Y30881190D01*
X72784109Y30639136D01*
X72604434Y30417837D01*
X72445845Y30222538D01*
X72312601Y30058487D01*
X72241130Y29970516D01*
X71961894Y29626839D01*
X71713392Y29320911D01*
X71493904Y29050604D01*
X71301711Y28813785D01*
X71135094Y28608324D01*
X70992333Y28432091D01*
X70871708Y28282954D01*
X70771500Y28158783D01*
X70689990Y28057448D01*
X70625459Y27976817D01*
X70576186Y27914760D01*
X70540452Y27869145D01*
X70516538Y27837843D01*
X70502725Y27818723D01*
X70497293Y27809653D01*
X70497237Y27809501D01*
X70475066Y27786296D01*
X70471528Y27785936D01*
X70454879Y27807119D01*
X70413414Y27867758D01*
X70349749Y27963822D01*
X70266498Y28091279D01*
X70166280Y28246097D01*
X70051708Y28424246D01*
X69925400Y28621693D01*
X69789971Y28834407D01*
X69734551Y28921728D01*
X69593985Y29143371D01*
X69459901Y29354718D01*
X69335176Y29551240D01*
X69222688Y29728408D01*
X69125312Y29881691D01*
X69045927Y30006560D01*
X68987410Y30098486D01*
X68952636Y30152938D01*
X68947065Y30161597D01*
X68925323Y30195624D01*
X68878465Y30269243D01*
X68808919Y30378629D01*
X68719113Y30519957D01*
X68611475Y30689402D01*
X68488432Y30883140D01*
X68352413Y31097344D01*
X68205844Y31328191D01*
X68051154Y31571854D01*
X67890771Y31824510D01*
X67727122Y32082332D01*
X67562635Y32341496D01*
X67399738Y32598176D01*
X67240859Y32848549D01*
X67088425Y33088788D01*
X66944864Y33315068D01*
X66812604Y33523565D01*
X66694072Y33710453D01*
X66591698Y33871908D01*
X66507907Y34004104D01*
X66445129Y34103217D01*
X66405790Y34165420D01*
X66399812Y34174900D01*
X66334423Y34278701D01*
X66540537Y34534819D01*
X66621774Y34635546D01*
X66733808Y34774115D01*
X66874985Y34948486D01*
X67043651Y35156619D01*
X67238150Y35396474D01*
X67456828Y35666011D01*
X67698031Y35963190D01*
X67960104Y36285971D01*
X68241391Y36632315D01*
X68487689Y36935500D01*
X68623759Y37102999D01*
X68762450Y37273763D01*
X68906577Y37451262D01*
X69058955Y37638965D01*
X69222401Y37840343D01*
X69399731Y38058866D01*
X69593760Y38298004D01*
X69807305Y38561228D01*
X70043181Y38852007D01*
X70304204Y39173812D01*
X70593189Y39530112D01*
X70771132Y39749512D01*
X70892583Y39899246D01*
X71010560Y40044671D01*
X71118930Y40178231D01*
X71211563Y40292368D01*
X71282326Y40379527D01*
X71316101Y40421099D01*
X71556258Y40716592D01*
X71803656Y41021106D01*
X72053330Y41328526D01*
X72300313Y41632733D01*
X72539643Y41927610D01*
X72766354Y42207040D01*
X72975481Y42464907D01*
X73162059Y42695093D01*
X73320352Y42890527D01*
X73397574Y42985915D01*
X73496388Y43107973D01*
X73606033Y43243406D01*
X73715747Y43378924D01*
X73757426Y43430405D01*
X73844775Y43538181D01*
X73957516Y43677107D01*
X74088568Y43838467D01*
X74230850Y44013547D01*
X74377280Y44193631D01*
X74520778Y44370003D01*
X74541535Y44395505D01*
X74694548Y44583596D01*
X74861033Y44788433D01*
X75031671Y44998538D01*
X75197142Y45202432D01*
X75348129Y45388639D01*
X75467547Y45536083D01*
X75610918Y45713130D01*
X75785704Y45928773D01*
X75990865Y46181731D01*
X76225361Y46470721D01*
X76488149Y46794462D01*
X76778191Y47151670D01*
X77094446Y47541064D01*
X77408754Y47927981D01*
X77462241Y47993840D01*
X77541386Y48091316D01*
X77639443Y48212103D01*
X77749671Y48347894D01*
X77865324Y48490382D01*
X77909641Y48544985D01*
X78099872Y48779321D01*
X78260328Y48976820D01*
X78393596Y49140598D01*
X78502261Y49273774D01*
X78588910Y49379466D01*
X78656129Y49460791D01*
X78706506Y49520868D01*
X78742625Y49562815D01*
X78767075Y49589748D01*
X78782440Y49604786D01*
X78791307Y49611047D01*
X78794679Y49611888D01*
X78799553Y49609486D01*
G37*
G36*
X79133762Y37062831D02*
G01*
X79210612Y37053856D01*
X79315002Y37040639D01*
X79419345Y37026767D01*
X79578407Y37005299D01*
X79700864Y36989153D01*
X79801037Y36976552D01*
X79893245Y36965721D01*
X79991809Y36954885D01*
X80043661Y36949364D01*
X80138968Y36938912D01*
X80222385Y36929137D01*
X80262183Y36924017D01*
X80307909Y36918229D01*
X80395129Y36907739D01*
X80514253Y36893678D01*
X80655690Y36877182D01*
X80789207Y36861755D01*
X80965541Y36841222D01*
X81150115Y36819305D01*
X81326359Y36798001D01*
X81477702Y36779304D01*
X81547608Y36770432D01*
X81650695Y36757487D01*
X81795171Y36739823D01*
X81971348Y36718600D01*
X82169535Y36694976D01*
X82380043Y36670113D01*
X82593181Y36645169D01*
X82627365Y36641191D01*
X82863624Y36613724D01*
X83055457Y36591403D01*
X83209513Y36573441D01*
X83332439Y36559046D01*
X83430884Y36547429D01*
X83511494Y36537800D01*
X83580917Y36529368D01*
X83645802Y36521344D01*
X83712796Y36512936D01*
X83788546Y36503357D01*
X83809956Y36500645D01*
X84021179Y36473986D01*
X84189858Y36452939D01*
X84324438Y36436478D01*
X84433363Y36423577D01*
X84525076Y36413212D01*
X84568357Y36408527D01*
X84650282Y36399305D01*
X84707606Y36391925D01*
X84726238Y36388473D01*
X84728850Y36378981D01*
X84735353Y36350289D01*
X84746356Y36299476D01*
X84762469Y36223625D01*
X84784301Y36119816D01*
X84812461Y35985130D01*
X84847561Y35816649D01*
X84890207Y35611453D01*
X84941011Y35366623D01*
X85000581Y35079241D01*
X85069527Y34746387D01*
X85121517Y34495289D01*
X85160448Y34307473D01*
X85199448Y34119734D01*
X85236147Y33943460D01*
X85268172Y33790035D01*
X85293154Y33670843D01*
X85300907Y33634054D01*
X85323008Y33528628D01*
X85352819Y33385247D01*
X85387771Y33216333D01*
X85425293Y33034310D01*
X85462816Y32851600D01*
X85468422Y32824236D01*
X85510731Y32618305D01*
X85558186Y32388409D01*
X85606801Y32153794D01*
X85652587Y31933706D01*
X85686775Y31770188D01*
X85723209Y31596053D01*
X85759819Y31420294D01*
X85793841Y31256234D01*
X85822513Y31117198D01*
X85841424Y31024641D01*
X85865865Y30905081D01*
X85897152Y30753549D01*
X85931485Y30588376D01*
X85965065Y30427894D01*
X85969323Y30407637D01*
X86017986Y30175723D01*
X86065894Y29946382D01*
X86111754Y29725881D01*
X86154276Y29520490D01*
X86192166Y29336477D01*
X86224132Y29180109D01*
X86248883Y29057654D01*
X86265126Y28975381D01*
X86270338Y28947410D01*
X86285112Y28862588D01*
X86172281Y28870254D01*
X86093804Y28877068D01*
X85984360Y28888447D01*
X85863965Y28902273D01*
X85828074Y28906659D01*
X85691558Y28923514D01*
X85532584Y28942988D01*
X85379745Y28961584D01*
X85339612Y28966438D01*
X85221000Y28980794D01*
X85113657Y28993846D01*
X85033107Y29003704D01*
X85005401Y29007136D01*
X84909686Y29018933D01*
X84775081Y29035259D01*
X84609010Y29055235D01*
X84418898Y29077981D01*
X84212169Y29102618D01*
X83996248Y29128267D01*
X83778560Y29154048D01*
X83566529Y29179084D01*
X83367580Y29202493D01*
X83189137Y29223398D01*
X83038625Y29240919D01*
X82923468Y29254177D01*
X82851091Y29262293D01*
X82845887Y29262853D01*
X82752309Y29273622D01*
X82666729Y29284736D01*
X82640219Y29288630D01*
X82586231Y29296009D01*
X82493384Y29307617D01*
X82373915Y29321962D01*
X82240062Y29337553D01*
X82216029Y29340304D01*
X82076325Y29356249D01*
X81944373Y29371314D01*
X81834058Y29383911D01*
X81759262Y29392458D01*
X81753276Y29393142D01*
X81661957Y29404195D01*
X81578063Y29415305D01*
X81560462Y29417844D01*
X81506994Y29424902D01*
X81414333Y29436231D01*
X81294385Y29450410D01*
X81159059Y29466015D01*
X81123418Y29470064D01*
X80986071Y29485800D01*
X80861058Y29500463D01*
X80760285Y29512634D01*
X80695659Y29520891D01*
X80686373Y29522203D01*
X80631560Y29529519D01*
X80538446Y29541148D01*
X80419808Y29555522D01*
X80288427Y29571072D01*
X80281436Y29571889D01*
X80113225Y29591596D01*
X79921774Y29614112D01*
X79734898Y29636163D01*
X79625869Y29649074D01*
X79462550Y29668330D01*
X79273828Y29690391D01*
X79085386Y29712264D01*
X78951049Y29727735D01*
X78817430Y29743256D01*
X78697499Y29757573D01*
X78602967Y29769259D01*
X78545549Y29776891D01*
X78539713Y29777779D01*
X78491247Y29784347D01*
X78403092Y29795205D01*
X78286663Y29808987D01*
X78153376Y29824323D01*
X78115523Y29828605D01*
X77978172Y29844275D01*
X77853155Y29858895D01*
X77752381Y29871046D01*
X77687759Y29879311D01*
X77678478Y29880629D01*
X77602823Y29890962D01*
X77510145Y29902458D01*
X77485665Y29905306D01*
X77180391Y29940396D01*
X76925466Y29970229D01*
X76720103Y29994897D01*
X76563514Y30014495D01*
X76508742Y30021686D01*
X76433764Y30031239D01*
X76316066Y30045619D01*
X76164015Y30063831D01*
X75985976Y30084882D01*
X75790316Y30107779D01*
X75585401Y30131527D01*
X75531818Y30137698D01*
X75325872Y30161487D01*
X75127012Y30184648D01*
X74943605Y30206193D01*
X74784017Y30225133D01*
X74656613Y30240479D01*
X74569761Y30251243D01*
X74554895Y30253163D01*
X74440966Y30267793D01*
X74329416Y30281607D01*
X74246393Y30291386D01*
X74053341Y30313462D01*
X73906044Y30331634D01*
X73799071Y30346875D01*
X73726992Y30360162D01*
X73684377Y30372468D01*
X73665796Y30384768D01*
X73664769Y30395758D01*
X73684464Y30425796D01*
X73731107Y30488375D01*
X73799095Y30576233D01*
X73882825Y30682106D01*
X73954713Y30771600D01*
X74045126Y30883274D01*
X74162230Y31027692D01*
X74300239Y31197736D01*
X74453368Y31386287D01*
X74615829Y31586228D01*
X74781838Y31790440D01*
X74945607Y31991806D01*
X75101352Y32183207D01*
X75243286Y32357526D01*
X75365624Y32507644D01*
X75436908Y32595014D01*
X75498780Y32671004D01*
X75586156Y32778605D01*
X75692232Y32909426D01*
X75810207Y33055076D01*
X75933280Y33207164D01*
X76007426Y33298863D01*
X76136483Y33458373D01*
X76288709Y33646270D01*
X76454795Y33851079D01*
X76625433Y34061327D01*
X76791315Y34265538D01*
X76933773Y34440738D01*
X77087145Y34629327D01*
X77259239Y34841076D01*
X77445088Y35069864D01*
X77639726Y35309571D01*
X77838185Y35554074D01*
X78035501Y35797254D01*
X78226706Y36032989D01*
X78406834Y36255157D01*
X78570920Y36457639D01*
X78713996Y36634313D01*
X78831097Y36779059D01*
X78860533Y36815481D01*
X78940171Y36910948D01*
X79010620Y36989673D01*
X79064619Y37043931D01*
X79094904Y37065996D01*
X79096143Y37066139D01*
X79133762Y37062831D01*
G37*
G36*
X112961879Y53311484D02*
G01*
X113156392Y53309914D01*
X113383067Y53307310D01*
X113632283Y53303807D01*
X113894421Y53299542D01*
X114159862Y53294650D01*
X114418986Y53289268D01*
X114441636Y53288764D01*
X114699002Y53283224D01*
X114962929Y53277922D01*
X115223916Y53273024D01*
X115472460Y53268694D01*
X115699062Y53265097D01*
X115894218Y53262398D01*
X116048427Y53260762D01*
X116061272Y53260663D01*
X116184616Y53259418D01*
X116353051Y53257210D01*
X116560264Y53254145D01*
X116799941Y53250329D01*
X117065766Y53245869D01*
X117351427Y53240870D01*
X117650608Y53235438D01*
X117956996Y53229679D01*
X118264277Y53223699D01*
X118272203Y53223542D01*
X118560566Y53217958D01*
X118833606Y53212933D01*
X119087006Y53208528D01*
X119316450Y53204806D01*
X119517621Y53201830D01*
X119686204Y53199662D01*
X119817883Y53198365D01*
X119908341Y53198002D01*
X119953261Y53198634D01*
X119957453Y53199117D01*
X119962600Y53194831D01*
X119975046Y53178772D01*
X119995729Y53149471D01*
X120025588Y53105457D01*
X120065562Y53045263D01*
X120116589Y52967418D01*
X120179609Y52870453D01*
X120255561Y52752899D01*
X120345382Y52613286D01*
X120450012Y52450146D01*
X120570389Y52262009D01*
X120707453Y52047405D01*
X120862142Y51804866D01*
X121035394Y51532921D01*
X121228150Y51230103D01*
X121441346Y50894940D01*
X121675923Y50525965D01*
X121932819Y50121707D01*
X122212973Y49680698D01*
X122517323Y49201468D01*
X122846808Y48682548D01*
X123202367Y48122468D01*
X123407417Y47799439D01*
X123627023Y47453580D01*
X123820886Y47148600D01*
X123990733Y46881917D01*
X124138296Y46650949D01*
X124265302Y46453114D01*
X124373482Y46285829D01*
X124464564Y46146512D01*
X124540278Y46032581D01*
X124602354Y45941454D01*
X124652521Y45870548D01*
X124692508Y45817281D01*
X124724045Y45779070D01*
X124748861Y45753334D01*
X124768685Y45737491D01*
X124785246Y45728957D01*
X124796092Y45725895D01*
X124850931Y45717223D01*
X124945383Y45704794D01*
X125067907Y45690033D01*
X125206961Y45674360D01*
X125264916Y45668124D01*
X125541085Y45638676D01*
X125807120Y45610017D01*
X126054487Y45583082D01*
X126274656Y45558804D01*
X126459095Y45538116D01*
X126576049Y45524678D01*
X126696182Y45511018D01*
X126842940Y45494871D01*
X126991793Y45478921D01*
X127051657Y45472653D01*
X127193008Y45457752D01*
X127361261Y45439656D01*
X127532230Y45420981D01*
X127642952Y45408699D01*
X127798924Y45391335D01*
X127967518Y45372704D01*
X128125452Y45355373D01*
X128221393Y45344935D01*
X128356559Y45330146D01*
X128519532Y45312067D01*
X128687040Y45293289D01*
X128799835Y45280513D01*
X128957848Y45262746D01*
X129130479Y45243714D01*
X129293551Y45226064D01*
X129391130Y45215734D01*
X129532451Y45200683D01*
X129700667Y45182306D01*
X129871607Y45163264D01*
X129982426Y45150677D01*
X130120829Y45134954D01*
X130293101Y45115632D01*
X130481992Y45094633D01*
X130670252Y45073876D01*
X130772720Y45062666D01*
X131241657Y45011544D01*
X131404925Y44837273D01*
X131486718Y44748900D01*
X131589502Y44636282D01*
X131700268Y44513747D01*
X131806006Y44395619D01*
X131808281Y44393062D01*
X131908161Y44281296D01*
X132007896Y44170616D01*
X132096594Y44073051D01*
X132163364Y44000632D01*
X132169032Y43994581D01*
X132246266Y43911171D01*
X132339080Y43809309D01*
X132429111Y43709166D01*
X132440766Y43696073D01*
X132507185Y43621906D01*
X132599644Y43519432D01*
X132709446Y43398251D01*
X132827895Y43267962D01*
X132938903Y43146252D01*
X133069802Y43002637D01*
X133211743Y42846321D01*
X133352418Y42690896D01*
X133479522Y42549953D01*
X133555908Y42464865D01*
X133715047Y42287426D01*
X133876667Y42107815D01*
X134033765Y41933770D01*
X134179344Y41773030D01*
X134306403Y41633335D01*
X134407943Y41522423D01*
X134427821Y41500856D01*
X134491879Y41430866D01*
X134578793Y41335062D01*
X134677200Y41226005D01*
X134775738Y41116257D01*
X134776658Y41115228D01*
X134880100Y41000167D01*
X134988383Y40880537D01*
X135088198Y40770998D01*
X135161872Y40690914D01*
X135230246Y40616591D01*
X135323978Y40513878D01*
X135434088Y40392659D01*
X135551599Y40262816D01*
X135651150Y40152430D01*
X135777916Y40011770D01*
X135914448Y39860541D01*
X136048746Y39712014D01*
X136168812Y39579464D01*
X136236019Y39505433D01*
X136324974Y39406448D01*
X136400033Y39320774D01*
X136455046Y39255602D01*
X136483862Y39218120D01*
X136486677Y39212446D01*
X136467952Y39173956D01*
X136413055Y39103219D01*
X136323899Y39002531D01*
X136219074Y38891443D01*
X136145775Y38814271D01*
X136048071Y38709793D01*
X135936025Y38588854D01*
X135819703Y38462300D01*
X135751742Y38387852D01*
X135639533Y38264984D01*
X135502955Y38116083D01*
X135352677Y37952745D01*
X135199372Y37786565D01*
X135053711Y37629137D01*
X135021292Y37594179D01*
X134876375Y37437678D01*
X134718805Y37266985D01*
X134559959Y37094459D01*
X134411215Y36932460D01*
X134283949Y36793349D01*
X134262891Y36770257D01*
X134141023Y36636941D01*
X133995477Y36478384D01*
X133837642Y36306950D01*
X133678903Y36135003D01*
X133530648Y35974909D01*
X133504491Y35946729D01*
X133361989Y35792987D01*
X133209102Y35627546D01*
X133056564Y35462055D01*
X132915106Y35308161D01*
X132795463Y35177512D01*
X132771798Y35151580D01*
X132663491Y35033195D01*
X132529805Y34887705D01*
X132380424Y34725611D01*
X132225035Y34557415D01*
X132073320Y34393619D01*
X132000543Y34315228D01*
X131855514Y34158884D01*
X131702877Y33993867D01*
X131552055Y33830395D01*
X131412467Y33678686D01*
X131293534Y33548957D01*
X131242142Y33492658D01*
X131137959Y33378703D01*
X131008134Y33237358D01*
X130862086Y33078842D01*
X130709237Y32913370D01*
X130559007Y32751161D01*
X130483742Y32670087D01*
X130337623Y32512571D01*
X130182896Y32345305D01*
X130029243Y32178789D01*
X129886351Y32023526D01*
X129763901Y31890018D01*
X129712486Y31833735D01*
X129599560Y31710238D01*
X129462333Y31560729D01*
X129311519Y31396848D01*
X129157835Y31230235D01*
X129011993Y31072529D01*
X128979794Y31037779D01*
X128843822Y30890832D01*
X128703465Y30738678D01*
X128567776Y30591164D01*
X128445808Y30458137D01*
X128346613Y30349443D01*
X128318765Y30318766D01*
X128081926Y30057353D01*
X127701761Y30103807D01*
X127561437Y30120921D01*
X127435957Y30136131D01*
X127315245Y30150632D01*
X127189226Y30165621D01*
X127047824Y30182291D01*
X126880964Y30201839D01*
X126678569Y30225460D01*
X126550341Y30240401D01*
X126415953Y30256101D01*
X126292170Y30270646D01*
X126192150Y30282484D01*
X126129050Y30290065D01*
X126126150Y30290422D01*
X126003680Y30305410D01*
X125839934Y30325284D01*
X125644696Y30348867D01*
X125427748Y30374982D01*
X125198874Y30402451D01*
X124967855Y30430096D01*
X124744476Y30456740D01*
X124725037Y30459054D01*
X124615807Y30472076D01*
X124474547Y30488949D01*
X124320280Y30507398D01*
X124185159Y30523577D01*
X124035534Y30541471D01*
X123881679Y30559813D01*
X123742616Y30576337D01*
X123645280Y30587849D01*
X123536051Y30600771D01*
X123394794Y30617562D01*
X123240528Y30635957D01*
X123105401Y30652120D01*
X122954859Y30670111D01*
X122799199Y30688633D01*
X122657812Y30705384D01*
X122559096Y30717007D01*
X122390312Y30736978D01*
X122191927Y30760773D01*
X121985357Y30785811D01*
X121807122Y30807646D01*
X121747343Y30814807D01*
X121649643Y30826282D01*
X121527183Y30840533D01*
X121393124Y30856023D01*
X121382932Y30857196D01*
X121235051Y30874510D01*
X121084702Y30892621D01*
X120950204Y30909294D01*
X120855908Y30921483D01*
X120780930Y30931037D01*
X120663232Y30945417D01*
X120511181Y30963629D01*
X120333142Y30984680D01*
X120137482Y31007576D01*
X119932567Y31031325D01*
X119878984Y31037496D01*
X119673038Y31061289D01*
X119474177Y31084462D01*
X119290770Y31106026D01*
X119131182Y31124990D01*
X119003778Y31140365D01*
X118916926Y31151160D01*
X118902061Y31153089D01*
X118785319Y31168015D01*
X118668273Y31182235D01*
X118580705Y31192183D01*
X118487677Y31202626D01*
X118369970Y31216569D01*
X118259349Y31230209D01*
X118155817Y31243094D01*
X118019525Y31259794D01*
X117868776Y31278077D01*
X117732325Y31294464D01*
X117582692Y31312350D01*
X117428829Y31330771D01*
X117289762Y31347446D01*
X117192446Y31359143D01*
X117103286Y31369816D01*
X116974535Y31385142D01*
X116817667Y31403759D01*
X116644156Y31424307D01*
X116465474Y31445423D01*
X116434045Y31449132D01*
X116245112Y31471467D01*
X116049414Y31494673D01*
X115861249Y31517049D01*
X115694915Y31536896D01*
X115564708Y31552513D01*
X115559956Y31553086D01*
X115408095Y31571322D01*
X115247499Y31590497D01*
X115099681Y31608047D01*
X115007223Y31618944D01*
X114875677Y31634767D01*
X114718978Y31654213D01*
X114562932Y31674059D01*
X114498596Y31682420D01*
X114378629Y31697436D01*
X114272438Y31709433D01*
X114193588Y31716950D01*
X114160830Y31718771D01*
X114135788Y31710810D01*
X114099865Y31684412D01*
X114049605Y31635803D01*
X113981553Y31561210D01*
X113892254Y31456859D01*
X113778253Y31318976D01*
X113648865Y31159611D01*
X113343990Y30782259D01*
X113069772Y30443435D01*
X112824815Y30141460D01*
X112607723Y29874657D01*
X112417102Y29641347D01*
X112251557Y29439854D01*
X112109693Y29268498D01*
X111990114Y29125603D01*
X111891426Y29009490D01*
X111812234Y28918482D01*
X111751142Y28850901D01*
X111706756Y28805068D01*
X111677681Y28779307D01*
X111663597Y28771904D01*
X111618348Y28772323D01*
X111534738Y28775979D01*
X111425673Y28782227D01*
X111330908Y28788510D01*
X111193096Y28797639D01*
X111008525Y28809004D01*
X110781789Y28822339D01*
X110517484Y28837381D01*
X110220207Y28853867D01*
X109894554Y28871531D01*
X109762689Y28878584D01*
X109676199Y28883291D01*
X109551248Y28890222D01*
X109400708Y28898655D01*
X109237451Y28907871D01*
X109119976Y28914545D01*
X108767116Y28934635D01*
X108462180Y28951953D01*
X108201761Y28966691D01*
X107982451Y28979040D01*
X107800844Y28989192D01*
X107653531Y28997339D01*
X107537105Y29003670D01*
X107461778Y29007669D01*
X107329422Y29014749D01*
X107152112Y29024482D01*
X106936225Y29036512D01*
X106688133Y29050478D01*
X106414214Y29066022D01*
X106120842Y29082787D01*
X105880705Y29096590D01*
X105710950Y29106304D01*
X105539637Y29115989D01*
X105381251Y29124835D01*
X105250275Y29132030D01*
X105186576Y29135445D01*
X105080632Y29141135D01*
X104938049Y29148946D01*
X104773520Y29158065D01*
X104601740Y29167680D01*
X104498873Y29173486D01*
X104305818Y29184423D01*
X104084273Y29196973D01*
X103857085Y29209843D01*
X103647097Y29221738D01*
X103573367Y29225914D01*
X103404120Y29235452D01*
X103234807Y29244908D01*
X103079307Y29253512D01*
X102951497Y29260495D01*
X102885665Y29264022D01*
X102783934Y29269498D01*
X102645342Y29277111D01*
X102484364Y29286058D01*
X102315471Y29295536D01*
X102217244Y29301093D01*
X102030909Y29311671D01*
X101814575Y29323952D01*
X101589578Y29336724D01*
X101377251Y29348777D01*
X101278883Y29354361D01*
X101113326Y29363779D01*
X100954163Y29372872D01*
X100812955Y29380976D01*
X100701261Y29387428D01*
X100636171Y29391235D01*
X100565377Y29395321D01*
X100453032Y29401668D01*
X100308928Y29409730D01*
X100142854Y29418959D01*
X99964600Y29428810D01*
X99884197Y29433235D01*
X99286474Y29466088D01*
X99286230Y29596225D01*
X99285020Y29661172D01*
X99281783Y29767555D01*
X99276877Y29905452D01*
X99270659Y30064937D01*
X99263488Y30236086D01*
X99261607Y30279095D01*
X99252954Y30482938D01*
X99244007Y30707046D01*
X99235470Y30932879D01*
X99228046Y31141898D01*
X99223072Y31294581D01*
X99218125Y31452128D01*
X99211788Y31647607D01*
X99204510Y31867564D01*
X99196737Y32098546D01*
X99188917Y32327100D01*
X99183700Y32477172D01*
X99177003Y32668441D01*
X99168888Y32900293D01*
X99159734Y33161925D01*
X99149919Y33442535D01*
X99139820Y33731320D01*
X99129815Y34017478D01*
X99120282Y34290206D01*
X99119404Y34315330D01*
X99109949Y34585450D01*
X99099982Y34869400D01*
X99089880Y35156501D01*
X99080019Y35436073D01*
X99070777Y35697437D01*
X99062530Y35929914D01*
X99055654Y36122824D01*
X99055017Y36140633D01*
X99048024Y36340454D01*
X99045108Y36427512D01*
X99903478Y36427512D01*
X99903723Y36161957D01*
X99905006Y36052445D01*
X99908436Y35904571D01*
X99913621Y35731330D01*
X99920168Y35545715D01*
X99927685Y35360719D01*
X99928434Y35343670D01*
X99937101Y35139828D01*
X99946031Y34915722D01*
X99954524Y34689890D01*
X99961881Y34480873D01*
X99966781Y34328184D01*
X99971662Y34170638D01*
X99977961Y33975161D01*
X99985230Y33755207D01*
X99993021Y33524227D01*
X100000887Y33295675D01*
X100006154Y33145593D01*
X100014456Y32911024D01*
X100023946Y32642676D01*
X100034003Y32358154D01*
X100044003Y32075063D01*
X100053324Y31811009D01*
X100058392Y31667354D01*
X100069552Y31354459D01*
X100079301Y31089500D01*
X100087802Y30869022D01*
X100095221Y30689567D01*
X100101721Y30547680D01*
X100107468Y30439904D01*
X100112625Y30362783D01*
X100117357Y30312861D01*
X100121828Y30286681D01*
X100124345Y30281035D01*
X100154134Y30275341D01*
X100232563Y30267500D01*
X100356910Y30257688D01*
X100524450Y30246082D01*
X100732461Y30232858D01*
X100978217Y30218194D01*
X101258997Y30202267D01*
X101572076Y30185254D01*
X101715928Y30177649D01*
X101912990Y30167150D01*
X102122106Y30155728D01*
X102327518Y30144262D01*
X102513465Y30133632D01*
X102664188Y30124719D01*
X102667142Y30124539D01*
X102830451Y30114757D01*
X103001749Y30104747D01*
X103162254Y30095590D01*
X103293180Y30088370D01*
X103309855Y30087482D01*
X103545692Y30074806D01*
X103816818Y30059916D01*
X104107199Y30043712D01*
X104400803Y30027096D01*
X104681596Y30010967D01*
X104929491Y29996468D01*
X105098879Y29986594D01*
X105273563Y29976665D01*
X105437230Y29967592D01*
X105573565Y29960285D01*
X105623620Y29957718D01*
X105747906Y29951286D01*
X105917552Y29942205D01*
X106126586Y29930809D01*
X106369038Y29917434D01*
X106638936Y29902415D01*
X106930309Y29886085D01*
X107237188Y29868782D01*
X107553599Y29850839D01*
X107873574Y29832591D01*
X108191140Y29814374D01*
X108500327Y29796523D01*
X108605806Y29790403D01*
X108781259Y29780381D01*
X108967809Y29770016D01*
X109147111Y29760309D01*
X109300822Y29752261D01*
X109351353Y29749715D01*
X109506533Y29741373D01*
X109675509Y29731252D01*
X109833549Y29720875D01*
X109916940Y29714848D01*
X110065561Y29705408D01*
X110235432Y29697460D01*
X110396388Y29692348D01*
X110440494Y29691539D01*
X110706963Y29687799D01*
X110660539Y29758498D01*
X110641442Y29788297D01*
X110596408Y29858976D01*
X110527046Y29967999D01*
X110434968Y30112831D01*
X110321783Y30290935D01*
X110189103Y30499778D01*
X110038536Y30736823D01*
X109871693Y30999536D01*
X109690185Y31285380D01*
X109495623Y31591822D01*
X109289615Y31916324D01*
X109073773Y32256352D01*
X108911265Y32512386D01*
X114762993Y32512386D01*
X114783943Y32492704D01*
X114802754Y32490026D01*
X114843160Y32487201D01*
X114924557Y32479470D01*
X115036874Y32467948D01*
X115170039Y32453751D01*
X115313978Y32437993D01*
X115458622Y32421791D01*
X115593897Y32406260D01*
X115709732Y32392515D01*
X115796056Y32381671D01*
X115842750Y32374853D01*
X115905173Y32365396D01*
X115993915Y32354542D01*
X116048418Y32348774D01*
X116149017Y32338045D01*
X116272510Y32323796D01*
X116382628Y32310305D01*
X116486161Y32297365D01*
X116622453Y32280621D01*
X116773204Y32262308D01*
X116909652Y32245911D01*
X117059285Y32228025D01*
X117213148Y32209605D01*
X117352215Y32192930D01*
X117449531Y32181233D01*
X117538688Y32170549D01*
X117667434Y32155190D01*
X117824296Y32136522D01*
X117997801Y32115910D01*
X118176477Y32094719D01*
X118207932Y32090993D01*
X118617590Y32042369D01*
X118997656Y31997041D01*
X119369621Y31952440D01*
X119609045Y31923612D01*
X119781005Y31902958D01*
X119993277Y31877596D01*
X120235104Y31848800D01*
X120495731Y31817849D01*
X120764401Y31786017D01*
X121030359Y31754581D01*
X121282848Y31724819D01*
X121434349Y31707010D01*
X121622350Y31684788D01*
X121814404Y31661821D01*
X121997196Y31639720D01*
X122157412Y31620095D01*
X122281740Y31604558D01*
X122295584Y31602793D01*
X122428992Y31586037D01*
X122598686Y31565199D01*
X122795228Y31541394D01*
X123009185Y31515739D01*
X123231120Y31489349D01*
X123451599Y31463343D01*
X123661185Y31438835D01*
X123850444Y31416942D01*
X124009940Y31398780D01*
X124130238Y31385466D01*
X124153473Y31382985D01*
X124284221Y31368423D01*
X124421624Y31351923D01*
X124538669Y31336746D01*
X124551955Y31334903D01*
X124657715Y31320811D01*
X124791571Y31304015D01*
X124930503Y31287376D01*
X124982122Y31281431D01*
X125119875Y31265565D01*
X125284171Y31246308D01*
X125450522Y31226544D01*
X125547709Y31214845D01*
X125694075Y31197167D01*
X125846238Y31178890D01*
X125983370Y31162512D01*
X126061879Y31153205D01*
X126320949Y31122591D01*
X126534192Y31097229D01*
X126706855Y31076478D01*
X126844190Y31059694D01*
X126951446Y31046236D01*
X127033873Y31035461D01*
X127096721Y31026727D01*
X127103074Y31025803D01*
X127221003Y31009821D01*
X127296994Y31003537D01*
X127339665Y31007292D01*
X127357637Y31021431D01*
X127360159Y31036013D01*
X127355062Y31071714D01*
X127340860Y31149350D01*
X127319184Y31260573D01*
X127291665Y31397034D01*
X127259934Y31550385D01*
X127255933Y31569464D01*
X127221721Y31732786D01*
X127179839Y31933342D01*
X127133017Y32158014D01*
X127083989Y32393682D01*
X127035486Y32627227D01*
X126997311Y32811382D01*
X126840112Y33569976D01*
X126691269Y34287231D01*
X126548905Y34972197D01*
X126460892Y35395087D01*
X126421417Y35584894D01*
X126382361Y35773119D01*
X126345938Y35949064D01*
X126314361Y36102030D01*
X126289843Y36221317D01*
X126280071Y36269176D01*
X126255558Y36388731D01*
X126224191Y36540257D01*
X126189778Y36705423D01*
X126156129Y36865902D01*
X126151859Y36886180D01*
X126118623Y37044622D01*
X126084140Y37210223D01*
X126052212Y37364654D01*
X126026641Y37489589D01*
X126023886Y37503184D01*
X125968701Y37773435D01*
X125922070Y37996175D01*
X125883274Y38174465D01*
X125851595Y38311369D01*
X125826315Y38409950D01*
X125806716Y38473269D01*
X125792081Y38504389D01*
X125788314Y38508056D01*
X125746733Y38521494D01*
X125674073Y38535144D01*
X125627312Y38541330D01*
X125463912Y38559862D01*
X125272227Y38581843D01*
X125060394Y38606318D01*
X124836555Y38632332D01*
X124608847Y38658931D01*
X124385410Y38685158D01*
X124174384Y38710060D01*
X123983907Y38732682D01*
X123822120Y38752069D01*
X123697161Y38767266D01*
X123632426Y38775350D01*
X123481273Y38794231D01*
X123317218Y38814056D01*
X123165064Y38831857D01*
X123092547Y38840026D01*
X122958472Y38855280D01*
X122798219Y38874210D01*
X122636599Y38893862D01*
X122552669Y38904342D01*
X122407096Y38922440D01*
X122214920Y38945837D01*
X121980622Y38973996D01*
X121708683Y39006384D01*
X121403585Y39042465D01*
X121069809Y39081704D01*
X120907325Y39100732D01*
X120760183Y39118367D01*
X120594209Y39138902D01*
X120441523Y39158354D01*
X120418863Y39161310D01*
X120174632Y39193321D01*
X120097507Y39101214D01*
X120052595Y39046946D01*
X119983946Y38963230D01*
X119900162Y38860589D01*
X119809848Y38749546D01*
X119790193Y38725326D01*
X119719022Y38637620D01*
X119621017Y38516900D01*
X119501772Y38370053D01*
X119366883Y38203968D01*
X119221941Y38025533D01*
X119072542Y37841634D01*
X118954213Y37695998D01*
X118785086Y37487787D01*
X118598284Y37257704D01*
X118403159Y37017272D01*
X118209061Y36778017D01*
X118025339Y36551461D01*
X117861345Y36349129D01*
X117808996Y36284512D01*
X117670055Y36113076D01*
X117532758Y35943832D01*
X117402733Y35783708D01*
X117285606Y35639628D01*
X117187006Y35518516D01*
X117112560Y35427300D01*
X117088209Y35397569D01*
X117024726Y35319888D01*
X116934976Y35209611D01*
X116824977Y35074156D01*
X116700750Y34920944D01*
X116568313Y34757394D01*
X116433686Y34590925D01*
X116408341Y34559560D01*
X116276172Y34396070D01*
X116147024Y34236498D01*
X116026483Y34087731D01*
X115920136Y33956658D01*
X115833569Y33850168D01*
X115772366Y33775149D01*
X115762076Y33762597D01*
X115575998Y33535433D01*
X115402799Y33322943D01*
X115245004Y33128287D01*
X115105140Y32954626D01*
X114985734Y32805123D01*
X114889311Y32682938D01*
X114818400Y32591234D01*
X114775525Y32533171D01*
X114762993Y32512386D01*
X108911265Y32512386D01*
X108849707Y32609371D01*
X108688866Y32862799D01*
X108460049Y33223291D01*
X108238337Y33572484D01*
X108025339Y33907850D01*
X107822664Y34226859D01*
X107631920Y34526984D01*
X107454717Y34805695D01*
X107292663Y35060463D01*
X107147367Y35288760D01*
X107020437Y35488058D01*
X106913482Y35655826D01*
X106828112Y35789538D01*
X106765934Y35886664D01*
X106728558Y35944675D01*
X106718001Y35960674D01*
X106699096Y35984323D01*
X106675570Y36002047D01*
X106639433Y36015407D01*
X106582698Y36025965D01*
X106497376Y36035281D01*
X106375479Y36044916D01*
X106237982Y36054465D01*
X106062876Y36066024D01*
X105876512Y36077752D01*
X105697348Y36088524D01*
X105543842Y36097213D01*
X105495078Y36099786D01*
X105302601Y36109882D01*
X105068462Y36122555D01*
X104802322Y36137267D01*
X104513840Y36153477D01*
X104212678Y36170647D01*
X103908495Y36188236D01*
X103836879Y36192415D01*
X103672025Y36201979D01*
X103504145Y36211591D01*
X103349096Y36220351D01*
X103222730Y36227361D01*
X103181312Y36229605D01*
X102952016Y36242018D01*
X102681925Y36256862D01*
X102381575Y36273550D01*
X102061501Y36291493D01*
X101732237Y36310102D01*
X101404318Y36328789D01*
X101343154Y36332293D01*
X101142308Y36343676D01*
X100938069Y36355015D01*
X100742483Y36365657D01*
X100567594Y36374952D01*
X100425447Y36382247D01*
X100366231Y36385140D01*
X100236123Y36392119D01*
X100118924Y36399868D01*
X100027422Y36407445D01*
X99974407Y36413911D01*
X99974177Y36413955D01*
X99903478Y36427512D01*
X99045108Y36427512D01*
X99041468Y36536154D01*
X99035653Y36718033D01*
X99030881Y36876392D01*
X99027454Y37001531D01*
X99025802Y37075978D01*
X99022722Y37255889D01*
X100091573Y37255889D01*
X100117443Y37253368D01*
X100187075Y37248555D01*
X100292884Y37241921D01*
X100427290Y37233937D01*
X100582711Y37225073D01*
X100636171Y37222098D01*
X100835219Y37210955D01*
X101066901Y37197767D01*
X101312529Y37183610D01*
X101553415Y37169563D01*
X101770872Y37156703D01*
X101780199Y37156146D01*
X101996090Y37143450D01*
X102236289Y37129664D01*
X102482107Y37115838D01*
X102714859Y37103022D01*
X102915858Y37092267D01*
X102924227Y37091829D01*
X103121067Y37081340D01*
X103351059Y37068760D01*
X103596034Y37055103D01*
X103837822Y37041384D01*
X104058253Y37028616D01*
X104081110Y37027273D01*
X104297970Y37014666D01*
X104538249Y37000972D01*
X104783777Y36987210D01*
X105016384Y36974396D01*
X105217900Y36963548D01*
X105237993Y36962486D01*
X105424798Y36952435D01*
X105617702Y36941693D01*
X105802264Y36931090D01*
X105964042Y36921455D01*
X106086373Y36913764D01*
X106227275Y36905158D01*
X106368305Y36897657D01*
X106490968Y36892188D01*
X106561980Y36889929D01*
X106729086Y36886365D01*
X107294673Y37584080D01*
X107436441Y37758906D01*
X107576217Y37931161D01*
X107708595Y38094193D01*
X107828172Y38241350D01*
X107929545Y38365983D01*
X108007309Y38461439D01*
X108041308Y38503066D01*
X108123882Y38604252D01*
X108227439Y38731546D01*
X108340679Y38871037D01*
X108452301Y39008816D01*
X108491207Y39056919D01*
X108608711Y39202262D01*
X108743833Y39369371D01*
X108881849Y39540040D01*
X109008037Y39696062D01*
X109038613Y39733863D01*
X109129004Y39846660D01*
X109206147Y39944943D01*
X109227145Y39972480D01*
X120836232Y39972480D01*
X120838622Y39968702D01*
X120875039Y39960067D01*
X120951146Y39948225D01*
X121055446Y39934800D01*
X121164410Y39922656D01*
X121305293Y39907578D01*
X121448889Y39891450D01*
X121575041Y39876572D01*
X121640017Y39868414D01*
X121751961Y39854090D01*
X121862339Y39840491D01*
X121935665Y39831889D01*
X122017366Y39822510D01*
X122128562Y39809469D01*
X122247708Y39795298D01*
X122269875Y39792637D01*
X122375208Y39779995D01*
X122520138Y39762639D01*
X122706433Y39740359D01*
X122935863Y39712943D01*
X123210195Y39680180D01*
X123531200Y39641858D01*
X123900644Y39597765D01*
X124095179Y39574552D01*
X124298482Y39550328D01*
X124532338Y39522521D01*
X124776232Y39493565D01*
X125009654Y39465897D01*
X125174936Y39446341D01*
X125342671Y39426497D01*
X125497272Y39408169D01*
X125629964Y39392401D01*
X125731968Y39380236D01*
X125794509Y39372717D01*
X125804794Y39371458D01*
X125885182Y39362755D01*
X125945203Y39363796D01*
X125996238Y39380221D01*
X126049669Y39417673D01*
X126116879Y39481791D01*
X126197921Y39566291D01*
X126329979Y39706330D01*
X126492860Y39880864D01*
X126687338Y40090732D01*
X126914190Y40336770D01*
X127174192Y40619819D01*
X127321596Y40780648D01*
X127443307Y40913290D01*
X127588653Y41071301D01*
X127746287Y41242370D01*
X127904861Y41414184D01*
X128053029Y41574431D01*
X128079997Y41603557D01*
X128222370Y41757530D01*
X128375120Y41923146D01*
X128527541Y42088770D01*
X128668927Y42242767D01*
X128788573Y42373500D01*
X128812689Y42399930D01*
X128921007Y42518320D01*
X129054707Y42663809D01*
X129204102Y42825894D01*
X129359505Y42994073D01*
X129511230Y43157843D01*
X129583944Y43236146D01*
X129809368Y43479103D01*
X130000415Y43685961D01*
X130158138Y43857884D01*
X130283586Y43996037D01*
X130377812Y44101586D01*
X130441865Y44175695D01*
X130476797Y44219529D01*
X130484260Y44234008D01*
X130457598Y44238814D01*
X130386102Y44248425D01*
X130276054Y44262084D01*
X130133736Y44279036D01*
X129965430Y44298525D01*
X129777418Y44319795D01*
X129695711Y44328897D01*
X129479027Y44352947D01*
X129259368Y44377361D01*
X129047377Y44400954D01*
X128853692Y44422540D01*
X128688955Y44440934D01*
X128563807Y44454952D01*
X128555604Y44455873D01*
X128436910Y44469106D01*
X128277204Y44486754D01*
X128086596Y44507707D01*
X127875193Y44530859D01*
X127653103Y44555100D01*
X127430435Y44579321D01*
X127373013Y44585553D01*
X127153570Y44609412D01*
X126933561Y44633437D01*
X126722763Y44656552D01*
X126530950Y44677682D01*
X126367899Y44695753D01*
X126243386Y44709689D01*
X126216130Y44712775D01*
X126054883Y44730892D01*
X125878236Y44750395D01*
X125710038Y44768668D01*
X125599126Y44780481D01*
X125444871Y44797056D01*
X125272601Y44816138D01*
X125110706Y44834563D01*
X125050533Y44841593D01*
X124784733Y44872989D01*
X124690614Y44757331D01*
X124620839Y44672477D01*
X124549041Y44586508D01*
X124517661Y44549503D01*
X124477270Y44501134D01*
X124411044Y44420515D01*
X124325365Y44315470D01*
X124226612Y44193824D01*
X124121164Y44063402D01*
X124107125Y44045998D01*
X123987490Y43897843D01*
X123846275Y43723291D01*
X123694386Y43535801D01*
X123542727Y43348832D01*
X123402203Y43175843D01*
X123376141Y43143796D01*
X123193932Y42919730D01*
X122999556Y42680590D01*
X122798017Y42432540D01*
X122594321Y42181746D01*
X122393473Y41934373D01*
X122200478Y41696586D01*
X122020340Y41474551D01*
X121858065Y41274433D01*
X121718658Y41102398D01*
X121615467Y40974925D01*
X121495820Y40827246D01*
X121361407Y40661711D01*
X121226395Y40495747D01*
X121104951Y40346780D01*
X121071157Y40305411D01*
X120969884Y40178406D01*
X120895415Y40078328D01*
X120850085Y40008559D01*
X120836232Y39972480D01*
X109227145Y39972480D01*
X109264982Y40022100D01*
X109300453Y40071518D01*
X109308552Y40086710D01*
X109280551Y40087597D01*
X109218386Y40080569D01*
X109171393Y40073205D01*
X109105960Y40062369D01*
X109000020Y40045240D01*
X108863866Y40023464D01*
X108707793Y39998689D01*
X108542094Y39972558D01*
X108528681Y39970450D01*
X108330917Y39939322D01*
X108102280Y39903231D01*
X107862668Y39865324D01*
X107631980Y39828749D01*
X107461778Y39801696D01*
X107264541Y39770327D01*
X107052213Y39736607D01*
X106841456Y39703179D01*
X106648934Y39672687D01*
X106497709Y39648783D01*
X106335362Y39623158D01*
X106169390Y39596961D01*
X106015919Y39572737D01*
X105891075Y39553031D01*
X105854997Y39547337D01*
X105746452Y39530184D01*
X105602728Y39507444D01*
X105439427Y39481588D01*
X105272150Y39455084D01*
X105199430Y39443556D01*
X104834252Y39385666D01*
X104516173Y39335272D01*
X104241511Y39291794D01*
X104006585Y39254653D01*
X103807714Y39223271D01*
X103641217Y39197069D01*
X103503412Y39175467D01*
X103390620Y39157887D01*
X103299159Y39143750D01*
X103225347Y39132477D01*
X103165505Y39123489D01*
X103142750Y39120124D01*
X103042020Y39104950D01*
X102950574Y39090575D01*
X102898519Y39081889D01*
X102843824Y39072683D01*
X102747878Y39057011D01*
X102620223Y39036393D01*
X102470402Y39012349D01*
X102307956Y38986399D01*
X102142427Y38960061D01*
X101983358Y38934856D01*
X101840291Y38912302D01*
X101722767Y38893921D01*
X101640330Y38881231D01*
X101613094Y38877183D01*
X101570336Y38872027D01*
X101534217Y38868132D01*
X101501893Y38862588D01*
X101470517Y38852483D01*
X101437246Y38834905D01*
X101399235Y38806941D01*
X101353638Y38765681D01*
X101297613Y38708211D01*
X101228312Y38631621D01*
X101142893Y38532998D01*
X101038510Y38409431D01*
X100912318Y38258007D01*
X100761473Y38075815D01*
X100583130Y37859943D01*
X100384229Y37619307D01*
X100289843Y37504704D01*
X100208328Y37404765D01*
X100144753Y37325785D01*
X100104185Y37274056D01*
X100091573Y37255889D01*
X99022722Y37255889D01*
X99021893Y37304340D01*
X99343817Y37692983D01*
X99472714Y37848652D01*
X99620497Y38027222D01*
X99773309Y38211945D01*
X99917297Y38386074D01*
X99996704Y38482148D01*
X100284577Y38830514D01*
X100543150Y39143403D01*
X100775867Y39424981D01*
X100986174Y39679413D01*
X101177515Y39910865D01*
X101353334Y40123503D01*
X101517075Y40321492D01*
X101672183Y40508998D01*
X101822103Y40690187D01*
X101970279Y40869224D01*
X102120154Y41050274D01*
X102152972Y41089914D01*
X102310102Y41279754D01*
X102469823Y41472822D01*
X102626129Y41661852D01*
X102773017Y41839577D01*
X102904479Y41998733D01*
X103014512Y42132054D01*
X103089813Y42223409D01*
X103213482Y42373447D01*
X103355512Y42545515D01*
X103501421Y42722083D01*
X103636727Y42885621D01*
X103687535Y42946959D01*
X103756848Y43030627D01*
X104883480Y43030627D01*
X104884437Y43030512D01*
X104919923Y43034694D01*
X104992731Y43045857D01*
X105089571Y43061920D01*
X105130966Y43069062D01*
X105258057Y43090668D01*
X105389988Y43112203D01*
X105500888Y43129457D01*
X105513534Y43131331D01*
X105573643Y43140452D01*
X105678228Y43156650D01*
X105820985Y43178936D01*
X105995611Y43206320D01*
X106195802Y43237813D01*
X106415253Y43272426D01*
X106647661Y43309169D01*
X106754794Y43326135D01*
X106998259Y43364690D01*
X107237772Y43402579D01*
X107465937Y43438634D01*
X107675360Y43471689D01*
X107858644Y43500577D01*
X108008395Y43524130D01*
X108117217Y43541181D01*
X108143053Y43545208D01*
X108246617Y43561398D01*
X108391735Y43584201D01*
X108569182Y43612160D01*
X108769734Y43643821D01*
X108984164Y43677727D01*
X109203247Y43712423D01*
X109287082Y43725715D01*
X109499904Y43759458D01*
X109706669Y43792218D01*
X109899196Y43822700D01*
X110069309Y43849610D01*
X110208829Y43871655D01*
X110309578Y43887540D01*
X110341130Y43892498D01*
X110678150Y43945437D01*
X111000873Y43996324D01*
X111304687Y44044420D01*
X111584976Y44088989D01*
X111837124Y44129292D01*
X112056518Y44164593D01*
X112238543Y44194153D01*
X112378583Y44217236D01*
X112465799Y44232018D01*
X112726602Y44277374D01*
X113061723Y44688367D01*
X113161869Y44811730D01*
X113249565Y44920796D01*
X113320092Y45009613D01*
X113368738Y45072230D01*
X113390784Y45102696D01*
X113391555Y45104648D01*
X113365735Y45102633D01*
X113297898Y45093625D01*
X113196775Y45078880D01*
X113071100Y45059657D01*
X112988445Y45046639D01*
X112805484Y45017649D01*
X112596713Y44984762D01*
X112387140Y44951907D01*
X112201771Y44923013D01*
X112192142Y44921519D01*
X112000221Y44891650D01*
X111776996Y44856755D01*
X111532396Y44818398D01*
X111276350Y44778144D01*
X111018787Y44737560D01*
X110769636Y44698208D01*
X110538826Y44661656D01*
X110336285Y44629466D01*
X110171943Y44603205D01*
X110135462Y44597343D01*
X110013524Y44577728D01*
X109908729Y44560904D01*
X109810560Y44545199D01*
X109708500Y44528937D01*
X109592034Y44510445D01*
X109450644Y44488048D01*
X109273814Y44460073D01*
X109177820Y44444893D01*
X109012317Y44418713D01*
X108825723Y44389182D01*
X108644638Y44360511D01*
X108535108Y44343160D01*
X108413170Y44323876D01*
X108253483Y44298680D01*
X108069095Y44269626D01*
X107873050Y44238770D01*
X107678398Y44208168D01*
X107628883Y44200390D01*
X107436774Y44170191D01*
X107239829Y44139184D01*
X107051095Y44109426D01*
X106883619Y44082976D01*
X106750448Y44061891D01*
X106722659Y44057479D01*
X106561349Y44031846D01*
X106375854Y44002370D01*
X106192771Y43973277D01*
X106079946Y43955349D01*
X105946260Y43934174D01*
X105822221Y43914649D01*
X105721376Y43898898D01*
X105657269Y43889046D01*
X105655807Y43888827D01*
X105614063Y43879007D01*
X105573946Y43858733D01*
X105528382Y43821594D01*
X105470295Y43761177D01*
X105392611Y43671072D01*
X105323211Y43587421D01*
X105226843Y43470613D01*
X105131046Y43354941D01*
X105045904Y43252553D01*
X104981502Y43175598D01*
X104972972Y43165481D01*
X104920157Y43099016D01*
X104888200Y43050823D01*
X104883480Y43030627D01*
X103756848Y43030627D01*
X103937456Y43248641D01*
X104206025Y43573020D01*
X104479190Y43903117D01*
X104742897Y44221953D01*
X104841852Y44341645D01*
X105072982Y44621223D01*
X105276334Y44867139D01*
X105456866Y45085383D01*
X105619535Y45281946D01*
X105731344Y45416979D01*
X106836282Y45416979D01*
X106962643Y45434152D01*
X107032901Y45444291D01*
X107141319Y45460653D01*
X107275292Y45481303D01*
X107422215Y45504309D01*
X107487486Y45514643D01*
X107648212Y45540191D01*
X107813148Y45566426D01*
X107965611Y45590692D01*
X108088913Y45610335D01*
X108117345Y45614868D01*
X108255329Y45636838D01*
X108410079Y45661409D01*
X108571172Y45686935D01*
X108728182Y45711768D01*
X108870683Y45734258D01*
X108988251Y45752759D01*
X109070460Y45765621D01*
X109094268Y45769304D01*
X109161757Y45779839D01*
X109256335Y45794824D01*
X109332071Y45806934D01*
X109453726Y45826471D01*
X109586764Y45847837D01*
X109653428Y45858543D01*
X109794479Y45881156D01*
X109903441Y45898490D01*
X109998985Y45913471D01*
X110099778Y45929026D01*
X110224491Y45948084D01*
X110225442Y45948229D01*
X110315807Y45962169D01*
X110446894Y45982613D01*
X110608648Y46007984D01*
X110791013Y46036700D01*
X110983935Y46067182D01*
X111125240Y46089576D01*
X111319524Y46120361D01*
X111510570Y46150547D01*
X111688322Y46178551D01*
X111842726Y46202791D01*
X111963726Y46221686D01*
X112025037Y46231171D01*
X112139539Y46248962D01*
X112244319Y46265618D01*
X112321970Y46278359D01*
X112340006Y46281465D01*
X112403052Y46292074D01*
X112509317Y46309354D01*
X112651206Y46332112D01*
X112821124Y46359155D01*
X113011479Y46389289D01*
X113214675Y46421321D01*
X113423119Y46454059D01*
X113629217Y46486309D01*
X113825375Y46516878D01*
X114003998Y46544573D01*
X114157493Y46568200D01*
X114278266Y46586568D01*
X114347172Y46596811D01*
X114638334Y46639214D01*
X114822779Y46861188D01*
X114892324Y46945492D01*
X114986859Y47060966D01*
X115099144Y47198722D01*
X115221939Y47349867D01*
X115348005Y47505510D01*
X115418559Y47592843D01*
X115539976Y47743177D01*
X115659162Y47890545D01*
X115769643Y48026956D01*
X115864942Y48144419D01*
X115938585Y48234942D01*
X115971292Y48274965D01*
X116022851Y48338101D01*
X116101475Y48434716D01*
X116201890Y48558312D01*
X116318823Y48702395D01*
X116447000Y48860467D01*
X116581148Y49026033D01*
X116639713Y49098357D01*
X116774807Y49265141D01*
X116906212Y49427230D01*
X117028654Y49578131D01*
X117136862Y49711348D01*
X117225561Y49820388D01*
X117289480Y49898757D01*
X117308134Y49921533D01*
X117364642Y49990643D01*
X117446988Y50091736D01*
X117548677Y50216815D01*
X117663212Y50357888D01*
X117784097Y50506959D01*
X117860867Y50601725D01*
X117991310Y50762697D01*
X118144674Y50951767D01*
X118311407Y51157170D01*
X118481955Y51367141D01*
X118646766Y51569915D01*
X118776789Y51729767D01*
X118900936Y51882625D01*
X119013751Y52022103D01*
X119111368Y52143373D01*
X119189918Y52241608D01*
X119245533Y52311979D01*
X119274345Y52349659D01*
X119277520Y52354713D01*
X119251390Y52356398D01*
X119177467Y52358812D01*
X119059370Y52361891D01*
X118900716Y52365569D01*
X118705125Y52369782D01*
X118476214Y52374464D01*
X118217602Y52379551D01*
X117932906Y52384978D01*
X117625746Y52390680D01*
X117299739Y52396591D01*
X116958503Y52402648D01*
X116605657Y52408784D01*
X116244819Y52414935D01*
X115879607Y52421036D01*
X115513640Y52427023D01*
X115150535Y52432829D01*
X114793912Y52438391D01*
X114447388Y52443642D01*
X114114581Y52448519D01*
X113824632Y52452605D01*
X112667750Y52468556D01*
X112077199Y51753633D01*
X111920793Y51564321D01*
X111756914Y51366022D01*
X111592890Y51167600D01*
X111436052Y50977921D01*
X111293729Y50805849D01*
X111173249Y50660249D01*
X111124749Y50601666D01*
X110821505Y50235434D01*
X110539248Y49894505D01*
X110279454Y49580667D01*
X110043604Y49295704D01*
X109833173Y49041404D01*
X109649641Y48819551D01*
X109494486Y48631933D01*
X109369185Y48480336D01*
X109275351Y48366707D01*
X109107300Y48163174D01*
X108908333Y47922403D01*
X108680373Y47646721D01*
X108425341Y47338452D01*
X108168556Y47028184D01*
X108071557Y46910981D01*
X107956249Y46771623D01*
X107827746Y46616293D01*
X107691164Y46451177D01*
X107551616Y46282459D01*
X107414217Y46116322D01*
X107284083Y45958951D01*
X107166326Y45816531D01*
X107066063Y45695246D01*
X106988407Y45601280D01*
X106938876Y45541306D01*
X106836282Y45416979D01*
X105731344Y45416979D01*
X105769297Y45462815D01*
X105911110Y45633981D01*
X106049930Y45801434D01*
X106086552Y45845593D01*
X106163702Y45938705D01*
X106269968Y46067090D01*
X106401729Y46226370D01*
X106555365Y46412165D01*
X106727259Y46620098D01*
X106913791Y46845791D01*
X107111341Y47084864D01*
X107316290Y47332939D01*
X107525020Y47585639D01*
X107680356Y47773730D01*
X107889550Y48027030D01*
X108097650Y48278958D01*
X108301038Y48525135D01*
X108496094Y48761184D01*
X108679199Y48982726D01*
X108846735Y49185382D01*
X108995082Y49364774D01*
X109120621Y49516524D01*
X109219734Y49636253D01*
X109274105Y49701868D01*
X109417135Y49874398D01*
X109562457Y50049796D01*
X109715078Y50234112D01*
X109880005Y50433394D01*
X110062242Y50653692D01*
X110266796Y50901055D01*
X110498674Y51181531D01*
X110518748Y51205815D01*
X110623067Y51331979D01*
X110747503Y51482420D01*
X110879380Y51641816D01*
X111006022Y51794845D01*
X111061099Y51861382D01*
X111203863Y52033925D01*
X111356019Y52217980D01*
X111511519Y52406219D01*
X111664316Y52591314D01*
X111808363Y52765937D01*
X111937614Y52922761D01*
X112046020Y53054457D01*
X112125913Y53151718D01*
X112256414Y53310880D01*
X112809146Y53311882D01*
X112961879Y53311484D01*
G37*
G36*
X27995719Y48546405D02*
G01*
X28208871Y48542803D01*
X28463793Y48538467D01*
X28750848Y48533562D01*
X29060398Y48528255D01*
X29382805Y48522710D01*
X29708431Y48517094D01*
X30027638Y48511571D01*
X30323418Y48506436D01*
X30632839Y48501147D01*
X30962790Y48495675D01*
X31302829Y48490183D01*
X31642517Y48484833D01*
X31971414Y48479789D01*
X32279080Y48475212D01*
X32555074Y48471265D01*
X32765725Y48468413D01*
X33016292Y48464882D01*
X33272544Y48460800D01*
X33524867Y48456352D01*
X33763648Y48451724D01*
X33979272Y48447101D01*
X34162125Y48442670D01*
X34295438Y48438848D01*
X34796810Y48422708D01*
X34954516Y48175345D01*
X35007942Y48091413D01*
X35084030Y47971690D01*
X35177928Y47823822D01*
X35284784Y47655451D01*
X35399745Y47474223D01*
X35517960Y47287783D01*
X35568439Y47208143D01*
X35704942Y46992834D01*
X35856703Y46753576D01*
X36015124Y46503919D01*
X36171606Y46257410D01*
X36317551Y46027598D01*
X36441367Y45832739D01*
X36533912Y45687111D01*
X36649877Y45504567D01*
X36785136Y45291607D01*
X36935562Y45054729D01*
X37097028Y44800433D01*
X37265408Y44535218D01*
X37436575Y44265583D01*
X37606403Y43998026D01*
X37714645Y43827475D01*
X37963318Y43435697D01*
X38198084Y43065944D01*
X38417766Y42720065D01*
X38621185Y42399911D01*
X38807165Y42107333D01*
X38974528Y41844182D01*
X39122097Y41612307D01*
X39248693Y41413560D01*
X39353140Y41249791D01*
X39434260Y41122850D01*
X39490875Y41034588D01*
X39521808Y40986856D01*
X39527488Y40978502D01*
X39557553Y40970690D01*
X39635559Y40958649D01*
X39758238Y40942796D01*
X39922325Y40923547D01*
X40124553Y40901319D01*
X40169774Y40896502D01*
X40293341Y40883251D01*
X40405269Y40870978D01*
X40491169Y40861276D01*
X40529693Y40856666D01*
X40579171Y40850866D01*
X40670214Y40840686D01*
X40793255Y40827175D01*
X40938729Y40811384D01*
X41095280Y40794556D01*
X41255805Y40777330D01*
X41405519Y40761169D01*
X41534236Y40747177D01*
X41631774Y40736464D01*
X41686576Y40730294D01*
X41744653Y40723719D01*
X41843666Y40712729D01*
X41973436Y40698445D01*
X42123779Y40681989D01*
X42277871Y40665202D01*
X42437238Y40647831D01*
X42584710Y40631662D01*
X42710418Y40617786D01*
X42804492Y40607291D01*
X42856312Y40601356D01*
X42921084Y40593873D01*
X43020526Y40582686D01*
X43138193Y40569635D01*
X43203377Y40562478D01*
X43343947Y40546978D01*
X43494389Y40530192D01*
X43628654Y40515031D01*
X43666130Y40510748D01*
X43784891Y40497347D01*
X43903044Y40484394D01*
X43996093Y40474572D01*
X44000341Y40474141D01*
X44067696Y40467115D01*
X44175106Y40455655D01*
X44311515Y40440953D01*
X44465870Y40424198D01*
X44604491Y40409062D01*
X44765440Y40391439D01*
X44917948Y40374745D01*
X45050957Y40360190D01*
X45153413Y40348982D01*
X45208640Y40342946D01*
X45301730Y40332517D01*
X45419512Y40318962D01*
X45529997Y40305983D01*
X45656268Y40291565D01*
X45791664Y40277020D01*
X45891517Y40266994D01*
X46060223Y40250935D01*
X46302853Y39977429D01*
X46410887Y39856280D01*
X46526320Y39727881D01*
X46635424Y39607447D01*
X46724467Y39510194D01*
X46725442Y39509138D01*
X46793772Y39434702D01*
X46889247Y39330022D01*
X47004622Y39203076D01*
X47132652Y39061845D01*
X47266093Y38914305D01*
X47355300Y38815473D01*
X47499337Y38655881D01*
X47667290Y38469996D01*
X47848512Y38269591D01*
X48032354Y38066436D01*
X48208168Y37872305D01*
X48332223Y37735445D01*
X48474746Y37578249D01*
X48643687Y37391852D01*
X48830963Y37185178D01*
X49028493Y36967147D01*
X49228191Y36746683D01*
X49421975Y36532706D01*
X49579086Y36359187D01*
X49760078Y36159336D01*
X49953060Y35946365D01*
X50150141Y35728973D01*
X50343432Y35515861D01*
X50525039Y35315729D01*
X50687074Y35137277D01*
X50808520Y35003639D01*
X51318115Y34443200D01*
X51181293Y34293209D01*
X51123999Y34230741D01*
X51038739Y34138228D01*
X50932549Y34023284D01*
X50812468Y33893524D01*
X50685535Y33756562D01*
X50620280Y33686234D01*
X50475364Y33529844D01*
X50317796Y33359338D01*
X50158952Y33187058D01*
X50010209Y33025346D01*
X49882943Y32886543D01*
X49861879Y32863504D01*
X49740161Y32730590D01*
X49594805Y32572325D01*
X49437162Y32401040D01*
X49278579Y32229062D01*
X49130407Y32068722D01*
X49103478Y32039629D01*
X48960135Y31884606D01*
X48805491Y31716999D01*
X48650508Y31548715D01*
X48506150Y31391660D01*
X48383380Y31257741D01*
X48360180Y31232373D01*
X48245841Y31107586D01*
X48131677Y30983540D01*
X48026927Y30870232D01*
X47940826Y30777659D01*
X47895126Y30728994D01*
X47814746Y30643379D01*
X47706305Y30526901D01*
X47576386Y30386686D01*
X47431571Y30229865D01*
X47278444Y30063566D01*
X47123588Y29894918D01*
X46973585Y29731050D01*
X46969673Y29726769D01*
X46750045Y29486608D01*
X46540639Y29258045D01*
X46345418Y29045387D01*
X46168347Y28852943D01*
X46013389Y28685019D01*
X45884508Y28545924D01*
X45785670Y28439964D01*
X45774227Y28427776D01*
X45694779Y28342801D01*
X45589098Y28229121D01*
X45465700Y28095930D01*
X45333097Y27952421D01*
X45199806Y27807791D01*
X45155254Y27759355D01*
X45033287Y27626771D01*
X44884612Y27465300D01*
X44717415Y27283825D01*
X44539878Y27091224D01*
X44360188Y26896379D01*
X44186529Y26708168D01*
X44114060Y26629661D01*
X43953286Y26455432D01*
X43789611Y26277904D01*
X43629790Y26104414D01*
X43480577Y25942299D01*
X43348728Y25798897D01*
X43240997Y25681546D01*
X43191054Y25627030D01*
X42895937Y25304500D01*
X42779718Y25312125D01*
X42707219Y25318384D01*
X42599128Y25329549D01*
X42470851Y25343963D01*
X42354997Y25357834D01*
X42066287Y25393266D01*
X41754612Y25431107D01*
X41414684Y25471988D01*
X41041220Y25516541D01*
X40628934Y25565398D01*
X40172541Y25619192D01*
X40015523Y25637645D01*
X39782632Y25665052D01*
X39586415Y25688284D01*
X39412466Y25709071D01*
X39246382Y25729142D01*
X39073759Y25750225D01*
X38922912Y25768780D01*
X38863133Y25775941D01*
X38765432Y25787415D01*
X38642972Y25801666D01*
X38508914Y25817156D01*
X38498721Y25818329D01*
X38350845Y25835588D01*
X38200500Y25853548D01*
X38066004Y25869999D01*
X37971697Y25881941D01*
X37850494Y25897536D01*
X37721285Y25913685D01*
X37576531Y25931286D01*
X37408696Y25951238D01*
X37210240Y25974440D01*
X36973627Y26001789D01*
X36776252Y26024457D01*
X36588218Y26046177D01*
X36396134Y26068660D01*
X36213319Y26090328D01*
X36053093Y26109599D01*
X35928776Y26124894D01*
X35915017Y26126625D01*
X35768171Y26144993D01*
X35612604Y26164158D01*
X35471139Y26181321D01*
X35400847Y26189692D01*
X35234133Y26209415D01*
X35036361Y26232965D01*
X34824727Y26258283D01*
X34616432Y26283305D01*
X34428674Y26305973D01*
X34308235Y26320609D01*
X34219070Y26331366D01*
X34090310Y26346734D01*
X33933431Y26365350D01*
X33759909Y26385853D01*
X33581219Y26406883D01*
X33549835Y26410567D01*
X33076586Y26466342D01*
X32647008Y26517486D01*
X32253655Y26564890D01*
X32148721Y26577646D01*
X32014114Y26593930D01*
X31837154Y26615164D01*
X31626554Y26640315D01*
X31391028Y26668345D01*
X31139292Y26698220D01*
X30880057Y26728906D01*
X30622039Y26759366D01*
X30373951Y26788565D01*
X30323418Y26794500D01*
X30135415Y26816728D01*
X29943361Y26839714D01*
X29760569Y26861844D01*
X29600352Y26881504D01*
X29476025Y26897083D01*
X29462183Y26898854D01*
X29329617Y26915011D01*
X29202082Y26929054D01*
X29096181Y26939234D01*
X29040070Y26943327D01*
X28913605Y26949844D01*
X28659060Y26641342D01*
X28567770Y26530255D01*
X28452755Y26389609D01*
X28322550Y26229883D01*
X28185692Y26061555D01*
X28050716Y25895103D01*
X27988561Y25818279D01*
X27859734Y25659017D01*
X27707580Y25471090D01*
X27541203Y25265730D01*
X27369705Y25054172D01*
X27202192Y24847648D01*
X27047766Y24657392D01*
X27045799Y24654969D01*
X26902558Y24477767D01*
X26787870Y24335749D01*
X26696700Y24225167D01*
X26624015Y24142273D01*
X26564780Y24083320D01*
X26513962Y24044560D01*
X26466528Y24022245D01*
X26417442Y24012628D01*
X26361671Y24011960D01*
X26294182Y24016495D01*
X26209940Y24022483D01*
X26197203Y24023189D01*
X26123820Y24027233D01*
X26011133Y24033659D01*
X25871165Y24041770D01*
X25715937Y24050871D01*
X25605908Y24057384D01*
X25373195Y24071204D01*
X25182612Y24082483D01*
X25024962Y24091743D01*
X24891049Y24099507D01*
X24771675Y24106297D01*
X24657646Y24112636D01*
X24539764Y24119045D01*
X24408833Y24126046D01*
X24255657Y24134163D01*
X24230503Y24135493D01*
X24042786Y24145597D01*
X23821211Y24157821D01*
X23583241Y24171181D01*
X23346341Y24184697D01*
X23127976Y24197386D01*
X23099329Y24199073D01*
X22882472Y24211670D01*
X22642196Y24225295D01*
X22396671Y24238939D01*
X22164066Y24251594D01*
X21962550Y24262250D01*
X21942446Y24263289D01*
X21746573Y24273606D01*
X21536058Y24285082D01*
X21327948Y24296762D01*
X21139292Y24307691D01*
X21004086Y24315856D01*
X20840907Y24325796D01*
X20672031Y24335744D01*
X20514967Y24344690D01*
X20387226Y24351623D01*
X20361373Y24352951D01*
X20188955Y24361887D01*
X19977382Y24373212D01*
X19738824Y24386250D01*
X19485451Y24400323D01*
X19229435Y24414754D01*
X18982945Y24428867D01*
X18758151Y24441984D01*
X18716029Y24444479D01*
X18549691Y24454234D01*
X18378897Y24464039D01*
X18219997Y24472970D01*
X18089344Y24480101D01*
X18047608Y24482296D01*
X17850230Y24492686D01*
X17615404Y24505349D01*
X17357007Y24519513D01*
X17088919Y24534410D01*
X16825018Y24549270D01*
X16579182Y24563323D01*
X16427972Y24572110D01*
X16263119Y24581696D01*
X16095240Y24591326D01*
X15940191Y24600101D01*
X15813825Y24607118D01*
X15772405Y24609362D01*
X15520137Y24622961D01*
X15269891Y24636614D01*
X15029815Y24649866D01*
X14808054Y24662262D01*
X14612754Y24673345D01*
X14452059Y24682660D01*
X14334117Y24689753D01*
X14329029Y24690070D01*
X14093952Y24704739D01*
X14077728Y25210288D01*
X14060772Y25731421D01*
X14042052Y26293397D01*
X14021928Y26885688D01*
X14000758Y27497763D01*
X13978901Y28119092D01*
X13972942Y28286686D01*
X13959253Y28672981D01*
X13945794Y29057439D01*
X13932265Y29448833D01*
X13918366Y29855940D01*
X13903799Y30287532D01*
X13888264Y30752386D01*
X13871461Y31259276D01*
X13870295Y31294581D01*
X13865309Y31440712D01*
X13862033Y31533043D01*
X14712361Y31533043D01*
X14713400Y31420952D01*
X14716242Y31276706D01*
X14720780Y31106712D01*
X14726903Y30917375D01*
X14729677Y30840219D01*
X14748844Y30320217D01*
X14766166Y29847169D01*
X14781797Y29416653D01*
X14795894Y29024245D01*
X14808611Y28665521D01*
X14820102Y28336057D01*
X14830523Y28031432D01*
X14840029Y27747220D01*
X14848775Y27479000D01*
X14856914Y27222346D01*
X14860982Y27091241D01*
X14868311Y26859907D01*
X14875956Y26630492D01*
X14883605Y26411601D01*
X14890944Y26211841D01*
X14897657Y26039820D01*
X14903432Y25904144D01*
X14906952Y25831524D01*
X14924025Y25510168D01*
X15412486Y25480454D01*
X15619966Y25468007D01*
X15869178Y25453346D01*
X16150514Y25437019D01*
X16454362Y25419574D01*
X16771113Y25401558D01*
X17091157Y25383520D01*
X17404884Y25366007D01*
X17702684Y25349568D01*
X17829086Y25342658D01*
X17990793Y25333782D01*
X18189517Y25322768D01*
X18410943Y25310415D01*
X18640754Y25297524D01*
X18864635Y25284894D01*
X18973114Y25278743D01*
X19190552Y25266437D01*
X19423344Y25253346D01*
X19656632Y25240299D01*
X19875561Y25228126D01*
X20065272Y25217656D01*
X20142851Y25213412D01*
X20319700Y25203677D01*
X20531524Y25191865D01*
X20761968Y25178896D01*
X20994676Y25165693D01*
X21213296Y25153175D01*
X21261171Y25150415D01*
X21476521Y25138068D01*
X21712114Y25124711D01*
X21950942Y25111299D01*
X22175994Y25098786D01*
X22370261Y25088126D01*
X22405199Y25086231D01*
X22590929Y25076058D01*
X22810978Y25063800D01*
X23048337Y25050418D01*
X23285998Y25036871D01*
X23506953Y25024120D01*
X23549227Y25021657D01*
X23835327Y25005290D01*
X24151403Y24987780D01*
X24481033Y24970003D01*
X24807792Y24952833D01*
X25115259Y24937146D01*
X25374531Y24924412D01*
X25445991Y24922159D01*
X25492151Y24922900D01*
X25499829Y24924197D01*
X25491216Y24946590D01*
X25460151Y25002266D01*
X25412252Y25081433D01*
X25381775Y25129865D01*
X25329529Y25212040D01*
X25256009Y25327939D01*
X25167390Y25467809D01*
X25069851Y25621899D01*
X24969568Y25780458D01*
X24937291Y25831524D01*
X24831348Y25998974D01*
X24720394Y26174020D01*
X24612182Y26344449D01*
X24514468Y26498052D01*
X24435006Y26622615D01*
X24423028Y26641342D01*
X24365341Y26731697D01*
X24284380Y26858825D01*
X24184381Y27016060D01*
X24069579Y27196735D01*
X23944209Y27394185D01*
X23812507Y27601743D01*
X23678707Y27812742D01*
X23639023Y27875350D01*
X23501989Y28091528D01*
X23362884Y28310896D01*
X23226480Y28525936D01*
X23097548Y28729127D01*
X22980860Y28912951D01*
X22881188Y29069887D01*
X22803302Y29192416D01*
X22790721Y29212192D01*
X22712089Y29335926D01*
X22611644Y29494239D01*
X22495020Y29678234D01*
X22367855Y29879013D01*
X22235784Y30087678D01*
X22104443Y30295333D01*
X22033454Y30407637D01*
X21917882Y30589671D01*
X21809380Y30758956D01*
X21711357Y30910295D01*
X21627225Y31038489D01*
X21560391Y31138341D01*
X21514266Y31204652D01*
X21492936Y31231671D01*
X21482600Y31240113D01*
X21469381Y31247561D01*
X21449399Y31254320D01*
X21418771Y31260696D01*
X21373618Y31266995D01*
X21310058Y31273524D01*
X21224210Y31280588D01*
X21112192Y31288493D01*
X20970124Y31297545D01*
X20794124Y31308050D01*
X20580311Y31320314D01*
X20324805Y31334643D01*
X20023723Y31351343D01*
X19860057Y31360392D01*
X19693669Y31369666D01*
X19491292Y31381070D01*
X19268265Y31393731D01*
X19039928Y31406779D01*
X18821622Y31419341D01*
X18754592Y31423220D01*
X18538184Y31435636D01*
X18302285Y31448955D01*
X18063469Y31462255D01*
X17838313Y31474615D01*
X17643393Y31485112D01*
X17597709Y31487528D01*
X17409997Y31497612D01*
X17188427Y31509847D01*
X16950462Y31523248D01*
X16713567Y31536830D01*
X16495203Y31549609D01*
X16466535Y31551312D01*
X16106973Y31572575D01*
X15795925Y31590646D01*
X15530596Y31605659D01*
X15308189Y31617749D01*
X15125910Y31627048D01*
X14980962Y31633691D01*
X14870551Y31637811D01*
X14791880Y31639543D01*
X14742155Y31639020D01*
X14718580Y31636377D01*
X14716134Y31635137D01*
X14713236Y31606574D01*
X14712361Y31533043D01*
X13862033Y31533043D01*
X13858962Y31619621D01*
X13858014Y31645638D01*
X22263802Y31645638D01*
X22277019Y31617124D01*
X22313240Y31554176D01*
X22367316Y31465385D01*
X22434102Y31359342D01*
X22452468Y31330697D01*
X22517206Y31229736D01*
X22603608Y31094463D01*
X22705853Y30934021D01*
X22818121Y30757552D01*
X22934589Y30574199D01*
X23048374Y30394783D01*
X23176028Y30193378D01*
X23316794Y29971389D01*
X23462001Y29742484D01*
X23602977Y29520330D01*
X23731052Y29318594D01*
X23806803Y29199338D01*
X23886280Y29074218D01*
X23989498Y28911676D01*
X24112649Y28717708D01*
X24251930Y28498307D01*
X24403535Y28259468D01*
X24563659Y28007187D01*
X24728497Y27747457D01*
X24894242Y27486273D01*
X25014403Y27296909D01*
X25171386Y27049530D01*
X25324753Y26807898D01*
X25471497Y26576745D01*
X25608611Y26360809D01*
X25733087Y26164824D01*
X25841917Y25993525D01*
X25932094Y25851649D01*
X26000609Y25743931D01*
X26043074Y25677273D01*
X26116959Y25561317D01*
X26187719Y25449963D01*
X26246917Y25356503D01*
X26283716Y25298073D01*
X26326391Y25235699D01*
X26359942Y25196934D01*
X26371058Y25190440D01*
X26391856Y25210121D01*
X26439880Y25264439D01*
X26510395Y25347757D01*
X26598665Y25454437D01*
X26699956Y25578840D01*
X26762790Y25656874D01*
X26875075Y25796702D01*
X26981991Y25929512D01*
X27077517Y26047851D01*
X27155634Y26144268D01*
X27210320Y26211310D01*
X27225543Y26229743D01*
X27263164Y26275404D01*
X27327231Y26353798D01*
X27418393Y26465725D01*
X27537297Y26611981D01*
X27684591Y26793366D01*
X27860922Y27010677D01*
X28066940Y27264712D01*
X28303291Y27556270D01*
X28461233Y27751164D01*
X29565017Y27751164D01*
X29569865Y27746531D01*
X29587785Y27741237D01*
X29623843Y27734613D01*
X29683103Y27725992D01*
X29770630Y27714705D01*
X29891489Y27700083D01*
X30050746Y27681458D01*
X30253464Y27658163D01*
X30374835Y27644312D01*
X30522916Y27627140D01*
X30669076Y27609671D01*
X30797600Y27593816D01*
X30892775Y27581484D01*
X30901859Y27580243D01*
X31004555Y27566747D01*
X31135871Y27550427D01*
X31273315Y27534055D01*
X31326049Y27527990D01*
X31466645Y27511761D01*
X31632377Y27492236D01*
X31797362Y27472479D01*
X31878782Y27462577D01*
X31998623Y27448061D01*
X32155907Y27429248D01*
X32338103Y27407614D01*
X32532678Y27384635D01*
X32727100Y27361787D01*
X32908838Y27340546D01*
X33065359Y27322389D01*
X33184131Y27308791D01*
X33189916Y27308137D01*
X33259432Y27300019D01*
X33359812Y27287969D01*
X33470896Y27274412D01*
X33485563Y27272604D01*
X33594799Y27259224D01*
X33736065Y27242060D01*
X33890340Y27223419D01*
X34025442Y27207181D01*
X34175071Y27189241D01*
X34328929Y27170778D01*
X34467994Y27154074D01*
X34565320Y27142367D01*
X34654478Y27131682D01*
X34783223Y27116323D01*
X34940085Y27097655D01*
X35113590Y27077043D01*
X35292267Y27055853D01*
X35323721Y27052126D01*
X35512647Y27029723D01*
X35708338Y27006474D01*
X35896498Y26984082D01*
X36062831Y26964247D01*
X36193040Y26948672D01*
X36197810Y26948100D01*
X36345798Y26930363D01*
X36498767Y26912060D01*
X36636836Y26895567D01*
X36724835Y26885079D01*
X36815625Y26874260D01*
X36945487Y26858762D01*
X37102441Y26840014D01*
X37274507Y26819449D01*
X37449703Y26798496D01*
X37457527Y26797560D01*
X37658336Y26773605D01*
X37890341Y26746041D01*
X38133668Y26717221D01*
X38368443Y26689501D01*
X38550138Y26668127D01*
X38738140Y26645909D01*
X38930194Y26622944D01*
X39112986Y26600842D01*
X39273203Y26581215D01*
X39397531Y26565673D01*
X39411373Y26563908D01*
X39514467Y26551052D01*
X39658954Y26533518D01*
X39835144Y26512456D01*
X40033346Y26489016D01*
X40243867Y26464351D01*
X40457016Y26439610D01*
X40491130Y26435674D01*
X40703794Y26411021D01*
X40915400Y26386241D01*
X41116255Y26362489D01*
X41296668Y26340917D01*
X41446948Y26322678D01*
X41557404Y26308925D01*
X41570887Y26307198D01*
X41765061Y26282344D01*
X41913998Y26264004D01*
X42023438Y26252001D01*
X42099123Y26246159D01*
X42146797Y26246299D01*
X42172200Y26252247D01*
X42181074Y26263824D01*
X42179162Y26280854D01*
X42176858Y26288539D01*
X42168459Y26323490D01*
X42150932Y26402865D01*
X42125542Y26520727D01*
X42093549Y26671144D01*
X42056216Y26848180D01*
X42014805Y27045903D01*
X41970579Y27258377D01*
X41970442Y27259035D01*
X41924106Y27482202D01*
X41878858Y27699912D01*
X41836299Y27904469D01*
X41798034Y28088176D01*
X41765665Y28243338D01*
X41740795Y28362258D01*
X41726962Y28428083D01*
X41712086Y28499096D01*
X41687963Y28614943D01*
X41655738Y28770098D01*
X41616554Y28959040D01*
X41571558Y29176244D01*
X41521892Y29416187D01*
X41468701Y29673346D01*
X41413131Y29942197D01*
X41378055Y30111990D01*
X41321166Y30387343D01*
X41265617Y30656044D01*
X41212602Y30912329D01*
X41163314Y31150434D01*
X41118946Y31364597D01*
X41080694Y31549054D01*
X41049750Y31698043D01*
X41027308Y31805799D01*
X41018621Y31847313D01*
X40964250Y32106480D01*
X40918858Y32323495D01*
X40880750Y32506505D01*
X40848235Y32663657D01*
X40819620Y32803096D01*
X40799617Y32901362D01*
X40750309Y33141766D01*
X40709226Y33335684D01*
X40675361Y33487214D01*
X40647706Y33600450D01*
X40625254Y33679489D01*
X40606997Y33728427D01*
X40591928Y33751360D01*
X40590215Y33752604D01*
X40541747Y33768369D01*
X40471066Y33776836D01*
X40465422Y33777024D01*
X40392806Y33780772D01*
X40338971Y33786655D01*
X40336778Y33787069D01*
X40296487Y33792870D01*
X40217321Y33802629D01*
X40111535Y33814879D01*
X40015422Y33825547D01*
X39880429Y33840804D01*
X39745933Y33856940D01*
X39631254Y33871595D01*
X39578478Y33878917D01*
X39462687Y33894210D01*
X39332103Y33909080D01*
X39257122Y33916452D01*
X39158948Y33926042D01*
X39072941Y33935824D01*
X39025746Y33942427D01*
X38963355Y33951427D01*
X38874657Y33962301D01*
X38820078Y33968326D01*
X38748814Y33976035D01*
X38666992Y33985355D01*
X38566396Y33997269D01*
X38483688Y34007315D01*
X41438666Y34007315D01*
X41529436Y33563600D01*
X41566280Y33384258D01*
X41609653Y33174359D01*
X41655458Y32953653D01*
X41699599Y32741891D01*
X41725422Y32618568D01*
X41759420Y32456283D01*
X41791294Y32303594D01*
X41818953Y32170550D01*
X41840310Y32067201D01*
X41853276Y32003595D01*
X41853681Y32001564D01*
X41866156Y31940298D01*
X41887135Y31838767D01*
X41914529Y31707020D01*
X41946249Y31555106D01*
X41980204Y31393074D01*
X41981991Y31384560D01*
X42018389Y31210442D01*
X42054835Y31034698D01*
X42088589Y30870648D01*
X42116909Y30731615D01*
X42135457Y30639014D01*
X42155740Y30537970D01*
X42184175Y30398717D01*
X42218268Y30233349D01*
X42255523Y30053959D01*
X42293446Y29872640D01*
X42299873Y29842050D01*
X42330838Y29694320D01*
X42370341Y29505128D01*
X42416531Y29283370D01*
X42467562Y29037941D01*
X42521582Y28777737D01*
X42576744Y28511653D01*
X42631199Y28248585D01*
X42649898Y28158143D01*
X42717662Y27830787D01*
X42775854Y27550804D01*
X42825127Y27315176D01*
X42866134Y27120884D01*
X42899527Y26964912D01*
X42925958Y26844242D01*
X42946079Y26755855D01*
X42960543Y26696734D01*
X42970001Y26663861D01*
X42974953Y26654196D01*
X42993543Y26672143D01*
X43040944Y26721823D01*
X43111305Y26796995D01*
X43198771Y26891416D01*
X43270255Y26969125D01*
X43373366Y27081271D01*
X43501982Y27220760D01*
X43646583Y27377290D01*
X43797651Y27540562D01*
X43945666Y27700274D01*
X44011123Y27770805D01*
X44156193Y27927304D01*
X44310333Y28094050D01*
X44463596Y28260251D01*
X44606033Y28415112D01*
X44727695Y28547839D01*
X44771596Y28595912D01*
X44884485Y28719388D01*
X45021664Y28868899D01*
X45172428Y29032809D01*
X45326070Y29199483D01*
X45471887Y29357285D01*
X45504288Y29392285D01*
X45649067Y29548793D01*
X45806486Y29719282D01*
X45965199Y29891440D01*
X46113860Y30052959D01*
X46241121Y30191529D01*
X46262689Y30215059D01*
X46384432Y30347677D01*
X46529818Y30505648D01*
X46687493Y30676659D01*
X46846101Y30848396D01*
X46994287Y31008546D01*
X47021090Y31037471D01*
X47165932Y31193986D01*
X47323420Y31364584D01*
X47482194Y31536932D01*
X47630893Y31698694D01*
X47758156Y31837538D01*
X47779491Y31860873D01*
X47901322Y31993854D01*
X48046820Y32152119D01*
X48204608Y32323323D01*
X48363307Y32495126D01*
X48511542Y32655184D01*
X48537891Y32683580D01*
X48681598Y32838693D01*
X48836815Y33006751D01*
X48992491Y33175752D01*
X49137573Y33333695D01*
X49261009Y33468577D01*
X49283438Y33493169D01*
X49412856Y33634696D01*
X49556274Y33790733D01*
X49699834Y33946251D01*
X49829678Y34086224D01*
X49885252Y34145817D01*
X50165709Y34445837D01*
X50089152Y34528407D01*
X50048668Y34572634D01*
X49980399Y34647835D01*
X49890923Y34746737D01*
X49786818Y34862067D01*
X49674664Y34986553D01*
X49654444Y35009022D01*
X49535698Y35140702D01*
X49418251Y35270419D01*
X49310227Y35389236D01*
X49219752Y35488218D01*
X49154952Y35558428D01*
X49151850Y35561755D01*
X49079901Y35639773D01*
X48985237Y35743797D01*
X48879193Y35861305D01*
X48773101Y35979778D01*
X48753368Y36001932D01*
X48649708Y36117859D01*
X48523052Y36258627D01*
X48385176Y36411198D01*
X48247856Y36562536D01*
X48152264Y36667442D01*
X48021386Y36811085D01*
X47879468Y36967412D01*
X47738812Y37122838D01*
X47611717Y37263776D01*
X47535260Y37348933D01*
X47425623Y37470943D01*
X47293534Y37617260D01*
X47151294Y37774297D01*
X47011206Y37928468D01*
X46918256Y38030424D01*
X46788990Y38172305D01*
X46650211Y38325204D01*
X46513725Y38476077D01*
X46391339Y38611878D01*
X46315955Y38695933D01*
X46225055Y38796014D01*
X46145358Y38880768D01*
X46083413Y38943460D01*
X46045768Y38977355D01*
X46038373Y38981423D01*
X46013828Y38963376D01*
X45962058Y38913894D01*
X45890007Y38839960D01*
X45804622Y38748561D01*
X45779439Y38720977D01*
X45673982Y38605350D01*
X45547265Y38467128D01*
X45413090Y38321326D01*
X45285255Y38182960D01*
X45247203Y38141909D01*
X45138146Y38024210D01*
X45005157Y37880413D01*
X44853907Y37716674D01*
X44690069Y37539147D01*
X44519313Y37353988D01*
X44347313Y37167351D01*
X44179738Y36985391D01*
X44022261Y36814265D01*
X43880553Y36660125D01*
X43760287Y36529129D01*
X43667133Y36427430D01*
X43640422Y36398182D01*
X43554659Y36304515D01*
X43441010Y36180914D01*
X43306604Y36035097D01*
X43158568Y35874784D01*
X43004031Y35707692D01*
X42850120Y35541541D01*
X42703965Y35384049D01*
X42690333Y35369378D01*
X42590067Y35261288D01*
X42471598Y35133266D01*
X42340749Y34991633D01*
X42203340Y34842710D01*
X42065193Y34692818D01*
X41932131Y34548275D01*
X41809973Y34415404D01*
X41704542Y34300525D01*
X41621659Y34209957D01*
X41567145Y34150021D01*
X41562621Y34145004D01*
X41438666Y34007315D01*
X38483688Y34007315D01*
X38438810Y34012766D01*
X38276016Y34032831D01*
X38087385Y34056260D01*
X37965984Y34071018D01*
X37842588Y34085444D01*
X37743212Y34096501D01*
X37740320Y34096807D01*
X37642339Y34107680D01*
X37519371Y34122036D01*
X37397430Y34136835D01*
X37393256Y34137354D01*
X37191300Y34162433D01*
X37032135Y34182033D01*
X36907541Y34197140D01*
X36809300Y34208739D01*
X36729194Y34217816D01*
X36660563Y34225192D01*
X36557082Y34236895D01*
X36433213Y34252133D01*
X36339207Y34264464D01*
X36221146Y34279686D01*
X36098846Y34294145D01*
X36017851Y34302778D01*
X35925260Y34312712D01*
X35844329Y34322870D01*
X35812183Y34327736D01*
X35752744Y34335991D01*
X35663332Y34346180D01*
X35580806Y34354423D01*
X35460039Y34367326D01*
X35330542Y34383641D01*
X35259450Y34393878D01*
X35147377Y34410531D01*
X35066229Y34416228D01*
X35004088Y34405698D01*
X34949040Y34373666D01*
X34889168Y34314862D01*
X34812556Y34224013D01*
X34776877Y34180360D01*
X34737030Y34131600D01*
X34698178Y34084016D01*
X34657804Y34034507D01*
X34613390Y33979970D01*
X34562418Y33917303D01*
X34502369Y33843403D01*
X34430727Y33755169D01*
X34344972Y33649498D01*
X34242587Y33523288D01*
X34121054Y33373437D01*
X33977854Y33196842D01*
X33810471Y32990402D01*
X33616385Y32751013D01*
X33393079Y32475575D01*
X33331312Y32399387D01*
X33180880Y32213898D01*
X33032706Y32031320D01*
X32891749Y31857750D01*
X32762963Y31699286D01*
X32651307Y31562028D01*
X32561735Y31452074D01*
X32499206Y31375522D01*
X32495786Y31371348D01*
X32423552Y31282925D01*
X32326441Y31163634D01*
X32211873Y31022613D01*
X32087270Y30869000D01*
X31960051Y30711934D01*
X31891636Y30627364D01*
X31760428Y30465196D01*
X31607187Y30275967D01*
X31436562Y30065407D01*
X31253205Y29839246D01*
X31061765Y29603213D01*
X30866893Y29363038D01*
X30673239Y29124451D01*
X30485454Y28893181D01*
X30308187Y28674958D01*
X30146090Y28475513D01*
X30003813Y28300573D01*
X29886006Y28155870D01*
X29820874Y28075985D01*
X29733625Y27968387D01*
X29659159Y27875257D01*
X29603001Y27803609D01*
X29570675Y27760455D01*
X29565017Y27751164D01*
X28461233Y27751164D01*
X28570624Y27886148D01*
X28869586Y28255145D01*
X28895138Y28286686D01*
X29010314Y28428767D01*
X29116719Y28559850D01*
X29209469Y28673935D01*
X29283682Y28765020D01*
X29334475Y28827103D01*
X29355319Y28852273D01*
X29384805Y28887975D01*
X29440668Y28956478D01*
X29517032Y29050538D01*
X29608017Y29162917D01*
X29707745Y29286373D01*
X29710121Y29289317D01*
X29829299Y29436865D01*
X29968945Y29609499D01*
X30117077Y29792426D01*
X30261714Y29970847D01*
X30378014Y30114135D01*
X30489093Y30250969D01*
X30624388Y30417764D01*
X30775782Y30604504D01*
X30935155Y30801174D01*
X31094391Y30997757D01*
X31245370Y31184238D01*
X31261778Y31204511D01*
X31396841Y31371283D01*
X31528218Y31533298D01*
X31650639Y31684074D01*
X31758836Y31817128D01*
X31847538Y31925976D01*
X31911476Y32004135D01*
X31930199Y32026882D01*
X32007626Y32120974D01*
X32083804Y32214134D01*
X32144285Y32288682D01*
X32152628Y32299057D01*
X32232828Y32398736D01*
X32333682Y32523672D01*
X32448138Y32665169D01*
X32569143Y32814533D01*
X32689647Y32963068D01*
X32802596Y33102077D01*
X32900938Y33222867D01*
X32977622Y33316740D01*
X33005964Y33351261D01*
X33058874Y33415869D01*
X33138853Y33513995D01*
X33240645Y33639169D01*
X33358997Y33784923D01*
X33488654Y33944787D01*
X33624361Y34112293D01*
X33692627Y34196625D01*
X33858570Y34401588D01*
X34047016Y34634184D01*
X34251742Y34886745D01*
X34466525Y35151600D01*
X34515194Y35211592D01*
X35632223Y35211592D01*
X35654737Y35195960D01*
X35709561Y35187659D01*
X35715776Y35187452D01*
X35786637Y35183929D01*
X35837891Y35178356D01*
X35883215Y35171674D01*
X35960679Y35161744D01*
X36030705Y35153382D01*
X36167364Y35137515D01*
X36320590Y35119631D01*
X36478934Y35101078D01*
X36630943Y35083201D01*
X36765167Y35067347D01*
X36870156Y35054863D01*
X36930503Y35047582D01*
X36990447Y35040335D01*
X37090393Y35028382D01*
X37219278Y35013038D01*
X37366040Y34995622D01*
X37470381Y34983271D01*
X37621724Y34965363D01*
X37761506Y34948803D01*
X37879038Y34934857D01*
X37963635Y34924793D01*
X37997405Y34920752D01*
X38190307Y34897414D01*
X38387434Y34873384D01*
X38571221Y34850815D01*
X38724104Y34831854D01*
X38742952Y34829496D01*
X38865662Y34814765D01*
X38994240Y34800335D01*
X39090017Y34790413D01*
X39185383Y34780371D01*
X39268830Y34770196D01*
X39308539Y34764344D01*
X39357878Y34757282D01*
X39446278Y34746032D01*
X39561699Y34732078D01*
X39692098Y34716906D01*
X39707021Y34715206D01*
X39911595Y34691793D01*
X40074204Y34672781D01*
X40204000Y34657043D01*
X40310137Y34643454D01*
X40401769Y34630889D01*
X40452567Y34623525D01*
X40558708Y34610974D01*
X40668489Y34602580D01*
X40699115Y34601330D01*
X40817120Y34598123D01*
X41238994Y35054387D01*
X41370707Y35196718D01*
X41503414Y35339911D01*
X41628993Y35475218D01*
X41739321Y35593889D01*
X41826277Y35687176D01*
X41853681Y35716475D01*
X41930098Y35798470D01*
X42032689Y35909161D01*
X42152921Y36039307D01*
X42282261Y36179668D01*
X42412177Y36321006D01*
X42444976Y36356752D01*
X42574866Y36498367D01*
X42707451Y36642924D01*
X42833888Y36780781D01*
X42945334Y36902295D01*
X43032947Y36997826D01*
X43049126Y37015468D01*
X43301491Y37290519D01*
X43531079Y37540473D01*
X43735814Y37763075D01*
X43913621Y37956074D01*
X44062424Y38117215D01*
X44180149Y38244246D01*
X44244571Y38313397D01*
X44430872Y38513036D01*
X44607135Y38702601D01*
X44770191Y38878638D01*
X44916872Y39037692D01*
X45044009Y39176308D01*
X45148432Y39291033D01*
X45226974Y39378412D01*
X45276464Y39434991D01*
X45293658Y39456984D01*
X45274845Y39471007D01*
X45217996Y39485337D01*
X45152261Y39494832D01*
X45067643Y39504182D01*
X44947945Y39517659D01*
X44809160Y39533451D01*
X44668762Y39549576D01*
X44534370Y39565091D01*
X44410584Y39579378D01*
X44310563Y39590920D01*
X44247466Y39598198D01*
X44244571Y39598532D01*
X44167736Y39606981D01*
X44066931Y39617558D01*
X44000341Y39624323D01*
X43913582Y39633332D01*
X43791989Y39646399D01*
X43651815Y39661762D01*
X43511879Y39677364D01*
X43400243Y39689832D01*
X43247264Y39706773D01*
X43062718Y39727114D01*
X42856379Y39749777D01*
X42638023Y39773690D01*
X42417423Y39797777D01*
X42354997Y39804580D01*
X42149895Y39826923D01*
X41956983Y39847949D01*
X41783337Y39866887D01*
X41636036Y39882963D01*
X41522157Y39895407D01*
X41448777Y39903444D01*
X41429491Y39905569D01*
X41217681Y39929048D01*
X41046184Y39948087D01*
X40904209Y39963891D01*
X40780962Y39977665D01*
X40665651Y39990614D01*
X40547484Y40003941D01*
X40491130Y40010312D01*
X40329193Y40028469D01*
X40148884Y40048431D01*
X39976123Y40067340D01*
X39876263Y40078129D01*
X39582753Y40109595D01*
X39516344Y40023455D01*
X39480823Y39978486D01*
X39418535Y39900789D01*
X39335217Y39797472D01*
X39236609Y39675645D01*
X39128449Y39542418D01*
X39081801Y39485077D01*
X38976976Y39356247D01*
X38848416Y39198150D01*
X38699330Y39014739D01*
X38532927Y38809968D01*
X38352416Y38587788D01*
X38161008Y38352153D01*
X37961910Y38107016D01*
X37758333Y37856330D01*
X37553486Y37604047D01*
X37350579Y37354121D01*
X37152820Y37110504D01*
X36963419Y36877149D01*
X36785585Y36658010D01*
X36622528Y36457039D01*
X36477457Y36278189D01*
X36353582Y36125413D01*
X36254111Y36002664D01*
X36182255Y35913895D01*
X36157734Y35883548D01*
X36083895Y35792128D01*
X35991231Y35677483D01*
X35893272Y35556350D01*
X35827537Y35475104D01*
X35751925Y35379936D01*
X35689937Y35298605D01*
X35647922Y35239676D01*
X35632226Y35211713D01*
X35632223Y35211592D01*
X34515194Y35211592D01*
X34685141Y35421077D01*
X34901365Y35687508D01*
X35108976Y35943220D01*
X35301748Y36180545D01*
X35473458Y36391811D01*
X35593277Y36539115D01*
X35678842Y36644320D01*
X35790328Y36781487D01*
X35921265Y36942648D01*
X36065181Y37119834D01*
X36215608Y37305076D01*
X36366073Y37490406D01*
X36510106Y37667856D01*
X36641238Y37829455D01*
X36752998Y37967236D01*
X36822510Y38052983D01*
X36913013Y38164575D01*
X37022169Y38299024D01*
X37136160Y38439320D01*
X37240114Y38567153D01*
X37526957Y38919932D01*
X37782005Y39234141D01*
X38006152Y39510898D01*
X38200294Y39751321D01*
X38365324Y39956528D01*
X38502137Y40127639D01*
X38611626Y40265769D01*
X38694687Y40372039D01*
X38752213Y40447565D01*
X38785099Y40493466D01*
X38794369Y40510332D01*
X38781049Y40537685D01*
X38743159Y40603298D01*
X38683805Y40702096D01*
X38606092Y40829005D01*
X38513125Y40978953D01*
X38408011Y41146864D01*
X38301906Y41314962D01*
X38076885Y41670055D01*
X37877991Y41983862D01*
X37703851Y42258541D01*
X37553095Y42496252D01*
X37424350Y42699155D01*
X37316247Y42869409D01*
X37227412Y43009173D01*
X37156476Y43120608D01*
X37102066Y43205872D01*
X37062811Y43267126D01*
X37037341Y43306528D01*
X37032908Y43313305D01*
X37006240Y43354680D01*
X36955430Y43434215D01*
X36883839Y43546627D01*
X36794824Y43686630D01*
X36691746Y43848942D01*
X36577963Y44028277D01*
X36456834Y44219352D01*
X36428215Y44264520D01*
X36297972Y44470041D01*
X36167527Y44675773D01*
X36041497Y44874443D01*
X35924499Y45058775D01*
X35821152Y45221494D01*
X35736072Y45355325D01*
X35673878Y45452993D01*
X35673852Y45453035D01*
X35580828Y45599201D01*
X35478927Y45759822D01*
X35380068Y45916085D01*
X35296168Y46049177D01*
X35291134Y46057185D01*
X35148288Y46284244D01*
X35030101Y46471240D01*
X34934043Y46621747D01*
X34857582Y46739340D01*
X34798186Y46827596D01*
X34753325Y46890089D01*
X34720467Y46930394D01*
X34697080Y46952086D01*
X34680633Y46958741D01*
X34668595Y46953934D01*
X34661747Y46946096D01*
X34638709Y46916637D01*
X34586808Y46851728D01*
X34509624Y46755807D01*
X34410743Y46633308D01*
X34293746Y46488668D01*
X34162217Y46326324D01*
X34019738Y46150712D01*
X33949410Y46064115D01*
X33827304Y45913804D01*
X33711669Y45771441D01*
X33599741Y45633623D01*
X33488757Y45496941D01*
X33375953Y45357992D01*
X33258566Y45213369D01*
X33133833Y45059667D01*
X32998990Y44893479D01*
X32851273Y44711401D01*
X32687921Y44510026D01*
X32506168Y44285948D01*
X32303253Y44035763D01*
X32076411Y43756064D01*
X31822879Y43443446D01*
X31539894Y43094503D01*
X31521731Y43072105D01*
X31371294Y42886676D01*
X31216899Y42696501D01*
X31065082Y42509622D01*
X30922382Y42334082D01*
X30795335Y42177925D01*
X30690479Y42049194D01*
X30644107Y41992348D01*
X30525802Y41847196D01*
X30387970Y41677695D01*
X30243344Y41499530D01*
X30104661Y41328384D01*
X30019340Y41222893D01*
X29920089Y41100184D01*
X29795477Y40946321D01*
X29652589Y40770039D01*
X29498509Y40580074D01*
X29340319Y40385160D01*
X29185103Y40194032D01*
X29120209Y40114166D01*
X28954294Y39909942D01*
X28769692Y39682608D01*
X28576343Y39444413D01*
X28384187Y39207603D01*
X28203163Y38984425D01*
X28043211Y38787127D01*
X28022507Y38761578D01*
X27882038Y38588324D01*
X27716820Y38384693D01*
X27534567Y38160182D01*
X27342991Y37924289D01*
X27149806Y37686511D01*
X26962723Y37456346D01*
X26801353Y37257914D01*
X26626815Y37043264D01*
X26439018Y36812149D01*
X26245675Y36574074D01*
X26054501Y36338542D01*
X25873212Y36115060D01*
X25709522Y35913130D01*
X25580199Y35753446D01*
X25379768Y35505815D01*
X25207104Y35292525D01*
X25057637Y35107942D01*
X24926797Y34946431D01*
X24810014Y34802357D01*
X24702717Y34670087D01*
X24600337Y34543985D01*
X24498304Y34418418D01*
X24392048Y34287750D01*
X24276999Y34146348D01*
X24194831Y34045390D01*
X24076539Y33900001D01*
X23964650Y33762375D01*
X23864630Y33639243D01*
X23781944Y33537335D01*
X23722055Y33463381D01*
X23694911Y33429714D01*
X23634557Y33354941D01*
X23559355Y33262422D01*
X23496474Y33185483D01*
X23439888Y33116174D01*
X23359513Y33017332D01*
X23263854Y32899434D01*
X23161416Y32772958D01*
X23098927Y32695694D01*
X22977393Y32545502D01*
X22839112Y32374886D01*
X22699037Y32202279D01*
X22572120Y32046118D01*
X22541103Y32008003D01*
X22449949Y31894819D01*
X22371396Y31794964D01*
X22310768Y31715397D01*
X22273391Y31663075D01*
X22263802Y31645638D01*
X13858014Y31645638D01*
X13851926Y31812713D01*
X13844873Y32001387D01*
X13841786Y32082183D01*
X13825715Y32499204D01*
X14925330Y32499204D01*
X14927532Y32491610D01*
X14935448Y32488950D01*
X14947006Y32488549D01*
X14960133Y32487732D01*
X14966020Y32486510D01*
X15021409Y32477735D01*
X15109735Y32470747D01*
X15212519Y32466978D01*
X15219169Y32466880D01*
X15314341Y32464298D01*
X15445996Y32458929D01*
X15599316Y32451466D01*
X15759484Y32442596D01*
X15823319Y32438737D01*
X16018780Y32426808D01*
X16255573Y32412704D01*
X16523688Y32396999D01*
X16813113Y32380267D01*
X17113839Y32363081D01*
X17415853Y32346016D01*
X17709146Y32329647D01*
X17983705Y32314546D01*
X18086171Y32308982D01*
X18263016Y32299299D01*
X18474835Y32287507D01*
X18705274Y32274527D01*
X18937979Y32261283D01*
X19156596Y32248695D01*
X19204491Y32245913D01*
X19422339Y32233373D01*
X19662761Y32219769D01*
X19908072Y32206086D01*
X20140589Y32193310D01*
X20342629Y32182426D01*
X20374227Y32180753D01*
X20561026Y32170829D01*
X20753923Y32160472D01*
X20938480Y32150465D01*
X21100256Y32141589D01*
X21222608Y32134753D01*
X21531110Y32117253D01*
X21775341Y32416093D01*
X21848749Y32506091D01*
X21949001Y32629258D01*
X22070582Y32778806D01*
X22207976Y32947944D01*
X22355668Y33129884D01*
X22508143Y33317838D01*
X22649430Y33492112D01*
X22909832Y33813331D01*
X23195474Y34165522D01*
X23499131Y34539784D01*
X23813579Y34927216D01*
X24131595Y35318915D01*
X24445954Y35705982D01*
X24642422Y35947819D01*
X24712665Y36034306D01*
X24808084Y36151837D01*
X24921464Y36291524D01*
X25045591Y36444480D01*
X25173252Y36601815D01*
X25250297Y36696782D01*
X25374930Y36850410D01*
X25523676Y37033749D01*
X25688250Y37236589D01*
X25860366Y37448715D01*
X26031736Y37659916D01*
X26194076Y37859979D01*
X26241106Y37917936D01*
X26368096Y38074440D01*
X26522044Y38264184D01*
X26697519Y38480475D01*
X26889093Y38716619D01*
X27091334Y38965924D01*
X27298813Y39221695D01*
X27506101Y39477240D01*
X27707766Y39725864D01*
X27792071Y39829803D01*
X27975826Y40056339D01*
X28156605Y40279171D01*
X28330633Y40493649D01*
X28494132Y40695120D01*
X28643329Y40878932D01*
X28774446Y41040434D01*
X28883709Y41174973D01*
X28967342Y41277900D01*
X29012768Y41333751D01*
X29101001Y41442215D01*
X29217855Y41585972D01*
X29359563Y41760384D01*
X29522358Y41960809D01*
X29702473Y42182609D01*
X29896141Y42421142D01*
X30099595Y42671769D01*
X30309068Y42929851D01*
X30520792Y43190747D01*
X30731001Y43449817D01*
X30935927Y43702421D01*
X31018674Y43804434D01*
X31358358Y44223190D01*
X31688884Y44630582D01*
X32007222Y45022880D01*
X32310347Y45396356D01*
X32595231Y45747281D01*
X32858848Y46071925D01*
X33098169Y46366559D01*
X33310168Y46627455D01*
X33434751Y46780708D01*
X33564397Y46940348D01*
X33686562Y47091143D01*
X33796653Y47227394D01*
X33890076Y47343402D01*
X33962235Y47433467D01*
X34008537Y47491892D01*
X34019566Y47506148D01*
X34089607Y47598485D01*
X33183435Y47616070D01*
X32991728Y47619637D01*
X32756341Y47623764D01*
X32485004Y47628328D01*
X32185449Y47633207D01*
X31865409Y47638278D01*
X31532614Y47643418D01*
X31194797Y47648505D01*
X30859689Y47653417D01*
X30554794Y47657754D01*
X30238144Y47662267D01*
X29918461Y47666980D01*
X29602481Y47671784D01*
X29296939Y47676569D01*
X29008570Y47681227D01*
X28744111Y47685648D01*
X28510296Y47689725D01*
X28313861Y47693347D01*
X28161542Y47696405D01*
X28151049Y47696632D01*
X27469774Y47711411D01*
X27305414Y47503509D01*
X27251437Y47436213D01*
X27169399Y47335233D01*
X27064107Y47206427D01*
X26940368Y47055650D01*
X26802988Y46888759D01*
X26656775Y46711611D01*
X26506535Y46530061D01*
X26495596Y46516862D01*
X26319087Y46303840D01*
X26123426Y46067594D01*
X25918059Y45819537D01*
X25712432Y45571081D01*
X25515991Y45333640D01*
X25338183Y45118626D01*
X25258843Y45022641D01*
X25094756Y44824098D01*
X24945031Y44642945D01*
X24804173Y44472533D01*
X24666684Y44306214D01*
X24527068Y44137341D01*
X24379829Y43959266D01*
X24219471Y43765341D01*
X24040498Y43548917D01*
X23837413Y43303349D01*
X23707448Y43146200D01*
X23603803Y43020906D01*
X23476482Y42867033D01*
X23334604Y42695602D01*
X23187291Y42517634D01*
X23043663Y42344148D01*
X22971764Y42257315D01*
X22827793Y42083415D01*
X22662087Y41883199D01*
X22485664Y41669986D01*
X22309545Y41457093D01*
X22144748Y41257839D01*
X22058134Y41153089D01*
X21914881Y40979833D01*
X21762852Y40795985D01*
X21610753Y40612072D01*
X21467287Y40438617D01*
X21341158Y40286145D01*
X21261171Y40189468D01*
X21160728Y40068056D01*
X21035069Y39916121D01*
X20891731Y39742778D01*
X20738248Y39557140D01*
X20582156Y39368322D01*
X20430992Y39185438D01*
X20399936Y39147861D01*
X20133030Y38824918D01*
X19870927Y38507806D01*
X19616400Y38199877D01*
X19372221Y37904486D01*
X19141163Y37624986D01*
X18925998Y37364731D01*
X18729499Y37127073D01*
X18554439Y36915367D01*
X18403588Y36732966D01*
X18279721Y36583224D01*
X18185610Y36469493D01*
X18179399Y36461990D01*
X18083397Y36346014D01*
X17963107Y36200695D01*
X17827026Y36036299D01*
X17683651Y35863091D01*
X17541481Y35691336D01*
X17455862Y35587900D01*
X17316652Y35419727D01*
X17168831Y35241161D01*
X17021417Y35063095D01*
X16883428Y34896422D01*
X16763882Y34752036D01*
X16705622Y34681676D01*
X16578159Y34527731D01*
X16432806Y34352156D01*
X16284437Y34172917D01*
X16147926Y34007984D01*
X16099099Y33948983D01*
X15871057Y33673511D01*
X15673602Y33435075D01*
X15504660Y33231001D01*
X15362161Y33058614D01*
X15244030Y32915238D01*
X15148195Y32798199D01*
X15072583Y32704820D01*
X15015122Y32632426D01*
X14973739Y32578343D01*
X14946361Y32539895D01*
X14930916Y32514407D01*
X14925330Y32499204D01*
X13825715Y32499204D01*
X13824313Y32535575D01*
X14141605Y32917709D01*
X14394611Y33222492D01*
X14624141Y33499163D01*
X14838388Y33757620D01*
X15045548Y34007764D01*
X15253815Y34259494D01*
X15471385Y34522708D01*
X15706452Y34807307D01*
X15926389Y35073730D01*
X16102361Y35286900D01*
X16287648Y35511291D01*
X16475523Y35738760D01*
X16659257Y35961162D01*
X16832121Y36170354D01*
X16987388Y36358190D01*
X17118329Y36516527D01*
X17146233Y36550257D01*
X17250860Y36676711D01*
X17346538Y36792353D01*
X17436858Y36901524D01*
X17525411Y37008567D01*
X17615789Y37117822D01*
X17711582Y37233632D01*
X17816382Y37360338D01*
X17933779Y37502283D01*
X18067365Y37663807D01*
X18220731Y37849253D01*
X18397469Y38062963D01*
X18601169Y38309277D01*
X18741737Y38479255D01*
X18895916Y38665672D01*
X19068833Y38874718D01*
X19249203Y39092750D01*
X19425741Y39306127D01*
X19587162Y39501208D01*
X19667244Y39597977D01*
X19806692Y39766506D01*
X19969136Y39962880D01*
X20144824Y40175308D01*
X20324004Y40391996D01*
X20496922Y40601152D01*
X20646949Y40782660D01*
X20786964Y40952055D01*
X20952152Y41151862D01*
X21134905Y41372881D01*
X21327613Y41605913D01*
X21522670Y41841757D01*
X21712466Y42071213D01*
X21889299Y42284965D01*
X22042440Y42470077D01*
X22188220Y42646318D01*
X22322764Y42809001D01*
X22442198Y42953440D01*
X22542645Y43074947D01*
X22620230Y43168836D01*
X22671079Y43230420D01*
X22686419Y43249034D01*
X22724335Y43295061D01*
X22778421Y43360591D01*
X22851002Y43448434D01*
X22944401Y43561401D01*
X23060943Y43702302D01*
X23202950Y43873946D01*
X23372748Y44079144D01*
X23572660Y44320705D01*
X23605948Y44360927D01*
X23731026Y44512067D01*
X23874703Y44685701D01*
X24022809Y44864704D01*
X24161173Y45031947D01*
X24222824Y45106473D01*
X24342672Y45251345D01*
X24471614Y45407192D01*
X24598158Y45560126D01*
X24710814Y45696259D01*
X24770578Y45768467D01*
X24853271Y45868380D01*
X24961061Y45998628D01*
X25086267Y46149929D01*
X25221208Y46313003D01*
X25358204Y46478567D01*
X25453105Y46593263D01*
X25584485Y46752048D01*
X25740154Y46940183D01*
X25911618Y47147404D01*
X26090386Y47363448D01*
X26267964Y47578052D01*
X26435861Y47780953D01*
X26491772Y47848520D01*
X27081989Y48561775D01*
X27995719Y48546405D01*
G37*
%TD*%
%LPC*%
D12*
%TO.C,MX11*%
X33019952Y28575168D03*
D13*
X34289952Y31115168D03*
D14*
X38099952Y28575168D03*
D13*
X40639952Y33655168D03*
D12*
X43179952Y28575168D03*
%TD*%
%TO.C,MX33*%
X147320048Y28575247D03*
D13*
X148590048Y31115247D03*
D14*
X152400048Y28575247D03*
D13*
X154940048Y33655247D03*
D12*
X157480048Y28575247D03*
%TD*%
%TO.C,MX21*%
X99695040Y47625263D03*
D13*
X100965040Y50165263D03*
D14*
X104775040Y47625263D03*
D13*
X107315040Y52705263D03*
D12*
X109855040Y47625263D03*
%TD*%
%TO.C,MX3*%
X9207432Y28575168D03*
D13*
X10477432Y31115168D03*
D14*
X14287432Y28575168D03*
D13*
X16827432Y33655168D03*
D12*
X19367432Y28575168D03*
%TD*%
%TO.C,MX7*%
X23495040Y47625263D03*
D13*
X24765040Y50165263D03*
D14*
X28575040Y47625263D03*
D13*
X31115040Y52705263D03*
D12*
X33655040Y47625263D03*
%TD*%
%TO.C,MX8*%
X23495024Y9525168D03*
D13*
X24765024Y12065168D03*
D14*
X28575024Y9525168D03*
D13*
X31115024Y14605168D03*
D12*
X33655024Y9525168D03*
%TD*%
%TO.C,MX12*%
X42545024Y9525168D03*
D13*
X43815024Y12065168D03*
D14*
X47625024Y9525168D03*
D13*
X50165024Y14605168D03*
D12*
X52705024Y9525168D03*
%TD*%
%TO.C,MX15*%
X52070048Y28575247D03*
D13*
X53340048Y31115247D03*
D14*
X57150048Y28575247D03*
D13*
X59690048Y33655247D03*
D12*
X62230048Y28575247D03*
%TD*%
%TO.C,MX24*%
X118745024Y66675168D03*
D13*
X120015024Y69215168D03*
D14*
X123825024Y66675168D03*
D13*
X126365024Y71755168D03*
D12*
X128905024Y66675168D03*
%TD*%
D14*
%TO.C,MX27*%
X102362024Y17780168D03*
D15*
X102362024Y2540168D03*
D12*
X109220024Y9525168D03*
D13*
X110490024Y12065168D03*
D14*
X114300024Y9525168D03*
D13*
X116840024Y14605168D03*
D12*
X119380024Y9525168D03*
D14*
X126238024Y17780168D03*
D15*
X126238024Y2540168D03*
%TD*%
D12*
%TO.C,MX6*%
X23495024Y66675168D03*
D13*
X24765024Y69215168D03*
D14*
X28575024Y66675168D03*
D13*
X31115024Y71755168D03*
D12*
X33655024Y66675168D03*
%TD*%
%TO.C,MX14*%
X61595040Y47625263D03*
D13*
X62865040Y50165263D03*
D14*
X66675040Y47625263D03*
D13*
X69215040Y52705263D03*
D12*
X71755040Y47625263D03*
%TD*%
%TO.C,MX37*%
X171132568Y28575247D03*
D13*
X172402568Y31115247D03*
D14*
X176212568Y28575247D03*
D13*
X178752568Y33655247D03*
D12*
X181292568Y28575247D03*
%TD*%
%TO.C,MX29*%
X137795040Y47625263D03*
D13*
X139065040Y50165263D03*
D14*
X142875040Y47625263D03*
D13*
X145415040Y52705263D03*
D12*
X147955040Y47625263D03*
%TD*%
%TO.C,MX16*%
X90805024Y66675168D03*
D13*
X89535024Y64135168D03*
D14*
X85725024Y66675168D03*
D13*
X83185024Y61595168D03*
D12*
X80645024Y66675168D03*
%TD*%
%TO.C,MX17*%
X80645040Y47625263D03*
D13*
X81915040Y50165263D03*
D14*
X85725040Y47625263D03*
D13*
X88265040Y52705263D03*
D12*
X90805040Y47625263D03*
%TD*%
%TO.C,MX13*%
X61595024Y66675168D03*
D13*
X62865024Y69215168D03*
D14*
X66675024Y66675168D03*
D13*
X69215024Y71755168D03*
D12*
X71755024Y66675168D03*
%TD*%
D14*
%TO.C,MX23*%
X28575240Y17780024D03*
D15*
X28575240Y2540024D03*
D14*
X38100240Y17780024D03*
D15*
X38100240Y2540024D03*
D14*
X47625240Y17780024D03*
D15*
X47625240Y2540024D03*
D14*
X66675240Y17780024D03*
D15*
X66675240Y2540024D03*
D12*
X90170240Y9525024D03*
D13*
X91440240Y12065024D03*
D14*
X95250240Y9525024D03*
D13*
X97790240Y14605024D03*
D12*
X100330240Y9525024D03*
D14*
X123825240Y17780024D03*
D15*
X123825240Y2540024D03*
D14*
X142875240Y17780024D03*
D15*
X142875240Y2540024D03*
D14*
X152400240Y17780024D03*
D15*
X152400240Y2540024D03*
D14*
X161925240Y17780024D03*
D15*
X161925240Y2540024D03*
%TD*%
D12*
%TO.C,MX26*%
X109220048Y28575247D03*
D13*
X110490048Y31115247D03*
D14*
X114300048Y28575247D03*
D13*
X116840048Y33655247D03*
D12*
X119380048Y28575247D03*
%TD*%
%TO.C,MX18*%
X71120048Y28575247D03*
D13*
X72390048Y31115247D03*
D14*
X76200048Y28575247D03*
D13*
X78740048Y33655247D03*
D12*
X81280048Y28575247D03*
%TD*%
%TO.C,MX38*%
X175895024Y9525168D03*
D13*
X177165024Y12065168D03*
D14*
X180975024Y9525168D03*
D13*
X183515024Y14605168D03*
D12*
X186055024Y9525168D03*
%TD*%
%TO.C,MX2*%
X4444928Y47625263D03*
D13*
X5714928Y50165263D03*
D14*
X9524928Y47625263D03*
D13*
X12064928Y52705263D03*
D12*
X14604928Y47625263D03*
%TD*%
%TO.C,MX35*%
X175895024Y66675168D03*
D13*
X177165024Y69215168D03*
D14*
X180975024Y66675168D03*
D13*
X183515024Y71755168D03*
D12*
X186055024Y66675168D03*
%TD*%
%TO.C,MX5*%
X156845056Y47625263D03*
D13*
X158115056Y50165263D03*
D14*
X161925056Y47625263D03*
D13*
X164465056Y52705263D03*
D12*
X167005056Y47625263D03*
%TD*%
%TO.C,MX1*%
X4445024Y66675168D03*
D13*
X5715024Y69215168D03*
D14*
X9525024Y66675168D03*
D13*
X12065024Y71755168D03*
D12*
X14605024Y66675168D03*
%TD*%
D16*
%TO.C,J2*%
X2381172Y33650247D03*
D17*
X2381172Y31110247D03*
X2381172Y28570247D03*
X2381172Y26030247D03*
X2381172Y23490247D03*
%TD*%
D12*
%TO.C,MX36*%
X175895072Y47625263D03*
D13*
X177165072Y50165263D03*
D14*
X180975072Y47625263D03*
D13*
X183515072Y52705263D03*
D12*
X186055072Y47625263D03*
%TD*%
%TO.C,MX28*%
X137795024Y66675168D03*
D13*
X139065024Y69215168D03*
D14*
X142875024Y66675168D03*
D13*
X145415024Y71755168D03*
D12*
X147955024Y66675168D03*
%TD*%
D14*
%TO.C,MX19*%
X64262024Y17780168D03*
D15*
X64262024Y2540168D03*
D12*
X71120024Y9525168D03*
D13*
X72390024Y12065168D03*
D14*
X76200024Y9525168D03*
D13*
X78740024Y14605168D03*
D12*
X81280024Y9525168D03*
D14*
X88138024Y17780168D03*
D15*
X88138024Y2540168D03*
%TD*%
D12*
%TO.C,MX4*%
X4445024Y9525168D03*
D13*
X5715024Y12065168D03*
D14*
X9525024Y9525168D03*
D13*
X12065024Y14605168D03*
D12*
X14605024Y9525168D03*
%TD*%
%TO.C,MX32*%
X156845024Y66675168D03*
D13*
X158115024Y69215168D03*
D14*
X161925024Y66675168D03*
D13*
X164465024Y71755168D03*
D12*
X167005024Y66675168D03*
%TD*%
%TO.C,MX31*%
X137795024Y9525168D03*
D13*
X139065024Y12065168D03*
D14*
X142875024Y9525168D03*
D13*
X145415024Y14605168D03*
D12*
X147955024Y9525168D03*
%TD*%
%TO.C,MX9*%
X42545024Y66675168D03*
D13*
X43815024Y69215168D03*
D14*
X47625024Y66675168D03*
D13*
X50165024Y71755168D03*
D12*
X52705024Y66675168D03*
%TD*%
%TO.C,MX34*%
X156845024Y9525168D03*
D13*
X158115024Y12065168D03*
D14*
X161925024Y9525168D03*
D13*
X164465024Y14605168D03*
D12*
X167005024Y9525168D03*
%TD*%
%TO.C,MX22*%
X90170048Y28575247D03*
D13*
X91440048Y31115247D03*
D14*
X95250048Y28575247D03*
D13*
X97790048Y33655247D03*
D12*
X100330048Y28575247D03*
%TD*%
%TO.C,MX30*%
X128270048Y28575247D03*
D13*
X129540048Y31115247D03*
D14*
X133350048Y28575247D03*
D13*
X135890048Y33655247D03*
D12*
X138430048Y28575247D03*
%TD*%
%TO.C,MX20*%
X109855024Y66675168D03*
D13*
X108585024Y64135168D03*
D14*
X104775024Y66675168D03*
D13*
X102235024Y61595168D03*
D12*
X99695024Y66675168D03*
%TD*%
%TO.C,MX10*%
X42545040Y47625263D03*
D13*
X43815040Y50165263D03*
D14*
X47625040Y47625263D03*
D13*
X50165040Y52705263D03*
D12*
X52705040Y47625263D03*
%TD*%
%TO.C,MX25*%
X118745040Y47625263D03*
D13*
X120015040Y50165263D03*
D14*
X123825040Y47625263D03*
D13*
X126365040Y52705263D03*
D12*
X128905040Y47625263D03*
%TD*%
D18*
%TO.C,J3*%
X92360240Y71516593D03*
X98140240Y71516593D03*
D19*
X90930240Y75166593D03*
D20*
X90930240Y70986593D03*
D19*
X99570240Y75166593D03*
D20*
X99570240Y70986593D03*
%TD*%
%LPD*%
M02*
