M48
; DRILL file {KiCad 7.0.6} date Sun Oct 22 23:34:18 2023
; FORMAT={-:-/ absolute / metric / decimal}
; #@! TF.CreationDate,2023-10-22T23:34:18-04:00
; #@! TF.GenerationSoftware,Kicad,Pcbnew,7.0.6
; #@! TF.FileFunction,Plated,1,2,PTH
FMAT,2
METRIC
; #@! TA.AperFunction,Plated,PTH,ComponentDrill
T1C0.300
; #@! TA.AperFunction,Plated,PTH,ViaDrill
T2C0.350
; #@! TA.AperFunction,Plated,PTH,ViaDrill
T3C0.400
; #@! TA.AperFunction,Plated,PTH,ComponentDrill
T4C0.400
; #@! TA.AperFunction,Plated,PTH,ComponentDrill
T5C0.600
; #@! TA.AperFunction,Plated,PTH,ComponentDrill
T6C1.000
; #@! TA.AperFunction,Plated,PTH,ComponentDrill
T7C1.470
%
G90
G05
T1
X60.11Y9.227
X61.011Y10.129
X61.011Y8.326
X61.913Y11.03
X61.913Y9.227
X61.913Y7.424
X62.814Y10.129
X62.814Y8.326
X63.716Y9.227
T2
X64.294Y15.151
X65.336Y15.151
X66.378Y15.151
T3
X20.494Y24.581
X20.494Y18.281
X51.197Y1.786
X52.388Y1.786
X53.975Y3.87
X53.98Y0.893
X55.067Y8.334
X55.777Y16.073
X56.257Y2.381
X56.737Y14.883
X56.737Y13.692
X57.745Y19.645
X58.043Y3.87
X59.234Y13.692
X61.913Y13.99
X64.889Y5.655
X66.675Y25.003
X66.703Y26.299
X66.703Y22.622
X66.703Y21.431
X67.866Y22.622
X67.866Y9.823
X68.461Y5.358
X69.056Y21.431
X72.926Y9.525
X72.926Y8.334
X76.2Y64.125
X76.796Y4.167
X81.558Y74.712
X81.558Y53.578
X81.856Y1.786
X82.451Y74.712
X84.237Y4.167
X92.0Y68.461
X94.655Y66.675
X96.739Y61.595
X97.0Y65.782
X101.203Y68.461
T4
X2.413Y50.927
X2.413Y49.403
X2.413Y69.977
X2.413Y68.453
X2.413Y12.827
X2.413Y11.303
X7.202Y31.877
X7.202Y30.353
X15.367Y53.467
X15.367Y51.943
X15.367Y72.517
X15.367Y70.993
X15.367Y15.367
X15.367Y13.843
X20.129Y34.417
X20.129Y32.893
X21.463Y69.977
X21.463Y68.453
X21.463Y12.827
X21.463Y11.303
X21.463Y50.927
X21.463Y49.403
X30.988Y31.877
X30.988Y30.353
X34.417Y72.517
X34.417Y70.993
X34.417Y15.367
X34.417Y13.843
X34.417Y53.467
X34.417Y51.943
X40.513Y69.977
X40.513Y68.453
X40.513Y12.827
X40.513Y11.303
X40.513Y50.927
X40.513Y49.403
X43.942Y34.417
X43.942Y32.893
X50.038Y31.877
X50.038Y30.353
X53.467Y72.517
X53.467Y70.993
X53.467Y15.367
X53.467Y13.843
X53.467Y53.467
X53.467Y51.943
X59.563Y69.977
X59.563Y68.453
X59.563Y50.927
X59.563Y49.403
X62.992Y34.417
X62.992Y32.893
X69.088Y12.827
X69.088Y11.303
X69.088Y31.877
X69.088Y30.353
X72.517Y72.517
X72.517Y70.993
X72.517Y53.467
X72.517Y51.943
X78.613Y50.927
X78.613Y49.403
X79.883Y62.357
X79.883Y60.833
X82.042Y15.367
X82.042Y13.843
X82.042Y34.417
X82.042Y32.893
X88.138Y31.877
X88.138Y30.353
X88.138Y12.827
X88.138Y11.303
X91.567Y53.467
X91.567Y51.943
X92.837Y64.897
X92.837Y63.373
X97.663Y50.927
X97.663Y49.403
X98.933Y62.357
X98.933Y60.833
X101.092Y34.417
X101.092Y32.893
X101.092Y13.843
X107.188Y12.827
X107.188Y11.303
X107.188Y31.877
X107.188Y30.353
X110.617Y53.467
X110.617Y51.943
X111.887Y64.897
X111.887Y63.373
X116.713Y69.977
X116.713Y68.453
X116.713Y50.927
X116.713Y49.403
X120.142Y15.367
X120.142Y13.843
X120.142Y34.417
X120.142Y32.893
X126.238Y31.877
X126.238Y30.353
X129.667Y72.517
X129.667Y70.993
X129.667Y53.467
X129.667Y51.943
X135.763Y69.977
X135.763Y68.453
X135.763Y12.827
X135.763Y11.303
X135.763Y50.927
X135.763Y49.403
X139.192Y34.417
X139.192Y32.893
X145.288Y31.877
X145.288Y30.353
X148.717Y72.517
X148.717Y70.993
X148.717Y15.367
X148.717Y13.843
X148.717Y53.467
X148.717Y51.943
X154.813Y69.977
X154.813Y68.453
X154.813Y12.827
X154.813Y11.303
X154.813Y50.927
X154.813Y49.403
X158.242Y34.417
X158.242Y32.893
X167.767Y72.517
X167.767Y70.993
X167.767Y15.367
X167.767Y13.843
X167.767Y53.467
X167.767Y51.943
X169.128Y31.877
X169.128Y30.353
X173.863Y69.977
X173.863Y68.453
X173.863Y12.827
X173.863Y11.303
X173.863Y50.927
X173.863Y49.403
X182.055Y34.417
X182.055Y32.893
X186.817Y72.517
X186.817Y70.993
X186.817Y15.367
X186.817Y13.843
X186.817Y53.467
X186.817Y51.943
T6
X2.381Y33.65
X2.381Y31.11
X2.381Y28.57
X2.381Y26.03
X2.381Y23.49
T7
X7.025Y43.125
X11.787Y24.075
X12.025Y43.625
X12.025Y62.675
X12.025Y5.525
X13.335Y64.135
X13.335Y6.985
X16.787Y24.575
X26.075Y62.175
X26.075Y5.025
X26.075Y43.125
X31.075Y62.675
X31.075Y5.525
X31.075Y43.625
X35.6Y24.075
X40.6Y24.575
X45.125Y62.175
X45.125Y5.025
X45.125Y43.125
X50.125Y62.675
X50.125Y5.525
X50.125Y43.625
X54.65Y24.075
X59.65Y24.575
X64.175Y62.175
X64.175Y43.125
X69.175Y62.675
X69.175Y43.625
X73.7Y5.025
X73.7Y24.075
X78.7Y5.525
X78.7Y24.575
X83.225Y70.675
X83.225Y43.125
X88.225Y71.175
X88.225Y43.625
X92.75Y24.075
X92.75Y5.025
X97.75Y24.575
X97.75Y5.525
X102.275Y70.675
X102.275Y43.125
X107.275Y71.175
X107.275Y43.625
X111.8Y5.025
X111.8Y24.075
X116.8Y5.525
X116.8Y24.575
X121.325Y62.175
X121.325Y43.125
X126.325Y62.675
X126.325Y43.625
X130.85Y24.075
X135.85Y24.575
X140.375Y62.175
X140.375Y5.025
X140.375Y43.125
X145.375Y62.675
X145.375Y5.525
X145.375Y43.625
X149.9Y24.075
X154.9Y24.575
X159.425Y62.175
X159.425Y5.025
X159.425Y43.125
X164.425Y62.675
X164.425Y5.525
X164.425Y43.625
X173.713Y24.075
X178.475Y43.125
X178.713Y24.575
X183.475Y62.675
X183.475Y5.525
X183.475Y43.625
X184.785Y64.135
X184.785Y6.985
T5
G00X90.93Y75.467
M15
G01X90.93Y74.867
M16
G05
G00X90.93Y71.537
M15
G01X90.93Y70.437
M16
G05
G00X99.57Y75.467
M15
G01X99.57Y74.867
M16
G05
G00X99.57Y71.537
M15
G01X99.57Y70.437
M16
G05
T7
G00X7.025Y62.172
M15
G01X6.985Y61.593
M16
G05
G00X7.025Y5.022
M15
G01X6.985Y4.443
M16
G05
G00X178.475Y62.172
M15
G01X178.435Y61.593
M16
G05
G00X178.475Y5.022
M15
G01X178.435Y4.443
M16
G05
T0
M30
