%TF.GenerationSoftware,KiCad,Pcbnew,7.0.6*%
%TF.CreationDate,2023-10-22T23:34:03-04:00*%
%TF.ProjectId,good-delivery-alpha-stagger,676f6f64-2d64-4656-9c69-766572792d61,rev?*%
%TF.SameCoordinates,PX2d6b3a0PY7e9ae4e*%
%TF.FileFunction,Soldermask,Bot*%
%TF.FilePolarity,Negative*%
%FSLAX46Y46*%
G04 Gerber Fmt 4.6, Leading zero omitted, Abs format (unit mm)*
G04 Created by KiCad (PCBNEW 7.0.6) date 2023-10-22 23:34:03*
%MOMM*%
%LPD*%
G01*
G04 APERTURE LIST*
G04 Aperture macros list*
%AMRoundRect*
0 Rectangle with rounded corners*
0 $1 Rounding radius*
0 $2 $3 $4 $5 $6 $7 $8 $9 X,Y pos of 4 corners*
0 Add a 4 corners polygon primitive as box body*
4,1,4,$2,$3,$4,$5,$6,$7,$8,$9,$2,$3,0*
0 Add four circle primitives for the rounded corners*
1,1,$1+$1,$2,$3*
1,1,$1+$1,$4,$5*
1,1,$1+$1,$6,$7*
1,1,$1+$1,$8,$9*
0 Add four rect primitives between the rounded corners*
20,1,$1+$1,$2,$3,$4,$5,0*
20,1,$1+$1,$4,$5,$6,$7,0*
20,1,$1+$1,$6,$7,$8,$9,0*
20,1,$1+$1,$8,$9,$2,$3,0*%
%AMHorizOval*
0 Thick line with rounded ends*
0 $1 width*
0 $2 $3 position (X,Y) of the first rounded end (center of the circle)*
0 $4 $5 position (X,Y) of the second rounded end (center of the circle)*
0 Add line between two ends*
20,1,$1,$2,$3,$4,$5,0*
0 Add two circle primitives to create the rounded ends*
1,1,$1,$2,$3*
1,1,$1,$4,$5*%
%AMOutline5P*
0 Free polygon, 5 corners , with rotation*
0 The origin of the aperture is its center*
0 number of corners: always 5*
0 $1 to $10 corner X, Y*
0 $11 Rotation angle, in degrees counterclockwise*
0 create outline with 5 corners*
4,1,5,$1,$2,$3,$4,$5,$6,$7,$8,$9,$10,$1,$2,$11*%
%AMOutline6P*
0 Free polygon, 6 corners , with rotation*
0 The origin of the aperture is its center*
0 number of corners: always 6*
0 $1 to $12 corner X, Y*
0 $13 Rotation angle, in degrees counterclockwise*
0 create outline with 6 corners*
4,1,6,$1,$2,$3,$4,$5,$6,$7,$8,$9,$10,$11,$12,$1,$2,$13*%
%AMOutline7P*
0 Free polygon, 7 corners , with rotation*
0 The origin of the aperture is its center*
0 number of corners: always 7*
0 $1 to $14 corner X, Y*
0 $15 Rotation angle, in degrees counterclockwise*
0 create outline with 7 corners*
4,1,7,$1,$2,$3,$4,$5,$6,$7,$8,$9,$10,$11,$12,$13,$14,$1,$2,$15*%
%AMOutline8P*
0 Free polygon, 8 corners , with rotation*
0 The origin of the aperture is its center*
0 number of corners: always 8*
0 $1 to $16 corner X, Y*
0 $17 Rotation angle, in degrees counterclockwise*
0 create outline with 8 corners*
4,1,8,$1,$2,$3,$4,$5,$6,$7,$8,$9,$10,$11,$12,$13,$14,$15,$16,$1,$2,$17*%
G04 Aperture macros list end*
%ADD10C,1.750000*%
%ADD11C,3.000000*%
%ADD12C,3.987800*%
%ADD13R,2.550000X2.500000*%
%ADD14C,2.250000*%
%ADD15C,3.048000*%
%ADD16R,2.550000X2.250000*%
%ADD17HorizOval,2.250000X-0.020009X-0.290000X0.020009X0.290000X0*%
%ADD18HorizOval,2.250000X-0.655008X-0.729993X0.655008X0.729993X0*%
%ADD19Outline5P,-1.275000X1.250000X0.575000X1.250000X1.275000X0.550000X1.275000X-1.250000X-1.275000X-1.250000X0.000000*%
%ADD20R,1.700000X1.700000*%
%ADD21O,1.700000X1.700000*%
%ADD22RoundRect,0.135000X-0.226274X-0.035355X-0.035355X-0.226274X0.226274X0.035355X0.035355X0.226274X0*%
%ADD23RoundRect,0.135000X-0.185000X0.135000X-0.185000X-0.135000X0.185000X-0.135000X0.185000X0.135000X0*%
%ADD24RoundRect,0.140000X0.021213X-0.219203X0.219203X-0.021213X-0.021213X0.219203X-0.219203X0.021213X0*%
%ADD25C,0.650000*%
%ADD26R,0.600000X1.450000*%
%ADD27R,0.300000X1.450000*%
%ADD28O,1.000000X1.600000*%
%ADD29O,1.000000X2.100000*%
%ADD30RoundRect,0.140000X-0.170000X0.140000X-0.170000X-0.140000X0.170000X-0.140000X0.170000X0.140000X0*%
%ADD31RoundRect,0.150000X0.150000X-0.587500X0.150000X0.587500X-0.150000X0.587500X-0.150000X-0.587500X0*%
%ADD32RoundRect,0.140000X0.140000X0.170000X-0.140000X0.170000X-0.140000X-0.170000X0.140000X-0.170000X0*%
%ADD33RoundRect,0.150000X0.587500X0.150000X-0.587500X0.150000X-0.587500X-0.150000X0.587500X-0.150000X0*%
%ADD34RoundRect,0.200000X-0.275000X0.200000X-0.275000X-0.200000X0.275000X-0.200000X0.275000X0.200000X0*%
%ADD35RoundRect,0.218750X0.218750X0.256250X-0.218750X0.256250X-0.218750X-0.256250X0.218750X-0.256250X0*%
%ADD36RoundRect,0.140000X-0.140000X-0.170000X0.140000X-0.170000X0.140000X0.170000X-0.140000X0.170000X0*%
%ADD37RoundRect,0.140000X0.170000X-0.140000X0.170000X0.140000X-0.170000X0.140000X-0.170000X-0.140000X0*%
%ADD38RoundRect,0.050000X0.309359X-0.238649X-0.238649X0.309359X-0.309359X0.238649X0.238649X-0.309359X0*%
%ADD39RoundRect,0.050000X0.309359X0.238649X0.238649X0.309359X-0.309359X-0.238649X-0.238649X-0.309359X0*%
%ADD40RoundRect,0.144000X2.059095X0.000000X0.000000X2.059095X-2.059095X0.000000X0.000000X-2.059095X0*%
%ADD41RoundRect,0.135000X-0.035355X0.226274X-0.226274X0.035355X0.035355X-0.226274X0.226274X-0.035355X0*%
%ADD42R,1.000000X1.700000*%
%ADD43RoundRect,0.135000X0.035355X-0.226274X0.226274X-0.035355X-0.035355X0.226274X-0.226274X0.035355X0*%
%ADD44RoundRect,0.112500X0.112500X-0.187500X0.112500X0.187500X-0.112500X0.187500X-0.112500X-0.187500X0*%
%ADD45RoundRect,0.135000X-0.135000X-0.185000X0.135000X-0.185000X0.135000X0.185000X-0.135000X0.185000X0*%
%ADD46RoundRect,0.150000X0.650000X0.150000X-0.650000X0.150000X-0.650000X-0.150000X0.650000X-0.150000X0*%
%ADD47RoundRect,0.140000X-0.021213X0.219203X-0.219203X0.021213X0.021213X-0.219203X0.219203X-0.021213X0*%
%ADD48R,1.400000X1.200000*%
%ADD49RoundRect,0.147500X0.172500X-0.147500X0.172500X0.147500X-0.172500X0.147500X-0.172500X-0.147500X0*%
%ADD50RoundRect,0.147500X0.147500X0.172500X-0.147500X0.172500X-0.147500X-0.172500X0.147500X-0.172500X0*%
G04 APERTURE END LIST*
D10*
%TO.C,MX11*%
X33019952Y28575168D03*
D11*
X34289952Y31115168D03*
D12*
X38099952Y28575168D03*
D11*
X40639952Y33655168D03*
D10*
X43179952Y28575168D03*
D13*
X31014952Y31115168D03*
D14*
X35599952Y24075168D03*
X40599952Y24575168D03*
D13*
X43941952Y33655168D03*
%TD*%
D10*
%TO.C,MX33*%
X147320048Y28575247D03*
D11*
X148590048Y31115247D03*
D12*
X152400048Y28575247D03*
D11*
X154940048Y33655247D03*
D10*
X157480048Y28575247D03*
D13*
X145315048Y31115247D03*
D14*
X149900048Y24075247D03*
X154900048Y24575247D03*
D13*
X158242048Y33655247D03*
%TD*%
D10*
%TO.C,MX21*%
X99695040Y47625263D03*
D11*
X100965040Y50165263D03*
D12*
X104775040Y47625263D03*
D11*
X107315040Y52705263D03*
D10*
X109855040Y47625263D03*
D13*
X97690040Y50165263D03*
D14*
X102275040Y43125263D03*
X107275040Y43625263D03*
D13*
X110617040Y52705263D03*
%TD*%
D10*
%TO.C,MX3*%
X9207432Y28575168D03*
D11*
X10477432Y31115168D03*
D12*
X14287432Y28575168D03*
D11*
X16827432Y33655168D03*
D10*
X19367432Y28575168D03*
D13*
X7202432Y31115168D03*
D14*
X11787432Y24075168D03*
X16787432Y24575168D03*
D13*
X20129432Y33655168D03*
%TD*%
D10*
%TO.C,MX7*%
X23495040Y47625263D03*
D11*
X24765040Y50165263D03*
D12*
X28575040Y47625263D03*
D11*
X31115040Y52705263D03*
D10*
X33655040Y47625263D03*
D13*
X21490040Y50165263D03*
D14*
X26075040Y43125263D03*
X31075040Y43625263D03*
D13*
X34417040Y52705263D03*
%TD*%
D10*
%TO.C,MX8*%
X23495024Y9525168D03*
D11*
X24765024Y12065168D03*
D12*
X28575024Y9525168D03*
D11*
X31115024Y14605168D03*
D10*
X33655024Y9525168D03*
D13*
X21490024Y12065168D03*
D14*
X26075024Y5025168D03*
X31075024Y5525168D03*
D13*
X34417024Y14605168D03*
%TD*%
D10*
%TO.C,MX12*%
X42545024Y9525168D03*
D11*
X43815024Y12065168D03*
D12*
X47625024Y9525168D03*
D11*
X50165024Y14605168D03*
D10*
X52705024Y9525168D03*
D13*
X40540024Y12065168D03*
D14*
X45125024Y5025168D03*
X50125024Y5525168D03*
D13*
X53467024Y14605168D03*
%TD*%
D10*
%TO.C,MX15*%
X52070048Y28575247D03*
D11*
X53340048Y31115247D03*
D12*
X57150048Y28575247D03*
D11*
X59690048Y33655247D03*
D10*
X62230048Y28575247D03*
D13*
X50065048Y31115247D03*
D14*
X54650048Y24075247D03*
X59650048Y24575247D03*
D13*
X62992048Y33655247D03*
%TD*%
D10*
%TO.C,MX24*%
X118745024Y66675168D03*
D11*
X120015024Y69215168D03*
D12*
X123825024Y66675168D03*
D11*
X126365024Y71755168D03*
D10*
X128905024Y66675168D03*
D13*
X116740024Y69215168D03*
D14*
X121325024Y62175168D03*
X126325024Y62675168D03*
D13*
X129667024Y71755168D03*
%TD*%
D12*
%TO.C,MX27*%
X102362024Y17780168D03*
D15*
X102362024Y2540168D03*
D10*
X109220024Y9525168D03*
D11*
X110490024Y12065168D03*
D12*
X114300024Y9525168D03*
D11*
X116840024Y14605168D03*
D10*
X119380024Y9525168D03*
D12*
X126238024Y17780168D03*
D15*
X126238024Y2540168D03*
D13*
X107215024Y12065168D03*
D14*
X111800024Y5025168D03*
X116800024Y5525168D03*
D13*
X120142024Y14605168D03*
%TD*%
D10*
%TO.C,MX6*%
X23495024Y66675168D03*
D11*
X24765024Y69215168D03*
D12*
X28575024Y66675168D03*
D11*
X31115024Y71755168D03*
D10*
X33655024Y66675168D03*
D13*
X21490024Y69215168D03*
D14*
X26075024Y62175168D03*
X31075024Y62675168D03*
D13*
X34417024Y71755168D03*
%TD*%
D10*
%TO.C,MX14*%
X61595040Y47625263D03*
D11*
X62865040Y50165263D03*
D12*
X66675040Y47625263D03*
D11*
X69215040Y52705263D03*
D10*
X71755040Y47625263D03*
D13*
X59590040Y50165263D03*
D14*
X64175040Y43125263D03*
X69175040Y43625263D03*
D13*
X72517040Y52705263D03*
%TD*%
D10*
%TO.C,MX37*%
X171132568Y28575247D03*
D11*
X172402568Y31115247D03*
D12*
X176212568Y28575247D03*
D11*
X178752568Y33655247D03*
D10*
X181292568Y28575247D03*
D13*
X169127568Y31115247D03*
D14*
X173712568Y24075247D03*
X178712568Y24575247D03*
D13*
X182054568Y33655247D03*
%TD*%
D10*
%TO.C,MX29*%
X137795040Y47625263D03*
D11*
X139065040Y50165263D03*
D12*
X142875040Y47625263D03*
D11*
X145415040Y52705263D03*
D10*
X147955040Y47625263D03*
D13*
X135790040Y50165263D03*
D14*
X140375040Y43125263D03*
X145375040Y43625263D03*
D13*
X148717040Y52705263D03*
%TD*%
D10*
%TO.C,MX16*%
X90805024Y66675168D03*
D11*
X89535024Y64135168D03*
D12*
X85725024Y66675168D03*
D11*
X83185024Y61595168D03*
D10*
X80645024Y66675168D03*
D14*
X83225024Y70675168D03*
D13*
X79883024Y61595168D03*
X92810024Y64135168D03*
D14*
X88225024Y71175168D03*
%TD*%
D10*
%TO.C,MX17*%
X80645040Y47625263D03*
D11*
X81915040Y50165263D03*
D12*
X85725040Y47625263D03*
D11*
X88265040Y52705263D03*
D10*
X90805040Y47625263D03*
D13*
X78640040Y50165263D03*
D14*
X83225040Y43125263D03*
X88225040Y43625263D03*
D13*
X91567040Y52705263D03*
%TD*%
D10*
%TO.C,MX13*%
X61595024Y66675168D03*
D11*
X62865024Y69215168D03*
D12*
X66675024Y66675168D03*
D11*
X69215024Y71755168D03*
D10*
X71755024Y66675168D03*
D13*
X59590024Y69215168D03*
D14*
X64175024Y62175168D03*
X69175024Y62675168D03*
D13*
X72517024Y71755168D03*
%TD*%
D12*
%TO.C,MX23*%
X28575240Y17780024D03*
D15*
X28575240Y2540024D03*
D12*
X38100240Y17780024D03*
D15*
X38100240Y2540024D03*
D12*
X47625240Y17780024D03*
D15*
X47625240Y2540024D03*
D12*
X66675240Y17780024D03*
D15*
X66675240Y2540024D03*
D10*
X90170240Y9525024D03*
D11*
X91440240Y12065024D03*
D12*
X95250240Y9525024D03*
D11*
X97790240Y14605024D03*
D10*
X100330240Y9525024D03*
D12*
X123825240Y17780024D03*
D15*
X123825240Y2540024D03*
D12*
X142875240Y17780024D03*
D15*
X142875240Y2540024D03*
D12*
X152400240Y17780024D03*
D15*
X152400240Y2540024D03*
D12*
X161925240Y17780024D03*
D15*
X161925240Y2540024D03*
D13*
X88165240Y12065024D03*
D14*
X92750240Y5025024D03*
X97750240Y5525024D03*
D16*
X101092240Y14355024D03*
%TD*%
D10*
%TO.C,MX26*%
X109220048Y28575247D03*
D11*
X110490048Y31115247D03*
D12*
X114300048Y28575247D03*
D11*
X116840048Y33655247D03*
D10*
X119380048Y28575247D03*
D13*
X107215048Y31115247D03*
D14*
X111800048Y24075247D03*
X116800048Y24575247D03*
D13*
X120142048Y33655247D03*
%TD*%
D10*
%TO.C,MX18*%
X71120048Y28575247D03*
D11*
X72390048Y31115247D03*
D12*
X76200048Y28575247D03*
D11*
X78740048Y33655247D03*
D10*
X81280048Y28575247D03*
D13*
X69115048Y31115247D03*
D14*
X73700048Y24075247D03*
X78700048Y24575247D03*
D13*
X82042048Y33655247D03*
%TD*%
D10*
%TO.C,MX38*%
X175895024Y9525168D03*
D11*
X177165024Y12065168D03*
D12*
X180975024Y9525168D03*
D11*
X183515024Y14605168D03*
D10*
X186055024Y9525168D03*
D13*
X173890024Y12065168D03*
D17*
X178455024Y4732668D03*
D14*
X183475024Y5525168D03*
D18*
X184130016Y6255175D03*
D13*
X186817024Y14605168D03*
%TD*%
D10*
%TO.C,MX2*%
X4444928Y47625263D03*
D11*
X5714928Y50165263D03*
D12*
X9524928Y47625263D03*
D11*
X12064928Y52705263D03*
D10*
X14604928Y47625263D03*
D13*
X2439928Y50165263D03*
D14*
X7024928Y43125263D03*
X12024928Y43625263D03*
D13*
X15366928Y52705263D03*
%TD*%
D10*
%TO.C,MX35*%
X175895024Y66675168D03*
D11*
X177165024Y69215168D03*
D12*
X180975024Y66675168D03*
D11*
X183515024Y71755168D03*
D10*
X186055024Y66675168D03*
D13*
X173890024Y69215168D03*
D17*
X178455024Y61882668D03*
D14*
X183475024Y62675168D03*
D18*
X184130016Y63405175D03*
D13*
X186817024Y71755168D03*
%TD*%
D10*
%TO.C,MX5*%
X156845056Y47625263D03*
D11*
X158115056Y50165263D03*
D12*
X161925056Y47625263D03*
D11*
X164465056Y52705263D03*
D10*
X167005056Y47625263D03*
D13*
X154840056Y50165263D03*
D14*
X159425056Y43125263D03*
X164425056Y43625263D03*
D13*
X167767056Y52705263D03*
%TD*%
D10*
%TO.C,MX1*%
X4445024Y66675168D03*
D11*
X5715024Y69215168D03*
D12*
X9525024Y66675168D03*
D11*
X12065024Y71755168D03*
D10*
X14605024Y66675168D03*
D13*
X2440024Y69215168D03*
D17*
X7005024Y61882668D03*
D14*
X12025024Y62675168D03*
D18*
X12680016Y63405175D03*
D19*
X15367024Y71755168D03*
%TD*%
D20*
%TO.C,J2*%
X2381172Y33650247D03*
D21*
X2381172Y31110247D03*
X2381172Y28570247D03*
X2381172Y26030247D03*
X2381172Y23490247D03*
%TD*%
D10*
%TO.C,MX36*%
X175895072Y47625263D03*
D11*
X177165072Y50165263D03*
D12*
X180975072Y47625263D03*
D11*
X183515072Y52705263D03*
D10*
X186055072Y47625263D03*
D13*
X173890072Y50165263D03*
D14*
X178475072Y43125263D03*
X183475072Y43625263D03*
D13*
X186817072Y52705263D03*
%TD*%
D10*
%TO.C,MX28*%
X137795024Y66675168D03*
D11*
X139065024Y69215168D03*
D12*
X142875024Y66675168D03*
D11*
X145415024Y71755168D03*
D10*
X147955024Y66675168D03*
D13*
X135790024Y69215168D03*
D14*
X140375024Y62175168D03*
X145375024Y62675168D03*
D13*
X148717024Y71755168D03*
%TD*%
D12*
%TO.C,MX19*%
X64262024Y17780168D03*
D15*
X64262024Y2540168D03*
D10*
X71120024Y9525168D03*
D11*
X72390024Y12065168D03*
D12*
X76200024Y9525168D03*
D11*
X78740024Y14605168D03*
D10*
X81280024Y9525168D03*
D12*
X88138024Y17780168D03*
D15*
X88138024Y2540168D03*
D13*
X69115024Y12065168D03*
D14*
X73700024Y5025168D03*
X78700024Y5525168D03*
D13*
X82042024Y14605168D03*
%TD*%
D10*
%TO.C,MX4*%
X4445024Y9525168D03*
D11*
X5715024Y12065168D03*
D12*
X9525024Y9525168D03*
D11*
X12065024Y14605168D03*
D10*
X14605024Y9525168D03*
D13*
X2440024Y12065168D03*
D17*
X7005024Y4732668D03*
D14*
X12025024Y5525168D03*
D18*
X12680016Y6255175D03*
D13*
X15367024Y14605168D03*
%TD*%
D10*
%TO.C,MX32*%
X156845024Y66675168D03*
D11*
X158115024Y69215168D03*
D12*
X161925024Y66675168D03*
D11*
X164465024Y71755168D03*
D10*
X167005024Y66675168D03*
D13*
X154840024Y69215168D03*
D14*
X159425024Y62175168D03*
X164425024Y62675168D03*
D19*
X167767024Y71755168D03*
%TD*%
D10*
%TO.C,MX31*%
X137795024Y9525168D03*
D11*
X139065024Y12065168D03*
D12*
X142875024Y9525168D03*
D11*
X145415024Y14605168D03*
D10*
X147955024Y9525168D03*
D13*
X135790024Y12065168D03*
D14*
X140375024Y5025168D03*
X145375024Y5525168D03*
D13*
X148717024Y14605168D03*
%TD*%
D10*
%TO.C,MX9*%
X42545024Y66675168D03*
D11*
X43815024Y69215168D03*
D12*
X47625024Y66675168D03*
D11*
X50165024Y71755168D03*
D10*
X52705024Y66675168D03*
D13*
X40540024Y69215168D03*
D14*
X45125024Y62175168D03*
X50125024Y62675168D03*
D13*
X53467024Y71755168D03*
%TD*%
D10*
%TO.C,MX34*%
X156845024Y9525168D03*
D11*
X158115024Y12065168D03*
D12*
X161925024Y9525168D03*
D11*
X164465024Y14605168D03*
D10*
X167005024Y9525168D03*
D13*
X154840024Y12065168D03*
D14*
X159425024Y5025168D03*
X164425024Y5525168D03*
D13*
X167767024Y14605168D03*
%TD*%
D10*
%TO.C,MX22*%
X90170048Y28575247D03*
D11*
X91440048Y31115247D03*
D12*
X95250048Y28575247D03*
D11*
X97790048Y33655247D03*
D10*
X100330048Y28575247D03*
D13*
X88165048Y31115247D03*
D14*
X92750048Y24075247D03*
X97750048Y24575247D03*
D13*
X101092048Y33655247D03*
%TD*%
D10*
%TO.C,MX30*%
X128270048Y28575247D03*
D11*
X129540048Y31115247D03*
D12*
X133350048Y28575247D03*
D11*
X135890048Y33655247D03*
D10*
X138430048Y28575247D03*
D13*
X126265048Y31115247D03*
D14*
X130850048Y24075247D03*
X135850048Y24575247D03*
D13*
X139192048Y33655247D03*
%TD*%
D10*
%TO.C,MX20*%
X109855024Y66675168D03*
D11*
X108585024Y64135168D03*
D12*
X104775024Y66675168D03*
D11*
X102235024Y61595168D03*
D10*
X99695024Y66675168D03*
D14*
X102275024Y70675168D03*
D13*
X98933024Y61595168D03*
X111860024Y64135168D03*
D14*
X107275024Y71175168D03*
%TD*%
D10*
%TO.C,MX10*%
X42545040Y47625263D03*
D11*
X43815040Y50165263D03*
D12*
X47625040Y47625263D03*
D11*
X50165040Y52705263D03*
D10*
X52705040Y47625263D03*
D13*
X40540040Y50165263D03*
D14*
X45125040Y43125263D03*
X50125040Y43625263D03*
D13*
X53467040Y52705263D03*
%TD*%
D10*
%TO.C,MX25*%
X118745040Y47625263D03*
D11*
X120015040Y50165263D03*
D12*
X123825040Y47625263D03*
D11*
X126365040Y52705263D03*
D10*
X128905040Y47625263D03*
D13*
X116740040Y50165263D03*
D14*
X121325040Y43125263D03*
X126325040Y43625263D03*
D13*
X129667040Y52705263D03*
%TD*%
D22*
%TO.C,R_DATA1*%
X60361222Y21494271D03*
X61082470Y20773023D03*
%TD*%
D23*
%TO.C,R2*%
X94000240Y68349854D03*
X94000240Y67329854D03*
%TD*%
D24*
%TO.C,C_3V-Decoup5*%
X56471148Y17817857D03*
X57149970Y18496679D03*
%TD*%
D25*
%TO.C,J3*%
X92360240Y71516593D03*
X98140240Y71516593D03*
D26*
X92000240Y70071593D03*
X92800240Y70071593D03*
D27*
X94000240Y70071593D03*
X95000240Y70071593D03*
X95500240Y70071593D03*
X96500240Y70071593D03*
D26*
X97700240Y70071593D03*
X98500240Y70071593D03*
X98500240Y70071593D03*
X97700240Y70071593D03*
D27*
X97000240Y70071593D03*
X96000240Y70071593D03*
X94500240Y70071593D03*
X93500240Y70071593D03*
D26*
X92800240Y70071593D03*
X92000240Y70071593D03*
D28*
X90930240Y75166593D03*
D29*
X90930240Y70986593D03*
D28*
X99570240Y75166593D03*
D29*
X99570240Y70986593D03*
%TD*%
D30*
%TO.C,C_3V-Decoup8*%
X53980024Y2788913D03*
X53980024Y1828913D03*
%TD*%
D31*
%TO.C,D8*%
X41431352Y5100168D03*
X39531352Y5100168D03*
X40481352Y6975168D03*
%TD*%
D32*
%TO.C,C_1V-Decoup1*%
X60904371Y17264106D03*
X59944371Y17264106D03*
%TD*%
D31*
%TO.C,D1*%
X19999936Y62250264D03*
X18099936Y62250264D03*
X19049936Y64125264D03*
%TD*%
D24*
%TO.C,C_3V-Decoup4*%
X57405870Y16924889D03*
X58084692Y17603711D03*
%TD*%
D30*
%TO.C,C1*%
X88999443Y74664564D03*
X88999443Y73704564D03*
%TD*%
D33*
%TO.C,U3*%
X74458779Y59588429D03*
X74458779Y57688429D03*
X72583779Y58638429D03*
%TD*%
D31*
%TO.C,D17*%
X168531047Y62250264D03*
X166631047Y62250264D03*
X167581047Y64125264D03*
%TD*%
D22*
%TO.C,R_Flash3*%
X69319044Y27552283D03*
X70040292Y26831035D03*
%TD*%
D31*
%TO.C,D11*%
X86674992Y24150168D03*
X84774992Y24150168D03*
X85724992Y26025168D03*
%TD*%
D34*
%TO.C,R1*%
X87511158Y75009564D03*
X87511158Y73359564D03*
%TD*%
D31*
%TO.C,D20*%
X172343403Y8289867D03*
X170443403Y8289867D03*
X171393403Y10164867D03*
%TD*%
%TO.C,D18*%
X172400064Y43115885D03*
X170500064Y43115885D03*
X171450064Y44990885D03*
%TD*%
D35*
%TO.C,F1*%
X91087885Y58638429D03*
X89512885Y58638429D03*
%TD*%
D36*
%TO.C,C_3V-Decoup6*%
X68278767Y8632053D03*
X69238767Y8632053D03*
%TD*%
D24*
%TO.C,C_Flash1*%
X64875402Y26852248D03*
X65554224Y27531070D03*
%TD*%
D37*
%TO.C,C_LD2*%
X70842366Y57688429D03*
X70842366Y58648429D03*
%TD*%
D31*
%TO.C,D6*%
X58099968Y43115885D03*
X56199968Y43115885D03*
X57149968Y44990885D03*
%TD*%
D38*
%TO.C,U1*%
X66181813Y8635165D03*
X65898970Y8352322D03*
X65616128Y8069480D03*
X65333285Y7786637D03*
X65050442Y7503794D03*
X64767600Y7220952D03*
X64484757Y6938109D03*
X64201914Y6655266D03*
X63919071Y6372423D03*
X63636229Y6089581D03*
X63353386Y5806738D03*
X63070543Y5523895D03*
X62787701Y5241053D03*
X62504858Y4958210D03*
D39*
X61320454Y4958210D03*
X61037611Y5241053D03*
X60754769Y5523895D03*
X60471926Y5806738D03*
X60189083Y6089581D03*
X59906241Y6372423D03*
X59623398Y6655266D03*
X59340555Y6938109D03*
X59057712Y7220952D03*
X58774870Y7503794D03*
X58492027Y7786637D03*
X58209184Y8069480D03*
X57926342Y8352322D03*
X57643499Y8635165D03*
D38*
X57643499Y9819569D03*
X57926342Y10102412D03*
X58209184Y10385254D03*
X58492027Y10668097D03*
X58774870Y10950940D03*
X59057712Y11233782D03*
X59340555Y11516625D03*
X59623398Y11799468D03*
X59906241Y12082311D03*
X60189083Y12365153D03*
X60471926Y12647996D03*
X60754769Y12930839D03*
X61037611Y13213681D03*
X61320454Y13496524D03*
D39*
X62504858Y13496524D03*
X62787701Y13213681D03*
X63070543Y12930839D03*
X63353386Y12647996D03*
X63636229Y12365153D03*
X63919071Y12082311D03*
X64201914Y11799468D03*
X64484757Y11516625D03*
X64767600Y11233782D03*
X65050442Y10950940D03*
X65333285Y10668097D03*
X65616128Y10385254D03*
X65898970Y10102412D03*
X66181813Y9819569D03*
D40*
X61912656Y9227367D03*
%TD*%
D36*
%TO.C,C_3V-Decoup9*%
X65897511Y5655483D03*
X66857511Y5655483D03*
%TD*%
D31*
%TO.C,D15*%
X124775024Y24150168D03*
X122875024Y24150168D03*
X123825024Y26025168D03*
%TD*%
D22*
%TO.C,R_DATA2*%
X59564195Y20697244D03*
X60285443Y19975996D03*
%TD*%
D31*
%TO.C,D14*%
X134300032Y43115885D03*
X132400032Y43115885D03*
X133350032Y44990885D03*
%TD*%
D41*
%TO.C,R_RST1*%
X8099613Y24173367D03*
X7378365Y23452119D03*
%TD*%
D42*
%TO.C,SW2*%
X24293692Y34106499D03*
X24293692Y27806499D03*
X28093692Y34106499D03*
X28093692Y27806499D03*
%TD*%
D37*
%TO.C,C_LD1*%
X76200192Y58638429D03*
X76200192Y59598429D03*
%TD*%
D31*
%TO.C,D3*%
X32501509Y24150168D03*
X30601509Y24150168D03*
X31551509Y26025168D03*
%TD*%
%TO.C,D5*%
X54230759Y62250264D03*
X52330759Y62250264D03*
X53280759Y64125264D03*
%TD*%
D24*
%TO.C,C_3V-Decoup3*%
X59191809Y15138950D03*
X59870631Y15817772D03*
%TD*%
D43*
%TO.C,R_Flash1*%
X63365904Y26831035D03*
X64087152Y27552283D03*
%TD*%
D31*
%TO.C,D13*%
X130430951Y62250264D03*
X128530951Y62250264D03*
X129480951Y64125264D03*
%TD*%
D32*
%TO.C,C_Crystal2*%
X56439516Y892971D03*
X55479516Y892971D03*
%TD*%
D44*
%TO.C,D21*%
X85427559Y73134564D03*
X85427559Y75234564D03*
%TD*%
D22*
%TO.C,R_Flash2*%
X67830759Y27552283D03*
X68552007Y26831035D03*
%TD*%
D31*
%TO.C,D4*%
X20000048Y7396896D03*
X18100048Y7396896D03*
X19050048Y9271896D03*
%TD*%
%TO.C,D10*%
X96200000Y43115885D03*
X94300000Y43115885D03*
X95250000Y44990885D03*
%TD*%
%TO.C,D19*%
X162875056Y24150168D03*
X160975056Y24150168D03*
X161925056Y26025168D03*
%TD*%
D32*
%TO.C,C_1V-Decoup2*%
X60904371Y18454734D03*
X59944371Y18454734D03*
%TD*%
D45*
%TO.C,R_Crystal1*%
X56640144Y5357827D03*
X57660144Y5357827D03*
%TD*%
D42*
%TO.C,SW1*%
X24293692Y18281491D03*
X24293692Y24581491D03*
X20493692Y18281491D03*
X20493692Y24581491D03*
%TD*%
D46*
%TO.C,U2*%
X70303098Y24929461D03*
X70303098Y23659461D03*
X70303098Y22389461D03*
X70303098Y21119461D03*
X63103098Y21119461D03*
X63103098Y22389461D03*
X63103098Y23659461D03*
X63103098Y24929461D03*
%TD*%
D47*
%TO.C,C_1V-Decoup3*%
X54810642Y5697237D03*
X54131820Y5018415D03*
%TD*%
D23*
%TO.C,R3*%
X97000240Y68349854D03*
X97000240Y67329854D03*
%TD*%
D36*
%TO.C,C_Crystal1*%
X57860772Y892971D03*
X58820772Y892971D03*
%TD*%
D31*
%TO.C,D9*%
X103225024Y72881436D03*
X101325024Y72881436D03*
X102275024Y74756436D03*
%TD*%
D24*
%TO.C,C_3V-Decoup2*%
X55619931Y18710828D03*
X56298753Y19389650D03*
%TD*%
D48*
%TO.C,Y1*%
X56050144Y4008913D03*
X58250144Y4008913D03*
X58250144Y2308913D03*
X56050144Y2308913D03*
%TD*%
D32*
%TO.C,C_3V-Decoup7*%
X56737173Y12799251D03*
X55777173Y12799251D03*
%TD*%
D31*
%TO.C,D16*%
X120905771Y5100168D03*
X119005771Y5100168D03*
X119955771Y6975168D03*
%TD*%
%TO.C,D2*%
X19999936Y43115885D03*
X18099936Y43115885D03*
X19049936Y44990885D03*
%TD*%
%TO.C,D7*%
X48574960Y24150168D03*
X46674960Y24150168D03*
X47624960Y26025168D03*
%TD*%
D49*
%TO.C,FB1*%
X83641617Y73699564D03*
X83641617Y74669564D03*
%TD*%
D24*
%TO.C,C_3V-Decoup1*%
X54685206Y19603799D03*
X55364028Y20282621D03*
%TD*%
D50*
%TO.C,FB2*%
X93464298Y58638429D03*
X92494298Y58638429D03*
%TD*%
D31*
%TO.C,D12*%
X82805675Y5100168D03*
X80905675Y5100168D03*
X81855675Y6975168D03*
%TD*%
M02*
