M48
; DRILL file {KiCad 7.0.6} date Sun Oct 22 23:34:18 2023
; FORMAT={-:-/ absolute / metric / decimal}
; #@! TF.CreationDate,2023-10-22T23:34:18-04:00
; #@! TF.GenerationSoftware,Kicad,Pcbnew,7.0.6
; #@! TF.FileFunction,NonPlated,1,2,NPTH
FMAT,2
METRIC
; #@! TA.AperFunction,NonPlated,NPTH,ComponentDrill
T1C0.650
; #@! TA.AperFunction,NonPlated,NPTH,ComponentDrill
T2C1.750
; #@! TA.AperFunction,NonPlated,NPTH,ComponentDrill
T3C3.000
; #@! TA.AperFunction,NonPlated,NPTH,ComponentDrill
T4C3.048
; #@! TA.AperFunction,NonPlated,NPTH,ComponentDrill
T5C3.988
%
G90
G05
T1
X92.36Y71.517
X98.14Y71.517
T2
X4.445Y47.625
X4.445Y66.675
X4.445Y9.525
X9.207Y28.575
X14.605Y47.625
X14.605Y66.675
X14.605Y9.525
X19.367Y28.575
X23.495Y66.675
X23.495Y9.525
X23.495Y47.625
X33.02Y28.575
X33.655Y66.675
X33.655Y9.525
X33.655Y47.625
X42.545Y66.675
X42.545Y9.525
X42.545Y47.625
X43.18Y28.575
X52.07Y28.575
X52.705Y66.675
X52.705Y9.525
X52.705Y47.625
X61.595Y66.675
X61.595Y47.625
X62.23Y28.575
X71.12Y9.525
X71.12Y28.575
X71.755Y66.675
X71.755Y47.625
X80.645Y66.675
X80.645Y47.625
X81.28Y9.525
X81.28Y28.575
X90.17Y28.575
X90.17Y9.525
X90.805Y66.675
X90.805Y47.625
X99.695Y66.675
X99.695Y47.625
X100.33Y28.575
X100.33Y9.525
X109.22Y9.525
X109.22Y28.575
X109.855Y66.675
X109.855Y47.625
X118.745Y66.675
X118.745Y47.625
X119.38Y9.525
X119.38Y28.575
X128.27Y28.575
X128.905Y66.675
X128.905Y47.625
X137.795Y66.675
X137.795Y9.525
X137.795Y47.625
X138.43Y28.575
X147.32Y28.575
X147.955Y66.675
X147.955Y9.525
X147.955Y47.625
X156.845Y66.675
X156.845Y9.525
X156.845Y47.625
X157.48Y28.575
X167.005Y66.675
X167.005Y9.525
X167.005Y47.625
X171.133Y28.575
X175.895Y66.675
X175.895Y9.525
X175.895Y47.625
X181.293Y28.575
X186.055Y66.675
X186.055Y9.525
X186.055Y47.625
T3
X5.715Y50.165
X5.715Y69.215
X5.715Y12.065
X10.477Y31.115
X12.065Y52.705
X12.065Y71.755
X12.065Y14.605
X16.827Y33.655
X24.765Y69.215
X24.765Y12.065
X24.765Y50.165
X31.115Y71.755
X31.115Y14.605
X31.115Y52.705
X34.29Y31.115
X40.64Y33.655
X43.815Y69.215
X43.815Y12.065
X43.815Y50.165
X50.165Y71.755
X50.165Y14.605
X50.165Y52.705
X53.34Y31.115
X59.69Y33.655
X62.865Y69.215
X62.865Y50.165
X69.215Y71.755
X69.215Y52.705
X72.39Y12.065
X72.39Y31.115
X78.74Y14.605
X78.74Y33.655
X81.915Y50.165
X83.185Y61.595
X88.265Y52.705
X89.535Y64.135
X91.44Y31.115
X91.44Y12.065
X97.79Y33.655
X97.79Y14.605
X100.965Y50.165
X102.235Y61.595
X107.315Y52.705
X108.585Y64.135
X110.49Y12.065
X110.49Y31.115
X116.84Y14.605
X116.84Y33.655
X120.015Y69.215
X120.015Y50.165
X126.365Y71.755
X126.365Y52.705
X129.54Y31.115
X135.89Y33.655
X139.065Y69.215
X139.065Y12.065
X139.065Y50.165
X145.415Y71.755
X145.415Y14.605
X145.415Y52.705
X148.59Y31.115
X154.94Y33.655
X158.115Y69.215
X158.115Y12.065
X158.115Y50.165
X164.465Y71.755
X164.465Y14.605
X164.465Y52.705
X172.403Y31.115
X177.165Y69.215
X177.165Y12.065
X177.165Y50.165
X178.753Y33.655
X183.515Y71.755
X183.515Y14.605
X183.515Y52.705
T4
X28.575Y2.54
X38.1Y2.54
X47.625Y2.54
X64.262Y2.54
X66.675Y2.54
X88.138Y2.54
X102.362Y2.54
X123.825Y2.54
X126.238Y2.54
X142.875Y2.54
X152.4Y2.54
X161.925Y2.54
T5
X9.525Y47.625
X9.525Y66.675
X9.525Y9.525
X14.287Y28.575
X28.575Y66.675
X28.575Y9.525
X28.575Y47.625
X28.575Y17.78
X38.1Y28.575
X38.1Y17.78
X47.625Y66.675
X47.625Y9.525
X47.625Y47.625
X47.625Y17.78
X57.15Y28.575
X64.262Y17.78
X66.675Y66.675
X66.675Y47.625
X66.675Y17.78
X76.2Y9.525
X76.2Y28.575
X85.725Y66.675
X85.725Y47.625
X88.138Y17.78
X95.25Y28.575
X95.25Y9.525
X102.362Y17.78
X104.775Y66.675
X104.775Y47.625
X114.3Y9.525
X114.3Y28.575
X123.825Y66.675
X123.825Y47.625
X123.825Y17.78
X126.238Y17.78
X133.35Y28.575
X142.875Y66.675
X142.875Y9.525
X142.875Y47.625
X142.875Y17.78
X152.4Y28.575
X152.4Y17.78
X161.925Y66.675
X161.925Y9.525
X161.925Y47.625
X161.925Y17.78
X176.213Y28.575
X180.975Y66.675
X180.975Y9.525
X180.975Y47.625
T0
M30
