%TF.GenerationSoftware,KiCad,Pcbnew,7.0.6*%
%TF.CreationDate,2023-10-22T23:34:03-04:00*%
%TF.ProjectId,good-delivery-alpha-stagger,676f6f64-2d64-4656-9c69-766572792d61,rev?*%
%TF.SameCoordinates,PX2d6b3a0PY7e9ae4e*%
%TF.FileFunction,Soldermask,Top*%
%TF.FilePolarity,Negative*%
%FSLAX46Y46*%
G04 Gerber Fmt 4.6, Leading zero omitted, Abs format (unit mm)*
G04 Created by KiCad (PCBNEW 7.0.6) date 2023-10-22 23:34:03*
%MOMM*%
%LPD*%
G01*
G04 APERTURE LIST*
%ADD10C,1.750000*%
%ADD11C,3.000000*%
%ADD12C,3.987800*%
%ADD13C,3.048000*%
%ADD14R,1.700000X1.700000*%
%ADD15O,1.700000X1.700000*%
%ADD16C,0.650000*%
%ADD17O,1.000000X1.600000*%
%ADD18O,1.000000X2.100000*%
G04 APERTURE END LIST*
D10*
%TO.C,MX11*%
X33019952Y28575168D03*
D11*
X34289952Y31115168D03*
D12*
X38099952Y28575168D03*
D11*
X40639952Y33655168D03*
D10*
X43179952Y28575168D03*
%TD*%
%TO.C,MX33*%
X147320048Y28575247D03*
D11*
X148590048Y31115247D03*
D12*
X152400048Y28575247D03*
D11*
X154940048Y33655247D03*
D10*
X157480048Y28575247D03*
%TD*%
%TO.C,MX21*%
X99695040Y47625263D03*
D11*
X100965040Y50165263D03*
D12*
X104775040Y47625263D03*
D11*
X107315040Y52705263D03*
D10*
X109855040Y47625263D03*
%TD*%
%TO.C,MX3*%
X9207432Y28575168D03*
D11*
X10477432Y31115168D03*
D12*
X14287432Y28575168D03*
D11*
X16827432Y33655168D03*
D10*
X19367432Y28575168D03*
%TD*%
%TO.C,MX7*%
X23495040Y47625263D03*
D11*
X24765040Y50165263D03*
D12*
X28575040Y47625263D03*
D11*
X31115040Y52705263D03*
D10*
X33655040Y47625263D03*
%TD*%
%TO.C,MX8*%
X23495024Y9525168D03*
D11*
X24765024Y12065168D03*
D12*
X28575024Y9525168D03*
D11*
X31115024Y14605168D03*
D10*
X33655024Y9525168D03*
%TD*%
%TO.C,MX12*%
X42545024Y9525168D03*
D11*
X43815024Y12065168D03*
D12*
X47625024Y9525168D03*
D11*
X50165024Y14605168D03*
D10*
X52705024Y9525168D03*
%TD*%
%TO.C,MX15*%
X52070048Y28575247D03*
D11*
X53340048Y31115247D03*
D12*
X57150048Y28575247D03*
D11*
X59690048Y33655247D03*
D10*
X62230048Y28575247D03*
%TD*%
%TO.C,MX24*%
X118745024Y66675168D03*
D11*
X120015024Y69215168D03*
D12*
X123825024Y66675168D03*
D11*
X126365024Y71755168D03*
D10*
X128905024Y66675168D03*
%TD*%
D12*
%TO.C,MX27*%
X102362024Y17780168D03*
D13*
X102362024Y2540168D03*
D10*
X109220024Y9525168D03*
D11*
X110490024Y12065168D03*
D12*
X114300024Y9525168D03*
D11*
X116840024Y14605168D03*
D10*
X119380024Y9525168D03*
D12*
X126238024Y17780168D03*
D13*
X126238024Y2540168D03*
%TD*%
D10*
%TO.C,MX6*%
X23495024Y66675168D03*
D11*
X24765024Y69215168D03*
D12*
X28575024Y66675168D03*
D11*
X31115024Y71755168D03*
D10*
X33655024Y66675168D03*
%TD*%
%TO.C,MX14*%
X61595040Y47625263D03*
D11*
X62865040Y50165263D03*
D12*
X66675040Y47625263D03*
D11*
X69215040Y52705263D03*
D10*
X71755040Y47625263D03*
%TD*%
%TO.C,MX37*%
X171132568Y28575247D03*
D11*
X172402568Y31115247D03*
D12*
X176212568Y28575247D03*
D11*
X178752568Y33655247D03*
D10*
X181292568Y28575247D03*
%TD*%
%TO.C,MX29*%
X137795040Y47625263D03*
D11*
X139065040Y50165263D03*
D12*
X142875040Y47625263D03*
D11*
X145415040Y52705263D03*
D10*
X147955040Y47625263D03*
%TD*%
%TO.C,MX16*%
X90805024Y66675168D03*
D11*
X89535024Y64135168D03*
D12*
X85725024Y66675168D03*
D11*
X83185024Y61595168D03*
D10*
X80645024Y66675168D03*
%TD*%
%TO.C,MX17*%
X80645040Y47625263D03*
D11*
X81915040Y50165263D03*
D12*
X85725040Y47625263D03*
D11*
X88265040Y52705263D03*
D10*
X90805040Y47625263D03*
%TD*%
%TO.C,MX13*%
X61595024Y66675168D03*
D11*
X62865024Y69215168D03*
D12*
X66675024Y66675168D03*
D11*
X69215024Y71755168D03*
D10*
X71755024Y66675168D03*
%TD*%
D12*
%TO.C,MX23*%
X28575240Y17780024D03*
D13*
X28575240Y2540024D03*
D12*
X38100240Y17780024D03*
D13*
X38100240Y2540024D03*
D12*
X47625240Y17780024D03*
D13*
X47625240Y2540024D03*
D12*
X66675240Y17780024D03*
D13*
X66675240Y2540024D03*
D10*
X90170240Y9525024D03*
D11*
X91440240Y12065024D03*
D12*
X95250240Y9525024D03*
D11*
X97790240Y14605024D03*
D10*
X100330240Y9525024D03*
D12*
X123825240Y17780024D03*
D13*
X123825240Y2540024D03*
D12*
X142875240Y17780024D03*
D13*
X142875240Y2540024D03*
D12*
X152400240Y17780024D03*
D13*
X152400240Y2540024D03*
D12*
X161925240Y17780024D03*
D13*
X161925240Y2540024D03*
%TD*%
D10*
%TO.C,MX26*%
X109220048Y28575247D03*
D11*
X110490048Y31115247D03*
D12*
X114300048Y28575247D03*
D11*
X116840048Y33655247D03*
D10*
X119380048Y28575247D03*
%TD*%
%TO.C,MX18*%
X71120048Y28575247D03*
D11*
X72390048Y31115247D03*
D12*
X76200048Y28575247D03*
D11*
X78740048Y33655247D03*
D10*
X81280048Y28575247D03*
%TD*%
%TO.C,MX38*%
X175895024Y9525168D03*
D11*
X177165024Y12065168D03*
D12*
X180975024Y9525168D03*
D11*
X183515024Y14605168D03*
D10*
X186055024Y9525168D03*
%TD*%
%TO.C,MX2*%
X4444928Y47625263D03*
D11*
X5714928Y50165263D03*
D12*
X9524928Y47625263D03*
D11*
X12064928Y52705263D03*
D10*
X14604928Y47625263D03*
%TD*%
%TO.C,MX35*%
X175895024Y66675168D03*
D11*
X177165024Y69215168D03*
D12*
X180975024Y66675168D03*
D11*
X183515024Y71755168D03*
D10*
X186055024Y66675168D03*
%TD*%
%TO.C,MX5*%
X156845056Y47625263D03*
D11*
X158115056Y50165263D03*
D12*
X161925056Y47625263D03*
D11*
X164465056Y52705263D03*
D10*
X167005056Y47625263D03*
%TD*%
%TO.C,MX1*%
X4445024Y66675168D03*
D11*
X5715024Y69215168D03*
D12*
X9525024Y66675168D03*
D11*
X12065024Y71755168D03*
D10*
X14605024Y66675168D03*
%TD*%
D14*
%TO.C,J2*%
X2381172Y33650247D03*
D15*
X2381172Y31110247D03*
X2381172Y28570247D03*
X2381172Y26030247D03*
X2381172Y23490247D03*
%TD*%
D10*
%TO.C,MX36*%
X175895072Y47625263D03*
D11*
X177165072Y50165263D03*
D12*
X180975072Y47625263D03*
D11*
X183515072Y52705263D03*
D10*
X186055072Y47625263D03*
%TD*%
%TO.C,MX28*%
X137795024Y66675168D03*
D11*
X139065024Y69215168D03*
D12*
X142875024Y66675168D03*
D11*
X145415024Y71755168D03*
D10*
X147955024Y66675168D03*
%TD*%
D12*
%TO.C,MX19*%
X64262024Y17780168D03*
D13*
X64262024Y2540168D03*
D10*
X71120024Y9525168D03*
D11*
X72390024Y12065168D03*
D12*
X76200024Y9525168D03*
D11*
X78740024Y14605168D03*
D10*
X81280024Y9525168D03*
D12*
X88138024Y17780168D03*
D13*
X88138024Y2540168D03*
%TD*%
D10*
%TO.C,MX4*%
X4445024Y9525168D03*
D11*
X5715024Y12065168D03*
D12*
X9525024Y9525168D03*
D11*
X12065024Y14605168D03*
D10*
X14605024Y9525168D03*
%TD*%
%TO.C,MX32*%
X156845024Y66675168D03*
D11*
X158115024Y69215168D03*
D12*
X161925024Y66675168D03*
D11*
X164465024Y71755168D03*
D10*
X167005024Y66675168D03*
%TD*%
%TO.C,MX31*%
X137795024Y9525168D03*
D11*
X139065024Y12065168D03*
D12*
X142875024Y9525168D03*
D11*
X145415024Y14605168D03*
D10*
X147955024Y9525168D03*
%TD*%
%TO.C,MX9*%
X42545024Y66675168D03*
D11*
X43815024Y69215168D03*
D12*
X47625024Y66675168D03*
D11*
X50165024Y71755168D03*
D10*
X52705024Y66675168D03*
%TD*%
%TO.C,MX34*%
X156845024Y9525168D03*
D11*
X158115024Y12065168D03*
D12*
X161925024Y9525168D03*
D11*
X164465024Y14605168D03*
D10*
X167005024Y9525168D03*
%TD*%
%TO.C,MX22*%
X90170048Y28575247D03*
D11*
X91440048Y31115247D03*
D12*
X95250048Y28575247D03*
D11*
X97790048Y33655247D03*
D10*
X100330048Y28575247D03*
%TD*%
%TO.C,MX30*%
X128270048Y28575247D03*
D11*
X129540048Y31115247D03*
D12*
X133350048Y28575247D03*
D11*
X135890048Y33655247D03*
D10*
X138430048Y28575247D03*
%TD*%
%TO.C,MX20*%
X109855024Y66675168D03*
D11*
X108585024Y64135168D03*
D12*
X104775024Y66675168D03*
D11*
X102235024Y61595168D03*
D10*
X99695024Y66675168D03*
%TD*%
%TO.C,MX10*%
X42545040Y47625263D03*
D11*
X43815040Y50165263D03*
D12*
X47625040Y47625263D03*
D11*
X50165040Y52705263D03*
D10*
X52705040Y47625263D03*
%TD*%
%TO.C,MX25*%
X118745040Y47625263D03*
D11*
X120015040Y50165263D03*
D12*
X123825040Y47625263D03*
D11*
X126365040Y52705263D03*
D10*
X128905040Y47625263D03*
%TD*%
D16*
%TO.C,J3*%
X92360240Y71516593D03*
X98140240Y71516593D03*
D17*
X90930240Y75166593D03*
D18*
X90930240Y70986593D03*
D17*
X99570240Y75166593D03*
D18*
X99570240Y70986593D03*
%TD*%
M02*
